%TF.GenerationSoftware,KiCad,Pcbnew,(5.1.9)-1*%
%TF.CreationDate,2021-05-07T19:23:29+02:00*%
%TF.ProjectId,STM32_Launchpad_v1r1,53544d33-325f-44c6-9175-6e6368706164,rev?*%
%TF.SameCoordinates,Original*%
%TF.FileFunction,Copper,L2,Inr*%
%TF.FilePolarity,Positive*%
%FSLAX46Y46*%
G04 Gerber Fmt 4.6, Leading zero omitted, Abs format (unit mm)*
G04 Created by KiCad (PCBNEW (5.1.9)-1) date 2021-05-07 19:23:29*
%MOMM*%
%LPD*%
G01*
G04 APERTURE LIST*
%TA.AperFunction,ComponentPad*%
%ADD10O,1.700000X1.700000*%
%TD*%
%TA.AperFunction,ComponentPad*%
%ADD11R,1.700000X1.700000*%
%TD*%
%TA.AperFunction,ComponentPad*%
%ADD12O,1.350000X1.700000*%
%TD*%
%TA.AperFunction,ComponentPad*%
%ADD13O,1.100000X1.500000*%
%TD*%
%TA.AperFunction,ComponentPad*%
%ADD14C,5.700000*%
%TD*%
%TA.AperFunction,ViaPad*%
%ADD15C,0.600000*%
%TD*%
%TA.AperFunction,ViaPad*%
%ADD16C,0.800000*%
%TD*%
%TA.AperFunction,Conductor*%
%ADD17C,0.254000*%
%TD*%
%TA.AperFunction,Conductor*%
%ADD18C,0.100000*%
%TD*%
G04 APERTURE END LIST*
D10*
%TO.N,/GPIO\u005CEI2*%
%TO.C,J5*%
X110260000Y-120380000D03*
%TO.N,/CANTX*%
X107720000Y-120380000D03*
%TO.N,/CANRX*%
X110260000Y-117840000D03*
%TO.N,/ENCA*%
X107720000Y-117840000D03*
%TO.N,/~SPICS*%
X110260000Y-115300000D03*
%TO.N,/ENCB*%
X107720000Y-115300000D03*
%TO.N,/SPIMISO*%
X110260000Y-112760000D03*
%TO.N,/ENCZ*%
X107720000Y-112760000D03*
%TO.N,/SPIMOSI*%
X110260000Y-110220000D03*
%TO.N,/PWMCL*%
X107720000Y-110220000D03*
%TO.N,/~RESET*%
X110260000Y-107680000D03*
%TO.N,/PWMCH*%
X107720000Y-107680000D03*
%TO.N,/GPIO\u005CEI4*%
X110260000Y-105140000D03*
%TO.N,/PWMBL*%
X107720000Y-105140000D03*
%TO.N,/GPIO\u005CEI3*%
X110260000Y-102600000D03*
%TO.N,/PWMBH*%
X107720000Y-102600000D03*
%TO.N,/GPIO\u005CEI1*%
X110260000Y-100060000D03*
%TO.N,/PWMAL*%
X107720000Y-100060000D03*
%TO.N,GND*%
X110260000Y-97520000D03*
D11*
%TO.N,/PWMAH*%
X107720000Y-97520000D03*
%TD*%
D10*
%TO.N,/LEDR*%
%TO.C,J8*%
X88960000Y-58500000D03*
D11*
%TO.N,/LEDG*%
X91500000Y-58500000D03*
%TD*%
%TO.N,+3V3*%
%TO.C,J7*%
X77500000Y-123100000D03*
D10*
%TO.N,/SPIE_MOSI*%
X77500000Y-125640000D03*
%TO.N,/SPIE_MISO*%
X74960000Y-125640000D03*
%TO.N,GND*%
X72420000Y-125640000D03*
%TO.N,/SPIE_CLK*%
X72420000Y-123100000D03*
%TO.N,/~SPIE_CS*%
X74960000Y-123100000D03*
%TD*%
%TO.N,GND*%
%TO.C,J4*%
X99200000Y-108140000D03*
D11*
%TO.N,/VBAT*%
X99200000Y-105600000D03*
%TD*%
D10*
%TO.N,GND*%
%TO.C,J6*%
X101280000Y-126100000D03*
X98740000Y-126100000D03*
D11*
%TO.N,+3V3*%
X96200000Y-126100000D03*
%TD*%
D10*
%TO.N,GND*%
%TO.C,J1*%
X68460000Y-58000000D03*
%TO.N,/SWDIO*%
X71000000Y-58000000D03*
%TO.N,/SWCLK*%
X73540000Y-58000000D03*
D11*
%TO.N,+3V3*%
X76080000Y-58000000D03*
%TD*%
D12*
%TO.N,GND*%
%TO.C,J2*%
X89205000Y-128230000D03*
X83745000Y-128230000D03*
D13*
X88895000Y-125230000D03*
X84055000Y-125230000D03*
%TD*%
D14*
%TO.N,GND*%
%TO.C,H4*%
X63500000Y-127000000D03*
%TD*%
%TO.N,GND*%
%TO.C,H3*%
X63500000Y-58000000D03*
%TD*%
%TO.N,GND*%
%TO.C,H2*%
X111500000Y-58000000D03*
%TD*%
%TO.N,GND*%
%TO.C,H1*%
X111500000Y-127000000D03*
%TD*%
D10*
%TO.N,/PB14_AD4*%
%TO.C,J3*%
X67080000Y-120380000D03*
%TO.N,/SDA*%
X64540000Y-120380000D03*
%TO.N,/PB12_AD4*%
X67080000Y-117840000D03*
%TO.N,/SCL*%
X64540000Y-117840000D03*
%TO.N,/PC1_AD2*%
X67080000Y-115300000D03*
%TO.N,/GPIO\u005CEI6*%
X64540000Y-115300000D03*
%TO.N,/PB1_AD3*%
X67080000Y-112760000D03*
%TO.N,/SPISCK*%
X64540000Y-112760000D03*
%TO.N,/PA0_AD1*%
X67080000Y-110220000D03*
%TO.N,/PA1_AD1*%
X64540000Y-110220000D03*
%TO.N,/PB0_AD3*%
X67080000Y-107680000D03*
%TO.N,/GPIO\u005CEI5*%
X64540000Y-107680000D03*
%TO.N,/PC0_AD2*%
X67080000Y-105140000D03*
%TO.N,/UART_MCUTX*%
X64540000Y-105140000D03*
%TO.N,/PB11_AD1*%
X67080000Y-102600000D03*
%TO.N,/UART_MCURX*%
X64540000Y-102600000D03*
%TO.N,GND*%
X67080000Y-100060000D03*
%TO.N,/PC4_AD2*%
X64540000Y-100060000D03*
%TO.N,+5V_EXT*%
X67080000Y-97520000D03*
D11*
%TO.N,+3.3V_EXT*%
X64540000Y-97520000D03*
%TD*%
D15*
%TO.N,GND*%
X86308058Y-123708058D03*
X88500000Y-60400000D03*
X92100000Y-60400000D03*
X77300000Y-84900000D03*
X96300000Y-56500000D03*
X105700000Y-56500000D03*
X82200000Y-91400000D03*
X94300000Y-104100000D03*
X91200000Y-94700000D03*
X99400000Y-93200000D03*
X94700000Y-94000000D03*
X96600000Y-101900000D03*
X96600000Y-97000000D03*
X76600000Y-120200000D03*
X94974990Y-107100000D03*
X81000000Y-105200022D03*
X83900000Y-88000000D03*
X84700000Y-82400000D03*
X80500000Y-85900000D03*
X67200000Y-78300000D03*
X69200000Y-78500000D03*
X70800000Y-78600000D03*
X67200000Y-83600000D03*
X85800000Y-93899988D03*
X91000000Y-123400000D03*
X80021640Y-91400009D03*
X90251585Y-102431351D03*
X69300000Y-83174990D03*
X83100000Y-101225000D03*
X80390000Y-120170000D03*
X62500000Y-64000000D03*
X65500000Y-64000000D03*
X68500000Y-64000000D03*
X76500000Y-64000000D03*
X79500000Y-64000000D03*
X82500000Y-64000000D03*
X85500000Y-64000000D03*
X94500000Y-64000000D03*
X97500000Y-64000000D03*
X100500000Y-64000000D03*
X106500000Y-64000000D03*
X110500000Y-64000000D03*
X62500000Y-68000000D03*
X65500000Y-68000000D03*
X68500000Y-68000000D03*
X76500000Y-68000000D03*
X79500000Y-68000000D03*
X82500000Y-68000000D03*
X85500000Y-68000000D03*
X88500000Y-68000000D03*
X91500000Y-68000000D03*
X94500000Y-68000000D03*
X97500000Y-68000000D03*
X106500000Y-68000000D03*
X110500000Y-68000000D03*
X62500000Y-72000000D03*
X65500000Y-72000000D03*
X68500000Y-72000000D03*
X71500000Y-72000000D03*
X97500000Y-72000000D03*
X106500000Y-72000000D03*
X110500000Y-72000000D03*
X62500000Y-76000000D03*
X65500000Y-76000000D03*
X68500000Y-76000000D03*
X71500000Y-76000000D03*
X76500000Y-74000000D03*
X79500000Y-74000000D03*
X82500000Y-74000000D03*
X85500000Y-74000000D03*
X88500000Y-74000000D03*
X91500000Y-74000000D03*
X82500000Y-77000000D03*
X85500000Y-77000000D03*
X88500000Y-77000000D03*
X91500000Y-77000000D03*
X97500000Y-77000000D03*
X106500000Y-77000000D03*
X82500000Y-80000000D03*
X85500000Y-80000000D03*
X88500000Y-80000000D03*
X91500000Y-80000000D03*
X97500000Y-80000000D03*
X106500000Y-80000000D03*
X106500000Y-83000000D03*
X97500000Y-83000000D03*
X91500000Y-83000000D03*
X88500000Y-83000000D03*
X62500000Y-80000000D03*
X106500000Y-88000000D03*
X106500000Y-90000000D03*
X106500000Y-93000000D03*
X101500000Y-118000000D03*
X78500000Y-113000000D03*
X78500000Y-115000000D03*
X78500000Y-117000000D03*
X85500000Y-115000000D03*
X78500000Y-119000000D03*
X89500000Y-118000000D03*
X92500000Y-118000000D03*
X95500000Y-118000000D03*
X98500000Y-118000000D03*
X89500000Y-121000000D03*
X92500000Y-121000000D03*
X95500000Y-121000000D03*
X98500000Y-121000000D03*
X101500000Y-121000000D03*
X89500000Y-114000000D03*
X92500000Y-114000000D03*
X95500000Y-114000000D03*
X98500000Y-114000000D03*
X105500000Y-104000000D03*
X105500000Y-109000000D03*
X105500000Y-106500000D03*
X105500000Y-114000000D03*
X105500000Y-116500000D03*
X100000000Y-92000000D03*
X67000000Y-90000000D03*
X70500000Y-87000000D03*
X79500000Y-110000000D03*
D16*
%TO.N,+3V3*%
X65700000Y-93100000D03*
X64600000Y-92200000D03*
X63525000Y-93100000D03*
D15*
X78200000Y-120200000D03*
X94974990Y-108600000D03*
X83300000Y-93900000D03*
X79900000Y-88700000D03*
X73700000Y-97400000D03*
X91999994Y-105100000D03*
X81733049Y-103016947D03*
X97100000Y-94000000D03*
X73600000Y-80500000D03*
X92300000Y-93600000D03*
X74400000Y-80500000D03*
X79600000Y-79000000D03*
X79600000Y-80500000D03*
X79600000Y-82000000D03*
%TO.N,/PB11_AD1*%
X76100000Y-89499987D03*
%TO.N,/PC0_AD2*%
X91129436Y-101279464D03*
X78000000Y-111600000D03*
X78799992Y-101700000D03*
%TO.N,/PB0_AD3*%
X76074817Y-93200000D03*
X77000000Y-112400012D03*
X86800000Y-86000006D03*
%TO.N,/PA0_AD1*%
X76100000Y-96299988D03*
X75200000Y-114200000D03*
X90200000Y-96600030D03*
%TO.N,/PB1_AD3*%
X69700000Y-101300000D03*
X86771055Y-90712844D03*
%TO.N,/PC1_AD2*%
X90300000Y-100300006D03*
X74299980Y-115000000D03*
X76099999Y-97400000D03*
%TO.N,/PB12_AD4*%
X71299990Y-99900000D03*
X69700000Y-117500000D03*
X76100000Y-90800000D03*
%TO.N,/PB14_AD4*%
X72300000Y-94100000D03*
X71300000Y-118200000D03*
X76100006Y-92050011D03*
%TO.N,/SDA*%
X84100000Y-98300000D03*
X74500000Y-94900000D03*
X74900000Y-99400000D03*
%TO.N,/SCL*%
X73000000Y-94900000D03*
X83653114Y-97630785D03*
X73800000Y-99399992D03*
%TO.N,/PA1_AD1*%
X76100000Y-95200000D03*
X76100000Y-113300000D03*
X90170634Y-95633573D03*
%TO.N,/UART_MCUTX*%
X78800000Y-99900000D03*
%TO.N,/UART_MCURX*%
X78800022Y-100800000D03*
%TO.N,/~SPICS*%
X113100000Y-92800000D03*
X92100000Y-86000000D03*
%TO.N,/CANRX*%
X105500000Y-118100000D03*
X89800000Y-108100000D03*
%TO.N,/CANTX*%
X71300000Y-106700000D03*
X80999998Y-106500000D03*
%TO.N,/ENCA*%
X90664407Y-109235597D03*
%TO.N,/ENCB*%
X91400000Y-108100000D03*
%TO.N,/ENCZ*%
X88999978Y-109199996D03*
%TO.N,/PWMCL*%
X103100000Y-91800000D03*
X87804451Y-85095549D03*
%TO.N,/PWMCH*%
X104187845Y-92785414D03*
X94800014Y-96100000D03*
%TO.N,/PWMBL*%
X104799996Y-93400000D03*
X79700000Y-97499988D03*
%TO.N,/PWMBH*%
X105400000Y-94000000D03*
X94741949Y-97900000D03*
%TO.N,/PWMAL*%
X106600000Y-95300000D03*
X95000000Y-101400000D03*
%TO.N,/PWMAH*%
X106000000Y-94599998D03*
X78800006Y-99000000D03*
%TO.N,/SWCLK*%
X98900000Y-92300000D03*
X86100000Y-97000000D03*
%TO.N,/SWDIO*%
X97800000Y-92100000D03*
X85500000Y-96200000D03*
%TO.N,/SPIMOSI*%
X111200000Y-92800000D03*
X89500000Y-85100000D03*
%TO.N,/SPIMISO*%
X110100000Y-91500000D03*
X90200000Y-86000000D03*
%TO.N,/SPISCK*%
X91300000Y-85100000D03*
%TO.N,/GPIO\u005CEI4*%
X112100000Y-91500000D03*
X93200000Y-85100004D03*
%TO.N,/GPIO\u005CEI3*%
X94293476Y-94774968D03*
%TO.N,/PC4_AD2*%
X88275279Y-85954969D03*
%TO.N,/GPIO\u005CEI6*%
X81399996Y-90100000D03*
X70400000Y-88900000D03*
%TO.N,/GPIO\u005CEI5*%
X85649983Y-89900000D03*
%TO.N,/GPIO\u005CEI1*%
X86800000Y-108100000D03*
%TO.N,+5V_USB*%
X84000000Y-121700000D03*
X84600000Y-116800000D03*
%TO.N,/LEDG*%
X100800000Y-90700000D03*
X84899996Y-95400000D03*
%TO.N,/LEDR*%
X84299988Y-94700000D03*
X100100000Y-89974990D03*
%TO.N,/SPIE_CLK*%
X84100000Y-109199992D03*
%TO.N,/SPIE_MISO*%
X84899994Y-108100000D03*
%TO.N,/~SPIE_CS*%
X83100000Y-108099992D03*
%TO.N,/SPIE_MOSI*%
X85600000Y-109200000D03*
%TD*%
D17*
%TO.N,GND*%
X109047965Y-55727573D02*
X108594150Y-56045757D01*
X108268731Y-56650210D01*
X108067488Y-57306535D01*
X107998155Y-57989510D01*
X108063395Y-58672888D01*
X108260702Y-59330407D01*
X108582494Y-59936799D01*
X108594150Y-59954243D01*
X109047967Y-60272428D01*
X111320395Y-58000000D01*
X111306253Y-57985858D01*
X111485858Y-57806253D01*
X111500000Y-57820395D01*
X111514143Y-57806253D01*
X111693748Y-57985858D01*
X111679605Y-58000000D01*
X111693748Y-58014143D01*
X111514143Y-58193748D01*
X111500000Y-58179605D01*
X109227572Y-60452033D01*
X109545757Y-60905850D01*
X110150210Y-61231269D01*
X110806535Y-61432512D01*
X111489510Y-61501845D01*
X112172888Y-61436605D01*
X112830407Y-61239298D01*
X113436799Y-60917506D01*
X113454243Y-60905850D01*
X113772427Y-60452035D01*
X113840001Y-60519609D01*
X113840001Y-92224533D01*
X113826262Y-92203972D01*
X113696028Y-92073738D01*
X113542889Y-91971414D01*
X113372729Y-91900932D01*
X113192089Y-91865000D01*
X113007911Y-91865000D01*
X112956623Y-91875202D01*
X112999068Y-91772729D01*
X113035000Y-91592089D01*
X113035000Y-91407911D01*
X112999068Y-91227271D01*
X112928586Y-91057111D01*
X112826262Y-90903972D01*
X112696028Y-90773738D01*
X112542889Y-90671414D01*
X112372729Y-90600932D01*
X112192089Y-90565000D01*
X112007911Y-90565000D01*
X111827271Y-90600932D01*
X111657111Y-90671414D01*
X111503972Y-90773738D01*
X111373738Y-90903972D01*
X111271414Y-91057111D01*
X111200932Y-91227271D01*
X111165000Y-91407911D01*
X111165000Y-91592089D01*
X111200932Y-91772729D01*
X111239152Y-91865000D01*
X111107911Y-91865000D01*
X110947644Y-91896880D01*
X110999068Y-91772729D01*
X111035000Y-91592089D01*
X111035000Y-91407911D01*
X110999068Y-91227271D01*
X110928586Y-91057111D01*
X110826262Y-90903972D01*
X110696028Y-90773738D01*
X110542889Y-90671414D01*
X110372729Y-90600932D01*
X110192089Y-90565000D01*
X110007911Y-90565000D01*
X109827271Y-90600932D01*
X109657111Y-90671414D01*
X109503972Y-90773738D01*
X109373738Y-90903972D01*
X109271414Y-91057111D01*
X109200932Y-91227271D01*
X109165000Y-91407911D01*
X109165000Y-91592089D01*
X109200932Y-91772729D01*
X109271414Y-91942889D01*
X109373738Y-92096028D01*
X109503972Y-92226262D01*
X109657111Y-92328586D01*
X109827271Y-92399068D01*
X110007911Y-92435000D01*
X110192089Y-92435000D01*
X110352356Y-92403120D01*
X110300932Y-92527271D01*
X110265000Y-92707911D01*
X110265000Y-92892089D01*
X110300932Y-93072729D01*
X110371414Y-93242889D01*
X110473738Y-93396028D01*
X110603972Y-93526262D01*
X110757111Y-93628586D01*
X110927271Y-93699068D01*
X111107911Y-93735000D01*
X111292089Y-93735000D01*
X111472729Y-93699068D01*
X111642889Y-93628586D01*
X111796028Y-93526262D01*
X111926262Y-93396028D01*
X112028586Y-93242889D01*
X112099068Y-93072729D01*
X112135000Y-92892089D01*
X112135000Y-92707911D01*
X112099068Y-92527271D01*
X112060848Y-92435000D01*
X112192089Y-92435000D01*
X112243377Y-92424798D01*
X112200932Y-92527271D01*
X112165000Y-92707911D01*
X112165000Y-92892089D01*
X112200932Y-93072729D01*
X112271414Y-93242889D01*
X112373738Y-93396028D01*
X112503972Y-93526262D01*
X112657111Y-93628586D01*
X112827271Y-93699068D01*
X113007911Y-93735000D01*
X113192089Y-93735000D01*
X113372729Y-93699068D01*
X113542889Y-93628586D01*
X113696028Y-93526262D01*
X113826262Y-93396028D01*
X113840000Y-93375467D01*
X113840000Y-124480392D01*
X113772427Y-124547965D01*
X113454243Y-124094150D01*
X112849790Y-123768731D01*
X112193465Y-123567488D01*
X111510490Y-123498155D01*
X110827112Y-123563395D01*
X110169593Y-123760702D01*
X109563201Y-124082494D01*
X109545757Y-124094150D01*
X109227572Y-124547967D01*
X111500000Y-126820395D01*
X111514143Y-126806253D01*
X111693748Y-126985858D01*
X111679605Y-127000000D01*
X111693748Y-127014143D01*
X111514143Y-127193748D01*
X111500000Y-127179605D01*
X111485858Y-127193748D01*
X111306253Y-127014143D01*
X111320395Y-127000000D01*
X109047967Y-124727572D01*
X108594150Y-125045757D01*
X108268731Y-125650210D01*
X108067488Y-126306535D01*
X107998155Y-126989510D01*
X108063395Y-127672888D01*
X108260702Y-128330407D01*
X108582494Y-128936799D01*
X108594150Y-128954243D01*
X109047965Y-129272427D01*
X108980392Y-129340000D01*
X90118177Y-129340000D01*
X90201250Y-129260559D01*
X90349019Y-129049761D01*
X90452824Y-128814185D01*
X90508675Y-128562884D01*
X90358573Y-128357000D01*
X89332000Y-128357000D01*
X89332000Y-128377000D01*
X89078000Y-128377000D01*
X89078000Y-128357000D01*
X88051427Y-128357000D01*
X87901325Y-128562884D01*
X87957176Y-128814185D01*
X88060981Y-129049761D01*
X88208750Y-129260559D01*
X88291823Y-129340000D01*
X84658177Y-129340000D01*
X84741250Y-129260559D01*
X84889019Y-129049761D01*
X84992824Y-128814185D01*
X85048675Y-128562884D01*
X84898573Y-128357000D01*
X83872000Y-128357000D01*
X83872000Y-128377000D01*
X83618000Y-128377000D01*
X83618000Y-128357000D01*
X82591427Y-128357000D01*
X82441325Y-128562884D01*
X82497176Y-128814185D01*
X82600981Y-129049761D01*
X82748750Y-129260559D01*
X82831823Y-129340000D01*
X66019608Y-129340000D01*
X65952035Y-129272427D01*
X66405850Y-128954243D01*
X66731269Y-128349790D01*
X66870068Y-127897116D01*
X82441325Y-127897116D01*
X82591427Y-128103000D01*
X83618000Y-128103000D01*
X83618000Y-126910776D01*
X83872000Y-126910776D01*
X83872000Y-128103000D01*
X84898573Y-128103000D01*
X85048675Y-127897116D01*
X87901325Y-127897116D01*
X88051427Y-128103000D01*
X89078000Y-128103000D01*
X89078000Y-126910776D01*
X89332000Y-126910776D01*
X89332000Y-128103000D01*
X90358573Y-128103000D01*
X90508675Y-127897116D01*
X90452824Y-127645815D01*
X90349019Y-127410239D01*
X90201250Y-127199441D01*
X90015196Y-127021522D01*
X89798007Y-126883319D01*
X89558029Y-126790143D01*
X89534400Y-126787090D01*
X89332000Y-126910776D01*
X89078000Y-126910776D01*
X88875600Y-126787090D01*
X88851971Y-126790143D01*
X88611993Y-126883319D01*
X88394804Y-127021522D01*
X88208750Y-127199441D01*
X88060981Y-127410239D01*
X87957176Y-127645815D01*
X87901325Y-127897116D01*
X85048675Y-127897116D01*
X84992824Y-127645815D01*
X84889019Y-127410239D01*
X84741250Y-127199441D01*
X84555196Y-127021522D01*
X84338007Y-126883319D01*
X84098029Y-126790143D01*
X84074400Y-126787090D01*
X83872000Y-126910776D01*
X83618000Y-126910776D01*
X83415600Y-126787090D01*
X83391971Y-126790143D01*
X83151993Y-126883319D01*
X82934804Y-127021522D01*
X82748750Y-127199441D01*
X82600981Y-127410239D01*
X82497176Y-127645815D01*
X82441325Y-127897116D01*
X66870068Y-127897116D01*
X66932512Y-127693465D01*
X67001845Y-127010490D01*
X66936605Y-126327112D01*
X66837513Y-125996891D01*
X70978519Y-125996891D01*
X71075843Y-126271252D01*
X71224822Y-126521355D01*
X71419731Y-126737588D01*
X71653080Y-126911641D01*
X71915901Y-127036825D01*
X72063110Y-127081476D01*
X72293000Y-126960155D01*
X72293000Y-125767000D01*
X71099186Y-125767000D01*
X70978519Y-125996891D01*
X66837513Y-125996891D01*
X66739298Y-125669593D01*
X66417506Y-125063201D01*
X66405850Y-125045757D01*
X65952033Y-124727572D01*
X63679605Y-127000000D01*
X63693748Y-127014143D01*
X63514143Y-127193748D01*
X63500000Y-127179605D01*
X63485858Y-127193748D01*
X63306253Y-127014143D01*
X63320395Y-127000000D01*
X63306253Y-126985858D01*
X63485858Y-126806253D01*
X63500000Y-126820395D01*
X65772428Y-124547967D01*
X65454243Y-124094150D01*
X64849790Y-123768731D01*
X64193465Y-123567488D01*
X63510490Y-123498155D01*
X62827112Y-123563395D01*
X62169593Y-123760702D01*
X61563201Y-124082494D01*
X61545757Y-124094150D01*
X61227573Y-124547965D01*
X61160000Y-124480392D01*
X61160000Y-122953740D01*
X70935000Y-122953740D01*
X70935000Y-123246260D01*
X70992068Y-123533158D01*
X71104010Y-123803411D01*
X71266525Y-124046632D01*
X71473368Y-124253475D01*
X71649406Y-124371100D01*
X71419731Y-124542412D01*
X71224822Y-124758645D01*
X71075843Y-125008748D01*
X70978519Y-125283109D01*
X71099186Y-125513000D01*
X72293000Y-125513000D01*
X72293000Y-125493000D01*
X72547000Y-125493000D01*
X72547000Y-125513000D01*
X72567000Y-125513000D01*
X72567000Y-125767000D01*
X72547000Y-125767000D01*
X72547000Y-126960155D01*
X72776890Y-127081476D01*
X72924099Y-127036825D01*
X73186920Y-126911641D01*
X73420269Y-126737588D01*
X73615178Y-126521355D01*
X73684805Y-126404466D01*
X73806525Y-126586632D01*
X74013368Y-126793475D01*
X74256589Y-126955990D01*
X74526842Y-127067932D01*
X74813740Y-127125000D01*
X75106260Y-127125000D01*
X75393158Y-127067932D01*
X75663411Y-126955990D01*
X75906632Y-126793475D01*
X76113475Y-126586632D01*
X76230000Y-126412240D01*
X76346525Y-126586632D01*
X76553368Y-126793475D01*
X76796589Y-126955990D01*
X77066842Y-127067932D01*
X77353740Y-127125000D01*
X77646260Y-127125000D01*
X77933158Y-127067932D01*
X78203411Y-126955990D01*
X78446632Y-126793475D01*
X78653475Y-126586632D01*
X78815990Y-126343411D01*
X78927932Y-126073158D01*
X78985000Y-125786260D01*
X78985000Y-125543884D01*
X82869316Y-125543884D01*
X82914316Y-125773011D01*
X83003152Y-125988957D01*
X83132410Y-126183422D01*
X83297123Y-126348934D01*
X83490961Y-126479131D01*
X83706474Y-126569011D01*
X83745256Y-126573803D01*
X83928000Y-126448361D01*
X83928000Y-125357000D01*
X84182000Y-125357000D01*
X84182000Y-126448361D01*
X84364744Y-126573803D01*
X84403526Y-126569011D01*
X84619039Y-126479131D01*
X84812877Y-126348934D01*
X84977590Y-126183422D01*
X85106848Y-125988957D01*
X85195684Y-125773011D01*
X85240684Y-125543884D01*
X87709316Y-125543884D01*
X87754316Y-125773011D01*
X87843152Y-125988957D01*
X87972410Y-126183422D01*
X88137123Y-126348934D01*
X88330961Y-126479131D01*
X88546474Y-126569011D01*
X88585256Y-126573803D01*
X88768000Y-126448361D01*
X88768000Y-125357000D01*
X89022000Y-125357000D01*
X89022000Y-126448361D01*
X89204744Y-126573803D01*
X89243526Y-126569011D01*
X89459039Y-126479131D01*
X89652877Y-126348934D01*
X89817590Y-126183422D01*
X89946848Y-125988957D01*
X90035684Y-125773011D01*
X90080684Y-125543884D01*
X89925152Y-125357000D01*
X89022000Y-125357000D01*
X88768000Y-125357000D01*
X87864848Y-125357000D01*
X87709316Y-125543884D01*
X85240684Y-125543884D01*
X85085152Y-125357000D01*
X84182000Y-125357000D01*
X83928000Y-125357000D01*
X83024848Y-125357000D01*
X82869316Y-125543884D01*
X78985000Y-125543884D01*
X78985000Y-125493740D01*
X78936517Y-125250000D01*
X94711928Y-125250000D01*
X94711928Y-126950000D01*
X94724188Y-127074482D01*
X94760498Y-127194180D01*
X94819463Y-127304494D01*
X94898815Y-127401185D01*
X94995506Y-127480537D01*
X95105820Y-127539502D01*
X95225518Y-127575812D01*
X95350000Y-127588072D01*
X97050000Y-127588072D01*
X97174482Y-127575812D01*
X97294180Y-127539502D01*
X97404494Y-127480537D01*
X97501185Y-127401185D01*
X97580537Y-127304494D01*
X97639502Y-127194180D01*
X97663966Y-127113534D01*
X97739731Y-127197588D01*
X97973080Y-127371641D01*
X98235901Y-127496825D01*
X98383110Y-127541476D01*
X98613000Y-127420155D01*
X98613000Y-126227000D01*
X98867000Y-126227000D01*
X98867000Y-127420155D01*
X99096890Y-127541476D01*
X99244099Y-127496825D01*
X99506920Y-127371641D01*
X99740269Y-127197588D01*
X99935178Y-126981355D01*
X100010000Y-126855745D01*
X100084822Y-126981355D01*
X100279731Y-127197588D01*
X100513080Y-127371641D01*
X100775901Y-127496825D01*
X100923110Y-127541476D01*
X101153000Y-127420155D01*
X101153000Y-126227000D01*
X101407000Y-126227000D01*
X101407000Y-127420155D01*
X101636890Y-127541476D01*
X101784099Y-127496825D01*
X102046920Y-127371641D01*
X102280269Y-127197588D01*
X102475178Y-126981355D01*
X102624157Y-126731252D01*
X102721481Y-126456891D01*
X102600814Y-126227000D01*
X101407000Y-126227000D01*
X101153000Y-126227000D01*
X98867000Y-126227000D01*
X98613000Y-126227000D01*
X98593000Y-126227000D01*
X98593000Y-125973000D01*
X98613000Y-125973000D01*
X98613000Y-124779845D01*
X98867000Y-124779845D01*
X98867000Y-125973000D01*
X101153000Y-125973000D01*
X101153000Y-124779845D01*
X101407000Y-124779845D01*
X101407000Y-125973000D01*
X102600814Y-125973000D01*
X102721481Y-125743109D01*
X102624157Y-125468748D01*
X102475178Y-125218645D01*
X102280269Y-125002412D01*
X102046920Y-124828359D01*
X101784099Y-124703175D01*
X101636890Y-124658524D01*
X101407000Y-124779845D01*
X101153000Y-124779845D01*
X100923110Y-124658524D01*
X100775901Y-124703175D01*
X100513080Y-124828359D01*
X100279731Y-125002412D01*
X100084822Y-125218645D01*
X100010000Y-125344255D01*
X99935178Y-125218645D01*
X99740269Y-125002412D01*
X99506920Y-124828359D01*
X99244099Y-124703175D01*
X99096890Y-124658524D01*
X98867000Y-124779845D01*
X98613000Y-124779845D01*
X98383110Y-124658524D01*
X98235901Y-124703175D01*
X97973080Y-124828359D01*
X97739731Y-125002412D01*
X97663966Y-125086466D01*
X97639502Y-125005820D01*
X97580537Y-124895506D01*
X97501185Y-124798815D01*
X97404494Y-124719463D01*
X97294180Y-124660498D01*
X97174482Y-124624188D01*
X97050000Y-124611928D01*
X95350000Y-124611928D01*
X95225518Y-124624188D01*
X95105820Y-124660498D01*
X94995506Y-124719463D01*
X94898815Y-124798815D01*
X94819463Y-124895506D01*
X94760498Y-125005820D01*
X94724188Y-125125518D01*
X94711928Y-125250000D01*
X78936517Y-125250000D01*
X78927932Y-125206842D01*
X78815990Y-124936589D01*
X78802311Y-124916116D01*
X82869316Y-124916116D01*
X83024848Y-125103000D01*
X83928000Y-125103000D01*
X83928000Y-124011639D01*
X84182000Y-124011639D01*
X84182000Y-125103000D01*
X85085152Y-125103000D01*
X85240684Y-124916116D01*
X87709316Y-124916116D01*
X87864848Y-125103000D01*
X88768000Y-125103000D01*
X88768000Y-124011639D01*
X89022000Y-124011639D01*
X89022000Y-125103000D01*
X89925152Y-125103000D01*
X90080684Y-124916116D01*
X90035684Y-124686989D01*
X89946848Y-124471043D01*
X89817590Y-124276578D01*
X89652877Y-124111066D01*
X89459039Y-123980869D01*
X89243526Y-123890989D01*
X89204744Y-123886197D01*
X89022000Y-124011639D01*
X88768000Y-124011639D01*
X88585256Y-123886197D01*
X88546474Y-123890989D01*
X88330961Y-123980869D01*
X88137123Y-124111066D01*
X87972410Y-124276578D01*
X87843152Y-124471043D01*
X87754316Y-124686989D01*
X87709316Y-124916116D01*
X85240684Y-124916116D01*
X85195684Y-124686989D01*
X85106848Y-124471043D01*
X84977590Y-124276578D01*
X84812877Y-124111066D01*
X84619039Y-123980869D01*
X84403526Y-123890989D01*
X84364744Y-123886197D01*
X84182000Y-124011639D01*
X83928000Y-124011639D01*
X83745256Y-123886197D01*
X83706474Y-123890989D01*
X83490961Y-123980869D01*
X83297123Y-124111066D01*
X83132410Y-124276578D01*
X83003152Y-124471043D01*
X82914316Y-124686989D01*
X82869316Y-124916116D01*
X78802311Y-124916116D01*
X78653475Y-124693368D01*
X78521620Y-124561513D01*
X78594180Y-124539502D01*
X78704494Y-124480537D01*
X78801185Y-124401185D01*
X78880537Y-124304494D01*
X78939502Y-124194180D01*
X78975812Y-124074482D01*
X78988072Y-123950000D01*
X78988072Y-122250000D01*
X78975812Y-122125518D01*
X78939502Y-122005820D01*
X78880537Y-121895506D01*
X78801185Y-121798815D01*
X78704494Y-121719463D01*
X78594180Y-121660498D01*
X78474482Y-121624188D01*
X78350000Y-121611928D01*
X76650000Y-121611928D01*
X76525518Y-121624188D01*
X76405820Y-121660498D01*
X76295506Y-121719463D01*
X76198815Y-121798815D01*
X76119463Y-121895506D01*
X76060498Y-122005820D01*
X76038487Y-122078380D01*
X75906632Y-121946525D01*
X75663411Y-121784010D01*
X75393158Y-121672068D01*
X75106260Y-121615000D01*
X74813740Y-121615000D01*
X74526842Y-121672068D01*
X74256589Y-121784010D01*
X74013368Y-121946525D01*
X73806525Y-122153368D01*
X73690000Y-122327760D01*
X73573475Y-122153368D01*
X73366632Y-121946525D01*
X73123411Y-121784010D01*
X72853158Y-121672068D01*
X72566260Y-121615000D01*
X72273740Y-121615000D01*
X71986842Y-121672068D01*
X71716589Y-121784010D01*
X71473368Y-121946525D01*
X71266525Y-122153368D01*
X71104010Y-122396589D01*
X70992068Y-122666842D01*
X70935000Y-122953740D01*
X61160000Y-122953740D01*
X61160000Y-96670000D01*
X63051928Y-96670000D01*
X63051928Y-98370000D01*
X63064188Y-98494482D01*
X63100498Y-98614180D01*
X63159463Y-98724494D01*
X63238815Y-98821185D01*
X63335506Y-98900537D01*
X63445820Y-98959502D01*
X63518380Y-98981513D01*
X63386525Y-99113368D01*
X63224010Y-99356589D01*
X63112068Y-99626842D01*
X63055000Y-99913740D01*
X63055000Y-100206260D01*
X63112068Y-100493158D01*
X63224010Y-100763411D01*
X63386525Y-101006632D01*
X63593368Y-101213475D01*
X63767760Y-101330000D01*
X63593368Y-101446525D01*
X63386525Y-101653368D01*
X63224010Y-101896589D01*
X63112068Y-102166842D01*
X63055000Y-102453740D01*
X63055000Y-102746260D01*
X63112068Y-103033158D01*
X63224010Y-103303411D01*
X63386525Y-103546632D01*
X63593368Y-103753475D01*
X63767760Y-103870000D01*
X63593368Y-103986525D01*
X63386525Y-104193368D01*
X63224010Y-104436589D01*
X63112068Y-104706842D01*
X63055000Y-104993740D01*
X63055000Y-105286260D01*
X63112068Y-105573158D01*
X63224010Y-105843411D01*
X63386525Y-106086632D01*
X63593368Y-106293475D01*
X63767760Y-106410000D01*
X63593368Y-106526525D01*
X63386525Y-106733368D01*
X63224010Y-106976589D01*
X63112068Y-107246842D01*
X63055000Y-107533740D01*
X63055000Y-107826260D01*
X63112068Y-108113158D01*
X63224010Y-108383411D01*
X63386525Y-108626632D01*
X63593368Y-108833475D01*
X63767760Y-108950000D01*
X63593368Y-109066525D01*
X63386525Y-109273368D01*
X63224010Y-109516589D01*
X63112068Y-109786842D01*
X63055000Y-110073740D01*
X63055000Y-110366260D01*
X63112068Y-110653158D01*
X63224010Y-110923411D01*
X63386525Y-111166632D01*
X63593368Y-111373475D01*
X63767760Y-111490000D01*
X63593368Y-111606525D01*
X63386525Y-111813368D01*
X63224010Y-112056589D01*
X63112068Y-112326842D01*
X63055000Y-112613740D01*
X63055000Y-112906260D01*
X63112068Y-113193158D01*
X63224010Y-113463411D01*
X63386525Y-113706632D01*
X63593368Y-113913475D01*
X63767760Y-114030000D01*
X63593368Y-114146525D01*
X63386525Y-114353368D01*
X63224010Y-114596589D01*
X63112068Y-114866842D01*
X63055000Y-115153740D01*
X63055000Y-115446260D01*
X63112068Y-115733158D01*
X63224010Y-116003411D01*
X63386525Y-116246632D01*
X63593368Y-116453475D01*
X63767760Y-116570000D01*
X63593368Y-116686525D01*
X63386525Y-116893368D01*
X63224010Y-117136589D01*
X63112068Y-117406842D01*
X63055000Y-117693740D01*
X63055000Y-117986260D01*
X63112068Y-118273158D01*
X63224010Y-118543411D01*
X63386525Y-118786632D01*
X63593368Y-118993475D01*
X63767760Y-119110000D01*
X63593368Y-119226525D01*
X63386525Y-119433368D01*
X63224010Y-119676589D01*
X63112068Y-119946842D01*
X63055000Y-120233740D01*
X63055000Y-120526260D01*
X63112068Y-120813158D01*
X63224010Y-121083411D01*
X63386525Y-121326632D01*
X63593368Y-121533475D01*
X63836589Y-121695990D01*
X64106842Y-121807932D01*
X64393740Y-121865000D01*
X64686260Y-121865000D01*
X64973158Y-121807932D01*
X65243411Y-121695990D01*
X65486632Y-121533475D01*
X65693475Y-121326632D01*
X65810000Y-121152240D01*
X65926525Y-121326632D01*
X66133368Y-121533475D01*
X66376589Y-121695990D01*
X66646842Y-121807932D01*
X66933740Y-121865000D01*
X67226260Y-121865000D01*
X67513158Y-121807932D01*
X67783411Y-121695990D01*
X67915230Y-121607911D01*
X83065000Y-121607911D01*
X83065000Y-121792089D01*
X83100932Y-121972729D01*
X83171414Y-122142889D01*
X83273738Y-122296028D01*
X83403972Y-122426262D01*
X83557111Y-122528586D01*
X83727271Y-122599068D01*
X83907911Y-122635000D01*
X84092089Y-122635000D01*
X84272729Y-122599068D01*
X84442889Y-122528586D01*
X84596028Y-122426262D01*
X84726262Y-122296028D01*
X84828586Y-122142889D01*
X84899068Y-121972729D01*
X84935000Y-121792089D01*
X84935000Y-121607911D01*
X84899068Y-121427271D01*
X84828586Y-121257111D01*
X84726262Y-121103972D01*
X84596028Y-120973738D01*
X84442889Y-120871414D01*
X84272729Y-120800932D01*
X84092089Y-120765000D01*
X83907911Y-120765000D01*
X83727271Y-120800932D01*
X83557111Y-120871414D01*
X83403972Y-120973738D01*
X83273738Y-121103972D01*
X83171414Y-121257111D01*
X83100932Y-121427271D01*
X83065000Y-121607911D01*
X67915230Y-121607911D01*
X68026632Y-121533475D01*
X68233475Y-121326632D01*
X68395990Y-121083411D01*
X68507932Y-120813158D01*
X68565000Y-120526260D01*
X68565000Y-120233740D01*
X68539971Y-120107911D01*
X77265000Y-120107911D01*
X77265000Y-120292089D01*
X77300932Y-120472729D01*
X77371414Y-120642889D01*
X77473738Y-120796028D01*
X77603972Y-120926262D01*
X77757111Y-121028586D01*
X77927271Y-121099068D01*
X78107911Y-121135000D01*
X78292089Y-121135000D01*
X78472729Y-121099068D01*
X78642889Y-121028586D01*
X78796028Y-120926262D01*
X78926262Y-120796028D01*
X79028586Y-120642889D01*
X79099068Y-120472729D01*
X79135000Y-120292089D01*
X79135000Y-120107911D01*
X79099068Y-119927271D01*
X79028586Y-119757111D01*
X78926262Y-119603972D01*
X78796028Y-119473738D01*
X78642889Y-119371414D01*
X78472729Y-119300932D01*
X78292089Y-119265000D01*
X78107911Y-119265000D01*
X77927271Y-119300932D01*
X77757111Y-119371414D01*
X77603972Y-119473738D01*
X77473738Y-119603972D01*
X77371414Y-119757111D01*
X77300932Y-119927271D01*
X77265000Y-120107911D01*
X68539971Y-120107911D01*
X68507932Y-119946842D01*
X68395990Y-119676589D01*
X68233475Y-119433368D01*
X68026632Y-119226525D01*
X67852240Y-119110000D01*
X68026632Y-118993475D01*
X68233475Y-118786632D01*
X68395990Y-118543411D01*
X68507932Y-118273158D01*
X68565000Y-117986260D01*
X68565000Y-117693740D01*
X68508145Y-117407911D01*
X68765000Y-117407911D01*
X68765000Y-117592089D01*
X68800932Y-117772729D01*
X68871414Y-117942889D01*
X68973738Y-118096028D01*
X69103972Y-118226262D01*
X69257111Y-118328586D01*
X69427271Y-118399068D01*
X69607911Y-118435000D01*
X69792089Y-118435000D01*
X69972729Y-118399068D01*
X70142889Y-118328586D01*
X70296028Y-118226262D01*
X70365000Y-118157290D01*
X70365000Y-118292089D01*
X70400932Y-118472729D01*
X70471414Y-118642889D01*
X70573738Y-118796028D01*
X70703972Y-118926262D01*
X70857111Y-119028586D01*
X71027271Y-119099068D01*
X71207911Y-119135000D01*
X71392089Y-119135000D01*
X71572729Y-119099068D01*
X71742889Y-119028586D01*
X71896028Y-118926262D01*
X72026262Y-118796028D01*
X72128586Y-118642889D01*
X72199068Y-118472729D01*
X72235000Y-118292089D01*
X72235000Y-118107911D01*
X72199068Y-117927271D01*
X72128586Y-117757111D01*
X72026262Y-117603972D01*
X71896028Y-117473738D01*
X71742889Y-117371414D01*
X71572729Y-117300932D01*
X71392089Y-117265000D01*
X71207911Y-117265000D01*
X71027271Y-117300932D01*
X70857111Y-117371414D01*
X70703972Y-117473738D01*
X70635000Y-117542710D01*
X70635000Y-117407911D01*
X70599068Y-117227271D01*
X70528586Y-117057111D01*
X70426262Y-116903972D01*
X70296028Y-116773738D01*
X70197511Y-116707911D01*
X83665000Y-116707911D01*
X83665000Y-116892089D01*
X83700932Y-117072729D01*
X83771414Y-117242889D01*
X83873738Y-117396028D01*
X84003972Y-117526262D01*
X84157111Y-117628586D01*
X84327271Y-117699068D01*
X84507911Y-117735000D01*
X84692089Y-117735000D01*
X84872729Y-117699068D01*
X85042889Y-117628586D01*
X85196028Y-117526262D01*
X85326262Y-117396028D01*
X85428586Y-117242889D01*
X85499068Y-117072729D01*
X85535000Y-116892089D01*
X85535000Y-116707911D01*
X85499068Y-116527271D01*
X85428586Y-116357111D01*
X85326262Y-116203972D01*
X85196028Y-116073738D01*
X85042889Y-115971414D01*
X84872729Y-115900932D01*
X84692089Y-115865000D01*
X84507911Y-115865000D01*
X84327271Y-115900932D01*
X84157111Y-115971414D01*
X84003972Y-116073738D01*
X83873738Y-116203972D01*
X83771414Y-116357111D01*
X83700932Y-116527271D01*
X83665000Y-116707911D01*
X70197511Y-116707911D01*
X70142889Y-116671414D01*
X69972729Y-116600932D01*
X69792089Y-116565000D01*
X69607911Y-116565000D01*
X69427271Y-116600932D01*
X69257111Y-116671414D01*
X69103972Y-116773738D01*
X68973738Y-116903972D01*
X68871414Y-117057111D01*
X68800932Y-117227271D01*
X68765000Y-117407911D01*
X68508145Y-117407911D01*
X68507932Y-117406842D01*
X68395990Y-117136589D01*
X68233475Y-116893368D01*
X68026632Y-116686525D01*
X67852240Y-116570000D01*
X68026632Y-116453475D01*
X68233475Y-116246632D01*
X68395990Y-116003411D01*
X68507932Y-115733158D01*
X68565000Y-115446260D01*
X68565000Y-115153740D01*
X68516102Y-114907911D01*
X73364980Y-114907911D01*
X73364980Y-115092089D01*
X73400912Y-115272729D01*
X73471394Y-115442889D01*
X73573718Y-115596028D01*
X73703952Y-115726262D01*
X73857091Y-115828586D01*
X74027251Y-115899068D01*
X74207891Y-115935000D01*
X74392069Y-115935000D01*
X74572709Y-115899068D01*
X74742869Y-115828586D01*
X74896008Y-115726262D01*
X75026242Y-115596028D01*
X75128566Y-115442889D01*
X75199048Y-115272729D01*
X75226444Y-115135000D01*
X75292089Y-115135000D01*
X75472729Y-115099068D01*
X75642889Y-115028586D01*
X75796028Y-114926262D01*
X75926262Y-114796028D01*
X76028586Y-114642889D01*
X76099068Y-114472729D01*
X76135000Y-114292089D01*
X76135000Y-114235000D01*
X76192089Y-114235000D01*
X76372729Y-114199068D01*
X76542889Y-114128586D01*
X76696028Y-114026262D01*
X76826262Y-113896028D01*
X76928586Y-113742889D01*
X76999068Y-113572729D01*
X77035000Y-113392089D01*
X77035000Y-113335012D01*
X77092089Y-113335012D01*
X77272729Y-113299080D01*
X77442889Y-113228598D01*
X77596028Y-113126274D01*
X77726262Y-112996040D01*
X77828586Y-112842901D01*
X77899068Y-112672741D01*
X77926467Y-112535000D01*
X78092089Y-112535000D01*
X78272729Y-112499068D01*
X78442889Y-112428586D01*
X78596028Y-112326262D01*
X78726262Y-112196028D01*
X78828586Y-112042889D01*
X78899068Y-111872729D01*
X78935000Y-111692089D01*
X78935000Y-111507911D01*
X78899068Y-111327271D01*
X78828586Y-111157111D01*
X78726262Y-111003972D01*
X78596028Y-110873738D01*
X78442889Y-110771414D01*
X78272729Y-110700932D01*
X78092089Y-110665000D01*
X77907911Y-110665000D01*
X77727271Y-110700932D01*
X77557111Y-110771414D01*
X77403972Y-110873738D01*
X77273738Y-111003972D01*
X77171414Y-111157111D01*
X77100932Y-111327271D01*
X77073533Y-111465012D01*
X76907911Y-111465012D01*
X76727271Y-111500944D01*
X76557111Y-111571426D01*
X76403972Y-111673750D01*
X76273738Y-111803984D01*
X76171414Y-111957123D01*
X76100932Y-112127283D01*
X76065000Y-112307923D01*
X76065000Y-112365000D01*
X76007911Y-112365000D01*
X75827271Y-112400932D01*
X75657111Y-112471414D01*
X75503972Y-112573738D01*
X75373738Y-112703972D01*
X75271414Y-112857111D01*
X75200932Y-113027271D01*
X75165000Y-113207911D01*
X75165000Y-113265000D01*
X75107911Y-113265000D01*
X74927271Y-113300932D01*
X74757111Y-113371414D01*
X74603972Y-113473738D01*
X74473738Y-113603972D01*
X74371414Y-113757111D01*
X74300932Y-113927271D01*
X74273536Y-114065000D01*
X74207891Y-114065000D01*
X74027251Y-114100932D01*
X73857091Y-114171414D01*
X73703952Y-114273738D01*
X73573718Y-114403972D01*
X73471394Y-114557111D01*
X73400912Y-114727271D01*
X73364980Y-114907911D01*
X68516102Y-114907911D01*
X68507932Y-114866842D01*
X68395990Y-114596589D01*
X68233475Y-114353368D01*
X68026632Y-114146525D01*
X67852240Y-114030000D01*
X68026632Y-113913475D01*
X68233475Y-113706632D01*
X68395990Y-113463411D01*
X68507932Y-113193158D01*
X68565000Y-112906260D01*
X68565000Y-112613740D01*
X68507932Y-112326842D01*
X68395990Y-112056589D01*
X68233475Y-111813368D01*
X68026632Y-111606525D01*
X67852240Y-111490000D01*
X68026632Y-111373475D01*
X68233475Y-111166632D01*
X68395990Y-110923411D01*
X68507932Y-110653158D01*
X68565000Y-110366260D01*
X68565000Y-110073740D01*
X68507932Y-109786842D01*
X68395990Y-109516589D01*
X68233475Y-109273368D01*
X68026632Y-109066525D01*
X67852240Y-108950000D01*
X68026632Y-108833475D01*
X68233475Y-108626632D01*
X68395990Y-108383411D01*
X68507932Y-108113158D01*
X68528868Y-108007903D01*
X82165000Y-108007903D01*
X82165000Y-108192081D01*
X82200932Y-108372721D01*
X82271414Y-108542881D01*
X82373738Y-108696020D01*
X82503972Y-108826254D01*
X82657111Y-108928578D01*
X82827271Y-108999060D01*
X83007911Y-109034992D01*
X83179503Y-109034992D01*
X83165000Y-109107903D01*
X83165000Y-109292081D01*
X83200932Y-109472721D01*
X83271414Y-109642881D01*
X83373738Y-109796020D01*
X83503972Y-109926254D01*
X83657111Y-110028578D01*
X83827271Y-110099060D01*
X84007911Y-110134992D01*
X84192089Y-110134992D01*
X84372729Y-110099060D01*
X84542889Y-110028578D01*
X84696028Y-109926254D01*
X84826262Y-109796020D01*
X84849997Y-109760498D01*
X84873738Y-109796028D01*
X85003972Y-109926262D01*
X85157111Y-110028586D01*
X85327271Y-110099068D01*
X85507911Y-110135000D01*
X85692089Y-110135000D01*
X85872729Y-110099068D01*
X86042889Y-110028586D01*
X86196028Y-109926262D01*
X86326262Y-109796028D01*
X86428586Y-109642889D01*
X86499068Y-109472729D01*
X86535000Y-109292089D01*
X86535000Y-109107911D01*
X86535000Y-109107907D01*
X88064978Y-109107907D01*
X88064978Y-109292085D01*
X88100910Y-109472725D01*
X88171392Y-109642885D01*
X88273716Y-109796024D01*
X88403950Y-109926258D01*
X88557089Y-110028582D01*
X88727249Y-110099064D01*
X88907889Y-110134996D01*
X89092067Y-110134996D01*
X89272707Y-110099064D01*
X89442867Y-110028582D01*
X89596006Y-109926258D01*
X89726240Y-109796024D01*
X89823941Y-109649804D01*
X89835821Y-109678486D01*
X89938145Y-109831625D01*
X90068379Y-109961859D01*
X90221518Y-110064183D01*
X90391678Y-110134665D01*
X90572318Y-110170597D01*
X90756496Y-110170597D01*
X90937136Y-110134665D01*
X91107296Y-110064183D01*
X91260435Y-109961859D01*
X91390669Y-109831625D01*
X91492993Y-109678486D01*
X91563475Y-109508326D01*
X91599407Y-109327686D01*
X91599407Y-109143508D01*
X91574560Y-109018595D01*
X91672729Y-108999068D01*
X91842889Y-108928586D01*
X91996028Y-108826262D01*
X92126262Y-108696028D01*
X92228586Y-108542889D01*
X92243074Y-108507911D01*
X94039990Y-108507911D01*
X94039990Y-108692089D01*
X94075922Y-108872729D01*
X94146404Y-109042889D01*
X94248728Y-109196028D01*
X94378962Y-109326262D01*
X94532101Y-109428586D01*
X94702261Y-109499068D01*
X94882901Y-109535000D01*
X95067079Y-109535000D01*
X95247719Y-109499068D01*
X95417879Y-109428586D01*
X95571018Y-109326262D01*
X95701252Y-109196028D01*
X95803576Y-109042889D01*
X95874058Y-108872729D01*
X95909990Y-108692089D01*
X95909990Y-108507911D01*
X95907798Y-108496890D01*
X97758524Y-108496890D01*
X97803175Y-108644099D01*
X97928359Y-108906920D01*
X98102412Y-109140269D01*
X98318645Y-109335178D01*
X98568748Y-109484157D01*
X98843109Y-109581481D01*
X99073000Y-109460814D01*
X99073000Y-108267000D01*
X99327000Y-108267000D01*
X99327000Y-109460814D01*
X99556891Y-109581481D01*
X99831252Y-109484157D01*
X100081355Y-109335178D01*
X100297588Y-109140269D01*
X100471641Y-108906920D01*
X100596825Y-108644099D01*
X100641476Y-108496890D01*
X100520155Y-108267000D01*
X99327000Y-108267000D01*
X99073000Y-108267000D01*
X97879845Y-108267000D01*
X97758524Y-108496890D01*
X95907798Y-108496890D01*
X95874058Y-108327271D01*
X95803576Y-108157111D01*
X95701252Y-108003972D01*
X95571018Y-107873738D01*
X95417879Y-107771414D01*
X95247719Y-107700932D01*
X95067079Y-107665000D01*
X94882901Y-107665000D01*
X94702261Y-107700932D01*
X94532101Y-107771414D01*
X94378962Y-107873738D01*
X94248728Y-108003972D01*
X94146404Y-108157111D01*
X94075922Y-108327271D01*
X94039990Y-108507911D01*
X92243074Y-108507911D01*
X92299068Y-108372729D01*
X92335000Y-108192089D01*
X92335000Y-108007911D01*
X92299068Y-107827271D01*
X92228586Y-107657111D01*
X92126262Y-107503972D01*
X91996028Y-107373738D01*
X91842889Y-107271414D01*
X91672729Y-107200932D01*
X91492089Y-107165000D01*
X91307911Y-107165000D01*
X91127271Y-107200932D01*
X90957111Y-107271414D01*
X90803972Y-107373738D01*
X90673738Y-107503972D01*
X90600000Y-107614329D01*
X90526262Y-107503972D01*
X90396028Y-107373738D01*
X90242889Y-107271414D01*
X90072729Y-107200932D01*
X89892089Y-107165000D01*
X89707911Y-107165000D01*
X89527271Y-107200932D01*
X89357111Y-107271414D01*
X89203972Y-107373738D01*
X89073738Y-107503972D01*
X88971414Y-107657111D01*
X88900932Y-107827271D01*
X88865000Y-108007911D01*
X88865000Y-108192089D01*
X88880583Y-108270428D01*
X88727249Y-108300928D01*
X88557089Y-108371410D01*
X88403950Y-108473734D01*
X88273716Y-108603968D01*
X88171392Y-108757107D01*
X88100910Y-108927267D01*
X88064978Y-109107907D01*
X86535000Y-109107907D01*
X86512099Y-108992784D01*
X86527271Y-108999068D01*
X86707911Y-109035000D01*
X86892089Y-109035000D01*
X87072729Y-108999068D01*
X87242889Y-108928586D01*
X87396028Y-108826262D01*
X87526262Y-108696028D01*
X87628586Y-108542889D01*
X87699068Y-108372729D01*
X87735000Y-108192089D01*
X87735000Y-108007911D01*
X87699068Y-107827271D01*
X87628586Y-107657111D01*
X87526262Y-107503972D01*
X87396028Y-107373738D01*
X87242889Y-107271414D01*
X87072729Y-107200932D01*
X86892089Y-107165000D01*
X86707911Y-107165000D01*
X86527271Y-107200932D01*
X86357111Y-107271414D01*
X86203972Y-107373738D01*
X86073738Y-107503972D01*
X85971414Y-107657111D01*
X85900932Y-107827271D01*
X85865000Y-108007911D01*
X85865000Y-108192089D01*
X85887901Y-108307216D01*
X85872729Y-108300932D01*
X85815604Y-108289569D01*
X85834994Y-108192089D01*
X85834994Y-108007911D01*
X85799062Y-107827271D01*
X85728580Y-107657111D01*
X85626256Y-107503972D01*
X85496022Y-107373738D01*
X85342883Y-107271414D01*
X85172723Y-107200932D01*
X84992083Y-107165000D01*
X84807905Y-107165000D01*
X84627265Y-107200932D01*
X84457105Y-107271414D01*
X84303966Y-107373738D01*
X84173732Y-107503972D01*
X84071408Y-107657111D01*
X84000926Y-107827271D01*
X83999998Y-107831937D01*
X83999068Y-107827263D01*
X83928586Y-107657103D01*
X83826262Y-107503964D01*
X83696028Y-107373730D01*
X83542889Y-107271406D01*
X83372729Y-107200924D01*
X83192089Y-107164992D01*
X83007911Y-107164992D01*
X82827271Y-107200924D01*
X82657111Y-107271406D01*
X82503972Y-107373730D01*
X82373738Y-107503964D01*
X82271414Y-107657103D01*
X82200932Y-107827263D01*
X82165000Y-108007903D01*
X68528868Y-108007903D01*
X68565000Y-107826260D01*
X68565000Y-107533740D01*
X68507932Y-107246842D01*
X68395990Y-106976589D01*
X68233475Y-106733368D01*
X68108018Y-106607911D01*
X70365000Y-106607911D01*
X70365000Y-106792089D01*
X70400932Y-106972729D01*
X70471414Y-107142889D01*
X70573738Y-107296028D01*
X70703972Y-107426262D01*
X70857111Y-107528586D01*
X71027271Y-107599068D01*
X71207911Y-107635000D01*
X71392089Y-107635000D01*
X71572729Y-107599068D01*
X71742889Y-107528586D01*
X71896028Y-107426262D01*
X72026262Y-107296028D01*
X72128586Y-107142889D01*
X72199068Y-106972729D01*
X72235000Y-106792089D01*
X72235000Y-106607911D01*
X72199068Y-106427271D01*
X72191049Y-106407911D01*
X80064998Y-106407911D01*
X80064998Y-106592089D01*
X80100930Y-106772729D01*
X80171412Y-106942889D01*
X80273736Y-107096028D01*
X80403970Y-107226262D01*
X80557109Y-107328586D01*
X80727269Y-107399068D01*
X80907909Y-107435000D01*
X81092087Y-107435000D01*
X81272727Y-107399068D01*
X81442887Y-107328586D01*
X81596026Y-107226262D01*
X81726260Y-107096028D01*
X81828584Y-106942889D01*
X81899066Y-106772729D01*
X81934998Y-106592089D01*
X81934998Y-106407911D01*
X81899066Y-106227271D01*
X81828584Y-106057111D01*
X81726260Y-105903972D01*
X81596026Y-105773738D01*
X81442887Y-105671414D01*
X81272727Y-105600932D01*
X81092087Y-105565000D01*
X80907909Y-105565000D01*
X80727269Y-105600932D01*
X80557109Y-105671414D01*
X80403970Y-105773738D01*
X80273736Y-105903972D01*
X80171412Y-106057111D01*
X80100930Y-106227271D01*
X80064998Y-106407911D01*
X72191049Y-106407911D01*
X72128586Y-106257111D01*
X72026262Y-106103972D01*
X71896028Y-105973738D01*
X71742889Y-105871414D01*
X71572729Y-105800932D01*
X71392089Y-105765000D01*
X71207911Y-105765000D01*
X71027271Y-105800932D01*
X70857111Y-105871414D01*
X70703972Y-105973738D01*
X70573738Y-106103972D01*
X70471414Y-106257111D01*
X70400932Y-106427271D01*
X70365000Y-106607911D01*
X68108018Y-106607911D01*
X68026632Y-106526525D01*
X67852240Y-106410000D01*
X68026632Y-106293475D01*
X68233475Y-106086632D01*
X68395990Y-105843411D01*
X68507932Y-105573158D01*
X68565000Y-105286260D01*
X68565000Y-105007911D01*
X91064994Y-105007911D01*
X91064994Y-105192089D01*
X91100926Y-105372729D01*
X91171408Y-105542889D01*
X91273732Y-105696028D01*
X91403966Y-105826262D01*
X91557105Y-105928586D01*
X91727265Y-105999068D01*
X91907905Y-106035000D01*
X92092083Y-106035000D01*
X92272723Y-105999068D01*
X92442883Y-105928586D01*
X92596022Y-105826262D01*
X92726256Y-105696028D01*
X92828580Y-105542889D01*
X92899062Y-105372729D01*
X92934994Y-105192089D01*
X92934994Y-105007911D01*
X92899062Y-104827271D01*
X92867056Y-104750000D01*
X97711928Y-104750000D01*
X97711928Y-106450000D01*
X97724188Y-106574482D01*
X97760498Y-106694180D01*
X97819463Y-106804494D01*
X97898815Y-106901185D01*
X97995506Y-106980537D01*
X98105820Y-107039502D01*
X98186466Y-107063966D01*
X98102412Y-107139731D01*
X97928359Y-107373080D01*
X97803175Y-107635901D01*
X97758524Y-107783110D01*
X97879845Y-108013000D01*
X99073000Y-108013000D01*
X99073000Y-107993000D01*
X99327000Y-107993000D01*
X99327000Y-108013000D01*
X100520155Y-108013000D01*
X100641476Y-107783110D01*
X100596825Y-107635901D01*
X100471641Y-107373080D01*
X100297588Y-107139731D01*
X100213534Y-107063966D01*
X100294180Y-107039502D01*
X100404494Y-106980537D01*
X100501185Y-106901185D01*
X100580537Y-106804494D01*
X100639502Y-106694180D01*
X100675812Y-106574482D01*
X100688072Y-106450000D01*
X100688072Y-104750000D01*
X100675812Y-104625518D01*
X100639502Y-104505820D01*
X100580537Y-104395506D01*
X100501185Y-104298815D01*
X100404494Y-104219463D01*
X100294180Y-104160498D01*
X100174482Y-104124188D01*
X100050000Y-104111928D01*
X98350000Y-104111928D01*
X98225518Y-104124188D01*
X98105820Y-104160498D01*
X97995506Y-104219463D01*
X97898815Y-104298815D01*
X97819463Y-104395506D01*
X97760498Y-104505820D01*
X97724188Y-104625518D01*
X97711928Y-104750000D01*
X92867056Y-104750000D01*
X92828580Y-104657111D01*
X92726256Y-104503972D01*
X92596022Y-104373738D01*
X92442883Y-104271414D01*
X92272723Y-104200932D01*
X92092083Y-104165000D01*
X91907905Y-104165000D01*
X91727265Y-104200932D01*
X91557105Y-104271414D01*
X91403966Y-104373738D01*
X91273732Y-104503972D01*
X91171408Y-104657111D01*
X91100926Y-104827271D01*
X91064994Y-105007911D01*
X68565000Y-105007911D01*
X68565000Y-104993740D01*
X68507932Y-104706842D01*
X68395990Y-104436589D01*
X68233475Y-104193368D01*
X68026632Y-103986525D01*
X67852240Y-103870000D01*
X68026632Y-103753475D01*
X68233475Y-103546632D01*
X68395990Y-103303411D01*
X68507932Y-103033158D01*
X68529474Y-102924858D01*
X80798049Y-102924858D01*
X80798049Y-103109036D01*
X80833981Y-103289676D01*
X80904463Y-103459836D01*
X81006787Y-103612975D01*
X81137021Y-103743209D01*
X81290160Y-103845533D01*
X81460320Y-103916015D01*
X81640960Y-103951947D01*
X81825138Y-103951947D01*
X82005778Y-103916015D01*
X82175938Y-103845533D01*
X82329077Y-103743209D01*
X82459311Y-103612975D01*
X82561635Y-103459836D01*
X82632117Y-103289676D01*
X82668049Y-103109036D01*
X82668049Y-102924858D01*
X82632117Y-102744218D01*
X82561635Y-102574058D01*
X82459311Y-102420919D01*
X82329077Y-102290685D01*
X82175938Y-102188361D01*
X82005778Y-102117879D01*
X81825138Y-102081947D01*
X81640960Y-102081947D01*
X81460320Y-102117879D01*
X81290160Y-102188361D01*
X81137021Y-102290685D01*
X81006787Y-102420919D01*
X80904463Y-102574058D01*
X80833981Y-102744218D01*
X80798049Y-102924858D01*
X68529474Y-102924858D01*
X68565000Y-102746260D01*
X68565000Y-102453740D01*
X68507932Y-102166842D01*
X68395990Y-101896589D01*
X68233475Y-101653368D01*
X68026632Y-101446525D01*
X67844466Y-101324805D01*
X67961355Y-101255178D01*
X68013793Y-101207911D01*
X68765000Y-101207911D01*
X68765000Y-101392089D01*
X68800932Y-101572729D01*
X68871414Y-101742889D01*
X68973738Y-101896028D01*
X69103972Y-102026262D01*
X69257111Y-102128586D01*
X69427271Y-102199068D01*
X69607911Y-102235000D01*
X69792089Y-102235000D01*
X69972729Y-102199068D01*
X70142889Y-102128586D01*
X70296028Y-102026262D01*
X70426262Y-101896028D01*
X70528586Y-101742889D01*
X70584495Y-101607911D01*
X77864992Y-101607911D01*
X77864992Y-101792089D01*
X77900924Y-101972729D01*
X77971406Y-102142889D01*
X78073730Y-102296028D01*
X78203964Y-102426262D01*
X78357103Y-102528586D01*
X78527263Y-102599068D01*
X78707903Y-102635000D01*
X78892081Y-102635000D01*
X79072721Y-102599068D01*
X79242881Y-102528586D01*
X79396020Y-102426262D01*
X79526254Y-102296028D01*
X79628578Y-102142889D01*
X79699060Y-101972729D01*
X79734992Y-101792089D01*
X79734992Y-101607911D01*
X79699060Y-101427271D01*
X79628578Y-101257111D01*
X79623842Y-101250022D01*
X79628608Y-101242889D01*
X79699090Y-101072729D01*
X79735022Y-100892089D01*
X79735022Y-100707911D01*
X79699090Y-100527271D01*
X79628608Y-100357111D01*
X79623846Y-100349984D01*
X79628586Y-100342889D01*
X79684492Y-100207917D01*
X89365000Y-100207917D01*
X89365000Y-100392095D01*
X89400932Y-100572735D01*
X89471414Y-100742895D01*
X89573738Y-100896034D01*
X89703972Y-101026268D01*
X89857111Y-101128592D01*
X90027271Y-101199074D01*
X90194436Y-101232326D01*
X90194436Y-101371553D01*
X90230368Y-101552193D01*
X90300850Y-101722353D01*
X90403174Y-101875492D01*
X90533408Y-102005726D01*
X90686547Y-102108050D01*
X90856707Y-102178532D01*
X91037347Y-102214464D01*
X91221525Y-102214464D01*
X91402165Y-102178532D01*
X91572325Y-102108050D01*
X91725464Y-102005726D01*
X91855698Y-101875492D01*
X91958022Y-101722353D01*
X92028504Y-101552193D01*
X92064436Y-101371553D01*
X92064436Y-101307911D01*
X94065000Y-101307911D01*
X94065000Y-101492089D01*
X94100932Y-101672729D01*
X94171414Y-101842889D01*
X94273738Y-101996028D01*
X94403972Y-102126262D01*
X94557111Y-102228586D01*
X94727271Y-102299068D01*
X94907911Y-102335000D01*
X95092089Y-102335000D01*
X95272729Y-102299068D01*
X95442889Y-102228586D01*
X95596028Y-102126262D01*
X95726262Y-101996028D01*
X95828586Y-101842889D01*
X95899068Y-101672729D01*
X95935000Y-101492089D01*
X95935000Y-101307911D01*
X95899068Y-101127271D01*
X95828586Y-100957111D01*
X95726262Y-100803972D01*
X95596028Y-100673738D01*
X95442889Y-100571414D01*
X95272729Y-100500932D01*
X95092089Y-100465000D01*
X94907911Y-100465000D01*
X94727271Y-100500932D01*
X94557111Y-100571414D01*
X94403972Y-100673738D01*
X94273738Y-100803972D01*
X94171414Y-100957111D01*
X94100932Y-101127271D01*
X94065000Y-101307911D01*
X92064436Y-101307911D01*
X92064436Y-101187375D01*
X92028504Y-101006735D01*
X91958022Y-100836575D01*
X91855698Y-100683436D01*
X91725464Y-100553202D01*
X91572325Y-100450878D01*
X91402165Y-100380396D01*
X91235000Y-100347144D01*
X91235000Y-100207917D01*
X91199068Y-100027277D01*
X91128586Y-99857117D01*
X91026262Y-99703978D01*
X90896028Y-99573744D01*
X90742889Y-99471420D01*
X90572729Y-99400938D01*
X90392089Y-99365006D01*
X90207911Y-99365006D01*
X90027271Y-99400938D01*
X89857111Y-99471420D01*
X89703972Y-99573744D01*
X89573738Y-99703978D01*
X89471414Y-99857117D01*
X89400932Y-100027277D01*
X89365000Y-100207917D01*
X79684492Y-100207917D01*
X79699068Y-100172729D01*
X79735000Y-99992089D01*
X79735000Y-99807911D01*
X79699068Y-99627271D01*
X79628586Y-99457111D01*
X79623838Y-99450004D01*
X79628592Y-99442889D01*
X79699074Y-99272729D01*
X79735006Y-99092089D01*
X79735006Y-98907911D01*
X79699074Y-98727271D01*
X79628592Y-98557111D01*
X79537654Y-98421013D01*
X79607911Y-98434988D01*
X79792089Y-98434988D01*
X79972729Y-98399056D01*
X80142889Y-98328574D01*
X80296028Y-98226250D01*
X80426262Y-98096016D01*
X80528586Y-97942877D01*
X80599068Y-97772717D01*
X80635000Y-97592077D01*
X80635000Y-97538696D01*
X82718114Y-97538696D01*
X82718114Y-97722874D01*
X82754046Y-97903514D01*
X82824528Y-98073674D01*
X82926852Y-98226813D01*
X83057086Y-98357047D01*
X83173503Y-98434834D01*
X83200932Y-98572729D01*
X83271414Y-98742889D01*
X83373738Y-98896028D01*
X83503972Y-99026262D01*
X83657111Y-99128586D01*
X83827271Y-99199068D01*
X84007911Y-99235000D01*
X84192089Y-99235000D01*
X84372729Y-99199068D01*
X84542889Y-99128586D01*
X84696028Y-99026262D01*
X84826262Y-98896028D01*
X84928586Y-98742889D01*
X84999068Y-98572729D01*
X85035000Y-98392089D01*
X85035000Y-98207911D01*
X84999068Y-98027271D01*
X84928586Y-97857111D01*
X84826262Y-97703972D01*
X84696028Y-97573738D01*
X84579611Y-97495951D01*
X84552182Y-97358056D01*
X84481700Y-97187896D01*
X84379376Y-97034757D01*
X84249142Y-96904523D01*
X84096003Y-96802199D01*
X83925843Y-96731717D01*
X83745203Y-96695785D01*
X83561025Y-96695785D01*
X83380385Y-96731717D01*
X83210225Y-96802199D01*
X83057086Y-96904523D01*
X82926852Y-97034757D01*
X82824528Y-97187896D01*
X82754046Y-97358056D01*
X82718114Y-97538696D01*
X80635000Y-97538696D01*
X80635000Y-97407899D01*
X80599068Y-97227259D01*
X80528586Y-97057099D01*
X80426262Y-96903960D01*
X80296028Y-96773726D01*
X80142889Y-96671402D01*
X79972729Y-96600920D01*
X79792089Y-96564988D01*
X79607911Y-96564988D01*
X79427271Y-96600920D01*
X79257111Y-96671402D01*
X79103972Y-96773726D01*
X78973738Y-96903960D01*
X78871414Y-97057099D01*
X78800932Y-97227259D01*
X78765000Y-97407899D01*
X78765000Y-97592077D01*
X78800932Y-97772717D01*
X78871414Y-97942877D01*
X78962352Y-98078975D01*
X78892095Y-98065000D01*
X78707917Y-98065000D01*
X78527277Y-98100932D01*
X78357117Y-98171414D01*
X78203978Y-98273738D01*
X78073744Y-98403972D01*
X77971420Y-98557111D01*
X77900938Y-98727271D01*
X77865006Y-98907911D01*
X77865006Y-99092089D01*
X77900938Y-99272729D01*
X77971420Y-99442889D01*
X77976168Y-99449996D01*
X77971414Y-99457111D01*
X77900932Y-99627271D01*
X77865000Y-99807911D01*
X77865000Y-99992089D01*
X77900932Y-100172729D01*
X77971414Y-100342889D01*
X77976176Y-100350016D01*
X77971436Y-100357111D01*
X77900954Y-100527271D01*
X77865022Y-100707911D01*
X77865022Y-100892089D01*
X77900954Y-101072729D01*
X77971436Y-101242889D01*
X77976172Y-101249978D01*
X77971406Y-101257111D01*
X77900924Y-101427271D01*
X77864992Y-101607911D01*
X70584495Y-101607911D01*
X70599068Y-101572729D01*
X70635000Y-101392089D01*
X70635000Y-101207911D01*
X70599068Y-101027271D01*
X70528586Y-100857111D01*
X70426262Y-100703972D01*
X70296028Y-100573738D01*
X70142889Y-100471414D01*
X69972729Y-100400932D01*
X69792089Y-100365000D01*
X69607911Y-100365000D01*
X69427271Y-100400932D01*
X69257111Y-100471414D01*
X69103972Y-100573738D01*
X68973738Y-100703972D01*
X68871414Y-100857111D01*
X68800932Y-101027271D01*
X68765000Y-101207911D01*
X68013793Y-101207911D01*
X68177588Y-101060269D01*
X68351641Y-100826920D01*
X68476825Y-100564099D01*
X68521476Y-100416890D01*
X68400155Y-100187000D01*
X67207000Y-100187000D01*
X67207000Y-100207000D01*
X66953000Y-100207000D01*
X66953000Y-100187000D01*
X66933000Y-100187000D01*
X66933000Y-99933000D01*
X66953000Y-99933000D01*
X66953000Y-99913000D01*
X67207000Y-99913000D01*
X67207000Y-99933000D01*
X68400155Y-99933000D01*
X68466168Y-99807911D01*
X70364990Y-99807911D01*
X70364990Y-99992089D01*
X70400922Y-100172729D01*
X70471404Y-100342889D01*
X70573728Y-100496028D01*
X70703962Y-100626262D01*
X70857101Y-100728586D01*
X71027261Y-100799068D01*
X71207901Y-100835000D01*
X71392079Y-100835000D01*
X71572719Y-100799068D01*
X71742879Y-100728586D01*
X71896018Y-100626262D01*
X72026252Y-100496028D01*
X72128576Y-100342889D01*
X72199058Y-100172729D01*
X72234990Y-99992089D01*
X72234990Y-99807911D01*
X72199058Y-99627271D01*
X72128576Y-99457111D01*
X72028879Y-99307903D01*
X72865000Y-99307903D01*
X72865000Y-99492081D01*
X72900932Y-99672721D01*
X72971414Y-99842881D01*
X73073738Y-99996020D01*
X73203972Y-100126254D01*
X73357111Y-100228578D01*
X73527271Y-100299060D01*
X73707911Y-100334992D01*
X73892089Y-100334992D01*
X74072729Y-100299060D01*
X74242889Y-100228578D01*
X74349994Y-100157013D01*
X74457111Y-100228586D01*
X74627271Y-100299068D01*
X74807911Y-100335000D01*
X74992089Y-100335000D01*
X75172729Y-100299068D01*
X75342889Y-100228586D01*
X75496028Y-100126262D01*
X75626262Y-99996028D01*
X75728586Y-99842889D01*
X75799068Y-99672729D01*
X75835000Y-99492089D01*
X75835000Y-99307911D01*
X75799068Y-99127271D01*
X75728586Y-98957111D01*
X75626262Y-98803972D01*
X75496028Y-98673738D01*
X75342889Y-98571414D01*
X75172729Y-98500932D01*
X74992089Y-98465000D01*
X74807911Y-98465000D01*
X74627271Y-98500932D01*
X74457111Y-98571414D01*
X74350006Y-98642979D01*
X74242889Y-98571406D01*
X74072729Y-98500924D01*
X73892089Y-98464992D01*
X73707911Y-98464992D01*
X73527271Y-98500924D01*
X73357111Y-98571406D01*
X73203972Y-98673730D01*
X73073738Y-98803964D01*
X72971414Y-98957103D01*
X72900932Y-99127263D01*
X72865000Y-99307903D01*
X72028879Y-99307903D01*
X72026252Y-99303972D01*
X71896018Y-99173738D01*
X71742879Y-99071414D01*
X71572719Y-99000932D01*
X71392079Y-98965000D01*
X71207901Y-98965000D01*
X71027261Y-99000932D01*
X70857101Y-99071414D01*
X70703962Y-99173738D01*
X70573728Y-99303972D01*
X70471404Y-99457111D01*
X70400922Y-99627271D01*
X70364990Y-99807911D01*
X68466168Y-99807911D01*
X68521476Y-99703110D01*
X68476825Y-99555901D01*
X68351641Y-99293080D01*
X68177588Y-99059731D01*
X67961355Y-98864822D01*
X67844466Y-98795195D01*
X68026632Y-98673475D01*
X68233475Y-98466632D01*
X68395990Y-98223411D01*
X68507932Y-97953158D01*
X68565000Y-97666260D01*
X68565000Y-97373740D01*
X68551906Y-97307911D01*
X72765000Y-97307911D01*
X72765000Y-97492089D01*
X72800932Y-97672729D01*
X72871414Y-97842889D01*
X72973738Y-97996028D01*
X73103972Y-98126262D01*
X73257111Y-98228586D01*
X73427271Y-98299068D01*
X73607911Y-98335000D01*
X73792089Y-98335000D01*
X73972729Y-98299068D01*
X74142889Y-98228586D01*
X74296028Y-98126262D01*
X74426262Y-97996028D01*
X74528586Y-97842889D01*
X74599068Y-97672729D01*
X74635000Y-97492089D01*
X74635000Y-97307911D01*
X74599068Y-97127271D01*
X74528586Y-96957111D01*
X74426262Y-96803972D01*
X74296028Y-96673738D01*
X74142889Y-96571414D01*
X73972729Y-96500932D01*
X73792089Y-96465000D01*
X73607911Y-96465000D01*
X73427271Y-96500932D01*
X73257111Y-96571414D01*
X73103972Y-96673738D01*
X72973738Y-96803972D01*
X72871414Y-96957111D01*
X72800932Y-97127271D01*
X72765000Y-97307911D01*
X68551906Y-97307911D01*
X68507932Y-97086842D01*
X68395990Y-96816589D01*
X68233475Y-96573368D01*
X68026632Y-96366525D01*
X67783411Y-96204010D01*
X67513158Y-96092068D01*
X67226260Y-96035000D01*
X66933740Y-96035000D01*
X66646842Y-96092068D01*
X66376589Y-96204010D01*
X66133368Y-96366525D01*
X66001513Y-96498380D01*
X65979502Y-96425820D01*
X65920537Y-96315506D01*
X65841185Y-96218815D01*
X65744494Y-96139463D01*
X65634180Y-96080498D01*
X65514482Y-96044188D01*
X65390000Y-96031928D01*
X63690000Y-96031928D01*
X63565518Y-96044188D01*
X63445820Y-96080498D01*
X63335506Y-96139463D01*
X63238815Y-96218815D01*
X63159463Y-96315506D01*
X63100498Y-96425820D01*
X63064188Y-96545518D01*
X63051928Y-96670000D01*
X61160000Y-96670000D01*
X61160000Y-92998061D01*
X62490000Y-92998061D01*
X62490000Y-93201939D01*
X62529774Y-93401898D01*
X62607795Y-93590256D01*
X62721063Y-93759774D01*
X62865226Y-93903937D01*
X63034744Y-94017205D01*
X63223102Y-94095226D01*
X63423061Y-94135000D01*
X63626939Y-94135000D01*
X63826898Y-94095226D01*
X64015256Y-94017205D01*
X64184774Y-93903937D01*
X64328937Y-93759774D01*
X64442205Y-93590256D01*
X64520226Y-93401898D01*
X64553424Y-93235000D01*
X64671576Y-93235000D01*
X64704774Y-93401898D01*
X64782795Y-93590256D01*
X64896063Y-93759774D01*
X65040226Y-93903937D01*
X65209744Y-94017205D01*
X65398102Y-94095226D01*
X65598061Y-94135000D01*
X65801939Y-94135000D01*
X66001898Y-94095226D01*
X66190256Y-94017205D01*
X66204165Y-94007911D01*
X71365000Y-94007911D01*
X71365000Y-94192089D01*
X71400932Y-94372729D01*
X71471414Y-94542889D01*
X71573738Y-94696028D01*
X71703972Y-94826262D01*
X71857111Y-94928586D01*
X72027271Y-94999068D01*
X72068000Y-95007170D01*
X72100932Y-95172729D01*
X72171414Y-95342889D01*
X72273738Y-95496028D01*
X72403972Y-95626262D01*
X72557111Y-95728586D01*
X72727271Y-95799068D01*
X72907911Y-95835000D01*
X73092089Y-95835000D01*
X73272729Y-95799068D01*
X73442889Y-95728586D01*
X73596028Y-95626262D01*
X73726262Y-95496028D01*
X73750000Y-95460502D01*
X73773738Y-95496028D01*
X73903972Y-95626262D01*
X74057111Y-95728586D01*
X74227271Y-95799068D01*
X74407911Y-95835000D01*
X74592089Y-95835000D01*
X74772729Y-95799068D01*
X74942889Y-95728586D01*
X75096028Y-95626262D01*
X75215175Y-95507115D01*
X75271414Y-95642889D01*
X75342979Y-95749994D01*
X75271414Y-95857099D01*
X75200932Y-96027259D01*
X75165000Y-96207899D01*
X75165000Y-96392077D01*
X75200932Y-96572717D01*
X75271414Y-96742877D01*
X75342987Y-96849993D01*
X75271413Y-96957111D01*
X75200931Y-97127271D01*
X75164999Y-97307911D01*
X75164999Y-97492089D01*
X75200931Y-97672729D01*
X75271413Y-97842889D01*
X75373737Y-97996028D01*
X75503971Y-98126262D01*
X75657110Y-98228586D01*
X75827270Y-98299068D01*
X76007910Y-98335000D01*
X76192088Y-98335000D01*
X76372728Y-98299068D01*
X76542888Y-98228586D01*
X76696027Y-98126262D01*
X76826261Y-97996028D01*
X76928585Y-97842889D01*
X76999067Y-97672729D01*
X77034999Y-97492089D01*
X77034999Y-97307911D01*
X76999067Y-97127271D01*
X76928585Y-96957111D01*
X76857012Y-96849995D01*
X76928586Y-96742877D01*
X76999068Y-96572717D01*
X77035000Y-96392077D01*
X77035000Y-96207899D01*
X76999068Y-96027259D01*
X76928586Y-95857099D01*
X76857021Y-95749994D01*
X76928586Y-95642889D01*
X76999068Y-95472729D01*
X77035000Y-95292089D01*
X77035000Y-95107911D01*
X76999068Y-94927271D01*
X76928586Y-94757111D01*
X76826262Y-94603972D01*
X76696028Y-94473738D01*
X76542889Y-94371414D01*
X76372729Y-94300932D01*
X76192089Y-94265000D01*
X76007911Y-94265000D01*
X75827271Y-94300932D01*
X75657111Y-94371414D01*
X75503972Y-94473738D01*
X75384825Y-94592885D01*
X75328586Y-94457111D01*
X75226262Y-94303972D01*
X75096028Y-94173738D01*
X74942889Y-94071414D01*
X74772729Y-94000932D01*
X74592089Y-93965000D01*
X74407911Y-93965000D01*
X74227271Y-94000932D01*
X74057111Y-94071414D01*
X73903972Y-94173738D01*
X73773738Y-94303972D01*
X73750000Y-94339498D01*
X73726262Y-94303972D01*
X73596028Y-94173738D01*
X73442889Y-94071414D01*
X73272729Y-94000932D01*
X73232000Y-93992830D01*
X73199068Y-93827271D01*
X73128586Y-93657111D01*
X73026262Y-93503972D01*
X72896028Y-93373738D01*
X72742889Y-93271414D01*
X72572729Y-93200932D01*
X72392089Y-93165000D01*
X72207911Y-93165000D01*
X72027271Y-93200932D01*
X71857111Y-93271414D01*
X71703972Y-93373738D01*
X71573738Y-93503972D01*
X71471414Y-93657111D01*
X71400932Y-93827271D01*
X71365000Y-94007911D01*
X66204165Y-94007911D01*
X66359774Y-93903937D01*
X66503937Y-93759774D01*
X66617205Y-93590256D01*
X66695226Y-93401898D01*
X66735000Y-93201939D01*
X66735000Y-93107911D01*
X75139817Y-93107911D01*
X75139817Y-93292089D01*
X75175749Y-93472729D01*
X75246231Y-93642889D01*
X75348555Y-93796028D01*
X75478789Y-93926262D01*
X75631928Y-94028586D01*
X75802088Y-94099068D01*
X75982728Y-94135000D01*
X76166906Y-94135000D01*
X76347546Y-94099068D01*
X76517706Y-94028586D01*
X76670845Y-93926262D01*
X76789196Y-93807911D01*
X82365000Y-93807911D01*
X82365000Y-93992089D01*
X82400932Y-94172729D01*
X82471414Y-94342889D01*
X82573738Y-94496028D01*
X82703972Y-94626262D01*
X82857111Y-94728586D01*
X83027271Y-94799068D01*
X83207911Y-94835000D01*
X83373524Y-94835000D01*
X83400920Y-94972729D01*
X83471402Y-95142889D01*
X83573726Y-95296028D01*
X83703960Y-95426262D01*
X83857099Y-95528586D01*
X83982596Y-95580568D01*
X84000928Y-95672729D01*
X84071410Y-95842889D01*
X84173734Y-95996028D01*
X84303968Y-96126262D01*
X84457107Y-96228586D01*
X84565000Y-96273276D01*
X84565000Y-96292089D01*
X84600932Y-96472729D01*
X84671414Y-96642889D01*
X84773738Y-96796028D01*
X84903972Y-96926262D01*
X85057111Y-97028586D01*
X85165000Y-97073275D01*
X85165000Y-97092089D01*
X85200932Y-97272729D01*
X85271414Y-97442889D01*
X85373738Y-97596028D01*
X85503972Y-97726262D01*
X85657111Y-97828586D01*
X85827271Y-97899068D01*
X86007911Y-97935000D01*
X86192089Y-97935000D01*
X86372729Y-97899068D01*
X86542889Y-97828586D01*
X86696028Y-97726262D01*
X86826262Y-97596028D01*
X86928586Y-97442889D01*
X86999068Y-97272729D01*
X87035000Y-97092089D01*
X87035000Y-96907911D01*
X86999068Y-96727271D01*
X86928586Y-96557111D01*
X86826262Y-96403972D01*
X86696028Y-96273738D01*
X86542889Y-96171414D01*
X86435000Y-96126725D01*
X86435000Y-96107911D01*
X86399068Y-95927271D01*
X86328586Y-95757111D01*
X86226262Y-95603972D01*
X86163774Y-95541484D01*
X89235634Y-95541484D01*
X89235634Y-95725662D01*
X89271566Y-95906302D01*
X89342048Y-96076462D01*
X89383685Y-96138776D01*
X89371414Y-96157141D01*
X89300932Y-96327301D01*
X89265000Y-96507941D01*
X89265000Y-96692119D01*
X89300932Y-96872759D01*
X89371414Y-97042919D01*
X89473738Y-97196058D01*
X89603972Y-97326292D01*
X89757111Y-97428616D01*
X89927271Y-97499098D01*
X90107911Y-97535030D01*
X90292089Y-97535030D01*
X90472729Y-97499098D01*
X90642889Y-97428616D01*
X90796028Y-97326292D01*
X90926262Y-97196058D01*
X91028586Y-97042919D01*
X91099068Y-96872759D01*
X91135000Y-96692119D01*
X91135000Y-96507941D01*
X91099068Y-96327301D01*
X91028586Y-96157141D01*
X90986949Y-96094827D01*
X90999220Y-96076462D01*
X91069702Y-95906302D01*
X91105634Y-95725662D01*
X91105634Y-95541484D01*
X91069702Y-95360844D01*
X90999220Y-95190684D01*
X90896896Y-95037545D01*
X90766662Y-94907311D01*
X90613523Y-94804987D01*
X90443363Y-94734505D01*
X90262723Y-94698573D01*
X90078545Y-94698573D01*
X89897905Y-94734505D01*
X89727745Y-94804987D01*
X89574606Y-94907311D01*
X89444372Y-95037545D01*
X89342048Y-95190684D01*
X89271566Y-95360844D01*
X89235634Y-95541484D01*
X86163774Y-95541484D01*
X86096028Y-95473738D01*
X85942889Y-95371414D01*
X85834996Y-95326724D01*
X85834996Y-95307911D01*
X85799064Y-95127271D01*
X85728582Y-94957111D01*
X85626258Y-94803972D01*
X85505165Y-94682879D01*
X93358476Y-94682879D01*
X93358476Y-94867057D01*
X93394408Y-95047697D01*
X93464890Y-95217857D01*
X93567214Y-95370996D01*
X93697448Y-95501230D01*
X93850587Y-95603554D01*
X93973261Y-95654367D01*
X93971428Y-95657111D01*
X93900946Y-95827271D01*
X93865014Y-96007911D01*
X93865014Y-96192089D01*
X93900946Y-96372729D01*
X93971428Y-96542889D01*
X94073752Y-96696028D01*
X94203986Y-96826262D01*
X94357125Y-96928586D01*
X94511487Y-96992524D01*
X94469220Y-97000932D01*
X94299060Y-97071414D01*
X94145921Y-97173738D01*
X94015687Y-97303972D01*
X93913363Y-97457111D01*
X93842881Y-97627271D01*
X93806949Y-97807911D01*
X93806949Y-97992089D01*
X93842881Y-98172729D01*
X93913363Y-98342889D01*
X94015687Y-98496028D01*
X94145921Y-98626262D01*
X94299060Y-98728586D01*
X94469220Y-98799068D01*
X94649860Y-98835000D01*
X94834038Y-98835000D01*
X95014678Y-98799068D01*
X95184838Y-98728586D01*
X95337977Y-98626262D01*
X95468211Y-98496028D01*
X95570535Y-98342889D01*
X95641017Y-98172729D01*
X95676949Y-97992089D01*
X95676949Y-97807911D01*
X95641017Y-97627271D01*
X95570535Y-97457111D01*
X95468211Y-97303972D01*
X95337977Y-97173738D01*
X95184838Y-97071414D01*
X95030476Y-97007476D01*
X95072743Y-96999068D01*
X95242903Y-96928586D01*
X95396042Y-96826262D01*
X95526276Y-96696028D01*
X95628600Y-96542889D01*
X95699082Y-96372729D01*
X95735014Y-96192089D01*
X95735014Y-96007911D01*
X95699082Y-95827271D01*
X95628600Y-95657111D01*
X95526276Y-95503972D01*
X95396042Y-95373738D01*
X95242903Y-95271414D01*
X95120229Y-95220601D01*
X95122062Y-95217857D01*
X95192544Y-95047697D01*
X95228476Y-94867057D01*
X95228476Y-94682879D01*
X95192544Y-94502239D01*
X95122062Y-94332079D01*
X95019738Y-94178940D01*
X94889504Y-94048706D01*
X94736365Y-93946382D01*
X94643488Y-93907911D01*
X96165000Y-93907911D01*
X96165000Y-94092089D01*
X96200932Y-94272729D01*
X96271414Y-94442889D01*
X96373738Y-94596028D01*
X96503972Y-94726262D01*
X96657111Y-94828586D01*
X96827271Y-94899068D01*
X97007911Y-94935000D01*
X97192089Y-94935000D01*
X97372729Y-94899068D01*
X97542889Y-94828586D01*
X97696028Y-94726262D01*
X97826262Y-94596028D01*
X97928586Y-94442889D01*
X97999068Y-94272729D01*
X98035000Y-94092089D01*
X98035000Y-93907911D01*
X97999068Y-93727271D01*
X97928586Y-93557111D01*
X97826262Y-93403972D01*
X97696028Y-93273738D01*
X97542889Y-93171414D01*
X97372729Y-93100932D01*
X97192089Y-93065000D01*
X97007911Y-93065000D01*
X96827271Y-93100932D01*
X96657111Y-93171414D01*
X96503972Y-93273738D01*
X96373738Y-93403972D01*
X96271414Y-93557111D01*
X96200932Y-93727271D01*
X96165000Y-93907911D01*
X94643488Y-93907911D01*
X94566205Y-93875900D01*
X94385565Y-93839968D01*
X94201387Y-93839968D01*
X94020747Y-93875900D01*
X93850587Y-93946382D01*
X93697448Y-94048706D01*
X93567214Y-94178940D01*
X93464890Y-94332079D01*
X93394408Y-94502239D01*
X93358476Y-94682879D01*
X85505165Y-94682879D01*
X85496024Y-94673738D01*
X85342885Y-94571414D01*
X85217388Y-94519432D01*
X85199056Y-94427271D01*
X85128574Y-94257111D01*
X85026250Y-94103972D01*
X84896016Y-93973738D01*
X84742877Y-93871414D01*
X84572717Y-93800932D01*
X84392077Y-93765000D01*
X84226464Y-93765000D01*
X84199068Y-93627271D01*
X84149628Y-93507911D01*
X91365000Y-93507911D01*
X91365000Y-93692089D01*
X91400932Y-93872729D01*
X91471414Y-94042889D01*
X91573738Y-94196028D01*
X91703972Y-94326262D01*
X91857111Y-94428586D01*
X92027271Y-94499068D01*
X92207911Y-94535000D01*
X92392089Y-94535000D01*
X92572729Y-94499068D01*
X92742889Y-94428586D01*
X92896028Y-94326262D01*
X93026262Y-94196028D01*
X93128586Y-94042889D01*
X93199068Y-93872729D01*
X93235000Y-93692089D01*
X93235000Y-93507911D01*
X93199068Y-93327271D01*
X93128586Y-93157111D01*
X93026262Y-93003972D01*
X92896028Y-92873738D01*
X92742889Y-92771414D01*
X92572729Y-92700932D01*
X92392089Y-92665000D01*
X92207911Y-92665000D01*
X92027271Y-92700932D01*
X91857111Y-92771414D01*
X91703972Y-92873738D01*
X91573738Y-93003972D01*
X91471414Y-93157111D01*
X91400932Y-93327271D01*
X91365000Y-93507911D01*
X84149628Y-93507911D01*
X84128586Y-93457111D01*
X84026262Y-93303972D01*
X83896028Y-93173738D01*
X83742889Y-93071414D01*
X83572729Y-93000932D01*
X83392089Y-92965000D01*
X83207911Y-92965000D01*
X83027271Y-93000932D01*
X82857111Y-93071414D01*
X82703972Y-93173738D01*
X82573738Y-93303972D01*
X82471414Y-93457111D01*
X82400932Y-93627271D01*
X82365000Y-93807911D01*
X76789196Y-93807911D01*
X76801079Y-93796028D01*
X76903403Y-93642889D01*
X76973885Y-93472729D01*
X77009817Y-93292089D01*
X77009817Y-93107911D01*
X76973885Y-92927271D01*
X76903403Y-92757111D01*
X76827728Y-92643855D01*
X76928592Y-92492900D01*
X76999074Y-92322740D01*
X77035006Y-92142100D01*
X77035006Y-92007911D01*
X96865000Y-92007911D01*
X96865000Y-92192089D01*
X96900932Y-92372729D01*
X96971414Y-92542889D01*
X97073738Y-92696028D01*
X97203972Y-92826262D01*
X97357111Y-92928586D01*
X97527271Y-92999068D01*
X97707911Y-93035000D01*
X97892089Y-93035000D01*
X98072729Y-92999068D01*
X98217014Y-92939304D01*
X98303972Y-93026262D01*
X98457111Y-93128586D01*
X98627271Y-93199068D01*
X98807911Y-93235000D01*
X98992089Y-93235000D01*
X99172729Y-93199068D01*
X99342889Y-93128586D01*
X99496028Y-93026262D01*
X99626262Y-92896028D01*
X99728586Y-92742889D01*
X99799068Y-92572729D01*
X99835000Y-92392089D01*
X99835000Y-92207911D01*
X99799068Y-92027271D01*
X99728586Y-91857111D01*
X99628894Y-91707911D01*
X102165000Y-91707911D01*
X102165000Y-91892089D01*
X102200932Y-92072729D01*
X102271414Y-92242889D01*
X102373738Y-92396028D01*
X102503972Y-92526262D01*
X102657111Y-92628586D01*
X102827271Y-92699068D01*
X103007911Y-92735000D01*
X103192089Y-92735000D01*
X103252845Y-92722915D01*
X103252845Y-92877503D01*
X103288777Y-93058143D01*
X103359259Y-93228303D01*
X103461583Y-93381442D01*
X103591817Y-93511676D01*
X103744956Y-93614000D01*
X103903866Y-93679822D01*
X103971410Y-93842889D01*
X104073734Y-93996028D01*
X104203968Y-94126262D01*
X104357107Y-94228586D01*
X104508647Y-94291356D01*
X104571414Y-94442889D01*
X104673738Y-94596028D01*
X104803972Y-94726262D01*
X104957111Y-94828586D01*
X105108647Y-94891354D01*
X105171414Y-95042887D01*
X105273738Y-95196026D01*
X105403972Y-95326260D01*
X105557111Y-95428584D01*
X105682599Y-95480562D01*
X105700932Y-95572729D01*
X105771414Y-95742889D01*
X105873738Y-95896028D01*
X106003972Y-96026262D01*
X106157111Y-96128586D01*
X106327271Y-96199068D01*
X106420323Y-96217577D01*
X106418815Y-96218815D01*
X106339463Y-96315506D01*
X106280498Y-96425820D01*
X106244188Y-96545518D01*
X106231928Y-96670000D01*
X106231928Y-98370000D01*
X106244188Y-98494482D01*
X106280498Y-98614180D01*
X106339463Y-98724494D01*
X106418815Y-98821185D01*
X106515506Y-98900537D01*
X106625820Y-98959502D01*
X106698380Y-98981513D01*
X106566525Y-99113368D01*
X106404010Y-99356589D01*
X106292068Y-99626842D01*
X106235000Y-99913740D01*
X106235000Y-100206260D01*
X106292068Y-100493158D01*
X106404010Y-100763411D01*
X106566525Y-101006632D01*
X106773368Y-101213475D01*
X106947760Y-101330000D01*
X106773368Y-101446525D01*
X106566525Y-101653368D01*
X106404010Y-101896589D01*
X106292068Y-102166842D01*
X106235000Y-102453740D01*
X106235000Y-102746260D01*
X106292068Y-103033158D01*
X106404010Y-103303411D01*
X106566525Y-103546632D01*
X106773368Y-103753475D01*
X106947760Y-103870000D01*
X106773368Y-103986525D01*
X106566525Y-104193368D01*
X106404010Y-104436589D01*
X106292068Y-104706842D01*
X106235000Y-104993740D01*
X106235000Y-105286260D01*
X106292068Y-105573158D01*
X106404010Y-105843411D01*
X106566525Y-106086632D01*
X106773368Y-106293475D01*
X106947760Y-106410000D01*
X106773368Y-106526525D01*
X106566525Y-106733368D01*
X106404010Y-106976589D01*
X106292068Y-107246842D01*
X106235000Y-107533740D01*
X106235000Y-107826260D01*
X106292068Y-108113158D01*
X106404010Y-108383411D01*
X106566525Y-108626632D01*
X106773368Y-108833475D01*
X106947760Y-108950000D01*
X106773368Y-109066525D01*
X106566525Y-109273368D01*
X106404010Y-109516589D01*
X106292068Y-109786842D01*
X106235000Y-110073740D01*
X106235000Y-110366260D01*
X106292068Y-110653158D01*
X106404010Y-110923411D01*
X106566525Y-111166632D01*
X106773368Y-111373475D01*
X106947760Y-111490000D01*
X106773368Y-111606525D01*
X106566525Y-111813368D01*
X106404010Y-112056589D01*
X106292068Y-112326842D01*
X106235000Y-112613740D01*
X106235000Y-112906260D01*
X106292068Y-113193158D01*
X106404010Y-113463411D01*
X106566525Y-113706632D01*
X106773368Y-113913475D01*
X106947760Y-114030000D01*
X106773368Y-114146525D01*
X106566525Y-114353368D01*
X106404010Y-114596589D01*
X106292068Y-114866842D01*
X106235000Y-115153740D01*
X106235000Y-115446260D01*
X106292068Y-115733158D01*
X106404010Y-116003411D01*
X106566525Y-116246632D01*
X106773368Y-116453475D01*
X106947760Y-116570000D01*
X106773368Y-116686525D01*
X106566525Y-116893368D01*
X106404010Y-117136589D01*
X106292068Y-117406842D01*
X106262084Y-117557583D01*
X106226262Y-117503972D01*
X106096028Y-117373738D01*
X105942889Y-117271414D01*
X105772729Y-117200932D01*
X105592089Y-117165000D01*
X105407911Y-117165000D01*
X105227271Y-117200932D01*
X105057111Y-117271414D01*
X104903972Y-117373738D01*
X104773738Y-117503972D01*
X104671414Y-117657111D01*
X104600932Y-117827271D01*
X104565000Y-118007911D01*
X104565000Y-118192089D01*
X104600932Y-118372729D01*
X104671414Y-118542889D01*
X104773738Y-118696028D01*
X104903972Y-118826262D01*
X105057111Y-118928586D01*
X105227271Y-118999068D01*
X105407911Y-119035000D01*
X105592089Y-119035000D01*
X105772729Y-118999068D01*
X105942889Y-118928586D01*
X106096028Y-118826262D01*
X106226262Y-118696028D01*
X106328586Y-118542889D01*
X106366190Y-118452105D01*
X106404010Y-118543411D01*
X106566525Y-118786632D01*
X106773368Y-118993475D01*
X106947760Y-119110000D01*
X106773368Y-119226525D01*
X106566525Y-119433368D01*
X106404010Y-119676589D01*
X106292068Y-119946842D01*
X106235000Y-120233740D01*
X106235000Y-120526260D01*
X106292068Y-120813158D01*
X106404010Y-121083411D01*
X106566525Y-121326632D01*
X106773368Y-121533475D01*
X107016589Y-121695990D01*
X107286842Y-121807932D01*
X107573740Y-121865000D01*
X107866260Y-121865000D01*
X108153158Y-121807932D01*
X108423411Y-121695990D01*
X108666632Y-121533475D01*
X108873475Y-121326632D01*
X108990000Y-121152240D01*
X109106525Y-121326632D01*
X109313368Y-121533475D01*
X109556589Y-121695990D01*
X109826842Y-121807932D01*
X110113740Y-121865000D01*
X110406260Y-121865000D01*
X110693158Y-121807932D01*
X110963411Y-121695990D01*
X111206632Y-121533475D01*
X111413475Y-121326632D01*
X111575990Y-121083411D01*
X111687932Y-120813158D01*
X111745000Y-120526260D01*
X111745000Y-120233740D01*
X111687932Y-119946842D01*
X111575990Y-119676589D01*
X111413475Y-119433368D01*
X111206632Y-119226525D01*
X111032240Y-119110000D01*
X111206632Y-118993475D01*
X111413475Y-118786632D01*
X111575990Y-118543411D01*
X111687932Y-118273158D01*
X111745000Y-117986260D01*
X111745000Y-117693740D01*
X111687932Y-117406842D01*
X111575990Y-117136589D01*
X111413475Y-116893368D01*
X111206632Y-116686525D01*
X111032240Y-116570000D01*
X111206632Y-116453475D01*
X111413475Y-116246632D01*
X111575990Y-116003411D01*
X111687932Y-115733158D01*
X111745000Y-115446260D01*
X111745000Y-115153740D01*
X111687932Y-114866842D01*
X111575990Y-114596589D01*
X111413475Y-114353368D01*
X111206632Y-114146525D01*
X111032240Y-114030000D01*
X111206632Y-113913475D01*
X111413475Y-113706632D01*
X111575990Y-113463411D01*
X111687932Y-113193158D01*
X111745000Y-112906260D01*
X111745000Y-112613740D01*
X111687932Y-112326842D01*
X111575990Y-112056589D01*
X111413475Y-111813368D01*
X111206632Y-111606525D01*
X111032240Y-111490000D01*
X111206632Y-111373475D01*
X111413475Y-111166632D01*
X111575990Y-110923411D01*
X111687932Y-110653158D01*
X111745000Y-110366260D01*
X111745000Y-110073740D01*
X111687932Y-109786842D01*
X111575990Y-109516589D01*
X111413475Y-109273368D01*
X111206632Y-109066525D01*
X111032240Y-108950000D01*
X111206632Y-108833475D01*
X111413475Y-108626632D01*
X111575990Y-108383411D01*
X111687932Y-108113158D01*
X111745000Y-107826260D01*
X111745000Y-107533740D01*
X111687932Y-107246842D01*
X111575990Y-106976589D01*
X111413475Y-106733368D01*
X111206632Y-106526525D01*
X111032240Y-106410000D01*
X111206632Y-106293475D01*
X111413475Y-106086632D01*
X111575990Y-105843411D01*
X111687932Y-105573158D01*
X111745000Y-105286260D01*
X111745000Y-104993740D01*
X111687932Y-104706842D01*
X111575990Y-104436589D01*
X111413475Y-104193368D01*
X111206632Y-103986525D01*
X111032240Y-103870000D01*
X111206632Y-103753475D01*
X111413475Y-103546632D01*
X111575990Y-103303411D01*
X111687932Y-103033158D01*
X111745000Y-102746260D01*
X111745000Y-102453740D01*
X111687932Y-102166842D01*
X111575990Y-101896589D01*
X111413475Y-101653368D01*
X111206632Y-101446525D01*
X111032240Y-101330000D01*
X111206632Y-101213475D01*
X111413475Y-101006632D01*
X111575990Y-100763411D01*
X111687932Y-100493158D01*
X111745000Y-100206260D01*
X111745000Y-99913740D01*
X111687932Y-99626842D01*
X111575990Y-99356589D01*
X111413475Y-99113368D01*
X111206632Y-98906525D01*
X111024466Y-98784805D01*
X111141355Y-98715178D01*
X111357588Y-98520269D01*
X111531641Y-98286920D01*
X111656825Y-98024099D01*
X111701476Y-97876890D01*
X111580155Y-97647000D01*
X110387000Y-97647000D01*
X110387000Y-97667000D01*
X110133000Y-97667000D01*
X110133000Y-97647000D01*
X110113000Y-97647000D01*
X110113000Y-97393000D01*
X110133000Y-97393000D01*
X110133000Y-96199186D01*
X110387000Y-96199186D01*
X110387000Y-97393000D01*
X111580155Y-97393000D01*
X111701476Y-97163110D01*
X111656825Y-97015901D01*
X111531641Y-96753080D01*
X111357588Y-96519731D01*
X111141355Y-96324822D01*
X110891252Y-96175843D01*
X110616891Y-96078519D01*
X110387000Y-96199186D01*
X110133000Y-96199186D01*
X109903109Y-96078519D01*
X109628748Y-96175843D01*
X109378645Y-96324822D01*
X109182498Y-96501626D01*
X109159502Y-96425820D01*
X109100537Y-96315506D01*
X109021185Y-96218815D01*
X108924494Y-96139463D01*
X108814180Y-96080498D01*
X108694482Y-96044188D01*
X108570000Y-96031928D01*
X107187548Y-96031928D01*
X107196028Y-96026262D01*
X107326262Y-95896028D01*
X107428586Y-95742889D01*
X107499068Y-95572729D01*
X107535000Y-95392089D01*
X107535000Y-95207911D01*
X107499068Y-95027271D01*
X107428586Y-94857111D01*
X107326262Y-94703972D01*
X107196028Y-94573738D01*
X107042889Y-94471414D01*
X106917401Y-94419436D01*
X106899068Y-94327269D01*
X106828586Y-94157109D01*
X106726262Y-94003970D01*
X106596028Y-93873736D01*
X106442889Y-93771412D01*
X106291353Y-93708644D01*
X106228586Y-93557111D01*
X106126262Y-93403972D01*
X105996028Y-93273738D01*
X105842889Y-93171414D01*
X105691349Y-93108644D01*
X105628582Y-92957111D01*
X105526258Y-92803972D01*
X105396024Y-92673738D01*
X105242885Y-92571414D01*
X105083975Y-92505592D01*
X105016431Y-92342525D01*
X104914107Y-92189386D01*
X104783873Y-92059152D01*
X104630734Y-91956828D01*
X104460574Y-91886346D01*
X104279934Y-91850414D01*
X104095756Y-91850414D01*
X104035000Y-91862499D01*
X104035000Y-91707911D01*
X103999068Y-91527271D01*
X103928586Y-91357111D01*
X103826262Y-91203972D01*
X103696028Y-91073738D01*
X103542889Y-90971414D01*
X103372729Y-90900932D01*
X103192089Y-90865000D01*
X103007911Y-90865000D01*
X102827271Y-90900932D01*
X102657111Y-90971414D01*
X102503972Y-91073738D01*
X102373738Y-91203972D01*
X102271414Y-91357111D01*
X102200932Y-91527271D01*
X102165000Y-91707911D01*
X99628894Y-91707911D01*
X99626262Y-91703972D01*
X99496028Y-91573738D01*
X99342889Y-91471414D01*
X99172729Y-91400932D01*
X98992089Y-91365000D01*
X98807911Y-91365000D01*
X98627271Y-91400932D01*
X98482986Y-91460696D01*
X98396028Y-91373738D01*
X98242889Y-91271414D01*
X98072729Y-91200932D01*
X97892089Y-91165000D01*
X97707911Y-91165000D01*
X97527271Y-91200932D01*
X97357111Y-91271414D01*
X97203972Y-91373738D01*
X97073738Y-91503972D01*
X96971414Y-91657111D01*
X96900932Y-91827271D01*
X96865000Y-92007911D01*
X77035006Y-92007911D01*
X77035006Y-91957922D01*
X76999074Y-91777282D01*
X76928592Y-91607122D01*
X76826268Y-91453983D01*
X76797288Y-91425003D01*
X76826262Y-91396028D01*
X76928586Y-91242889D01*
X76999068Y-91072729D01*
X77035000Y-90892089D01*
X77035000Y-90707911D01*
X76999068Y-90527271D01*
X76928586Y-90357111D01*
X76826262Y-90203972D01*
X76772284Y-90149994D01*
X76826262Y-90096015D01*
X76885131Y-90007911D01*
X80464996Y-90007911D01*
X80464996Y-90192089D01*
X80500928Y-90372729D01*
X80571410Y-90542889D01*
X80673734Y-90696028D01*
X80803968Y-90826262D01*
X80957107Y-90928586D01*
X81127267Y-90999068D01*
X81307907Y-91035000D01*
X81492085Y-91035000D01*
X81672725Y-90999068D01*
X81842885Y-90928586D01*
X81996024Y-90826262D01*
X82126258Y-90696028D01*
X82228582Y-90542889D01*
X82299064Y-90372729D01*
X82334996Y-90192089D01*
X82334996Y-90007911D01*
X82299064Y-89827271D01*
X82291045Y-89807911D01*
X84714983Y-89807911D01*
X84714983Y-89992089D01*
X84750915Y-90172729D01*
X84821397Y-90342889D01*
X84923721Y-90496028D01*
X85053955Y-90626262D01*
X85207094Y-90728586D01*
X85377254Y-90799068D01*
X85557894Y-90835000D01*
X85742072Y-90835000D01*
X85838231Y-90815873D01*
X85871987Y-90985573D01*
X85942469Y-91155733D01*
X86044793Y-91308872D01*
X86175027Y-91439106D01*
X86328166Y-91541430D01*
X86498326Y-91611912D01*
X86678966Y-91647844D01*
X86863144Y-91647844D01*
X87043784Y-91611912D01*
X87213944Y-91541430D01*
X87367083Y-91439106D01*
X87497317Y-91308872D01*
X87599641Y-91155733D01*
X87670123Y-90985573D01*
X87706055Y-90804933D01*
X87706055Y-90620755D01*
X87670123Y-90440115D01*
X87599641Y-90269955D01*
X87497317Y-90116816D01*
X87367083Y-89986582D01*
X87213944Y-89884258D01*
X87210668Y-89882901D01*
X99165000Y-89882901D01*
X99165000Y-90067079D01*
X99200932Y-90247719D01*
X99271414Y-90417879D01*
X99373738Y-90571018D01*
X99503972Y-90701252D01*
X99657111Y-90803576D01*
X99827271Y-90874058D01*
X99883531Y-90885249D01*
X99900932Y-90972729D01*
X99971414Y-91142889D01*
X100073738Y-91296028D01*
X100203972Y-91426262D01*
X100357111Y-91528586D01*
X100527271Y-91599068D01*
X100707911Y-91635000D01*
X100892089Y-91635000D01*
X101072729Y-91599068D01*
X101242889Y-91528586D01*
X101396028Y-91426262D01*
X101526262Y-91296028D01*
X101628586Y-91142889D01*
X101699068Y-90972729D01*
X101735000Y-90792089D01*
X101735000Y-90607911D01*
X101699068Y-90427271D01*
X101628586Y-90257111D01*
X101526262Y-90103972D01*
X101396028Y-89973738D01*
X101242889Y-89871414D01*
X101072729Y-89800932D01*
X101016469Y-89789741D01*
X100999068Y-89702261D01*
X100928586Y-89532101D01*
X100826262Y-89378962D01*
X100696028Y-89248728D01*
X100542889Y-89146404D01*
X100372729Y-89075922D01*
X100192089Y-89039990D01*
X100007911Y-89039990D01*
X99827271Y-89075922D01*
X99657111Y-89146404D01*
X99503972Y-89248728D01*
X99373738Y-89378962D01*
X99271414Y-89532101D01*
X99200932Y-89702261D01*
X99165000Y-89882901D01*
X87210668Y-89882901D01*
X87043784Y-89813776D01*
X86863144Y-89777844D01*
X86678966Y-89777844D01*
X86582807Y-89796971D01*
X86549051Y-89627271D01*
X86478569Y-89457111D01*
X86376245Y-89303972D01*
X86246011Y-89173738D01*
X86092872Y-89071414D01*
X85922712Y-89000932D01*
X85742072Y-88965000D01*
X85557894Y-88965000D01*
X85377254Y-89000932D01*
X85207094Y-89071414D01*
X85053955Y-89173738D01*
X84923721Y-89303972D01*
X84821397Y-89457111D01*
X84750915Y-89627271D01*
X84714983Y-89807911D01*
X82291045Y-89807911D01*
X82228582Y-89657111D01*
X82126258Y-89503972D01*
X81996024Y-89373738D01*
X81842885Y-89271414D01*
X81672725Y-89200932D01*
X81492085Y-89165000D01*
X81307907Y-89165000D01*
X81127267Y-89200932D01*
X80957107Y-89271414D01*
X80803968Y-89373738D01*
X80673734Y-89503972D01*
X80571410Y-89657111D01*
X80500928Y-89827271D01*
X80464996Y-90007911D01*
X76885131Y-90007911D01*
X76928586Y-89942876D01*
X76999068Y-89772716D01*
X77035000Y-89592076D01*
X77035000Y-89407898D01*
X76999068Y-89227258D01*
X76928586Y-89057098D01*
X76826262Y-88903959D01*
X76696028Y-88773725D01*
X76542889Y-88671401D01*
X76389610Y-88607911D01*
X78965000Y-88607911D01*
X78965000Y-88792089D01*
X79000932Y-88972729D01*
X79071414Y-89142889D01*
X79173738Y-89296028D01*
X79303972Y-89426262D01*
X79457111Y-89528586D01*
X79627271Y-89599068D01*
X79807911Y-89635000D01*
X79992089Y-89635000D01*
X80172729Y-89599068D01*
X80342889Y-89528586D01*
X80496028Y-89426262D01*
X80626262Y-89296028D01*
X80728586Y-89142889D01*
X80799068Y-88972729D01*
X80835000Y-88792089D01*
X80835000Y-88607911D01*
X80799068Y-88427271D01*
X80728586Y-88257111D01*
X80626262Y-88103972D01*
X80496028Y-87973738D01*
X80342889Y-87871414D01*
X80172729Y-87800932D01*
X79992089Y-87765000D01*
X79807911Y-87765000D01*
X79627271Y-87800932D01*
X79457111Y-87871414D01*
X79303972Y-87973738D01*
X79173738Y-88103972D01*
X79071414Y-88257111D01*
X79000932Y-88427271D01*
X78965000Y-88607911D01*
X76389610Y-88607911D01*
X76372729Y-88600919D01*
X76192089Y-88564987D01*
X76007911Y-88564987D01*
X75827271Y-88600919D01*
X75657111Y-88671401D01*
X75503972Y-88773725D01*
X75373738Y-88903959D01*
X75271414Y-89057098D01*
X75200932Y-89227258D01*
X75165000Y-89407898D01*
X75165000Y-89592076D01*
X75200932Y-89772716D01*
X75271414Y-89942876D01*
X75373738Y-90096015D01*
X75427717Y-90149994D01*
X75373738Y-90203972D01*
X75271414Y-90357111D01*
X75200932Y-90527271D01*
X75165000Y-90707911D01*
X75165000Y-90892089D01*
X75200932Y-91072729D01*
X75271414Y-91242889D01*
X75373738Y-91396028D01*
X75402719Y-91425009D01*
X75373744Y-91453983D01*
X75271420Y-91607122D01*
X75200938Y-91777282D01*
X75165006Y-91957922D01*
X75165006Y-92142100D01*
X75200938Y-92322740D01*
X75271420Y-92492900D01*
X75347095Y-92606156D01*
X75246231Y-92757111D01*
X75175749Y-92927271D01*
X75139817Y-93107911D01*
X66735000Y-93107911D01*
X66735000Y-92998061D01*
X66695226Y-92798102D01*
X66617205Y-92609744D01*
X66503937Y-92440226D01*
X66359774Y-92296063D01*
X66190256Y-92182795D01*
X66001898Y-92104774D01*
X65801939Y-92065000D01*
X65628424Y-92065000D01*
X65595226Y-91898102D01*
X65517205Y-91709744D01*
X65403937Y-91540226D01*
X65259774Y-91396063D01*
X65090256Y-91282795D01*
X64901898Y-91204774D01*
X64701939Y-91165000D01*
X64498061Y-91165000D01*
X64298102Y-91204774D01*
X64109744Y-91282795D01*
X63940226Y-91396063D01*
X63796063Y-91540226D01*
X63682795Y-91709744D01*
X63604774Y-91898102D01*
X63571576Y-92065000D01*
X63423061Y-92065000D01*
X63223102Y-92104774D01*
X63034744Y-92182795D01*
X62865226Y-92296063D01*
X62721063Y-92440226D01*
X62607795Y-92609744D01*
X62529774Y-92798102D01*
X62490000Y-92998061D01*
X61160000Y-92998061D01*
X61160000Y-88807911D01*
X69465000Y-88807911D01*
X69465000Y-88992089D01*
X69500932Y-89172729D01*
X69571414Y-89342889D01*
X69673738Y-89496028D01*
X69803972Y-89626262D01*
X69957111Y-89728586D01*
X70127271Y-89799068D01*
X70307911Y-89835000D01*
X70492089Y-89835000D01*
X70672729Y-89799068D01*
X70842889Y-89728586D01*
X70996028Y-89626262D01*
X71126262Y-89496028D01*
X71228586Y-89342889D01*
X71299068Y-89172729D01*
X71335000Y-88992089D01*
X71335000Y-88807911D01*
X71299068Y-88627271D01*
X71228586Y-88457111D01*
X71126262Y-88303972D01*
X70996028Y-88173738D01*
X70842889Y-88071414D01*
X70672729Y-88000932D01*
X70492089Y-87965000D01*
X70307911Y-87965000D01*
X70127271Y-88000932D01*
X69957111Y-88071414D01*
X69803972Y-88173738D01*
X69673738Y-88303972D01*
X69571414Y-88457111D01*
X69500932Y-88627271D01*
X69465000Y-88807911D01*
X61160000Y-88807911D01*
X61160000Y-85907917D01*
X85865000Y-85907917D01*
X85865000Y-86092095D01*
X85900932Y-86272735D01*
X85971414Y-86442895D01*
X86073738Y-86596034D01*
X86203972Y-86726268D01*
X86357111Y-86828592D01*
X86527271Y-86899074D01*
X86707911Y-86935006D01*
X86892089Y-86935006D01*
X87072729Y-86899074D01*
X87242889Y-86828592D01*
X87396028Y-86726268D01*
X87526262Y-86596034D01*
X87553416Y-86555396D01*
X87679251Y-86681231D01*
X87832390Y-86783555D01*
X88002550Y-86854037D01*
X88183190Y-86889969D01*
X88367368Y-86889969D01*
X88548008Y-86854037D01*
X88718168Y-86783555D01*
X88871307Y-86681231D01*
X89001541Y-86550997D01*
X89103865Y-86397858D01*
X89174347Y-86227698D01*
X89210279Y-86047058D01*
X89210279Y-85992030D01*
X89227271Y-85999068D01*
X89265000Y-86006573D01*
X89265000Y-86092089D01*
X89300932Y-86272729D01*
X89371414Y-86442889D01*
X89473738Y-86596028D01*
X89603972Y-86726262D01*
X89757111Y-86828586D01*
X89927271Y-86899068D01*
X90107911Y-86935000D01*
X90292089Y-86935000D01*
X90472729Y-86899068D01*
X90642889Y-86828586D01*
X90796028Y-86726262D01*
X90926262Y-86596028D01*
X91028586Y-86442889D01*
X91099068Y-86272729D01*
X91135000Y-86092089D01*
X91135000Y-86020497D01*
X91165000Y-86026464D01*
X91165000Y-86092089D01*
X91200932Y-86272729D01*
X91271414Y-86442889D01*
X91373738Y-86596028D01*
X91503972Y-86726262D01*
X91657111Y-86828586D01*
X91827271Y-86899068D01*
X92007911Y-86935000D01*
X92192089Y-86935000D01*
X92372729Y-86899068D01*
X92542889Y-86828586D01*
X92696028Y-86726262D01*
X92826262Y-86596028D01*
X92928586Y-86442889D01*
X92999068Y-86272729D01*
X93035000Y-86092089D01*
X93035000Y-86020501D01*
X93107911Y-86035004D01*
X93292089Y-86035004D01*
X93472729Y-85999072D01*
X93642889Y-85928590D01*
X93796028Y-85826266D01*
X93926262Y-85696032D01*
X94028586Y-85542893D01*
X94099068Y-85372733D01*
X94135000Y-85192093D01*
X94135000Y-85007915D01*
X94099068Y-84827275D01*
X94028586Y-84657115D01*
X93926262Y-84503976D01*
X93796028Y-84373742D01*
X93642889Y-84271418D01*
X93472729Y-84200936D01*
X93292089Y-84165004D01*
X93107911Y-84165004D01*
X92927271Y-84200936D01*
X92757111Y-84271418D01*
X92603972Y-84373742D01*
X92473738Y-84503976D01*
X92371414Y-84657115D01*
X92300932Y-84827275D01*
X92265000Y-85007915D01*
X92265000Y-85079503D01*
X92235000Y-85073536D01*
X92235000Y-85007911D01*
X92199068Y-84827271D01*
X92128586Y-84657111D01*
X92026262Y-84503972D01*
X91896028Y-84373738D01*
X91742889Y-84271414D01*
X91572729Y-84200932D01*
X91392089Y-84165000D01*
X91207911Y-84165000D01*
X91027271Y-84200932D01*
X90857111Y-84271414D01*
X90703972Y-84373738D01*
X90573738Y-84503972D01*
X90471414Y-84657111D01*
X90400932Y-84827271D01*
X90400000Y-84831956D01*
X90399068Y-84827271D01*
X90328586Y-84657111D01*
X90226262Y-84503972D01*
X90096028Y-84373738D01*
X89942889Y-84271414D01*
X89772729Y-84200932D01*
X89592089Y-84165000D01*
X89407911Y-84165000D01*
X89227271Y-84200932D01*
X89057111Y-84271414D01*
X88903972Y-84373738D01*
X88773738Y-84503972D01*
X88671414Y-84657111D01*
X88653147Y-84701211D01*
X88633037Y-84652660D01*
X88530713Y-84499521D01*
X88400479Y-84369287D01*
X88247340Y-84266963D01*
X88077180Y-84196481D01*
X87896540Y-84160549D01*
X87712362Y-84160549D01*
X87531722Y-84196481D01*
X87361562Y-84266963D01*
X87208423Y-84369287D01*
X87078189Y-84499521D01*
X86975865Y-84652660D01*
X86905383Y-84822820D01*
X86869451Y-85003460D01*
X86869451Y-85065006D01*
X86707911Y-85065006D01*
X86527271Y-85100938D01*
X86357111Y-85171420D01*
X86203972Y-85273744D01*
X86073738Y-85403978D01*
X85971414Y-85557117D01*
X85900932Y-85727277D01*
X85865000Y-85907917D01*
X61160000Y-85907917D01*
X61160000Y-80407911D01*
X72665000Y-80407911D01*
X72665000Y-80592089D01*
X72700932Y-80772729D01*
X72771414Y-80942889D01*
X72873738Y-81096028D01*
X73003972Y-81226262D01*
X73157111Y-81328586D01*
X73327271Y-81399068D01*
X73507911Y-81435000D01*
X73692089Y-81435000D01*
X73872729Y-81399068D01*
X74000000Y-81346351D01*
X74127271Y-81399068D01*
X74307911Y-81435000D01*
X74492089Y-81435000D01*
X74672729Y-81399068D01*
X74842889Y-81328586D01*
X74996028Y-81226262D01*
X75126262Y-81096028D01*
X75228586Y-80942889D01*
X75299068Y-80772729D01*
X75335000Y-80592089D01*
X75335000Y-80407911D01*
X75299068Y-80227271D01*
X75228586Y-80057111D01*
X75126262Y-79903972D01*
X74996028Y-79773738D01*
X74842889Y-79671414D01*
X74672729Y-79600932D01*
X74492089Y-79565000D01*
X74307911Y-79565000D01*
X74127271Y-79600932D01*
X74000000Y-79653649D01*
X73872729Y-79600932D01*
X73692089Y-79565000D01*
X73507911Y-79565000D01*
X73327271Y-79600932D01*
X73157111Y-79671414D01*
X73003972Y-79773738D01*
X72873738Y-79903972D01*
X72771414Y-80057111D01*
X72700932Y-80227271D01*
X72665000Y-80407911D01*
X61160000Y-80407911D01*
X61160000Y-78907911D01*
X78665000Y-78907911D01*
X78665000Y-79092089D01*
X78700932Y-79272729D01*
X78771414Y-79442889D01*
X78873738Y-79596028D01*
X79003972Y-79726262D01*
X79039498Y-79750000D01*
X79003972Y-79773738D01*
X78873738Y-79903972D01*
X78771414Y-80057111D01*
X78700932Y-80227271D01*
X78665000Y-80407911D01*
X78665000Y-80592089D01*
X78700932Y-80772729D01*
X78771414Y-80942889D01*
X78873738Y-81096028D01*
X79003972Y-81226262D01*
X79039498Y-81250000D01*
X79003972Y-81273738D01*
X78873738Y-81403972D01*
X78771414Y-81557111D01*
X78700932Y-81727271D01*
X78665000Y-81907911D01*
X78665000Y-82092089D01*
X78700932Y-82272729D01*
X78771414Y-82442889D01*
X78873738Y-82596028D01*
X79003972Y-82726262D01*
X79157111Y-82828586D01*
X79327271Y-82899068D01*
X79507911Y-82935000D01*
X79692089Y-82935000D01*
X79872729Y-82899068D01*
X80042889Y-82828586D01*
X80196028Y-82726262D01*
X80326262Y-82596028D01*
X80428586Y-82442889D01*
X80499068Y-82272729D01*
X80535000Y-82092089D01*
X80535000Y-81907911D01*
X80499068Y-81727271D01*
X80428586Y-81557111D01*
X80326262Y-81403972D01*
X80196028Y-81273738D01*
X80160502Y-81250000D01*
X80196028Y-81226262D01*
X80326262Y-81096028D01*
X80428586Y-80942889D01*
X80499068Y-80772729D01*
X80535000Y-80592089D01*
X80535000Y-80407911D01*
X80499068Y-80227271D01*
X80428586Y-80057111D01*
X80326262Y-79903972D01*
X80196028Y-79773738D01*
X80160502Y-79750000D01*
X80196028Y-79726262D01*
X80326262Y-79596028D01*
X80428586Y-79442889D01*
X80499068Y-79272729D01*
X80535000Y-79092089D01*
X80535000Y-78907911D01*
X80499068Y-78727271D01*
X80428586Y-78557111D01*
X80326262Y-78403972D01*
X80196028Y-78273738D01*
X80042889Y-78171414D01*
X79872729Y-78100932D01*
X79692089Y-78065000D01*
X79507911Y-78065000D01*
X79327271Y-78100932D01*
X79157111Y-78171414D01*
X79003972Y-78273738D01*
X78873738Y-78403972D01*
X78771414Y-78557111D01*
X78700932Y-78727271D01*
X78665000Y-78907911D01*
X61160000Y-78907911D01*
X61160000Y-60519608D01*
X61227573Y-60452035D01*
X61545757Y-60905850D01*
X62150210Y-61231269D01*
X62806535Y-61432512D01*
X63489510Y-61501845D01*
X64172888Y-61436605D01*
X64830407Y-61239298D01*
X65436799Y-60917506D01*
X65454243Y-60905850D01*
X65772428Y-60452033D01*
X63500000Y-58179605D01*
X63485858Y-58193748D01*
X63306253Y-58014143D01*
X63320395Y-58000000D01*
X63306253Y-57985858D01*
X63485858Y-57806253D01*
X63500000Y-57820395D01*
X63514143Y-57806253D01*
X63693748Y-57985858D01*
X63679605Y-58000000D01*
X65952033Y-60272428D01*
X66405850Y-59954243D01*
X66731269Y-59349790D01*
X66932512Y-58693465D01*
X66990017Y-58127002D01*
X67139185Y-58127002D01*
X67018519Y-58356891D01*
X67115843Y-58631252D01*
X67264822Y-58881355D01*
X67459731Y-59097588D01*
X67693080Y-59271641D01*
X67955901Y-59396825D01*
X68103110Y-59441476D01*
X68333000Y-59320155D01*
X68333000Y-58127000D01*
X68313000Y-58127000D01*
X68313000Y-57873000D01*
X68333000Y-57873000D01*
X68333000Y-56679845D01*
X68587000Y-56679845D01*
X68587000Y-57873000D01*
X68607000Y-57873000D01*
X68607000Y-58127000D01*
X68587000Y-58127000D01*
X68587000Y-59320155D01*
X68816890Y-59441476D01*
X68964099Y-59396825D01*
X69226920Y-59271641D01*
X69460269Y-59097588D01*
X69655178Y-58881355D01*
X69724805Y-58764466D01*
X69846525Y-58946632D01*
X70053368Y-59153475D01*
X70296589Y-59315990D01*
X70566842Y-59427932D01*
X70853740Y-59485000D01*
X71146260Y-59485000D01*
X71433158Y-59427932D01*
X71703411Y-59315990D01*
X71946632Y-59153475D01*
X72153475Y-58946632D01*
X72270000Y-58772240D01*
X72386525Y-58946632D01*
X72593368Y-59153475D01*
X72836589Y-59315990D01*
X73106842Y-59427932D01*
X73393740Y-59485000D01*
X73686260Y-59485000D01*
X73973158Y-59427932D01*
X74243411Y-59315990D01*
X74486632Y-59153475D01*
X74618487Y-59021620D01*
X74640498Y-59094180D01*
X74699463Y-59204494D01*
X74778815Y-59301185D01*
X74875506Y-59380537D01*
X74985820Y-59439502D01*
X75105518Y-59475812D01*
X75230000Y-59488072D01*
X76930000Y-59488072D01*
X77054482Y-59475812D01*
X77174180Y-59439502D01*
X77284494Y-59380537D01*
X77381185Y-59301185D01*
X77460537Y-59204494D01*
X77519502Y-59094180D01*
X77555812Y-58974482D01*
X77568072Y-58850000D01*
X77568072Y-58353740D01*
X87475000Y-58353740D01*
X87475000Y-58646260D01*
X87532068Y-58933158D01*
X87644010Y-59203411D01*
X87806525Y-59446632D01*
X88013368Y-59653475D01*
X88256589Y-59815990D01*
X88526842Y-59927932D01*
X88813740Y-59985000D01*
X89106260Y-59985000D01*
X89393158Y-59927932D01*
X89663411Y-59815990D01*
X89906632Y-59653475D01*
X90038487Y-59521620D01*
X90060498Y-59594180D01*
X90119463Y-59704494D01*
X90198815Y-59801185D01*
X90295506Y-59880537D01*
X90405820Y-59939502D01*
X90525518Y-59975812D01*
X90650000Y-59988072D01*
X92350000Y-59988072D01*
X92474482Y-59975812D01*
X92594180Y-59939502D01*
X92704494Y-59880537D01*
X92801185Y-59801185D01*
X92880537Y-59704494D01*
X92939502Y-59594180D01*
X92975812Y-59474482D01*
X92988072Y-59350000D01*
X92988072Y-57650000D01*
X92975812Y-57525518D01*
X92939502Y-57405820D01*
X92880537Y-57295506D01*
X92801185Y-57198815D01*
X92704494Y-57119463D01*
X92594180Y-57060498D01*
X92474482Y-57024188D01*
X92350000Y-57011928D01*
X90650000Y-57011928D01*
X90525518Y-57024188D01*
X90405820Y-57060498D01*
X90295506Y-57119463D01*
X90198815Y-57198815D01*
X90119463Y-57295506D01*
X90060498Y-57405820D01*
X90038487Y-57478380D01*
X89906632Y-57346525D01*
X89663411Y-57184010D01*
X89393158Y-57072068D01*
X89106260Y-57015000D01*
X88813740Y-57015000D01*
X88526842Y-57072068D01*
X88256589Y-57184010D01*
X88013368Y-57346525D01*
X87806525Y-57553368D01*
X87644010Y-57796589D01*
X87532068Y-58066842D01*
X87475000Y-58353740D01*
X77568072Y-58353740D01*
X77568072Y-57150000D01*
X77555812Y-57025518D01*
X77519502Y-56905820D01*
X77460537Y-56795506D01*
X77381185Y-56698815D01*
X77284494Y-56619463D01*
X77174180Y-56560498D01*
X77054482Y-56524188D01*
X76930000Y-56511928D01*
X75230000Y-56511928D01*
X75105518Y-56524188D01*
X74985820Y-56560498D01*
X74875506Y-56619463D01*
X74778815Y-56698815D01*
X74699463Y-56795506D01*
X74640498Y-56905820D01*
X74618487Y-56978380D01*
X74486632Y-56846525D01*
X74243411Y-56684010D01*
X73973158Y-56572068D01*
X73686260Y-56515000D01*
X73393740Y-56515000D01*
X73106842Y-56572068D01*
X72836589Y-56684010D01*
X72593368Y-56846525D01*
X72386525Y-57053368D01*
X72270000Y-57227760D01*
X72153475Y-57053368D01*
X71946632Y-56846525D01*
X71703411Y-56684010D01*
X71433158Y-56572068D01*
X71146260Y-56515000D01*
X70853740Y-56515000D01*
X70566842Y-56572068D01*
X70296589Y-56684010D01*
X70053368Y-56846525D01*
X69846525Y-57053368D01*
X69724805Y-57235534D01*
X69655178Y-57118645D01*
X69460269Y-56902412D01*
X69226920Y-56728359D01*
X68964099Y-56603175D01*
X68816890Y-56558524D01*
X68587000Y-56679845D01*
X68333000Y-56679845D01*
X68103110Y-56558524D01*
X67955901Y-56603175D01*
X67693080Y-56728359D01*
X67459731Y-56902412D01*
X67264822Y-57118645D01*
X67115843Y-57368748D01*
X67018519Y-57643109D01*
X67139185Y-57872998D01*
X66988719Y-57872998D01*
X66936605Y-57327112D01*
X66739298Y-56669593D01*
X66417506Y-56063201D01*
X66405850Y-56045757D01*
X65952035Y-55727573D01*
X66019608Y-55660000D01*
X108980392Y-55660000D01*
X109047965Y-55727573D01*
%TA.AperFunction,Conductor*%
D18*
G36*
X109047965Y-55727573D02*
G01*
X108594150Y-56045757D01*
X108268731Y-56650210D01*
X108067488Y-57306535D01*
X107998155Y-57989510D01*
X108063395Y-58672888D01*
X108260702Y-59330407D01*
X108582494Y-59936799D01*
X108594150Y-59954243D01*
X109047967Y-60272428D01*
X111320395Y-58000000D01*
X111306253Y-57985858D01*
X111485858Y-57806253D01*
X111500000Y-57820395D01*
X111514143Y-57806253D01*
X111693748Y-57985858D01*
X111679605Y-58000000D01*
X111693748Y-58014143D01*
X111514143Y-58193748D01*
X111500000Y-58179605D01*
X109227572Y-60452033D01*
X109545757Y-60905850D01*
X110150210Y-61231269D01*
X110806535Y-61432512D01*
X111489510Y-61501845D01*
X112172888Y-61436605D01*
X112830407Y-61239298D01*
X113436799Y-60917506D01*
X113454243Y-60905850D01*
X113772427Y-60452035D01*
X113840001Y-60519609D01*
X113840001Y-92224533D01*
X113826262Y-92203972D01*
X113696028Y-92073738D01*
X113542889Y-91971414D01*
X113372729Y-91900932D01*
X113192089Y-91865000D01*
X113007911Y-91865000D01*
X112956623Y-91875202D01*
X112999068Y-91772729D01*
X113035000Y-91592089D01*
X113035000Y-91407911D01*
X112999068Y-91227271D01*
X112928586Y-91057111D01*
X112826262Y-90903972D01*
X112696028Y-90773738D01*
X112542889Y-90671414D01*
X112372729Y-90600932D01*
X112192089Y-90565000D01*
X112007911Y-90565000D01*
X111827271Y-90600932D01*
X111657111Y-90671414D01*
X111503972Y-90773738D01*
X111373738Y-90903972D01*
X111271414Y-91057111D01*
X111200932Y-91227271D01*
X111165000Y-91407911D01*
X111165000Y-91592089D01*
X111200932Y-91772729D01*
X111239152Y-91865000D01*
X111107911Y-91865000D01*
X110947644Y-91896880D01*
X110999068Y-91772729D01*
X111035000Y-91592089D01*
X111035000Y-91407911D01*
X110999068Y-91227271D01*
X110928586Y-91057111D01*
X110826262Y-90903972D01*
X110696028Y-90773738D01*
X110542889Y-90671414D01*
X110372729Y-90600932D01*
X110192089Y-90565000D01*
X110007911Y-90565000D01*
X109827271Y-90600932D01*
X109657111Y-90671414D01*
X109503972Y-90773738D01*
X109373738Y-90903972D01*
X109271414Y-91057111D01*
X109200932Y-91227271D01*
X109165000Y-91407911D01*
X109165000Y-91592089D01*
X109200932Y-91772729D01*
X109271414Y-91942889D01*
X109373738Y-92096028D01*
X109503972Y-92226262D01*
X109657111Y-92328586D01*
X109827271Y-92399068D01*
X110007911Y-92435000D01*
X110192089Y-92435000D01*
X110352356Y-92403120D01*
X110300932Y-92527271D01*
X110265000Y-92707911D01*
X110265000Y-92892089D01*
X110300932Y-93072729D01*
X110371414Y-93242889D01*
X110473738Y-93396028D01*
X110603972Y-93526262D01*
X110757111Y-93628586D01*
X110927271Y-93699068D01*
X111107911Y-93735000D01*
X111292089Y-93735000D01*
X111472729Y-93699068D01*
X111642889Y-93628586D01*
X111796028Y-93526262D01*
X111926262Y-93396028D01*
X112028586Y-93242889D01*
X112099068Y-93072729D01*
X112135000Y-92892089D01*
X112135000Y-92707911D01*
X112099068Y-92527271D01*
X112060848Y-92435000D01*
X112192089Y-92435000D01*
X112243377Y-92424798D01*
X112200932Y-92527271D01*
X112165000Y-92707911D01*
X112165000Y-92892089D01*
X112200932Y-93072729D01*
X112271414Y-93242889D01*
X112373738Y-93396028D01*
X112503972Y-93526262D01*
X112657111Y-93628586D01*
X112827271Y-93699068D01*
X113007911Y-93735000D01*
X113192089Y-93735000D01*
X113372729Y-93699068D01*
X113542889Y-93628586D01*
X113696028Y-93526262D01*
X113826262Y-93396028D01*
X113840000Y-93375467D01*
X113840000Y-124480392D01*
X113772427Y-124547965D01*
X113454243Y-124094150D01*
X112849790Y-123768731D01*
X112193465Y-123567488D01*
X111510490Y-123498155D01*
X110827112Y-123563395D01*
X110169593Y-123760702D01*
X109563201Y-124082494D01*
X109545757Y-124094150D01*
X109227572Y-124547967D01*
X111500000Y-126820395D01*
X111514143Y-126806253D01*
X111693748Y-126985858D01*
X111679605Y-127000000D01*
X111693748Y-127014143D01*
X111514143Y-127193748D01*
X111500000Y-127179605D01*
X111485858Y-127193748D01*
X111306253Y-127014143D01*
X111320395Y-127000000D01*
X109047967Y-124727572D01*
X108594150Y-125045757D01*
X108268731Y-125650210D01*
X108067488Y-126306535D01*
X107998155Y-126989510D01*
X108063395Y-127672888D01*
X108260702Y-128330407D01*
X108582494Y-128936799D01*
X108594150Y-128954243D01*
X109047965Y-129272427D01*
X108980392Y-129340000D01*
X90118177Y-129340000D01*
X90201250Y-129260559D01*
X90349019Y-129049761D01*
X90452824Y-128814185D01*
X90508675Y-128562884D01*
X90358573Y-128357000D01*
X89332000Y-128357000D01*
X89332000Y-128377000D01*
X89078000Y-128377000D01*
X89078000Y-128357000D01*
X88051427Y-128357000D01*
X87901325Y-128562884D01*
X87957176Y-128814185D01*
X88060981Y-129049761D01*
X88208750Y-129260559D01*
X88291823Y-129340000D01*
X84658177Y-129340000D01*
X84741250Y-129260559D01*
X84889019Y-129049761D01*
X84992824Y-128814185D01*
X85048675Y-128562884D01*
X84898573Y-128357000D01*
X83872000Y-128357000D01*
X83872000Y-128377000D01*
X83618000Y-128377000D01*
X83618000Y-128357000D01*
X82591427Y-128357000D01*
X82441325Y-128562884D01*
X82497176Y-128814185D01*
X82600981Y-129049761D01*
X82748750Y-129260559D01*
X82831823Y-129340000D01*
X66019608Y-129340000D01*
X65952035Y-129272427D01*
X66405850Y-128954243D01*
X66731269Y-128349790D01*
X66870068Y-127897116D01*
X82441325Y-127897116D01*
X82591427Y-128103000D01*
X83618000Y-128103000D01*
X83618000Y-126910776D01*
X83872000Y-126910776D01*
X83872000Y-128103000D01*
X84898573Y-128103000D01*
X85048675Y-127897116D01*
X87901325Y-127897116D01*
X88051427Y-128103000D01*
X89078000Y-128103000D01*
X89078000Y-126910776D01*
X89332000Y-126910776D01*
X89332000Y-128103000D01*
X90358573Y-128103000D01*
X90508675Y-127897116D01*
X90452824Y-127645815D01*
X90349019Y-127410239D01*
X90201250Y-127199441D01*
X90015196Y-127021522D01*
X89798007Y-126883319D01*
X89558029Y-126790143D01*
X89534400Y-126787090D01*
X89332000Y-126910776D01*
X89078000Y-126910776D01*
X88875600Y-126787090D01*
X88851971Y-126790143D01*
X88611993Y-126883319D01*
X88394804Y-127021522D01*
X88208750Y-127199441D01*
X88060981Y-127410239D01*
X87957176Y-127645815D01*
X87901325Y-127897116D01*
X85048675Y-127897116D01*
X84992824Y-127645815D01*
X84889019Y-127410239D01*
X84741250Y-127199441D01*
X84555196Y-127021522D01*
X84338007Y-126883319D01*
X84098029Y-126790143D01*
X84074400Y-126787090D01*
X83872000Y-126910776D01*
X83618000Y-126910776D01*
X83415600Y-126787090D01*
X83391971Y-126790143D01*
X83151993Y-126883319D01*
X82934804Y-127021522D01*
X82748750Y-127199441D01*
X82600981Y-127410239D01*
X82497176Y-127645815D01*
X82441325Y-127897116D01*
X66870068Y-127897116D01*
X66932512Y-127693465D01*
X67001845Y-127010490D01*
X66936605Y-126327112D01*
X66837513Y-125996891D01*
X70978519Y-125996891D01*
X71075843Y-126271252D01*
X71224822Y-126521355D01*
X71419731Y-126737588D01*
X71653080Y-126911641D01*
X71915901Y-127036825D01*
X72063110Y-127081476D01*
X72293000Y-126960155D01*
X72293000Y-125767000D01*
X71099186Y-125767000D01*
X70978519Y-125996891D01*
X66837513Y-125996891D01*
X66739298Y-125669593D01*
X66417506Y-125063201D01*
X66405850Y-125045757D01*
X65952033Y-124727572D01*
X63679605Y-127000000D01*
X63693748Y-127014143D01*
X63514143Y-127193748D01*
X63500000Y-127179605D01*
X63485858Y-127193748D01*
X63306253Y-127014143D01*
X63320395Y-127000000D01*
X63306253Y-126985858D01*
X63485858Y-126806253D01*
X63500000Y-126820395D01*
X65772428Y-124547967D01*
X65454243Y-124094150D01*
X64849790Y-123768731D01*
X64193465Y-123567488D01*
X63510490Y-123498155D01*
X62827112Y-123563395D01*
X62169593Y-123760702D01*
X61563201Y-124082494D01*
X61545757Y-124094150D01*
X61227573Y-124547965D01*
X61160000Y-124480392D01*
X61160000Y-122953740D01*
X70935000Y-122953740D01*
X70935000Y-123246260D01*
X70992068Y-123533158D01*
X71104010Y-123803411D01*
X71266525Y-124046632D01*
X71473368Y-124253475D01*
X71649406Y-124371100D01*
X71419731Y-124542412D01*
X71224822Y-124758645D01*
X71075843Y-125008748D01*
X70978519Y-125283109D01*
X71099186Y-125513000D01*
X72293000Y-125513000D01*
X72293000Y-125493000D01*
X72547000Y-125493000D01*
X72547000Y-125513000D01*
X72567000Y-125513000D01*
X72567000Y-125767000D01*
X72547000Y-125767000D01*
X72547000Y-126960155D01*
X72776890Y-127081476D01*
X72924099Y-127036825D01*
X73186920Y-126911641D01*
X73420269Y-126737588D01*
X73615178Y-126521355D01*
X73684805Y-126404466D01*
X73806525Y-126586632D01*
X74013368Y-126793475D01*
X74256589Y-126955990D01*
X74526842Y-127067932D01*
X74813740Y-127125000D01*
X75106260Y-127125000D01*
X75393158Y-127067932D01*
X75663411Y-126955990D01*
X75906632Y-126793475D01*
X76113475Y-126586632D01*
X76230000Y-126412240D01*
X76346525Y-126586632D01*
X76553368Y-126793475D01*
X76796589Y-126955990D01*
X77066842Y-127067932D01*
X77353740Y-127125000D01*
X77646260Y-127125000D01*
X77933158Y-127067932D01*
X78203411Y-126955990D01*
X78446632Y-126793475D01*
X78653475Y-126586632D01*
X78815990Y-126343411D01*
X78927932Y-126073158D01*
X78985000Y-125786260D01*
X78985000Y-125543884D01*
X82869316Y-125543884D01*
X82914316Y-125773011D01*
X83003152Y-125988957D01*
X83132410Y-126183422D01*
X83297123Y-126348934D01*
X83490961Y-126479131D01*
X83706474Y-126569011D01*
X83745256Y-126573803D01*
X83928000Y-126448361D01*
X83928000Y-125357000D01*
X84182000Y-125357000D01*
X84182000Y-126448361D01*
X84364744Y-126573803D01*
X84403526Y-126569011D01*
X84619039Y-126479131D01*
X84812877Y-126348934D01*
X84977590Y-126183422D01*
X85106848Y-125988957D01*
X85195684Y-125773011D01*
X85240684Y-125543884D01*
X87709316Y-125543884D01*
X87754316Y-125773011D01*
X87843152Y-125988957D01*
X87972410Y-126183422D01*
X88137123Y-126348934D01*
X88330961Y-126479131D01*
X88546474Y-126569011D01*
X88585256Y-126573803D01*
X88768000Y-126448361D01*
X88768000Y-125357000D01*
X89022000Y-125357000D01*
X89022000Y-126448361D01*
X89204744Y-126573803D01*
X89243526Y-126569011D01*
X89459039Y-126479131D01*
X89652877Y-126348934D01*
X89817590Y-126183422D01*
X89946848Y-125988957D01*
X90035684Y-125773011D01*
X90080684Y-125543884D01*
X89925152Y-125357000D01*
X89022000Y-125357000D01*
X88768000Y-125357000D01*
X87864848Y-125357000D01*
X87709316Y-125543884D01*
X85240684Y-125543884D01*
X85085152Y-125357000D01*
X84182000Y-125357000D01*
X83928000Y-125357000D01*
X83024848Y-125357000D01*
X82869316Y-125543884D01*
X78985000Y-125543884D01*
X78985000Y-125493740D01*
X78936517Y-125250000D01*
X94711928Y-125250000D01*
X94711928Y-126950000D01*
X94724188Y-127074482D01*
X94760498Y-127194180D01*
X94819463Y-127304494D01*
X94898815Y-127401185D01*
X94995506Y-127480537D01*
X95105820Y-127539502D01*
X95225518Y-127575812D01*
X95350000Y-127588072D01*
X97050000Y-127588072D01*
X97174482Y-127575812D01*
X97294180Y-127539502D01*
X97404494Y-127480537D01*
X97501185Y-127401185D01*
X97580537Y-127304494D01*
X97639502Y-127194180D01*
X97663966Y-127113534D01*
X97739731Y-127197588D01*
X97973080Y-127371641D01*
X98235901Y-127496825D01*
X98383110Y-127541476D01*
X98613000Y-127420155D01*
X98613000Y-126227000D01*
X98867000Y-126227000D01*
X98867000Y-127420155D01*
X99096890Y-127541476D01*
X99244099Y-127496825D01*
X99506920Y-127371641D01*
X99740269Y-127197588D01*
X99935178Y-126981355D01*
X100010000Y-126855745D01*
X100084822Y-126981355D01*
X100279731Y-127197588D01*
X100513080Y-127371641D01*
X100775901Y-127496825D01*
X100923110Y-127541476D01*
X101153000Y-127420155D01*
X101153000Y-126227000D01*
X101407000Y-126227000D01*
X101407000Y-127420155D01*
X101636890Y-127541476D01*
X101784099Y-127496825D01*
X102046920Y-127371641D01*
X102280269Y-127197588D01*
X102475178Y-126981355D01*
X102624157Y-126731252D01*
X102721481Y-126456891D01*
X102600814Y-126227000D01*
X101407000Y-126227000D01*
X101153000Y-126227000D01*
X98867000Y-126227000D01*
X98613000Y-126227000D01*
X98593000Y-126227000D01*
X98593000Y-125973000D01*
X98613000Y-125973000D01*
X98613000Y-124779845D01*
X98867000Y-124779845D01*
X98867000Y-125973000D01*
X101153000Y-125973000D01*
X101153000Y-124779845D01*
X101407000Y-124779845D01*
X101407000Y-125973000D01*
X102600814Y-125973000D01*
X102721481Y-125743109D01*
X102624157Y-125468748D01*
X102475178Y-125218645D01*
X102280269Y-125002412D01*
X102046920Y-124828359D01*
X101784099Y-124703175D01*
X101636890Y-124658524D01*
X101407000Y-124779845D01*
X101153000Y-124779845D01*
X100923110Y-124658524D01*
X100775901Y-124703175D01*
X100513080Y-124828359D01*
X100279731Y-125002412D01*
X100084822Y-125218645D01*
X100010000Y-125344255D01*
X99935178Y-125218645D01*
X99740269Y-125002412D01*
X99506920Y-124828359D01*
X99244099Y-124703175D01*
X99096890Y-124658524D01*
X98867000Y-124779845D01*
X98613000Y-124779845D01*
X98383110Y-124658524D01*
X98235901Y-124703175D01*
X97973080Y-124828359D01*
X97739731Y-125002412D01*
X97663966Y-125086466D01*
X97639502Y-125005820D01*
X97580537Y-124895506D01*
X97501185Y-124798815D01*
X97404494Y-124719463D01*
X97294180Y-124660498D01*
X97174482Y-124624188D01*
X97050000Y-124611928D01*
X95350000Y-124611928D01*
X95225518Y-124624188D01*
X95105820Y-124660498D01*
X94995506Y-124719463D01*
X94898815Y-124798815D01*
X94819463Y-124895506D01*
X94760498Y-125005820D01*
X94724188Y-125125518D01*
X94711928Y-125250000D01*
X78936517Y-125250000D01*
X78927932Y-125206842D01*
X78815990Y-124936589D01*
X78802311Y-124916116D01*
X82869316Y-124916116D01*
X83024848Y-125103000D01*
X83928000Y-125103000D01*
X83928000Y-124011639D01*
X84182000Y-124011639D01*
X84182000Y-125103000D01*
X85085152Y-125103000D01*
X85240684Y-124916116D01*
X87709316Y-124916116D01*
X87864848Y-125103000D01*
X88768000Y-125103000D01*
X88768000Y-124011639D01*
X89022000Y-124011639D01*
X89022000Y-125103000D01*
X89925152Y-125103000D01*
X90080684Y-124916116D01*
X90035684Y-124686989D01*
X89946848Y-124471043D01*
X89817590Y-124276578D01*
X89652877Y-124111066D01*
X89459039Y-123980869D01*
X89243526Y-123890989D01*
X89204744Y-123886197D01*
X89022000Y-124011639D01*
X88768000Y-124011639D01*
X88585256Y-123886197D01*
X88546474Y-123890989D01*
X88330961Y-123980869D01*
X88137123Y-124111066D01*
X87972410Y-124276578D01*
X87843152Y-124471043D01*
X87754316Y-124686989D01*
X87709316Y-124916116D01*
X85240684Y-124916116D01*
X85195684Y-124686989D01*
X85106848Y-124471043D01*
X84977590Y-124276578D01*
X84812877Y-124111066D01*
X84619039Y-123980869D01*
X84403526Y-123890989D01*
X84364744Y-123886197D01*
X84182000Y-124011639D01*
X83928000Y-124011639D01*
X83745256Y-123886197D01*
X83706474Y-123890989D01*
X83490961Y-123980869D01*
X83297123Y-124111066D01*
X83132410Y-124276578D01*
X83003152Y-124471043D01*
X82914316Y-124686989D01*
X82869316Y-124916116D01*
X78802311Y-124916116D01*
X78653475Y-124693368D01*
X78521620Y-124561513D01*
X78594180Y-124539502D01*
X78704494Y-124480537D01*
X78801185Y-124401185D01*
X78880537Y-124304494D01*
X78939502Y-124194180D01*
X78975812Y-124074482D01*
X78988072Y-123950000D01*
X78988072Y-122250000D01*
X78975812Y-122125518D01*
X78939502Y-122005820D01*
X78880537Y-121895506D01*
X78801185Y-121798815D01*
X78704494Y-121719463D01*
X78594180Y-121660498D01*
X78474482Y-121624188D01*
X78350000Y-121611928D01*
X76650000Y-121611928D01*
X76525518Y-121624188D01*
X76405820Y-121660498D01*
X76295506Y-121719463D01*
X76198815Y-121798815D01*
X76119463Y-121895506D01*
X76060498Y-122005820D01*
X76038487Y-122078380D01*
X75906632Y-121946525D01*
X75663411Y-121784010D01*
X75393158Y-121672068D01*
X75106260Y-121615000D01*
X74813740Y-121615000D01*
X74526842Y-121672068D01*
X74256589Y-121784010D01*
X74013368Y-121946525D01*
X73806525Y-122153368D01*
X73690000Y-122327760D01*
X73573475Y-122153368D01*
X73366632Y-121946525D01*
X73123411Y-121784010D01*
X72853158Y-121672068D01*
X72566260Y-121615000D01*
X72273740Y-121615000D01*
X71986842Y-121672068D01*
X71716589Y-121784010D01*
X71473368Y-121946525D01*
X71266525Y-122153368D01*
X71104010Y-122396589D01*
X70992068Y-122666842D01*
X70935000Y-122953740D01*
X61160000Y-122953740D01*
X61160000Y-96670000D01*
X63051928Y-96670000D01*
X63051928Y-98370000D01*
X63064188Y-98494482D01*
X63100498Y-98614180D01*
X63159463Y-98724494D01*
X63238815Y-98821185D01*
X63335506Y-98900537D01*
X63445820Y-98959502D01*
X63518380Y-98981513D01*
X63386525Y-99113368D01*
X63224010Y-99356589D01*
X63112068Y-99626842D01*
X63055000Y-99913740D01*
X63055000Y-100206260D01*
X63112068Y-100493158D01*
X63224010Y-100763411D01*
X63386525Y-101006632D01*
X63593368Y-101213475D01*
X63767760Y-101330000D01*
X63593368Y-101446525D01*
X63386525Y-101653368D01*
X63224010Y-101896589D01*
X63112068Y-102166842D01*
X63055000Y-102453740D01*
X63055000Y-102746260D01*
X63112068Y-103033158D01*
X63224010Y-103303411D01*
X63386525Y-103546632D01*
X63593368Y-103753475D01*
X63767760Y-103870000D01*
X63593368Y-103986525D01*
X63386525Y-104193368D01*
X63224010Y-104436589D01*
X63112068Y-104706842D01*
X63055000Y-104993740D01*
X63055000Y-105286260D01*
X63112068Y-105573158D01*
X63224010Y-105843411D01*
X63386525Y-106086632D01*
X63593368Y-106293475D01*
X63767760Y-106410000D01*
X63593368Y-106526525D01*
X63386525Y-106733368D01*
X63224010Y-106976589D01*
X63112068Y-107246842D01*
X63055000Y-107533740D01*
X63055000Y-107826260D01*
X63112068Y-108113158D01*
X63224010Y-108383411D01*
X63386525Y-108626632D01*
X63593368Y-108833475D01*
X63767760Y-108950000D01*
X63593368Y-109066525D01*
X63386525Y-109273368D01*
X63224010Y-109516589D01*
X63112068Y-109786842D01*
X63055000Y-110073740D01*
X63055000Y-110366260D01*
X63112068Y-110653158D01*
X63224010Y-110923411D01*
X63386525Y-111166632D01*
X63593368Y-111373475D01*
X63767760Y-111490000D01*
X63593368Y-111606525D01*
X63386525Y-111813368D01*
X63224010Y-112056589D01*
X63112068Y-112326842D01*
X63055000Y-112613740D01*
X63055000Y-112906260D01*
X63112068Y-113193158D01*
X63224010Y-113463411D01*
X63386525Y-113706632D01*
X63593368Y-113913475D01*
X63767760Y-114030000D01*
X63593368Y-114146525D01*
X63386525Y-114353368D01*
X63224010Y-114596589D01*
X63112068Y-114866842D01*
X63055000Y-115153740D01*
X63055000Y-115446260D01*
X63112068Y-115733158D01*
X63224010Y-116003411D01*
X63386525Y-116246632D01*
X63593368Y-116453475D01*
X63767760Y-116570000D01*
X63593368Y-116686525D01*
X63386525Y-116893368D01*
X63224010Y-117136589D01*
X63112068Y-117406842D01*
X63055000Y-117693740D01*
X63055000Y-117986260D01*
X63112068Y-118273158D01*
X63224010Y-118543411D01*
X63386525Y-118786632D01*
X63593368Y-118993475D01*
X63767760Y-119110000D01*
X63593368Y-119226525D01*
X63386525Y-119433368D01*
X63224010Y-119676589D01*
X63112068Y-119946842D01*
X63055000Y-120233740D01*
X63055000Y-120526260D01*
X63112068Y-120813158D01*
X63224010Y-121083411D01*
X63386525Y-121326632D01*
X63593368Y-121533475D01*
X63836589Y-121695990D01*
X64106842Y-121807932D01*
X64393740Y-121865000D01*
X64686260Y-121865000D01*
X64973158Y-121807932D01*
X65243411Y-121695990D01*
X65486632Y-121533475D01*
X65693475Y-121326632D01*
X65810000Y-121152240D01*
X65926525Y-121326632D01*
X66133368Y-121533475D01*
X66376589Y-121695990D01*
X66646842Y-121807932D01*
X66933740Y-121865000D01*
X67226260Y-121865000D01*
X67513158Y-121807932D01*
X67783411Y-121695990D01*
X67915230Y-121607911D01*
X83065000Y-121607911D01*
X83065000Y-121792089D01*
X83100932Y-121972729D01*
X83171414Y-122142889D01*
X83273738Y-122296028D01*
X83403972Y-122426262D01*
X83557111Y-122528586D01*
X83727271Y-122599068D01*
X83907911Y-122635000D01*
X84092089Y-122635000D01*
X84272729Y-122599068D01*
X84442889Y-122528586D01*
X84596028Y-122426262D01*
X84726262Y-122296028D01*
X84828586Y-122142889D01*
X84899068Y-121972729D01*
X84935000Y-121792089D01*
X84935000Y-121607911D01*
X84899068Y-121427271D01*
X84828586Y-121257111D01*
X84726262Y-121103972D01*
X84596028Y-120973738D01*
X84442889Y-120871414D01*
X84272729Y-120800932D01*
X84092089Y-120765000D01*
X83907911Y-120765000D01*
X83727271Y-120800932D01*
X83557111Y-120871414D01*
X83403972Y-120973738D01*
X83273738Y-121103972D01*
X83171414Y-121257111D01*
X83100932Y-121427271D01*
X83065000Y-121607911D01*
X67915230Y-121607911D01*
X68026632Y-121533475D01*
X68233475Y-121326632D01*
X68395990Y-121083411D01*
X68507932Y-120813158D01*
X68565000Y-120526260D01*
X68565000Y-120233740D01*
X68539971Y-120107911D01*
X77265000Y-120107911D01*
X77265000Y-120292089D01*
X77300932Y-120472729D01*
X77371414Y-120642889D01*
X77473738Y-120796028D01*
X77603972Y-120926262D01*
X77757111Y-121028586D01*
X77927271Y-121099068D01*
X78107911Y-121135000D01*
X78292089Y-121135000D01*
X78472729Y-121099068D01*
X78642889Y-121028586D01*
X78796028Y-120926262D01*
X78926262Y-120796028D01*
X79028586Y-120642889D01*
X79099068Y-120472729D01*
X79135000Y-120292089D01*
X79135000Y-120107911D01*
X79099068Y-119927271D01*
X79028586Y-119757111D01*
X78926262Y-119603972D01*
X78796028Y-119473738D01*
X78642889Y-119371414D01*
X78472729Y-119300932D01*
X78292089Y-119265000D01*
X78107911Y-119265000D01*
X77927271Y-119300932D01*
X77757111Y-119371414D01*
X77603972Y-119473738D01*
X77473738Y-119603972D01*
X77371414Y-119757111D01*
X77300932Y-119927271D01*
X77265000Y-120107911D01*
X68539971Y-120107911D01*
X68507932Y-119946842D01*
X68395990Y-119676589D01*
X68233475Y-119433368D01*
X68026632Y-119226525D01*
X67852240Y-119110000D01*
X68026632Y-118993475D01*
X68233475Y-118786632D01*
X68395990Y-118543411D01*
X68507932Y-118273158D01*
X68565000Y-117986260D01*
X68565000Y-117693740D01*
X68508145Y-117407911D01*
X68765000Y-117407911D01*
X68765000Y-117592089D01*
X68800932Y-117772729D01*
X68871414Y-117942889D01*
X68973738Y-118096028D01*
X69103972Y-118226262D01*
X69257111Y-118328586D01*
X69427271Y-118399068D01*
X69607911Y-118435000D01*
X69792089Y-118435000D01*
X69972729Y-118399068D01*
X70142889Y-118328586D01*
X70296028Y-118226262D01*
X70365000Y-118157290D01*
X70365000Y-118292089D01*
X70400932Y-118472729D01*
X70471414Y-118642889D01*
X70573738Y-118796028D01*
X70703972Y-118926262D01*
X70857111Y-119028586D01*
X71027271Y-119099068D01*
X71207911Y-119135000D01*
X71392089Y-119135000D01*
X71572729Y-119099068D01*
X71742889Y-119028586D01*
X71896028Y-118926262D01*
X72026262Y-118796028D01*
X72128586Y-118642889D01*
X72199068Y-118472729D01*
X72235000Y-118292089D01*
X72235000Y-118107911D01*
X72199068Y-117927271D01*
X72128586Y-117757111D01*
X72026262Y-117603972D01*
X71896028Y-117473738D01*
X71742889Y-117371414D01*
X71572729Y-117300932D01*
X71392089Y-117265000D01*
X71207911Y-117265000D01*
X71027271Y-117300932D01*
X70857111Y-117371414D01*
X70703972Y-117473738D01*
X70635000Y-117542710D01*
X70635000Y-117407911D01*
X70599068Y-117227271D01*
X70528586Y-117057111D01*
X70426262Y-116903972D01*
X70296028Y-116773738D01*
X70197511Y-116707911D01*
X83665000Y-116707911D01*
X83665000Y-116892089D01*
X83700932Y-117072729D01*
X83771414Y-117242889D01*
X83873738Y-117396028D01*
X84003972Y-117526262D01*
X84157111Y-117628586D01*
X84327271Y-117699068D01*
X84507911Y-117735000D01*
X84692089Y-117735000D01*
X84872729Y-117699068D01*
X85042889Y-117628586D01*
X85196028Y-117526262D01*
X85326262Y-117396028D01*
X85428586Y-117242889D01*
X85499068Y-117072729D01*
X85535000Y-116892089D01*
X85535000Y-116707911D01*
X85499068Y-116527271D01*
X85428586Y-116357111D01*
X85326262Y-116203972D01*
X85196028Y-116073738D01*
X85042889Y-115971414D01*
X84872729Y-115900932D01*
X84692089Y-115865000D01*
X84507911Y-115865000D01*
X84327271Y-115900932D01*
X84157111Y-115971414D01*
X84003972Y-116073738D01*
X83873738Y-116203972D01*
X83771414Y-116357111D01*
X83700932Y-116527271D01*
X83665000Y-116707911D01*
X70197511Y-116707911D01*
X70142889Y-116671414D01*
X69972729Y-116600932D01*
X69792089Y-116565000D01*
X69607911Y-116565000D01*
X69427271Y-116600932D01*
X69257111Y-116671414D01*
X69103972Y-116773738D01*
X68973738Y-116903972D01*
X68871414Y-117057111D01*
X68800932Y-117227271D01*
X68765000Y-117407911D01*
X68508145Y-117407911D01*
X68507932Y-117406842D01*
X68395990Y-117136589D01*
X68233475Y-116893368D01*
X68026632Y-116686525D01*
X67852240Y-116570000D01*
X68026632Y-116453475D01*
X68233475Y-116246632D01*
X68395990Y-116003411D01*
X68507932Y-115733158D01*
X68565000Y-115446260D01*
X68565000Y-115153740D01*
X68516102Y-114907911D01*
X73364980Y-114907911D01*
X73364980Y-115092089D01*
X73400912Y-115272729D01*
X73471394Y-115442889D01*
X73573718Y-115596028D01*
X73703952Y-115726262D01*
X73857091Y-115828586D01*
X74027251Y-115899068D01*
X74207891Y-115935000D01*
X74392069Y-115935000D01*
X74572709Y-115899068D01*
X74742869Y-115828586D01*
X74896008Y-115726262D01*
X75026242Y-115596028D01*
X75128566Y-115442889D01*
X75199048Y-115272729D01*
X75226444Y-115135000D01*
X75292089Y-115135000D01*
X75472729Y-115099068D01*
X75642889Y-115028586D01*
X75796028Y-114926262D01*
X75926262Y-114796028D01*
X76028586Y-114642889D01*
X76099068Y-114472729D01*
X76135000Y-114292089D01*
X76135000Y-114235000D01*
X76192089Y-114235000D01*
X76372729Y-114199068D01*
X76542889Y-114128586D01*
X76696028Y-114026262D01*
X76826262Y-113896028D01*
X76928586Y-113742889D01*
X76999068Y-113572729D01*
X77035000Y-113392089D01*
X77035000Y-113335012D01*
X77092089Y-113335012D01*
X77272729Y-113299080D01*
X77442889Y-113228598D01*
X77596028Y-113126274D01*
X77726262Y-112996040D01*
X77828586Y-112842901D01*
X77899068Y-112672741D01*
X77926467Y-112535000D01*
X78092089Y-112535000D01*
X78272729Y-112499068D01*
X78442889Y-112428586D01*
X78596028Y-112326262D01*
X78726262Y-112196028D01*
X78828586Y-112042889D01*
X78899068Y-111872729D01*
X78935000Y-111692089D01*
X78935000Y-111507911D01*
X78899068Y-111327271D01*
X78828586Y-111157111D01*
X78726262Y-111003972D01*
X78596028Y-110873738D01*
X78442889Y-110771414D01*
X78272729Y-110700932D01*
X78092089Y-110665000D01*
X77907911Y-110665000D01*
X77727271Y-110700932D01*
X77557111Y-110771414D01*
X77403972Y-110873738D01*
X77273738Y-111003972D01*
X77171414Y-111157111D01*
X77100932Y-111327271D01*
X77073533Y-111465012D01*
X76907911Y-111465012D01*
X76727271Y-111500944D01*
X76557111Y-111571426D01*
X76403972Y-111673750D01*
X76273738Y-111803984D01*
X76171414Y-111957123D01*
X76100932Y-112127283D01*
X76065000Y-112307923D01*
X76065000Y-112365000D01*
X76007911Y-112365000D01*
X75827271Y-112400932D01*
X75657111Y-112471414D01*
X75503972Y-112573738D01*
X75373738Y-112703972D01*
X75271414Y-112857111D01*
X75200932Y-113027271D01*
X75165000Y-113207911D01*
X75165000Y-113265000D01*
X75107911Y-113265000D01*
X74927271Y-113300932D01*
X74757111Y-113371414D01*
X74603972Y-113473738D01*
X74473738Y-113603972D01*
X74371414Y-113757111D01*
X74300932Y-113927271D01*
X74273536Y-114065000D01*
X74207891Y-114065000D01*
X74027251Y-114100932D01*
X73857091Y-114171414D01*
X73703952Y-114273738D01*
X73573718Y-114403972D01*
X73471394Y-114557111D01*
X73400912Y-114727271D01*
X73364980Y-114907911D01*
X68516102Y-114907911D01*
X68507932Y-114866842D01*
X68395990Y-114596589D01*
X68233475Y-114353368D01*
X68026632Y-114146525D01*
X67852240Y-114030000D01*
X68026632Y-113913475D01*
X68233475Y-113706632D01*
X68395990Y-113463411D01*
X68507932Y-113193158D01*
X68565000Y-112906260D01*
X68565000Y-112613740D01*
X68507932Y-112326842D01*
X68395990Y-112056589D01*
X68233475Y-111813368D01*
X68026632Y-111606525D01*
X67852240Y-111490000D01*
X68026632Y-111373475D01*
X68233475Y-111166632D01*
X68395990Y-110923411D01*
X68507932Y-110653158D01*
X68565000Y-110366260D01*
X68565000Y-110073740D01*
X68507932Y-109786842D01*
X68395990Y-109516589D01*
X68233475Y-109273368D01*
X68026632Y-109066525D01*
X67852240Y-108950000D01*
X68026632Y-108833475D01*
X68233475Y-108626632D01*
X68395990Y-108383411D01*
X68507932Y-108113158D01*
X68528868Y-108007903D01*
X82165000Y-108007903D01*
X82165000Y-108192081D01*
X82200932Y-108372721D01*
X82271414Y-108542881D01*
X82373738Y-108696020D01*
X82503972Y-108826254D01*
X82657111Y-108928578D01*
X82827271Y-108999060D01*
X83007911Y-109034992D01*
X83179503Y-109034992D01*
X83165000Y-109107903D01*
X83165000Y-109292081D01*
X83200932Y-109472721D01*
X83271414Y-109642881D01*
X83373738Y-109796020D01*
X83503972Y-109926254D01*
X83657111Y-110028578D01*
X83827271Y-110099060D01*
X84007911Y-110134992D01*
X84192089Y-110134992D01*
X84372729Y-110099060D01*
X84542889Y-110028578D01*
X84696028Y-109926254D01*
X84826262Y-109796020D01*
X84849997Y-109760498D01*
X84873738Y-109796028D01*
X85003972Y-109926262D01*
X85157111Y-110028586D01*
X85327271Y-110099068D01*
X85507911Y-110135000D01*
X85692089Y-110135000D01*
X85872729Y-110099068D01*
X86042889Y-110028586D01*
X86196028Y-109926262D01*
X86326262Y-109796028D01*
X86428586Y-109642889D01*
X86499068Y-109472729D01*
X86535000Y-109292089D01*
X86535000Y-109107911D01*
X86535000Y-109107907D01*
X88064978Y-109107907D01*
X88064978Y-109292085D01*
X88100910Y-109472725D01*
X88171392Y-109642885D01*
X88273716Y-109796024D01*
X88403950Y-109926258D01*
X88557089Y-110028582D01*
X88727249Y-110099064D01*
X88907889Y-110134996D01*
X89092067Y-110134996D01*
X89272707Y-110099064D01*
X89442867Y-110028582D01*
X89596006Y-109926258D01*
X89726240Y-109796024D01*
X89823941Y-109649804D01*
X89835821Y-109678486D01*
X89938145Y-109831625D01*
X90068379Y-109961859D01*
X90221518Y-110064183D01*
X90391678Y-110134665D01*
X90572318Y-110170597D01*
X90756496Y-110170597D01*
X90937136Y-110134665D01*
X91107296Y-110064183D01*
X91260435Y-109961859D01*
X91390669Y-109831625D01*
X91492993Y-109678486D01*
X91563475Y-109508326D01*
X91599407Y-109327686D01*
X91599407Y-109143508D01*
X91574560Y-109018595D01*
X91672729Y-108999068D01*
X91842889Y-108928586D01*
X91996028Y-108826262D01*
X92126262Y-108696028D01*
X92228586Y-108542889D01*
X92243074Y-108507911D01*
X94039990Y-108507911D01*
X94039990Y-108692089D01*
X94075922Y-108872729D01*
X94146404Y-109042889D01*
X94248728Y-109196028D01*
X94378962Y-109326262D01*
X94532101Y-109428586D01*
X94702261Y-109499068D01*
X94882901Y-109535000D01*
X95067079Y-109535000D01*
X95247719Y-109499068D01*
X95417879Y-109428586D01*
X95571018Y-109326262D01*
X95701252Y-109196028D01*
X95803576Y-109042889D01*
X95874058Y-108872729D01*
X95909990Y-108692089D01*
X95909990Y-108507911D01*
X95907798Y-108496890D01*
X97758524Y-108496890D01*
X97803175Y-108644099D01*
X97928359Y-108906920D01*
X98102412Y-109140269D01*
X98318645Y-109335178D01*
X98568748Y-109484157D01*
X98843109Y-109581481D01*
X99073000Y-109460814D01*
X99073000Y-108267000D01*
X99327000Y-108267000D01*
X99327000Y-109460814D01*
X99556891Y-109581481D01*
X99831252Y-109484157D01*
X100081355Y-109335178D01*
X100297588Y-109140269D01*
X100471641Y-108906920D01*
X100596825Y-108644099D01*
X100641476Y-108496890D01*
X100520155Y-108267000D01*
X99327000Y-108267000D01*
X99073000Y-108267000D01*
X97879845Y-108267000D01*
X97758524Y-108496890D01*
X95907798Y-108496890D01*
X95874058Y-108327271D01*
X95803576Y-108157111D01*
X95701252Y-108003972D01*
X95571018Y-107873738D01*
X95417879Y-107771414D01*
X95247719Y-107700932D01*
X95067079Y-107665000D01*
X94882901Y-107665000D01*
X94702261Y-107700932D01*
X94532101Y-107771414D01*
X94378962Y-107873738D01*
X94248728Y-108003972D01*
X94146404Y-108157111D01*
X94075922Y-108327271D01*
X94039990Y-108507911D01*
X92243074Y-108507911D01*
X92299068Y-108372729D01*
X92335000Y-108192089D01*
X92335000Y-108007911D01*
X92299068Y-107827271D01*
X92228586Y-107657111D01*
X92126262Y-107503972D01*
X91996028Y-107373738D01*
X91842889Y-107271414D01*
X91672729Y-107200932D01*
X91492089Y-107165000D01*
X91307911Y-107165000D01*
X91127271Y-107200932D01*
X90957111Y-107271414D01*
X90803972Y-107373738D01*
X90673738Y-107503972D01*
X90600000Y-107614329D01*
X90526262Y-107503972D01*
X90396028Y-107373738D01*
X90242889Y-107271414D01*
X90072729Y-107200932D01*
X89892089Y-107165000D01*
X89707911Y-107165000D01*
X89527271Y-107200932D01*
X89357111Y-107271414D01*
X89203972Y-107373738D01*
X89073738Y-107503972D01*
X88971414Y-107657111D01*
X88900932Y-107827271D01*
X88865000Y-108007911D01*
X88865000Y-108192089D01*
X88880583Y-108270428D01*
X88727249Y-108300928D01*
X88557089Y-108371410D01*
X88403950Y-108473734D01*
X88273716Y-108603968D01*
X88171392Y-108757107D01*
X88100910Y-108927267D01*
X88064978Y-109107907D01*
X86535000Y-109107907D01*
X86512099Y-108992784D01*
X86527271Y-108999068D01*
X86707911Y-109035000D01*
X86892089Y-109035000D01*
X87072729Y-108999068D01*
X87242889Y-108928586D01*
X87396028Y-108826262D01*
X87526262Y-108696028D01*
X87628586Y-108542889D01*
X87699068Y-108372729D01*
X87735000Y-108192089D01*
X87735000Y-108007911D01*
X87699068Y-107827271D01*
X87628586Y-107657111D01*
X87526262Y-107503972D01*
X87396028Y-107373738D01*
X87242889Y-107271414D01*
X87072729Y-107200932D01*
X86892089Y-107165000D01*
X86707911Y-107165000D01*
X86527271Y-107200932D01*
X86357111Y-107271414D01*
X86203972Y-107373738D01*
X86073738Y-107503972D01*
X85971414Y-107657111D01*
X85900932Y-107827271D01*
X85865000Y-108007911D01*
X85865000Y-108192089D01*
X85887901Y-108307216D01*
X85872729Y-108300932D01*
X85815604Y-108289569D01*
X85834994Y-108192089D01*
X85834994Y-108007911D01*
X85799062Y-107827271D01*
X85728580Y-107657111D01*
X85626256Y-107503972D01*
X85496022Y-107373738D01*
X85342883Y-107271414D01*
X85172723Y-107200932D01*
X84992083Y-107165000D01*
X84807905Y-107165000D01*
X84627265Y-107200932D01*
X84457105Y-107271414D01*
X84303966Y-107373738D01*
X84173732Y-107503972D01*
X84071408Y-107657111D01*
X84000926Y-107827271D01*
X83999998Y-107831937D01*
X83999068Y-107827263D01*
X83928586Y-107657103D01*
X83826262Y-107503964D01*
X83696028Y-107373730D01*
X83542889Y-107271406D01*
X83372729Y-107200924D01*
X83192089Y-107164992D01*
X83007911Y-107164992D01*
X82827271Y-107200924D01*
X82657111Y-107271406D01*
X82503972Y-107373730D01*
X82373738Y-107503964D01*
X82271414Y-107657103D01*
X82200932Y-107827263D01*
X82165000Y-108007903D01*
X68528868Y-108007903D01*
X68565000Y-107826260D01*
X68565000Y-107533740D01*
X68507932Y-107246842D01*
X68395990Y-106976589D01*
X68233475Y-106733368D01*
X68108018Y-106607911D01*
X70365000Y-106607911D01*
X70365000Y-106792089D01*
X70400932Y-106972729D01*
X70471414Y-107142889D01*
X70573738Y-107296028D01*
X70703972Y-107426262D01*
X70857111Y-107528586D01*
X71027271Y-107599068D01*
X71207911Y-107635000D01*
X71392089Y-107635000D01*
X71572729Y-107599068D01*
X71742889Y-107528586D01*
X71896028Y-107426262D01*
X72026262Y-107296028D01*
X72128586Y-107142889D01*
X72199068Y-106972729D01*
X72235000Y-106792089D01*
X72235000Y-106607911D01*
X72199068Y-106427271D01*
X72191049Y-106407911D01*
X80064998Y-106407911D01*
X80064998Y-106592089D01*
X80100930Y-106772729D01*
X80171412Y-106942889D01*
X80273736Y-107096028D01*
X80403970Y-107226262D01*
X80557109Y-107328586D01*
X80727269Y-107399068D01*
X80907909Y-107435000D01*
X81092087Y-107435000D01*
X81272727Y-107399068D01*
X81442887Y-107328586D01*
X81596026Y-107226262D01*
X81726260Y-107096028D01*
X81828584Y-106942889D01*
X81899066Y-106772729D01*
X81934998Y-106592089D01*
X81934998Y-106407911D01*
X81899066Y-106227271D01*
X81828584Y-106057111D01*
X81726260Y-105903972D01*
X81596026Y-105773738D01*
X81442887Y-105671414D01*
X81272727Y-105600932D01*
X81092087Y-105565000D01*
X80907909Y-105565000D01*
X80727269Y-105600932D01*
X80557109Y-105671414D01*
X80403970Y-105773738D01*
X80273736Y-105903972D01*
X80171412Y-106057111D01*
X80100930Y-106227271D01*
X80064998Y-106407911D01*
X72191049Y-106407911D01*
X72128586Y-106257111D01*
X72026262Y-106103972D01*
X71896028Y-105973738D01*
X71742889Y-105871414D01*
X71572729Y-105800932D01*
X71392089Y-105765000D01*
X71207911Y-105765000D01*
X71027271Y-105800932D01*
X70857111Y-105871414D01*
X70703972Y-105973738D01*
X70573738Y-106103972D01*
X70471414Y-106257111D01*
X70400932Y-106427271D01*
X70365000Y-106607911D01*
X68108018Y-106607911D01*
X68026632Y-106526525D01*
X67852240Y-106410000D01*
X68026632Y-106293475D01*
X68233475Y-106086632D01*
X68395990Y-105843411D01*
X68507932Y-105573158D01*
X68565000Y-105286260D01*
X68565000Y-105007911D01*
X91064994Y-105007911D01*
X91064994Y-105192089D01*
X91100926Y-105372729D01*
X91171408Y-105542889D01*
X91273732Y-105696028D01*
X91403966Y-105826262D01*
X91557105Y-105928586D01*
X91727265Y-105999068D01*
X91907905Y-106035000D01*
X92092083Y-106035000D01*
X92272723Y-105999068D01*
X92442883Y-105928586D01*
X92596022Y-105826262D01*
X92726256Y-105696028D01*
X92828580Y-105542889D01*
X92899062Y-105372729D01*
X92934994Y-105192089D01*
X92934994Y-105007911D01*
X92899062Y-104827271D01*
X92867056Y-104750000D01*
X97711928Y-104750000D01*
X97711928Y-106450000D01*
X97724188Y-106574482D01*
X97760498Y-106694180D01*
X97819463Y-106804494D01*
X97898815Y-106901185D01*
X97995506Y-106980537D01*
X98105820Y-107039502D01*
X98186466Y-107063966D01*
X98102412Y-107139731D01*
X97928359Y-107373080D01*
X97803175Y-107635901D01*
X97758524Y-107783110D01*
X97879845Y-108013000D01*
X99073000Y-108013000D01*
X99073000Y-107993000D01*
X99327000Y-107993000D01*
X99327000Y-108013000D01*
X100520155Y-108013000D01*
X100641476Y-107783110D01*
X100596825Y-107635901D01*
X100471641Y-107373080D01*
X100297588Y-107139731D01*
X100213534Y-107063966D01*
X100294180Y-107039502D01*
X100404494Y-106980537D01*
X100501185Y-106901185D01*
X100580537Y-106804494D01*
X100639502Y-106694180D01*
X100675812Y-106574482D01*
X100688072Y-106450000D01*
X100688072Y-104750000D01*
X100675812Y-104625518D01*
X100639502Y-104505820D01*
X100580537Y-104395506D01*
X100501185Y-104298815D01*
X100404494Y-104219463D01*
X100294180Y-104160498D01*
X100174482Y-104124188D01*
X100050000Y-104111928D01*
X98350000Y-104111928D01*
X98225518Y-104124188D01*
X98105820Y-104160498D01*
X97995506Y-104219463D01*
X97898815Y-104298815D01*
X97819463Y-104395506D01*
X97760498Y-104505820D01*
X97724188Y-104625518D01*
X97711928Y-104750000D01*
X92867056Y-104750000D01*
X92828580Y-104657111D01*
X92726256Y-104503972D01*
X92596022Y-104373738D01*
X92442883Y-104271414D01*
X92272723Y-104200932D01*
X92092083Y-104165000D01*
X91907905Y-104165000D01*
X91727265Y-104200932D01*
X91557105Y-104271414D01*
X91403966Y-104373738D01*
X91273732Y-104503972D01*
X91171408Y-104657111D01*
X91100926Y-104827271D01*
X91064994Y-105007911D01*
X68565000Y-105007911D01*
X68565000Y-104993740D01*
X68507932Y-104706842D01*
X68395990Y-104436589D01*
X68233475Y-104193368D01*
X68026632Y-103986525D01*
X67852240Y-103870000D01*
X68026632Y-103753475D01*
X68233475Y-103546632D01*
X68395990Y-103303411D01*
X68507932Y-103033158D01*
X68529474Y-102924858D01*
X80798049Y-102924858D01*
X80798049Y-103109036D01*
X80833981Y-103289676D01*
X80904463Y-103459836D01*
X81006787Y-103612975D01*
X81137021Y-103743209D01*
X81290160Y-103845533D01*
X81460320Y-103916015D01*
X81640960Y-103951947D01*
X81825138Y-103951947D01*
X82005778Y-103916015D01*
X82175938Y-103845533D01*
X82329077Y-103743209D01*
X82459311Y-103612975D01*
X82561635Y-103459836D01*
X82632117Y-103289676D01*
X82668049Y-103109036D01*
X82668049Y-102924858D01*
X82632117Y-102744218D01*
X82561635Y-102574058D01*
X82459311Y-102420919D01*
X82329077Y-102290685D01*
X82175938Y-102188361D01*
X82005778Y-102117879D01*
X81825138Y-102081947D01*
X81640960Y-102081947D01*
X81460320Y-102117879D01*
X81290160Y-102188361D01*
X81137021Y-102290685D01*
X81006787Y-102420919D01*
X80904463Y-102574058D01*
X80833981Y-102744218D01*
X80798049Y-102924858D01*
X68529474Y-102924858D01*
X68565000Y-102746260D01*
X68565000Y-102453740D01*
X68507932Y-102166842D01*
X68395990Y-101896589D01*
X68233475Y-101653368D01*
X68026632Y-101446525D01*
X67844466Y-101324805D01*
X67961355Y-101255178D01*
X68013793Y-101207911D01*
X68765000Y-101207911D01*
X68765000Y-101392089D01*
X68800932Y-101572729D01*
X68871414Y-101742889D01*
X68973738Y-101896028D01*
X69103972Y-102026262D01*
X69257111Y-102128586D01*
X69427271Y-102199068D01*
X69607911Y-102235000D01*
X69792089Y-102235000D01*
X69972729Y-102199068D01*
X70142889Y-102128586D01*
X70296028Y-102026262D01*
X70426262Y-101896028D01*
X70528586Y-101742889D01*
X70584495Y-101607911D01*
X77864992Y-101607911D01*
X77864992Y-101792089D01*
X77900924Y-101972729D01*
X77971406Y-102142889D01*
X78073730Y-102296028D01*
X78203964Y-102426262D01*
X78357103Y-102528586D01*
X78527263Y-102599068D01*
X78707903Y-102635000D01*
X78892081Y-102635000D01*
X79072721Y-102599068D01*
X79242881Y-102528586D01*
X79396020Y-102426262D01*
X79526254Y-102296028D01*
X79628578Y-102142889D01*
X79699060Y-101972729D01*
X79734992Y-101792089D01*
X79734992Y-101607911D01*
X79699060Y-101427271D01*
X79628578Y-101257111D01*
X79623842Y-101250022D01*
X79628608Y-101242889D01*
X79699090Y-101072729D01*
X79735022Y-100892089D01*
X79735022Y-100707911D01*
X79699090Y-100527271D01*
X79628608Y-100357111D01*
X79623846Y-100349984D01*
X79628586Y-100342889D01*
X79684492Y-100207917D01*
X89365000Y-100207917D01*
X89365000Y-100392095D01*
X89400932Y-100572735D01*
X89471414Y-100742895D01*
X89573738Y-100896034D01*
X89703972Y-101026268D01*
X89857111Y-101128592D01*
X90027271Y-101199074D01*
X90194436Y-101232326D01*
X90194436Y-101371553D01*
X90230368Y-101552193D01*
X90300850Y-101722353D01*
X90403174Y-101875492D01*
X90533408Y-102005726D01*
X90686547Y-102108050D01*
X90856707Y-102178532D01*
X91037347Y-102214464D01*
X91221525Y-102214464D01*
X91402165Y-102178532D01*
X91572325Y-102108050D01*
X91725464Y-102005726D01*
X91855698Y-101875492D01*
X91958022Y-101722353D01*
X92028504Y-101552193D01*
X92064436Y-101371553D01*
X92064436Y-101307911D01*
X94065000Y-101307911D01*
X94065000Y-101492089D01*
X94100932Y-101672729D01*
X94171414Y-101842889D01*
X94273738Y-101996028D01*
X94403972Y-102126262D01*
X94557111Y-102228586D01*
X94727271Y-102299068D01*
X94907911Y-102335000D01*
X95092089Y-102335000D01*
X95272729Y-102299068D01*
X95442889Y-102228586D01*
X95596028Y-102126262D01*
X95726262Y-101996028D01*
X95828586Y-101842889D01*
X95899068Y-101672729D01*
X95935000Y-101492089D01*
X95935000Y-101307911D01*
X95899068Y-101127271D01*
X95828586Y-100957111D01*
X95726262Y-100803972D01*
X95596028Y-100673738D01*
X95442889Y-100571414D01*
X95272729Y-100500932D01*
X95092089Y-100465000D01*
X94907911Y-100465000D01*
X94727271Y-100500932D01*
X94557111Y-100571414D01*
X94403972Y-100673738D01*
X94273738Y-100803972D01*
X94171414Y-100957111D01*
X94100932Y-101127271D01*
X94065000Y-101307911D01*
X92064436Y-101307911D01*
X92064436Y-101187375D01*
X92028504Y-101006735D01*
X91958022Y-100836575D01*
X91855698Y-100683436D01*
X91725464Y-100553202D01*
X91572325Y-100450878D01*
X91402165Y-100380396D01*
X91235000Y-100347144D01*
X91235000Y-100207917D01*
X91199068Y-100027277D01*
X91128586Y-99857117D01*
X91026262Y-99703978D01*
X90896028Y-99573744D01*
X90742889Y-99471420D01*
X90572729Y-99400938D01*
X90392089Y-99365006D01*
X90207911Y-99365006D01*
X90027271Y-99400938D01*
X89857111Y-99471420D01*
X89703972Y-99573744D01*
X89573738Y-99703978D01*
X89471414Y-99857117D01*
X89400932Y-100027277D01*
X89365000Y-100207917D01*
X79684492Y-100207917D01*
X79699068Y-100172729D01*
X79735000Y-99992089D01*
X79735000Y-99807911D01*
X79699068Y-99627271D01*
X79628586Y-99457111D01*
X79623838Y-99450004D01*
X79628592Y-99442889D01*
X79699074Y-99272729D01*
X79735006Y-99092089D01*
X79735006Y-98907911D01*
X79699074Y-98727271D01*
X79628592Y-98557111D01*
X79537654Y-98421013D01*
X79607911Y-98434988D01*
X79792089Y-98434988D01*
X79972729Y-98399056D01*
X80142889Y-98328574D01*
X80296028Y-98226250D01*
X80426262Y-98096016D01*
X80528586Y-97942877D01*
X80599068Y-97772717D01*
X80635000Y-97592077D01*
X80635000Y-97538696D01*
X82718114Y-97538696D01*
X82718114Y-97722874D01*
X82754046Y-97903514D01*
X82824528Y-98073674D01*
X82926852Y-98226813D01*
X83057086Y-98357047D01*
X83173503Y-98434834D01*
X83200932Y-98572729D01*
X83271414Y-98742889D01*
X83373738Y-98896028D01*
X83503972Y-99026262D01*
X83657111Y-99128586D01*
X83827271Y-99199068D01*
X84007911Y-99235000D01*
X84192089Y-99235000D01*
X84372729Y-99199068D01*
X84542889Y-99128586D01*
X84696028Y-99026262D01*
X84826262Y-98896028D01*
X84928586Y-98742889D01*
X84999068Y-98572729D01*
X85035000Y-98392089D01*
X85035000Y-98207911D01*
X84999068Y-98027271D01*
X84928586Y-97857111D01*
X84826262Y-97703972D01*
X84696028Y-97573738D01*
X84579611Y-97495951D01*
X84552182Y-97358056D01*
X84481700Y-97187896D01*
X84379376Y-97034757D01*
X84249142Y-96904523D01*
X84096003Y-96802199D01*
X83925843Y-96731717D01*
X83745203Y-96695785D01*
X83561025Y-96695785D01*
X83380385Y-96731717D01*
X83210225Y-96802199D01*
X83057086Y-96904523D01*
X82926852Y-97034757D01*
X82824528Y-97187896D01*
X82754046Y-97358056D01*
X82718114Y-97538696D01*
X80635000Y-97538696D01*
X80635000Y-97407899D01*
X80599068Y-97227259D01*
X80528586Y-97057099D01*
X80426262Y-96903960D01*
X80296028Y-96773726D01*
X80142889Y-96671402D01*
X79972729Y-96600920D01*
X79792089Y-96564988D01*
X79607911Y-96564988D01*
X79427271Y-96600920D01*
X79257111Y-96671402D01*
X79103972Y-96773726D01*
X78973738Y-96903960D01*
X78871414Y-97057099D01*
X78800932Y-97227259D01*
X78765000Y-97407899D01*
X78765000Y-97592077D01*
X78800932Y-97772717D01*
X78871414Y-97942877D01*
X78962352Y-98078975D01*
X78892095Y-98065000D01*
X78707917Y-98065000D01*
X78527277Y-98100932D01*
X78357117Y-98171414D01*
X78203978Y-98273738D01*
X78073744Y-98403972D01*
X77971420Y-98557111D01*
X77900938Y-98727271D01*
X77865006Y-98907911D01*
X77865006Y-99092089D01*
X77900938Y-99272729D01*
X77971420Y-99442889D01*
X77976168Y-99449996D01*
X77971414Y-99457111D01*
X77900932Y-99627271D01*
X77865000Y-99807911D01*
X77865000Y-99992089D01*
X77900932Y-100172729D01*
X77971414Y-100342889D01*
X77976176Y-100350016D01*
X77971436Y-100357111D01*
X77900954Y-100527271D01*
X77865022Y-100707911D01*
X77865022Y-100892089D01*
X77900954Y-101072729D01*
X77971436Y-101242889D01*
X77976172Y-101249978D01*
X77971406Y-101257111D01*
X77900924Y-101427271D01*
X77864992Y-101607911D01*
X70584495Y-101607911D01*
X70599068Y-101572729D01*
X70635000Y-101392089D01*
X70635000Y-101207911D01*
X70599068Y-101027271D01*
X70528586Y-100857111D01*
X70426262Y-100703972D01*
X70296028Y-100573738D01*
X70142889Y-100471414D01*
X69972729Y-100400932D01*
X69792089Y-100365000D01*
X69607911Y-100365000D01*
X69427271Y-100400932D01*
X69257111Y-100471414D01*
X69103972Y-100573738D01*
X68973738Y-100703972D01*
X68871414Y-100857111D01*
X68800932Y-101027271D01*
X68765000Y-101207911D01*
X68013793Y-101207911D01*
X68177588Y-101060269D01*
X68351641Y-100826920D01*
X68476825Y-100564099D01*
X68521476Y-100416890D01*
X68400155Y-100187000D01*
X67207000Y-100187000D01*
X67207000Y-100207000D01*
X66953000Y-100207000D01*
X66953000Y-100187000D01*
X66933000Y-100187000D01*
X66933000Y-99933000D01*
X66953000Y-99933000D01*
X66953000Y-99913000D01*
X67207000Y-99913000D01*
X67207000Y-99933000D01*
X68400155Y-99933000D01*
X68466168Y-99807911D01*
X70364990Y-99807911D01*
X70364990Y-99992089D01*
X70400922Y-100172729D01*
X70471404Y-100342889D01*
X70573728Y-100496028D01*
X70703962Y-100626262D01*
X70857101Y-100728586D01*
X71027261Y-100799068D01*
X71207901Y-100835000D01*
X71392079Y-100835000D01*
X71572719Y-100799068D01*
X71742879Y-100728586D01*
X71896018Y-100626262D01*
X72026252Y-100496028D01*
X72128576Y-100342889D01*
X72199058Y-100172729D01*
X72234990Y-99992089D01*
X72234990Y-99807911D01*
X72199058Y-99627271D01*
X72128576Y-99457111D01*
X72028879Y-99307903D01*
X72865000Y-99307903D01*
X72865000Y-99492081D01*
X72900932Y-99672721D01*
X72971414Y-99842881D01*
X73073738Y-99996020D01*
X73203972Y-100126254D01*
X73357111Y-100228578D01*
X73527271Y-100299060D01*
X73707911Y-100334992D01*
X73892089Y-100334992D01*
X74072729Y-100299060D01*
X74242889Y-100228578D01*
X74349994Y-100157013D01*
X74457111Y-100228586D01*
X74627271Y-100299068D01*
X74807911Y-100335000D01*
X74992089Y-100335000D01*
X75172729Y-100299068D01*
X75342889Y-100228586D01*
X75496028Y-100126262D01*
X75626262Y-99996028D01*
X75728586Y-99842889D01*
X75799068Y-99672729D01*
X75835000Y-99492089D01*
X75835000Y-99307911D01*
X75799068Y-99127271D01*
X75728586Y-98957111D01*
X75626262Y-98803972D01*
X75496028Y-98673738D01*
X75342889Y-98571414D01*
X75172729Y-98500932D01*
X74992089Y-98465000D01*
X74807911Y-98465000D01*
X74627271Y-98500932D01*
X74457111Y-98571414D01*
X74350006Y-98642979D01*
X74242889Y-98571406D01*
X74072729Y-98500924D01*
X73892089Y-98464992D01*
X73707911Y-98464992D01*
X73527271Y-98500924D01*
X73357111Y-98571406D01*
X73203972Y-98673730D01*
X73073738Y-98803964D01*
X72971414Y-98957103D01*
X72900932Y-99127263D01*
X72865000Y-99307903D01*
X72028879Y-99307903D01*
X72026252Y-99303972D01*
X71896018Y-99173738D01*
X71742879Y-99071414D01*
X71572719Y-99000932D01*
X71392079Y-98965000D01*
X71207901Y-98965000D01*
X71027261Y-99000932D01*
X70857101Y-99071414D01*
X70703962Y-99173738D01*
X70573728Y-99303972D01*
X70471404Y-99457111D01*
X70400922Y-99627271D01*
X70364990Y-99807911D01*
X68466168Y-99807911D01*
X68521476Y-99703110D01*
X68476825Y-99555901D01*
X68351641Y-99293080D01*
X68177588Y-99059731D01*
X67961355Y-98864822D01*
X67844466Y-98795195D01*
X68026632Y-98673475D01*
X68233475Y-98466632D01*
X68395990Y-98223411D01*
X68507932Y-97953158D01*
X68565000Y-97666260D01*
X68565000Y-97373740D01*
X68551906Y-97307911D01*
X72765000Y-97307911D01*
X72765000Y-97492089D01*
X72800932Y-97672729D01*
X72871414Y-97842889D01*
X72973738Y-97996028D01*
X73103972Y-98126262D01*
X73257111Y-98228586D01*
X73427271Y-98299068D01*
X73607911Y-98335000D01*
X73792089Y-98335000D01*
X73972729Y-98299068D01*
X74142889Y-98228586D01*
X74296028Y-98126262D01*
X74426262Y-97996028D01*
X74528586Y-97842889D01*
X74599068Y-97672729D01*
X74635000Y-97492089D01*
X74635000Y-97307911D01*
X74599068Y-97127271D01*
X74528586Y-96957111D01*
X74426262Y-96803972D01*
X74296028Y-96673738D01*
X74142889Y-96571414D01*
X73972729Y-96500932D01*
X73792089Y-96465000D01*
X73607911Y-96465000D01*
X73427271Y-96500932D01*
X73257111Y-96571414D01*
X73103972Y-96673738D01*
X72973738Y-96803972D01*
X72871414Y-96957111D01*
X72800932Y-97127271D01*
X72765000Y-97307911D01*
X68551906Y-97307911D01*
X68507932Y-97086842D01*
X68395990Y-96816589D01*
X68233475Y-96573368D01*
X68026632Y-96366525D01*
X67783411Y-96204010D01*
X67513158Y-96092068D01*
X67226260Y-96035000D01*
X66933740Y-96035000D01*
X66646842Y-96092068D01*
X66376589Y-96204010D01*
X66133368Y-96366525D01*
X66001513Y-96498380D01*
X65979502Y-96425820D01*
X65920537Y-96315506D01*
X65841185Y-96218815D01*
X65744494Y-96139463D01*
X65634180Y-96080498D01*
X65514482Y-96044188D01*
X65390000Y-96031928D01*
X63690000Y-96031928D01*
X63565518Y-96044188D01*
X63445820Y-96080498D01*
X63335506Y-96139463D01*
X63238815Y-96218815D01*
X63159463Y-96315506D01*
X63100498Y-96425820D01*
X63064188Y-96545518D01*
X63051928Y-96670000D01*
X61160000Y-96670000D01*
X61160000Y-92998061D01*
X62490000Y-92998061D01*
X62490000Y-93201939D01*
X62529774Y-93401898D01*
X62607795Y-93590256D01*
X62721063Y-93759774D01*
X62865226Y-93903937D01*
X63034744Y-94017205D01*
X63223102Y-94095226D01*
X63423061Y-94135000D01*
X63626939Y-94135000D01*
X63826898Y-94095226D01*
X64015256Y-94017205D01*
X64184774Y-93903937D01*
X64328937Y-93759774D01*
X64442205Y-93590256D01*
X64520226Y-93401898D01*
X64553424Y-93235000D01*
X64671576Y-93235000D01*
X64704774Y-93401898D01*
X64782795Y-93590256D01*
X64896063Y-93759774D01*
X65040226Y-93903937D01*
X65209744Y-94017205D01*
X65398102Y-94095226D01*
X65598061Y-94135000D01*
X65801939Y-94135000D01*
X66001898Y-94095226D01*
X66190256Y-94017205D01*
X66204165Y-94007911D01*
X71365000Y-94007911D01*
X71365000Y-94192089D01*
X71400932Y-94372729D01*
X71471414Y-94542889D01*
X71573738Y-94696028D01*
X71703972Y-94826262D01*
X71857111Y-94928586D01*
X72027271Y-94999068D01*
X72068000Y-95007170D01*
X72100932Y-95172729D01*
X72171414Y-95342889D01*
X72273738Y-95496028D01*
X72403972Y-95626262D01*
X72557111Y-95728586D01*
X72727271Y-95799068D01*
X72907911Y-95835000D01*
X73092089Y-95835000D01*
X73272729Y-95799068D01*
X73442889Y-95728586D01*
X73596028Y-95626262D01*
X73726262Y-95496028D01*
X73750000Y-95460502D01*
X73773738Y-95496028D01*
X73903972Y-95626262D01*
X74057111Y-95728586D01*
X74227271Y-95799068D01*
X74407911Y-95835000D01*
X74592089Y-95835000D01*
X74772729Y-95799068D01*
X74942889Y-95728586D01*
X75096028Y-95626262D01*
X75215175Y-95507115D01*
X75271414Y-95642889D01*
X75342979Y-95749994D01*
X75271414Y-95857099D01*
X75200932Y-96027259D01*
X75165000Y-96207899D01*
X75165000Y-96392077D01*
X75200932Y-96572717D01*
X75271414Y-96742877D01*
X75342987Y-96849993D01*
X75271413Y-96957111D01*
X75200931Y-97127271D01*
X75164999Y-97307911D01*
X75164999Y-97492089D01*
X75200931Y-97672729D01*
X75271413Y-97842889D01*
X75373737Y-97996028D01*
X75503971Y-98126262D01*
X75657110Y-98228586D01*
X75827270Y-98299068D01*
X76007910Y-98335000D01*
X76192088Y-98335000D01*
X76372728Y-98299068D01*
X76542888Y-98228586D01*
X76696027Y-98126262D01*
X76826261Y-97996028D01*
X76928585Y-97842889D01*
X76999067Y-97672729D01*
X77034999Y-97492089D01*
X77034999Y-97307911D01*
X76999067Y-97127271D01*
X76928585Y-96957111D01*
X76857012Y-96849995D01*
X76928586Y-96742877D01*
X76999068Y-96572717D01*
X77035000Y-96392077D01*
X77035000Y-96207899D01*
X76999068Y-96027259D01*
X76928586Y-95857099D01*
X76857021Y-95749994D01*
X76928586Y-95642889D01*
X76999068Y-95472729D01*
X77035000Y-95292089D01*
X77035000Y-95107911D01*
X76999068Y-94927271D01*
X76928586Y-94757111D01*
X76826262Y-94603972D01*
X76696028Y-94473738D01*
X76542889Y-94371414D01*
X76372729Y-94300932D01*
X76192089Y-94265000D01*
X76007911Y-94265000D01*
X75827271Y-94300932D01*
X75657111Y-94371414D01*
X75503972Y-94473738D01*
X75384825Y-94592885D01*
X75328586Y-94457111D01*
X75226262Y-94303972D01*
X75096028Y-94173738D01*
X74942889Y-94071414D01*
X74772729Y-94000932D01*
X74592089Y-93965000D01*
X74407911Y-93965000D01*
X74227271Y-94000932D01*
X74057111Y-94071414D01*
X73903972Y-94173738D01*
X73773738Y-94303972D01*
X73750000Y-94339498D01*
X73726262Y-94303972D01*
X73596028Y-94173738D01*
X73442889Y-94071414D01*
X73272729Y-94000932D01*
X73232000Y-93992830D01*
X73199068Y-93827271D01*
X73128586Y-93657111D01*
X73026262Y-93503972D01*
X72896028Y-93373738D01*
X72742889Y-93271414D01*
X72572729Y-93200932D01*
X72392089Y-93165000D01*
X72207911Y-93165000D01*
X72027271Y-93200932D01*
X71857111Y-93271414D01*
X71703972Y-93373738D01*
X71573738Y-93503972D01*
X71471414Y-93657111D01*
X71400932Y-93827271D01*
X71365000Y-94007911D01*
X66204165Y-94007911D01*
X66359774Y-93903937D01*
X66503937Y-93759774D01*
X66617205Y-93590256D01*
X66695226Y-93401898D01*
X66735000Y-93201939D01*
X66735000Y-93107911D01*
X75139817Y-93107911D01*
X75139817Y-93292089D01*
X75175749Y-93472729D01*
X75246231Y-93642889D01*
X75348555Y-93796028D01*
X75478789Y-93926262D01*
X75631928Y-94028586D01*
X75802088Y-94099068D01*
X75982728Y-94135000D01*
X76166906Y-94135000D01*
X76347546Y-94099068D01*
X76517706Y-94028586D01*
X76670845Y-93926262D01*
X76789196Y-93807911D01*
X82365000Y-93807911D01*
X82365000Y-93992089D01*
X82400932Y-94172729D01*
X82471414Y-94342889D01*
X82573738Y-94496028D01*
X82703972Y-94626262D01*
X82857111Y-94728586D01*
X83027271Y-94799068D01*
X83207911Y-94835000D01*
X83373524Y-94835000D01*
X83400920Y-94972729D01*
X83471402Y-95142889D01*
X83573726Y-95296028D01*
X83703960Y-95426262D01*
X83857099Y-95528586D01*
X83982596Y-95580568D01*
X84000928Y-95672729D01*
X84071410Y-95842889D01*
X84173734Y-95996028D01*
X84303968Y-96126262D01*
X84457107Y-96228586D01*
X84565000Y-96273276D01*
X84565000Y-96292089D01*
X84600932Y-96472729D01*
X84671414Y-96642889D01*
X84773738Y-96796028D01*
X84903972Y-96926262D01*
X85057111Y-97028586D01*
X85165000Y-97073275D01*
X85165000Y-97092089D01*
X85200932Y-97272729D01*
X85271414Y-97442889D01*
X85373738Y-97596028D01*
X85503972Y-97726262D01*
X85657111Y-97828586D01*
X85827271Y-97899068D01*
X86007911Y-97935000D01*
X86192089Y-97935000D01*
X86372729Y-97899068D01*
X86542889Y-97828586D01*
X86696028Y-97726262D01*
X86826262Y-97596028D01*
X86928586Y-97442889D01*
X86999068Y-97272729D01*
X87035000Y-97092089D01*
X87035000Y-96907911D01*
X86999068Y-96727271D01*
X86928586Y-96557111D01*
X86826262Y-96403972D01*
X86696028Y-96273738D01*
X86542889Y-96171414D01*
X86435000Y-96126725D01*
X86435000Y-96107911D01*
X86399068Y-95927271D01*
X86328586Y-95757111D01*
X86226262Y-95603972D01*
X86163774Y-95541484D01*
X89235634Y-95541484D01*
X89235634Y-95725662D01*
X89271566Y-95906302D01*
X89342048Y-96076462D01*
X89383685Y-96138776D01*
X89371414Y-96157141D01*
X89300932Y-96327301D01*
X89265000Y-96507941D01*
X89265000Y-96692119D01*
X89300932Y-96872759D01*
X89371414Y-97042919D01*
X89473738Y-97196058D01*
X89603972Y-97326292D01*
X89757111Y-97428616D01*
X89927271Y-97499098D01*
X90107911Y-97535030D01*
X90292089Y-97535030D01*
X90472729Y-97499098D01*
X90642889Y-97428616D01*
X90796028Y-97326292D01*
X90926262Y-97196058D01*
X91028586Y-97042919D01*
X91099068Y-96872759D01*
X91135000Y-96692119D01*
X91135000Y-96507941D01*
X91099068Y-96327301D01*
X91028586Y-96157141D01*
X90986949Y-96094827D01*
X90999220Y-96076462D01*
X91069702Y-95906302D01*
X91105634Y-95725662D01*
X91105634Y-95541484D01*
X91069702Y-95360844D01*
X90999220Y-95190684D01*
X90896896Y-95037545D01*
X90766662Y-94907311D01*
X90613523Y-94804987D01*
X90443363Y-94734505D01*
X90262723Y-94698573D01*
X90078545Y-94698573D01*
X89897905Y-94734505D01*
X89727745Y-94804987D01*
X89574606Y-94907311D01*
X89444372Y-95037545D01*
X89342048Y-95190684D01*
X89271566Y-95360844D01*
X89235634Y-95541484D01*
X86163774Y-95541484D01*
X86096028Y-95473738D01*
X85942889Y-95371414D01*
X85834996Y-95326724D01*
X85834996Y-95307911D01*
X85799064Y-95127271D01*
X85728582Y-94957111D01*
X85626258Y-94803972D01*
X85505165Y-94682879D01*
X93358476Y-94682879D01*
X93358476Y-94867057D01*
X93394408Y-95047697D01*
X93464890Y-95217857D01*
X93567214Y-95370996D01*
X93697448Y-95501230D01*
X93850587Y-95603554D01*
X93973261Y-95654367D01*
X93971428Y-95657111D01*
X93900946Y-95827271D01*
X93865014Y-96007911D01*
X93865014Y-96192089D01*
X93900946Y-96372729D01*
X93971428Y-96542889D01*
X94073752Y-96696028D01*
X94203986Y-96826262D01*
X94357125Y-96928586D01*
X94511487Y-96992524D01*
X94469220Y-97000932D01*
X94299060Y-97071414D01*
X94145921Y-97173738D01*
X94015687Y-97303972D01*
X93913363Y-97457111D01*
X93842881Y-97627271D01*
X93806949Y-97807911D01*
X93806949Y-97992089D01*
X93842881Y-98172729D01*
X93913363Y-98342889D01*
X94015687Y-98496028D01*
X94145921Y-98626262D01*
X94299060Y-98728586D01*
X94469220Y-98799068D01*
X94649860Y-98835000D01*
X94834038Y-98835000D01*
X95014678Y-98799068D01*
X95184838Y-98728586D01*
X95337977Y-98626262D01*
X95468211Y-98496028D01*
X95570535Y-98342889D01*
X95641017Y-98172729D01*
X95676949Y-97992089D01*
X95676949Y-97807911D01*
X95641017Y-97627271D01*
X95570535Y-97457111D01*
X95468211Y-97303972D01*
X95337977Y-97173738D01*
X95184838Y-97071414D01*
X95030476Y-97007476D01*
X95072743Y-96999068D01*
X95242903Y-96928586D01*
X95396042Y-96826262D01*
X95526276Y-96696028D01*
X95628600Y-96542889D01*
X95699082Y-96372729D01*
X95735014Y-96192089D01*
X95735014Y-96007911D01*
X95699082Y-95827271D01*
X95628600Y-95657111D01*
X95526276Y-95503972D01*
X95396042Y-95373738D01*
X95242903Y-95271414D01*
X95120229Y-95220601D01*
X95122062Y-95217857D01*
X95192544Y-95047697D01*
X95228476Y-94867057D01*
X95228476Y-94682879D01*
X95192544Y-94502239D01*
X95122062Y-94332079D01*
X95019738Y-94178940D01*
X94889504Y-94048706D01*
X94736365Y-93946382D01*
X94643488Y-93907911D01*
X96165000Y-93907911D01*
X96165000Y-94092089D01*
X96200932Y-94272729D01*
X96271414Y-94442889D01*
X96373738Y-94596028D01*
X96503972Y-94726262D01*
X96657111Y-94828586D01*
X96827271Y-94899068D01*
X97007911Y-94935000D01*
X97192089Y-94935000D01*
X97372729Y-94899068D01*
X97542889Y-94828586D01*
X97696028Y-94726262D01*
X97826262Y-94596028D01*
X97928586Y-94442889D01*
X97999068Y-94272729D01*
X98035000Y-94092089D01*
X98035000Y-93907911D01*
X97999068Y-93727271D01*
X97928586Y-93557111D01*
X97826262Y-93403972D01*
X97696028Y-93273738D01*
X97542889Y-93171414D01*
X97372729Y-93100932D01*
X97192089Y-93065000D01*
X97007911Y-93065000D01*
X96827271Y-93100932D01*
X96657111Y-93171414D01*
X96503972Y-93273738D01*
X96373738Y-93403972D01*
X96271414Y-93557111D01*
X96200932Y-93727271D01*
X96165000Y-93907911D01*
X94643488Y-93907911D01*
X94566205Y-93875900D01*
X94385565Y-93839968D01*
X94201387Y-93839968D01*
X94020747Y-93875900D01*
X93850587Y-93946382D01*
X93697448Y-94048706D01*
X93567214Y-94178940D01*
X93464890Y-94332079D01*
X93394408Y-94502239D01*
X93358476Y-94682879D01*
X85505165Y-94682879D01*
X85496024Y-94673738D01*
X85342885Y-94571414D01*
X85217388Y-94519432D01*
X85199056Y-94427271D01*
X85128574Y-94257111D01*
X85026250Y-94103972D01*
X84896016Y-93973738D01*
X84742877Y-93871414D01*
X84572717Y-93800932D01*
X84392077Y-93765000D01*
X84226464Y-93765000D01*
X84199068Y-93627271D01*
X84149628Y-93507911D01*
X91365000Y-93507911D01*
X91365000Y-93692089D01*
X91400932Y-93872729D01*
X91471414Y-94042889D01*
X91573738Y-94196028D01*
X91703972Y-94326262D01*
X91857111Y-94428586D01*
X92027271Y-94499068D01*
X92207911Y-94535000D01*
X92392089Y-94535000D01*
X92572729Y-94499068D01*
X92742889Y-94428586D01*
X92896028Y-94326262D01*
X93026262Y-94196028D01*
X93128586Y-94042889D01*
X93199068Y-93872729D01*
X93235000Y-93692089D01*
X93235000Y-93507911D01*
X93199068Y-93327271D01*
X93128586Y-93157111D01*
X93026262Y-93003972D01*
X92896028Y-92873738D01*
X92742889Y-92771414D01*
X92572729Y-92700932D01*
X92392089Y-92665000D01*
X92207911Y-92665000D01*
X92027271Y-92700932D01*
X91857111Y-92771414D01*
X91703972Y-92873738D01*
X91573738Y-93003972D01*
X91471414Y-93157111D01*
X91400932Y-93327271D01*
X91365000Y-93507911D01*
X84149628Y-93507911D01*
X84128586Y-93457111D01*
X84026262Y-93303972D01*
X83896028Y-93173738D01*
X83742889Y-93071414D01*
X83572729Y-93000932D01*
X83392089Y-92965000D01*
X83207911Y-92965000D01*
X83027271Y-93000932D01*
X82857111Y-93071414D01*
X82703972Y-93173738D01*
X82573738Y-93303972D01*
X82471414Y-93457111D01*
X82400932Y-93627271D01*
X82365000Y-93807911D01*
X76789196Y-93807911D01*
X76801079Y-93796028D01*
X76903403Y-93642889D01*
X76973885Y-93472729D01*
X77009817Y-93292089D01*
X77009817Y-93107911D01*
X76973885Y-92927271D01*
X76903403Y-92757111D01*
X76827728Y-92643855D01*
X76928592Y-92492900D01*
X76999074Y-92322740D01*
X77035006Y-92142100D01*
X77035006Y-92007911D01*
X96865000Y-92007911D01*
X96865000Y-92192089D01*
X96900932Y-92372729D01*
X96971414Y-92542889D01*
X97073738Y-92696028D01*
X97203972Y-92826262D01*
X97357111Y-92928586D01*
X97527271Y-92999068D01*
X97707911Y-93035000D01*
X97892089Y-93035000D01*
X98072729Y-92999068D01*
X98217014Y-92939304D01*
X98303972Y-93026262D01*
X98457111Y-93128586D01*
X98627271Y-93199068D01*
X98807911Y-93235000D01*
X98992089Y-93235000D01*
X99172729Y-93199068D01*
X99342889Y-93128586D01*
X99496028Y-93026262D01*
X99626262Y-92896028D01*
X99728586Y-92742889D01*
X99799068Y-92572729D01*
X99835000Y-92392089D01*
X99835000Y-92207911D01*
X99799068Y-92027271D01*
X99728586Y-91857111D01*
X99628894Y-91707911D01*
X102165000Y-91707911D01*
X102165000Y-91892089D01*
X102200932Y-92072729D01*
X102271414Y-92242889D01*
X102373738Y-92396028D01*
X102503972Y-92526262D01*
X102657111Y-92628586D01*
X102827271Y-92699068D01*
X103007911Y-92735000D01*
X103192089Y-92735000D01*
X103252845Y-92722915D01*
X103252845Y-92877503D01*
X103288777Y-93058143D01*
X103359259Y-93228303D01*
X103461583Y-93381442D01*
X103591817Y-93511676D01*
X103744956Y-93614000D01*
X103903866Y-93679822D01*
X103971410Y-93842889D01*
X104073734Y-93996028D01*
X104203968Y-94126262D01*
X104357107Y-94228586D01*
X104508647Y-94291356D01*
X104571414Y-94442889D01*
X104673738Y-94596028D01*
X104803972Y-94726262D01*
X104957111Y-94828586D01*
X105108647Y-94891354D01*
X105171414Y-95042887D01*
X105273738Y-95196026D01*
X105403972Y-95326260D01*
X105557111Y-95428584D01*
X105682599Y-95480562D01*
X105700932Y-95572729D01*
X105771414Y-95742889D01*
X105873738Y-95896028D01*
X106003972Y-96026262D01*
X106157111Y-96128586D01*
X106327271Y-96199068D01*
X106420323Y-96217577D01*
X106418815Y-96218815D01*
X106339463Y-96315506D01*
X106280498Y-96425820D01*
X106244188Y-96545518D01*
X106231928Y-96670000D01*
X106231928Y-98370000D01*
X106244188Y-98494482D01*
X106280498Y-98614180D01*
X106339463Y-98724494D01*
X106418815Y-98821185D01*
X106515506Y-98900537D01*
X106625820Y-98959502D01*
X106698380Y-98981513D01*
X106566525Y-99113368D01*
X106404010Y-99356589D01*
X106292068Y-99626842D01*
X106235000Y-99913740D01*
X106235000Y-100206260D01*
X106292068Y-100493158D01*
X106404010Y-100763411D01*
X106566525Y-101006632D01*
X106773368Y-101213475D01*
X106947760Y-101330000D01*
X106773368Y-101446525D01*
X106566525Y-101653368D01*
X106404010Y-101896589D01*
X106292068Y-102166842D01*
X106235000Y-102453740D01*
X106235000Y-102746260D01*
X106292068Y-103033158D01*
X106404010Y-103303411D01*
X106566525Y-103546632D01*
X106773368Y-103753475D01*
X106947760Y-103870000D01*
X106773368Y-103986525D01*
X106566525Y-104193368D01*
X106404010Y-104436589D01*
X106292068Y-104706842D01*
X106235000Y-104993740D01*
X106235000Y-105286260D01*
X106292068Y-105573158D01*
X106404010Y-105843411D01*
X106566525Y-106086632D01*
X106773368Y-106293475D01*
X106947760Y-106410000D01*
X106773368Y-106526525D01*
X106566525Y-106733368D01*
X106404010Y-106976589D01*
X106292068Y-107246842D01*
X106235000Y-107533740D01*
X106235000Y-107826260D01*
X106292068Y-108113158D01*
X106404010Y-108383411D01*
X106566525Y-108626632D01*
X106773368Y-108833475D01*
X106947760Y-108950000D01*
X106773368Y-109066525D01*
X106566525Y-109273368D01*
X106404010Y-109516589D01*
X106292068Y-109786842D01*
X106235000Y-110073740D01*
X106235000Y-110366260D01*
X106292068Y-110653158D01*
X106404010Y-110923411D01*
X106566525Y-111166632D01*
X106773368Y-111373475D01*
X106947760Y-111490000D01*
X106773368Y-111606525D01*
X106566525Y-111813368D01*
X106404010Y-112056589D01*
X106292068Y-112326842D01*
X106235000Y-112613740D01*
X106235000Y-112906260D01*
X106292068Y-113193158D01*
X106404010Y-113463411D01*
X106566525Y-113706632D01*
X106773368Y-113913475D01*
X106947760Y-114030000D01*
X106773368Y-114146525D01*
X106566525Y-114353368D01*
X106404010Y-114596589D01*
X106292068Y-114866842D01*
X106235000Y-115153740D01*
X106235000Y-115446260D01*
X106292068Y-115733158D01*
X106404010Y-116003411D01*
X106566525Y-116246632D01*
X106773368Y-116453475D01*
X106947760Y-116570000D01*
X106773368Y-116686525D01*
X106566525Y-116893368D01*
X106404010Y-117136589D01*
X106292068Y-117406842D01*
X106262084Y-117557583D01*
X106226262Y-117503972D01*
X106096028Y-117373738D01*
X105942889Y-117271414D01*
X105772729Y-117200932D01*
X105592089Y-117165000D01*
X105407911Y-117165000D01*
X105227271Y-117200932D01*
X105057111Y-117271414D01*
X104903972Y-117373738D01*
X104773738Y-117503972D01*
X104671414Y-117657111D01*
X104600932Y-117827271D01*
X104565000Y-118007911D01*
X104565000Y-118192089D01*
X104600932Y-118372729D01*
X104671414Y-118542889D01*
X104773738Y-118696028D01*
X104903972Y-118826262D01*
X105057111Y-118928586D01*
X105227271Y-118999068D01*
X105407911Y-119035000D01*
X105592089Y-119035000D01*
X105772729Y-118999068D01*
X105942889Y-118928586D01*
X106096028Y-118826262D01*
X106226262Y-118696028D01*
X106328586Y-118542889D01*
X106366190Y-118452105D01*
X106404010Y-118543411D01*
X106566525Y-118786632D01*
X106773368Y-118993475D01*
X106947760Y-119110000D01*
X106773368Y-119226525D01*
X106566525Y-119433368D01*
X106404010Y-119676589D01*
X106292068Y-119946842D01*
X106235000Y-120233740D01*
X106235000Y-120526260D01*
X106292068Y-120813158D01*
X106404010Y-121083411D01*
X106566525Y-121326632D01*
X106773368Y-121533475D01*
X107016589Y-121695990D01*
X107286842Y-121807932D01*
X107573740Y-121865000D01*
X107866260Y-121865000D01*
X108153158Y-121807932D01*
X108423411Y-121695990D01*
X108666632Y-121533475D01*
X108873475Y-121326632D01*
X108990000Y-121152240D01*
X109106525Y-121326632D01*
X109313368Y-121533475D01*
X109556589Y-121695990D01*
X109826842Y-121807932D01*
X110113740Y-121865000D01*
X110406260Y-121865000D01*
X110693158Y-121807932D01*
X110963411Y-121695990D01*
X111206632Y-121533475D01*
X111413475Y-121326632D01*
X111575990Y-121083411D01*
X111687932Y-120813158D01*
X111745000Y-120526260D01*
X111745000Y-120233740D01*
X111687932Y-119946842D01*
X111575990Y-119676589D01*
X111413475Y-119433368D01*
X111206632Y-119226525D01*
X111032240Y-119110000D01*
X111206632Y-118993475D01*
X111413475Y-118786632D01*
X111575990Y-118543411D01*
X111687932Y-118273158D01*
X111745000Y-117986260D01*
X111745000Y-117693740D01*
X111687932Y-117406842D01*
X111575990Y-117136589D01*
X111413475Y-116893368D01*
X111206632Y-116686525D01*
X111032240Y-116570000D01*
X111206632Y-116453475D01*
X111413475Y-116246632D01*
X111575990Y-116003411D01*
X111687932Y-115733158D01*
X111745000Y-115446260D01*
X111745000Y-115153740D01*
X111687932Y-114866842D01*
X111575990Y-114596589D01*
X111413475Y-114353368D01*
X111206632Y-114146525D01*
X111032240Y-114030000D01*
X111206632Y-113913475D01*
X111413475Y-113706632D01*
X111575990Y-113463411D01*
X111687932Y-113193158D01*
X111745000Y-112906260D01*
X111745000Y-112613740D01*
X111687932Y-112326842D01*
X111575990Y-112056589D01*
X111413475Y-111813368D01*
X111206632Y-111606525D01*
X111032240Y-111490000D01*
X111206632Y-111373475D01*
X111413475Y-111166632D01*
X111575990Y-110923411D01*
X111687932Y-110653158D01*
X111745000Y-110366260D01*
X111745000Y-110073740D01*
X111687932Y-109786842D01*
X111575990Y-109516589D01*
X111413475Y-109273368D01*
X111206632Y-109066525D01*
X111032240Y-108950000D01*
X111206632Y-108833475D01*
X111413475Y-108626632D01*
X111575990Y-108383411D01*
X111687932Y-108113158D01*
X111745000Y-107826260D01*
X111745000Y-107533740D01*
X111687932Y-107246842D01*
X111575990Y-106976589D01*
X111413475Y-106733368D01*
X111206632Y-106526525D01*
X111032240Y-106410000D01*
X111206632Y-106293475D01*
X111413475Y-106086632D01*
X111575990Y-105843411D01*
X111687932Y-105573158D01*
X111745000Y-105286260D01*
X111745000Y-104993740D01*
X111687932Y-104706842D01*
X111575990Y-104436589D01*
X111413475Y-104193368D01*
X111206632Y-103986525D01*
X111032240Y-103870000D01*
X111206632Y-103753475D01*
X111413475Y-103546632D01*
X111575990Y-103303411D01*
X111687932Y-103033158D01*
X111745000Y-102746260D01*
X111745000Y-102453740D01*
X111687932Y-102166842D01*
X111575990Y-101896589D01*
X111413475Y-101653368D01*
X111206632Y-101446525D01*
X111032240Y-101330000D01*
X111206632Y-101213475D01*
X111413475Y-101006632D01*
X111575990Y-100763411D01*
X111687932Y-100493158D01*
X111745000Y-100206260D01*
X111745000Y-99913740D01*
X111687932Y-99626842D01*
X111575990Y-99356589D01*
X111413475Y-99113368D01*
X111206632Y-98906525D01*
X111024466Y-98784805D01*
X111141355Y-98715178D01*
X111357588Y-98520269D01*
X111531641Y-98286920D01*
X111656825Y-98024099D01*
X111701476Y-97876890D01*
X111580155Y-97647000D01*
X110387000Y-97647000D01*
X110387000Y-97667000D01*
X110133000Y-97667000D01*
X110133000Y-97647000D01*
X110113000Y-97647000D01*
X110113000Y-97393000D01*
X110133000Y-97393000D01*
X110133000Y-96199186D01*
X110387000Y-96199186D01*
X110387000Y-97393000D01*
X111580155Y-97393000D01*
X111701476Y-97163110D01*
X111656825Y-97015901D01*
X111531641Y-96753080D01*
X111357588Y-96519731D01*
X111141355Y-96324822D01*
X110891252Y-96175843D01*
X110616891Y-96078519D01*
X110387000Y-96199186D01*
X110133000Y-96199186D01*
X109903109Y-96078519D01*
X109628748Y-96175843D01*
X109378645Y-96324822D01*
X109182498Y-96501626D01*
X109159502Y-96425820D01*
X109100537Y-96315506D01*
X109021185Y-96218815D01*
X108924494Y-96139463D01*
X108814180Y-96080498D01*
X108694482Y-96044188D01*
X108570000Y-96031928D01*
X107187548Y-96031928D01*
X107196028Y-96026262D01*
X107326262Y-95896028D01*
X107428586Y-95742889D01*
X107499068Y-95572729D01*
X107535000Y-95392089D01*
X107535000Y-95207911D01*
X107499068Y-95027271D01*
X107428586Y-94857111D01*
X107326262Y-94703972D01*
X107196028Y-94573738D01*
X107042889Y-94471414D01*
X106917401Y-94419436D01*
X106899068Y-94327269D01*
X106828586Y-94157109D01*
X106726262Y-94003970D01*
X106596028Y-93873736D01*
X106442889Y-93771412D01*
X106291353Y-93708644D01*
X106228586Y-93557111D01*
X106126262Y-93403972D01*
X105996028Y-93273738D01*
X105842889Y-93171414D01*
X105691349Y-93108644D01*
X105628582Y-92957111D01*
X105526258Y-92803972D01*
X105396024Y-92673738D01*
X105242885Y-92571414D01*
X105083975Y-92505592D01*
X105016431Y-92342525D01*
X104914107Y-92189386D01*
X104783873Y-92059152D01*
X104630734Y-91956828D01*
X104460574Y-91886346D01*
X104279934Y-91850414D01*
X104095756Y-91850414D01*
X104035000Y-91862499D01*
X104035000Y-91707911D01*
X103999068Y-91527271D01*
X103928586Y-91357111D01*
X103826262Y-91203972D01*
X103696028Y-91073738D01*
X103542889Y-90971414D01*
X103372729Y-90900932D01*
X103192089Y-90865000D01*
X103007911Y-90865000D01*
X102827271Y-90900932D01*
X102657111Y-90971414D01*
X102503972Y-91073738D01*
X102373738Y-91203972D01*
X102271414Y-91357111D01*
X102200932Y-91527271D01*
X102165000Y-91707911D01*
X99628894Y-91707911D01*
X99626262Y-91703972D01*
X99496028Y-91573738D01*
X99342889Y-91471414D01*
X99172729Y-91400932D01*
X98992089Y-91365000D01*
X98807911Y-91365000D01*
X98627271Y-91400932D01*
X98482986Y-91460696D01*
X98396028Y-91373738D01*
X98242889Y-91271414D01*
X98072729Y-91200932D01*
X97892089Y-91165000D01*
X97707911Y-91165000D01*
X97527271Y-91200932D01*
X97357111Y-91271414D01*
X97203972Y-91373738D01*
X97073738Y-91503972D01*
X96971414Y-91657111D01*
X96900932Y-91827271D01*
X96865000Y-92007911D01*
X77035006Y-92007911D01*
X77035006Y-91957922D01*
X76999074Y-91777282D01*
X76928592Y-91607122D01*
X76826268Y-91453983D01*
X76797288Y-91425003D01*
X76826262Y-91396028D01*
X76928586Y-91242889D01*
X76999068Y-91072729D01*
X77035000Y-90892089D01*
X77035000Y-90707911D01*
X76999068Y-90527271D01*
X76928586Y-90357111D01*
X76826262Y-90203972D01*
X76772284Y-90149994D01*
X76826262Y-90096015D01*
X76885131Y-90007911D01*
X80464996Y-90007911D01*
X80464996Y-90192089D01*
X80500928Y-90372729D01*
X80571410Y-90542889D01*
X80673734Y-90696028D01*
X80803968Y-90826262D01*
X80957107Y-90928586D01*
X81127267Y-90999068D01*
X81307907Y-91035000D01*
X81492085Y-91035000D01*
X81672725Y-90999068D01*
X81842885Y-90928586D01*
X81996024Y-90826262D01*
X82126258Y-90696028D01*
X82228582Y-90542889D01*
X82299064Y-90372729D01*
X82334996Y-90192089D01*
X82334996Y-90007911D01*
X82299064Y-89827271D01*
X82291045Y-89807911D01*
X84714983Y-89807911D01*
X84714983Y-89992089D01*
X84750915Y-90172729D01*
X84821397Y-90342889D01*
X84923721Y-90496028D01*
X85053955Y-90626262D01*
X85207094Y-90728586D01*
X85377254Y-90799068D01*
X85557894Y-90835000D01*
X85742072Y-90835000D01*
X85838231Y-90815873D01*
X85871987Y-90985573D01*
X85942469Y-91155733D01*
X86044793Y-91308872D01*
X86175027Y-91439106D01*
X86328166Y-91541430D01*
X86498326Y-91611912D01*
X86678966Y-91647844D01*
X86863144Y-91647844D01*
X87043784Y-91611912D01*
X87213944Y-91541430D01*
X87367083Y-91439106D01*
X87497317Y-91308872D01*
X87599641Y-91155733D01*
X87670123Y-90985573D01*
X87706055Y-90804933D01*
X87706055Y-90620755D01*
X87670123Y-90440115D01*
X87599641Y-90269955D01*
X87497317Y-90116816D01*
X87367083Y-89986582D01*
X87213944Y-89884258D01*
X87210668Y-89882901D01*
X99165000Y-89882901D01*
X99165000Y-90067079D01*
X99200932Y-90247719D01*
X99271414Y-90417879D01*
X99373738Y-90571018D01*
X99503972Y-90701252D01*
X99657111Y-90803576D01*
X99827271Y-90874058D01*
X99883531Y-90885249D01*
X99900932Y-90972729D01*
X99971414Y-91142889D01*
X100073738Y-91296028D01*
X100203972Y-91426262D01*
X100357111Y-91528586D01*
X100527271Y-91599068D01*
X100707911Y-91635000D01*
X100892089Y-91635000D01*
X101072729Y-91599068D01*
X101242889Y-91528586D01*
X101396028Y-91426262D01*
X101526262Y-91296028D01*
X101628586Y-91142889D01*
X101699068Y-90972729D01*
X101735000Y-90792089D01*
X101735000Y-90607911D01*
X101699068Y-90427271D01*
X101628586Y-90257111D01*
X101526262Y-90103972D01*
X101396028Y-89973738D01*
X101242889Y-89871414D01*
X101072729Y-89800932D01*
X101016469Y-89789741D01*
X100999068Y-89702261D01*
X100928586Y-89532101D01*
X100826262Y-89378962D01*
X100696028Y-89248728D01*
X100542889Y-89146404D01*
X100372729Y-89075922D01*
X100192089Y-89039990D01*
X100007911Y-89039990D01*
X99827271Y-89075922D01*
X99657111Y-89146404D01*
X99503972Y-89248728D01*
X99373738Y-89378962D01*
X99271414Y-89532101D01*
X99200932Y-89702261D01*
X99165000Y-89882901D01*
X87210668Y-89882901D01*
X87043784Y-89813776D01*
X86863144Y-89777844D01*
X86678966Y-89777844D01*
X86582807Y-89796971D01*
X86549051Y-89627271D01*
X86478569Y-89457111D01*
X86376245Y-89303972D01*
X86246011Y-89173738D01*
X86092872Y-89071414D01*
X85922712Y-89000932D01*
X85742072Y-88965000D01*
X85557894Y-88965000D01*
X85377254Y-89000932D01*
X85207094Y-89071414D01*
X85053955Y-89173738D01*
X84923721Y-89303972D01*
X84821397Y-89457111D01*
X84750915Y-89627271D01*
X84714983Y-89807911D01*
X82291045Y-89807911D01*
X82228582Y-89657111D01*
X82126258Y-89503972D01*
X81996024Y-89373738D01*
X81842885Y-89271414D01*
X81672725Y-89200932D01*
X81492085Y-89165000D01*
X81307907Y-89165000D01*
X81127267Y-89200932D01*
X80957107Y-89271414D01*
X80803968Y-89373738D01*
X80673734Y-89503972D01*
X80571410Y-89657111D01*
X80500928Y-89827271D01*
X80464996Y-90007911D01*
X76885131Y-90007911D01*
X76928586Y-89942876D01*
X76999068Y-89772716D01*
X77035000Y-89592076D01*
X77035000Y-89407898D01*
X76999068Y-89227258D01*
X76928586Y-89057098D01*
X76826262Y-88903959D01*
X76696028Y-88773725D01*
X76542889Y-88671401D01*
X76389610Y-88607911D01*
X78965000Y-88607911D01*
X78965000Y-88792089D01*
X79000932Y-88972729D01*
X79071414Y-89142889D01*
X79173738Y-89296028D01*
X79303972Y-89426262D01*
X79457111Y-89528586D01*
X79627271Y-89599068D01*
X79807911Y-89635000D01*
X79992089Y-89635000D01*
X80172729Y-89599068D01*
X80342889Y-89528586D01*
X80496028Y-89426262D01*
X80626262Y-89296028D01*
X80728586Y-89142889D01*
X80799068Y-88972729D01*
X80835000Y-88792089D01*
X80835000Y-88607911D01*
X80799068Y-88427271D01*
X80728586Y-88257111D01*
X80626262Y-88103972D01*
X80496028Y-87973738D01*
X80342889Y-87871414D01*
X80172729Y-87800932D01*
X79992089Y-87765000D01*
X79807911Y-87765000D01*
X79627271Y-87800932D01*
X79457111Y-87871414D01*
X79303972Y-87973738D01*
X79173738Y-88103972D01*
X79071414Y-88257111D01*
X79000932Y-88427271D01*
X78965000Y-88607911D01*
X76389610Y-88607911D01*
X76372729Y-88600919D01*
X76192089Y-88564987D01*
X76007911Y-88564987D01*
X75827271Y-88600919D01*
X75657111Y-88671401D01*
X75503972Y-88773725D01*
X75373738Y-88903959D01*
X75271414Y-89057098D01*
X75200932Y-89227258D01*
X75165000Y-89407898D01*
X75165000Y-89592076D01*
X75200932Y-89772716D01*
X75271414Y-89942876D01*
X75373738Y-90096015D01*
X75427717Y-90149994D01*
X75373738Y-90203972D01*
X75271414Y-90357111D01*
X75200932Y-90527271D01*
X75165000Y-90707911D01*
X75165000Y-90892089D01*
X75200932Y-91072729D01*
X75271414Y-91242889D01*
X75373738Y-91396028D01*
X75402719Y-91425009D01*
X75373744Y-91453983D01*
X75271420Y-91607122D01*
X75200938Y-91777282D01*
X75165006Y-91957922D01*
X75165006Y-92142100D01*
X75200938Y-92322740D01*
X75271420Y-92492900D01*
X75347095Y-92606156D01*
X75246231Y-92757111D01*
X75175749Y-92927271D01*
X75139817Y-93107911D01*
X66735000Y-93107911D01*
X66735000Y-92998061D01*
X66695226Y-92798102D01*
X66617205Y-92609744D01*
X66503937Y-92440226D01*
X66359774Y-92296063D01*
X66190256Y-92182795D01*
X66001898Y-92104774D01*
X65801939Y-92065000D01*
X65628424Y-92065000D01*
X65595226Y-91898102D01*
X65517205Y-91709744D01*
X65403937Y-91540226D01*
X65259774Y-91396063D01*
X65090256Y-91282795D01*
X64901898Y-91204774D01*
X64701939Y-91165000D01*
X64498061Y-91165000D01*
X64298102Y-91204774D01*
X64109744Y-91282795D01*
X63940226Y-91396063D01*
X63796063Y-91540226D01*
X63682795Y-91709744D01*
X63604774Y-91898102D01*
X63571576Y-92065000D01*
X63423061Y-92065000D01*
X63223102Y-92104774D01*
X63034744Y-92182795D01*
X62865226Y-92296063D01*
X62721063Y-92440226D01*
X62607795Y-92609744D01*
X62529774Y-92798102D01*
X62490000Y-92998061D01*
X61160000Y-92998061D01*
X61160000Y-88807911D01*
X69465000Y-88807911D01*
X69465000Y-88992089D01*
X69500932Y-89172729D01*
X69571414Y-89342889D01*
X69673738Y-89496028D01*
X69803972Y-89626262D01*
X69957111Y-89728586D01*
X70127271Y-89799068D01*
X70307911Y-89835000D01*
X70492089Y-89835000D01*
X70672729Y-89799068D01*
X70842889Y-89728586D01*
X70996028Y-89626262D01*
X71126262Y-89496028D01*
X71228586Y-89342889D01*
X71299068Y-89172729D01*
X71335000Y-88992089D01*
X71335000Y-88807911D01*
X71299068Y-88627271D01*
X71228586Y-88457111D01*
X71126262Y-88303972D01*
X70996028Y-88173738D01*
X70842889Y-88071414D01*
X70672729Y-88000932D01*
X70492089Y-87965000D01*
X70307911Y-87965000D01*
X70127271Y-88000932D01*
X69957111Y-88071414D01*
X69803972Y-88173738D01*
X69673738Y-88303972D01*
X69571414Y-88457111D01*
X69500932Y-88627271D01*
X69465000Y-88807911D01*
X61160000Y-88807911D01*
X61160000Y-85907917D01*
X85865000Y-85907917D01*
X85865000Y-86092095D01*
X85900932Y-86272735D01*
X85971414Y-86442895D01*
X86073738Y-86596034D01*
X86203972Y-86726268D01*
X86357111Y-86828592D01*
X86527271Y-86899074D01*
X86707911Y-86935006D01*
X86892089Y-86935006D01*
X87072729Y-86899074D01*
X87242889Y-86828592D01*
X87396028Y-86726268D01*
X87526262Y-86596034D01*
X87553416Y-86555396D01*
X87679251Y-86681231D01*
X87832390Y-86783555D01*
X88002550Y-86854037D01*
X88183190Y-86889969D01*
X88367368Y-86889969D01*
X88548008Y-86854037D01*
X88718168Y-86783555D01*
X88871307Y-86681231D01*
X89001541Y-86550997D01*
X89103865Y-86397858D01*
X89174347Y-86227698D01*
X89210279Y-86047058D01*
X89210279Y-85992030D01*
X89227271Y-85999068D01*
X89265000Y-86006573D01*
X89265000Y-86092089D01*
X89300932Y-86272729D01*
X89371414Y-86442889D01*
X89473738Y-86596028D01*
X89603972Y-86726262D01*
X89757111Y-86828586D01*
X89927271Y-86899068D01*
X90107911Y-86935000D01*
X90292089Y-86935000D01*
X90472729Y-86899068D01*
X90642889Y-86828586D01*
X90796028Y-86726262D01*
X90926262Y-86596028D01*
X91028586Y-86442889D01*
X91099068Y-86272729D01*
X91135000Y-86092089D01*
X91135000Y-86020497D01*
X91165000Y-86026464D01*
X91165000Y-86092089D01*
X91200932Y-86272729D01*
X91271414Y-86442889D01*
X91373738Y-86596028D01*
X91503972Y-86726262D01*
X91657111Y-86828586D01*
X91827271Y-86899068D01*
X92007911Y-86935000D01*
X92192089Y-86935000D01*
X92372729Y-86899068D01*
X92542889Y-86828586D01*
X92696028Y-86726262D01*
X92826262Y-86596028D01*
X92928586Y-86442889D01*
X92999068Y-86272729D01*
X93035000Y-86092089D01*
X93035000Y-86020501D01*
X93107911Y-86035004D01*
X93292089Y-86035004D01*
X93472729Y-85999072D01*
X93642889Y-85928590D01*
X93796028Y-85826266D01*
X93926262Y-85696032D01*
X94028586Y-85542893D01*
X94099068Y-85372733D01*
X94135000Y-85192093D01*
X94135000Y-85007915D01*
X94099068Y-84827275D01*
X94028586Y-84657115D01*
X93926262Y-84503976D01*
X93796028Y-84373742D01*
X93642889Y-84271418D01*
X93472729Y-84200936D01*
X93292089Y-84165004D01*
X93107911Y-84165004D01*
X92927271Y-84200936D01*
X92757111Y-84271418D01*
X92603972Y-84373742D01*
X92473738Y-84503976D01*
X92371414Y-84657115D01*
X92300932Y-84827275D01*
X92265000Y-85007915D01*
X92265000Y-85079503D01*
X92235000Y-85073536D01*
X92235000Y-85007911D01*
X92199068Y-84827271D01*
X92128586Y-84657111D01*
X92026262Y-84503972D01*
X91896028Y-84373738D01*
X91742889Y-84271414D01*
X91572729Y-84200932D01*
X91392089Y-84165000D01*
X91207911Y-84165000D01*
X91027271Y-84200932D01*
X90857111Y-84271414D01*
X90703972Y-84373738D01*
X90573738Y-84503972D01*
X90471414Y-84657111D01*
X90400932Y-84827271D01*
X90400000Y-84831956D01*
X90399068Y-84827271D01*
X90328586Y-84657111D01*
X90226262Y-84503972D01*
X90096028Y-84373738D01*
X89942889Y-84271414D01*
X89772729Y-84200932D01*
X89592089Y-84165000D01*
X89407911Y-84165000D01*
X89227271Y-84200932D01*
X89057111Y-84271414D01*
X88903972Y-84373738D01*
X88773738Y-84503972D01*
X88671414Y-84657111D01*
X88653147Y-84701211D01*
X88633037Y-84652660D01*
X88530713Y-84499521D01*
X88400479Y-84369287D01*
X88247340Y-84266963D01*
X88077180Y-84196481D01*
X87896540Y-84160549D01*
X87712362Y-84160549D01*
X87531722Y-84196481D01*
X87361562Y-84266963D01*
X87208423Y-84369287D01*
X87078189Y-84499521D01*
X86975865Y-84652660D01*
X86905383Y-84822820D01*
X86869451Y-85003460D01*
X86869451Y-85065006D01*
X86707911Y-85065006D01*
X86527271Y-85100938D01*
X86357111Y-85171420D01*
X86203972Y-85273744D01*
X86073738Y-85403978D01*
X85971414Y-85557117D01*
X85900932Y-85727277D01*
X85865000Y-85907917D01*
X61160000Y-85907917D01*
X61160000Y-80407911D01*
X72665000Y-80407911D01*
X72665000Y-80592089D01*
X72700932Y-80772729D01*
X72771414Y-80942889D01*
X72873738Y-81096028D01*
X73003972Y-81226262D01*
X73157111Y-81328586D01*
X73327271Y-81399068D01*
X73507911Y-81435000D01*
X73692089Y-81435000D01*
X73872729Y-81399068D01*
X74000000Y-81346351D01*
X74127271Y-81399068D01*
X74307911Y-81435000D01*
X74492089Y-81435000D01*
X74672729Y-81399068D01*
X74842889Y-81328586D01*
X74996028Y-81226262D01*
X75126262Y-81096028D01*
X75228586Y-80942889D01*
X75299068Y-80772729D01*
X75335000Y-80592089D01*
X75335000Y-80407911D01*
X75299068Y-80227271D01*
X75228586Y-80057111D01*
X75126262Y-79903972D01*
X74996028Y-79773738D01*
X74842889Y-79671414D01*
X74672729Y-79600932D01*
X74492089Y-79565000D01*
X74307911Y-79565000D01*
X74127271Y-79600932D01*
X74000000Y-79653649D01*
X73872729Y-79600932D01*
X73692089Y-79565000D01*
X73507911Y-79565000D01*
X73327271Y-79600932D01*
X73157111Y-79671414D01*
X73003972Y-79773738D01*
X72873738Y-79903972D01*
X72771414Y-80057111D01*
X72700932Y-80227271D01*
X72665000Y-80407911D01*
X61160000Y-80407911D01*
X61160000Y-78907911D01*
X78665000Y-78907911D01*
X78665000Y-79092089D01*
X78700932Y-79272729D01*
X78771414Y-79442889D01*
X78873738Y-79596028D01*
X79003972Y-79726262D01*
X79039498Y-79750000D01*
X79003972Y-79773738D01*
X78873738Y-79903972D01*
X78771414Y-80057111D01*
X78700932Y-80227271D01*
X78665000Y-80407911D01*
X78665000Y-80592089D01*
X78700932Y-80772729D01*
X78771414Y-80942889D01*
X78873738Y-81096028D01*
X79003972Y-81226262D01*
X79039498Y-81250000D01*
X79003972Y-81273738D01*
X78873738Y-81403972D01*
X78771414Y-81557111D01*
X78700932Y-81727271D01*
X78665000Y-81907911D01*
X78665000Y-82092089D01*
X78700932Y-82272729D01*
X78771414Y-82442889D01*
X78873738Y-82596028D01*
X79003972Y-82726262D01*
X79157111Y-82828586D01*
X79327271Y-82899068D01*
X79507911Y-82935000D01*
X79692089Y-82935000D01*
X79872729Y-82899068D01*
X80042889Y-82828586D01*
X80196028Y-82726262D01*
X80326262Y-82596028D01*
X80428586Y-82442889D01*
X80499068Y-82272729D01*
X80535000Y-82092089D01*
X80535000Y-81907911D01*
X80499068Y-81727271D01*
X80428586Y-81557111D01*
X80326262Y-81403972D01*
X80196028Y-81273738D01*
X80160502Y-81250000D01*
X80196028Y-81226262D01*
X80326262Y-81096028D01*
X80428586Y-80942889D01*
X80499068Y-80772729D01*
X80535000Y-80592089D01*
X80535000Y-80407911D01*
X80499068Y-80227271D01*
X80428586Y-80057111D01*
X80326262Y-79903972D01*
X80196028Y-79773738D01*
X80160502Y-79750000D01*
X80196028Y-79726262D01*
X80326262Y-79596028D01*
X80428586Y-79442889D01*
X80499068Y-79272729D01*
X80535000Y-79092089D01*
X80535000Y-78907911D01*
X80499068Y-78727271D01*
X80428586Y-78557111D01*
X80326262Y-78403972D01*
X80196028Y-78273738D01*
X80042889Y-78171414D01*
X79872729Y-78100932D01*
X79692089Y-78065000D01*
X79507911Y-78065000D01*
X79327271Y-78100932D01*
X79157111Y-78171414D01*
X79003972Y-78273738D01*
X78873738Y-78403972D01*
X78771414Y-78557111D01*
X78700932Y-78727271D01*
X78665000Y-78907911D01*
X61160000Y-78907911D01*
X61160000Y-60519608D01*
X61227573Y-60452035D01*
X61545757Y-60905850D01*
X62150210Y-61231269D01*
X62806535Y-61432512D01*
X63489510Y-61501845D01*
X64172888Y-61436605D01*
X64830407Y-61239298D01*
X65436799Y-60917506D01*
X65454243Y-60905850D01*
X65772428Y-60452033D01*
X63500000Y-58179605D01*
X63485858Y-58193748D01*
X63306253Y-58014143D01*
X63320395Y-58000000D01*
X63306253Y-57985858D01*
X63485858Y-57806253D01*
X63500000Y-57820395D01*
X63514143Y-57806253D01*
X63693748Y-57985858D01*
X63679605Y-58000000D01*
X65952033Y-60272428D01*
X66405850Y-59954243D01*
X66731269Y-59349790D01*
X66932512Y-58693465D01*
X66990017Y-58127002D01*
X67139185Y-58127002D01*
X67018519Y-58356891D01*
X67115843Y-58631252D01*
X67264822Y-58881355D01*
X67459731Y-59097588D01*
X67693080Y-59271641D01*
X67955901Y-59396825D01*
X68103110Y-59441476D01*
X68333000Y-59320155D01*
X68333000Y-58127000D01*
X68313000Y-58127000D01*
X68313000Y-57873000D01*
X68333000Y-57873000D01*
X68333000Y-56679845D01*
X68587000Y-56679845D01*
X68587000Y-57873000D01*
X68607000Y-57873000D01*
X68607000Y-58127000D01*
X68587000Y-58127000D01*
X68587000Y-59320155D01*
X68816890Y-59441476D01*
X68964099Y-59396825D01*
X69226920Y-59271641D01*
X69460269Y-59097588D01*
X69655178Y-58881355D01*
X69724805Y-58764466D01*
X69846525Y-58946632D01*
X70053368Y-59153475D01*
X70296589Y-59315990D01*
X70566842Y-59427932D01*
X70853740Y-59485000D01*
X71146260Y-59485000D01*
X71433158Y-59427932D01*
X71703411Y-59315990D01*
X71946632Y-59153475D01*
X72153475Y-58946632D01*
X72270000Y-58772240D01*
X72386525Y-58946632D01*
X72593368Y-59153475D01*
X72836589Y-59315990D01*
X73106842Y-59427932D01*
X73393740Y-59485000D01*
X73686260Y-59485000D01*
X73973158Y-59427932D01*
X74243411Y-59315990D01*
X74486632Y-59153475D01*
X74618487Y-59021620D01*
X74640498Y-59094180D01*
X74699463Y-59204494D01*
X74778815Y-59301185D01*
X74875506Y-59380537D01*
X74985820Y-59439502D01*
X75105518Y-59475812D01*
X75230000Y-59488072D01*
X76930000Y-59488072D01*
X77054482Y-59475812D01*
X77174180Y-59439502D01*
X77284494Y-59380537D01*
X77381185Y-59301185D01*
X77460537Y-59204494D01*
X77519502Y-59094180D01*
X77555812Y-58974482D01*
X77568072Y-58850000D01*
X77568072Y-58353740D01*
X87475000Y-58353740D01*
X87475000Y-58646260D01*
X87532068Y-58933158D01*
X87644010Y-59203411D01*
X87806525Y-59446632D01*
X88013368Y-59653475D01*
X88256589Y-59815990D01*
X88526842Y-59927932D01*
X88813740Y-59985000D01*
X89106260Y-59985000D01*
X89393158Y-59927932D01*
X89663411Y-59815990D01*
X89906632Y-59653475D01*
X90038487Y-59521620D01*
X90060498Y-59594180D01*
X90119463Y-59704494D01*
X90198815Y-59801185D01*
X90295506Y-59880537D01*
X90405820Y-59939502D01*
X90525518Y-59975812D01*
X90650000Y-59988072D01*
X92350000Y-59988072D01*
X92474482Y-59975812D01*
X92594180Y-59939502D01*
X92704494Y-59880537D01*
X92801185Y-59801185D01*
X92880537Y-59704494D01*
X92939502Y-59594180D01*
X92975812Y-59474482D01*
X92988072Y-59350000D01*
X92988072Y-57650000D01*
X92975812Y-57525518D01*
X92939502Y-57405820D01*
X92880537Y-57295506D01*
X92801185Y-57198815D01*
X92704494Y-57119463D01*
X92594180Y-57060498D01*
X92474482Y-57024188D01*
X92350000Y-57011928D01*
X90650000Y-57011928D01*
X90525518Y-57024188D01*
X90405820Y-57060498D01*
X90295506Y-57119463D01*
X90198815Y-57198815D01*
X90119463Y-57295506D01*
X90060498Y-57405820D01*
X90038487Y-57478380D01*
X89906632Y-57346525D01*
X89663411Y-57184010D01*
X89393158Y-57072068D01*
X89106260Y-57015000D01*
X88813740Y-57015000D01*
X88526842Y-57072068D01*
X88256589Y-57184010D01*
X88013368Y-57346525D01*
X87806525Y-57553368D01*
X87644010Y-57796589D01*
X87532068Y-58066842D01*
X87475000Y-58353740D01*
X77568072Y-58353740D01*
X77568072Y-57150000D01*
X77555812Y-57025518D01*
X77519502Y-56905820D01*
X77460537Y-56795506D01*
X77381185Y-56698815D01*
X77284494Y-56619463D01*
X77174180Y-56560498D01*
X77054482Y-56524188D01*
X76930000Y-56511928D01*
X75230000Y-56511928D01*
X75105518Y-56524188D01*
X74985820Y-56560498D01*
X74875506Y-56619463D01*
X74778815Y-56698815D01*
X74699463Y-56795506D01*
X74640498Y-56905820D01*
X74618487Y-56978380D01*
X74486632Y-56846525D01*
X74243411Y-56684010D01*
X73973158Y-56572068D01*
X73686260Y-56515000D01*
X73393740Y-56515000D01*
X73106842Y-56572068D01*
X72836589Y-56684010D01*
X72593368Y-56846525D01*
X72386525Y-57053368D01*
X72270000Y-57227760D01*
X72153475Y-57053368D01*
X71946632Y-56846525D01*
X71703411Y-56684010D01*
X71433158Y-56572068D01*
X71146260Y-56515000D01*
X70853740Y-56515000D01*
X70566842Y-56572068D01*
X70296589Y-56684010D01*
X70053368Y-56846525D01*
X69846525Y-57053368D01*
X69724805Y-57235534D01*
X69655178Y-57118645D01*
X69460269Y-56902412D01*
X69226920Y-56728359D01*
X68964099Y-56603175D01*
X68816890Y-56558524D01*
X68587000Y-56679845D01*
X68333000Y-56679845D01*
X68103110Y-56558524D01*
X67955901Y-56603175D01*
X67693080Y-56728359D01*
X67459731Y-56902412D01*
X67264822Y-57118645D01*
X67115843Y-57368748D01*
X67018519Y-57643109D01*
X67139185Y-57872998D01*
X66988719Y-57872998D01*
X66936605Y-57327112D01*
X66739298Y-56669593D01*
X66417506Y-56063201D01*
X66405850Y-56045757D01*
X65952035Y-55727573D01*
X66019608Y-55660000D01*
X108980392Y-55660000D01*
X109047965Y-55727573D01*
G37*
%TD.AperFunction*%
%TD*%
M02*
