%TF.GenerationSoftware,KiCad,Pcbnew,(5.1.9)-1*%
%TF.CreationDate,2021-05-10T15:41:27+02:00*%
%TF.ProjectId,STM32_Launchpad_v1r1,53544d33-325f-44c6-9175-6e6368706164,rev?*%
%TF.SameCoordinates,Original*%
%TF.FileFunction,Paste,Top*%
%TF.FilePolarity,Positive*%
%FSLAX46Y46*%
G04 Gerber Fmt 4.6, Leading zero omitted, Abs format (unit mm)*
G04 Created by KiCad (PCBNEW (5.1.9)-1) date 2021-05-10 15:41:27*
%MOMM*%
%LPD*%
G01*
G04 APERTURE LIST*
%ADD10R,2.000000X1.500000*%
%ADD11R,2.000000X3.800000*%
%ADD12R,0.500000X0.500000*%
%ADD13R,1.600000X1.400000*%
%ADD14R,0.300000X0.300000*%
%ADD15R,1.430000X2.500000*%
%ADD16R,0.400000X1.650000*%
%ADD17R,1.825000X0.700000*%
%ADD18R,1.350000X2.000000*%
%ADD19R,2.400000X1.900000*%
%ADD20R,0.800000X0.900000*%
G04 APERTURE END LIST*
%TO.C,U2*%
G36*
G01*
X90900000Y-102975000D02*
X90900000Y-104375000D01*
G75*
G02*
X90825000Y-104450000I-75000J0D01*
G01*
X90675000Y-104450000D01*
G75*
G02*
X90600000Y-104375000I0J75000D01*
G01*
X90600000Y-102975000D01*
G75*
G02*
X90675000Y-102900000I75000J0D01*
G01*
X90825000Y-102900000D01*
G75*
G02*
X90900000Y-102975000I0J-75000D01*
G01*
G37*
G36*
G01*
X90400000Y-102975000D02*
X90400000Y-104375000D01*
G75*
G02*
X90325000Y-104450000I-75000J0D01*
G01*
X90175000Y-104450000D01*
G75*
G02*
X90100000Y-104375000I0J75000D01*
G01*
X90100000Y-102975000D01*
G75*
G02*
X90175000Y-102900000I75000J0D01*
G01*
X90325000Y-102900000D01*
G75*
G02*
X90400000Y-102975000I0J-75000D01*
G01*
G37*
G36*
G01*
X89900000Y-102975000D02*
X89900000Y-104375000D01*
G75*
G02*
X89825000Y-104450000I-75000J0D01*
G01*
X89675000Y-104450000D01*
G75*
G02*
X89600000Y-104375000I0J75000D01*
G01*
X89600000Y-102975000D01*
G75*
G02*
X89675000Y-102900000I75000J0D01*
G01*
X89825000Y-102900000D01*
G75*
G02*
X89900000Y-102975000I0J-75000D01*
G01*
G37*
G36*
G01*
X89400000Y-102975000D02*
X89400000Y-104375000D01*
G75*
G02*
X89325000Y-104450000I-75000J0D01*
G01*
X89175000Y-104450000D01*
G75*
G02*
X89100000Y-104375000I0J75000D01*
G01*
X89100000Y-102975000D01*
G75*
G02*
X89175000Y-102900000I75000J0D01*
G01*
X89325000Y-102900000D01*
G75*
G02*
X89400000Y-102975000I0J-75000D01*
G01*
G37*
G36*
G01*
X88900000Y-102975000D02*
X88900000Y-104375000D01*
G75*
G02*
X88825000Y-104450000I-75000J0D01*
G01*
X88675000Y-104450000D01*
G75*
G02*
X88600000Y-104375000I0J75000D01*
G01*
X88600000Y-102975000D01*
G75*
G02*
X88675000Y-102900000I75000J0D01*
G01*
X88825000Y-102900000D01*
G75*
G02*
X88900000Y-102975000I0J-75000D01*
G01*
G37*
G36*
G01*
X88400000Y-102975000D02*
X88400000Y-104375000D01*
G75*
G02*
X88325000Y-104450000I-75000J0D01*
G01*
X88175000Y-104450000D01*
G75*
G02*
X88100000Y-104375000I0J75000D01*
G01*
X88100000Y-102975000D01*
G75*
G02*
X88175000Y-102900000I75000J0D01*
G01*
X88325000Y-102900000D01*
G75*
G02*
X88400000Y-102975000I0J-75000D01*
G01*
G37*
G36*
G01*
X87900000Y-102975000D02*
X87900000Y-104375000D01*
G75*
G02*
X87825000Y-104450000I-75000J0D01*
G01*
X87675000Y-104450000D01*
G75*
G02*
X87600000Y-104375000I0J75000D01*
G01*
X87600000Y-102975000D01*
G75*
G02*
X87675000Y-102900000I75000J0D01*
G01*
X87825000Y-102900000D01*
G75*
G02*
X87900000Y-102975000I0J-75000D01*
G01*
G37*
G36*
G01*
X87400000Y-102975000D02*
X87400000Y-104375000D01*
G75*
G02*
X87325000Y-104450000I-75000J0D01*
G01*
X87175000Y-104450000D01*
G75*
G02*
X87100000Y-104375000I0J75000D01*
G01*
X87100000Y-102975000D01*
G75*
G02*
X87175000Y-102900000I75000J0D01*
G01*
X87325000Y-102900000D01*
G75*
G02*
X87400000Y-102975000I0J-75000D01*
G01*
G37*
G36*
G01*
X86900000Y-102975000D02*
X86900000Y-104375000D01*
G75*
G02*
X86825000Y-104450000I-75000J0D01*
G01*
X86675000Y-104450000D01*
G75*
G02*
X86600000Y-104375000I0J75000D01*
G01*
X86600000Y-102975000D01*
G75*
G02*
X86675000Y-102900000I75000J0D01*
G01*
X86825000Y-102900000D01*
G75*
G02*
X86900000Y-102975000I0J-75000D01*
G01*
G37*
G36*
G01*
X86400000Y-102975000D02*
X86400000Y-104375000D01*
G75*
G02*
X86325000Y-104450000I-75000J0D01*
G01*
X86175000Y-104450000D01*
G75*
G02*
X86100000Y-104375000I0J75000D01*
G01*
X86100000Y-102975000D01*
G75*
G02*
X86175000Y-102900000I75000J0D01*
G01*
X86325000Y-102900000D01*
G75*
G02*
X86400000Y-102975000I0J-75000D01*
G01*
G37*
G36*
G01*
X85900000Y-102975000D02*
X85900000Y-104375000D01*
G75*
G02*
X85825000Y-104450000I-75000J0D01*
G01*
X85675000Y-104450000D01*
G75*
G02*
X85600000Y-104375000I0J75000D01*
G01*
X85600000Y-102975000D01*
G75*
G02*
X85675000Y-102900000I75000J0D01*
G01*
X85825000Y-102900000D01*
G75*
G02*
X85900000Y-102975000I0J-75000D01*
G01*
G37*
G36*
G01*
X85400000Y-102975000D02*
X85400000Y-104375000D01*
G75*
G02*
X85325000Y-104450000I-75000J0D01*
G01*
X85175000Y-104450000D01*
G75*
G02*
X85100000Y-104375000I0J75000D01*
G01*
X85100000Y-102975000D01*
G75*
G02*
X85175000Y-102900000I75000J0D01*
G01*
X85325000Y-102900000D01*
G75*
G02*
X85400000Y-102975000I0J-75000D01*
G01*
G37*
G36*
G01*
X84900000Y-102975000D02*
X84900000Y-104375000D01*
G75*
G02*
X84825000Y-104450000I-75000J0D01*
G01*
X84675000Y-104450000D01*
G75*
G02*
X84600000Y-104375000I0J75000D01*
G01*
X84600000Y-102975000D01*
G75*
G02*
X84675000Y-102900000I75000J0D01*
G01*
X84825000Y-102900000D01*
G75*
G02*
X84900000Y-102975000I0J-75000D01*
G01*
G37*
G36*
G01*
X84400000Y-102975000D02*
X84400000Y-104375000D01*
G75*
G02*
X84325000Y-104450000I-75000J0D01*
G01*
X84175000Y-104450000D01*
G75*
G02*
X84100000Y-104375000I0J75000D01*
G01*
X84100000Y-102975000D01*
G75*
G02*
X84175000Y-102900000I75000J0D01*
G01*
X84325000Y-102900000D01*
G75*
G02*
X84400000Y-102975000I0J-75000D01*
G01*
G37*
G36*
G01*
X83900000Y-102975000D02*
X83900000Y-104375000D01*
G75*
G02*
X83825000Y-104450000I-75000J0D01*
G01*
X83675000Y-104450000D01*
G75*
G02*
X83600000Y-104375000I0J75000D01*
G01*
X83600000Y-102975000D01*
G75*
G02*
X83675000Y-102900000I75000J0D01*
G01*
X83825000Y-102900000D01*
G75*
G02*
X83900000Y-102975000I0J-75000D01*
G01*
G37*
G36*
G01*
X83400000Y-102975000D02*
X83400000Y-104375000D01*
G75*
G02*
X83325000Y-104450000I-75000J0D01*
G01*
X83175000Y-104450000D01*
G75*
G02*
X83100000Y-104375000I0J75000D01*
G01*
X83100000Y-102975000D01*
G75*
G02*
X83175000Y-102900000I75000J0D01*
G01*
X83325000Y-102900000D01*
G75*
G02*
X83400000Y-102975000I0J-75000D01*
G01*
G37*
G36*
G01*
X82100000Y-101675000D02*
X82100000Y-101825000D01*
G75*
G02*
X82025000Y-101900000I-75000J0D01*
G01*
X80625000Y-101900000D01*
G75*
G02*
X80550000Y-101825000I0J75000D01*
G01*
X80550000Y-101675000D01*
G75*
G02*
X80625000Y-101600000I75000J0D01*
G01*
X82025000Y-101600000D01*
G75*
G02*
X82100000Y-101675000I0J-75000D01*
G01*
G37*
G36*
G01*
X82100000Y-101175000D02*
X82100000Y-101325000D01*
G75*
G02*
X82025000Y-101400000I-75000J0D01*
G01*
X80625000Y-101400000D01*
G75*
G02*
X80550000Y-101325000I0J75000D01*
G01*
X80550000Y-101175000D01*
G75*
G02*
X80625000Y-101100000I75000J0D01*
G01*
X82025000Y-101100000D01*
G75*
G02*
X82100000Y-101175000I0J-75000D01*
G01*
G37*
G36*
G01*
X82100000Y-100675000D02*
X82100000Y-100825000D01*
G75*
G02*
X82025000Y-100900000I-75000J0D01*
G01*
X80625000Y-100900000D01*
G75*
G02*
X80550000Y-100825000I0J75000D01*
G01*
X80550000Y-100675000D01*
G75*
G02*
X80625000Y-100600000I75000J0D01*
G01*
X82025000Y-100600000D01*
G75*
G02*
X82100000Y-100675000I0J-75000D01*
G01*
G37*
G36*
G01*
X82100000Y-100175000D02*
X82100000Y-100325000D01*
G75*
G02*
X82025000Y-100400000I-75000J0D01*
G01*
X80625000Y-100400000D01*
G75*
G02*
X80550000Y-100325000I0J75000D01*
G01*
X80550000Y-100175000D01*
G75*
G02*
X80625000Y-100100000I75000J0D01*
G01*
X82025000Y-100100000D01*
G75*
G02*
X82100000Y-100175000I0J-75000D01*
G01*
G37*
G36*
G01*
X82100000Y-99675000D02*
X82100000Y-99825000D01*
G75*
G02*
X82025000Y-99900000I-75000J0D01*
G01*
X80625000Y-99900000D01*
G75*
G02*
X80550000Y-99825000I0J75000D01*
G01*
X80550000Y-99675000D01*
G75*
G02*
X80625000Y-99600000I75000J0D01*
G01*
X82025000Y-99600000D01*
G75*
G02*
X82100000Y-99675000I0J-75000D01*
G01*
G37*
G36*
G01*
X82100000Y-99175000D02*
X82100000Y-99325000D01*
G75*
G02*
X82025000Y-99400000I-75000J0D01*
G01*
X80625000Y-99400000D01*
G75*
G02*
X80550000Y-99325000I0J75000D01*
G01*
X80550000Y-99175000D01*
G75*
G02*
X80625000Y-99100000I75000J0D01*
G01*
X82025000Y-99100000D01*
G75*
G02*
X82100000Y-99175000I0J-75000D01*
G01*
G37*
G36*
G01*
X82100000Y-98675000D02*
X82100000Y-98825000D01*
G75*
G02*
X82025000Y-98900000I-75000J0D01*
G01*
X80625000Y-98900000D01*
G75*
G02*
X80550000Y-98825000I0J75000D01*
G01*
X80550000Y-98675000D01*
G75*
G02*
X80625000Y-98600000I75000J0D01*
G01*
X82025000Y-98600000D01*
G75*
G02*
X82100000Y-98675000I0J-75000D01*
G01*
G37*
G36*
G01*
X82100000Y-98175000D02*
X82100000Y-98325000D01*
G75*
G02*
X82025000Y-98400000I-75000J0D01*
G01*
X80625000Y-98400000D01*
G75*
G02*
X80550000Y-98325000I0J75000D01*
G01*
X80550000Y-98175000D01*
G75*
G02*
X80625000Y-98100000I75000J0D01*
G01*
X82025000Y-98100000D01*
G75*
G02*
X82100000Y-98175000I0J-75000D01*
G01*
G37*
G36*
G01*
X82100000Y-97675000D02*
X82100000Y-97825000D01*
G75*
G02*
X82025000Y-97900000I-75000J0D01*
G01*
X80625000Y-97900000D01*
G75*
G02*
X80550000Y-97825000I0J75000D01*
G01*
X80550000Y-97675000D01*
G75*
G02*
X80625000Y-97600000I75000J0D01*
G01*
X82025000Y-97600000D01*
G75*
G02*
X82100000Y-97675000I0J-75000D01*
G01*
G37*
G36*
G01*
X82100000Y-97175000D02*
X82100000Y-97325000D01*
G75*
G02*
X82025000Y-97400000I-75000J0D01*
G01*
X80625000Y-97400000D01*
G75*
G02*
X80550000Y-97325000I0J75000D01*
G01*
X80550000Y-97175000D01*
G75*
G02*
X80625000Y-97100000I75000J0D01*
G01*
X82025000Y-97100000D01*
G75*
G02*
X82100000Y-97175000I0J-75000D01*
G01*
G37*
G36*
G01*
X82100000Y-96675000D02*
X82100000Y-96825000D01*
G75*
G02*
X82025000Y-96900000I-75000J0D01*
G01*
X80625000Y-96900000D01*
G75*
G02*
X80550000Y-96825000I0J75000D01*
G01*
X80550000Y-96675000D01*
G75*
G02*
X80625000Y-96600000I75000J0D01*
G01*
X82025000Y-96600000D01*
G75*
G02*
X82100000Y-96675000I0J-75000D01*
G01*
G37*
G36*
G01*
X82100000Y-96175000D02*
X82100000Y-96325000D01*
G75*
G02*
X82025000Y-96400000I-75000J0D01*
G01*
X80625000Y-96400000D01*
G75*
G02*
X80550000Y-96325000I0J75000D01*
G01*
X80550000Y-96175000D01*
G75*
G02*
X80625000Y-96100000I75000J0D01*
G01*
X82025000Y-96100000D01*
G75*
G02*
X82100000Y-96175000I0J-75000D01*
G01*
G37*
G36*
G01*
X82100000Y-95675000D02*
X82100000Y-95825000D01*
G75*
G02*
X82025000Y-95900000I-75000J0D01*
G01*
X80625000Y-95900000D01*
G75*
G02*
X80550000Y-95825000I0J75000D01*
G01*
X80550000Y-95675000D01*
G75*
G02*
X80625000Y-95600000I75000J0D01*
G01*
X82025000Y-95600000D01*
G75*
G02*
X82100000Y-95675000I0J-75000D01*
G01*
G37*
G36*
G01*
X82100000Y-95175000D02*
X82100000Y-95325000D01*
G75*
G02*
X82025000Y-95400000I-75000J0D01*
G01*
X80625000Y-95400000D01*
G75*
G02*
X80550000Y-95325000I0J75000D01*
G01*
X80550000Y-95175000D01*
G75*
G02*
X80625000Y-95100000I75000J0D01*
G01*
X82025000Y-95100000D01*
G75*
G02*
X82100000Y-95175000I0J-75000D01*
G01*
G37*
G36*
G01*
X82100000Y-94675000D02*
X82100000Y-94825000D01*
G75*
G02*
X82025000Y-94900000I-75000J0D01*
G01*
X80625000Y-94900000D01*
G75*
G02*
X80550000Y-94825000I0J75000D01*
G01*
X80550000Y-94675000D01*
G75*
G02*
X80625000Y-94600000I75000J0D01*
G01*
X82025000Y-94600000D01*
G75*
G02*
X82100000Y-94675000I0J-75000D01*
G01*
G37*
G36*
G01*
X82100000Y-94175000D02*
X82100000Y-94325000D01*
G75*
G02*
X82025000Y-94400000I-75000J0D01*
G01*
X80625000Y-94400000D01*
G75*
G02*
X80550000Y-94325000I0J75000D01*
G01*
X80550000Y-94175000D01*
G75*
G02*
X80625000Y-94100000I75000J0D01*
G01*
X82025000Y-94100000D01*
G75*
G02*
X82100000Y-94175000I0J-75000D01*
G01*
G37*
G36*
G01*
X83400000Y-91625000D02*
X83400000Y-93025000D01*
G75*
G02*
X83325000Y-93100000I-75000J0D01*
G01*
X83175000Y-93100000D01*
G75*
G02*
X83100000Y-93025000I0J75000D01*
G01*
X83100000Y-91625000D01*
G75*
G02*
X83175000Y-91550000I75000J0D01*
G01*
X83325000Y-91550000D01*
G75*
G02*
X83400000Y-91625000I0J-75000D01*
G01*
G37*
G36*
G01*
X83900000Y-91625000D02*
X83900000Y-93025000D01*
G75*
G02*
X83825000Y-93100000I-75000J0D01*
G01*
X83675000Y-93100000D01*
G75*
G02*
X83600000Y-93025000I0J75000D01*
G01*
X83600000Y-91625000D01*
G75*
G02*
X83675000Y-91550000I75000J0D01*
G01*
X83825000Y-91550000D01*
G75*
G02*
X83900000Y-91625000I0J-75000D01*
G01*
G37*
G36*
G01*
X84400000Y-91625000D02*
X84400000Y-93025000D01*
G75*
G02*
X84325000Y-93100000I-75000J0D01*
G01*
X84175000Y-93100000D01*
G75*
G02*
X84100000Y-93025000I0J75000D01*
G01*
X84100000Y-91625000D01*
G75*
G02*
X84175000Y-91550000I75000J0D01*
G01*
X84325000Y-91550000D01*
G75*
G02*
X84400000Y-91625000I0J-75000D01*
G01*
G37*
G36*
G01*
X84900000Y-91625000D02*
X84900000Y-93025000D01*
G75*
G02*
X84825000Y-93100000I-75000J0D01*
G01*
X84675000Y-93100000D01*
G75*
G02*
X84600000Y-93025000I0J75000D01*
G01*
X84600000Y-91625000D01*
G75*
G02*
X84675000Y-91550000I75000J0D01*
G01*
X84825000Y-91550000D01*
G75*
G02*
X84900000Y-91625000I0J-75000D01*
G01*
G37*
G36*
G01*
X85400000Y-91625000D02*
X85400000Y-93025000D01*
G75*
G02*
X85325000Y-93100000I-75000J0D01*
G01*
X85175000Y-93100000D01*
G75*
G02*
X85100000Y-93025000I0J75000D01*
G01*
X85100000Y-91625000D01*
G75*
G02*
X85175000Y-91550000I75000J0D01*
G01*
X85325000Y-91550000D01*
G75*
G02*
X85400000Y-91625000I0J-75000D01*
G01*
G37*
G36*
G01*
X85900000Y-91625000D02*
X85900000Y-93025000D01*
G75*
G02*
X85825000Y-93100000I-75000J0D01*
G01*
X85675000Y-93100000D01*
G75*
G02*
X85600000Y-93025000I0J75000D01*
G01*
X85600000Y-91625000D01*
G75*
G02*
X85675000Y-91550000I75000J0D01*
G01*
X85825000Y-91550000D01*
G75*
G02*
X85900000Y-91625000I0J-75000D01*
G01*
G37*
G36*
G01*
X86400000Y-91625000D02*
X86400000Y-93025000D01*
G75*
G02*
X86325000Y-93100000I-75000J0D01*
G01*
X86175000Y-93100000D01*
G75*
G02*
X86100000Y-93025000I0J75000D01*
G01*
X86100000Y-91625000D01*
G75*
G02*
X86175000Y-91550000I75000J0D01*
G01*
X86325000Y-91550000D01*
G75*
G02*
X86400000Y-91625000I0J-75000D01*
G01*
G37*
G36*
G01*
X86900000Y-91625000D02*
X86900000Y-93025000D01*
G75*
G02*
X86825000Y-93100000I-75000J0D01*
G01*
X86675000Y-93100000D01*
G75*
G02*
X86600000Y-93025000I0J75000D01*
G01*
X86600000Y-91625000D01*
G75*
G02*
X86675000Y-91550000I75000J0D01*
G01*
X86825000Y-91550000D01*
G75*
G02*
X86900000Y-91625000I0J-75000D01*
G01*
G37*
G36*
G01*
X87400000Y-91625000D02*
X87400000Y-93025000D01*
G75*
G02*
X87325000Y-93100000I-75000J0D01*
G01*
X87175000Y-93100000D01*
G75*
G02*
X87100000Y-93025000I0J75000D01*
G01*
X87100000Y-91625000D01*
G75*
G02*
X87175000Y-91550000I75000J0D01*
G01*
X87325000Y-91550000D01*
G75*
G02*
X87400000Y-91625000I0J-75000D01*
G01*
G37*
G36*
G01*
X87900000Y-91625000D02*
X87900000Y-93025000D01*
G75*
G02*
X87825000Y-93100000I-75000J0D01*
G01*
X87675000Y-93100000D01*
G75*
G02*
X87600000Y-93025000I0J75000D01*
G01*
X87600000Y-91625000D01*
G75*
G02*
X87675000Y-91550000I75000J0D01*
G01*
X87825000Y-91550000D01*
G75*
G02*
X87900000Y-91625000I0J-75000D01*
G01*
G37*
G36*
G01*
X88400000Y-91625000D02*
X88400000Y-93025000D01*
G75*
G02*
X88325000Y-93100000I-75000J0D01*
G01*
X88175000Y-93100000D01*
G75*
G02*
X88100000Y-93025000I0J75000D01*
G01*
X88100000Y-91625000D01*
G75*
G02*
X88175000Y-91550000I75000J0D01*
G01*
X88325000Y-91550000D01*
G75*
G02*
X88400000Y-91625000I0J-75000D01*
G01*
G37*
G36*
G01*
X88900000Y-91625000D02*
X88900000Y-93025000D01*
G75*
G02*
X88825000Y-93100000I-75000J0D01*
G01*
X88675000Y-93100000D01*
G75*
G02*
X88600000Y-93025000I0J75000D01*
G01*
X88600000Y-91625000D01*
G75*
G02*
X88675000Y-91550000I75000J0D01*
G01*
X88825000Y-91550000D01*
G75*
G02*
X88900000Y-91625000I0J-75000D01*
G01*
G37*
G36*
G01*
X89400000Y-91625000D02*
X89400000Y-93025000D01*
G75*
G02*
X89325000Y-93100000I-75000J0D01*
G01*
X89175000Y-93100000D01*
G75*
G02*
X89100000Y-93025000I0J75000D01*
G01*
X89100000Y-91625000D01*
G75*
G02*
X89175000Y-91550000I75000J0D01*
G01*
X89325000Y-91550000D01*
G75*
G02*
X89400000Y-91625000I0J-75000D01*
G01*
G37*
G36*
G01*
X89900000Y-91625000D02*
X89900000Y-93025000D01*
G75*
G02*
X89825000Y-93100000I-75000J0D01*
G01*
X89675000Y-93100000D01*
G75*
G02*
X89600000Y-93025000I0J75000D01*
G01*
X89600000Y-91625000D01*
G75*
G02*
X89675000Y-91550000I75000J0D01*
G01*
X89825000Y-91550000D01*
G75*
G02*
X89900000Y-91625000I0J-75000D01*
G01*
G37*
G36*
G01*
X90400000Y-91625000D02*
X90400000Y-93025000D01*
G75*
G02*
X90325000Y-93100000I-75000J0D01*
G01*
X90175000Y-93100000D01*
G75*
G02*
X90100000Y-93025000I0J75000D01*
G01*
X90100000Y-91625000D01*
G75*
G02*
X90175000Y-91550000I75000J0D01*
G01*
X90325000Y-91550000D01*
G75*
G02*
X90400000Y-91625000I0J-75000D01*
G01*
G37*
G36*
G01*
X90900000Y-91625000D02*
X90900000Y-93025000D01*
G75*
G02*
X90825000Y-93100000I-75000J0D01*
G01*
X90675000Y-93100000D01*
G75*
G02*
X90600000Y-93025000I0J75000D01*
G01*
X90600000Y-91625000D01*
G75*
G02*
X90675000Y-91550000I75000J0D01*
G01*
X90825000Y-91550000D01*
G75*
G02*
X90900000Y-91625000I0J-75000D01*
G01*
G37*
G36*
G01*
X93450000Y-94175000D02*
X93450000Y-94325000D01*
G75*
G02*
X93375000Y-94400000I-75000J0D01*
G01*
X91975000Y-94400000D01*
G75*
G02*
X91900000Y-94325000I0J75000D01*
G01*
X91900000Y-94175000D01*
G75*
G02*
X91975000Y-94100000I75000J0D01*
G01*
X93375000Y-94100000D01*
G75*
G02*
X93450000Y-94175000I0J-75000D01*
G01*
G37*
G36*
G01*
X93450000Y-94675000D02*
X93450000Y-94825000D01*
G75*
G02*
X93375000Y-94900000I-75000J0D01*
G01*
X91975000Y-94900000D01*
G75*
G02*
X91900000Y-94825000I0J75000D01*
G01*
X91900000Y-94675000D01*
G75*
G02*
X91975000Y-94600000I75000J0D01*
G01*
X93375000Y-94600000D01*
G75*
G02*
X93450000Y-94675000I0J-75000D01*
G01*
G37*
G36*
G01*
X93450000Y-95175000D02*
X93450000Y-95325000D01*
G75*
G02*
X93375000Y-95400000I-75000J0D01*
G01*
X91975000Y-95400000D01*
G75*
G02*
X91900000Y-95325000I0J75000D01*
G01*
X91900000Y-95175000D01*
G75*
G02*
X91975000Y-95100000I75000J0D01*
G01*
X93375000Y-95100000D01*
G75*
G02*
X93450000Y-95175000I0J-75000D01*
G01*
G37*
G36*
G01*
X93450000Y-95675000D02*
X93450000Y-95825000D01*
G75*
G02*
X93375000Y-95900000I-75000J0D01*
G01*
X91975000Y-95900000D01*
G75*
G02*
X91900000Y-95825000I0J75000D01*
G01*
X91900000Y-95675000D01*
G75*
G02*
X91975000Y-95600000I75000J0D01*
G01*
X93375000Y-95600000D01*
G75*
G02*
X93450000Y-95675000I0J-75000D01*
G01*
G37*
G36*
G01*
X93450000Y-96175000D02*
X93450000Y-96325000D01*
G75*
G02*
X93375000Y-96400000I-75000J0D01*
G01*
X91975000Y-96400000D01*
G75*
G02*
X91900000Y-96325000I0J75000D01*
G01*
X91900000Y-96175000D01*
G75*
G02*
X91975000Y-96100000I75000J0D01*
G01*
X93375000Y-96100000D01*
G75*
G02*
X93450000Y-96175000I0J-75000D01*
G01*
G37*
G36*
G01*
X93450000Y-96675000D02*
X93450000Y-96825000D01*
G75*
G02*
X93375000Y-96900000I-75000J0D01*
G01*
X91975000Y-96900000D01*
G75*
G02*
X91900000Y-96825000I0J75000D01*
G01*
X91900000Y-96675000D01*
G75*
G02*
X91975000Y-96600000I75000J0D01*
G01*
X93375000Y-96600000D01*
G75*
G02*
X93450000Y-96675000I0J-75000D01*
G01*
G37*
G36*
G01*
X93450000Y-97175000D02*
X93450000Y-97325000D01*
G75*
G02*
X93375000Y-97400000I-75000J0D01*
G01*
X91975000Y-97400000D01*
G75*
G02*
X91900000Y-97325000I0J75000D01*
G01*
X91900000Y-97175000D01*
G75*
G02*
X91975000Y-97100000I75000J0D01*
G01*
X93375000Y-97100000D01*
G75*
G02*
X93450000Y-97175000I0J-75000D01*
G01*
G37*
G36*
G01*
X93450000Y-97675000D02*
X93450000Y-97825000D01*
G75*
G02*
X93375000Y-97900000I-75000J0D01*
G01*
X91975000Y-97900000D01*
G75*
G02*
X91900000Y-97825000I0J75000D01*
G01*
X91900000Y-97675000D01*
G75*
G02*
X91975000Y-97600000I75000J0D01*
G01*
X93375000Y-97600000D01*
G75*
G02*
X93450000Y-97675000I0J-75000D01*
G01*
G37*
G36*
G01*
X93450000Y-98175000D02*
X93450000Y-98325000D01*
G75*
G02*
X93375000Y-98400000I-75000J0D01*
G01*
X91975000Y-98400000D01*
G75*
G02*
X91900000Y-98325000I0J75000D01*
G01*
X91900000Y-98175000D01*
G75*
G02*
X91975000Y-98100000I75000J0D01*
G01*
X93375000Y-98100000D01*
G75*
G02*
X93450000Y-98175000I0J-75000D01*
G01*
G37*
G36*
G01*
X93450000Y-98675000D02*
X93450000Y-98825000D01*
G75*
G02*
X93375000Y-98900000I-75000J0D01*
G01*
X91975000Y-98900000D01*
G75*
G02*
X91900000Y-98825000I0J75000D01*
G01*
X91900000Y-98675000D01*
G75*
G02*
X91975000Y-98600000I75000J0D01*
G01*
X93375000Y-98600000D01*
G75*
G02*
X93450000Y-98675000I0J-75000D01*
G01*
G37*
G36*
G01*
X93450000Y-99175000D02*
X93450000Y-99325000D01*
G75*
G02*
X93375000Y-99400000I-75000J0D01*
G01*
X91975000Y-99400000D01*
G75*
G02*
X91900000Y-99325000I0J75000D01*
G01*
X91900000Y-99175000D01*
G75*
G02*
X91975000Y-99100000I75000J0D01*
G01*
X93375000Y-99100000D01*
G75*
G02*
X93450000Y-99175000I0J-75000D01*
G01*
G37*
G36*
G01*
X93450000Y-99675000D02*
X93450000Y-99825000D01*
G75*
G02*
X93375000Y-99900000I-75000J0D01*
G01*
X91975000Y-99900000D01*
G75*
G02*
X91900000Y-99825000I0J75000D01*
G01*
X91900000Y-99675000D01*
G75*
G02*
X91975000Y-99600000I75000J0D01*
G01*
X93375000Y-99600000D01*
G75*
G02*
X93450000Y-99675000I0J-75000D01*
G01*
G37*
G36*
G01*
X93450000Y-100175000D02*
X93450000Y-100325000D01*
G75*
G02*
X93375000Y-100400000I-75000J0D01*
G01*
X91975000Y-100400000D01*
G75*
G02*
X91900000Y-100325000I0J75000D01*
G01*
X91900000Y-100175000D01*
G75*
G02*
X91975000Y-100100000I75000J0D01*
G01*
X93375000Y-100100000D01*
G75*
G02*
X93450000Y-100175000I0J-75000D01*
G01*
G37*
G36*
G01*
X93450000Y-100675000D02*
X93450000Y-100825000D01*
G75*
G02*
X93375000Y-100900000I-75000J0D01*
G01*
X91975000Y-100900000D01*
G75*
G02*
X91900000Y-100825000I0J75000D01*
G01*
X91900000Y-100675000D01*
G75*
G02*
X91975000Y-100600000I75000J0D01*
G01*
X93375000Y-100600000D01*
G75*
G02*
X93450000Y-100675000I0J-75000D01*
G01*
G37*
G36*
G01*
X93450000Y-101175000D02*
X93450000Y-101325000D01*
G75*
G02*
X93375000Y-101400000I-75000J0D01*
G01*
X91975000Y-101400000D01*
G75*
G02*
X91900000Y-101325000I0J75000D01*
G01*
X91900000Y-101175000D01*
G75*
G02*
X91975000Y-101100000I75000J0D01*
G01*
X93375000Y-101100000D01*
G75*
G02*
X93450000Y-101175000I0J-75000D01*
G01*
G37*
G36*
G01*
X93450000Y-101675000D02*
X93450000Y-101825000D01*
G75*
G02*
X93375000Y-101900000I-75000J0D01*
G01*
X91975000Y-101900000D01*
G75*
G02*
X91900000Y-101825000I0J75000D01*
G01*
X91900000Y-101675000D01*
G75*
G02*
X91975000Y-101600000I75000J0D01*
G01*
X93375000Y-101600000D01*
G75*
G02*
X93450000Y-101675000I0J-75000D01*
G01*
G37*
%TD*%
D10*
%TO.C,U4*%
X72050000Y-78200000D03*
X72050000Y-82800000D03*
X72050000Y-80500000D03*
D11*
X78350000Y-80500000D03*
%TD*%
D12*
%TO.C,D1*%
X80400000Y-121000000D03*
X82600000Y-121000000D03*
%TD*%
%TO.C,C19*%
G36*
G01*
X77075000Y-120850000D02*
X77075000Y-121350000D01*
G75*
G02*
X76850000Y-121575000I-225000J0D01*
G01*
X76400000Y-121575000D01*
G75*
G02*
X76175000Y-121350000I0J225000D01*
G01*
X76175000Y-120850000D01*
G75*
G02*
X76400000Y-120625000I225000J0D01*
G01*
X76850000Y-120625000D01*
G75*
G02*
X77075000Y-120850000I0J-225000D01*
G01*
G37*
G36*
G01*
X78625000Y-120850000D02*
X78625000Y-121350000D01*
G75*
G02*
X78400000Y-121575000I-225000J0D01*
G01*
X77950000Y-121575000D01*
G75*
G02*
X77725000Y-121350000I0J225000D01*
G01*
X77725000Y-120850000D01*
G75*
G02*
X77950000Y-120625000I225000J0D01*
G01*
X78400000Y-120625000D01*
G75*
G02*
X78625000Y-120850000I0J-225000D01*
G01*
G37*
%TD*%
%TO.C,C5*%
G36*
G01*
X80750000Y-104025000D02*
X81250000Y-104025000D01*
G75*
G02*
X81475000Y-104250000I0J-225000D01*
G01*
X81475000Y-104700000D01*
G75*
G02*
X81250000Y-104925000I-225000J0D01*
G01*
X80750000Y-104925000D01*
G75*
G02*
X80525000Y-104700000I0J225000D01*
G01*
X80525000Y-104250000D01*
G75*
G02*
X80750000Y-104025000I225000J0D01*
G01*
G37*
G36*
G01*
X80750000Y-102475000D02*
X81250000Y-102475000D01*
G75*
G02*
X81475000Y-102700000I0J-225000D01*
G01*
X81475000Y-103150000D01*
G75*
G02*
X81250000Y-103375000I-225000J0D01*
G01*
X80750000Y-103375000D01*
G75*
G02*
X80525000Y-103150000I0J225000D01*
G01*
X80525000Y-102700000D01*
G75*
G02*
X80750000Y-102475000I225000J0D01*
G01*
G37*
%TD*%
D13*
%TO.C,SW1*%
X97400000Y-59500000D03*
X104600000Y-59500000D03*
X97400000Y-56500000D03*
X104600000Y-56500000D03*
%TD*%
%TO.C,R13*%
G36*
G01*
X66849998Y-94400000D02*
X67750002Y-94400000D01*
G75*
G02*
X68000000Y-94649998I0J-249998D01*
G01*
X68000000Y-95175002D01*
G75*
G02*
X67750002Y-95425000I-249998J0D01*
G01*
X66849998Y-95425000D01*
G75*
G02*
X66600000Y-95175002I0J249998D01*
G01*
X66600000Y-94649998D01*
G75*
G02*
X66849998Y-94400000I249998J0D01*
G01*
G37*
G36*
G01*
X66849998Y-92575000D02*
X67750002Y-92575000D01*
G75*
G02*
X68000000Y-92824998I0J-249998D01*
G01*
X68000000Y-93350002D01*
G75*
G02*
X67750002Y-93600000I-249998J0D01*
G01*
X66849998Y-93600000D01*
G75*
G02*
X66600000Y-93350002I0J249998D01*
G01*
X66600000Y-92824998D01*
G75*
G02*
X66849998Y-92575000I249998J0D01*
G01*
G37*
%TD*%
%TO.C,R11*%
G36*
G01*
X75375000Y-84625000D02*
X75375000Y-85175000D01*
G75*
G02*
X75175000Y-85375000I-200000J0D01*
G01*
X74775000Y-85375000D01*
G75*
G02*
X74575000Y-85175000I0J200000D01*
G01*
X74575000Y-84625000D01*
G75*
G02*
X74775000Y-84425000I200000J0D01*
G01*
X75175000Y-84425000D01*
G75*
G02*
X75375000Y-84625000I0J-200000D01*
G01*
G37*
G36*
G01*
X77025000Y-84625000D02*
X77025000Y-85175000D01*
G75*
G02*
X76825000Y-85375000I-200000J0D01*
G01*
X76425000Y-85375000D01*
G75*
G02*
X76225000Y-85175000I0J200000D01*
G01*
X76225000Y-84625000D01*
G75*
G02*
X76425000Y-84425000I200000J0D01*
G01*
X76825000Y-84425000D01*
G75*
G02*
X77025000Y-84625000I0J-200000D01*
G01*
G37*
%TD*%
%TO.C,R9*%
G36*
G01*
X91475000Y-60825000D02*
X91475000Y-61375000D01*
G75*
G02*
X91275000Y-61575000I-200000J0D01*
G01*
X90875000Y-61575000D01*
G75*
G02*
X90675000Y-61375000I0J200000D01*
G01*
X90675000Y-60825000D01*
G75*
G02*
X90875000Y-60625000I200000J0D01*
G01*
X91275000Y-60625000D01*
G75*
G02*
X91475000Y-60825000I0J-200000D01*
G01*
G37*
G36*
G01*
X93125000Y-60825000D02*
X93125000Y-61375000D01*
G75*
G02*
X92925000Y-61575000I-200000J0D01*
G01*
X92525000Y-61575000D01*
G75*
G02*
X92325000Y-61375000I0J200000D01*
G01*
X92325000Y-60825000D01*
G75*
G02*
X92525000Y-60625000I200000J0D01*
G01*
X92925000Y-60625000D01*
G75*
G02*
X93125000Y-60825000I0J-200000D01*
G01*
G37*
%TD*%
%TO.C,R8*%
G36*
G01*
X89200000Y-61375000D02*
X89200000Y-60825000D01*
G75*
G02*
X89400000Y-60625000I200000J0D01*
G01*
X89800000Y-60625000D01*
G75*
G02*
X90000000Y-60825000I0J-200000D01*
G01*
X90000000Y-61375000D01*
G75*
G02*
X89800000Y-61575000I-200000J0D01*
G01*
X89400000Y-61575000D01*
G75*
G02*
X89200000Y-61375000I0J200000D01*
G01*
G37*
G36*
G01*
X87550000Y-61375000D02*
X87550000Y-60825000D01*
G75*
G02*
X87750000Y-60625000I200000J0D01*
G01*
X88150000Y-60625000D01*
G75*
G02*
X88350000Y-60825000I0J-200000D01*
G01*
X88350000Y-61375000D01*
G75*
G02*
X88150000Y-61575000I-200000J0D01*
G01*
X87750000Y-61575000D01*
G75*
G02*
X87550000Y-61375000I0J200000D01*
G01*
G37*
%TD*%
%TO.C,R7*%
G36*
G01*
X85875000Y-117175000D02*
X85325000Y-117175000D01*
G75*
G02*
X85125000Y-116975000I0J200000D01*
G01*
X85125000Y-116575000D01*
G75*
G02*
X85325000Y-116375000I200000J0D01*
G01*
X85875000Y-116375000D01*
G75*
G02*
X86075000Y-116575000I0J-200000D01*
G01*
X86075000Y-116975000D01*
G75*
G02*
X85875000Y-117175000I-200000J0D01*
G01*
G37*
G36*
G01*
X85875000Y-118825000D02*
X85325000Y-118825000D01*
G75*
G02*
X85125000Y-118625000I0J200000D01*
G01*
X85125000Y-118225000D01*
G75*
G02*
X85325000Y-118025000I200000J0D01*
G01*
X85875000Y-118025000D01*
G75*
G02*
X86075000Y-118225000I0J-200000D01*
G01*
X86075000Y-118625000D01*
G75*
G02*
X85875000Y-118825000I-200000J0D01*
G01*
G37*
%TD*%
%TO.C,R6*%
G36*
G01*
X85325000Y-121025000D02*
X85875000Y-121025000D01*
G75*
G02*
X86075000Y-121225000I0J-200000D01*
G01*
X86075000Y-121625000D01*
G75*
G02*
X85875000Y-121825000I-200000J0D01*
G01*
X85325000Y-121825000D01*
G75*
G02*
X85125000Y-121625000I0J200000D01*
G01*
X85125000Y-121225000D01*
G75*
G02*
X85325000Y-121025000I200000J0D01*
G01*
G37*
G36*
G01*
X85325000Y-119375000D02*
X85875000Y-119375000D01*
G75*
G02*
X86075000Y-119575000I0J-200000D01*
G01*
X86075000Y-119975000D01*
G75*
G02*
X85875000Y-120175000I-200000J0D01*
G01*
X85325000Y-120175000D01*
G75*
G02*
X85125000Y-119975000I0J200000D01*
G01*
X85125000Y-119575000D01*
G75*
G02*
X85325000Y-119375000I200000J0D01*
G01*
G37*
%TD*%
%TO.C,R5*%
G36*
G01*
X86825000Y-121000000D02*
X87375000Y-121000000D01*
G75*
G02*
X87575000Y-121200000I0J-200000D01*
G01*
X87575000Y-121600000D01*
G75*
G02*
X87375000Y-121800000I-200000J0D01*
G01*
X86825000Y-121800000D01*
G75*
G02*
X86625000Y-121600000I0J200000D01*
G01*
X86625000Y-121200000D01*
G75*
G02*
X86825000Y-121000000I200000J0D01*
G01*
G37*
G36*
G01*
X86825000Y-119350000D02*
X87375000Y-119350000D01*
G75*
G02*
X87575000Y-119550000I0J-200000D01*
G01*
X87575000Y-119950000D01*
G75*
G02*
X87375000Y-120150000I-200000J0D01*
G01*
X86825000Y-120150000D01*
G75*
G02*
X86625000Y-119950000I0J200000D01*
G01*
X86625000Y-119550000D01*
G75*
G02*
X86825000Y-119350000I200000J0D01*
G01*
G37*
%TD*%
%TO.C,R2*%
G36*
G01*
X88975000Y-123125000D02*
X88975000Y-123675000D01*
G75*
G02*
X88775000Y-123875000I-200000J0D01*
G01*
X88375000Y-123875000D01*
G75*
G02*
X88175000Y-123675000I0J200000D01*
G01*
X88175000Y-123125000D01*
G75*
G02*
X88375000Y-122925000I200000J0D01*
G01*
X88775000Y-122925000D01*
G75*
G02*
X88975000Y-123125000I0J-200000D01*
G01*
G37*
G36*
G01*
X90625000Y-123125000D02*
X90625000Y-123675000D01*
G75*
G02*
X90425000Y-123875000I-200000J0D01*
G01*
X90025000Y-123875000D01*
G75*
G02*
X89825000Y-123675000I0J200000D01*
G01*
X89825000Y-123125000D01*
G75*
G02*
X90025000Y-122925000I200000J0D01*
G01*
X90425000Y-122925000D01*
G75*
G02*
X90625000Y-123125000I0J-200000D01*
G01*
G37*
%TD*%
%TO.C,R12*%
G36*
G01*
X73275000Y-96075000D02*
X72725000Y-96075000D01*
G75*
G02*
X72525000Y-95875000I0J200000D01*
G01*
X72525000Y-95475000D01*
G75*
G02*
X72725000Y-95275000I200000J0D01*
G01*
X73275000Y-95275000D01*
G75*
G02*
X73475000Y-95475000I0J-200000D01*
G01*
X73475000Y-95875000D01*
G75*
G02*
X73275000Y-96075000I-200000J0D01*
G01*
G37*
G36*
G01*
X73275000Y-97725000D02*
X72725000Y-97725000D01*
G75*
G02*
X72525000Y-97525000I0J200000D01*
G01*
X72525000Y-97125000D01*
G75*
G02*
X72725000Y-96925000I200000J0D01*
G01*
X73275000Y-96925000D01*
G75*
G02*
X73475000Y-97125000I0J-200000D01*
G01*
X73475000Y-97525000D01*
G75*
G02*
X73275000Y-97725000I-200000J0D01*
G01*
G37*
%TD*%
%TO.C,R10*%
G36*
G01*
X74775000Y-96075000D02*
X74225000Y-96075000D01*
G75*
G02*
X74025000Y-95875000I0J200000D01*
G01*
X74025000Y-95475000D01*
G75*
G02*
X74225000Y-95275000I200000J0D01*
G01*
X74775000Y-95275000D01*
G75*
G02*
X74975000Y-95475000I0J-200000D01*
G01*
X74975000Y-95875000D01*
G75*
G02*
X74775000Y-96075000I-200000J0D01*
G01*
G37*
G36*
G01*
X74775000Y-97725000D02*
X74225000Y-97725000D01*
G75*
G02*
X74025000Y-97525000I0J200000D01*
G01*
X74025000Y-97125000D01*
G75*
G02*
X74225000Y-96925000I200000J0D01*
G01*
X74775000Y-96925000D01*
G75*
G02*
X74975000Y-97125000I0J-200000D01*
G01*
X74975000Y-97525000D01*
G75*
G02*
X74775000Y-97725000I-200000J0D01*
G01*
G37*
%TD*%
%TO.C,R14*%
G36*
G01*
X83512500Y-123650002D02*
X83512500Y-122749998D01*
G75*
G02*
X83762498Y-122500000I249998J0D01*
G01*
X84287502Y-122500000D01*
G75*
G02*
X84537500Y-122749998I0J-249998D01*
G01*
X84537500Y-123650002D01*
G75*
G02*
X84287502Y-123900000I-249998J0D01*
G01*
X83762498Y-123900000D01*
G75*
G02*
X83512500Y-123650002I0J249998D01*
G01*
G37*
G36*
G01*
X81687500Y-123650002D02*
X81687500Y-122749998D01*
G75*
G02*
X81937498Y-122500000I249998J0D01*
G01*
X82462502Y-122500000D01*
G75*
G02*
X82712500Y-122749998I0J-249998D01*
G01*
X82712500Y-123650002D01*
G75*
G02*
X82462502Y-123900000I-249998J0D01*
G01*
X81937498Y-123900000D01*
G75*
G02*
X81687500Y-123650002I0J249998D01*
G01*
G37*
%TD*%
%TO.C,R15*%
G36*
G01*
X65050002Y-93600000D02*
X64149998Y-93600000D01*
G75*
G02*
X63900000Y-93350002I0J249998D01*
G01*
X63900000Y-92824998D01*
G75*
G02*
X64149998Y-92575000I249998J0D01*
G01*
X65050002Y-92575000D01*
G75*
G02*
X65300000Y-92824998I0J-249998D01*
G01*
X65300000Y-93350002D01*
G75*
G02*
X65050002Y-93600000I-249998J0D01*
G01*
G37*
G36*
G01*
X65050002Y-95425000D02*
X64149998Y-95425000D01*
G75*
G02*
X63900000Y-95175002I0J249998D01*
G01*
X63900000Y-94649998D01*
G75*
G02*
X64149998Y-94400000I249998J0D01*
G01*
X65050002Y-94400000D01*
G75*
G02*
X65300000Y-94649998I0J-249998D01*
G01*
X65300000Y-95175002D01*
G75*
G02*
X65050002Y-95425000I-249998J0D01*
G01*
G37*
%TD*%
%TO.C,R4*%
G36*
G01*
X93925000Y-107375000D02*
X93925000Y-106825000D01*
G75*
G02*
X94125000Y-106625000I200000J0D01*
G01*
X94525000Y-106625000D01*
G75*
G02*
X94725000Y-106825000I0J-200000D01*
G01*
X94725000Y-107375000D01*
G75*
G02*
X94525000Y-107575000I-200000J0D01*
G01*
X94125000Y-107575000D01*
G75*
G02*
X93925000Y-107375000I0J200000D01*
G01*
G37*
G36*
G01*
X92275000Y-107375000D02*
X92275000Y-106825000D01*
G75*
G02*
X92475000Y-106625000I200000J0D01*
G01*
X92875000Y-106625000D01*
G75*
G02*
X93075000Y-106825000I0J-200000D01*
G01*
X93075000Y-107375000D01*
G75*
G02*
X92875000Y-107575000I-200000J0D01*
G01*
X92475000Y-107575000D01*
G75*
G02*
X92275000Y-107375000I0J200000D01*
G01*
G37*
%TD*%
%TO.C,R3*%
G36*
G01*
X93075000Y-108325000D02*
X93075000Y-108875000D01*
G75*
G02*
X92875000Y-109075000I-200000J0D01*
G01*
X92475000Y-109075000D01*
G75*
G02*
X92275000Y-108875000I0J200000D01*
G01*
X92275000Y-108325000D01*
G75*
G02*
X92475000Y-108125000I200000J0D01*
G01*
X92875000Y-108125000D01*
G75*
G02*
X93075000Y-108325000I0J-200000D01*
G01*
G37*
G36*
G01*
X94725000Y-108325000D02*
X94725000Y-108875000D01*
G75*
G02*
X94525000Y-109075000I-200000J0D01*
G01*
X94125000Y-109075000D01*
G75*
G02*
X93925000Y-108875000I0J200000D01*
G01*
X93925000Y-108325000D01*
G75*
G02*
X94125000Y-108125000I200000J0D01*
G01*
X94525000Y-108125000D01*
G75*
G02*
X94725000Y-108325000I0J-200000D01*
G01*
G37*
%TD*%
%TO.C,R1*%
G36*
G01*
X97525000Y-95225000D02*
X98075000Y-95225000D01*
G75*
G02*
X98275000Y-95425000I0J-200000D01*
G01*
X98275000Y-95825000D01*
G75*
G02*
X98075000Y-96025000I-200000J0D01*
G01*
X97525000Y-96025000D01*
G75*
G02*
X97325000Y-95825000I0J200000D01*
G01*
X97325000Y-95425000D01*
G75*
G02*
X97525000Y-95225000I200000J0D01*
G01*
G37*
G36*
G01*
X97525000Y-93575000D02*
X98075000Y-93575000D01*
G75*
G02*
X98275000Y-93775000I0J-200000D01*
G01*
X98275000Y-94175000D01*
G75*
G02*
X98075000Y-94375000I-200000J0D01*
G01*
X97525000Y-94375000D01*
G75*
G02*
X97325000Y-94175000I0J200000D01*
G01*
X97325000Y-93775000D01*
G75*
G02*
X97525000Y-93575000I200000J0D01*
G01*
G37*
%TD*%
%TO.C,FB1*%
G36*
G01*
X81050000Y-88443750D02*
X81050000Y-88956250D01*
G75*
G02*
X80831250Y-89175000I-218750J0D01*
G01*
X80393750Y-89175000D01*
G75*
G02*
X80175000Y-88956250I0J218750D01*
G01*
X80175000Y-88443750D01*
G75*
G02*
X80393750Y-88225000I218750J0D01*
G01*
X80831250Y-88225000D01*
G75*
G02*
X81050000Y-88443750I0J-218750D01*
G01*
G37*
G36*
G01*
X82625000Y-88443750D02*
X82625000Y-88956250D01*
G75*
G02*
X82406250Y-89175000I-218750J0D01*
G01*
X81968750Y-89175000D01*
G75*
G02*
X81750000Y-88956250I0J218750D01*
G01*
X81750000Y-88443750D01*
G75*
G02*
X81968750Y-88225000I218750J0D01*
G01*
X82406250Y-88225000D01*
G75*
G02*
X82625000Y-88443750I0J-218750D01*
G01*
G37*
%TD*%
%TO.C,D4*%
G36*
G01*
X72300000Y-84687500D02*
X72300000Y-85112500D01*
G75*
G02*
X72087500Y-85325000I-212500J0D01*
G01*
X71287500Y-85325000D01*
G75*
G02*
X71075000Y-85112500I0J212500D01*
G01*
X71075000Y-84687500D01*
G75*
G02*
X71287500Y-84475000I212500J0D01*
G01*
X72087500Y-84475000D01*
G75*
G02*
X72300000Y-84687500I0J-212500D01*
G01*
G37*
G36*
G01*
X73925000Y-84687500D02*
X73925000Y-85112500D01*
G75*
G02*
X73712500Y-85325000I-212500J0D01*
G01*
X72912500Y-85325000D01*
G75*
G02*
X72700000Y-85112500I0J212500D01*
G01*
X72700000Y-84687500D01*
G75*
G02*
X72912500Y-84475000I212500J0D01*
G01*
X73712500Y-84475000D01*
G75*
G02*
X73925000Y-84687500I0J-212500D01*
G01*
G37*
%TD*%
%TO.C,D3*%
G36*
G01*
X90887500Y-63887500D02*
X91312500Y-63887500D01*
G75*
G02*
X91525000Y-64100000I0J-212500D01*
G01*
X91525000Y-64900000D01*
G75*
G02*
X91312500Y-65112500I-212500J0D01*
G01*
X90887500Y-65112500D01*
G75*
G02*
X90675000Y-64900000I0J212500D01*
G01*
X90675000Y-64100000D01*
G75*
G02*
X90887500Y-63887500I212500J0D01*
G01*
G37*
G36*
G01*
X90887500Y-62262500D02*
X91312500Y-62262500D01*
G75*
G02*
X91525000Y-62475000I0J-212500D01*
G01*
X91525000Y-63275000D01*
G75*
G02*
X91312500Y-63487500I-212500J0D01*
G01*
X90887500Y-63487500D01*
G75*
G02*
X90675000Y-63275000I0J212500D01*
G01*
X90675000Y-62475000D01*
G75*
G02*
X90887500Y-62262500I212500J0D01*
G01*
G37*
%TD*%
%TO.C,D2*%
G36*
G01*
X89387500Y-63887500D02*
X89812500Y-63887500D01*
G75*
G02*
X90025000Y-64100000I0J-212500D01*
G01*
X90025000Y-64900000D01*
G75*
G02*
X89812500Y-65112500I-212500J0D01*
G01*
X89387500Y-65112500D01*
G75*
G02*
X89175000Y-64900000I0J212500D01*
G01*
X89175000Y-64100000D01*
G75*
G02*
X89387500Y-63887500I212500J0D01*
G01*
G37*
G36*
G01*
X89387500Y-62262500D02*
X89812500Y-62262500D01*
G75*
G02*
X90025000Y-62475000I0J-212500D01*
G01*
X90025000Y-63275000D01*
G75*
G02*
X89812500Y-63487500I-212500J0D01*
G01*
X89387500Y-63487500D01*
G75*
G02*
X89175000Y-63275000I0J212500D01*
G01*
X89175000Y-62475000D01*
G75*
G02*
X89387500Y-62262500I212500J0D01*
G01*
G37*
%TD*%
D14*
%TO.C,U1*%
X86300000Y-123325000D03*
X85950000Y-122475000D03*
X86650000Y-122475000D03*
%TD*%
D15*
%TO.C,J2*%
X87435000Y-128500000D03*
X85515000Y-128500000D03*
D16*
X87775000Y-125350000D03*
X87125000Y-125350000D03*
X86475000Y-125350000D03*
X85825000Y-125350000D03*
X85175000Y-125350000D03*
D10*
X89375000Y-125230000D03*
X83625000Y-125250000D03*
D17*
X89475000Y-126550000D03*
X83525000Y-126550000D03*
D18*
X83745000Y-127300000D03*
X89225000Y-127300000D03*
%TD*%
D19*
%TO.C,Y1*%
X99000000Y-101700000D03*
X99000000Y-97600000D03*
%TD*%
D20*
%TO.C,U3*%
X84700000Y-83200000D03*
X85650000Y-85200000D03*
X83750000Y-85200000D03*
%TD*%
%TO.C,C17*%
G36*
G01*
X66675000Y-78750000D02*
X65725000Y-78750000D01*
G75*
G02*
X65475000Y-78500000I0J250000D01*
G01*
X65475000Y-78000000D01*
G75*
G02*
X65725000Y-77750000I250000J0D01*
G01*
X66675000Y-77750000D01*
G75*
G02*
X66925000Y-78000000I0J-250000D01*
G01*
X66925000Y-78500000D01*
G75*
G02*
X66675000Y-78750000I-250000J0D01*
G01*
G37*
G36*
G01*
X66675000Y-80650000D02*
X65725000Y-80650000D01*
G75*
G02*
X65475000Y-80400000I0J250000D01*
G01*
X65475000Y-79900000D01*
G75*
G02*
X65725000Y-79650000I250000J0D01*
G01*
X66675000Y-79650000D01*
G75*
G02*
X66925000Y-79900000I0J-250000D01*
G01*
X66925000Y-80400000D01*
G75*
G02*
X66675000Y-80650000I-250000J0D01*
G01*
G37*
%TD*%
%TO.C,C18*%
G36*
G01*
X80750000Y-86425000D02*
X80750000Y-87375000D01*
G75*
G02*
X80500000Y-87625000I-250000J0D01*
G01*
X80000000Y-87625000D01*
G75*
G02*
X79750000Y-87375000I0J250000D01*
G01*
X79750000Y-86425000D01*
G75*
G02*
X80000000Y-86175000I250000J0D01*
G01*
X80500000Y-86175000D01*
G75*
G02*
X80750000Y-86425000I0J-250000D01*
G01*
G37*
G36*
G01*
X82650000Y-86425000D02*
X82650000Y-87375000D01*
G75*
G02*
X82400000Y-87625000I-250000J0D01*
G01*
X81900000Y-87625000D01*
G75*
G02*
X81650000Y-87375000I0J250000D01*
G01*
X81650000Y-86425000D01*
G75*
G02*
X81900000Y-86175000I250000J0D01*
G01*
X82400000Y-86175000D01*
G75*
G02*
X82650000Y-86425000I0J-250000D01*
G01*
G37*
%TD*%
%TO.C,C15*%
G36*
G01*
X68675000Y-78750000D02*
X67725000Y-78750000D01*
G75*
G02*
X67475000Y-78500000I0J250000D01*
G01*
X67475000Y-78000000D01*
G75*
G02*
X67725000Y-77750000I250000J0D01*
G01*
X68675000Y-77750000D01*
G75*
G02*
X68925000Y-78000000I0J-250000D01*
G01*
X68925000Y-78500000D01*
G75*
G02*
X68675000Y-78750000I-250000J0D01*
G01*
G37*
G36*
G01*
X68675000Y-80650000D02*
X67725000Y-80650000D01*
G75*
G02*
X67475000Y-80400000I0J250000D01*
G01*
X67475000Y-79900000D01*
G75*
G02*
X67725000Y-79650000I250000J0D01*
G01*
X68675000Y-79650000D01*
G75*
G02*
X68925000Y-79900000I0J-250000D01*
G01*
X68925000Y-80400000D01*
G75*
G02*
X68675000Y-80650000I-250000J0D01*
G01*
G37*
%TD*%
%TO.C,C16*%
G36*
G01*
X81075000Y-84850000D02*
X81075000Y-85350000D01*
G75*
G02*
X80850000Y-85575000I-225000J0D01*
G01*
X80400000Y-85575000D01*
G75*
G02*
X80175000Y-85350000I0J225000D01*
G01*
X80175000Y-84850000D01*
G75*
G02*
X80400000Y-84625000I225000J0D01*
G01*
X80850000Y-84625000D01*
G75*
G02*
X81075000Y-84850000I0J-225000D01*
G01*
G37*
G36*
G01*
X82625000Y-84850000D02*
X82625000Y-85350000D01*
G75*
G02*
X82400000Y-85575000I-225000J0D01*
G01*
X81950000Y-85575000D01*
G75*
G02*
X81725000Y-85350000I0J225000D01*
G01*
X81725000Y-84850000D01*
G75*
G02*
X81950000Y-84625000I225000J0D01*
G01*
X82400000Y-84625000D01*
G75*
G02*
X82625000Y-84850000I0J-225000D01*
G01*
G37*
%TD*%
%TO.C,C14*%
G36*
G01*
X70250000Y-79050000D02*
X69750000Y-79050000D01*
G75*
G02*
X69525000Y-78825000I0J225000D01*
G01*
X69525000Y-78375000D01*
G75*
G02*
X69750000Y-78150000I225000J0D01*
G01*
X70250000Y-78150000D01*
G75*
G02*
X70475000Y-78375000I0J-225000D01*
G01*
X70475000Y-78825000D01*
G75*
G02*
X70250000Y-79050000I-225000J0D01*
G01*
G37*
G36*
G01*
X70250000Y-80600000D02*
X69750000Y-80600000D01*
G75*
G02*
X69525000Y-80375000I0J225000D01*
G01*
X69525000Y-79925000D01*
G75*
G02*
X69750000Y-79700000I225000J0D01*
G01*
X70250000Y-79700000D01*
G75*
G02*
X70475000Y-79925000I0J-225000D01*
G01*
X70475000Y-80375000D01*
G75*
G02*
X70250000Y-80600000I-225000J0D01*
G01*
G37*
%TD*%
%TO.C,C13*%
G36*
G01*
X79575000Y-91550000D02*
X78625000Y-91550000D01*
G75*
G02*
X78375000Y-91300000I0J250000D01*
G01*
X78375000Y-90800000D01*
G75*
G02*
X78625000Y-90550000I250000J0D01*
G01*
X79575000Y-90550000D01*
G75*
G02*
X79825000Y-90800000I0J-250000D01*
G01*
X79825000Y-91300000D01*
G75*
G02*
X79575000Y-91550000I-250000J0D01*
G01*
G37*
G36*
G01*
X79575000Y-93450000D02*
X78625000Y-93450000D01*
G75*
G02*
X78375000Y-93200000I0J250000D01*
G01*
X78375000Y-92700000D01*
G75*
G02*
X78625000Y-92450000I250000J0D01*
G01*
X79575000Y-92450000D01*
G75*
G02*
X79825000Y-92700000I0J-250000D01*
G01*
X79825000Y-93200000D01*
G75*
G02*
X79575000Y-93450000I-250000J0D01*
G01*
G37*
%TD*%
%TO.C,C11*%
G36*
G01*
X93125000Y-104350000D02*
X93125000Y-103850000D01*
G75*
G02*
X93350000Y-103625000I225000J0D01*
G01*
X93800000Y-103625000D01*
G75*
G02*
X94025000Y-103850000I0J-225000D01*
G01*
X94025000Y-104350000D01*
G75*
G02*
X93800000Y-104575000I-225000J0D01*
G01*
X93350000Y-104575000D01*
G75*
G02*
X93125000Y-104350000I0J225000D01*
G01*
G37*
G36*
G01*
X91575000Y-104350000D02*
X91575000Y-103850000D01*
G75*
G02*
X91800000Y-103625000I225000J0D01*
G01*
X92250000Y-103625000D01*
G75*
G02*
X92475000Y-103850000I0J-225000D01*
G01*
X92475000Y-104350000D01*
G75*
G02*
X92250000Y-104575000I-225000J0D01*
G01*
X91800000Y-104575000D01*
G75*
G02*
X91575000Y-104350000I0J225000D01*
G01*
G37*
%TD*%
%TO.C,C12*%
G36*
G01*
X84300000Y-86425000D02*
X84300000Y-87375000D01*
G75*
G02*
X84050000Y-87625000I-250000J0D01*
G01*
X83550000Y-87625000D01*
G75*
G02*
X83300000Y-87375000I0J250000D01*
G01*
X83300000Y-86425000D01*
G75*
G02*
X83550000Y-86175000I250000J0D01*
G01*
X84050000Y-86175000D01*
G75*
G02*
X84300000Y-86425000I0J-250000D01*
G01*
G37*
G36*
G01*
X86200000Y-86425000D02*
X86200000Y-87375000D01*
G75*
G02*
X85950000Y-87625000I-250000J0D01*
G01*
X85450000Y-87625000D01*
G75*
G02*
X85200000Y-87375000I0J250000D01*
G01*
X85200000Y-86425000D01*
G75*
G02*
X85450000Y-86175000I250000J0D01*
G01*
X85950000Y-86175000D01*
G75*
G02*
X86200000Y-86425000I0J-250000D01*
G01*
G37*
%TD*%
%TO.C,C10*%
G36*
G01*
X67725000Y-83150000D02*
X68675000Y-83150000D01*
G75*
G02*
X68925000Y-83400000I0J-250000D01*
G01*
X68925000Y-83900000D01*
G75*
G02*
X68675000Y-84150000I-250000J0D01*
G01*
X67725000Y-84150000D01*
G75*
G02*
X67475000Y-83900000I0J250000D01*
G01*
X67475000Y-83400000D01*
G75*
G02*
X67725000Y-83150000I250000J0D01*
G01*
G37*
G36*
G01*
X67725000Y-81250000D02*
X68675000Y-81250000D01*
G75*
G02*
X68925000Y-81500000I0J-250000D01*
G01*
X68925000Y-82000000D01*
G75*
G02*
X68675000Y-82250000I-250000J0D01*
G01*
X67725000Y-82250000D01*
G75*
G02*
X67475000Y-82000000I0J250000D01*
G01*
X67475000Y-81500000D01*
G75*
G02*
X67725000Y-81250000I250000J0D01*
G01*
G37*
%TD*%
%TO.C,C9*%
G36*
G01*
X94225000Y-93250000D02*
X94225000Y-92750000D01*
G75*
G02*
X94450000Y-92525000I225000J0D01*
G01*
X94900000Y-92525000D01*
G75*
G02*
X95125000Y-92750000I0J-225000D01*
G01*
X95125000Y-93250000D01*
G75*
G02*
X94900000Y-93475000I-225000J0D01*
G01*
X94450000Y-93475000D01*
G75*
G02*
X94225000Y-93250000I0J225000D01*
G01*
G37*
G36*
G01*
X92675000Y-93250000D02*
X92675000Y-92750000D01*
G75*
G02*
X92900000Y-92525000I225000J0D01*
G01*
X93350000Y-92525000D01*
G75*
G02*
X93575000Y-92750000I0J-225000D01*
G01*
X93575000Y-93250000D01*
G75*
G02*
X93350000Y-93475000I-225000J0D01*
G01*
X92900000Y-93475000D01*
G75*
G02*
X92675000Y-93250000I0J225000D01*
G01*
G37*
%TD*%
%TO.C,C8*%
G36*
G01*
X84350000Y-88450000D02*
X84350000Y-88950000D01*
G75*
G02*
X84125000Y-89175000I-225000J0D01*
G01*
X83675000Y-89175000D01*
G75*
G02*
X83450000Y-88950000I0J225000D01*
G01*
X83450000Y-88450000D01*
G75*
G02*
X83675000Y-88225000I225000J0D01*
G01*
X84125000Y-88225000D01*
G75*
G02*
X84350000Y-88450000I0J-225000D01*
G01*
G37*
G36*
G01*
X85900000Y-88450000D02*
X85900000Y-88950000D01*
G75*
G02*
X85675000Y-89175000I-225000J0D01*
G01*
X85225000Y-89175000D01*
G75*
G02*
X85000000Y-88950000I0J225000D01*
G01*
X85000000Y-88450000D01*
G75*
G02*
X85225000Y-88225000I225000J0D01*
G01*
X85675000Y-88225000D01*
G75*
G02*
X85900000Y-88450000I0J-225000D01*
G01*
G37*
%TD*%
%TO.C,C7*%
G36*
G01*
X65725000Y-83150000D02*
X66675000Y-83150000D01*
G75*
G02*
X66925000Y-83400000I0J-250000D01*
G01*
X66925000Y-83900000D01*
G75*
G02*
X66675000Y-84150000I-250000J0D01*
G01*
X65725000Y-84150000D01*
G75*
G02*
X65475000Y-83900000I0J250000D01*
G01*
X65475000Y-83400000D01*
G75*
G02*
X65725000Y-83150000I250000J0D01*
G01*
G37*
G36*
G01*
X65725000Y-81250000D02*
X66675000Y-81250000D01*
G75*
G02*
X66925000Y-81500000I0J-250000D01*
G01*
X66925000Y-82000000D01*
G75*
G02*
X66675000Y-82250000I-250000J0D01*
G01*
X65725000Y-82250000D01*
G75*
G02*
X65475000Y-82000000I0J250000D01*
G01*
X65475000Y-81500000D01*
G75*
G02*
X65725000Y-81250000I250000J0D01*
G01*
G37*
%TD*%
%TO.C,C6*%
G36*
G01*
X81150000Y-91875000D02*
X80650000Y-91875000D01*
G75*
G02*
X80425000Y-91650000I0J225000D01*
G01*
X80425000Y-91200000D01*
G75*
G02*
X80650000Y-90975000I225000J0D01*
G01*
X81150000Y-90975000D01*
G75*
G02*
X81375000Y-91200000I0J-225000D01*
G01*
X81375000Y-91650000D01*
G75*
G02*
X81150000Y-91875000I-225000J0D01*
G01*
G37*
G36*
G01*
X81150000Y-93425000D02*
X80650000Y-93425000D01*
G75*
G02*
X80425000Y-93200000I0J225000D01*
G01*
X80425000Y-92750000D01*
G75*
G02*
X80650000Y-92525000I225000J0D01*
G01*
X81150000Y-92525000D01*
G75*
G02*
X81375000Y-92750000I0J-225000D01*
G01*
X81375000Y-93200000D01*
G75*
G02*
X81150000Y-93425000I-225000J0D01*
G01*
G37*
%TD*%
%TO.C,C4*%
G36*
G01*
X69750000Y-82825000D02*
X70250000Y-82825000D01*
G75*
G02*
X70475000Y-83050000I0J-225000D01*
G01*
X70475000Y-83500000D01*
G75*
G02*
X70250000Y-83725000I-225000J0D01*
G01*
X69750000Y-83725000D01*
G75*
G02*
X69525000Y-83500000I0J225000D01*
G01*
X69525000Y-83050000D01*
G75*
G02*
X69750000Y-82825000I225000J0D01*
G01*
G37*
G36*
G01*
X69750000Y-81275000D02*
X70250000Y-81275000D01*
G75*
G02*
X70475000Y-81500000I0J-225000D01*
G01*
X70475000Y-81950000D01*
G75*
G02*
X70250000Y-82175000I-225000J0D01*
G01*
X69750000Y-82175000D01*
G75*
G02*
X69525000Y-81950000I0J225000D01*
G01*
X69525000Y-81500000D01*
G75*
G02*
X69750000Y-81275000I225000J0D01*
G01*
G37*
%TD*%
%TO.C,C3*%
G36*
G01*
X96770000Y-97800000D02*
X96430000Y-97800000D01*
G75*
G02*
X96290000Y-97660000I0J140000D01*
G01*
X96290000Y-97380000D01*
G75*
G02*
X96430000Y-97240000I140000J0D01*
G01*
X96770000Y-97240000D01*
G75*
G02*
X96910000Y-97380000I0J-140000D01*
G01*
X96910000Y-97660000D01*
G75*
G02*
X96770000Y-97800000I-140000J0D01*
G01*
G37*
G36*
G01*
X96770000Y-98760000D02*
X96430000Y-98760000D01*
G75*
G02*
X96290000Y-98620000I0J140000D01*
G01*
X96290000Y-98340000D01*
G75*
G02*
X96430000Y-98200000I140000J0D01*
G01*
X96770000Y-98200000D01*
G75*
G02*
X96910000Y-98340000I0J-140000D01*
G01*
X96910000Y-98620000D01*
G75*
G02*
X96770000Y-98760000I-140000J0D01*
G01*
G37*
%TD*%
%TO.C,C2*%
G36*
G01*
X96430000Y-101100000D02*
X96770000Y-101100000D01*
G75*
G02*
X96910000Y-101240000I0J-140000D01*
G01*
X96910000Y-101520000D01*
G75*
G02*
X96770000Y-101660000I-140000J0D01*
G01*
X96430000Y-101660000D01*
G75*
G02*
X96290000Y-101520000I0J140000D01*
G01*
X96290000Y-101240000D01*
G75*
G02*
X96430000Y-101100000I140000J0D01*
G01*
G37*
G36*
G01*
X96430000Y-100140000D02*
X96770000Y-100140000D01*
G75*
G02*
X96910000Y-100280000I0J-140000D01*
G01*
X96910000Y-100560000D01*
G75*
G02*
X96770000Y-100700000I-140000J0D01*
G01*
X96430000Y-100700000D01*
G75*
G02*
X96290000Y-100560000I0J140000D01*
G01*
X96290000Y-100280000D01*
G75*
G02*
X96430000Y-100140000I140000J0D01*
G01*
G37*
%TD*%
%TO.C,C1*%
G36*
G01*
X99150000Y-95125000D02*
X99650000Y-95125000D01*
G75*
G02*
X99875000Y-95350000I0J-225000D01*
G01*
X99875000Y-95800000D01*
G75*
G02*
X99650000Y-96025000I-225000J0D01*
G01*
X99150000Y-96025000D01*
G75*
G02*
X98925000Y-95800000I0J225000D01*
G01*
X98925000Y-95350000D01*
G75*
G02*
X99150000Y-95125000I225000J0D01*
G01*
G37*
G36*
G01*
X99150000Y-93575000D02*
X99650000Y-93575000D01*
G75*
G02*
X99875000Y-93800000I0J-225000D01*
G01*
X99875000Y-94250000D01*
G75*
G02*
X99650000Y-94475000I-225000J0D01*
G01*
X99150000Y-94475000D01*
G75*
G02*
X98925000Y-94250000I0J225000D01*
G01*
X98925000Y-93800000D01*
G75*
G02*
X99150000Y-93575000I225000J0D01*
G01*
G37*
%TD*%
M02*
