%TF.GenerationSoftware,KiCad,Pcbnew,(5.1.9)-1*%
%TF.CreationDate,2021-05-07T19:23:29+02:00*%
%TF.ProjectId,STM32_Launchpad_v1r1,53544d33-325f-44c6-9175-6e6368706164,rev?*%
%TF.SameCoordinates,Original*%
%TF.FileFunction,Copper,L4,Bot*%
%TF.FilePolarity,Positive*%
%FSLAX46Y46*%
G04 Gerber Fmt 4.6, Leading zero omitted, Abs format (unit mm)*
G04 Created by KiCad (PCBNEW (5.1.9)-1) date 2021-05-07 19:23:29*
%MOMM*%
%LPD*%
G01*
G04 APERTURE LIST*
%TA.AperFunction,ComponentPad*%
%ADD10O,1.700000X1.700000*%
%TD*%
%TA.AperFunction,ComponentPad*%
%ADD11R,1.700000X1.700000*%
%TD*%
%TA.AperFunction,ComponentPad*%
%ADD12O,1.350000X1.700000*%
%TD*%
%TA.AperFunction,ComponentPad*%
%ADD13O,1.100000X1.500000*%
%TD*%
%TA.AperFunction,ComponentPad*%
%ADD14C,5.700000*%
%TD*%
%TA.AperFunction,ViaPad*%
%ADD15C,0.600000*%
%TD*%
%TA.AperFunction,ViaPad*%
%ADD16C,0.800000*%
%TD*%
%TA.AperFunction,Conductor*%
%ADD17C,0.250000*%
%TD*%
%TA.AperFunction,Conductor*%
%ADD18C,0.254000*%
%TD*%
%TA.AperFunction,Conductor*%
%ADD19C,0.100000*%
%TD*%
G04 APERTURE END LIST*
D10*
%TO.P,J5,20*%
%TO.N,/GPIO\u005CEI2*%
X110260000Y-120380000D03*
%TO.P,J5,19*%
%TO.N,/CANTX*%
X107720000Y-120380000D03*
%TO.P,J5,18*%
%TO.N,/CANRX*%
X110260000Y-117840000D03*
%TO.P,J5,17*%
%TO.N,/ENCA*%
X107720000Y-117840000D03*
%TO.P,J5,16*%
%TO.N,/~SPICS*%
X110260000Y-115300000D03*
%TO.P,J5,15*%
%TO.N,/ENCB*%
X107720000Y-115300000D03*
%TO.P,J5,14*%
%TO.N,/SPIMISO*%
X110260000Y-112760000D03*
%TO.P,J5,13*%
%TO.N,/ENCZ*%
X107720000Y-112760000D03*
%TO.P,J5,12*%
%TO.N,/SPIMOSI*%
X110260000Y-110220000D03*
%TO.P,J5,11*%
%TO.N,/PWMCL*%
X107720000Y-110220000D03*
%TO.P,J5,10*%
%TO.N,/~RESET*%
X110260000Y-107680000D03*
%TO.P,J5,9*%
%TO.N,/PWMCH*%
X107720000Y-107680000D03*
%TO.P,J5,8*%
%TO.N,/GPIO\u005CEI4*%
X110260000Y-105140000D03*
%TO.P,J5,7*%
%TO.N,/PWMBL*%
X107720000Y-105140000D03*
%TO.P,J5,6*%
%TO.N,/GPIO\u005CEI3*%
X110260000Y-102600000D03*
%TO.P,J5,5*%
%TO.N,/PWMBH*%
X107720000Y-102600000D03*
%TO.P,J5,4*%
%TO.N,/GPIO\u005CEI1*%
X110260000Y-100060000D03*
%TO.P,J5,3*%
%TO.N,/PWMAL*%
X107720000Y-100060000D03*
%TO.P,J5,2*%
%TO.N,GND*%
X110260000Y-97520000D03*
D11*
%TO.P,J5,1*%
%TO.N,/PWMAH*%
X107720000Y-97520000D03*
%TD*%
D10*
%TO.P,J8,2*%
%TO.N,/LEDR*%
X88960000Y-58500000D03*
D11*
%TO.P,J8,1*%
%TO.N,/LEDG*%
X91500000Y-58500000D03*
%TD*%
%TO.P,J7,1*%
%TO.N,+3V3*%
X77500000Y-123100000D03*
D10*
%TO.P,J7,2*%
%TO.N,/SPIE_MOSI*%
X77500000Y-125640000D03*
%TO.P,J7,4*%
%TO.N,/SPIE_MISO*%
X74960000Y-125640000D03*
%TO.P,J7,6*%
%TO.N,GND*%
X72420000Y-125640000D03*
%TO.P,J7,5*%
%TO.N,/SPIE_CLK*%
X72420000Y-123100000D03*
%TO.P,J7,3*%
%TO.N,/~SPIE_CS*%
X74960000Y-123100000D03*
%TD*%
%TO.P,J4,2*%
%TO.N,GND*%
X99200000Y-108140000D03*
D11*
%TO.P,J4,1*%
%TO.N,/VBAT*%
X99200000Y-105600000D03*
%TD*%
D10*
%TO.P,J6,3*%
%TO.N,GND*%
X101280000Y-126100000D03*
%TO.P,J6,2*%
X98740000Y-126100000D03*
D11*
%TO.P,J6,1*%
%TO.N,+3V3*%
X96200000Y-126100000D03*
%TD*%
D10*
%TO.P,J1,4*%
%TO.N,GND*%
X68460000Y-58000000D03*
%TO.P,J1,3*%
%TO.N,/SWDIO*%
X71000000Y-58000000D03*
%TO.P,J1,2*%
%TO.N,/SWCLK*%
X73540000Y-58000000D03*
D11*
%TO.P,J1,1*%
%TO.N,+3V3*%
X76080000Y-58000000D03*
%TD*%
D12*
%TO.P,J2,6*%
%TO.N,GND*%
X89205000Y-128230000D03*
X83745000Y-128230000D03*
D13*
X88895000Y-125230000D03*
X84055000Y-125230000D03*
%TD*%
D14*
%TO.P,H4,1*%
%TO.N,GND*%
X63500000Y-127000000D03*
%TD*%
%TO.P,H3,1*%
%TO.N,GND*%
X63500000Y-58000000D03*
%TD*%
%TO.P,H2,1*%
%TO.N,GND*%
X111500000Y-58000000D03*
%TD*%
%TO.P,H1,1*%
%TO.N,GND*%
X111500000Y-127000000D03*
%TD*%
D10*
%TO.P,J3,20*%
%TO.N,/PB14_AD4*%
X67080000Y-120380000D03*
%TO.P,J3,19*%
%TO.N,/SDA*%
X64540000Y-120380000D03*
%TO.P,J3,18*%
%TO.N,/PB12_AD4*%
X67080000Y-117840000D03*
%TO.P,J3,17*%
%TO.N,/SCL*%
X64540000Y-117840000D03*
%TO.P,J3,16*%
%TO.N,/PC1_AD2*%
X67080000Y-115300000D03*
%TO.P,J3,15*%
%TO.N,/GPIO\u005CEI6*%
X64540000Y-115300000D03*
%TO.P,J3,14*%
%TO.N,/PB1_AD3*%
X67080000Y-112760000D03*
%TO.P,J3,13*%
%TO.N,/SPISCK*%
X64540000Y-112760000D03*
%TO.P,J3,12*%
%TO.N,/PA0_AD1*%
X67080000Y-110220000D03*
%TO.P,J3,11*%
%TO.N,/PA1_AD1*%
X64540000Y-110220000D03*
%TO.P,J3,10*%
%TO.N,/PB0_AD3*%
X67080000Y-107680000D03*
%TO.P,J3,9*%
%TO.N,/GPIO\u005CEI5*%
X64540000Y-107680000D03*
%TO.P,J3,8*%
%TO.N,/PC0_AD2*%
X67080000Y-105140000D03*
%TO.P,J3,7*%
%TO.N,/UART_MCUTX*%
X64540000Y-105140000D03*
%TO.P,J3,6*%
%TO.N,/PB11_AD1*%
X67080000Y-102600000D03*
%TO.P,J3,5*%
%TO.N,/UART_MCURX*%
X64540000Y-102600000D03*
%TO.P,J3,4*%
%TO.N,GND*%
X67080000Y-100060000D03*
%TO.P,J3,3*%
%TO.N,/PC4_AD2*%
X64540000Y-100060000D03*
%TO.P,J3,2*%
%TO.N,+5V_EXT*%
X67080000Y-97520000D03*
D11*
%TO.P,J3,1*%
%TO.N,+3.3V_EXT*%
X64540000Y-97520000D03*
%TD*%
D15*
%TO.N,GND*%
X86308058Y-123708058D03*
X88500000Y-60400000D03*
X92100000Y-60400000D03*
X77300000Y-84900000D03*
X96300000Y-56500000D03*
X105700000Y-56500000D03*
X82200000Y-91400000D03*
X94300000Y-104100000D03*
X91200000Y-94700000D03*
X99400000Y-93200000D03*
X94700000Y-94000000D03*
X96600000Y-101900000D03*
X96600000Y-97000000D03*
X76600000Y-120200000D03*
X94974990Y-107100000D03*
X81000000Y-105200022D03*
X83900000Y-88000000D03*
X84700000Y-82400000D03*
X80500000Y-85900000D03*
X67200000Y-78300000D03*
X69200000Y-78500000D03*
X70800000Y-78600000D03*
X67200000Y-83600000D03*
X85800000Y-93899988D03*
X91000000Y-123400000D03*
X80021640Y-91400009D03*
X90251585Y-102431351D03*
X69300000Y-83174990D03*
X83100000Y-101225000D03*
X80390000Y-120170000D03*
X62500000Y-64000000D03*
X65500000Y-64000000D03*
X68500000Y-64000000D03*
X76500000Y-64000000D03*
X79500000Y-64000000D03*
X82500000Y-64000000D03*
X85500000Y-64000000D03*
X94500000Y-64000000D03*
X97500000Y-64000000D03*
X100500000Y-64000000D03*
X106500000Y-64000000D03*
X110500000Y-64000000D03*
X62500000Y-68000000D03*
X65500000Y-68000000D03*
X68500000Y-68000000D03*
X76500000Y-68000000D03*
X79500000Y-68000000D03*
X82500000Y-68000000D03*
X85500000Y-68000000D03*
X88500000Y-68000000D03*
X91500000Y-68000000D03*
X94500000Y-68000000D03*
X97500000Y-68000000D03*
X106500000Y-68000000D03*
X110500000Y-68000000D03*
X62500000Y-72000000D03*
X65500000Y-72000000D03*
X68500000Y-72000000D03*
X71500000Y-72000000D03*
X97500000Y-72000000D03*
X106500000Y-72000000D03*
X110500000Y-72000000D03*
X62500000Y-76000000D03*
X65500000Y-76000000D03*
X68500000Y-76000000D03*
X71500000Y-76000000D03*
X76500000Y-74000000D03*
X79500000Y-74000000D03*
X82500000Y-74000000D03*
X85500000Y-74000000D03*
X88500000Y-74000000D03*
X91500000Y-74000000D03*
X82500000Y-77000000D03*
X85500000Y-77000000D03*
X88500000Y-77000000D03*
X91500000Y-77000000D03*
X97500000Y-77000000D03*
X106500000Y-77000000D03*
X82500000Y-80000000D03*
X85500000Y-80000000D03*
X88500000Y-80000000D03*
X91500000Y-80000000D03*
X97500000Y-80000000D03*
X106500000Y-80000000D03*
X106500000Y-83000000D03*
X97500000Y-83000000D03*
X91500000Y-83000000D03*
X88500000Y-83000000D03*
X62500000Y-80000000D03*
X106500000Y-88000000D03*
X106500000Y-90000000D03*
X106500000Y-93000000D03*
X101500000Y-118000000D03*
X78500000Y-113000000D03*
X78500000Y-115000000D03*
X78500000Y-117000000D03*
X85500000Y-115000000D03*
X78500000Y-119000000D03*
X89500000Y-118000000D03*
X92500000Y-118000000D03*
X95500000Y-118000000D03*
X98500000Y-118000000D03*
X89500000Y-121000000D03*
X92500000Y-121000000D03*
X95500000Y-121000000D03*
X98500000Y-121000000D03*
X101500000Y-121000000D03*
X89500000Y-114000000D03*
X92500000Y-114000000D03*
X95500000Y-114000000D03*
X98500000Y-114000000D03*
X105500000Y-104000000D03*
X105500000Y-109000000D03*
X105500000Y-106500000D03*
X105500000Y-114000000D03*
X105500000Y-116500000D03*
X100000000Y-92000000D03*
X67000000Y-90000000D03*
X70500000Y-87000000D03*
X79500000Y-110000000D03*
D16*
%TO.N,+3V3*%
X65700000Y-93100000D03*
X64600000Y-92200000D03*
X63525000Y-93100000D03*
D15*
X78200000Y-120200000D03*
X94974990Y-108600000D03*
X83300000Y-93900000D03*
X79900000Y-88700000D03*
X73700000Y-97400000D03*
X91999994Y-105100000D03*
X81733049Y-103016947D03*
X97100000Y-94000000D03*
X73600000Y-80500000D03*
X92300000Y-93600000D03*
X74400000Y-80500000D03*
X79600000Y-79000000D03*
X79600000Y-80500000D03*
X79600000Y-82000000D03*
%TO.N,/PB11_AD1*%
X76100000Y-89499987D03*
%TO.N,/PC0_AD2*%
X91129436Y-101279464D03*
X78000000Y-111600000D03*
X78799992Y-101700000D03*
%TO.N,/PB0_AD3*%
X76074817Y-93200000D03*
X77000000Y-112400012D03*
X86800000Y-86000006D03*
%TO.N,/PA0_AD1*%
X76100000Y-96299988D03*
X75200000Y-114200000D03*
X90200000Y-96600030D03*
%TO.N,/PB1_AD3*%
X69700000Y-101300000D03*
X86771055Y-90712844D03*
%TO.N,/PC1_AD2*%
X90300000Y-100300006D03*
X74299980Y-115000000D03*
X76099999Y-97400000D03*
%TO.N,/PB12_AD4*%
X71299990Y-99900000D03*
X69700000Y-117500000D03*
X76100000Y-90800000D03*
%TO.N,/PB14_AD4*%
X72300000Y-94100000D03*
X71300000Y-118200000D03*
X76100006Y-92050011D03*
%TO.N,/SDA*%
X84100000Y-98300000D03*
X74500000Y-94900000D03*
X74900000Y-99400000D03*
%TO.N,/SCL*%
X73000000Y-94900000D03*
X83653114Y-97630785D03*
X73800000Y-99399992D03*
%TO.N,/PA1_AD1*%
X76100000Y-95200000D03*
X76100000Y-113300000D03*
X90170634Y-95633573D03*
%TO.N,/UART_MCUTX*%
X78800000Y-99900000D03*
%TO.N,/UART_MCURX*%
X78800022Y-100800000D03*
%TO.N,/~SPICS*%
X113100000Y-92800000D03*
X92100000Y-86000000D03*
%TO.N,/CANRX*%
X105500000Y-118100000D03*
X89800000Y-108100000D03*
%TO.N,/CANTX*%
X71300000Y-106700000D03*
X80999998Y-106500000D03*
%TO.N,/ENCA*%
X90664407Y-109235597D03*
%TO.N,/ENCB*%
X91400000Y-108100000D03*
%TO.N,/ENCZ*%
X88999978Y-109199996D03*
%TO.N,/PWMCL*%
X103100000Y-91800000D03*
X87804451Y-85095549D03*
%TO.N,/PWMCH*%
X104187845Y-92785414D03*
X94800014Y-96100000D03*
%TO.N,/PWMBL*%
X104799996Y-93400000D03*
X79700000Y-97499988D03*
%TO.N,/PWMBH*%
X105400000Y-94000000D03*
X94741949Y-97900000D03*
%TO.N,/PWMAL*%
X106600000Y-95300000D03*
X95000000Y-101400000D03*
%TO.N,/PWMAH*%
X106000000Y-94599998D03*
X78800006Y-99000000D03*
%TO.N,/SWCLK*%
X98900000Y-92300000D03*
X86100000Y-97000000D03*
%TO.N,/SWDIO*%
X97800000Y-92100000D03*
X85500000Y-96200000D03*
%TO.N,/SPIMOSI*%
X111200000Y-92800000D03*
X89500000Y-85100000D03*
%TO.N,/SPIMISO*%
X110100000Y-91500000D03*
X90200000Y-86000000D03*
%TO.N,/SPISCK*%
X91300000Y-85100000D03*
%TO.N,/GPIO\u005CEI4*%
X112100000Y-91500000D03*
X93200000Y-85100004D03*
%TO.N,/GPIO\u005CEI3*%
X94293476Y-94774968D03*
%TO.N,/PC4_AD2*%
X88275279Y-85954969D03*
%TO.N,/GPIO\u005CEI6*%
X81399996Y-90100000D03*
X70400000Y-88900000D03*
%TO.N,/GPIO\u005CEI5*%
X85649983Y-89900000D03*
%TO.N,/GPIO\u005CEI1*%
X86800000Y-108100000D03*
%TO.N,+5V_USB*%
X84000000Y-121700000D03*
X84600000Y-116800000D03*
%TO.N,/LEDG*%
X100800000Y-90700000D03*
X84899996Y-95400000D03*
%TO.N,/LEDR*%
X84299988Y-94700000D03*
X100100000Y-89974990D03*
%TO.N,/SPIE_CLK*%
X84100000Y-109199992D03*
%TO.N,/SPIE_MISO*%
X84899994Y-108100000D03*
%TO.N,/~SPIE_CS*%
X83100000Y-108099992D03*
%TO.N,/SPIE_MOSI*%
X85600000Y-109200000D03*
%TD*%
D17*
%TO.N,/PB11_AD1*%
X75200013Y-88600000D02*
X76100000Y-89499987D01*
X73400000Y-88600000D02*
X75200013Y-88600000D01*
X68600000Y-93400000D02*
X73400000Y-88600000D01*
X68600000Y-101080000D02*
X68600000Y-93400000D01*
X67080000Y-102600000D02*
X68600000Y-101080000D01*
%TO.N,/PC0_AD2*%
X70160000Y-105140000D02*
X73600000Y-101700000D01*
X73600000Y-101700000D02*
X78799992Y-101700000D01*
X67080000Y-105140000D02*
X70160000Y-105140000D01*
X79200000Y-111600000D02*
X78000000Y-111600000D01*
X80600000Y-110200000D02*
X79200000Y-111600000D01*
X80600000Y-107900000D02*
X80600000Y-110200000D01*
X84000000Y-104500000D02*
X80600000Y-107900000D01*
X89700000Y-104500000D02*
X84000000Y-104500000D01*
X91129436Y-103070564D02*
X89700000Y-104500000D01*
X91129436Y-101279464D02*
X91129436Y-103070564D01*
%TO.N,/PB0_AD3*%
X77000000Y-111300000D02*
X77000000Y-112400012D01*
X73380000Y-107680000D02*
X77000000Y-111300000D01*
X67080000Y-107680000D02*
X73380000Y-107680000D01*
X87399999Y-92300001D02*
X87399999Y-86600005D01*
X87399999Y-86600005D02*
X86800000Y-86000006D01*
X76074817Y-93200000D02*
X86499999Y-93200001D01*
X86499999Y-93200001D02*
X87399999Y-92300001D01*
%TO.N,/PA0_AD1*%
X75200000Y-114050000D02*
X75200000Y-114200000D01*
X71370000Y-110220000D02*
X75200000Y-114050000D01*
X67080000Y-110220000D02*
X71370000Y-110220000D01*
X83100000Y-99900000D02*
X87200000Y-99900000D01*
X80990916Y-97790916D02*
X83100000Y-99900000D01*
X80990916Y-96890916D02*
X80990916Y-97790916D01*
X87200000Y-99900000D02*
X90200000Y-96900000D01*
X80399988Y-96299988D02*
X80990916Y-96890916D01*
X90200000Y-96900000D02*
X90200000Y-96600030D01*
X76100000Y-96299988D02*
X80399988Y-96299988D01*
%TO.N,/PB1_AD3*%
X86771055Y-91428945D02*
X86771055Y-90712844D01*
X85900000Y-92300000D02*
X86771055Y-91428945D01*
X78950000Y-92300000D02*
X85900000Y-92300000D01*
X76774988Y-90124988D02*
X78950000Y-92300000D01*
X73575012Y-90124988D02*
X76774988Y-90124988D01*
X69900000Y-93800000D02*
X73575012Y-90124988D01*
X69900000Y-101100000D02*
X69900000Y-93800000D01*
X69700000Y-101300000D02*
X69900000Y-101100000D01*
%TO.N,/PC1_AD2*%
X89799994Y-100300006D02*
X90300000Y-100300006D01*
X88193290Y-101906710D02*
X89799994Y-100300006D01*
X82793290Y-101906710D02*
X88193290Y-101906710D01*
X78286580Y-97400000D02*
X82793290Y-101906710D01*
X76099999Y-97400000D02*
X78286580Y-97400000D01*
X74100000Y-115000000D02*
X74299980Y-115000000D01*
X71400000Y-112300000D02*
X74100000Y-115000000D01*
X69500000Y-112300000D02*
X71400000Y-112300000D01*
X67080000Y-114720000D02*
X69500000Y-112300000D01*
X67080000Y-115300000D02*
X67080000Y-114720000D01*
%TO.N,/PB12_AD4*%
X69360000Y-117840000D02*
X69700000Y-117500000D01*
X67080000Y-117840000D02*
X69360000Y-117840000D01*
X74200000Y-90800000D02*
X76100000Y-90800000D01*
X70900000Y-94100000D02*
X74200000Y-90800000D01*
X70900000Y-99500010D02*
X70900000Y-94100000D01*
X71299990Y-99900000D02*
X70900000Y-99500010D01*
%TO.N,/PB14_AD4*%
X67080000Y-120380000D02*
X69120000Y-120380000D01*
X71400000Y-118100000D02*
X71300000Y-118200000D01*
X69120000Y-120380000D02*
X71400000Y-118100000D01*
X74349989Y-92050011D02*
X76100006Y-92050011D01*
X72300000Y-94100000D02*
X74349989Y-92050011D01*
%TO.N,/SDA*%
X74500000Y-99000000D02*
X74900000Y-99400000D01*
X74500000Y-94900000D02*
X74500000Y-99000000D01*
X83300000Y-98300000D02*
X84100000Y-98300000D01*
X82800000Y-97800000D02*
X83300000Y-98300000D01*
X82800000Y-96100000D02*
X82800000Y-97800000D01*
X81163435Y-94463435D02*
X82800000Y-96100000D01*
X74936565Y-94463435D02*
X81163435Y-94463435D01*
X74500000Y-94900000D02*
X74936565Y-94463435D01*
%TO.N,/SCL*%
X83600000Y-97577671D02*
X83653114Y-97630785D01*
X81725002Y-93925002D02*
X83600000Y-95800000D01*
X83600000Y-95800000D02*
X83600000Y-97577671D01*
X73974998Y-93925002D02*
X81725002Y-93925002D01*
X73000000Y-94900000D02*
X73974998Y-93925002D01*
X73800000Y-99199992D02*
X73800000Y-99399992D01*
X73000000Y-98399992D02*
X73800000Y-99199992D01*
X73000000Y-95100000D02*
X73000000Y-98399992D01*
%TO.N,/PA1_AD1*%
X76100000Y-112600000D02*
X76100000Y-113300000D01*
X72400001Y-108900001D02*
X76100000Y-112600000D01*
X65859999Y-108900001D02*
X72400001Y-108900001D01*
X64540000Y-110220000D02*
X65859999Y-108900001D01*
X86804207Y-99000000D02*
X90170634Y-95633573D01*
X83100000Y-99000000D02*
X86804207Y-99000000D01*
X81800000Y-97700000D02*
X83100000Y-99000000D01*
X81800000Y-96200000D02*
X81800000Y-97700000D01*
X80800000Y-95200000D02*
X81800000Y-96200000D01*
X76100000Y-95200000D02*
X80800000Y-95200000D01*
%TO.N,/UART_MCUTX*%
X79525001Y-100625001D02*
X78800000Y-99900000D01*
X64540000Y-105140000D02*
X65904999Y-106504999D01*
X78525002Y-105300000D02*
X79525001Y-104300001D01*
X65904999Y-106504999D02*
X70295001Y-106504999D01*
X70295001Y-106504999D02*
X71500000Y-105300000D01*
X71500000Y-105300000D02*
X78525002Y-105300000D01*
X79525001Y-104300001D02*
X79525001Y-100625001D01*
%TO.N,/UART_MCURX*%
X65840000Y-103900000D02*
X69300000Y-103900000D01*
X72400000Y-100800000D02*
X78800022Y-100800000D01*
X69300000Y-103900000D02*
X72400000Y-100800000D01*
X64540000Y-102600000D02*
X65840000Y-103900000D01*
%TO.N,/~SPICS*%
X93100000Y-83800000D02*
X92100000Y-84800000D01*
X110400000Y-83800000D02*
X93100000Y-83800000D01*
X113100000Y-86500000D02*
X110400000Y-83800000D01*
X92100000Y-84800000D02*
X92100000Y-86000000D01*
X113100000Y-92800000D02*
X113100000Y-86500000D01*
%TO.N,/CANRX*%
X88400000Y-107600000D02*
X86649990Y-109350010D01*
X89800000Y-108100000D02*
X89300000Y-107600000D01*
X86649990Y-109350010D02*
X86649990Y-114849990D01*
X88600000Y-116800000D02*
X104200000Y-116800000D01*
X86649990Y-114849990D02*
X88600000Y-116800000D01*
X104200000Y-116800000D02*
X105500000Y-118100000D01*
X89300000Y-107600000D02*
X88400000Y-107600000D01*
%TO.N,/CANTX*%
X71300000Y-106700000D02*
X80799998Y-106700000D01*
X80799998Y-106700000D02*
X80999998Y-106500000D01*
%TO.N,/ENCA*%
X91884999Y-111584999D02*
X90664407Y-110364407D01*
X108284001Y-111584999D02*
X91884999Y-111584999D01*
X108895001Y-112195999D02*
X108284001Y-111584999D01*
X90664407Y-110364407D02*
X90664407Y-109235597D01*
X108895001Y-116664999D02*
X108895001Y-112195999D01*
X107720000Y-117840000D02*
X108895001Y-116664999D01*
%TO.N,/ENCB*%
X90803810Y-108100000D02*
X91400000Y-108100000D01*
X88800000Y-115300000D02*
X87900000Y-114400000D01*
X90178809Y-108725001D02*
X90803810Y-108100000D01*
X107720000Y-115300000D02*
X88800000Y-115300000D01*
X87900000Y-114400000D02*
X87900000Y-109100000D01*
X87900000Y-109100000D02*
X88474999Y-108525001D01*
X88474999Y-108525001D02*
X89299999Y-108525001D01*
X89299999Y-108525001D02*
X89499999Y-108725001D01*
X89499999Y-108725001D02*
X90178809Y-108725001D01*
%TO.N,/ENCZ*%
X88999978Y-111499978D02*
X88999978Y-109199996D01*
X90260000Y-112760000D02*
X88999978Y-111499978D01*
X107720000Y-112760000D02*
X90260000Y-112760000D01*
%TO.N,/PWMCL*%
X101800000Y-88200000D02*
X103100000Y-89500000D01*
X96600000Y-88200000D02*
X101800000Y-88200000D01*
X95900000Y-88900000D02*
X96600000Y-88200000D01*
X89700000Y-88900000D02*
X95900000Y-88900000D01*
X89172657Y-88372657D02*
X89700000Y-88900000D01*
X103100000Y-89500000D02*
X103100000Y-91800000D01*
X89172657Y-85927343D02*
X89172657Y-88372657D01*
X88340863Y-85095549D02*
X89172657Y-85927343D01*
X87804451Y-85095549D02*
X88340863Y-85095549D01*
%TO.N,/PWMCH*%
X104187845Y-92785414D02*
X100873259Y-96100000D01*
X100873259Y-96100000D02*
X94800014Y-96100000D01*
%TO.N,/PWMBL*%
X82750006Y-100600000D02*
X79700000Y-97549994D01*
X91249997Y-97250003D02*
X87900000Y-100600000D01*
X95350003Y-97250003D02*
X91249997Y-97250003D01*
X87900000Y-100600000D02*
X82750006Y-100600000D01*
X96300000Y-98200000D02*
X95350003Y-97250003D01*
X79700000Y-97549994D02*
X79700000Y-97499988D01*
X99999996Y-98200000D02*
X96300000Y-98200000D01*
X104799996Y-93400000D02*
X99999996Y-98200000D01*
%TO.N,/PWMBH*%
X103050000Y-96350000D02*
X105400000Y-94000000D01*
X103050000Y-98750000D02*
X103050000Y-96350000D01*
X102500000Y-99300000D02*
X103050000Y-98750000D01*
X95300000Y-99300000D02*
X102500000Y-99300000D01*
X94741949Y-98741949D02*
X95300000Y-99300000D01*
X94741949Y-97900000D02*
X94741949Y-98741949D01*
%TO.N,/PWMAL*%
X95299999Y-101100001D02*
X95000000Y-101400000D01*
X103999999Y-101100001D02*
X95299999Y-101100001D01*
X104500000Y-100600000D02*
X103999999Y-101100001D01*
X104500000Y-97400000D02*
X104500000Y-100600000D01*
X106600000Y-95300000D02*
X104500000Y-97400000D01*
%TO.N,/PWMAH*%
X103724999Y-96874999D02*
X106000000Y-94599998D01*
X103724999Y-99575001D02*
X103724999Y-96874999D01*
X103200000Y-100100000D02*
X103724999Y-99575001D01*
X91425002Y-100100000D02*
X103200000Y-100100000D01*
X88125002Y-103400000D02*
X91425002Y-100100000D01*
X83200006Y-103400000D02*
X88125002Y-103400000D01*
X78800006Y-99000000D02*
X83200006Y-103400000D01*
%TO.N,/SWCLK*%
X98400000Y-92800000D02*
X98900000Y-92300000D01*
X97200000Y-92800000D02*
X98400000Y-92800000D01*
X96600000Y-92200000D02*
X97200000Y-92800000D01*
X92600000Y-92200000D02*
X96600000Y-92200000D01*
X87800000Y-97000000D02*
X92600000Y-92200000D01*
X86100000Y-97000000D02*
X87800000Y-97000000D01*
%TO.N,/SWDIO*%
X87172821Y-96200000D02*
X85500000Y-96200000D01*
X92072821Y-91300000D02*
X87172821Y-96200000D01*
X97000000Y-91300000D02*
X92072821Y-91300000D01*
X97800000Y-92100000D02*
X97000000Y-91300000D01*
%TO.N,/SPIMOSI*%
X111200000Y-88900000D02*
X111200000Y-92800000D01*
X108300000Y-86000000D02*
X111200000Y-88900000D01*
X95000000Y-86000000D02*
X108300000Y-86000000D01*
X91300000Y-87100000D02*
X93900000Y-87100000D01*
X91062501Y-86862501D02*
X91300000Y-87100000D01*
X91062501Y-85937499D02*
X91062501Y-86862501D01*
X90225002Y-85100000D02*
X91062501Y-85937499D01*
X93900000Y-87100000D02*
X95000000Y-86000000D01*
X89500000Y-85100000D02*
X90225002Y-85100000D01*
%TO.N,/SPIMISO*%
X90200000Y-87700000D02*
X90200000Y-86000000D01*
X90500000Y-88000000D02*
X90200000Y-87700000D01*
X94800000Y-88000000D02*
X90500000Y-88000000D01*
X95500000Y-87300000D02*
X94800000Y-88000000D01*
X107600000Y-87300000D02*
X95500000Y-87300000D01*
X110100000Y-89800000D02*
X107600000Y-87300000D01*
X110100000Y-91500000D02*
X110100000Y-89800000D01*
%TO.N,/SPISCK*%
X90000000Y-83800000D02*
X91300000Y-85100000D01*
X61900000Y-90400000D02*
X68500000Y-83800000D01*
X61900000Y-110120000D02*
X61900000Y-90400000D01*
X64540000Y-112760000D02*
X61900000Y-110120000D01*
X68500000Y-83800000D02*
X90000000Y-83800000D01*
%TO.N,/GPIO\u005CEI4*%
X93400004Y-84900000D02*
X93200000Y-85100004D01*
X109400000Y-84900000D02*
X93400004Y-84900000D01*
X112100000Y-87600000D02*
X109400000Y-84900000D01*
X112100000Y-91500000D02*
X112100000Y-87600000D01*
%TO.N,/GPIO\u005CEI3*%
X93993477Y-93781521D02*
X93993477Y-94474969D01*
X99274998Y-94000000D02*
X98649997Y-93374999D01*
X102000000Y-94000000D02*
X99274998Y-94000000D01*
X93993477Y-94474969D02*
X94293476Y-94774968D01*
X104300000Y-91700000D02*
X102000000Y-94000000D01*
X108500000Y-91700000D02*
X104300000Y-91700000D01*
X111435001Y-94635001D02*
X108500000Y-91700000D01*
X94399999Y-93374999D02*
X93993477Y-93781521D01*
X111435001Y-101424999D02*
X111435001Y-94635001D01*
X98649997Y-93374999D02*
X94399999Y-93374999D01*
X110260000Y-102600000D02*
X111435001Y-101424999D01*
%TO.N,/PC4_AD2*%
X87779973Y-85954969D02*
X88275279Y-85954969D01*
X64540000Y-100060000D02*
X65900000Y-98700000D01*
X65900000Y-98700000D02*
X65900000Y-94600000D01*
X87100002Y-85274998D02*
X87779973Y-85954969D01*
X65900000Y-94600000D02*
X73000000Y-87500000D01*
X73000000Y-87500000D02*
X76000000Y-87500000D01*
X86274993Y-86599997D02*
X86174998Y-86500002D01*
X76000000Y-87500000D02*
X79274999Y-90774999D01*
X79274999Y-90774999D02*
X85825001Y-90774999D01*
X85825001Y-90774999D02*
X86274993Y-90325007D01*
X86174998Y-86500002D02*
X86174998Y-85599998D01*
X86274993Y-90325007D02*
X86274993Y-86599997D01*
X86174998Y-85599998D02*
X86499998Y-85274998D01*
X86499998Y-85274998D02*
X87100002Y-85274998D01*
%TO.N,/GPIO\u005CEI6*%
X81399996Y-90100000D02*
X80999996Y-89700000D01*
X80999996Y-89700000D02*
X79800000Y-89700000D01*
X79800000Y-89700000D02*
X76500000Y-86400000D01*
X76500000Y-86400000D02*
X72900000Y-86400000D01*
X72900000Y-86400000D02*
X70400000Y-88900000D01*
%TO.N,/GPIO\u005CEI5*%
X85200000Y-86500000D02*
X85200000Y-89450017D01*
X83600000Y-84900000D02*
X85200000Y-86500000D01*
X78600000Y-84900000D02*
X83600000Y-84900000D01*
X85200000Y-89450017D02*
X85649983Y-89900000D01*
X77900000Y-85600000D02*
X78600000Y-84900000D01*
X76000000Y-84900000D02*
X76700000Y-85600000D01*
X69000000Y-84900000D02*
X76000000Y-84900000D01*
X62800000Y-105940000D02*
X62800000Y-91100000D01*
X76700000Y-85600000D02*
X77900000Y-85600000D01*
X62800000Y-91100000D02*
X69000000Y-84900000D01*
X64540000Y-107680000D02*
X62800000Y-105940000D01*
%TO.N,/GPIO\u005CEI1*%
X109084999Y-101235001D02*
X110260000Y-100060000D01*
X105664999Y-101235001D02*
X105050000Y-101850000D01*
X107935001Y-101235001D02*
X105664999Y-101235001D01*
X105050000Y-101850000D02*
X105300000Y-101600000D01*
X107935001Y-101235001D02*
X109084999Y-101235001D01*
X86800000Y-107300000D02*
X86800000Y-108100000D01*
X87686730Y-106413270D02*
X86800000Y-107300000D01*
X94486730Y-106413270D02*
X87686730Y-106413270D01*
X98500000Y-102400000D02*
X94486730Y-106413270D01*
X104500000Y-102400000D02*
X98500000Y-102400000D01*
X105050000Y-101850000D02*
X104500000Y-102400000D01*
%TO.N,+5V_USB*%
X84000000Y-117400000D02*
X84600000Y-116800000D01*
X84000000Y-121700000D02*
X84000000Y-117400000D01*
%TO.N,/LEDG*%
X91400000Y-90600000D02*
X86600000Y-95400000D01*
X86600000Y-95400000D02*
X84899996Y-95400000D01*
X100800000Y-90700000D02*
X100700000Y-90600000D01*
X100700000Y-90600000D02*
X91400000Y-90600000D01*
%TO.N,/LEDR*%
X99825010Y-89700000D02*
X100100000Y-89974990D01*
X91300000Y-89700000D02*
X99825010Y-89700000D01*
X86300000Y-94700000D02*
X91300000Y-89700000D01*
X84299988Y-94700000D02*
X86300000Y-94700000D01*
%TO.N,/SPIE_CLK*%
X84100000Y-113300000D02*
X84100000Y-109199992D01*
X79400000Y-118000000D02*
X84100000Y-113300000D01*
X77520000Y-118000000D02*
X79400000Y-118000000D01*
X72420000Y-123100000D02*
X77520000Y-118000000D01*
%TO.N,/SPIE_MISO*%
X84899994Y-107799994D02*
X84899994Y-108100000D01*
X84200000Y-107100000D02*
X84899994Y-107799994D01*
X82600000Y-107100000D02*
X84200000Y-107100000D01*
X81800000Y-111000000D02*
X81800000Y-107900000D01*
X78500000Y-114300000D02*
X81800000Y-111000000D01*
X76900000Y-114300000D02*
X78500000Y-114300000D01*
X70300000Y-120900000D02*
X76900000Y-114300000D01*
X81800000Y-107900000D02*
X82600000Y-107100000D01*
X70300000Y-125900000D02*
X70300000Y-120900000D01*
X71215001Y-126815001D02*
X70300000Y-125900000D01*
X73784999Y-126815001D02*
X71215001Y-126815001D01*
X74960000Y-125640000D02*
X73784999Y-126815001D01*
%TO.N,/~SPIE_CS*%
X83100000Y-111900000D02*
X83100000Y-108099992D01*
X79000000Y-116000000D02*
X83100000Y-111900000D01*
X76900000Y-116000000D02*
X79000000Y-116000000D01*
X71000000Y-121900000D02*
X76900000Y-116000000D01*
X71000000Y-123800000D02*
X71000000Y-121900000D01*
X71600000Y-124400000D02*
X71000000Y-123800000D01*
X73660000Y-124400000D02*
X71600000Y-124400000D01*
X74960000Y-123100000D02*
X73660000Y-124400000D01*
%TO.N,/SPIE_MOSI*%
X85600000Y-113400000D02*
X85600000Y-109200000D01*
X79200000Y-119800000D02*
X85600000Y-113400000D01*
X79200000Y-123940000D02*
X79200000Y-119800000D01*
X77500000Y-125640000D02*
X79200000Y-123940000D01*
%TD*%
D18*
%TO.N,GND*%
X112200932Y-92527271D02*
X112165000Y-92707911D01*
X112165000Y-92892089D01*
X112200932Y-93072729D01*
X112271414Y-93242889D01*
X112373738Y-93396028D01*
X112503972Y-93526262D01*
X112657111Y-93628586D01*
X112827271Y-93699068D01*
X113007911Y-93735000D01*
X113192089Y-93735000D01*
X113372729Y-93699068D01*
X113542889Y-93628586D01*
X113696028Y-93526262D01*
X113826262Y-93396028D01*
X113840000Y-93375467D01*
X113840000Y-124480392D01*
X113772427Y-124547965D01*
X113454243Y-124094150D01*
X112849790Y-123768731D01*
X112193465Y-123567488D01*
X111510490Y-123498155D01*
X110827112Y-123563395D01*
X110169593Y-123760702D01*
X109563201Y-124082494D01*
X109545757Y-124094150D01*
X109227572Y-124547967D01*
X111500000Y-126820395D01*
X111514143Y-126806253D01*
X111693748Y-126985858D01*
X111679605Y-127000000D01*
X111693748Y-127014143D01*
X111514143Y-127193748D01*
X111500000Y-127179605D01*
X111485858Y-127193748D01*
X111306253Y-127014143D01*
X111320395Y-127000000D01*
X109047967Y-124727572D01*
X108594150Y-125045757D01*
X108268731Y-125650210D01*
X108067488Y-126306535D01*
X107998155Y-126989510D01*
X108063395Y-127672888D01*
X108260702Y-128330407D01*
X108582494Y-128936799D01*
X108594150Y-128954243D01*
X109047965Y-129272427D01*
X108980392Y-129340000D01*
X90118177Y-129340000D01*
X90201250Y-129260559D01*
X90349019Y-129049761D01*
X90452824Y-128814185D01*
X90508675Y-128562884D01*
X90358573Y-128357000D01*
X89332000Y-128357000D01*
X89332000Y-128377000D01*
X89078000Y-128377000D01*
X89078000Y-128357000D01*
X88051427Y-128357000D01*
X87901325Y-128562884D01*
X87957176Y-128814185D01*
X88060981Y-129049761D01*
X88208750Y-129260559D01*
X88291823Y-129340000D01*
X84658177Y-129340000D01*
X84741250Y-129260559D01*
X84889019Y-129049761D01*
X84992824Y-128814185D01*
X85048675Y-128562884D01*
X84898573Y-128357000D01*
X83872000Y-128357000D01*
X83872000Y-128377000D01*
X83618000Y-128377000D01*
X83618000Y-128357000D01*
X82591427Y-128357000D01*
X82441325Y-128562884D01*
X82497176Y-128814185D01*
X82600981Y-129049761D01*
X82748750Y-129260559D01*
X82831823Y-129340000D01*
X66019608Y-129340000D01*
X65952035Y-129272427D01*
X66405850Y-128954243D01*
X66731269Y-128349790D01*
X66870068Y-127897116D01*
X82441325Y-127897116D01*
X82591427Y-128103000D01*
X83618000Y-128103000D01*
X83618000Y-126910776D01*
X83872000Y-126910776D01*
X83872000Y-128103000D01*
X84898573Y-128103000D01*
X85048675Y-127897116D01*
X87901325Y-127897116D01*
X88051427Y-128103000D01*
X89078000Y-128103000D01*
X89078000Y-126910776D01*
X89332000Y-126910776D01*
X89332000Y-128103000D01*
X90358573Y-128103000D01*
X90508675Y-127897116D01*
X90452824Y-127645815D01*
X90349019Y-127410239D01*
X90201250Y-127199441D01*
X90015196Y-127021522D01*
X89798007Y-126883319D01*
X89558029Y-126790143D01*
X89534400Y-126787090D01*
X89332000Y-126910776D01*
X89078000Y-126910776D01*
X88875600Y-126787090D01*
X88851971Y-126790143D01*
X88611993Y-126883319D01*
X88394804Y-127021522D01*
X88208750Y-127199441D01*
X88060981Y-127410239D01*
X87957176Y-127645815D01*
X87901325Y-127897116D01*
X85048675Y-127897116D01*
X84992824Y-127645815D01*
X84889019Y-127410239D01*
X84741250Y-127199441D01*
X84555196Y-127021522D01*
X84338007Y-126883319D01*
X84098029Y-126790143D01*
X84074400Y-126787090D01*
X83872000Y-126910776D01*
X83618000Y-126910776D01*
X83415600Y-126787090D01*
X83391971Y-126790143D01*
X83151993Y-126883319D01*
X82934804Y-127021522D01*
X82748750Y-127199441D01*
X82600981Y-127410239D01*
X82497176Y-127645815D01*
X82441325Y-127897116D01*
X66870068Y-127897116D01*
X66932512Y-127693465D01*
X67001845Y-127010490D01*
X66936605Y-126327112D01*
X66739298Y-125669593D01*
X66417506Y-125063201D01*
X66405850Y-125045757D01*
X65952033Y-124727572D01*
X63679605Y-127000000D01*
X63693748Y-127014143D01*
X63514143Y-127193748D01*
X63500000Y-127179605D01*
X63485858Y-127193748D01*
X63306253Y-127014143D01*
X63320395Y-127000000D01*
X63306253Y-126985858D01*
X63485858Y-126806253D01*
X63500000Y-126820395D01*
X65772428Y-124547967D01*
X65454243Y-124094150D01*
X64849790Y-123768731D01*
X64193465Y-123567488D01*
X63510490Y-123498155D01*
X62827112Y-123563395D01*
X62169593Y-123760702D01*
X61563201Y-124082494D01*
X61545757Y-124094150D01*
X61227573Y-124547965D01*
X61160000Y-124480392D01*
X61160000Y-110298664D01*
X61191267Y-110401739D01*
X61194454Y-110412246D01*
X61265026Y-110544276D01*
X61290835Y-110575724D01*
X61359999Y-110660001D01*
X61389003Y-110683804D01*
X63098790Y-112393592D01*
X63055000Y-112613740D01*
X63055000Y-112906260D01*
X63112068Y-113193158D01*
X63224010Y-113463411D01*
X63386525Y-113706632D01*
X63593368Y-113913475D01*
X63767760Y-114030000D01*
X63593368Y-114146525D01*
X63386525Y-114353368D01*
X63224010Y-114596589D01*
X63112068Y-114866842D01*
X63055000Y-115153740D01*
X63055000Y-115446260D01*
X63112068Y-115733158D01*
X63224010Y-116003411D01*
X63386525Y-116246632D01*
X63593368Y-116453475D01*
X63767760Y-116570000D01*
X63593368Y-116686525D01*
X63386525Y-116893368D01*
X63224010Y-117136589D01*
X63112068Y-117406842D01*
X63055000Y-117693740D01*
X63055000Y-117986260D01*
X63112068Y-118273158D01*
X63224010Y-118543411D01*
X63386525Y-118786632D01*
X63593368Y-118993475D01*
X63767760Y-119110000D01*
X63593368Y-119226525D01*
X63386525Y-119433368D01*
X63224010Y-119676589D01*
X63112068Y-119946842D01*
X63055000Y-120233740D01*
X63055000Y-120526260D01*
X63112068Y-120813158D01*
X63224010Y-121083411D01*
X63386525Y-121326632D01*
X63593368Y-121533475D01*
X63836589Y-121695990D01*
X64106842Y-121807932D01*
X64393740Y-121865000D01*
X64686260Y-121865000D01*
X64973158Y-121807932D01*
X65243411Y-121695990D01*
X65486632Y-121533475D01*
X65693475Y-121326632D01*
X65810000Y-121152240D01*
X65926525Y-121326632D01*
X66133368Y-121533475D01*
X66376589Y-121695990D01*
X66646842Y-121807932D01*
X66933740Y-121865000D01*
X67226260Y-121865000D01*
X67513158Y-121807932D01*
X67783411Y-121695990D01*
X68026632Y-121533475D01*
X68233475Y-121326632D01*
X68358178Y-121140000D01*
X69082678Y-121140000D01*
X69120000Y-121143676D01*
X69157322Y-121140000D01*
X69157333Y-121140000D01*
X69268986Y-121129003D01*
X69412247Y-121085546D01*
X69540001Y-121017259D01*
X69540000Y-125862677D01*
X69536324Y-125900000D01*
X69540000Y-125937322D01*
X69540000Y-125937332D01*
X69550997Y-126048985D01*
X69591777Y-126183422D01*
X69594454Y-126192246D01*
X69665026Y-126324276D01*
X69680730Y-126343411D01*
X69759999Y-126440001D01*
X69789002Y-126463803D01*
X70651202Y-127326004D01*
X70675000Y-127355002D01*
X70790725Y-127449975D01*
X70922754Y-127520547D01*
X71066015Y-127564004D01*
X71177668Y-127575001D01*
X71177678Y-127575001D01*
X71215001Y-127578677D01*
X71252324Y-127575001D01*
X73747677Y-127575001D01*
X73784999Y-127578677D01*
X73822321Y-127575001D01*
X73822332Y-127575001D01*
X73933985Y-127564004D01*
X74077246Y-127520547D01*
X74209275Y-127449975D01*
X74325000Y-127355002D01*
X74348803Y-127325998D01*
X74593592Y-127081209D01*
X74813740Y-127125000D01*
X75106260Y-127125000D01*
X75393158Y-127067932D01*
X75663411Y-126955990D01*
X75906632Y-126793475D01*
X76113475Y-126586632D01*
X76230000Y-126412240D01*
X76346525Y-126586632D01*
X76553368Y-126793475D01*
X76796589Y-126955990D01*
X77066842Y-127067932D01*
X77353740Y-127125000D01*
X77646260Y-127125000D01*
X77933158Y-127067932D01*
X78203411Y-126955990D01*
X78446632Y-126793475D01*
X78653475Y-126586632D01*
X78815990Y-126343411D01*
X78927932Y-126073158D01*
X78985000Y-125786260D01*
X78985000Y-125543884D01*
X82869316Y-125543884D01*
X82914316Y-125773011D01*
X83003152Y-125988957D01*
X83132410Y-126183422D01*
X83297123Y-126348934D01*
X83490961Y-126479131D01*
X83706474Y-126569011D01*
X83745256Y-126573803D01*
X83928000Y-126448361D01*
X83928000Y-125357000D01*
X84182000Y-125357000D01*
X84182000Y-126448361D01*
X84364744Y-126573803D01*
X84403526Y-126569011D01*
X84619039Y-126479131D01*
X84812877Y-126348934D01*
X84977590Y-126183422D01*
X85106848Y-125988957D01*
X85195684Y-125773011D01*
X85240684Y-125543884D01*
X87709316Y-125543884D01*
X87754316Y-125773011D01*
X87843152Y-125988957D01*
X87972410Y-126183422D01*
X88137123Y-126348934D01*
X88330961Y-126479131D01*
X88546474Y-126569011D01*
X88585256Y-126573803D01*
X88768000Y-126448361D01*
X88768000Y-125357000D01*
X89022000Y-125357000D01*
X89022000Y-126448361D01*
X89204744Y-126573803D01*
X89243526Y-126569011D01*
X89459039Y-126479131D01*
X89652877Y-126348934D01*
X89817590Y-126183422D01*
X89946848Y-125988957D01*
X90035684Y-125773011D01*
X90080684Y-125543884D01*
X89925152Y-125357000D01*
X89022000Y-125357000D01*
X88768000Y-125357000D01*
X87864848Y-125357000D01*
X87709316Y-125543884D01*
X85240684Y-125543884D01*
X85085152Y-125357000D01*
X84182000Y-125357000D01*
X83928000Y-125357000D01*
X83024848Y-125357000D01*
X82869316Y-125543884D01*
X78985000Y-125543884D01*
X78985000Y-125493740D01*
X78941210Y-125273592D01*
X78964802Y-125250000D01*
X94711928Y-125250000D01*
X94711928Y-126950000D01*
X94724188Y-127074482D01*
X94760498Y-127194180D01*
X94819463Y-127304494D01*
X94898815Y-127401185D01*
X94995506Y-127480537D01*
X95105820Y-127539502D01*
X95225518Y-127575812D01*
X95350000Y-127588072D01*
X97050000Y-127588072D01*
X97174482Y-127575812D01*
X97294180Y-127539502D01*
X97404494Y-127480537D01*
X97501185Y-127401185D01*
X97580537Y-127304494D01*
X97639502Y-127194180D01*
X97663966Y-127113534D01*
X97739731Y-127197588D01*
X97973080Y-127371641D01*
X98235901Y-127496825D01*
X98383110Y-127541476D01*
X98613000Y-127420155D01*
X98613000Y-126227000D01*
X98867000Y-126227000D01*
X98867000Y-127420155D01*
X99096890Y-127541476D01*
X99244099Y-127496825D01*
X99506920Y-127371641D01*
X99740269Y-127197588D01*
X99935178Y-126981355D01*
X100010000Y-126855745D01*
X100084822Y-126981355D01*
X100279731Y-127197588D01*
X100513080Y-127371641D01*
X100775901Y-127496825D01*
X100923110Y-127541476D01*
X101153000Y-127420155D01*
X101153000Y-126227000D01*
X101407000Y-126227000D01*
X101407000Y-127420155D01*
X101636890Y-127541476D01*
X101784099Y-127496825D01*
X102046920Y-127371641D01*
X102280269Y-127197588D01*
X102475178Y-126981355D01*
X102624157Y-126731252D01*
X102721481Y-126456891D01*
X102600814Y-126227000D01*
X101407000Y-126227000D01*
X101153000Y-126227000D01*
X98867000Y-126227000D01*
X98613000Y-126227000D01*
X98593000Y-126227000D01*
X98593000Y-125973000D01*
X98613000Y-125973000D01*
X98613000Y-124779845D01*
X98867000Y-124779845D01*
X98867000Y-125973000D01*
X101153000Y-125973000D01*
X101153000Y-124779845D01*
X101407000Y-124779845D01*
X101407000Y-125973000D01*
X102600814Y-125973000D01*
X102721481Y-125743109D01*
X102624157Y-125468748D01*
X102475178Y-125218645D01*
X102280269Y-125002412D01*
X102046920Y-124828359D01*
X101784099Y-124703175D01*
X101636890Y-124658524D01*
X101407000Y-124779845D01*
X101153000Y-124779845D01*
X100923110Y-124658524D01*
X100775901Y-124703175D01*
X100513080Y-124828359D01*
X100279731Y-125002412D01*
X100084822Y-125218645D01*
X100010000Y-125344255D01*
X99935178Y-125218645D01*
X99740269Y-125002412D01*
X99506920Y-124828359D01*
X99244099Y-124703175D01*
X99096890Y-124658524D01*
X98867000Y-124779845D01*
X98613000Y-124779845D01*
X98383110Y-124658524D01*
X98235901Y-124703175D01*
X97973080Y-124828359D01*
X97739731Y-125002412D01*
X97663966Y-125086466D01*
X97639502Y-125005820D01*
X97580537Y-124895506D01*
X97501185Y-124798815D01*
X97404494Y-124719463D01*
X97294180Y-124660498D01*
X97174482Y-124624188D01*
X97050000Y-124611928D01*
X95350000Y-124611928D01*
X95225518Y-124624188D01*
X95105820Y-124660498D01*
X94995506Y-124719463D01*
X94898815Y-124798815D01*
X94819463Y-124895506D01*
X94760498Y-125005820D01*
X94724188Y-125125518D01*
X94711928Y-125250000D01*
X78964802Y-125250000D01*
X79298686Y-124916116D01*
X82869316Y-124916116D01*
X83024848Y-125103000D01*
X83928000Y-125103000D01*
X83928000Y-124011639D01*
X84182000Y-124011639D01*
X84182000Y-125103000D01*
X85085152Y-125103000D01*
X85240684Y-124916116D01*
X87709316Y-124916116D01*
X87864848Y-125103000D01*
X88768000Y-125103000D01*
X88768000Y-124011639D01*
X89022000Y-124011639D01*
X89022000Y-125103000D01*
X89925152Y-125103000D01*
X90080684Y-124916116D01*
X90035684Y-124686989D01*
X89946848Y-124471043D01*
X89817590Y-124276578D01*
X89652877Y-124111066D01*
X89459039Y-123980869D01*
X89243526Y-123890989D01*
X89204744Y-123886197D01*
X89022000Y-124011639D01*
X88768000Y-124011639D01*
X88585256Y-123886197D01*
X88546474Y-123890989D01*
X88330961Y-123980869D01*
X88137123Y-124111066D01*
X87972410Y-124276578D01*
X87843152Y-124471043D01*
X87754316Y-124686989D01*
X87709316Y-124916116D01*
X85240684Y-124916116D01*
X85195684Y-124686989D01*
X85106848Y-124471043D01*
X84977590Y-124276578D01*
X84812877Y-124111066D01*
X84619039Y-123980869D01*
X84403526Y-123890989D01*
X84364744Y-123886197D01*
X84182000Y-124011639D01*
X83928000Y-124011639D01*
X83745256Y-123886197D01*
X83706474Y-123890989D01*
X83490961Y-123980869D01*
X83297123Y-124111066D01*
X83132410Y-124276578D01*
X83003152Y-124471043D01*
X82914316Y-124686989D01*
X82869316Y-124916116D01*
X79298686Y-124916116D01*
X79711004Y-124503798D01*
X79740001Y-124480001D01*
X79776954Y-124434974D01*
X79834974Y-124364277D01*
X79905546Y-124232247D01*
X79911667Y-124212068D01*
X79949003Y-124088986D01*
X79960000Y-123977333D01*
X79960000Y-123977324D01*
X79963676Y-123940001D01*
X79960000Y-123902678D01*
X79960000Y-121607911D01*
X83065000Y-121607911D01*
X83065000Y-121792089D01*
X83100932Y-121972729D01*
X83171414Y-122142889D01*
X83273738Y-122296028D01*
X83403972Y-122426262D01*
X83557111Y-122528586D01*
X83727271Y-122599068D01*
X83907911Y-122635000D01*
X84092089Y-122635000D01*
X84272729Y-122599068D01*
X84442889Y-122528586D01*
X84596028Y-122426262D01*
X84726262Y-122296028D01*
X84828586Y-122142889D01*
X84899068Y-121972729D01*
X84935000Y-121792089D01*
X84935000Y-121607911D01*
X84899068Y-121427271D01*
X84828586Y-121257111D01*
X84760000Y-121154465D01*
X84760000Y-117721491D01*
X84872729Y-117699068D01*
X85042889Y-117628586D01*
X85196028Y-117526262D01*
X85326262Y-117396028D01*
X85428586Y-117242889D01*
X85499068Y-117072729D01*
X85535000Y-116892089D01*
X85535000Y-116707911D01*
X85499068Y-116527271D01*
X85428586Y-116357111D01*
X85326262Y-116203972D01*
X85196028Y-116073738D01*
X85042889Y-115971414D01*
X84872729Y-115900932D01*
X84692089Y-115865000D01*
X84507911Y-115865000D01*
X84327271Y-115900932D01*
X84157111Y-115971414D01*
X84003972Y-116073738D01*
X83873738Y-116203972D01*
X83771414Y-116357111D01*
X83700932Y-116527271D01*
X83676847Y-116648351D01*
X83488998Y-116836201D01*
X83460000Y-116859999D01*
X83436202Y-116888997D01*
X83436201Y-116888998D01*
X83365026Y-116975724D01*
X83294454Y-117107754D01*
X83273752Y-117176002D01*
X83250998Y-117251014D01*
X83245090Y-117311002D01*
X83236324Y-117400000D01*
X83240001Y-117437332D01*
X83240000Y-121154464D01*
X83171414Y-121257111D01*
X83100932Y-121427271D01*
X83065000Y-121607911D01*
X79960000Y-121607911D01*
X79960000Y-120114801D01*
X85889991Y-114184811D01*
X85889991Y-114812658D01*
X85886314Y-114849990D01*
X85889991Y-114887323D01*
X85900988Y-114998976D01*
X85909970Y-115028586D01*
X85944444Y-115142236D01*
X86015016Y-115274266D01*
X86081252Y-115354974D01*
X86109990Y-115389991D01*
X86138988Y-115413789D01*
X88036200Y-117311002D01*
X88059999Y-117340001D01*
X88088997Y-117363799D01*
X88175724Y-117434974D01*
X88307753Y-117505546D01*
X88451014Y-117549003D01*
X88600000Y-117563677D01*
X88637333Y-117560000D01*
X103885199Y-117560000D01*
X104576847Y-118251649D01*
X104600932Y-118372729D01*
X104671414Y-118542889D01*
X104773738Y-118696028D01*
X104903972Y-118826262D01*
X105057111Y-118928586D01*
X105227271Y-118999068D01*
X105407911Y-119035000D01*
X105592089Y-119035000D01*
X105772729Y-118999068D01*
X105942889Y-118928586D01*
X106096028Y-118826262D01*
X106226262Y-118696028D01*
X106328586Y-118542889D01*
X106366190Y-118452105D01*
X106404010Y-118543411D01*
X106566525Y-118786632D01*
X106773368Y-118993475D01*
X106947760Y-119110000D01*
X106773368Y-119226525D01*
X106566525Y-119433368D01*
X106404010Y-119676589D01*
X106292068Y-119946842D01*
X106235000Y-120233740D01*
X106235000Y-120526260D01*
X106292068Y-120813158D01*
X106404010Y-121083411D01*
X106566525Y-121326632D01*
X106773368Y-121533475D01*
X107016589Y-121695990D01*
X107286842Y-121807932D01*
X107573740Y-121865000D01*
X107866260Y-121865000D01*
X108153158Y-121807932D01*
X108423411Y-121695990D01*
X108666632Y-121533475D01*
X108873475Y-121326632D01*
X108990000Y-121152240D01*
X109106525Y-121326632D01*
X109313368Y-121533475D01*
X109556589Y-121695990D01*
X109826842Y-121807932D01*
X110113740Y-121865000D01*
X110406260Y-121865000D01*
X110693158Y-121807932D01*
X110963411Y-121695990D01*
X111206632Y-121533475D01*
X111413475Y-121326632D01*
X111575990Y-121083411D01*
X111687932Y-120813158D01*
X111745000Y-120526260D01*
X111745000Y-120233740D01*
X111687932Y-119946842D01*
X111575990Y-119676589D01*
X111413475Y-119433368D01*
X111206632Y-119226525D01*
X111032240Y-119110000D01*
X111206632Y-118993475D01*
X111413475Y-118786632D01*
X111575990Y-118543411D01*
X111687932Y-118273158D01*
X111745000Y-117986260D01*
X111745000Y-117693740D01*
X111687932Y-117406842D01*
X111575990Y-117136589D01*
X111413475Y-116893368D01*
X111206632Y-116686525D01*
X111032240Y-116570000D01*
X111206632Y-116453475D01*
X111413475Y-116246632D01*
X111575990Y-116003411D01*
X111687932Y-115733158D01*
X111745000Y-115446260D01*
X111745000Y-115153740D01*
X111687932Y-114866842D01*
X111575990Y-114596589D01*
X111413475Y-114353368D01*
X111206632Y-114146525D01*
X111032240Y-114030000D01*
X111206632Y-113913475D01*
X111413475Y-113706632D01*
X111575990Y-113463411D01*
X111687932Y-113193158D01*
X111745000Y-112906260D01*
X111745000Y-112613740D01*
X111687932Y-112326842D01*
X111575990Y-112056589D01*
X111413475Y-111813368D01*
X111206632Y-111606525D01*
X111032240Y-111490000D01*
X111206632Y-111373475D01*
X111413475Y-111166632D01*
X111575990Y-110923411D01*
X111687932Y-110653158D01*
X111745000Y-110366260D01*
X111745000Y-110073740D01*
X111687932Y-109786842D01*
X111575990Y-109516589D01*
X111413475Y-109273368D01*
X111206632Y-109066525D01*
X111032240Y-108950000D01*
X111206632Y-108833475D01*
X111413475Y-108626632D01*
X111575990Y-108383411D01*
X111687932Y-108113158D01*
X111745000Y-107826260D01*
X111745000Y-107533740D01*
X111687932Y-107246842D01*
X111575990Y-106976589D01*
X111413475Y-106733368D01*
X111206632Y-106526525D01*
X111032240Y-106410000D01*
X111206632Y-106293475D01*
X111413475Y-106086632D01*
X111575990Y-105843411D01*
X111687932Y-105573158D01*
X111745000Y-105286260D01*
X111745000Y-104993740D01*
X111687932Y-104706842D01*
X111575990Y-104436589D01*
X111413475Y-104193368D01*
X111206632Y-103986525D01*
X111032240Y-103870000D01*
X111206632Y-103753475D01*
X111413475Y-103546632D01*
X111575990Y-103303411D01*
X111687932Y-103033158D01*
X111745000Y-102746260D01*
X111745000Y-102453740D01*
X111701210Y-102233592D01*
X111946005Y-101988797D01*
X111975002Y-101965000D01*
X112069975Y-101849275D01*
X112140547Y-101717246D01*
X112184004Y-101573985D01*
X112195001Y-101462332D01*
X112195001Y-101462323D01*
X112198677Y-101425000D01*
X112195001Y-101387677D01*
X112195001Y-94672323D01*
X112198677Y-94635000D01*
X112195001Y-94597677D01*
X112195001Y-94597668D01*
X112184004Y-94486015D01*
X112140547Y-94342754D01*
X112069975Y-94210725D01*
X111975002Y-94095000D01*
X111946004Y-94071202D01*
X111544247Y-93669445D01*
X111642889Y-93628586D01*
X111796028Y-93526262D01*
X111926262Y-93396028D01*
X112028586Y-93242889D01*
X112099068Y-93072729D01*
X112135000Y-92892089D01*
X112135000Y-92707911D01*
X112099068Y-92527271D01*
X112060848Y-92435000D01*
X112192089Y-92435000D01*
X112243377Y-92424798D01*
X112200932Y-92527271D01*
%TA.AperFunction,Conductor*%
D19*
G36*
X112200932Y-92527271D02*
G01*
X112165000Y-92707911D01*
X112165000Y-92892089D01*
X112200932Y-93072729D01*
X112271414Y-93242889D01*
X112373738Y-93396028D01*
X112503972Y-93526262D01*
X112657111Y-93628586D01*
X112827271Y-93699068D01*
X113007911Y-93735000D01*
X113192089Y-93735000D01*
X113372729Y-93699068D01*
X113542889Y-93628586D01*
X113696028Y-93526262D01*
X113826262Y-93396028D01*
X113840000Y-93375467D01*
X113840000Y-124480392D01*
X113772427Y-124547965D01*
X113454243Y-124094150D01*
X112849790Y-123768731D01*
X112193465Y-123567488D01*
X111510490Y-123498155D01*
X110827112Y-123563395D01*
X110169593Y-123760702D01*
X109563201Y-124082494D01*
X109545757Y-124094150D01*
X109227572Y-124547967D01*
X111500000Y-126820395D01*
X111514143Y-126806253D01*
X111693748Y-126985858D01*
X111679605Y-127000000D01*
X111693748Y-127014143D01*
X111514143Y-127193748D01*
X111500000Y-127179605D01*
X111485858Y-127193748D01*
X111306253Y-127014143D01*
X111320395Y-127000000D01*
X109047967Y-124727572D01*
X108594150Y-125045757D01*
X108268731Y-125650210D01*
X108067488Y-126306535D01*
X107998155Y-126989510D01*
X108063395Y-127672888D01*
X108260702Y-128330407D01*
X108582494Y-128936799D01*
X108594150Y-128954243D01*
X109047965Y-129272427D01*
X108980392Y-129340000D01*
X90118177Y-129340000D01*
X90201250Y-129260559D01*
X90349019Y-129049761D01*
X90452824Y-128814185D01*
X90508675Y-128562884D01*
X90358573Y-128357000D01*
X89332000Y-128357000D01*
X89332000Y-128377000D01*
X89078000Y-128377000D01*
X89078000Y-128357000D01*
X88051427Y-128357000D01*
X87901325Y-128562884D01*
X87957176Y-128814185D01*
X88060981Y-129049761D01*
X88208750Y-129260559D01*
X88291823Y-129340000D01*
X84658177Y-129340000D01*
X84741250Y-129260559D01*
X84889019Y-129049761D01*
X84992824Y-128814185D01*
X85048675Y-128562884D01*
X84898573Y-128357000D01*
X83872000Y-128357000D01*
X83872000Y-128377000D01*
X83618000Y-128377000D01*
X83618000Y-128357000D01*
X82591427Y-128357000D01*
X82441325Y-128562884D01*
X82497176Y-128814185D01*
X82600981Y-129049761D01*
X82748750Y-129260559D01*
X82831823Y-129340000D01*
X66019608Y-129340000D01*
X65952035Y-129272427D01*
X66405850Y-128954243D01*
X66731269Y-128349790D01*
X66870068Y-127897116D01*
X82441325Y-127897116D01*
X82591427Y-128103000D01*
X83618000Y-128103000D01*
X83618000Y-126910776D01*
X83872000Y-126910776D01*
X83872000Y-128103000D01*
X84898573Y-128103000D01*
X85048675Y-127897116D01*
X87901325Y-127897116D01*
X88051427Y-128103000D01*
X89078000Y-128103000D01*
X89078000Y-126910776D01*
X89332000Y-126910776D01*
X89332000Y-128103000D01*
X90358573Y-128103000D01*
X90508675Y-127897116D01*
X90452824Y-127645815D01*
X90349019Y-127410239D01*
X90201250Y-127199441D01*
X90015196Y-127021522D01*
X89798007Y-126883319D01*
X89558029Y-126790143D01*
X89534400Y-126787090D01*
X89332000Y-126910776D01*
X89078000Y-126910776D01*
X88875600Y-126787090D01*
X88851971Y-126790143D01*
X88611993Y-126883319D01*
X88394804Y-127021522D01*
X88208750Y-127199441D01*
X88060981Y-127410239D01*
X87957176Y-127645815D01*
X87901325Y-127897116D01*
X85048675Y-127897116D01*
X84992824Y-127645815D01*
X84889019Y-127410239D01*
X84741250Y-127199441D01*
X84555196Y-127021522D01*
X84338007Y-126883319D01*
X84098029Y-126790143D01*
X84074400Y-126787090D01*
X83872000Y-126910776D01*
X83618000Y-126910776D01*
X83415600Y-126787090D01*
X83391971Y-126790143D01*
X83151993Y-126883319D01*
X82934804Y-127021522D01*
X82748750Y-127199441D01*
X82600981Y-127410239D01*
X82497176Y-127645815D01*
X82441325Y-127897116D01*
X66870068Y-127897116D01*
X66932512Y-127693465D01*
X67001845Y-127010490D01*
X66936605Y-126327112D01*
X66739298Y-125669593D01*
X66417506Y-125063201D01*
X66405850Y-125045757D01*
X65952033Y-124727572D01*
X63679605Y-127000000D01*
X63693748Y-127014143D01*
X63514143Y-127193748D01*
X63500000Y-127179605D01*
X63485858Y-127193748D01*
X63306253Y-127014143D01*
X63320395Y-127000000D01*
X63306253Y-126985858D01*
X63485858Y-126806253D01*
X63500000Y-126820395D01*
X65772428Y-124547967D01*
X65454243Y-124094150D01*
X64849790Y-123768731D01*
X64193465Y-123567488D01*
X63510490Y-123498155D01*
X62827112Y-123563395D01*
X62169593Y-123760702D01*
X61563201Y-124082494D01*
X61545757Y-124094150D01*
X61227573Y-124547965D01*
X61160000Y-124480392D01*
X61160000Y-110298664D01*
X61191267Y-110401739D01*
X61194454Y-110412246D01*
X61265026Y-110544276D01*
X61290835Y-110575724D01*
X61359999Y-110660001D01*
X61389003Y-110683804D01*
X63098790Y-112393592D01*
X63055000Y-112613740D01*
X63055000Y-112906260D01*
X63112068Y-113193158D01*
X63224010Y-113463411D01*
X63386525Y-113706632D01*
X63593368Y-113913475D01*
X63767760Y-114030000D01*
X63593368Y-114146525D01*
X63386525Y-114353368D01*
X63224010Y-114596589D01*
X63112068Y-114866842D01*
X63055000Y-115153740D01*
X63055000Y-115446260D01*
X63112068Y-115733158D01*
X63224010Y-116003411D01*
X63386525Y-116246632D01*
X63593368Y-116453475D01*
X63767760Y-116570000D01*
X63593368Y-116686525D01*
X63386525Y-116893368D01*
X63224010Y-117136589D01*
X63112068Y-117406842D01*
X63055000Y-117693740D01*
X63055000Y-117986260D01*
X63112068Y-118273158D01*
X63224010Y-118543411D01*
X63386525Y-118786632D01*
X63593368Y-118993475D01*
X63767760Y-119110000D01*
X63593368Y-119226525D01*
X63386525Y-119433368D01*
X63224010Y-119676589D01*
X63112068Y-119946842D01*
X63055000Y-120233740D01*
X63055000Y-120526260D01*
X63112068Y-120813158D01*
X63224010Y-121083411D01*
X63386525Y-121326632D01*
X63593368Y-121533475D01*
X63836589Y-121695990D01*
X64106842Y-121807932D01*
X64393740Y-121865000D01*
X64686260Y-121865000D01*
X64973158Y-121807932D01*
X65243411Y-121695990D01*
X65486632Y-121533475D01*
X65693475Y-121326632D01*
X65810000Y-121152240D01*
X65926525Y-121326632D01*
X66133368Y-121533475D01*
X66376589Y-121695990D01*
X66646842Y-121807932D01*
X66933740Y-121865000D01*
X67226260Y-121865000D01*
X67513158Y-121807932D01*
X67783411Y-121695990D01*
X68026632Y-121533475D01*
X68233475Y-121326632D01*
X68358178Y-121140000D01*
X69082678Y-121140000D01*
X69120000Y-121143676D01*
X69157322Y-121140000D01*
X69157333Y-121140000D01*
X69268986Y-121129003D01*
X69412247Y-121085546D01*
X69540001Y-121017259D01*
X69540000Y-125862677D01*
X69536324Y-125900000D01*
X69540000Y-125937322D01*
X69540000Y-125937332D01*
X69550997Y-126048985D01*
X69591777Y-126183422D01*
X69594454Y-126192246D01*
X69665026Y-126324276D01*
X69680730Y-126343411D01*
X69759999Y-126440001D01*
X69789002Y-126463803D01*
X70651202Y-127326004D01*
X70675000Y-127355002D01*
X70790725Y-127449975D01*
X70922754Y-127520547D01*
X71066015Y-127564004D01*
X71177668Y-127575001D01*
X71177678Y-127575001D01*
X71215001Y-127578677D01*
X71252324Y-127575001D01*
X73747677Y-127575001D01*
X73784999Y-127578677D01*
X73822321Y-127575001D01*
X73822332Y-127575001D01*
X73933985Y-127564004D01*
X74077246Y-127520547D01*
X74209275Y-127449975D01*
X74325000Y-127355002D01*
X74348803Y-127325998D01*
X74593592Y-127081209D01*
X74813740Y-127125000D01*
X75106260Y-127125000D01*
X75393158Y-127067932D01*
X75663411Y-126955990D01*
X75906632Y-126793475D01*
X76113475Y-126586632D01*
X76230000Y-126412240D01*
X76346525Y-126586632D01*
X76553368Y-126793475D01*
X76796589Y-126955990D01*
X77066842Y-127067932D01*
X77353740Y-127125000D01*
X77646260Y-127125000D01*
X77933158Y-127067932D01*
X78203411Y-126955990D01*
X78446632Y-126793475D01*
X78653475Y-126586632D01*
X78815990Y-126343411D01*
X78927932Y-126073158D01*
X78985000Y-125786260D01*
X78985000Y-125543884D01*
X82869316Y-125543884D01*
X82914316Y-125773011D01*
X83003152Y-125988957D01*
X83132410Y-126183422D01*
X83297123Y-126348934D01*
X83490961Y-126479131D01*
X83706474Y-126569011D01*
X83745256Y-126573803D01*
X83928000Y-126448361D01*
X83928000Y-125357000D01*
X84182000Y-125357000D01*
X84182000Y-126448361D01*
X84364744Y-126573803D01*
X84403526Y-126569011D01*
X84619039Y-126479131D01*
X84812877Y-126348934D01*
X84977590Y-126183422D01*
X85106848Y-125988957D01*
X85195684Y-125773011D01*
X85240684Y-125543884D01*
X87709316Y-125543884D01*
X87754316Y-125773011D01*
X87843152Y-125988957D01*
X87972410Y-126183422D01*
X88137123Y-126348934D01*
X88330961Y-126479131D01*
X88546474Y-126569011D01*
X88585256Y-126573803D01*
X88768000Y-126448361D01*
X88768000Y-125357000D01*
X89022000Y-125357000D01*
X89022000Y-126448361D01*
X89204744Y-126573803D01*
X89243526Y-126569011D01*
X89459039Y-126479131D01*
X89652877Y-126348934D01*
X89817590Y-126183422D01*
X89946848Y-125988957D01*
X90035684Y-125773011D01*
X90080684Y-125543884D01*
X89925152Y-125357000D01*
X89022000Y-125357000D01*
X88768000Y-125357000D01*
X87864848Y-125357000D01*
X87709316Y-125543884D01*
X85240684Y-125543884D01*
X85085152Y-125357000D01*
X84182000Y-125357000D01*
X83928000Y-125357000D01*
X83024848Y-125357000D01*
X82869316Y-125543884D01*
X78985000Y-125543884D01*
X78985000Y-125493740D01*
X78941210Y-125273592D01*
X78964802Y-125250000D01*
X94711928Y-125250000D01*
X94711928Y-126950000D01*
X94724188Y-127074482D01*
X94760498Y-127194180D01*
X94819463Y-127304494D01*
X94898815Y-127401185D01*
X94995506Y-127480537D01*
X95105820Y-127539502D01*
X95225518Y-127575812D01*
X95350000Y-127588072D01*
X97050000Y-127588072D01*
X97174482Y-127575812D01*
X97294180Y-127539502D01*
X97404494Y-127480537D01*
X97501185Y-127401185D01*
X97580537Y-127304494D01*
X97639502Y-127194180D01*
X97663966Y-127113534D01*
X97739731Y-127197588D01*
X97973080Y-127371641D01*
X98235901Y-127496825D01*
X98383110Y-127541476D01*
X98613000Y-127420155D01*
X98613000Y-126227000D01*
X98867000Y-126227000D01*
X98867000Y-127420155D01*
X99096890Y-127541476D01*
X99244099Y-127496825D01*
X99506920Y-127371641D01*
X99740269Y-127197588D01*
X99935178Y-126981355D01*
X100010000Y-126855745D01*
X100084822Y-126981355D01*
X100279731Y-127197588D01*
X100513080Y-127371641D01*
X100775901Y-127496825D01*
X100923110Y-127541476D01*
X101153000Y-127420155D01*
X101153000Y-126227000D01*
X101407000Y-126227000D01*
X101407000Y-127420155D01*
X101636890Y-127541476D01*
X101784099Y-127496825D01*
X102046920Y-127371641D01*
X102280269Y-127197588D01*
X102475178Y-126981355D01*
X102624157Y-126731252D01*
X102721481Y-126456891D01*
X102600814Y-126227000D01*
X101407000Y-126227000D01*
X101153000Y-126227000D01*
X98867000Y-126227000D01*
X98613000Y-126227000D01*
X98593000Y-126227000D01*
X98593000Y-125973000D01*
X98613000Y-125973000D01*
X98613000Y-124779845D01*
X98867000Y-124779845D01*
X98867000Y-125973000D01*
X101153000Y-125973000D01*
X101153000Y-124779845D01*
X101407000Y-124779845D01*
X101407000Y-125973000D01*
X102600814Y-125973000D01*
X102721481Y-125743109D01*
X102624157Y-125468748D01*
X102475178Y-125218645D01*
X102280269Y-125002412D01*
X102046920Y-124828359D01*
X101784099Y-124703175D01*
X101636890Y-124658524D01*
X101407000Y-124779845D01*
X101153000Y-124779845D01*
X100923110Y-124658524D01*
X100775901Y-124703175D01*
X100513080Y-124828359D01*
X100279731Y-125002412D01*
X100084822Y-125218645D01*
X100010000Y-125344255D01*
X99935178Y-125218645D01*
X99740269Y-125002412D01*
X99506920Y-124828359D01*
X99244099Y-124703175D01*
X99096890Y-124658524D01*
X98867000Y-124779845D01*
X98613000Y-124779845D01*
X98383110Y-124658524D01*
X98235901Y-124703175D01*
X97973080Y-124828359D01*
X97739731Y-125002412D01*
X97663966Y-125086466D01*
X97639502Y-125005820D01*
X97580537Y-124895506D01*
X97501185Y-124798815D01*
X97404494Y-124719463D01*
X97294180Y-124660498D01*
X97174482Y-124624188D01*
X97050000Y-124611928D01*
X95350000Y-124611928D01*
X95225518Y-124624188D01*
X95105820Y-124660498D01*
X94995506Y-124719463D01*
X94898815Y-124798815D01*
X94819463Y-124895506D01*
X94760498Y-125005820D01*
X94724188Y-125125518D01*
X94711928Y-125250000D01*
X78964802Y-125250000D01*
X79298686Y-124916116D01*
X82869316Y-124916116D01*
X83024848Y-125103000D01*
X83928000Y-125103000D01*
X83928000Y-124011639D01*
X84182000Y-124011639D01*
X84182000Y-125103000D01*
X85085152Y-125103000D01*
X85240684Y-124916116D01*
X87709316Y-124916116D01*
X87864848Y-125103000D01*
X88768000Y-125103000D01*
X88768000Y-124011639D01*
X89022000Y-124011639D01*
X89022000Y-125103000D01*
X89925152Y-125103000D01*
X90080684Y-124916116D01*
X90035684Y-124686989D01*
X89946848Y-124471043D01*
X89817590Y-124276578D01*
X89652877Y-124111066D01*
X89459039Y-123980869D01*
X89243526Y-123890989D01*
X89204744Y-123886197D01*
X89022000Y-124011639D01*
X88768000Y-124011639D01*
X88585256Y-123886197D01*
X88546474Y-123890989D01*
X88330961Y-123980869D01*
X88137123Y-124111066D01*
X87972410Y-124276578D01*
X87843152Y-124471043D01*
X87754316Y-124686989D01*
X87709316Y-124916116D01*
X85240684Y-124916116D01*
X85195684Y-124686989D01*
X85106848Y-124471043D01*
X84977590Y-124276578D01*
X84812877Y-124111066D01*
X84619039Y-123980869D01*
X84403526Y-123890989D01*
X84364744Y-123886197D01*
X84182000Y-124011639D01*
X83928000Y-124011639D01*
X83745256Y-123886197D01*
X83706474Y-123890989D01*
X83490961Y-123980869D01*
X83297123Y-124111066D01*
X83132410Y-124276578D01*
X83003152Y-124471043D01*
X82914316Y-124686989D01*
X82869316Y-124916116D01*
X79298686Y-124916116D01*
X79711004Y-124503798D01*
X79740001Y-124480001D01*
X79776954Y-124434974D01*
X79834974Y-124364277D01*
X79905546Y-124232247D01*
X79911667Y-124212068D01*
X79949003Y-124088986D01*
X79960000Y-123977333D01*
X79960000Y-123977324D01*
X79963676Y-123940001D01*
X79960000Y-123902678D01*
X79960000Y-121607911D01*
X83065000Y-121607911D01*
X83065000Y-121792089D01*
X83100932Y-121972729D01*
X83171414Y-122142889D01*
X83273738Y-122296028D01*
X83403972Y-122426262D01*
X83557111Y-122528586D01*
X83727271Y-122599068D01*
X83907911Y-122635000D01*
X84092089Y-122635000D01*
X84272729Y-122599068D01*
X84442889Y-122528586D01*
X84596028Y-122426262D01*
X84726262Y-122296028D01*
X84828586Y-122142889D01*
X84899068Y-121972729D01*
X84935000Y-121792089D01*
X84935000Y-121607911D01*
X84899068Y-121427271D01*
X84828586Y-121257111D01*
X84760000Y-121154465D01*
X84760000Y-117721491D01*
X84872729Y-117699068D01*
X85042889Y-117628586D01*
X85196028Y-117526262D01*
X85326262Y-117396028D01*
X85428586Y-117242889D01*
X85499068Y-117072729D01*
X85535000Y-116892089D01*
X85535000Y-116707911D01*
X85499068Y-116527271D01*
X85428586Y-116357111D01*
X85326262Y-116203972D01*
X85196028Y-116073738D01*
X85042889Y-115971414D01*
X84872729Y-115900932D01*
X84692089Y-115865000D01*
X84507911Y-115865000D01*
X84327271Y-115900932D01*
X84157111Y-115971414D01*
X84003972Y-116073738D01*
X83873738Y-116203972D01*
X83771414Y-116357111D01*
X83700932Y-116527271D01*
X83676847Y-116648351D01*
X83488998Y-116836201D01*
X83460000Y-116859999D01*
X83436202Y-116888997D01*
X83436201Y-116888998D01*
X83365026Y-116975724D01*
X83294454Y-117107754D01*
X83273752Y-117176002D01*
X83250998Y-117251014D01*
X83245090Y-117311002D01*
X83236324Y-117400000D01*
X83240001Y-117437332D01*
X83240000Y-121154464D01*
X83171414Y-121257111D01*
X83100932Y-121427271D01*
X83065000Y-121607911D01*
X79960000Y-121607911D01*
X79960000Y-120114801D01*
X85889991Y-114184811D01*
X85889991Y-114812658D01*
X85886314Y-114849990D01*
X85889991Y-114887323D01*
X85900988Y-114998976D01*
X85909970Y-115028586D01*
X85944444Y-115142236D01*
X86015016Y-115274266D01*
X86081252Y-115354974D01*
X86109990Y-115389991D01*
X86138988Y-115413789D01*
X88036200Y-117311002D01*
X88059999Y-117340001D01*
X88088997Y-117363799D01*
X88175724Y-117434974D01*
X88307753Y-117505546D01*
X88451014Y-117549003D01*
X88600000Y-117563677D01*
X88637333Y-117560000D01*
X103885199Y-117560000D01*
X104576847Y-118251649D01*
X104600932Y-118372729D01*
X104671414Y-118542889D01*
X104773738Y-118696028D01*
X104903972Y-118826262D01*
X105057111Y-118928586D01*
X105227271Y-118999068D01*
X105407911Y-119035000D01*
X105592089Y-119035000D01*
X105772729Y-118999068D01*
X105942889Y-118928586D01*
X106096028Y-118826262D01*
X106226262Y-118696028D01*
X106328586Y-118542889D01*
X106366190Y-118452105D01*
X106404010Y-118543411D01*
X106566525Y-118786632D01*
X106773368Y-118993475D01*
X106947760Y-119110000D01*
X106773368Y-119226525D01*
X106566525Y-119433368D01*
X106404010Y-119676589D01*
X106292068Y-119946842D01*
X106235000Y-120233740D01*
X106235000Y-120526260D01*
X106292068Y-120813158D01*
X106404010Y-121083411D01*
X106566525Y-121326632D01*
X106773368Y-121533475D01*
X107016589Y-121695990D01*
X107286842Y-121807932D01*
X107573740Y-121865000D01*
X107866260Y-121865000D01*
X108153158Y-121807932D01*
X108423411Y-121695990D01*
X108666632Y-121533475D01*
X108873475Y-121326632D01*
X108990000Y-121152240D01*
X109106525Y-121326632D01*
X109313368Y-121533475D01*
X109556589Y-121695990D01*
X109826842Y-121807932D01*
X110113740Y-121865000D01*
X110406260Y-121865000D01*
X110693158Y-121807932D01*
X110963411Y-121695990D01*
X111206632Y-121533475D01*
X111413475Y-121326632D01*
X111575990Y-121083411D01*
X111687932Y-120813158D01*
X111745000Y-120526260D01*
X111745000Y-120233740D01*
X111687932Y-119946842D01*
X111575990Y-119676589D01*
X111413475Y-119433368D01*
X111206632Y-119226525D01*
X111032240Y-119110000D01*
X111206632Y-118993475D01*
X111413475Y-118786632D01*
X111575990Y-118543411D01*
X111687932Y-118273158D01*
X111745000Y-117986260D01*
X111745000Y-117693740D01*
X111687932Y-117406842D01*
X111575990Y-117136589D01*
X111413475Y-116893368D01*
X111206632Y-116686525D01*
X111032240Y-116570000D01*
X111206632Y-116453475D01*
X111413475Y-116246632D01*
X111575990Y-116003411D01*
X111687932Y-115733158D01*
X111745000Y-115446260D01*
X111745000Y-115153740D01*
X111687932Y-114866842D01*
X111575990Y-114596589D01*
X111413475Y-114353368D01*
X111206632Y-114146525D01*
X111032240Y-114030000D01*
X111206632Y-113913475D01*
X111413475Y-113706632D01*
X111575990Y-113463411D01*
X111687932Y-113193158D01*
X111745000Y-112906260D01*
X111745000Y-112613740D01*
X111687932Y-112326842D01*
X111575990Y-112056589D01*
X111413475Y-111813368D01*
X111206632Y-111606525D01*
X111032240Y-111490000D01*
X111206632Y-111373475D01*
X111413475Y-111166632D01*
X111575990Y-110923411D01*
X111687932Y-110653158D01*
X111745000Y-110366260D01*
X111745000Y-110073740D01*
X111687932Y-109786842D01*
X111575990Y-109516589D01*
X111413475Y-109273368D01*
X111206632Y-109066525D01*
X111032240Y-108950000D01*
X111206632Y-108833475D01*
X111413475Y-108626632D01*
X111575990Y-108383411D01*
X111687932Y-108113158D01*
X111745000Y-107826260D01*
X111745000Y-107533740D01*
X111687932Y-107246842D01*
X111575990Y-106976589D01*
X111413475Y-106733368D01*
X111206632Y-106526525D01*
X111032240Y-106410000D01*
X111206632Y-106293475D01*
X111413475Y-106086632D01*
X111575990Y-105843411D01*
X111687932Y-105573158D01*
X111745000Y-105286260D01*
X111745000Y-104993740D01*
X111687932Y-104706842D01*
X111575990Y-104436589D01*
X111413475Y-104193368D01*
X111206632Y-103986525D01*
X111032240Y-103870000D01*
X111206632Y-103753475D01*
X111413475Y-103546632D01*
X111575990Y-103303411D01*
X111687932Y-103033158D01*
X111745000Y-102746260D01*
X111745000Y-102453740D01*
X111701210Y-102233592D01*
X111946005Y-101988797D01*
X111975002Y-101965000D01*
X112069975Y-101849275D01*
X112140547Y-101717246D01*
X112184004Y-101573985D01*
X112195001Y-101462332D01*
X112195001Y-101462323D01*
X112198677Y-101425000D01*
X112195001Y-101387677D01*
X112195001Y-94672323D01*
X112198677Y-94635000D01*
X112195001Y-94597677D01*
X112195001Y-94597668D01*
X112184004Y-94486015D01*
X112140547Y-94342754D01*
X112069975Y-94210725D01*
X111975002Y-94095000D01*
X111946004Y-94071202D01*
X111544247Y-93669445D01*
X111642889Y-93628586D01*
X111796028Y-93526262D01*
X111926262Y-93396028D01*
X112028586Y-93242889D01*
X112099068Y-93072729D01*
X112135000Y-92892089D01*
X112135000Y-92707911D01*
X112099068Y-92527271D01*
X112060848Y-92435000D01*
X112192089Y-92435000D01*
X112243377Y-92424798D01*
X112200932Y-92527271D01*
G37*
%TD.AperFunction*%
D18*
X72547000Y-125513000D02*
X72567000Y-125513000D01*
X72567000Y-125767000D01*
X72547000Y-125767000D01*
X72547000Y-125787000D01*
X72293000Y-125787000D01*
X72293000Y-125767000D01*
X72273000Y-125767000D01*
X72273000Y-125513000D01*
X72293000Y-125513000D01*
X72293000Y-125493000D01*
X72547000Y-125493000D01*
X72547000Y-125513000D01*
%TA.AperFunction,Conductor*%
D19*
G36*
X72547000Y-125513000D02*
G01*
X72567000Y-125513000D01*
X72567000Y-125767000D01*
X72547000Y-125767000D01*
X72547000Y-125787000D01*
X72293000Y-125787000D01*
X72293000Y-125767000D01*
X72273000Y-125767000D01*
X72273000Y-125513000D01*
X72293000Y-125513000D01*
X72293000Y-125493000D01*
X72547000Y-125493000D01*
X72547000Y-125513000D01*
G37*
%TD.AperFunction*%
D18*
X78688998Y-119236201D02*
X78660000Y-119259999D01*
X78636202Y-119288997D01*
X78636201Y-119288998D01*
X78587419Y-119348438D01*
X78472729Y-119300932D01*
X78292089Y-119265000D01*
X78107911Y-119265000D01*
X77927271Y-119300932D01*
X77757111Y-119371414D01*
X77603972Y-119473738D01*
X77473738Y-119603972D01*
X77371414Y-119757111D01*
X77300932Y-119927271D01*
X77265000Y-120107911D01*
X77265000Y-120292089D01*
X77300932Y-120472729D01*
X77371414Y-120642889D01*
X77473738Y-120796028D01*
X77603972Y-120926262D01*
X77757111Y-121028586D01*
X77927271Y-121099068D01*
X78107911Y-121135000D01*
X78292089Y-121135000D01*
X78440001Y-121105578D01*
X78440001Y-121620792D01*
X78350000Y-121611928D01*
X76650000Y-121611928D01*
X76525518Y-121624188D01*
X76405820Y-121660498D01*
X76295506Y-121719463D01*
X76198815Y-121798815D01*
X76119463Y-121895506D01*
X76060498Y-122005820D01*
X76038487Y-122078380D01*
X75906632Y-121946525D01*
X75663411Y-121784010D01*
X75393158Y-121672068D01*
X75106260Y-121615000D01*
X74979801Y-121615000D01*
X77834802Y-118760000D01*
X79165199Y-118760000D01*
X78688998Y-119236201D01*
%TA.AperFunction,Conductor*%
D19*
G36*
X78688998Y-119236201D02*
G01*
X78660000Y-119259999D01*
X78636202Y-119288997D01*
X78636201Y-119288998D01*
X78587419Y-119348438D01*
X78472729Y-119300932D01*
X78292089Y-119265000D01*
X78107911Y-119265000D01*
X77927271Y-119300932D01*
X77757111Y-119371414D01*
X77603972Y-119473738D01*
X77473738Y-119603972D01*
X77371414Y-119757111D01*
X77300932Y-119927271D01*
X77265000Y-120107911D01*
X77265000Y-120292089D01*
X77300932Y-120472729D01*
X77371414Y-120642889D01*
X77473738Y-120796028D01*
X77603972Y-120926262D01*
X77757111Y-121028586D01*
X77927271Y-121099068D01*
X78107911Y-121135000D01*
X78292089Y-121135000D01*
X78440001Y-121105578D01*
X78440001Y-121620792D01*
X78350000Y-121611928D01*
X76650000Y-121611928D01*
X76525518Y-121624188D01*
X76405820Y-121660498D01*
X76295506Y-121719463D01*
X76198815Y-121798815D01*
X76119463Y-121895506D01*
X76060498Y-122005820D01*
X76038487Y-122078380D01*
X75906632Y-121946525D01*
X75663411Y-121784010D01*
X75393158Y-121672068D01*
X75106260Y-121615000D01*
X74979801Y-121615000D01*
X77834802Y-118760000D01*
X79165199Y-118760000D01*
X78688998Y-119236201D01*
G37*
%TD.AperFunction*%
D18*
X83340000Y-112985198D02*
X79085199Y-117240000D01*
X77557322Y-117240000D01*
X77519999Y-117236324D01*
X77482676Y-117240000D01*
X77482667Y-117240000D01*
X77371014Y-117250997D01*
X77227753Y-117294454D01*
X77095724Y-117365026D01*
X76979999Y-117459999D01*
X76956201Y-117488997D01*
X72786408Y-121658791D01*
X72566260Y-121615000D01*
X72359801Y-121615000D01*
X77214802Y-116760000D01*
X78962678Y-116760000D01*
X79000000Y-116763676D01*
X79037322Y-116760000D01*
X79037333Y-116760000D01*
X79148986Y-116749003D01*
X79292247Y-116705546D01*
X79424276Y-116634974D01*
X79540001Y-116540001D01*
X79563804Y-116510997D01*
X83340000Y-112734802D01*
X83340000Y-112985198D01*
%TA.AperFunction,Conductor*%
D19*
G36*
X83340000Y-112985198D02*
G01*
X79085199Y-117240000D01*
X77557322Y-117240000D01*
X77519999Y-117236324D01*
X77482676Y-117240000D01*
X77482667Y-117240000D01*
X77371014Y-117250997D01*
X77227753Y-117294454D01*
X77095724Y-117365026D01*
X76979999Y-117459999D01*
X76956201Y-117488997D01*
X72786408Y-121658791D01*
X72566260Y-121615000D01*
X72359801Y-121615000D01*
X77214802Y-116760000D01*
X78962678Y-116760000D01*
X79000000Y-116763676D01*
X79037322Y-116760000D01*
X79037333Y-116760000D01*
X79148986Y-116749003D01*
X79292247Y-116705546D01*
X79424276Y-116634974D01*
X79540001Y-116540001D01*
X79563804Y-116510997D01*
X83340000Y-112734802D01*
X83340000Y-112985198D01*
G37*
%TD.AperFunction*%
D18*
X106566525Y-116246632D02*
X106773368Y-116453475D01*
X106947760Y-116570000D01*
X106773368Y-116686525D01*
X106566525Y-116893368D01*
X106404010Y-117136589D01*
X106292068Y-117406842D01*
X106262084Y-117557583D01*
X106226262Y-117503972D01*
X106096028Y-117373738D01*
X105942889Y-117271414D01*
X105772729Y-117200932D01*
X105651649Y-117176847D01*
X104763804Y-116289003D01*
X104740001Y-116259999D01*
X104624276Y-116165026D01*
X104492247Y-116094454D01*
X104378665Y-116060000D01*
X106441822Y-116060000D01*
X106566525Y-116246632D01*
%TA.AperFunction,Conductor*%
D19*
G36*
X106566525Y-116246632D02*
G01*
X106773368Y-116453475D01*
X106947760Y-116570000D01*
X106773368Y-116686525D01*
X106566525Y-116893368D01*
X106404010Y-117136589D01*
X106292068Y-117406842D01*
X106262084Y-117557583D01*
X106226262Y-117503972D01*
X106096028Y-117373738D01*
X105942889Y-117271414D01*
X105772729Y-117200932D01*
X105651649Y-117176847D01*
X104763804Y-116289003D01*
X104740001Y-116259999D01*
X104624276Y-116165026D01*
X104492247Y-116094454D01*
X104378665Y-116060000D01*
X106441822Y-116060000D01*
X106566525Y-116246632D01*
G37*
%TD.AperFunction*%
D18*
X82340000Y-111585198D02*
X78685199Y-115240000D01*
X77034802Y-115240000D01*
X77214802Y-115060000D01*
X78462678Y-115060000D01*
X78500000Y-115063676D01*
X78537322Y-115060000D01*
X78537333Y-115060000D01*
X78648986Y-115049003D01*
X78792247Y-115005546D01*
X78924276Y-114934974D01*
X79040001Y-114840001D01*
X79063804Y-114810997D01*
X82311004Y-111563798D01*
X82340000Y-111540002D01*
X82340000Y-111585198D01*
%TA.AperFunction,Conductor*%
D19*
G36*
X82340000Y-111585198D02*
G01*
X78685199Y-115240000D01*
X77034802Y-115240000D01*
X77214802Y-115060000D01*
X78462678Y-115060000D01*
X78500000Y-115063676D01*
X78537322Y-115060000D01*
X78537333Y-115060000D01*
X78648986Y-115049003D01*
X78792247Y-115005546D01*
X78924276Y-114934974D01*
X79040001Y-114840001D01*
X79063804Y-114810997D01*
X82311004Y-111563798D01*
X82340000Y-111540002D01*
X82340000Y-111585198D01*
G37*
%TD.AperFunction*%
D18*
X89696201Y-113271003D02*
X89719999Y-113300001D01*
X89835724Y-113394974D01*
X89967753Y-113465546D01*
X90111014Y-113509003D01*
X90222667Y-113520000D01*
X90222676Y-113520000D01*
X90259999Y-113523676D01*
X90297322Y-113520000D01*
X106441822Y-113520000D01*
X106566525Y-113706632D01*
X106773368Y-113913475D01*
X106947760Y-114030000D01*
X106773368Y-114146525D01*
X106566525Y-114353368D01*
X106441822Y-114540000D01*
X89114802Y-114540000D01*
X88660000Y-114085199D01*
X88660000Y-112234801D01*
X89696201Y-113271003D01*
%TA.AperFunction,Conductor*%
D19*
G36*
X89696201Y-113271003D02*
G01*
X89719999Y-113300001D01*
X89835724Y-113394974D01*
X89967753Y-113465546D01*
X90111014Y-113509003D01*
X90222667Y-113520000D01*
X90222676Y-113520000D01*
X90259999Y-113523676D01*
X90297322Y-113520000D01*
X106441822Y-113520000D01*
X106566525Y-113706632D01*
X106773368Y-113913475D01*
X106947760Y-114030000D01*
X106773368Y-114146525D01*
X106566525Y-114353368D01*
X106441822Y-114540000D01*
X89114802Y-114540000D01*
X88660000Y-114085199D01*
X88660000Y-112234801D01*
X89696201Y-113271003D01*
G37*
%TD.AperFunction*%
D18*
X78185199Y-113540000D02*
X77005578Y-113540000D01*
X77035000Y-113392089D01*
X77035000Y-113335012D01*
X77092089Y-113335012D01*
X77272729Y-113299080D01*
X77442889Y-113228598D01*
X77596028Y-113126274D01*
X77726262Y-112996040D01*
X77828586Y-112842901D01*
X77899068Y-112672741D01*
X77926467Y-112535000D01*
X78092089Y-112535000D01*
X78272729Y-112499068D01*
X78442889Y-112428586D01*
X78545535Y-112360000D01*
X79162678Y-112360000D01*
X79200000Y-112363676D01*
X79237322Y-112360000D01*
X79237333Y-112360000D01*
X79348986Y-112349003D01*
X79388043Y-112337155D01*
X78185199Y-113540000D01*
%TA.AperFunction,Conductor*%
D19*
G36*
X78185199Y-113540000D02*
G01*
X77005578Y-113540000D01*
X77035000Y-113392089D01*
X77035000Y-113335012D01*
X77092089Y-113335012D01*
X77272729Y-113299080D01*
X77442889Y-113228598D01*
X77596028Y-113126274D01*
X77726262Y-112996040D01*
X77828586Y-112842901D01*
X77899068Y-112672741D01*
X77926467Y-112535000D01*
X78092089Y-112535000D01*
X78272729Y-112499068D01*
X78442889Y-112428586D01*
X78545535Y-112360000D01*
X79162678Y-112360000D01*
X79200000Y-112363676D01*
X79237322Y-112360000D01*
X79237333Y-112360000D01*
X79348986Y-112349003D01*
X79388043Y-112337155D01*
X78185199Y-113540000D01*
G37*
%TD.AperFunction*%
D18*
X79965026Y-107475724D02*
X79935473Y-107531014D01*
X79894454Y-107607754D01*
X79850997Y-107751015D01*
X79840000Y-107862668D01*
X79840000Y-107862678D01*
X79836324Y-107900000D01*
X79840000Y-107937323D01*
X79840001Y-109885197D01*
X78885199Y-110840000D01*
X78545535Y-110840000D01*
X78442889Y-110771414D01*
X78272729Y-110700932D01*
X78092089Y-110665000D01*
X77907911Y-110665000D01*
X77727271Y-110700932D01*
X77557111Y-110771414D01*
X77552111Y-110774755D01*
X77540001Y-110759999D01*
X77511004Y-110736202D01*
X74234801Y-107460000D01*
X79977931Y-107460000D01*
X79965026Y-107475724D01*
%TA.AperFunction,Conductor*%
D19*
G36*
X79965026Y-107475724D02*
G01*
X79935473Y-107531014D01*
X79894454Y-107607754D01*
X79850997Y-107751015D01*
X79840000Y-107862668D01*
X79840000Y-107862678D01*
X79836324Y-107900000D01*
X79840000Y-107937323D01*
X79840001Y-109885197D01*
X78885199Y-110840000D01*
X78545535Y-110840000D01*
X78442889Y-110771414D01*
X78272729Y-110700932D01*
X78092089Y-110665000D01*
X77907911Y-110665000D01*
X77727271Y-110700932D01*
X77557111Y-110771414D01*
X77552111Y-110774755D01*
X77540001Y-110759999D01*
X77511004Y-110736202D01*
X74234801Y-107460000D01*
X79977931Y-107460000D01*
X79965026Y-107475724D01*
G37*
%TD.AperFunction*%
D18*
X106292068Y-102166842D02*
X106235000Y-102453740D01*
X106235000Y-102746260D01*
X106292068Y-103033158D01*
X106404010Y-103303411D01*
X106566525Y-103546632D01*
X106773368Y-103753475D01*
X106947760Y-103870000D01*
X106773368Y-103986525D01*
X106566525Y-104193368D01*
X106404010Y-104436589D01*
X106292068Y-104706842D01*
X106235000Y-104993740D01*
X106235000Y-105286260D01*
X106292068Y-105573158D01*
X106404010Y-105843411D01*
X106566525Y-106086632D01*
X106773368Y-106293475D01*
X106947760Y-106410000D01*
X106773368Y-106526525D01*
X106566525Y-106733368D01*
X106404010Y-106976589D01*
X106292068Y-107246842D01*
X106235000Y-107533740D01*
X106235000Y-107826260D01*
X106292068Y-108113158D01*
X106404010Y-108383411D01*
X106566525Y-108626632D01*
X106773368Y-108833475D01*
X106947760Y-108950000D01*
X106773368Y-109066525D01*
X106566525Y-109273368D01*
X106404010Y-109516589D01*
X106292068Y-109786842D01*
X106235000Y-110073740D01*
X106235000Y-110366260D01*
X106292068Y-110653158D01*
X106363247Y-110824999D01*
X92199801Y-110824999D01*
X91424407Y-110049606D01*
X91424407Y-109781132D01*
X91492993Y-109678486D01*
X91563475Y-109508326D01*
X91599407Y-109327686D01*
X91599407Y-109143508D01*
X91574560Y-109018595D01*
X91672729Y-108999068D01*
X91842889Y-108928586D01*
X91996028Y-108826262D01*
X92126262Y-108696028D01*
X92228586Y-108542889D01*
X92243074Y-108507911D01*
X94039990Y-108507911D01*
X94039990Y-108692089D01*
X94075922Y-108872729D01*
X94146404Y-109042889D01*
X94248728Y-109196028D01*
X94378962Y-109326262D01*
X94532101Y-109428586D01*
X94702261Y-109499068D01*
X94882901Y-109535000D01*
X95067079Y-109535000D01*
X95247719Y-109499068D01*
X95417879Y-109428586D01*
X95571018Y-109326262D01*
X95701252Y-109196028D01*
X95803576Y-109042889D01*
X95874058Y-108872729D01*
X95909990Y-108692089D01*
X95909990Y-108507911D01*
X95907798Y-108496890D01*
X97758524Y-108496890D01*
X97803175Y-108644099D01*
X97928359Y-108906920D01*
X98102412Y-109140269D01*
X98318645Y-109335178D01*
X98568748Y-109484157D01*
X98843109Y-109581481D01*
X99073000Y-109460814D01*
X99073000Y-108267000D01*
X99327000Y-108267000D01*
X99327000Y-109460814D01*
X99556891Y-109581481D01*
X99831252Y-109484157D01*
X100081355Y-109335178D01*
X100297588Y-109140269D01*
X100471641Y-108906920D01*
X100596825Y-108644099D01*
X100641476Y-108496890D01*
X100520155Y-108267000D01*
X99327000Y-108267000D01*
X99073000Y-108267000D01*
X97879845Y-108267000D01*
X97758524Y-108496890D01*
X95907798Y-108496890D01*
X95874058Y-108327271D01*
X95803576Y-108157111D01*
X95701252Y-108003972D01*
X95571018Y-107873738D01*
X95417879Y-107771414D01*
X95247719Y-107700932D01*
X95067079Y-107665000D01*
X94882901Y-107665000D01*
X94702261Y-107700932D01*
X94532101Y-107771414D01*
X94378962Y-107873738D01*
X94248728Y-108003972D01*
X94146404Y-108157111D01*
X94075922Y-108327271D01*
X94039990Y-108507911D01*
X92243074Y-108507911D01*
X92299068Y-108372729D01*
X92335000Y-108192089D01*
X92335000Y-108007911D01*
X92299068Y-107827271D01*
X92228586Y-107657111D01*
X92126262Y-107503972D01*
X91996028Y-107373738D01*
X91842889Y-107271414D01*
X91672729Y-107200932D01*
X91533665Y-107173270D01*
X94449408Y-107173270D01*
X94486730Y-107176946D01*
X94524052Y-107173270D01*
X94524063Y-107173270D01*
X94635716Y-107162273D01*
X94778977Y-107118816D01*
X94911006Y-107048244D01*
X95026731Y-106953271D01*
X95050534Y-106924267D01*
X97224801Y-104750000D01*
X97711928Y-104750000D01*
X97711928Y-106450000D01*
X97724188Y-106574482D01*
X97760498Y-106694180D01*
X97819463Y-106804494D01*
X97898815Y-106901185D01*
X97995506Y-106980537D01*
X98105820Y-107039502D01*
X98186466Y-107063966D01*
X98102412Y-107139731D01*
X97928359Y-107373080D01*
X97803175Y-107635901D01*
X97758524Y-107783110D01*
X97879845Y-108013000D01*
X99073000Y-108013000D01*
X99073000Y-107993000D01*
X99327000Y-107993000D01*
X99327000Y-108013000D01*
X100520155Y-108013000D01*
X100641476Y-107783110D01*
X100596825Y-107635901D01*
X100471641Y-107373080D01*
X100297588Y-107139731D01*
X100213534Y-107063966D01*
X100294180Y-107039502D01*
X100404494Y-106980537D01*
X100501185Y-106901185D01*
X100580537Y-106804494D01*
X100639502Y-106694180D01*
X100675812Y-106574482D01*
X100688072Y-106450000D01*
X100688072Y-104750000D01*
X100675812Y-104625518D01*
X100639502Y-104505820D01*
X100580537Y-104395506D01*
X100501185Y-104298815D01*
X100404494Y-104219463D01*
X100294180Y-104160498D01*
X100174482Y-104124188D01*
X100050000Y-104111928D01*
X98350000Y-104111928D01*
X98225518Y-104124188D01*
X98105820Y-104160498D01*
X97995506Y-104219463D01*
X97898815Y-104298815D01*
X97819463Y-104395506D01*
X97760498Y-104505820D01*
X97724188Y-104625518D01*
X97711928Y-104750000D01*
X97224801Y-104750000D01*
X98814802Y-103160000D01*
X104462678Y-103160000D01*
X104500000Y-103163676D01*
X104537322Y-103160000D01*
X104537333Y-103160000D01*
X104648986Y-103149003D01*
X104792247Y-103105546D01*
X104924276Y-103034974D01*
X105040001Y-102940001D01*
X105063803Y-102910998D01*
X105613799Y-102361004D01*
X105613807Y-102360994D01*
X105863799Y-102111003D01*
X105979801Y-101995001D01*
X106363247Y-101995001D01*
X106292068Y-102166842D01*
%TA.AperFunction,Conductor*%
D19*
G36*
X106292068Y-102166842D02*
G01*
X106235000Y-102453740D01*
X106235000Y-102746260D01*
X106292068Y-103033158D01*
X106404010Y-103303411D01*
X106566525Y-103546632D01*
X106773368Y-103753475D01*
X106947760Y-103870000D01*
X106773368Y-103986525D01*
X106566525Y-104193368D01*
X106404010Y-104436589D01*
X106292068Y-104706842D01*
X106235000Y-104993740D01*
X106235000Y-105286260D01*
X106292068Y-105573158D01*
X106404010Y-105843411D01*
X106566525Y-106086632D01*
X106773368Y-106293475D01*
X106947760Y-106410000D01*
X106773368Y-106526525D01*
X106566525Y-106733368D01*
X106404010Y-106976589D01*
X106292068Y-107246842D01*
X106235000Y-107533740D01*
X106235000Y-107826260D01*
X106292068Y-108113158D01*
X106404010Y-108383411D01*
X106566525Y-108626632D01*
X106773368Y-108833475D01*
X106947760Y-108950000D01*
X106773368Y-109066525D01*
X106566525Y-109273368D01*
X106404010Y-109516589D01*
X106292068Y-109786842D01*
X106235000Y-110073740D01*
X106235000Y-110366260D01*
X106292068Y-110653158D01*
X106363247Y-110824999D01*
X92199801Y-110824999D01*
X91424407Y-110049606D01*
X91424407Y-109781132D01*
X91492993Y-109678486D01*
X91563475Y-109508326D01*
X91599407Y-109327686D01*
X91599407Y-109143508D01*
X91574560Y-109018595D01*
X91672729Y-108999068D01*
X91842889Y-108928586D01*
X91996028Y-108826262D01*
X92126262Y-108696028D01*
X92228586Y-108542889D01*
X92243074Y-108507911D01*
X94039990Y-108507911D01*
X94039990Y-108692089D01*
X94075922Y-108872729D01*
X94146404Y-109042889D01*
X94248728Y-109196028D01*
X94378962Y-109326262D01*
X94532101Y-109428586D01*
X94702261Y-109499068D01*
X94882901Y-109535000D01*
X95067079Y-109535000D01*
X95247719Y-109499068D01*
X95417879Y-109428586D01*
X95571018Y-109326262D01*
X95701252Y-109196028D01*
X95803576Y-109042889D01*
X95874058Y-108872729D01*
X95909990Y-108692089D01*
X95909990Y-108507911D01*
X95907798Y-108496890D01*
X97758524Y-108496890D01*
X97803175Y-108644099D01*
X97928359Y-108906920D01*
X98102412Y-109140269D01*
X98318645Y-109335178D01*
X98568748Y-109484157D01*
X98843109Y-109581481D01*
X99073000Y-109460814D01*
X99073000Y-108267000D01*
X99327000Y-108267000D01*
X99327000Y-109460814D01*
X99556891Y-109581481D01*
X99831252Y-109484157D01*
X100081355Y-109335178D01*
X100297588Y-109140269D01*
X100471641Y-108906920D01*
X100596825Y-108644099D01*
X100641476Y-108496890D01*
X100520155Y-108267000D01*
X99327000Y-108267000D01*
X99073000Y-108267000D01*
X97879845Y-108267000D01*
X97758524Y-108496890D01*
X95907798Y-108496890D01*
X95874058Y-108327271D01*
X95803576Y-108157111D01*
X95701252Y-108003972D01*
X95571018Y-107873738D01*
X95417879Y-107771414D01*
X95247719Y-107700932D01*
X95067079Y-107665000D01*
X94882901Y-107665000D01*
X94702261Y-107700932D01*
X94532101Y-107771414D01*
X94378962Y-107873738D01*
X94248728Y-108003972D01*
X94146404Y-108157111D01*
X94075922Y-108327271D01*
X94039990Y-108507911D01*
X92243074Y-108507911D01*
X92299068Y-108372729D01*
X92335000Y-108192089D01*
X92335000Y-108007911D01*
X92299068Y-107827271D01*
X92228586Y-107657111D01*
X92126262Y-107503972D01*
X91996028Y-107373738D01*
X91842889Y-107271414D01*
X91672729Y-107200932D01*
X91533665Y-107173270D01*
X94449408Y-107173270D01*
X94486730Y-107176946D01*
X94524052Y-107173270D01*
X94524063Y-107173270D01*
X94635716Y-107162273D01*
X94778977Y-107118816D01*
X94911006Y-107048244D01*
X95026731Y-106953271D01*
X95050534Y-106924267D01*
X97224801Y-104750000D01*
X97711928Y-104750000D01*
X97711928Y-106450000D01*
X97724188Y-106574482D01*
X97760498Y-106694180D01*
X97819463Y-106804494D01*
X97898815Y-106901185D01*
X97995506Y-106980537D01*
X98105820Y-107039502D01*
X98186466Y-107063966D01*
X98102412Y-107139731D01*
X97928359Y-107373080D01*
X97803175Y-107635901D01*
X97758524Y-107783110D01*
X97879845Y-108013000D01*
X99073000Y-108013000D01*
X99073000Y-107993000D01*
X99327000Y-107993000D01*
X99327000Y-108013000D01*
X100520155Y-108013000D01*
X100641476Y-107783110D01*
X100596825Y-107635901D01*
X100471641Y-107373080D01*
X100297588Y-107139731D01*
X100213534Y-107063966D01*
X100294180Y-107039502D01*
X100404494Y-106980537D01*
X100501185Y-106901185D01*
X100580537Y-106804494D01*
X100639502Y-106694180D01*
X100675812Y-106574482D01*
X100688072Y-106450000D01*
X100688072Y-104750000D01*
X100675812Y-104625518D01*
X100639502Y-104505820D01*
X100580537Y-104395506D01*
X100501185Y-104298815D01*
X100404494Y-104219463D01*
X100294180Y-104160498D01*
X100174482Y-104124188D01*
X100050000Y-104111928D01*
X98350000Y-104111928D01*
X98225518Y-104124188D01*
X98105820Y-104160498D01*
X97995506Y-104219463D01*
X97898815Y-104298815D01*
X97819463Y-104395506D01*
X97760498Y-104505820D01*
X97724188Y-104625518D01*
X97711928Y-104750000D01*
X97224801Y-104750000D01*
X98814802Y-103160000D01*
X104462678Y-103160000D01*
X104500000Y-103163676D01*
X104537322Y-103160000D01*
X104537333Y-103160000D01*
X104648986Y-103149003D01*
X104792247Y-103105546D01*
X104924276Y-103034974D01*
X105040001Y-102940001D01*
X105063803Y-102910998D01*
X105613799Y-102361004D01*
X105613807Y-102360994D01*
X105863799Y-102111003D01*
X105979801Y-101995001D01*
X106363247Y-101995001D01*
X106292068Y-102166842D01*
G37*
%TD.AperFunction*%
D18*
X94171414Y-100957111D02*
X94100932Y-101127271D01*
X94065000Y-101307911D01*
X94065000Y-101492089D01*
X94100932Y-101672729D01*
X94171414Y-101842889D01*
X94273738Y-101996028D01*
X94403972Y-102126262D01*
X94557111Y-102228586D01*
X94727271Y-102299068D01*
X94907911Y-102335000D01*
X95092089Y-102335000D01*
X95272729Y-102299068D01*
X95442889Y-102228586D01*
X95596028Y-102126262D01*
X95726262Y-101996028D01*
X95817152Y-101860001D01*
X97959997Y-101860001D01*
X97936201Y-101888997D01*
X94171929Y-105653270D01*
X92754826Y-105653270D01*
X92828580Y-105542889D01*
X92899062Y-105372729D01*
X92934994Y-105192089D01*
X92934994Y-105007911D01*
X92899062Y-104827271D01*
X92828580Y-104657111D01*
X92726256Y-104503972D01*
X92596022Y-104373738D01*
X92442883Y-104271414D01*
X92272723Y-104200932D01*
X92092083Y-104165000D01*
X91907905Y-104165000D01*
X91727265Y-104200932D01*
X91557105Y-104271414D01*
X91403966Y-104373738D01*
X91273732Y-104503972D01*
X91171408Y-104657111D01*
X91100926Y-104827271D01*
X91064994Y-105007911D01*
X91064994Y-105192089D01*
X91100926Y-105372729D01*
X91171408Y-105542889D01*
X91245162Y-105653270D01*
X87724063Y-105653270D01*
X87686730Y-105649593D01*
X87649397Y-105653270D01*
X87537744Y-105664267D01*
X87394483Y-105707724D01*
X87262454Y-105778296D01*
X87146729Y-105873269D01*
X87122931Y-105902267D01*
X86289002Y-106736197D01*
X86259999Y-106759999D01*
X86220809Y-106807753D01*
X86165026Y-106875724D01*
X86112253Y-106974454D01*
X86094454Y-107007754D01*
X86050997Y-107151015D01*
X86040000Y-107262668D01*
X86040000Y-107262678D01*
X86036324Y-107300000D01*
X86040000Y-107337322D01*
X86040000Y-107554465D01*
X85971414Y-107657111D01*
X85900932Y-107827271D01*
X85865000Y-108007911D01*
X85865000Y-108192089D01*
X85887901Y-108307216D01*
X85872729Y-108300932D01*
X85815604Y-108289569D01*
X85834994Y-108192089D01*
X85834994Y-108007911D01*
X85799062Y-107827271D01*
X85728580Y-107657111D01*
X85626256Y-107503972D01*
X85577417Y-107455133D01*
X85534968Y-107375717D01*
X85463793Y-107288991D01*
X85439995Y-107259993D01*
X85410998Y-107236196D01*
X84763803Y-106589002D01*
X84740001Y-106559999D01*
X84624276Y-106465026D01*
X84492247Y-106394454D01*
X84348986Y-106350997D01*
X84237333Y-106340000D01*
X84237322Y-106340000D01*
X84200000Y-106336324D01*
X84162678Y-106340000D01*
X83234802Y-106340000D01*
X84314802Y-105260000D01*
X89662678Y-105260000D01*
X89700000Y-105263676D01*
X89737322Y-105260000D01*
X89737333Y-105260000D01*
X89848986Y-105249003D01*
X89992247Y-105205546D01*
X90124276Y-105134974D01*
X90240001Y-105040001D01*
X90263804Y-105010997D01*
X91640439Y-103634363D01*
X91669437Y-103610565D01*
X91764410Y-103494840D01*
X91834982Y-103362811D01*
X91878439Y-103219550D01*
X91889436Y-103107897D01*
X91889436Y-103107889D01*
X91893112Y-103070564D01*
X91889436Y-103033239D01*
X91889436Y-101824999D01*
X91958022Y-101722353D01*
X92028504Y-101552193D01*
X92064436Y-101371553D01*
X92064436Y-101187375D01*
X92028504Y-101006735D01*
X91967725Y-100860000D01*
X94236301Y-100860000D01*
X94171414Y-100957111D01*
%TA.AperFunction,Conductor*%
D19*
G36*
X94171414Y-100957111D02*
G01*
X94100932Y-101127271D01*
X94065000Y-101307911D01*
X94065000Y-101492089D01*
X94100932Y-101672729D01*
X94171414Y-101842889D01*
X94273738Y-101996028D01*
X94403972Y-102126262D01*
X94557111Y-102228586D01*
X94727271Y-102299068D01*
X94907911Y-102335000D01*
X95092089Y-102335000D01*
X95272729Y-102299068D01*
X95442889Y-102228586D01*
X95596028Y-102126262D01*
X95726262Y-101996028D01*
X95817152Y-101860001D01*
X97959997Y-101860001D01*
X97936201Y-101888997D01*
X94171929Y-105653270D01*
X92754826Y-105653270D01*
X92828580Y-105542889D01*
X92899062Y-105372729D01*
X92934994Y-105192089D01*
X92934994Y-105007911D01*
X92899062Y-104827271D01*
X92828580Y-104657111D01*
X92726256Y-104503972D01*
X92596022Y-104373738D01*
X92442883Y-104271414D01*
X92272723Y-104200932D01*
X92092083Y-104165000D01*
X91907905Y-104165000D01*
X91727265Y-104200932D01*
X91557105Y-104271414D01*
X91403966Y-104373738D01*
X91273732Y-104503972D01*
X91171408Y-104657111D01*
X91100926Y-104827271D01*
X91064994Y-105007911D01*
X91064994Y-105192089D01*
X91100926Y-105372729D01*
X91171408Y-105542889D01*
X91245162Y-105653270D01*
X87724063Y-105653270D01*
X87686730Y-105649593D01*
X87649397Y-105653270D01*
X87537744Y-105664267D01*
X87394483Y-105707724D01*
X87262454Y-105778296D01*
X87146729Y-105873269D01*
X87122931Y-105902267D01*
X86289002Y-106736197D01*
X86259999Y-106759999D01*
X86220809Y-106807753D01*
X86165026Y-106875724D01*
X86112253Y-106974454D01*
X86094454Y-107007754D01*
X86050997Y-107151015D01*
X86040000Y-107262668D01*
X86040000Y-107262678D01*
X86036324Y-107300000D01*
X86040000Y-107337322D01*
X86040000Y-107554465D01*
X85971414Y-107657111D01*
X85900932Y-107827271D01*
X85865000Y-108007911D01*
X85865000Y-108192089D01*
X85887901Y-108307216D01*
X85872729Y-108300932D01*
X85815604Y-108289569D01*
X85834994Y-108192089D01*
X85834994Y-108007911D01*
X85799062Y-107827271D01*
X85728580Y-107657111D01*
X85626256Y-107503972D01*
X85577417Y-107455133D01*
X85534968Y-107375717D01*
X85463793Y-107288991D01*
X85439995Y-107259993D01*
X85410998Y-107236196D01*
X84763803Y-106589002D01*
X84740001Y-106559999D01*
X84624276Y-106465026D01*
X84492247Y-106394454D01*
X84348986Y-106350997D01*
X84237333Y-106340000D01*
X84237322Y-106340000D01*
X84200000Y-106336324D01*
X84162678Y-106340000D01*
X83234802Y-106340000D01*
X84314802Y-105260000D01*
X89662678Y-105260000D01*
X89700000Y-105263676D01*
X89737322Y-105260000D01*
X89737333Y-105260000D01*
X89848986Y-105249003D01*
X89992247Y-105205546D01*
X90124276Y-105134974D01*
X90240001Y-105040001D01*
X90263804Y-105010997D01*
X91640439Y-103634363D01*
X91669437Y-103610565D01*
X91764410Y-103494840D01*
X91834982Y-103362811D01*
X91878439Y-103219550D01*
X91889436Y-103107897D01*
X91889436Y-103107889D01*
X91893112Y-103070564D01*
X91889436Y-103033239D01*
X91889436Y-101824999D01*
X91958022Y-101722353D01*
X92028504Y-101552193D01*
X92064436Y-101371553D01*
X92064436Y-101187375D01*
X92028504Y-101006735D01*
X91967725Y-100860000D01*
X94236301Y-100860000D01*
X94171414Y-100957111D01*
G37*
%TD.AperFunction*%
D18*
X81076455Y-102351251D02*
X81006787Y-102420919D01*
X80904463Y-102574058D01*
X80833981Y-102744218D01*
X80798049Y-102924858D01*
X80798049Y-103109036D01*
X80833981Y-103289676D01*
X80904463Y-103459836D01*
X81006787Y-103612975D01*
X81137021Y-103743209D01*
X81290160Y-103845533D01*
X81460320Y-103916015D01*
X81640960Y-103951947D01*
X81825138Y-103951947D01*
X82005778Y-103916015D01*
X82175938Y-103845533D01*
X82329077Y-103743209D01*
X82398745Y-103673541D01*
X82636207Y-103911003D01*
X82660005Y-103940001D01*
X82775730Y-104034974D01*
X82907759Y-104105546D01*
X83051020Y-104149003D01*
X83162673Y-104160000D01*
X83162681Y-104160000D01*
X83200006Y-104163676D01*
X83237331Y-104160000D01*
X83265198Y-104160000D01*
X81623743Y-105801455D01*
X81596026Y-105773738D01*
X81442887Y-105671414D01*
X81272727Y-105600932D01*
X81092087Y-105565000D01*
X80907909Y-105565000D01*
X80727269Y-105600932D01*
X80557109Y-105671414D01*
X80403970Y-105773738D01*
X80273736Y-105903972D01*
X80249663Y-105940000D01*
X78939875Y-105940000D01*
X78949278Y-105934974D01*
X79065003Y-105840001D01*
X79088806Y-105810998D01*
X80036005Y-104863799D01*
X80065002Y-104840002D01*
X80091333Y-104807918D01*
X80159975Y-104724278D01*
X80230547Y-104592248D01*
X80247511Y-104536324D01*
X80274004Y-104448987D01*
X80285001Y-104337334D01*
X80285001Y-104337325D01*
X80288677Y-104300002D01*
X80285001Y-104262679D01*
X80285001Y-101559796D01*
X81076455Y-102351251D01*
%TA.AperFunction,Conductor*%
D19*
G36*
X81076455Y-102351251D02*
G01*
X81006787Y-102420919D01*
X80904463Y-102574058D01*
X80833981Y-102744218D01*
X80798049Y-102924858D01*
X80798049Y-103109036D01*
X80833981Y-103289676D01*
X80904463Y-103459836D01*
X81006787Y-103612975D01*
X81137021Y-103743209D01*
X81290160Y-103845533D01*
X81460320Y-103916015D01*
X81640960Y-103951947D01*
X81825138Y-103951947D01*
X82005778Y-103916015D01*
X82175938Y-103845533D01*
X82329077Y-103743209D01*
X82398745Y-103673541D01*
X82636207Y-103911003D01*
X82660005Y-103940001D01*
X82775730Y-104034974D01*
X82907759Y-104105546D01*
X83051020Y-104149003D01*
X83162673Y-104160000D01*
X83162681Y-104160000D01*
X83200006Y-104163676D01*
X83237331Y-104160000D01*
X83265198Y-104160000D01*
X81623743Y-105801455D01*
X81596026Y-105773738D01*
X81442887Y-105671414D01*
X81272727Y-105600932D01*
X81092087Y-105565000D01*
X80907909Y-105565000D01*
X80727269Y-105600932D01*
X80557109Y-105671414D01*
X80403970Y-105773738D01*
X80273736Y-105903972D01*
X80249663Y-105940000D01*
X78939875Y-105940000D01*
X78949278Y-105934974D01*
X79065003Y-105840001D01*
X79088806Y-105810998D01*
X80036005Y-104863799D01*
X80065002Y-104840002D01*
X80091333Y-104807918D01*
X80159975Y-104724278D01*
X80230547Y-104592248D01*
X80247511Y-104536324D01*
X80274004Y-104448987D01*
X80285001Y-104337334D01*
X80285001Y-104337325D01*
X80288677Y-104300002D01*
X80285001Y-104262679D01*
X80285001Y-101559796D01*
X81076455Y-102351251D01*
G37*
%TD.AperFunction*%
D18*
X90369437Y-102755761D02*
X89385199Y-103740000D01*
X88859803Y-103740000D01*
X90369437Y-102230367D01*
X90369437Y-102755761D01*
%TA.AperFunction,Conductor*%
D19*
G36*
X90369437Y-102755761D02*
G01*
X89385199Y-103740000D01*
X88859803Y-103740000D01*
X90369437Y-102230367D01*
X90369437Y-102755761D01*
G37*
%TD.AperFunction*%
D18*
X67207000Y-99933000D02*
X67227000Y-99933000D01*
X67227000Y-100187000D01*
X67207000Y-100187000D01*
X67207000Y-100207000D01*
X66953000Y-100207000D01*
X66953000Y-100187000D01*
X66933000Y-100187000D01*
X66933000Y-99933000D01*
X66953000Y-99933000D01*
X66953000Y-99913000D01*
X67207000Y-99913000D01*
X67207000Y-99933000D01*
%TA.AperFunction,Conductor*%
D19*
G36*
X67207000Y-99933000D02*
G01*
X67227000Y-99933000D01*
X67227000Y-100187000D01*
X67207000Y-100187000D01*
X67207000Y-100207000D01*
X66953000Y-100207000D01*
X66953000Y-100187000D01*
X66933000Y-100187000D01*
X66933000Y-99933000D01*
X66953000Y-99933000D01*
X66953000Y-99913000D01*
X67207000Y-99913000D01*
X67207000Y-99933000D01*
G37*
%TD.AperFunction*%
D18*
X110675002Y-94949804D02*
X110675002Y-96099133D01*
X110616891Y-96078519D01*
X110387000Y-96199186D01*
X110387000Y-97393000D01*
X110407000Y-97393000D01*
X110407000Y-97647000D01*
X110387000Y-97647000D01*
X110387000Y-97667000D01*
X110133000Y-97667000D01*
X110133000Y-97647000D01*
X110113000Y-97647000D01*
X110113000Y-97393000D01*
X110133000Y-97393000D01*
X110133000Y-96199186D01*
X109903109Y-96078519D01*
X109628748Y-96175843D01*
X109378645Y-96324822D01*
X109182498Y-96501626D01*
X109159502Y-96425820D01*
X109100537Y-96315506D01*
X109021185Y-96218815D01*
X108924494Y-96139463D01*
X108814180Y-96080498D01*
X108694482Y-96044188D01*
X108570000Y-96031928D01*
X107187548Y-96031928D01*
X107196028Y-96026262D01*
X107326262Y-95896028D01*
X107428586Y-95742889D01*
X107499068Y-95572729D01*
X107535000Y-95392089D01*
X107535000Y-95207911D01*
X107499068Y-95027271D01*
X107428586Y-94857111D01*
X107326262Y-94703972D01*
X107196028Y-94573738D01*
X107042889Y-94471414D01*
X106917401Y-94419436D01*
X106899068Y-94327269D01*
X106828586Y-94157109D01*
X106726262Y-94003970D01*
X106596028Y-93873736D01*
X106442889Y-93771412D01*
X106291353Y-93708644D01*
X106228586Y-93557111D01*
X106126262Y-93403972D01*
X105996028Y-93273738D01*
X105842889Y-93171414D01*
X105691349Y-93108644D01*
X105628582Y-92957111D01*
X105526258Y-92803972D01*
X105396024Y-92673738D01*
X105242885Y-92571414D01*
X105083975Y-92505592D01*
X105065090Y-92460000D01*
X108185199Y-92460000D01*
X110675002Y-94949804D01*
%TA.AperFunction,Conductor*%
D19*
G36*
X110675002Y-94949804D02*
G01*
X110675002Y-96099133D01*
X110616891Y-96078519D01*
X110387000Y-96199186D01*
X110387000Y-97393000D01*
X110407000Y-97393000D01*
X110407000Y-97647000D01*
X110387000Y-97647000D01*
X110387000Y-97667000D01*
X110133000Y-97667000D01*
X110133000Y-97647000D01*
X110113000Y-97647000D01*
X110113000Y-97393000D01*
X110133000Y-97393000D01*
X110133000Y-96199186D01*
X109903109Y-96078519D01*
X109628748Y-96175843D01*
X109378645Y-96324822D01*
X109182498Y-96501626D01*
X109159502Y-96425820D01*
X109100537Y-96315506D01*
X109021185Y-96218815D01*
X108924494Y-96139463D01*
X108814180Y-96080498D01*
X108694482Y-96044188D01*
X108570000Y-96031928D01*
X107187548Y-96031928D01*
X107196028Y-96026262D01*
X107326262Y-95896028D01*
X107428586Y-95742889D01*
X107499068Y-95572729D01*
X107535000Y-95392089D01*
X107535000Y-95207911D01*
X107499068Y-95027271D01*
X107428586Y-94857111D01*
X107326262Y-94703972D01*
X107196028Y-94573738D01*
X107042889Y-94471414D01*
X106917401Y-94419436D01*
X106899068Y-94327269D01*
X106828586Y-94157109D01*
X106726262Y-94003970D01*
X106596028Y-93873736D01*
X106442889Y-93771412D01*
X106291353Y-93708644D01*
X106228586Y-93557111D01*
X106126262Y-93403972D01*
X105996028Y-93273738D01*
X105842889Y-93171414D01*
X105691349Y-93108644D01*
X105628582Y-92957111D01*
X105526258Y-92803972D01*
X105396024Y-92673738D01*
X105242885Y-92571414D01*
X105083975Y-92505592D01*
X105065090Y-92460000D01*
X108185199Y-92460000D01*
X110675002Y-94949804D01*
G37*
%TD.AperFunction*%
D18*
X99685195Y-97440000D02*
X96614802Y-97440000D01*
X96034801Y-96860000D01*
X100265195Y-96860000D01*
X99685195Y-97440000D01*
%TA.AperFunction,Conductor*%
D19*
G36*
X99685195Y-97440000D02*
G01*
X96614802Y-97440000D01*
X96034801Y-96860000D01*
X100265195Y-96860000D01*
X99685195Y-97440000D01*
G37*
%TD.AperFunction*%
D18*
X93482480Y-93217717D02*
X93453476Y-93241520D01*
X93398991Y-93307911D01*
X93358503Y-93357245D01*
X93296775Y-93472729D01*
X93287931Y-93489275D01*
X93244474Y-93632536D01*
X93233477Y-93744189D01*
X93233477Y-93744199D01*
X93229801Y-93781521D01*
X93233477Y-93818843D01*
X93233477Y-94437647D01*
X93229801Y-94474969D01*
X93233477Y-94512291D01*
X93233477Y-94512302D01*
X93244474Y-94623955D01*
X93267542Y-94700000D01*
X93287931Y-94767215D01*
X93358503Y-94899245D01*
X93366918Y-94909499D01*
X93394408Y-95047697D01*
X93464890Y-95217857D01*
X93567214Y-95370996D01*
X93697448Y-95501230D01*
X93850587Y-95603554D01*
X93973261Y-95654367D01*
X93971428Y-95657111D01*
X93900946Y-95827271D01*
X93865014Y-96007911D01*
X93865014Y-96192089D01*
X93900946Y-96372729D01*
X93949522Y-96490003D01*
X91287319Y-96490003D01*
X91249996Y-96486327D01*
X91212673Y-96490003D01*
X91212664Y-96490003D01*
X91132993Y-96497850D01*
X91099068Y-96327301D01*
X91028586Y-96157141D01*
X90986949Y-96094827D01*
X90999220Y-96076462D01*
X91069702Y-95906302D01*
X91105634Y-95725662D01*
X91105634Y-95541484D01*
X91069702Y-95360844D01*
X90999220Y-95190684D01*
X90896896Y-95037545D01*
X90867076Y-95007725D01*
X91626256Y-94248546D01*
X91703972Y-94326262D01*
X91857111Y-94428586D01*
X92027271Y-94499068D01*
X92207911Y-94535000D01*
X92392089Y-94535000D01*
X92572729Y-94499068D01*
X92742889Y-94428586D01*
X92896028Y-94326262D01*
X93026262Y-94196028D01*
X93128586Y-94042889D01*
X93199068Y-93872729D01*
X93235000Y-93692089D01*
X93235000Y-93507911D01*
X93199068Y-93327271D01*
X93128586Y-93157111D01*
X93026262Y-93003972D01*
X92982290Y-92960000D01*
X93740197Y-92960000D01*
X93482480Y-93217717D01*
%TA.AperFunction,Conductor*%
D19*
G36*
X93482480Y-93217717D02*
G01*
X93453476Y-93241520D01*
X93398991Y-93307911D01*
X93358503Y-93357245D01*
X93296775Y-93472729D01*
X93287931Y-93489275D01*
X93244474Y-93632536D01*
X93233477Y-93744189D01*
X93233477Y-93744199D01*
X93229801Y-93781521D01*
X93233477Y-93818843D01*
X93233477Y-94437647D01*
X93229801Y-94474969D01*
X93233477Y-94512291D01*
X93233477Y-94512302D01*
X93244474Y-94623955D01*
X93267542Y-94700000D01*
X93287931Y-94767215D01*
X93358503Y-94899245D01*
X93366918Y-94909499D01*
X93394408Y-95047697D01*
X93464890Y-95217857D01*
X93567214Y-95370996D01*
X93697448Y-95501230D01*
X93850587Y-95603554D01*
X93973261Y-95654367D01*
X93971428Y-95657111D01*
X93900946Y-95827271D01*
X93865014Y-96007911D01*
X93865014Y-96192089D01*
X93900946Y-96372729D01*
X93949522Y-96490003D01*
X91287319Y-96490003D01*
X91249996Y-96486327D01*
X91212673Y-96490003D01*
X91212664Y-96490003D01*
X91132993Y-96497850D01*
X91099068Y-96327301D01*
X91028586Y-96157141D01*
X90986949Y-96094827D01*
X90999220Y-96076462D01*
X91069702Y-95906302D01*
X91105634Y-95725662D01*
X91105634Y-95541484D01*
X91069702Y-95360844D01*
X90999220Y-95190684D01*
X90896896Y-95037545D01*
X90867076Y-95007725D01*
X91626256Y-94248546D01*
X91703972Y-94326262D01*
X91857111Y-94428586D01*
X92027271Y-94499068D01*
X92207911Y-94535000D01*
X92392089Y-94535000D01*
X92572729Y-94499068D01*
X92742889Y-94428586D01*
X92896028Y-94326262D01*
X93026262Y-94196028D01*
X93128586Y-94042889D01*
X93199068Y-93872729D01*
X93235000Y-93692089D01*
X93235000Y-93507911D01*
X93199068Y-93327271D01*
X93128586Y-93157111D01*
X93026262Y-93003972D01*
X92982290Y-92960000D01*
X93740197Y-92960000D01*
X93482480Y-93217717D01*
G37*
%TD.AperFunction*%
D18*
X102340000Y-89814802D02*
X102340001Y-91254463D01*
X102271414Y-91357111D01*
X102200932Y-91527271D01*
X102165000Y-91707911D01*
X102165000Y-91892089D01*
X102200932Y-92072729D01*
X102271414Y-92242889D01*
X102373738Y-92396028D01*
X102451454Y-92473744D01*
X101685199Y-93240000D01*
X99589800Y-93240000D01*
X99424113Y-93074314D01*
X99496028Y-93026262D01*
X99626262Y-92896028D01*
X99728586Y-92742889D01*
X99799068Y-92572729D01*
X99835000Y-92392089D01*
X99835000Y-92207911D01*
X99799068Y-92027271D01*
X99728586Y-91857111D01*
X99626262Y-91703972D01*
X99496028Y-91573738D01*
X99342889Y-91471414D01*
X99172729Y-91400932D01*
X98992089Y-91365000D01*
X98807911Y-91365000D01*
X98627271Y-91400932D01*
X98482986Y-91460696D01*
X98396028Y-91373738D01*
X98375468Y-91360000D01*
X100137710Y-91360000D01*
X100203972Y-91426262D01*
X100357111Y-91528586D01*
X100527271Y-91599068D01*
X100707911Y-91635000D01*
X100892089Y-91635000D01*
X101072729Y-91599068D01*
X101242889Y-91528586D01*
X101396028Y-91426262D01*
X101526262Y-91296028D01*
X101628586Y-91142889D01*
X101699068Y-90972729D01*
X101735000Y-90792089D01*
X101735000Y-90607911D01*
X101699068Y-90427271D01*
X101628586Y-90257111D01*
X101526262Y-90103972D01*
X101396028Y-89973738D01*
X101242889Y-89871414D01*
X101072729Y-89800932D01*
X101016469Y-89789741D01*
X100999068Y-89702261D01*
X100928586Y-89532101D01*
X100826262Y-89378962D01*
X100696028Y-89248728D01*
X100542889Y-89146404D01*
X100372729Y-89075922D01*
X100208587Y-89043272D01*
X100117257Y-88994454D01*
X100003675Y-88960000D01*
X101485199Y-88960000D01*
X102340000Y-89814802D01*
%TA.AperFunction,Conductor*%
D19*
G36*
X102340000Y-89814802D02*
G01*
X102340001Y-91254463D01*
X102271414Y-91357111D01*
X102200932Y-91527271D01*
X102165000Y-91707911D01*
X102165000Y-91892089D01*
X102200932Y-92072729D01*
X102271414Y-92242889D01*
X102373738Y-92396028D01*
X102451454Y-92473744D01*
X101685199Y-93240000D01*
X99589800Y-93240000D01*
X99424113Y-93074314D01*
X99496028Y-93026262D01*
X99626262Y-92896028D01*
X99728586Y-92742889D01*
X99799068Y-92572729D01*
X99835000Y-92392089D01*
X99835000Y-92207911D01*
X99799068Y-92027271D01*
X99728586Y-91857111D01*
X99626262Y-91703972D01*
X99496028Y-91573738D01*
X99342889Y-91471414D01*
X99172729Y-91400932D01*
X98992089Y-91365000D01*
X98807911Y-91365000D01*
X98627271Y-91400932D01*
X98482986Y-91460696D01*
X98396028Y-91373738D01*
X98375468Y-91360000D01*
X100137710Y-91360000D01*
X100203972Y-91426262D01*
X100357111Y-91528586D01*
X100527271Y-91599068D01*
X100707911Y-91635000D01*
X100892089Y-91635000D01*
X101072729Y-91599068D01*
X101242889Y-91528586D01*
X101396028Y-91426262D01*
X101526262Y-91296028D01*
X101628586Y-91142889D01*
X101699068Y-90972729D01*
X101735000Y-90792089D01*
X101735000Y-90607911D01*
X101699068Y-90427271D01*
X101628586Y-90257111D01*
X101526262Y-90103972D01*
X101396028Y-89973738D01*
X101242889Y-89871414D01*
X101072729Y-89800932D01*
X101016469Y-89789741D01*
X100999068Y-89702261D01*
X100928586Y-89532101D01*
X100826262Y-89378962D01*
X100696028Y-89248728D01*
X100542889Y-89146404D01*
X100372729Y-89075922D01*
X100208587Y-89043272D01*
X100117257Y-88994454D01*
X100003675Y-88960000D01*
X101485199Y-88960000D01*
X102340000Y-89814802D01*
G37*
%TD.AperFunction*%
D18*
X72607753Y-85694454D02*
X72475723Y-85765026D01*
X72406531Y-85821811D01*
X72359999Y-85859999D01*
X72336201Y-85888997D01*
X70248352Y-87976847D01*
X70127271Y-88000932D01*
X69957111Y-88071414D01*
X69803972Y-88173738D01*
X69673738Y-88303972D01*
X69571414Y-88457111D01*
X69500932Y-88627271D01*
X69465000Y-88807911D01*
X69465000Y-88992089D01*
X69500932Y-89172729D01*
X69571414Y-89342889D01*
X69673738Y-89496028D01*
X69801454Y-89623744D01*
X66675271Y-92749927D01*
X66617205Y-92609744D01*
X66503937Y-92440226D01*
X66359774Y-92296063D01*
X66190256Y-92182795D01*
X66001898Y-92104774D01*
X65801939Y-92065000D01*
X65628424Y-92065000D01*
X65595226Y-91898102D01*
X65517205Y-91709744D01*
X65403937Y-91540226D01*
X65259774Y-91396063D01*
X65090256Y-91282795D01*
X64901898Y-91204774D01*
X64701939Y-91165000D01*
X64498061Y-91165000D01*
X64298102Y-91204774D01*
X64109744Y-91282795D01*
X63940226Y-91396063D01*
X63796063Y-91540226D01*
X63682795Y-91709744D01*
X63604774Y-91898102D01*
X63571576Y-92065000D01*
X63560000Y-92065000D01*
X63560000Y-91414801D01*
X69314802Y-85660000D01*
X72721335Y-85660000D01*
X72607753Y-85694454D01*
%TA.AperFunction,Conductor*%
D19*
G36*
X72607753Y-85694454D02*
G01*
X72475723Y-85765026D01*
X72406531Y-85821811D01*
X72359999Y-85859999D01*
X72336201Y-85888997D01*
X70248352Y-87976847D01*
X70127271Y-88000932D01*
X69957111Y-88071414D01*
X69803972Y-88173738D01*
X69673738Y-88303972D01*
X69571414Y-88457111D01*
X69500932Y-88627271D01*
X69465000Y-88807911D01*
X69465000Y-88992089D01*
X69500932Y-89172729D01*
X69571414Y-89342889D01*
X69673738Y-89496028D01*
X69801454Y-89623744D01*
X66675271Y-92749927D01*
X66617205Y-92609744D01*
X66503937Y-92440226D01*
X66359774Y-92296063D01*
X66190256Y-92182795D01*
X66001898Y-92104774D01*
X65801939Y-92065000D01*
X65628424Y-92065000D01*
X65595226Y-91898102D01*
X65517205Y-91709744D01*
X65403937Y-91540226D01*
X65259774Y-91396063D01*
X65090256Y-91282795D01*
X64901898Y-91204774D01*
X64701939Y-91165000D01*
X64498061Y-91165000D01*
X64298102Y-91204774D01*
X64109744Y-91282795D01*
X63940226Y-91396063D01*
X63796063Y-91540226D01*
X63682795Y-91709744D01*
X63604774Y-91898102D01*
X63571576Y-92065000D01*
X63560000Y-92065000D01*
X63560000Y-91414801D01*
X69314802Y-85660000D01*
X72721335Y-85660000D01*
X72607753Y-85694454D01*
G37*
%TD.AperFunction*%
D18*
X109340001Y-90114803D02*
X109340000Y-90954464D01*
X109271414Y-91057111D01*
X109200932Y-91227271D01*
X109184530Y-91309729D01*
X109063804Y-91189003D01*
X109040001Y-91159999D01*
X108924276Y-91065026D01*
X108792247Y-90994454D01*
X108648986Y-90950997D01*
X108537333Y-90940000D01*
X108537322Y-90940000D01*
X108500000Y-90936324D01*
X108462678Y-90940000D01*
X104337322Y-90940000D01*
X104299999Y-90936324D01*
X104262676Y-90940000D01*
X104262667Y-90940000D01*
X104151014Y-90950997D01*
X104007753Y-90994454D01*
X103875724Y-91065026D01*
X103860000Y-91077930D01*
X103860000Y-89537325D01*
X103863676Y-89500000D01*
X103860000Y-89462675D01*
X103860000Y-89462667D01*
X103849003Y-89351014D01*
X103805546Y-89207753D01*
X103734974Y-89075724D01*
X103640001Y-88959999D01*
X103611004Y-88936202D01*
X102734801Y-88060000D01*
X107285199Y-88060000D01*
X109340001Y-90114803D01*
%TA.AperFunction,Conductor*%
D19*
G36*
X109340001Y-90114803D02*
G01*
X109340000Y-90954464D01*
X109271414Y-91057111D01*
X109200932Y-91227271D01*
X109184530Y-91309729D01*
X109063804Y-91189003D01*
X109040001Y-91159999D01*
X108924276Y-91065026D01*
X108792247Y-90994454D01*
X108648986Y-90950997D01*
X108537333Y-90940000D01*
X108537322Y-90940000D01*
X108500000Y-90936324D01*
X108462678Y-90940000D01*
X104337322Y-90940000D01*
X104299999Y-90936324D01*
X104262676Y-90940000D01*
X104262667Y-90940000D01*
X104151014Y-90950997D01*
X104007753Y-90994454D01*
X103875724Y-91065026D01*
X103860000Y-91077930D01*
X103860000Y-89537325D01*
X103863676Y-89500000D01*
X103860000Y-89462675D01*
X103860000Y-89462667D01*
X103849003Y-89351014D01*
X103805546Y-89207753D01*
X103734974Y-89075724D01*
X103640001Y-88959999D01*
X103611004Y-88936202D01*
X102734801Y-88060000D01*
X107285199Y-88060000D01*
X109340001Y-90114803D01*
G37*
%TD.AperFunction*%
D18*
X109047965Y-55727573D02*
X108594150Y-56045757D01*
X108268731Y-56650210D01*
X108067488Y-57306535D01*
X107998155Y-57989510D01*
X108063395Y-58672888D01*
X108260702Y-59330407D01*
X108582494Y-59936799D01*
X108594150Y-59954243D01*
X109047967Y-60272428D01*
X111320395Y-58000000D01*
X111306253Y-57985858D01*
X111485858Y-57806253D01*
X111500000Y-57820395D01*
X111514143Y-57806253D01*
X111693748Y-57985858D01*
X111679605Y-58000000D01*
X111693748Y-58014143D01*
X111514143Y-58193748D01*
X111500000Y-58179605D01*
X109227572Y-60452033D01*
X109545757Y-60905850D01*
X110150210Y-61231269D01*
X110806535Y-61432512D01*
X111489510Y-61501845D01*
X112172888Y-61436605D01*
X112830407Y-61239298D01*
X113436799Y-60917506D01*
X113454243Y-60905850D01*
X113772427Y-60452035D01*
X113840001Y-60519609D01*
X113840001Y-86321337D01*
X113805546Y-86207753D01*
X113734974Y-86075724D01*
X113663799Y-85988997D01*
X113640001Y-85959999D01*
X113611003Y-85936201D01*
X110963804Y-83289003D01*
X110940001Y-83259999D01*
X110824276Y-83165026D01*
X110692247Y-83094454D01*
X110548986Y-83050997D01*
X110437333Y-83040000D01*
X110437322Y-83040000D01*
X110400000Y-83036324D01*
X110362678Y-83040000D01*
X93137333Y-83040000D01*
X93100000Y-83036323D01*
X93062667Y-83040000D01*
X92951014Y-83050997D01*
X92807753Y-83094454D01*
X92675724Y-83165026D01*
X92559999Y-83259999D01*
X92536201Y-83288997D01*
X91609172Y-84216027D01*
X91572729Y-84200932D01*
X91451649Y-84176847D01*
X90563804Y-83289003D01*
X90540001Y-83259999D01*
X90424276Y-83165026D01*
X90292247Y-83094454D01*
X90148986Y-83050997D01*
X90037333Y-83040000D01*
X90037322Y-83040000D01*
X90000000Y-83036324D01*
X89962678Y-83040000D01*
X68537333Y-83040000D01*
X68500000Y-83036323D01*
X68462667Y-83040000D01*
X68351014Y-83050997D01*
X68207753Y-83094454D01*
X68075724Y-83165026D01*
X67959999Y-83259999D01*
X67936201Y-83288997D01*
X61388998Y-89836201D01*
X61360000Y-89859999D01*
X61336202Y-89888997D01*
X61336201Y-89888998D01*
X61265026Y-89975724D01*
X61194454Y-90107754D01*
X61173746Y-90176021D01*
X61160000Y-90221338D01*
X61160000Y-80407911D01*
X72665000Y-80407911D01*
X72665000Y-80592089D01*
X72700932Y-80772729D01*
X72771414Y-80942889D01*
X72873738Y-81096028D01*
X73003972Y-81226262D01*
X73157111Y-81328586D01*
X73327271Y-81399068D01*
X73507911Y-81435000D01*
X73692089Y-81435000D01*
X73872729Y-81399068D01*
X74000000Y-81346351D01*
X74127271Y-81399068D01*
X74307911Y-81435000D01*
X74492089Y-81435000D01*
X74672729Y-81399068D01*
X74842889Y-81328586D01*
X74996028Y-81226262D01*
X75126262Y-81096028D01*
X75228586Y-80942889D01*
X75299068Y-80772729D01*
X75335000Y-80592089D01*
X75335000Y-80407911D01*
X75299068Y-80227271D01*
X75228586Y-80057111D01*
X75126262Y-79903972D01*
X74996028Y-79773738D01*
X74842889Y-79671414D01*
X74672729Y-79600932D01*
X74492089Y-79565000D01*
X74307911Y-79565000D01*
X74127271Y-79600932D01*
X74000000Y-79653649D01*
X73872729Y-79600932D01*
X73692089Y-79565000D01*
X73507911Y-79565000D01*
X73327271Y-79600932D01*
X73157111Y-79671414D01*
X73003972Y-79773738D01*
X72873738Y-79903972D01*
X72771414Y-80057111D01*
X72700932Y-80227271D01*
X72665000Y-80407911D01*
X61160000Y-80407911D01*
X61160000Y-78907911D01*
X78665000Y-78907911D01*
X78665000Y-79092089D01*
X78700932Y-79272729D01*
X78771414Y-79442889D01*
X78873738Y-79596028D01*
X79003972Y-79726262D01*
X79039498Y-79750000D01*
X79003972Y-79773738D01*
X78873738Y-79903972D01*
X78771414Y-80057111D01*
X78700932Y-80227271D01*
X78665000Y-80407911D01*
X78665000Y-80592089D01*
X78700932Y-80772729D01*
X78771414Y-80942889D01*
X78873738Y-81096028D01*
X79003972Y-81226262D01*
X79039498Y-81250000D01*
X79003972Y-81273738D01*
X78873738Y-81403972D01*
X78771414Y-81557111D01*
X78700932Y-81727271D01*
X78665000Y-81907911D01*
X78665000Y-82092089D01*
X78700932Y-82272729D01*
X78771414Y-82442889D01*
X78873738Y-82596028D01*
X79003972Y-82726262D01*
X79157111Y-82828586D01*
X79327271Y-82899068D01*
X79507911Y-82935000D01*
X79692089Y-82935000D01*
X79872729Y-82899068D01*
X80042889Y-82828586D01*
X80196028Y-82726262D01*
X80326262Y-82596028D01*
X80428586Y-82442889D01*
X80499068Y-82272729D01*
X80535000Y-82092089D01*
X80535000Y-81907911D01*
X80499068Y-81727271D01*
X80428586Y-81557111D01*
X80326262Y-81403972D01*
X80196028Y-81273738D01*
X80160502Y-81250000D01*
X80196028Y-81226262D01*
X80326262Y-81096028D01*
X80428586Y-80942889D01*
X80499068Y-80772729D01*
X80535000Y-80592089D01*
X80535000Y-80407911D01*
X80499068Y-80227271D01*
X80428586Y-80057111D01*
X80326262Y-79903972D01*
X80196028Y-79773738D01*
X80160502Y-79750000D01*
X80196028Y-79726262D01*
X80326262Y-79596028D01*
X80428586Y-79442889D01*
X80499068Y-79272729D01*
X80535000Y-79092089D01*
X80535000Y-78907911D01*
X80499068Y-78727271D01*
X80428586Y-78557111D01*
X80326262Y-78403972D01*
X80196028Y-78273738D01*
X80042889Y-78171414D01*
X79872729Y-78100932D01*
X79692089Y-78065000D01*
X79507911Y-78065000D01*
X79327271Y-78100932D01*
X79157111Y-78171414D01*
X79003972Y-78273738D01*
X78873738Y-78403972D01*
X78771414Y-78557111D01*
X78700932Y-78727271D01*
X78665000Y-78907911D01*
X61160000Y-78907911D01*
X61160000Y-60519608D01*
X61227573Y-60452035D01*
X61545757Y-60905850D01*
X62150210Y-61231269D01*
X62806535Y-61432512D01*
X63489510Y-61501845D01*
X64172888Y-61436605D01*
X64830407Y-61239298D01*
X65436799Y-60917506D01*
X65454243Y-60905850D01*
X65772428Y-60452033D01*
X63500000Y-58179605D01*
X63485858Y-58193748D01*
X63306253Y-58014143D01*
X63320395Y-58000000D01*
X63306253Y-57985858D01*
X63485858Y-57806253D01*
X63500000Y-57820395D01*
X63514143Y-57806253D01*
X63693748Y-57985858D01*
X63679605Y-58000000D01*
X65952033Y-60272428D01*
X66405850Y-59954243D01*
X66731269Y-59349790D01*
X66932512Y-58693465D01*
X66990017Y-58127002D01*
X67139185Y-58127002D01*
X67018519Y-58356891D01*
X67115843Y-58631252D01*
X67264822Y-58881355D01*
X67459731Y-59097588D01*
X67693080Y-59271641D01*
X67955901Y-59396825D01*
X68103110Y-59441476D01*
X68333000Y-59320155D01*
X68333000Y-58127000D01*
X68313000Y-58127000D01*
X68313000Y-57873000D01*
X68333000Y-57873000D01*
X68333000Y-56679845D01*
X68587000Y-56679845D01*
X68587000Y-57873000D01*
X68607000Y-57873000D01*
X68607000Y-58127000D01*
X68587000Y-58127000D01*
X68587000Y-59320155D01*
X68816890Y-59441476D01*
X68964099Y-59396825D01*
X69226920Y-59271641D01*
X69460269Y-59097588D01*
X69655178Y-58881355D01*
X69724805Y-58764466D01*
X69846525Y-58946632D01*
X70053368Y-59153475D01*
X70296589Y-59315990D01*
X70566842Y-59427932D01*
X70853740Y-59485000D01*
X71146260Y-59485000D01*
X71433158Y-59427932D01*
X71703411Y-59315990D01*
X71946632Y-59153475D01*
X72153475Y-58946632D01*
X72270000Y-58772240D01*
X72386525Y-58946632D01*
X72593368Y-59153475D01*
X72836589Y-59315990D01*
X73106842Y-59427932D01*
X73393740Y-59485000D01*
X73686260Y-59485000D01*
X73973158Y-59427932D01*
X74243411Y-59315990D01*
X74486632Y-59153475D01*
X74618487Y-59021620D01*
X74640498Y-59094180D01*
X74699463Y-59204494D01*
X74778815Y-59301185D01*
X74875506Y-59380537D01*
X74985820Y-59439502D01*
X75105518Y-59475812D01*
X75230000Y-59488072D01*
X76930000Y-59488072D01*
X77054482Y-59475812D01*
X77174180Y-59439502D01*
X77284494Y-59380537D01*
X77381185Y-59301185D01*
X77460537Y-59204494D01*
X77519502Y-59094180D01*
X77555812Y-58974482D01*
X77568072Y-58850000D01*
X77568072Y-58353740D01*
X87475000Y-58353740D01*
X87475000Y-58646260D01*
X87532068Y-58933158D01*
X87644010Y-59203411D01*
X87806525Y-59446632D01*
X88013368Y-59653475D01*
X88256589Y-59815990D01*
X88526842Y-59927932D01*
X88813740Y-59985000D01*
X89106260Y-59985000D01*
X89393158Y-59927932D01*
X89663411Y-59815990D01*
X89906632Y-59653475D01*
X90038487Y-59521620D01*
X90060498Y-59594180D01*
X90119463Y-59704494D01*
X90198815Y-59801185D01*
X90295506Y-59880537D01*
X90405820Y-59939502D01*
X90525518Y-59975812D01*
X90650000Y-59988072D01*
X92350000Y-59988072D01*
X92474482Y-59975812D01*
X92594180Y-59939502D01*
X92704494Y-59880537D01*
X92801185Y-59801185D01*
X92880537Y-59704494D01*
X92939502Y-59594180D01*
X92975812Y-59474482D01*
X92988072Y-59350000D01*
X92988072Y-57650000D01*
X92975812Y-57525518D01*
X92939502Y-57405820D01*
X92880537Y-57295506D01*
X92801185Y-57198815D01*
X92704494Y-57119463D01*
X92594180Y-57060498D01*
X92474482Y-57024188D01*
X92350000Y-57011928D01*
X90650000Y-57011928D01*
X90525518Y-57024188D01*
X90405820Y-57060498D01*
X90295506Y-57119463D01*
X90198815Y-57198815D01*
X90119463Y-57295506D01*
X90060498Y-57405820D01*
X90038487Y-57478380D01*
X89906632Y-57346525D01*
X89663411Y-57184010D01*
X89393158Y-57072068D01*
X89106260Y-57015000D01*
X88813740Y-57015000D01*
X88526842Y-57072068D01*
X88256589Y-57184010D01*
X88013368Y-57346525D01*
X87806525Y-57553368D01*
X87644010Y-57796589D01*
X87532068Y-58066842D01*
X87475000Y-58353740D01*
X77568072Y-58353740D01*
X77568072Y-57150000D01*
X77555812Y-57025518D01*
X77519502Y-56905820D01*
X77460537Y-56795506D01*
X77381185Y-56698815D01*
X77284494Y-56619463D01*
X77174180Y-56560498D01*
X77054482Y-56524188D01*
X76930000Y-56511928D01*
X75230000Y-56511928D01*
X75105518Y-56524188D01*
X74985820Y-56560498D01*
X74875506Y-56619463D01*
X74778815Y-56698815D01*
X74699463Y-56795506D01*
X74640498Y-56905820D01*
X74618487Y-56978380D01*
X74486632Y-56846525D01*
X74243411Y-56684010D01*
X73973158Y-56572068D01*
X73686260Y-56515000D01*
X73393740Y-56515000D01*
X73106842Y-56572068D01*
X72836589Y-56684010D01*
X72593368Y-56846525D01*
X72386525Y-57053368D01*
X72270000Y-57227760D01*
X72153475Y-57053368D01*
X71946632Y-56846525D01*
X71703411Y-56684010D01*
X71433158Y-56572068D01*
X71146260Y-56515000D01*
X70853740Y-56515000D01*
X70566842Y-56572068D01*
X70296589Y-56684010D01*
X70053368Y-56846525D01*
X69846525Y-57053368D01*
X69724805Y-57235534D01*
X69655178Y-57118645D01*
X69460269Y-56902412D01*
X69226920Y-56728359D01*
X68964099Y-56603175D01*
X68816890Y-56558524D01*
X68587000Y-56679845D01*
X68333000Y-56679845D01*
X68103110Y-56558524D01*
X67955901Y-56603175D01*
X67693080Y-56728359D01*
X67459731Y-56902412D01*
X67264822Y-57118645D01*
X67115843Y-57368748D01*
X67018519Y-57643109D01*
X67139185Y-57872998D01*
X66988719Y-57872998D01*
X66936605Y-57327112D01*
X66739298Y-56669593D01*
X66417506Y-56063201D01*
X66405850Y-56045757D01*
X65952035Y-55727573D01*
X66019608Y-55660000D01*
X108980392Y-55660000D01*
X109047965Y-55727573D01*
%TA.AperFunction,Conductor*%
D19*
G36*
X109047965Y-55727573D02*
G01*
X108594150Y-56045757D01*
X108268731Y-56650210D01*
X108067488Y-57306535D01*
X107998155Y-57989510D01*
X108063395Y-58672888D01*
X108260702Y-59330407D01*
X108582494Y-59936799D01*
X108594150Y-59954243D01*
X109047967Y-60272428D01*
X111320395Y-58000000D01*
X111306253Y-57985858D01*
X111485858Y-57806253D01*
X111500000Y-57820395D01*
X111514143Y-57806253D01*
X111693748Y-57985858D01*
X111679605Y-58000000D01*
X111693748Y-58014143D01*
X111514143Y-58193748D01*
X111500000Y-58179605D01*
X109227572Y-60452033D01*
X109545757Y-60905850D01*
X110150210Y-61231269D01*
X110806535Y-61432512D01*
X111489510Y-61501845D01*
X112172888Y-61436605D01*
X112830407Y-61239298D01*
X113436799Y-60917506D01*
X113454243Y-60905850D01*
X113772427Y-60452035D01*
X113840001Y-60519609D01*
X113840001Y-86321337D01*
X113805546Y-86207753D01*
X113734974Y-86075724D01*
X113663799Y-85988997D01*
X113640001Y-85959999D01*
X113611003Y-85936201D01*
X110963804Y-83289003D01*
X110940001Y-83259999D01*
X110824276Y-83165026D01*
X110692247Y-83094454D01*
X110548986Y-83050997D01*
X110437333Y-83040000D01*
X110437322Y-83040000D01*
X110400000Y-83036324D01*
X110362678Y-83040000D01*
X93137333Y-83040000D01*
X93100000Y-83036323D01*
X93062667Y-83040000D01*
X92951014Y-83050997D01*
X92807753Y-83094454D01*
X92675724Y-83165026D01*
X92559999Y-83259999D01*
X92536201Y-83288997D01*
X91609172Y-84216027D01*
X91572729Y-84200932D01*
X91451649Y-84176847D01*
X90563804Y-83289003D01*
X90540001Y-83259999D01*
X90424276Y-83165026D01*
X90292247Y-83094454D01*
X90148986Y-83050997D01*
X90037333Y-83040000D01*
X90037322Y-83040000D01*
X90000000Y-83036324D01*
X89962678Y-83040000D01*
X68537333Y-83040000D01*
X68500000Y-83036323D01*
X68462667Y-83040000D01*
X68351014Y-83050997D01*
X68207753Y-83094454D01*
X68075724Y-83165026D01*
X67959999Y-83259999D01*
X67936201Y-83288997D01*
X61388998Y-89836201D01*
X61360000Y-89859999D01*
X61336202Y-89888997D01*
X61336201Y-89888998D01*
X61265026Y-89975724D01*
X61194454Y-90107754D01*
X61173746Y-90176021D01*
X61160000Y-90221338D01*
X61160000Y-80407911D01*
X72665000Y-80407911D01*
X72665000Y-80592089D01*
X72700932Y-80772729D01*
X72771414Y-80942889D01*
X72873738Y-81096028D01*
X73003972Y-81226262D01*
X73157111Y-81328586D01*
X73327271Y-81399068D01*
X73507911Y-81435000D01*
X73692089Y-81435000D01*
X73872729Y-81399068D01*
X74000000Y-81346351D01*
X74127271Y-81399068D01*
X74307911Y-81435000D01*
X74492089Y-81435000D01*
X74672729Y-81399068D01*
X74842889Y-81328586D01*
X74996028Y-81226262D01*
X75126262Y-81096028D01*
X75228586Y-80942889D01*
X75299068Y-80772729D01*
X75335000Y-80592089D01*
X75335000Y-80407911D01*
X75299068Y-80227271D01*
X75228586Y-80057111D01*
X75126262Y-79903972D01*
X74996028Y-79773738D01*
X74842889Y-79671414D01*
X74672729Y-79600932D01*
X74492089Y-79565000D01*
X74307911Y-79565000D01*
X74127271Y-79600932D01*
X74000000Y-79653649D01*
X73872729Y-79600932D01*
X73692089Y-79565000D01*
X73507911Y-79565000D01*
X73327271Y-79600932D01*
X73157111Y-79671414D01*
X73003972Y-79773738D01*
X72873738Y-79903972D01*
X72771414Y-80057111D01*
X72700932Y-80227271D01*
X72665000Y-80407911D01*
X61160000Y-80407911D01*
X61160000Y-78907911D01*
X78665000Y-78907911D01*
X78665000Y-79092089D01*
X78700932Y-79272729D01*
X78771414Y-79442889D01*
X78873738Y-79596028D01*
X79003972Y-79726262D01*
X79039498Y-79750000D01*
X79003972Y-79773738D01*
X78873738Y-79903972D01*
X78771414Y-80057111D01*
X78700932Y-80227271D01*
X78665000Y-80407911D01*
X78665000Y-80592089D01*
X78700932Y-80772729D01*
X78771414Y-80942889D01*
X78873738Y-81096028D01*
X79003972Y-81226262D01*
X79039498Y-81250000D01*
X79003972Y-81273738D01*
X78873738Y-81403972D01*
X78771414Y-81557111D01*
X78700932Y-81727271D01*
X78665000Y-81907911D01*
X78665000Y-82092089D01*
X78700932Y-82272729D01*
X78771414Y-82442889D01*
X78873738Y-82596028D01*
X79003972Y-82726262D01*
X79157111Y-82828586D01*
X79327271Y-82899068D01*
X79507911Y-82935000D01*
X79692089Y-82935000D01*
X79872729Y-82899068D01*
X80042889Y-82828586D01*
X80196028Y-82726262D01*
X80326262Y-82596028D01*
X80428586Y-82442889D01*
X80499068Y-82272729D01*
X80535000Y-82092089D01*
X80535000Y-81907911D01*
X80499068Y-81727271D01*
X80428586Y-81557111D01*
X80326262Y-81403972D01*
X80196028Y-81273738D01*
X80160502Y-81250000D01*
X80196028Y-81226262D01*
X80326262Y-81096028D01*
X80428586Y-80942889D01*
X80499068Y-80772729D01*
X80535000Y-80592089D01*
X80535000Y-80407911D01*
X80499068Y-80227271D01*
X80428586Y-80057111D01*
X80326262Y-79903972D01*
X80196028Y-79773738D01*
X80160502Y-79750000D01*
X80196028Y-79726262D01*
X80326262Y-79596028D01*
X80428586Y-79442889D01*
X80499068Y-79272729D01*
X80535000Y-79092089D01*
X80535000Y-78907911D01*
X80499068Y-78727271D01*
X80428586Y-78557111D01*
X80326262Y-78403972D01*
X80196028Y-78273738D01*
X80042889Y-78171414D01*
X79872729Y-78100932D01*
X79692089Y-78065000D01*
X79507911Y-78065000D01*
X79327271Y-78100932D01*
X79157111Y-78171414D01*
X79003972Y-78273738D01*
X78873738Y-78403972D01*
X78771414Y-78557111D01*
X78700932Y-78727271D01*
X78665000Y-78907911D01*
X61160000Y-78907911D01*
X61160000Y-60519608D01*
X61227573Y-60452035D01*
X61545757Y-60905850D01*
X62150210Y-61231269D01*
X62806535Y-61432512D01*
X63489510Y-61501845D01*
X64172888Y-61436605D01*
X64830407Y-61239298D01*
X65436799Y-60917506D01*
X65454243Y-60905850D01*
X65772428Y-60452033D01*
X63500000Y-58179605D01*
X63485858Y-58193748D01*
X63306253Y-58014143D01*
X63320395Y-58000000D01*
X63306253Y-57985858D01*
X63485858Y-57806253D01*
X63500000Y-57820395D01*
X63514143Y-57806253D01*
X63693748Y-57985858D01*
X63679605Y-58000000D01*
X65952033Y-60272428D01*
X66405850Y-59954243D01*
X66731269Y-59349790D01*
X66932512Y-58693465D01*
X66990017Y-58127002D01*
X67139185Y-58127002D01*
X67018519Y-58356891D01*
X67115843Y-58631252D01*
X67264822Y-58881355D01*
X67459731Y-59097588D01*
X67693080Y-59271641D01*
X67955901Y-59396825D01*
X68103110Y-59441476D01*
X68333000Y-59320155D01*
X68333000Y-58127000D01*
X68313000Y-58127000D01*
X68313000Y-57873000D01*
X68333000Y-57873000D01*
X68333000Y-56679845D01*
X68587000Y-56679845D01*
X68587000Y-57873000D01*
X68607000Y-57873000D01*
X68607000Y-58127000D01*
X68587000Y-58127000D01*
X68587000Y-59320155D01*
X68816890Y-59441476D01*
X68964099Y-59396825D01*
X69226920Y-59271641D01*
X69460269Y-59097588D01*
X69655178Y-58881355D01*
X69724805Y-58764466D01*
X69846525Y-58946632D01*
X70053368Y-59153475D01*
X70296589Y-59315990D01*
X70566842Y-59427932D01*
X70853740Y-59485000D01*
X71146260Y-59485000D01*
X71433158Y-59427932D01*
X71703411Y-59315990D01*
X71946632Y-59153475D01*
X72153475Y-58946632D01*
X72270000Y-58772240D01*
X72386525Y-58946632D01*
X72593368Y-59153475D01*
X72836589Y-59315990D01*
X73106842Y-59427932D01*
X73393740Y-59485000D01*
X73686260Y-59485000D01*
X73973158Y-59427932D01*
X74243411Y-59315990D01*
X74486632Y-59153475D01*
X74618487Y-59021620D01*
X74640498Y-59094180D01*
X74699463Y-59204494D01*
X74778815Y-59301185D01*
X74875506Y-59380537D01*
X74985820Y-59439502D01*
X75105518Y-59475812D01*
X75230000Y-59488072D01*
X76930000Y-59488072D01*
X77054482Y-59475812D01*
X77174180Y-59439502D01*
X77284494Y-59380537D01*
X77381185Y-59301185D01*
X77460537Y-59204494D01*
X77519502Y-59094180D01*
X77555812Y-58974482D01*
X77568072Y-58850000D01*
X77568072Y-58353740D01*
X87475000Y-58353740D01*
X87475000Y-58646260D01*
X87532068Y-58933158D01*
X87644010Y-59203411D01*
X87806525Y-59446632D01*
X88013368Y-59653475D01*
X88256589Y-59815990D01*
X88526842Y-59927932D01*
X88813740Y-59985000D01*
X89106260Y-59985000D01*
X89393158Y-59927932D01*
X89663411Y-59815990D01*
X89906632Y-59653475D01*
X90038487Y-59521620D01*
X90060498Y-59594180D01*
X90119463Y-59704494D01*
X90198815Y-59801185D01*
X90295506Y-59880537D01*
X90405820Y-59939502D01*
X90525518Y-59975812D01*
X90650000Y-59988072D01*
X92350000Y-59988072D01*
X92474482Y-59975812D01*
X92594180Y-59939502D01*
X92704494Y-59880537D01*
X92801185Y-59801185D01*
X92880537Y-59704494D01*
X92939502Y-59594180D01*
X92975812Y-59474482D01*
X92988072Y-59350000D01*
X92988072Y-57650000D01*
X92975812Y-57525518D01*
X92939502Y-57405820D01*
X92880537Y-57295506D01*
X92801185Y-57198815D01*
X92704494Y-57119463D01*
X92594180Y-57060498D01*
X92474482Y-57024188D01*
X92350000Y-57011928D01*
X90650000Y-57011928D01*
X90525518Y-57024188D01*
X90405820Y-57060498D01*
X90295506Y-57119463D01*
X90198815Y-57198815D01*
X90119463Y-57295506D01*
X90060498Y-57405820D01*
X90038487Y-57478380D01*
X89906632Y-57346525D01*
X89663411Y-57184010D01*
X89393158Y-57072068D01*
X89106260Y-57015000D01*
X88813740Y-57015000D01*
X88526842Y-57072068D01*
X88256589Y-57184010D01*
X88013368Y-57346525D01*
X87806525Y-57553368D01*
X87644010Y-57796589D01*
X87532068Y-58066842D01*
X87475000Y-58353740D01*
X77568072Y-58353740D01*
X77568072Y-57150000D01*
X77555812Y-57025518D01*
X77519502Y-56905820D01*
X77460537Y-56795506D01*
X77381185Y-56698815D01*
X77284494Y-56619463D01*
X77174180Y-56560498D01*
X77054482Y-56524188D01*
X76930000Y-56511928D01*
X75230000Y-56511928D01*
X75105518Y-56524188D01*
X74985820Y-56560498D01*
X74875506Y-56619463D01*
X74778815Y-56698815D01*
X74699463Y-56795506D01*
X74640498Y-56905820D01*
X74618487Y-56978380D01*
X74486632Y-56846525D01*
X74243411Y-56684010D01*
X73973158Y-56572068D01*
X73686260Y-56515000D01*
X73393740Y-56515000D01*
X73106842Y-56572068D01*
X72836589Y-56684010D01*
X72593368Y-56846525D01*
X72386525Y-57053368D01*
X72270000Y-57227760D01*
X72153475Y-57053368D01*
X71946632Y-56846525D01*
X71703411Y-56684010D01*
X71433158Y-56572068D01*
X71146260Y-56515000D01*
X70853740Y-56515000D01*
X70566842Y-56572068D01*
X70296589Y-56684010D01*
X70053368Y-56846525D01*
X69846525Y-57053368D01*
X69724805Y-57235534D01*
X69655178Y-57118645D01*
X69460269Y-56902412D01*
X69226920Y-56728359D01*
X68964099Y-56603175D01*
X68816890Y-56558524D01*
X68587000Y-56679845D01*
X68333000Y-56679845D01*
X68103110Y-56558524D01*
X67955901Y-56603175D01*
X67693080Y-56728359D01*
X67459731Y-56902412D01*
X67264822Y-57118645D01*
X67115843Y-57368748D01*
X67018519Y-57643109D01*
X67139185Y-57872998D01*
X66988719Y-57872998D01*
X66936605Y-57327112D01*
X66739298Y-56669593D01*
X66417506Y-56063201D01*
X66405850Y-56045757D01*
X65952035Y-55727573D01*
X66019608Y-55660000D01*
X108980392Y-55660000D01*
X109047965Y-55727573D01*
G37*
%TD.AperFunction*%
D18*
X84440000Y-86814802D02*
X84440001Y-89412685D01*
X84436324Y-89450017D01*
X84440001Y-89487350D01*
X84450998Y-89599003D01*
X84452983Y-89605546D01*
X84494454Y-89742263D01*
X84565026Y-89874293D01*
X84626326Y-89948986D01*
X84660000Y-89990018D01*
X84688998Y-90013816D01*
X84690181Y-90014999D01*
X82334996Y-90014999D01*
X82334996Y-90007911D01*
X82299064Y-89827271D01*
X82228582Y-89657111D01*
X82126258Y-89503972D01*
X81996024Y-89373738D01*
X81842885Y-89271414D01*
X81672725Y-89200932D01*
X81554249Y-89177365D01*
X81539997Y-89159999D01*
X81424272Y-89065026D01*
X81292243Y-88994454D01*
X81148982Y-88950997D01*
X81037329Y-88940000D01*
X81037318Y-88940000D01*
X80999996Y-88936324D01*
X80962674Y-88940000D01*
X80805578Y-88940000D01*
X80835000Y-88792089D01*
X80835000Y-88607911D01*
X80799068Y-88427271D01*
X80728586Y-88257111D01*
X80626262Y-88103972D01*
X80496028Y-87973738D01*
X80342889Y-87871414D01*
X80172729Y-87800932D01*
X79992089Y-87765000D01*
X79807911Y-87765000D01*
X79627271Y-87800932D01*
X79457111Y-87871414D01*
X79303972Y-87973738D01*
X79226256Y-88051454D01*
X77534801Y-86360000D01*
X77862678Y-86360000D01*
X77900000Y-86363676D01*
X77937322Y-86360000D01*
X77937333Y-86360000D01*
X78048986Y-86349003D01*
X78192247Y-86305546D01*
X78324276Y-86234974D01*
X78440001Y-86140001D01*
X78463803Y-86110998D01*
X78914802Y-85660000D01*
X83285199Y-85660000D01*
X84440000Y-86814802D01*
%TA.AperFunction,Conductor*%
D19*
G36*
X84440000Y-86814802D02*
G01*
X84440001Y-89412685D01*
X84436324Y-89450017D01*
X84440001Y-89487350D01*
X84450998Y-89599003D01*
X84452983Y-89605546D01*
X84494454Y-89742263D01*
X84565026Y-89874293D01*
X84626326Y-89948986D01*
X84660000Y-89990018D01*
X84688998Y-90013816D01*
X84690181Y-90014999D01*
X82334996Y-90014999D01*
X82334996Y-90007911D01*
X82299064Y-89827271D01*
X82228582Y-89657111D01*
X82126258Y-89503972D01*
X81996024Y-89373738D01*
X81842885Y-89271414D01*
X81672725Y-89200932D01*
X81554249Y-89177365D01*
X81539997Y-89159999D01*
X81424272Y-89065026D01*
X81292243Y-88994454D01*
X81148982Y-88950997D01*
X81037329Y-88940000D01*
X81037318Y-88940000D01*
X80999996Y-88936324D01*
X80962674Y-88940000D01*
X80805578Y-88940000D01*
X80835000Y-88792089D01*
X80835000Y-88607911D01*
X80799068Y-88427271D01*
X80728586Y-88257111D01*
X80626262Y-88103972D01*
X80496028Y-87973738D01*
X80342889Y-87871414D01*
X80172729Y-87800932D01*
X79992089Y-87765000D01*
X79807911Y-87765000D01*
X79627271Y-87800932D01*
X79457111Y-87871414D01*
X79303972Y-87973738D01*
X79226256Y-88051454D01*
X77534801Y-86360000D01*
X77862678Y-86360000D01*
X77900000Y-86363676D01*
X77937322Y-86360000D01*
X77937333Y-86360000D01*
X78048986Y-86349003D01*
X78192247Y-86305546D01*
X78324276Y-86234974D01*
X78440001Y-86140001D01*
X78463803Y-86110998D01*
X78914802Y-85660000D01*
X83285199Y-85660000D01*
X84440000Y-86814802D01*
G37*
%TD.AperFunction*%
%TD*%
M02*
