M48
; DRILL file {KiCad (5.1.9)-1} date 05/10/21 15:41:34
; FORMAT={-:-/ absolute / inch / decimal}
; #@! TF.CreationDate,2021-05-10T15:41:34+02:00
; #@! TF.GenerationSoftware,Kicad,Pcbnew,(5.1.9)-1
; #@! TF.FileFunction,Plated,1,4,PTH
FMAT,2
INCH
T1C0.0118
T2C0.0157
T3C0.0256
T4C0.0276
T5C0.0394
T6C0.1260
%
G90
G05
T1
X2.4606Y-2.5197
X2.4606Y-2.6772
X2.4606Y-2.8346
X2.4606Y-2.9921
X2.4606Y-3.1496
X2.5787Y-2.5197
X2.5787Y-2.6772
X2.5787Y-2.8346
X2.5787Y-2.9921
X2.6378Y-3.5433
X2.6457Y-3.0827
X2.6457Y-3.2913
X2.6969Y-2.5197
X2.6969Y-2.6772
X2.6969Y-2.8346
X2.6969Y-2.9921
X2.7205Y-3.4252
X2.7244Y-3.0906
X2.7283Y-3.2746
X2.7441Y-3.9882
X2.7441Y-4.626
X2.7756Y-4.6535
X2.7874Y-3.0945
X2.7992Y-3.5354
X2.8071Y-3.9331
X2.815Y-2.8346
X2.815Y-2.9921
X2.8701Y-4.1811
X2.874Y-3.7362
X2.8976Y-3.1693
X2.9016Y-3.8346
X2.9134Y-4.0551
X2.9252Y-4.5276
X2.9291Y-3.1693
X2.9331Y-3.7362
X2.9449Y-4.0236
X2.9606Y-4.4961
X2.9803Y-3.8307
X2.9803Y-3.7953
X2.9803Y-3.7559
X2.9961Y-3.5118
X2.9961Y-3.5748
X2.9961Y-3.6299
X2.9961Y-4.4606
X3.0118Y-2.5197
X3.0118Y-2.6772
X3.0118Y-2.9134
X3.0157Y-4.7323
X3.0315Y-4.4252
X3.0433Y-3.3425
X3.0787Y-4.7323
X3.0866Y-3.3661
X3.1024Y-3.8189
X3.1026Y-3.7799
X3.1063Y-3.8937
X3.1063Y-3.9252
X3.1063Y-3.9567
X3.126Y-3.5118
X3.1299Y-2.5197
X3.1299Y-2.6772
X3.1299Y-2.9134
X3.1299Y-4.3307
X3.1339Y-3.1102
X3.1339Y-3.1693
X3.1339Y-3.2283
X3.1523Y-3.5935
X3.165Y-4.7311
X3.1676Y-3.3802
X3.189Y-4.1388
X3.189Y-4.2283
X3.2165Y-4.0285
X3.2391Y-3.6604
X3.2402Y-3.5748
X3.248Y-2.5197
X3.248Y-2.6772
X3.248Y-2.9134
X3.248Y-3.0315
X3.248Y-3.1496
X3.2654Y-3.6913
X3.2717Y-3.9724
X3.2717Y-4.2559
X3.2913Y-3.7717
X3.293Y-3.7188
X3.2992Y-3.4606
X3.3071Y-4.7913
X3.3108Y-3.8033
X3.311Y-4.2992
X3.3189Y-3.7441
X3.3307Y-4.5984
X3.3346Y-3.2441
X3.3425Y-4.2559
X3.3504Y-3.7717
X3.3661Y-2.5197
X3.3661Y-2.6772
X3.3661Y-2.9134
X3.3661Y-3.0315
X3.3661Y-3.1496
X3.3661Y-4.5276
X3.3701Y-4.2992
X3.376Y-3.7146
X3.398Y-4.8704
X3.4173Y-4.2559
X3.4252Y-3.437
X3.4252Y-3.4803
X3.4252Y-3.5197
X3.4567Y-3.7126
X3.4606Y-3.3189
X3.4764Y-3.7441
X3.4803Y-3.3622
X3.4843Y-2.378
X3.4843Y-2.6772
X3.4843Y-2.9134
X3.4843Y-3.0315
X3.4843Y-3.1496
X3.4843Y-3.2677
X3.5039Y-4.2992
X3.5095Y-4.0213
X3.5236Y-3.3189
X3.5236Y-4.4882
X3.5236Y-4.6457
X3.5236Y-4.7638
X3.5354Y-4.2559
X3.5366Y-3.9943
X3.5591Y-3.3622
X3.564Y-4.0236
X3.5686Y-4.1401
X3.5695Y-4.3006
X3.5797Y-3.7047
X3.5827Y-4.8583
X3.5984Y-3.3189
X3.5984Y-4.2559
X3.6024Y-2.6772
X3.6024Y-2.9134
X3.6024Y-3.0315
X3.6024Y-3.1496
X3.6024Y-3.2677
X3.622Y-4.1378
X3.626Y-2.378
X3.626Y-3.3622
X3.6345Y-3.6857
X3.6417Y-4.4882
X3.6417Y-4.6457
X3.6417Y-4.7638
X3.6535Y-3.4961
X3.6575Y-4.0472
X3.7126Y-4.0984
X3.7205Y-2.5197
X3.7205Y-2.6772
X3.7205Y-2.9134
X3.7205Y-3.0315
X3.7205Y-3.1496
X3.7205Y-3.6969
X3.732Y-3.8304
X3.7392Y-4.2165
X3.7392Y-4.2756
X3.7402Y-3.9931
X3.7598Y-4.4882
X3.7598Y-4.6457
X3.7598Y-4.7638
X3.7708Y-3.5495
X3.7913Y-2.2244
X3.8031Y-4.0118
X3.8038Y-3.8191
X3.8071Y-3.5591
X3.8238Y-3.7008
X3.8386Y-2.5197
X3.8386Y-2.6772
X3.8386Y-2.9134
X3.8386Y-3.0315
X3.8386Y-3.1496
X3.8386Y-3.2677
X3.878Y-4.4882
X3.878Y-4.6457
X3.878Y-4.7638
X3.9134Y-3.6693
X3.937Y-3.622
X3.9396Y-3.4246
X3.9567Y-2.5197
X3.9685Y-3.4449
X3.9961Y-4.6457
X3.9961Y-4.7638
X4.0354Y-2.9134
X4.0354Y-3.0315
X4.0354Y-3.1496
X4.063Y-3.5945
X4.0945Y-3.6299
X4.122Y-3.6614
X4.1457Y-3.6929
X4.1535Y-4.4882
X4.1535Y-4.5866
X4.1535Y-4.6496
X4.1614Y-2.2244
X4.1732Y-3.7244
X4.1929Y-2.5197
X4.1929Y-2.6772
X4.1929Y-2.9134
X4.1929Y-3.0315
X4.1929Y-3.1496
X4.1929Y-3.2677
X4.1929Y-3.4646
X4.1929Y-3.5433
X4.1929Y-3.6614
X4.1969Y-3.752
X4.3346Y-3.6024
X4.3504Y-2.5197
X4.3504Y-2.6772
X4.3504Y-2.9134
X4.3504Y-3.2677
X4.378Y-3.6535
X4.4537Y-3.6534
T2
X2.5433Y-3.6299
T5
X2.5409Y-3.8394
X2.5409Y-3.9394
X2.5409Y-4.0394
X2.5409Y-4.1394
X2.5409Y-4.2394
X2.5409Y-4.3394
X2.5409Y-4.4394
X2.5409Y-4.5394
X2.5409Y-4.6394
X2.5409Y-4.7394
X2.6409Y-3.8394
X2.6409Y-3.9394
X2.6409Y-4.0394
X2.6409Y-4.1394
X2.6409Y-4.2394
X2.6409Y-4.3394
X2.6409Y-4.4394
X2.6409Y-4.5394
X2.6409Y-4.6394
X2.6409Y-4.7394
X2.6953Y-2.2835
X2.7953Y-2.2835
X2.8512Y-4.8465
X2.8512Y-4.9465
X2.8953Y-2.2835
X2.9512Y-4.8465
X2.9512Y-4.9465
X2.9953Y-2.2835
X3.0512Y-4.8465
X3.0512Y-4.9465
X3.5024Y-2.3031
X3.6024Y-2.3031
X3.7874Y-4.9646
X3.8874Y-4.9646
X3.9055Y-4.1575
X3.9055Y-4.2575
X3.9874Y-4.9646
X4.2409Y-3.8394
X4.2409Y-3.9394
X4.2409Y-4.0394
X4.2409Y-4.1394
X4.2409Y-4.2394
X4.2409Y-4.3394
X4.2409Y-4.4394
X4.2409Y-4.5394
X4.2409Y-4.6394
X4.2409Y-4.7394
X4.3409Y-3.8394
X4.3409Y-3.9394
X4.3409Y-4.0394
X4.3409Y-4.1394
X4.3409Y-4.2394
X4.3409Y-4.3394
X4.3409Y-4.4394
X4.3409Y-4.5394
X4.3409Y-4.6394
X4.3409Y-4.7394
T6
X2.5Y-2.2835
X2.5Y-5.0
X4.3898Y-2.2835
X4.3898Y-5.0
T3
G00X3.3093Y-4.9382
M15
G01X3.3093Y-4.9224
M16
G05
G00X3.4998Y-4.9382
M15
G01X3.4998Y-4.9224
M16
G05
T4
G00X3.297Y-5.0583
M15
G01X3.297Y-5.0386
M16
G05
G00X3.512Y-5.0583
M15
G01X3.512Y-5.0386
M16
G05
T0
M30
