M48
; DRILL file {KiCad (5.1.9)-1} date 05/07/21 19:23:32
; FORMAT={-:-/ absolute / inch / decimal}
; #@! TF.CreationDate,2021-05-07T19:23:32+02:00
; #@! TF.GenerationSoftware,Kicad,Pcbnew,(5.1.9)-1
; #@! TF.FileFunction,Plated,1,4,PTH
FMAT,2
INCH
T1C0.0118
T2C0.0157
T3C0.0256
T4C0.0276
T5C0.0394
T6C0.1260
%
G90
G05
T1
X2.4606Y-2.5197
X2.4606Y-2.6772
X2.4606Y-2.8346
X2.4606Y-2.9921
X2.4606Y-3.1496
X2.5787Y-2.5197
X2.5787Y-2.6772
X2.5787Y-2.8346
X2.5787Y-2.9921
X2.6378Y-3.5433
X2.6457Y-3.0827
X2.6457Y-3.2913
X2.6969Y-2.5197
X2.6969Y-2.6772
X2.6969Y-2.8346
X2.6969Y-2.9921
X2.7244Y-3.0906
X2.7283Y-3.2746
X2.7441Y-3.9882
X2.7441Y-4.626
X2.7717Y-3.5
X2.7756Y-3.4252
X2.7874Y-3.0945
X2.8071Y-3.9331
X2.8071Y-4.2008
X2.8071Y-4.6535
X2.815Y-2.8346
X2.815Y-2.9921
X2.8465Y-3.7047
X2.874Y-3.7362
X2.8976Y-3.1693
X2.9016Y-3.8346
X2.9055Y-3.9134
X2.9252Y-4.5276
X2.9291Y-3.1693
X2.9331Y-3.7362
X2.9488Y-3.9134
X2.9606Y-4.4961
X2.9951Y-3.6693
X2.9961Y-3.8346
X2.9961Y-3.5236
X2.9961Y-3.5748
X2.9961Y-3.748
X2.9961Y-3.7913
X2.9961Y-4.4606
X2.9961Y-3.624
X3.0118Y-2.5197
X3.0118Y-2.6772
X3.0118Y-2.9134
X3.0157Y-4.7323
X3.0315Y-4.4252
X3.0433Y-3.3425
X3.0709Y-4.3937
X3.0787Y-4.7323
X3.0906Y-4.4488
X3.0906Y-4.5276
X3.0906Y-4.6063
X3.0906Y-4.685
X3.1024Y-4.0039
X3.1024Y-3.9331
X3.1024Y-3.8976
X3.1024Y-3.9685
X3.1299Y-2.5197
X3.1299Y-2.6772
X3.1299Y-2.9134
X3.1299Y-4.3307
X3.1339Y-3.1102
X3.1339Y-3.1693
X3.1339Y-3.2283
X3.1378Y-3.8386
X3.1457Y-3.4921
X3.1505Y-3.5984
X3.165Y-4.7311
X3.1693Y-3.3819
X3.189Y-4.1929
X3.189Y-4.1417
X3.2047Y-3.5472
X3.2178Y-4.0558
X3.2362Y-3.5984
X3.248Y-2.5197
X3.248Y-2.6772
X3.248Y-2.9134
X3.248Y-3.0315
X3.248Y-3.1496
X3.2717Y-3.9852
X3.2717Y-4.2559
X3.2795Y-3.6969
X3.2934Y-3.8437
X3.3031Y-3.4646
X3.3071Y-4.7913
X3.311Y-3.8701
X3.311Y-4.2992
X3.3189Y-3.7283
X3.3307Y-4.5984
X3.3346Y-3.2441
X3.3425Y-4.2559
X3.3425Y-3.7559
X3.3661Y-2.5197
X3.3661Y-2.6772
X3.3661Y-2.9134
X3.3661Y-3.0315
X3.3661Y-3.1496
X3.3661Y-3.7874
X3.3661Y-4.5276
X3.3701Y-4.2992
X3.372Y-3.5394
X3.378Y-3.6968
X3.3898Y-3.8189
X3.398Y-4.8704
X3.4162Y-3.5714
X3.4173Y-3.3858
X3.4173Y-4.2559
X3.4569Y-3.3502
X3.4754Y-3.3841
X3.4843Y-2.378
X3.4843Y-2.6772
X3.4843Y-2.9134
X3.4843Y-3.0315
X3.4843Y-3.1496
X3.4843Y-3.2677
X3.5039Y-4.2992
X3.5236Y-3.3504
X3.5236Y-4.4882
X3.5236Y-4.6457
X3.5236Y-4.7638
X3.5354Y-4.2559
X3.55Y-3.7651
X3.5512Y-3.3858
X3.5512Y-3.8032
X3.5532Y-4.0327
X3.5551Y-3.9488
X3.5695Y-4.3006
X3.5827Y-4.8583
X3.5878Y-3.9874
X3.5906Y-3.7283
X3.5945Y-3.3504
X3.5984Y-4.2559
X3.6024Y-2.6772
X3.6024Y-2.9134
X3.6024Y-3.0315
X3.6024Y-3.1496
X3.6024Y-3.2677
X3.622Y-4.1378
X3.626Y-2.378
X3.626Y-3.3858
X3.6339Y-3.685
X3.6417Y-4.4882
X3.6417Y-4.6457
X3.6417Y-4.7638
X3.6693Y-3.3504
X3.7123Y-3.7313
X3.7126Y-4.0984
X3.7205Y-2.5197
X3.7205Y-2.6772
X3.7283Y-3.7008
X3.73Y-3.8543
X3.7323Y-3.7835
X3.7392Y-4.2165
X3.7392Y-4.2756
X3.7402Y-3.9921
X3.7598Y-4.4882
X3.7598Y-4.6457
X3.7598Y-4.7638
X3.7913Y-2.2244
X3.8031Y-3.8189
X3.8031Y-4.0118
X3.8228Y-3.7008
X3.8386Y-2.5197
X3.8386Y-2.6772
X3.8386Y-2.8346
X3.8386Y-3.0315
X3.8386Y-3.1496
X3.8386Y-3.2677
X3.8504Y-3.626
X3.878Y-4.4882
X3.878Y-4.6457
X3.878Y-4.7638
X3.8937Y-3.6339
X3.9134Y-3.6693
X3.937Y-3.622
X3.9409Y-3.5423
X3.9567Y-2.5197
X3.9685Y-3.5709
X3.9961Y-4.6457
X3.9961Y-4.7638
X4.0591Y-3.6142
X4.1019Y-3.653
X4.126Y-3.6772
X4.1496Y-3.7008
X4.1535Y-4.0945
X4.1535Y-4.1929
X4.1535Y-4.2913
X4.1535Y-4.4882
X4.1535Y-4.5866
X4.1535Y-4.6496
X4.1614Y-2.2244
X4.1732Y-3.7244
X4.1929Y-2.5197
X4.1929Y-2.6772
X4.1929Y-2.8346
X4.1929Y-3.0315
X4.1929Y-3.1496
X4.1929Y-3.2677
X4.1929Y-3.4646
X4.1929Y-3.5433
X4.1929Y-3.6614
X4.1969Y-3.752
X4.3346Y-3.6024
X4.3504Y-2.5197
X4.3504Y-2.6772
X4.3504Y-2.8346
X4.378Y-3.6535
X4.4134Y-3.6024
X4.4528Y-3.6535
T2
X2.501Y-3.6654
X2.5433Y-3.6299
X2.5866Y-3.6654
T5
X2.5409Y-3.8394
X2.5409Y-3.9394
X2.5409Y-4.0394
X2.5409Y-4.1394
X2.5409Y-4.2394
X2.5409Y-4.3394
X2.5409Y-4.4394
X2.5409Y-4.5394
X2.5409Y-4.6394
X2.5409Y-4.7394
X2.6409Y-3.8394
X2.6409Y-3.9394
X2.6409Y-4.0394
X2.6409Y-4.1394
X2.6409Y-4.2394
X2.6409Y-4.3394
X2.6409Y-4.4394
X2.6409Y-4.5394
X2.6409Y-4.6394
X2.6409Y-4.7394
X2.6953Y-2.2835
X2.7953Y-2.2835
X2.8512Y-4.8465
X2.8512Y-4.9465
X2.8953Y-2.2835
X2.9512Y-4.8465
X2.9512Y-4.9465
X2.9953Y-2.2835
X3.0512Y-4.8465
X3.0512Y-4.9465
X3.5024Y-2.3031
X3.6024Y-2.3031
X3.7874Y-4.9646
X3.8874Y-4.9646
X3.9055Y-4.1575
X3.9055Y-4.2575
X3.9874Y-4.9646
X4.2409Y-3.8394
X4.2409Y-3.9394
X4.2409Y-4.0394
X4.2409Y-4.1394
X4.2409Y-4.2394
X4.2409Y-4.3394
X4.2409Y-4.4394
X4.2409Y-4.5394
X4.2409Y-4.6394
X4.2409Y-4.7394
X4.3409Y-3.8394
X4.3409Y-3.9394
X4.3409Y-4.0394
X4.3409Y-4.1394
X4.3409Y-4.2394
X4.3409Y-4.3394
X4.3409Y-4.4394
X4.3409Y-4.5394
X4.3409Y-4.6394
X4.3409Y-4.7394
T6
X2.5Y-2.2835
X2.5Y-5.0
X4.3898Y-2.2835
X4.3898Y-5.0
T3
G00X3.3093Y-4.9382
M15
G01X3.3093Y-4.9224
M16
G05
G00X3.4998Y-4.9382
M15
G01X3.4998Y-4.9224
M16
G05
T4
G00X3.297Y-5.0583
M15
G01X3.297Y-5.0386
M16
G05
G00X3.512Y-5.0583
M15
G01X3.512Y-5.0386
M16
G05
T0
M30
