%TF.GenerationSoftware,KiCad,Pcbnew,(5.1.9)-1*%
%TF.CreationDate,2021-05-10T15:41:27+02:00*%
%TF.ProjectId,STM32_Launchpad_v1r1,53544d33-325f-44c6-9175-6e6368706164,rev?*%
%TF.SameCoordinates,Original*%
%TF.FileFunction,Copper,L2,Inr*%
%TF.FilePolarity,Positive*%
%FSLAX46Y46*%
G04 Gerber Fmt 4.6, Leading zero omitted, Abs format (unit mm)*
G04 Created by KiCad (PCBNEW (5.1.9)-1) date 2021-05-10 15:41:27*
%MOMM*%
%LPD*%
G01*
G04 APERTURE LIST*
%TA.AperFunction,ComponentPad*%
%ADD10O,1.700000X1.700000*%
%TD*%
%TA.AperFunction,ComponentPad*%
%ADD11R,1.700000X1.700000*%
%TD*%
%TA.AperFunction,ComponentPad*%
%ADD12O,1.350000X1.700000*%
%TD*%
%TA.AperFunction,ComponentPad*%
%ADD13O,1.100000X1.500000*%
%TD*%
%TA.AperFunction,ComponentPad*%
%ADD14C,5.700000*%
%TD*%
%TA.AperFunction,ViaPad*%
%ADD15C,0.600000*%
%TD*%
%TA.AperFunction,ViaPad*%
%ADD16C,0.800000*%
%TD*%
%TA.AperFunction,Conductor*%
%ADD17C,0.254000*%
%TD*%
%TA.AperFunction,Conductor*%
%ADD18C,0.100000*%
%TD*%
G04 APERTURE END LIST*
D10*
%TO.N,/GPIO\u005CEI2*%
%TO.C,J5*%
X110260000Y-120380000D03*
%TO.N,/CANTX*%
X107720000Y-120380000D03*
%TO.N,/CANRX*%
X110260000Y-117840000D03*
%TO.N,/ENCA*%
X107720000Y-117840000D03*
%TO.N,/~SPICS*%
X110260000Y-115300000D03*
%TO.N,/ENCB*%
X107720000Y-115300000D03*
%TO.N,/SPIMISO*%
X110260000Y-112760000D03*
%TO.N,/ENCZ*%
X107720000Y-112760000D03*
%TO.N,/SPIMOSI*%
X110260000Y-110220000D03*
%TO.N,/PWMCL*%
X107720000Y-110220000D03*
%TO.N,/~RESET*%
X110260000Y-107680000D03*
%TO.N,/PWMCH*%
X107720000Y-107680000D03*
%TO.N,/GPIO\u005CEI1*%
X110260000Y-105140000D03*
%TO.N,/PWMBL*%
X107720000Y-105140000D03*
%TO.N,/GPIO\u005CEI4*%
X110260000Y-102600000D03*
%TO.N,/PWMBH*%
X107720000Y-102600000D03*
%TO.N,/GPIO\u005CEI3*%
X110260000Y-100060000D03*
%TO.N,/PWMAL*%
X107720000Y-100060000D03*
%TO.N,GND*%
X110260000Y-97520000D03*
D11*
%TO.N,/PWMAH*%
X107720000Y-97520000D03*
%TD*%
D10*
%TO.N,/LEDR*%
%TO.C,J8*%
X88960000Y-58500000D03*
D11*
%TO.N,/LEDG*%
X91500000Y-58500000D03*
%TD*%
%TO.N,+3V3*%
%TO.C,J7*%
X77500000Y-123100000D03*
D10*
%TO.N,/SPIE_MOSI*%
X77500000Y-125640000D03*
%TO.N,/SPIE_MISO*%
X74960000Y-125640000D03*
%TO.N,GND*%
X72420000Y-125640000D03*
%TO.N,/SPIE_CLK*%
X72420000Y-123100000D03*
%TO.N,/~SPIE_CS*%
X74960000Y-123100000D03*
%TD*%
%TO.N,GND*%
%TO.C,J4*%
X99200000Y-108140000D03*
D11*
%TO.N,/VBAT*%
X99200000Y-105600000D03*
%TD*%
D10*
%TO.N,GND*%
%TO.C,J6*%
X101280000Y-126100000D03*
X98740000Y-126100000D03*
D11*
%TO.N,+3V3*%
X96200000Y-126100000D03*
%TD*%
D10*
%TO.N,GND*%
%TO.C,J1*%
X68460000Y-58000000D03*
%TO.N,/SWDIO*%
X71000000Y-58000000D03*
%TO.N,/SWCLK*%
X73540000Y-58000000D03*
D11*
%TO.N,+3V3*%
X76080000Y-58000000D03*
%TD*%
D12*
%TO.N,GND*%
%TO.C,J2*%
X89205000Y-128230000D03*
X83745000Y-128230000D03*
D13*
X88895000Y-125230000D03*
X84055000Y-125230000D03*
%TD*%
D14*
%TO.N,GND*%
%TO.C,H4*%
X63500000Y-127000000D03*
%TD*%
%TO.N,GND*%
%TO.C,H3*%
X63500000Y-58000000D03*
%TD*%
%TO.N,GND*%
%TO.C,H2*%
X111500000Y-58000000D03*
%TD*%
%TO.N,GND*%
%TO.C,H1*%
X111500000Y-127000000D03*
%TD*%
D10*
%TO.N,/PB2_AD2*%
%TO.C,J3*%
X67080000Y-120380000D03*
%TO.N,/SDA*%
X64540000Y-120380000D03*
%TO.N,/PB12_AD4*%
X67080000Y-117840000D03*
%TO.N,/SCL*%
X64540000Y-117840000D03*
%TO.N,/PC1_AD2*%
X67080000Y-115300000D03*
%TO.N,/GPIO\u005CEI6*%
X64540000Y-115300000D03*
%TO.N,/PB1_AD3*%
X67080000Y-112760000D03*
%TO.N,/SPISCK*%
X64540000Y-112760000D03*
%TO.N,/PA0_AD1*%
X67080000Y-110220000D03*
%TO.N,/PA1_AD1*%
X64540000Y-110220000D03*
%TO.N,/PB0_AD3*%
X67080000Y-107680000D03*
%TO.N,/GPIO\u005CEI5*%
X64540000Y-107680000D03*
%TO.N,/PC0_AD2*%
X67080000Y-105140000D03*
%TO.N,/UART_MCUTX*%
X64540000Y-105140000D03*
%TO.N,/PB11_AD1*%
X67080000Y-102600000D03*
%TO.N,/UART_MCURX*%
X64540000Y-102600000D03*
%TO.N,GND*%
X67080000Y-100060000D03*
%TO.N,/PC4_AD2*%
X64540000Y-100060000D03*
%TO.N,+5V_EXT*%
X67080000Y-97520000D03*
D11*
%TO.N,+3.3V_EXT*%
X64540000Y-97520000D03*
%TD*%
D15*
%TO.N,GND*%
X86308058Y-123708058D03*
X88500000Y-60400000D03*
X92100000Y-60400000D03*
X77300000Y-84900000D03*
X96300000Y-56500000D03*
X105700000Y-56500000D03*
X94300000Y-104100000D03*
X99400000Y-93200000D03*
X96600000Y-101900000D03*
X76600000Y-120200000D03*
X94974990Y-107100000D03*
X84700000Y-82400000D03*
X67200000Y-78300000D03*
X69200000Y-78500000D03*
X70800000Y-78600000D03*
X67200000Y-83600000D03*
X91000000Y-123400000D03*
X69300000Y-83174990D03*
X80390000Y-120170000D03*
X62500000Y-64000000D03*
X65500000Y-64000000D03*
X68500000Y-64000000D03*
X76500000Y-64000000D03*
X79500000Y-64000000D03*
X82500000Y-64000000D03*
X85500000Y-64000000D03*
X94500000Y-64000000D03*
X97500000Y-64000000D03*
X100500000Y-64000000D03*
X106500000Y-64000000D03*
X110500000Y-64000000D03*
X62500000Y-68000000D03*
X65500000Y-68000000D03*
X68500000Y-68000000D03*
X76500000Y-68000000D03*
X79500000Y-68000000D03*
X82500000Y-68000000D03*
X85500000Y-68000000D03*
X88500000Y-68000000D03*
X91500000Y-68000000D03*
X94500000Y-68000000D03*
X97500000Y-68000000D03*
X106500000Y-68000000D03*
X110500000Y-68000000D03*
X62500000Y-72000000D03*
X65500000Y-72000000D03*
X68500000Y-72000000D03*
X71500000Y-72000000D03*
X62500000Y-76000000D03*
X65500000Y-76000000D03*
X68500000Y-76000000D03*
X71500000Y-76000000D03*
X76500000Y-74000000D03*
X79500000Y-74000000D03*
X82500000Y-74000000D03*
X85500000Y-74000000D03*
X88500000Y-74000000D03*
X91500000Y-74000000D03*
X82500000Y-77000000D03*
X85500000Y-77000000D03*
X88500000Y-77000000D03*
X91500000Y-77000000D03*
X97500000Y-77000000D03*
X106500000Y-77000000D03*
X82500000Y-80000000D03*
X85500000Y-80000000D03*
X88500000Y-80000000D03*
X91500000Y-80000000D03*
X97500000Y-80000000D03*
X106500000Y-80000000D03*
X106500000Y-83000000D03*
X97500000Y-83000000D03*
X91500000Y-83000000D03*
X88500000Y-83000000D03*
X62500000Y-80000000D03*
X106500000Y-88000000D03*
X106500000Y-90000000D03*
X106500000Y-93000000D03*
X101500000Y-118000000D03*
X85500000Y-115000000D03*
X89500000Y-118000000D03*
X92500000Y-118000000D03*
X95500000Y-118000000D03*
X98500000Y-118000000D03*
X89500000Y-121000000D03*
X92500000Y-121000000D03*
X95500000Y-121000000D03*
X98500000Y-121000000D03*
X101500000Y-121000000D03*
X89500000Y-114000000D03*
X92500000Y-114000000D03*
X95500000Y-114000000D03*
X98500000Y-114000000D03*
X105500000Y-114000000D03*
X105500000Y-116500000D03*
X100000000Y-92000000D03*
X67000000Y-90000000D03*
X79500000Y-110000000D03*
X96615323Y-97005329D03*
X90641942Y-105158058D03*
X80069170Y-91274990D03*
X90925010Y-94100000D03*
X85749997Y-94349997D03*
X83800000Y-87900002D03*
X80458051Y-85858051D03*
X82300000Y-90800000D03*
X94500000Y-93900000D03*
X83100000Y-100900000D03*
X81000000Y-105125010D03*
X94500000Y-74000000D03*
X94500000Y-77000000D03*
X94500000Y-80000000D03*
X97500000Y-74000000D03*
X102500000Y-74000000D03*
X102500000Y-77000000D03*
X102500000Y-80000000D03*
X106500000Y-74000000D03*
X110500000Y-74000000D03*
X110500000Y-83000000D03*
D16*
%TO.N,+3V3*%
X64600000Y-92200000D03*
D15*
X78200000Y-120200000D03*
X94974990Y-108600000D03*
X73700000Y-97400000D03*
X91999994Y-105100000D03*
X73600000Y-80500000D03*
X74400000Y-80500000D03*
X79600000Y-79000000D03*
X79600000Y-80500000D03*
X79600000Y-82000000D03*
X97125010Y-94000000D03*
X81699990Y-102325010D03*
X92316949Y-93616949D03*
X79400000Y-89200000D03*
X82272520Y-92975000D03*
%TO.N,/PB11_AD1*%
X76100000Y-89200000D03*
%TO.N,/PC0_AD2*%
X92900002Y-102800000D03*
%TO.N,/PB0_AD3*%
X77000000Y-112400012D03*
X76100000Y-92200000D03*
X86999990Y-87300000D03*
%TO.N,/PA0_AD1*%
X75200000Y-114200000D03*
X75700006Y-96399994D03*
X88300000Y-95100000D03*
%TO.N,/PB1_AD3*%
X69700000Y-101300000D03*
X87000000Y-89400000D03*
%TO.N,/PC1_AD2*%
X74299980Y-115000000D03*
X94791945Y-97291953D03*
X75700000Y-97300000D03*
%TO.N,/PB12_AD4*%
X71299990Y-99900000D03*
X69700000Y-117500000D03*
X76100000Y-90800000D03*
%TO.N,/SDA*%
X74500000Y-94900000D03*
X74800000Y-102199998D03*
X84095304Y-96604204D03*
%TO.N,/SCL*%
X73000000Y-94900000D03*
X74000000Y-103000000D03*
X83599994Y-95800000D03*
%TO.N,/PA1_AD1*%
X76100000Y-113300000D03*
X75700009Y-95399991D03*
X87800000Y-94300000D03*
%TO.N,/UART_MCUTX*%
X89141949Y-102141949D03*
%TO.N,/UART_MCURX*%
X92800000Y-88800000D03*
%TO.N,/~SPICS*%
X113125010Y-92797249D03*
X92100000Y-85400000D03*
%TO.N,/CANRX*%
X105500000Y-118100000D03*
X89800000Y-108100000D03*
%TO.N,/CANTX*%
X72900000Y-106200000D03*
X81000000Y-107400000D03*
%TO.N,/ENCA*%
X90664407Y-109235597D03*
%TO.N,/ENCB*%
X91400000Y-108100000D03*
%TO.N,/ENCZ*%
X88999978Y-109199996D03*
%TO.N,/PWMCL*%
X103200000Y-91300000D03*
X78800000Y-97000000D03*
%TO.N,/PWMCH*%
X78900000Y-100500028D03*
X104000000Y-92200000D03*
%TO.N,/PWMBL*%
X104700000Y-93000000D03*
X78807177Y-96008925D03*
%TO.N,/PWMBH*%
X78900000Y-99700015D03*
X105300000Y-93800000D03*
%TO.N,/PWMAL*%
X106600000Y-95300000D03*
X95000000Y-101425010D03*
%TO.N,/PWMAH*%
X78900000Y-98899996D03*
X106000000Y-94599998D03*
%TO.N,/SWCLK*%
X96700000Y-90400000D03*
X85100000Y-95800000D03*
%TO.N,/SWDIO*%
X95777556Y-90156584D03*
X84300002Y-95100000D03*
%TO.N,/SPIMOSI*%
X111200000Y-92800000D03*
X89500000Y-84300000D03*
%TO.N,/SPIMISO*%
X110100000Y-91500000D03*
X90400000Y-85400000D03*
%TO.N,/SPISCK*%
X91400000Y-84300000D03*
%TO.N,/GPIO\u005CEI4*%
X89829441Y-101454457D03*
%TO.N,/GPIO\u005CEI3*%
X90525010Y-102200010D03*
%TO.N,/PC4_AD2*%
X88400000Y-85400000D03*
%TO.N,/GPIO\u005CEI6*%
X69100000Y-87000000D03*
X78400000Y-85500000D03*
%TO.N,/GPIO\u005CEI5*%
X87900000Y-84300000D03*
%TO.N,/GPIO\u005CEI1*%
X86800000Y-108100000D03*
%TO.N,+5V_USB*%
X84000000Y-121700000D03*
X84600000Y-116800000D03*
%TO.N,/LEDG*%
X100800000Y-87500006D03*
X83641949Y-94458051D03*
%TO.N,/LEDR*%
X100064671Y-86984859D03*
X82941958Y-93758060D03*
%TO.N,/SPIE_CLK*%
X84100000Y-109199992D03*
%TO.N,/SPIE_MISO*%
X84899994Y-108100000D03*
%TO.N,/~SPIE_CS*%
X83100000Y-108099992D03*
%TO.N,/SPIE_MOSI*%
X85600000Y-109200000D03*
%TO.N,/PB2_AD2*%
X70500000Y-118200000D03*
X71100000Y-89800000D03*
X87000000Y-88400000D03*
%TD*%
D17*
%TO.N,GND*%
X109047965Y-55727573D02*
X108594150Y-56045757D01*
X108268731Y-56650210D01*
X108067488Y-57306535D01*
X107998155Y-57989510D01*
X108063395Y-58672888D01*
X108260702Y-59330407D01*
X108582494Y-59936799D01*
X108594150Y-59954243D01*
X109047967Y-60272428D01*
X111320395Y-58000000D01*
X111306253Y-57985858D01*
X111485858Y-57806253D01*
X111500000Y-57820395D01*
X111514143Y-57806253D01*
X111693748Y-57985858D01*
X111679605Y-58000000D01*
X111693748Y-58014143D01*
X111514143Y-58193748D01*
X111500000Y-58179605D01*
X109227572Y-60452033D01*
X109545757Y-60905850D01*
X110150210Y-61231269D01*
X110806535Y-61432512D01*
X111489510Y-61501845D01*
X112172888Y-61436605D01*
X112830407Y-61239298D01*
X113436799Y-60917506D01*
X113454243Y-60905850D01*
X113772427Y-60452035D01*
X113840001Y-60519609D01*
X113840001Y-92189950D01*
X113721038Y-92070987D01*
X113567899Y-91968663D01*
X113397739Y-91898181D01*
X113217099Y-91862249D01*
X113032921Y-91862249D01*
X112852281Y-91898181D01*
X112682121Y-91968663D01*
X112528982Y-92070987D01*
X112398748Y-92201221D01*
X112296424Y-92354360D01*
X112225942Y-92524520D01*
X112190010Y-92705160D01*
X112190010Y-92889338D01*
X112225942Y-93069978D01*
X112296424Y-93240138D01*
X112398748Y-93393277D01*
X112528982Y-93523511D01*
X112682121Y-93625835D01*
X112852281Y-93696317D01*
X113032921Y-93732249D01*
X113217099Y-93732249D01*
X113397739Y-93696317D01*
X113567899Y-93625835D01*
X113721038Y-93523511D01*
X113840000Y-93404549D01*
X113840000Y-124480392D01*
X113772427Y-124547965D01*
X113454243Y-124094150D01*
X112849790Y-123768731D01*
X112193465Y-123567488D01*
X111510490Y-123498155D01*
X110827112Y-123563395D01*
X110169593Y-123760702D01*
X109563201Y-124082494D01*
X109545757Y-124094150D01*
X109227572Y-124547967D01*
X111500000Y-126820395D01*
X111514143Y-126806253D01*
X111693748Y-126985858D01*
X111679605Y-127000000D01*
X111693748Y-127014143D01*
X111514143Y-127193748D01*
X111500000Y-127179605D01*
X111485858Y-127193748D01*
X111306253Y-127014143D01*
X111320395Y-127000000D01*
X109047967Y-124727572D01*
X108594150Y-125045757D01*
X108268731Y-125650210D01*
X108067488Y-126306535D01*
X107998155Y-126989510D01*
X108063395Y-127672888D01*
X108260702Y-128330407D01*
X108582494Y-128936799D01*
X108594150Y-128954243D01*
X109047965Y-129272427D01*
X108980392Y-129340000D01*
X90118177Y-129340000D01*
X90201250Y-129260559D01*
X90349019Y-129049761D01*
X90452824Y-128814185D01*
X90508675Y-128562884D01*
X90358573Y-128357000D01*
X89332000Y-128357000D01*
X89332000Y-128377000D01*
X89078000Y-128377000D01*
X89078000Y-128357000D01*
X88051427Y-128357000D01*
X87901325Y-128562884D01*
X87957176Y-128814185D01*
X88060981Y-129049761D01*
X88208750Y-129260559D01*
X88291823Y-129340000D01*
X84658177Y-129340000D01*
X84741250Y-129260559D01*
X84889019Y-129049761D01*
X84992824Y-128814185D01*
X85048675Y-128562884D01*
X84898573Y-128357000D01*
X83872000Y-128357000D01*
X83872000Y-128377000D01*
X83618000Y-128377000D01*
X83618000Y-128357000D01*
X82591427Y-128357000D01*
X82441325Y-128562884D01*
X82497176Y-128814185D01*
X82600981Y-129049761D01*
X82748750Y-129260559D01*
X82831823Y-129340000D01*
X66019608Y-129340000D01*
X65952035Y-129272427D01*
X66405850Y-128954243D01*
X66731269Y-128349790D01*
X66870068Y-127897116D01*
X82441325Y-127897116D01*
X82591427Y-128103000D01*
X83618000Y-128103000D01*
X83618000Y-126910776D01*
X83872000Y-126910776D01*
X83872000Y-128103000D01*
X84898573Y-128103000D01*
X85048675Y-127897116D01*
X87901325Y-127897116D01*
X88051427Y-128103000D01*
X89078000Y-128103000D01*
X89078000Y-126910776D01*
X89332000Y-126910776D01*
X89332000Y-128103000D01*
X90358573Y-128103000D01*
X90508675Y-127897116D01*
X90452824Y-127645815D01*
X90349019Y-127410239D01*
X90201250Y-127199441D01*
X90015196Y-127021522D01*
X89798007Y-126883319D01*
X89558029Y-126790143D01*
X89534400Y-126787090D01*
X89332000Y-126910776D01*
X89078000Y-126910776D01*
X88875600Y-126787090D01*
X88851971Y-126790143D01*
X88611993Y-126883319D01*
X88394804Y-127021522D01*
X88208750Y-127199441D01*
X88060981Y-127410239D01*
X87957176Y-127645815D01*
X87901325Y-127897116D01*
X85048675Y-127897116D01*
X84992824Y-127645815D01*
X84889019Y-127410239D01*
X84741250Y-127199441D01*
X84555196Y-127021522D01*
X84338007Y-126883319D01*
X84098029Y-126790143D01*
X84074400Y-126787090D01*
X83872000Y-126910776D01*
X83618000Y-126910776D01*
X83415600Y-126787090D01*
X83391971Y-126790143D01*
X83151993Y-126883319D01*
X82934804Y-127021522D01*
X82748750Y-127199441D01*
X82600981Y-127410239D01*
X82497176Y-127645815D01*
X82441325Y-127897116D01*
X66870068Y-127897116D01*
X66932512Y-127693465D01*
X67001845Y-127010490D01*
X66936605Y-126327112D01*
X66837513Y-125996891D01*
X70978519Y-125996891D01*
X71075843Y-126271252D01*
X71224822Y-126521355D01*
X71419731Y-126737588D01*
X71653080Y-126911641D01*
X71915901Y-127036825D01*
X72063110Y-127081476D01*
X72293000Y-126960155D01*
X72293000Y-125767000D01*
X71099186Y-125767000D01*
X70978519Y-125996891D01*
X66837513Y-125996891D01*
X66739298Y-125669593D01*
X66417506Y-125063201D01*
X66405850Y-125045757D01*
X65952033Y-124727572D01*
X63679605Y-127000000D01*
X63693748Y-127014143D01*
X63514143Y-127193748D01*
X63500000Y-127179605D01*
X63485858Y-127193748D01*
X63306253Y-127014143D01*
X63320395Y-127000000D01*
X63306253Y-126985858D01*
X63485858Y-126806253D01*
X63500000Y-126820395D01*
X65772428Y-124547967D01*
X65454243Y-124094150D01*
X64849790Y-123768731D01*
X64193465Y-123567488D01*
X63510490Y-123498155D01*
X62827112Y-123563395D01*
X62169593Y-123760702D01*
X61563201Y-124082494D01*
X61545757Y-124094150D01*
X61227573Y-124547965D01*
X61160000Y-124480392D01*
X61160000Y-122953740D01*
X70935000Y-122953740D01*
X70935000Y-123246260D01*
X70992068Y-123533158D01*
X71104010Y-123803411D01*
X71266525Y-124046632D01*
X71473368Y-124253475D01*
X71649406Y-124371100D01*
X71419731Y-124542412D01*
X71224822Y-124758645D01*
X71075843Y-125008748D01*
X70978519Y-125283109D01*
X71099186Y-125513000D01*
X72293000Y-125513000D01*
X72293000Y-125493000D01*
X72547000Y-125493000D01*
X72547000Y-125513000D01*
X72567000Y-125513000D01*
X72567000Y-125767000D01*
X72547000Y-125767000D01*
X72547000Y-126960155D01*
X72776890Y-127081476D01*
X72924099Y-127036825D01*
X73186920Y-126911641D01*
X73420269Y-126737588D01*
X73615178Y-126521355D01*
X73684805Y-126404466D01*
X73806525Y-126586632D01*
X74013368Y-126793475D01*
X74256589Y-126955990D01*
X74526842Y-127067932D01*
X74813740Y-127125000D01*
X75106260Y-127125000D01*
X75393158Y-127067932D01*
X75663411Y-126955990D01*
X75906632Y-126793475D01*
X76113475Y-126586632D01*
X76230000Y-126412240D01*
X76346525Y-126586632D01*
X76553368Y-126793475D01*
X76796589Y-126955990D01*
X77066842Y-127067932D01*
X77353740Y-127125000D01*
X77646260Y-127125000D01*
X77933158Y-127067932D01*
X78203411Y-126955990D01*
X78446632Y-126793475D01*
X78653475Y-126586632D01*
X78815990Y-126343411D01*
X78927932Y-126073158D01*
X78985000Y-125786260D01*
X78985000Y-125543884D01*
X82869316Y-125543884D01*
X82914316Y-125773011D01*
X83003152Y-125988957D01*
X83132410Y-126183422D01*
X83297123Y-126348934D01*
X83490961Y-126479131D01*
X83706474Y-126569011D01*
X83745256Y-126573803D01*
X83928000Y-126448361D01*
X83928000Y-125357000D01*
X84182000Y-125357000D01*
X84182000Y-126448361D01*
X84364744Y-126573803D01*
X84403526Y-126569011D01*
X84619039Y-126479131D01*
X84812877Y-126348934D01*
X84977590Y-126183422D01*
X85106848Y-125988957D01*
X85195684Y-125773011D01*
X85240684Y-125543884D01*
X87709316Y-125543884D01*
X87754316Y-125773011D01*
X87843152Y-125988957D01*
X87972410Y-126183422D01*
X88137123Y-126348934D01*
X88330961Y-126479131D01*
X88546474Y-126569011D01*
X88585256Y-126573803D01*
X88768000Y-126448361D01*
X88768000Y-125357000D01*
X89022000Y-125357000D01*
X89022000Y-126448361D01*
X89204744Y-126573803D01*
X89243526Y-126569011D01*
X89459039Y-126479131D01*
X89652877Y-126348934D01*
X89817590Y-126183422D01*
X89946848Y-125988957D01*
X90035684Y-125773011D01*
X90080684Y-125543884D01*
X89925152Y-125357000D01*
X89022000Y-125357000D01*
X88768000Y-125357000D01*
X87864848Y-125357000D01*
X87709316Y-125543884D01*
X85240684Y-125543884D01*
X85085152Y-125357000D01*
X84182000Y-125357000D01*
X83928000Y-125357000D01*
X83024848Y-125357000D01*
X82869316Y-125543884D01*
X78985000Y-125543884D01*
X78985000Y-125493740D01*
X78936517Y-125250000D01*
X94711928Y-125250000D01*
X94711928Y-126950000D01*
X94724188Y-127074482D01*
X94760498Y-127194180D01*
X94819463Y-127304494D01*
X94898815Y-127401185D01*
X94995506Y-127480537D01*
X95105820Y-127539502D01*
X95225518Y-127575812D01*
X95350000Y-127588072D01*
X97050000Y-127588072D01*
X97174482Y-127575812D01*
X97294180Y-127539502D01*
X97404494Y-127480537D01*
X97501185Y-127401185D01*
X97580537Y-127304494D01*
X97639502Y-127194180D01*
X97663966Y-127113534D01*
X97739731Y-127197588D01*
X97973080Y-127371641D01*
X98235901Y-127496825D01*
X98383110Y-127541476D01*
X98613000Y-127420155D01*
X98613000Y-126227000D01*
X98867000Y-126227000D01*
X98867000Y-127420155D01*
X99096890Y-127541476D01*
X99244099Y-127496825D01*
X99506920Y-127371641D01*
X99740269Y-127197588D01*
X99935178Y-126981355D01*
X100010000Y-126855745D01*
X100084822Y-126981355D01*
X100279731Y-127197588D01*
X100513080Y-127371641D01*
X100775901Y-127496825D01*
X100923110Y-127541476D01*
X101153000Y-127420155D01*
X101153000Y-126227000D01*
X101407000Y-126227000D01*
X101407000Y-127420155D01*
X101636890Y-127541476D01*
X101784099Y-127496825D01*
X102046920Y-127371641D01*
X102280269Y-127197588D01*
X102475178Y-126981355D01*
X102624157Y-126731252D01*
X102721481Y-126456891D01*
X102600814Y-126227000D01*
X101407000Y-126227000D01*
X101153000Y-126227000D01*
X98867000Y-126227000D01*
X98613000Y-126227000D01*
X98593000Y-126227000D01*
X98593000Y-125973000D01*
X98613000Y-125973000D01*
X98613000Y-124779845D01*
X98867000Y-124779845D01*
X98867000Y-125973000D01*
X101153000Y-125973000D01*
X101153000Y-124779845D01*
X101407000Y-124779845D01*
X101407000Y-125973000D01*
X102600814Y-125973000D01*
X102721481Y-125743109D01*
X102624157Y-125468748D01*
X102475178Y-125218645D01*
X102280269Y-125002412D01*
X102046920Y-124828359D01*
X101784099Y-124703175D01*
X101636890Y-124658524D01*
X101407000Y-124779845D01*
X101153000Y-124779845D01*
X100923110Y-124658524D01*
X100775901Y-124703175D01*
X100513080Y-124828359D01*
X100279731Y-125002412D01*
X100084822Y-125218645D01*
X100010000Y-125344255D01*
X99935178Y-125218645D01*
X99740269Y-125002412D01*
X99506920Y-124828359D01*
X99244099Y-124703175D01*
X99096890Y-124658524D01*
X98867000Y-124779845D01*
X98613000Y-124779845D01*
X98383110Y-124658524D01*
X98235901Y-124703175D01*
X97973080Y-124828359D01*
X97739731Y-125002412D01*
X97663966Y-125086466D01*
X97639502Y-125005820D01*
X97580537Y-124895506D01*
X97501185Y-124798815D01*
X97404494Y-124719463D01*
X97294180Y-124660498D01*
X97174482Y-124624188D01*
X97050000Y-124611928D01*
X95350000Y-124611928D01*
X95225518Y-124624188D01*
X95105820Y-124660498D01*
X94995506Y-124719463D01*
X94898815Y-124798815D01*
X94819463Y-124895506D01*
X94760498Y-125005820D01*
X94724188Y-125125518D01*
X94711928Y-125250000D01*
X78936517Y-125250000D01*
X78927932Y-125206842D01*
X78815990Y-124936589D01*
X78802311Y-124916116D01*
X82869316Y-124916116D01*
X83024848Y-125103000D01*
X83928000Y-125103000D01*
X83928000Y-124011639D01*
X84182000Y-124011639D01*
X84182000Y-125103000D01*
X85085152Y-125103000D01*
X85240684Y-124916116D01*
X87709316Y-124916116D01*
X87864848Y-125103000D01*
X88768000Y-125103000D01*
X88768000Y-124011639D01*
X89022000Y-124011639D01*
X89022000Y-125103000D01*
X89925152Y-125103000D01*
X90080684Y-124916116D01*
X90035684Y-124686989D01*
X89946848Y-124471043D01*
X89817590Y-124276578D01*
X89652877Y-124111066D01*
X89459039Y-123980869D01*
X89243526Y-123890989D01*
X89204744Y-123886197D01*
X89022000Y-124011639D01*
X88768000Y-124011639D01*
X88585256Y-123886197D01*
X88546474Y-123890989D01*
X88330961Y-123980869D01*
X88137123Y-124111066D01*
X87972410Y-124276578D01*
X87843152Y-124471043D01*
X87754316Y-124686989D01*
X87709316Y-124916116D01*
X85240684Y-124916116D01*
X85195684Y-124686989D01*
X85106848Y-124471043D01*
X84977590Y-124276578D01*
X84812877Y-124111066D01*
X84619039Y-123980869D01*
X84403526Y-123890989D01*
X84364744Y-123886197D01*
X84182000Y-124011639D01*
X83928000Y-124011639D01*
X83745256Y-123886197D01*
X83706474Y-123890989D01*
X83490961Y-123980869D01*
X83297123Y-124111066D01*
X83132410Y-124276578D01*
X83003152Y-124471043D01*
X82914316Y-124686989D01*
X82869316Y-124916116D01*
X78802311Y-124916116D01*
X78653475Y-124693368D01*
X78521620Y-124561513D01*
X78594180Y-124539502D01*
X78704494Y-124480537D01*
X78801185Y-124401185D01*
X78880537Y-124304494D01*
X78939502Y-124194180D01*
X78975812Y-124074482D01*
X78988072Y-123950000D01*
X78988072Y-122250000D01*
X78975812Y-122125518D01*
X78939502Y-122005820D01*
X78880537Y-121895506D01*
X78801185Y-121798815D01*
X78704494Y-121719463D01*
X78594180Y-121660498D01*
X78474482Y-121624188D01*
X78350000Y-121611928D01*
X76650000Y-121611928D01*
X76525518Y-121624188D01*
X76405820Y-121660498D01*
X76295506Y-121719463D01*
X76198815Y-121798815D01*
X76119463Y-121895506D01*
X76060498Y-122005820D01*
X76038487Y-122078380D01*
X75906632Y-121946525D01*
X75663411Y-121784010D01*
X75393158Y-121672068D01*
X75106260Y-121615000D01*
X74813740Y-121615000D01*
X74526842Y-121672068D01*
X74256589Y-121784010D01*
X74013368Y-121946525D01*
X73806525Y-122153368D01*
X73690000Y-122327760D01*
X73573475Y-122153368D01*
X73366632Y-121946525D01*
X73123411Y-121784010D01*
X72853158Y-121672068D01*
X72566260Y-121615000D01*
X72273740Y-121615000D01*
X71986842Y-121672068D01*
X71716589Y-121784010D01*
X71473368Y-121946525D01*
X71266525Y-122153368D01*
X71104010Y-122396589D01*
X70992068Y-122666842D01*
X70935000Y-122953740D01*
X61160000Y-122953740D01*
X61160000Y-96670000D01*
X63051928Y-96670000D01*
X63051928Y-98370000D01*
X63064188Y-98494482D01*
X63100498Y-98614180D01*
X63159463Y-98724494D01*
X63238815Y-98821185D01*
X63335506Y-98900537D01*
X63445820Y-98959502D01*
X63518380Y-98981513D01*
X63386525Y-99113368D01*
X63224010Y-99356589D01*
X63112068Y-99626842D01*
X63055000Y-99913740D01*
X63055000Y-100206260D01*
X63112068Y-100493158D01*
X63224010Y-100763411D01*
X63386525Y-101006632D01*
X63593368Y-101213475D01*
X63767760Y-101330000D01*
X63593368Y-101446525D01*
X63386525Y-101653368D01*
X63224010Y-101896589D01*
X63112068Y-102166842D01*
X63055000Y-102453740D01*
X63055000Y-102746260D01*
X63112068Y-103033158D01*
X63224010Y-103303411D01*
X63386525Y-103546632D01*
X63593368Y-103753475D01*
X63767760Y-103870000D01*
X63593368Y-103986525D01*
X63386525Y-104193368D01*
X63224010Y-104436589D01*
X63112068Y-104706842D01*
X63055000Y-104993740D01*
X63055000Y-105286260D01*
X63112068Y-105573158D01*
X63224010Y-105843411D01*
X63386525Y-106086632D01*
X63593368Y-106293475D01*
X63767760Y-106410000D01*
X63593368Y-106526525D01*
X63386525Y-106733368D01*
X63224010Y-106976589D01*
X63112068Y-107246842D01*
X63055000Y-107533740D01*
X63055000Y-107826260D01*
X63112068Y-108113158D01*
X63224010Y-108383411D01*
X63386525Y-108626632D01*
X63593368Y-108833475D01*
X63767760Y-108950000D01*
X63593368Y-109066525D01*
X63386525Y-109273368D01*
X63224010Y-109516589D01*
X63112068Y-109786842D01*
X63055000Y-110073740D01*
X63055000Y-110366260D01*
X63112068Y-110653158D01*
X63224010Y-110923411D01*
X63386525Y-111166632D01*
X63593368Y-111373475D01*
X63767760Y-111490000D01*
X63593368Y-111606525D01*
X63386525Y-111813368D01*
X63224010Y-112056589D01*
X63112068Y-112326842D01*
X63055000Y-112613740D01*
X63055000Y-112906260D01*
X63112068Y-113193158D01*
X63224010Y-113463411D01*
X63386525Y-113706632D01*
X63593368Y-113913475D01*
X63767760Y-114030000D01*
X63593368Y-114146525D01*
X63386525Y-114353368D01*
X63224010Y-114596589D01*
X63112068Y-114866842D01*
X63055000Y-115153740D01*
X63055000Y-115446260D01*
X63112068Y-115733158D01*
X63224010Y-116003411D01*
X63386525Y-116246632D01*
X63593368Y-116453475D01*
X63767760Y-116570000D01*
X63593368Y-116686525D01*
X63386525Y-116893368D01*
X63224010Y-117136589D01*
X63112068Y-117406842D01*
X63055000Y-117693740D01*
X63055000Y-117986260D01*
X63112068Y-118273158D01*
X63224010Y-118543411D01*
X63386525Y-118786632D01*
X63593368Y-118993475D01*
X63767760Y-119110000D01*
X63593368Y-119226525D01*
X63386525Y-119433368D01*
X63224010Y-119676589D01*
X63112068Y-119946842D01*
X63055000Y-120233740D01*
X63055000Y-120526260D01*
X63112068Y-120813158D01*
X63224010Y-121083411D01*
X63386525Y-121326632D01*
X63593368Y-121533475D01*
X63836589Y-121695990D01*
X64106842Y-121807932D01*
X64393740Y-121865000D01*
X64686260Y-121865000D01*
X64973158Y-121807932D01*
X65243411Y-121695990D01*
X65486632Y-121533475D01*
X65693475Y-121326632D01*
X65810000Y-121152240D01*
X65926525Y-121326632D01*
X66133368Y-121533475D01*
X66376589Y-121695990D01*
X66646842Y-121807932D01*
X66933740Y-121865000D01*
X67226260Y-121865000D01*
X67513158Y-121807932D01*
X67783411Y-121695990D01*
X67915230Y-121607911D01*
X83065000Y-121607911D01*
X83065000Y-121792089D01*
X83100932Y-121972729D01*
X83171414Y-122142889D01*
X83273738Y-122296028D01*
X83403972Y-122426262D01*
X83557111Y-122528586D01*
X83727271Y-122599068D01*
X83907911Y-122635000D01*
X84092089Y-122635000D01*
X84272729Y-122599068D01*
X84442889Y-122528586D01*
X84596028Y-122426262D01*
X84726262Y-122296028D01*
X84828586Y-122142889D01*
X84899068Y-121972729D01*
X84935000Y-121792089D01*
X84935000Y-121607911D01*
X84899068Y-121427271D01*
X84828586Y-121257111D01*
X84726262Y-121103972D01*
X84596028Y-120973738D01*
X84442889Y-120871414D01*
X84272729Y-120800932D01*
X84092089Y-120765000D01*
X83907911Y-120765000D01*
X83727271Y-120800932D01*
X83557111Y-120871414D01*
X83403972Y-120973738D01*
X83273738Y-121103972D01*
X83171414Y-121257111D01*
X83100932Y-121427271D01*
X83065000Y-121607911D01*
X67915230Y-121607911D01*
X68026632Y-121533475D01*
X68233475Y-121326632D01*
X68395990Y-121083411D01*
X68507932Y-120813158D01*
X68565000Y-120526260D01*
X68565000Y-120233740D01*
X68539971Y-120107911D01*
X77265000Y-120107911D01*
X77265000Y-120292089D01*
X77300932Y-120472729D01*
X77371414Y-120642889D01*
X77473738Y-120796028D01*
X77603972Y-120926262D01*
X77757111Y-121028586D01*
X77927271Y-121099068D01*
X78107911Y-121135000D01*
X78292089Y-121135000D01*
X78472729Y-121099068D01*
X78642889Y-121028586D01*
X78796028Y-120926262D01*
X78926262Y-120796028D01*
X79028586Y-120642889D01*
X79099068Y-120472729D01*
X79135000Y-120292089D01*
X79135000Y-120107911D01*
X79099068Y-119927271D01*
X79028586Y-119757111D01*
X78926262Y-119603972D01*
X78796028Y-119473738D01*
X78642889Y-119371414D01*
X78472729Y-119300932D01*
X78292089Y-119265000D01*
X78107911Y-119265000D01*
X77927271Y-119300932D01*
X77757111Y-119371414D01*
X77603972Y-119473738D01*
X77473738Y-119603972D01*
X77371414Y-119757111D01*
X77300932Y-119927271D01*
X77265000Y-120107911D01*
X68539971Y-120107911D01*
X68507932Y-119946842D01*
X68395990Y-119676589D01*
X68233475Y-119433368D01*
X68026632Y-119226525D01*
X67852240Y-119110000D01*
X68026632Y-118993475D01*
X68233475Y-118786632D01*
X68395990Y-118543411D01*
X68507932Y-118273158D01*
X68565000Y-117986260D01*
X68565000Y-117693740D01*
X68508145Y-117407911D01*
X68765000Y-117407911D01*
X68765000Y-117592089D01*
X68800932Y-117772729D01*
X68871414Y-117942889D01*
X68973738Y-118096028D01*
X69103972Y-118226262D01*
X69257111Y-118328586D01*
X69427271Y-118399068D01*
X69592830Y-118432000D01*
X69600932Y-118472729D01*
X69671414Y-118642889D01*
X69773738Y-118796028D01*
X69903972Y-118926262D01*
X70057111Y-119028586D01*
X70227271Y-119099068D01*
X70407911Y-119135000D01*
X70592089Y-119135000D01*
X70772729Y-119099068D01*
X70942889Y-119028586D01*
X71096028Y-118926262D01*
X71226262Y-118796028D01*
X71328586Y-118642889D01*
X71399068Y-118472729D01*
X71435000Y-118292089D01*
X71435000Y-118107911D01*
X71399068Y-117927271D01*
X71328586Y-117757111D01*
X71226262Y-117603972D01*
X71096028Y-117473738D01*
X70942889Y-117371414D01*
X70772729Y-117300932D01*
X70607170Y-117268000D01*
X70599068Y-117227271D01*
X70528586Y-117057111D01*
X70426262Y-116903972D01*
X70296028Y-116773738D01*
X70197511Y-116707911D01*
X83665000Y-116707911D01*
X83665000Y-116892089D01*
X83700932Y-117072729D01*
X83771414Y-117242889D01*
X83873738Y-117396028D01*
X84003972Y-117526262D01*
X84157111Y-117628586D01*
X84327271Y-117699068D01*
X84507911Y-117735000D01*
X84692089Y-117735000D01*
X84872729Y-117699068D01*
X85042889Y-117628586D01*
X85196028Y-117526262D01*
X85326262Y-117396028D01*
X85428586Y-117242889D01*
X85499068Y-117072729D01*
X85535000Y-116892089D01*
X85535000Y-116707911D01*
X85499068Y-116527271D01*
X85428586Y-116357111D01*
X85326262Y-116203972D01*
X85196028Y-116073738D01*
X85042889Y-115971414D01*
X84872729Y-115900932D01*
X84692089Y-115865000D01*
X84507911Y-115865000D01*
X84327271Y-115900932D01*
X84157111Y-115971414D01*
X84003972Y-116073738D01*
X83873738Y-116203972D01*
X83771414Y-116357111D01*
X83700932Y-116527271D01*
X83665000Y-116707911D01*
X70197511Y-116707911D01*
X70142889Y-116671414D01*
X69972729Y-116600932D01*
X69792089Y-116565000D01*
X69607911Y-116565000D01*
X69427271Y-116600932D01*
X69257111Y-116671414D01*
X69103972Y-116773738D01*
X68973738Y-116903972D01*
X68871414Y-117057111D01*
X68800932Y-117227271D01*
X68765000Y-117407911D01*
X68508145Y-117407911D01*
X68507932Y-117406842D01*
X68395990Y-117136589D01*
X68233475Y-116893368D01*
X68026632Y-116686525D01*
X67852240Y-116570000D01*
X68026632Y-116453475D01*
X68233475Y-116246632D01*
X68395990Y-116003411D01*
X68507932Y-115733158D01*
X68565000Y-115446260D01*
X68565000Y-115153740D01*
X68516102Y-114907911D01*
X73364980Y-114907911D01*
X73364980Y-115092089D01*
X73400912Y-115272729D01*
X73471394Y-115442889D01*
X73573718Y-115596028D01*
X73703952Y-115726262D01*
X73857091Y-115828586D01*
X74027251Y-115899068D01*
X74207891Y-115935000D01*
X74392069Y-115935000D01*
X74572709Y-115899068D01*
X74742869Y-115828586D01*
X74896008Y-115726262D01*
X75026242Y-115596028D01*
X75128566Y-115442889D01*
X75199048Y-115272729D01*
X75226444Y-115135000D01*
X75292089Y-115135000D01*
X75472729Y-115099068D01*
X75642889Y-115028586D01*
X75796028Y-114926262D01*
X75926262Y-114796028D01*
X76028586Y-114642889D01*
X76099068Y-114472729D01*
X76135000Y-114292089D01*
X76135000Y-114235000D01*
X76192089Y-114235000D01*
X76372729Y-114199068D01*
X76542889Y-114128586D01*
X76696028Y-114026262D01*
X76826262Y-113896028D01*
X76928586Y-113742889D01*
X76999068Y-113572729D01*
X77035000Y-113392089D01*
X77035000Y-113335012D01*
X77092089Y-113335012D01*
X77272729Y-113299080D01*
X77442889Y-113228598D01*
X77596028Y-113126274D01*
X77726262Y-112996040D01*
X77828586Y-112842901D01*
X77899068Y-112672741D01*
X77935000Y-112492101D01*
X77935000Y-112307923D01*
X77899068Y-112127283D01*
X77828586Y-111957123D01*
X77726262Y-111803984D01*
X77596028Y-111673750D01*
X77442889Y-111571426D01*
X77272729Y-111500944D01*
X77092089Y-111465012D01*
X76907911Y-111465012D01*
X76727271Y-111500944D01*
X76557111Y-111571426D01*
X76403972Y-111673750D01*
X76273738Y-111803984D01*
X76171414Y-111957123D01*
X76100932Y-112127283D01*
X76065000Y-112307923D01*
X76065000Y-112365000D01*
X76007911Y-112365000D01*
X75827271Y-112400932D01*
X75657111Y-112471414D01*
X75503972Y-112573738D01*
X75373738Y-112703972D01*
X75271414Y-112857111D01*
X75200932Y-113027271D01*
X75165000Y-113207911D01*
X75165000Y-113265000D01*
X75107911Y-113265000D01*
X74927271Y-113300932D01*
X74757111Y-113371414D01*
X74603972Y-113473738D01*
X74473738Y-113603972D01*
X74371414Y-113757111D01*
X74300932Y-113927271D01*
X74273536Y-114065000D01*
X74207891Y-114065000D01*
X74027251Y-114100932D01*
X73857091Y-114171414D01*
X73703952Y-114273738D01*
X73573718Y-114403972D01*
X73471394Y-114557111D01*
X73400912Y-114727271D01*
X73364980Y-114907911D01*
X68516102Y-114907911D01*
X68507932Y-114866842D01*
X68395990Y-114596589D01*
X68233475Y-114353368D01*
X68026632Y-114146525D01*
X67852240Y-114030000D01*
X68026632Y-113913475D01*
X68233475Y-113706632D01*
X68395990Y-113463411D01*
X68507932Y-113193158D01*
X68565000Y-112906260D01*
X68565000Y-112613740D01*
X68507932Y-112326842D01*
X68395990Y-112056589D01*
X68233475Y-111813368D01*
X68026632Y-111606525D01*
X67852240Y-111490000D01*
X68026632Y-111373475D01*
X68233475Y-111166632D01*
X68395990Y-110923411D01*
X68507932Y-110653158D01*
X68565000Y-110366260D01*
X68565000Y-110073740D01*
X68507932Y-109786842D01*
X68395990Y-109516589D01*
X68233475Y-109273368D01*
X68026632Y-109066525D01*
X67852240Y-108950000D01*
X68026632Y-108833475D01*
X68233475Y-108626632D01*
X68395990Y-108383411D01*
X68507932Y-108113158D01*
X68565000Y-107826260D01*
X68565000Y-107533740D01*
X68520080Y-107307911D01*
X80065000Y-107307911D01*
X80065000Y-107492089D01*
X80100932Y-107672729D01*
X80171414Y-107842889D01*
X80273738Y-107996028D01*
X80403972Y-108126262D01*
X80557111Y-108228586D01*
X80727271Y-108299068D01*
X80907911Y-108335000D01*
X81092089Y-108335000D01*
X81272729Y-108299068D01*
X81442889Y-108228586D01*
X81596028Y-108126262D01*
X81714387Y-108007903D01*
X82165000Y-108007903D01*
X82165000Y-108192081D01*
X82200932Y-108372721D01*
X82271414Y-108542881D01*
X82373738Y-108696020D01*
X82503972Y-108826254D01*
X82657111Y-108928578D01*
X82827271Y-108999060D01*
X83007911Y-109034992D01*
X83179503Y-109034992D01*
X83165000Y-109107903D01*
X83165000Y-109292081D01*
X83200932Y-109472721D01*
X83271414Y-109642881D01*
X83373738Y-109796020D01*
X83503972Y-109926254D01*
X83657111Y-110028578D01*
X83827271Y-110099060D01*
X84007911Y-110134992D01*
X84192089Y-110134992D01*
X84372729Y-110099060D01*
X84542889Y-110028578D01*
X84696028Y-109926254D01*
X84826262Y-109796020D01*
X84849997Y-109760498D01*
X84873738Y-109796028D01*
X85003972Y-109926262D01*
X85157111Y-110028586D01*
X85327271Y-110099068D01*
X85507911Y-110135000D01*
X85692089Y-110135000D01*
X85872729Y-110099068D01*
X86042889Y-110028586D01*
X86196028Y-109926262D01*
X86326262Y-109796028D01*
X86428586Y-109642889D01*
X86499068Y-109472729D01*
X86535000Y-109292089D01*
X86535000Y-109107911D01*
X86535000Y-109107907D01*
X88064978Y-109107907D01*
X88064978Y-109292085D01*
X88100910Y-109472725D01*
X88171392Y-109642885D01*
X88273716Y-109796024D01*
X88403950Y-109926258D01*
X88557089Y-110028582D01*
X88727249Y-110099064D01*
X88907889Y-110134996D01*
X89092067Y-110134996D01*
X89272707Y-110099064D01*
X89442867Y-110028582D01*
X89596006Y-109926258D01*
X89726240Y-109796024D01*
X89823941Y-109649804D01*
X89835821Y-109678486D01*
X89938145Y-109831625D01*
X90068379Y-109961859D01*
X90221518Y-110064183D01*
X90391678Y-110134665D01*
X90572318Y-110170597D01*
X90756496Y-110170597D01*
X90937136Y-110134665D01*
X91107296Y-110064183D01*
X91260435Y-109961859D01*
X91390669Y-109831625D01*
X91492993Y-109678486D01*
X91563475Y-109508326D01*
X91599407Y-109327686D01*
X91599407Y-109143508D01*
X91574560Y-109018595D01*
X91672729Y-108999068D01*
X91842889Y-108928586D01*
X91996028Y-108826262D01*
X92126262Y-108696028D01*
X92228586Y-108542889D01*
X92243074Y-108507911D01*
X94039990Y-108507911D01*
X94039990Y-108692089D01*
X94075922Y-108872729D01*
X94146404Y-109042889D01*
X94248728Y-109196028D01*
X94378962Y-109326262D01*
X94532101Y-109428586D01*
X94702261Y-109499068D01*
X94882901Y-109535000D01*
X95067079Y-109535000D01*
X95247719Y-109499068D01*
X95417879Y-109428586D01*
X95571018Y-109326262D01*
X95701252Y-109196028D01*
X95803576Y-109042889D01*
X95874058Y-108872729D01*
X95909990Y-108692089D01*
X95909990Y-108507911D01*
X95907798Y-108496890D01*
X97758524Y-108496890D01*
X97803175Y-108644099D01*
X97928359Y-108906920D01*
X98102412Y-109140269D01*
X98318645Y-109335178D01*
X98568748Y-109484157D01*
X98843109Y-109581481D01*
X99073000Y-109460814D01*
X99073000Y-108267000D01*
X99327000Y-108267000D01*
X99327000Y-109460814D01*
X99556891Y-109581481D01*
X99831252Y-109484157D01*
X100081355Y-109335178D01*
X100297588Y-109140269D01*
X100471641Y-108906920D01*
X100596825Y-108644099D01*
X100641476Y-108496890D01*
X100520155Y-108267000D01*
X99327000Y-108267000D01*
X99073000Y-108267000D01*
X97879845Y-108267000D01*
X97758524Y-108496890D01*
X95907798Y-108496890D01*
X95874058Y-108327271D01*
X95803576Y-108157111D01*
X95701252Y-108003972D01*
X95571018Y-107873738D01*
X95417879Y-107771414D01*
X95247719Y-107700932D01*
X95067079Y-107665000D01*
X94882901Y-107665000D01*
X94702261Y-107700932D01*
X94532101Y-107771414D01*
X94378962Y-107873738D01*
X94248728Y-108003972D01*
X94146404Y-108157111D01*
X94075922Y-108327271D01*
X94039990Y-108507911D01*
X92243074Y-108507911D01*
X92299068Y-108372729D01*
X92335000Y-108192089D01*
X92335000Y-108007911D01*
X92299068Y-107827271D01*
X92228586Y-107657111D01*
X92126262Y-107503972D01*
X91996028Y-107373738D01*
X91842889Y-107271414D01*
X91672729Y-107200932D01*
X91492089Y-107165000D01*
X91307911Y-107165000D01*
X91127271Y-107200932D01*
X90957111Y-107271414D01*
X90803972Y-107373738D01*
X90673738Y-107503972D01*
X90600000Y-107614329D01*
X90526262Y-107503972D01*
X90396028Y-107373738D01*
X90242889Y-107271414D01*
X90072729Y-107200932D01*
X89892089Y-107165000D01*
X89707911Y-107165000D01*
X89527271Y-107200932D01*
X89357111Y-107271414D01*
X89203972Y-107373738D01*
X89073738Y-107503972D01*
X88971414Y-107657111D01*
X88900932Y-107827271D01*
X88865000Y-108007911D01*
X88865000Y-108192089D01*
X88880583Y-108270428D01*
X88727249Y-108300928D01*
X88557089Y-108371410D01*
X88403950Y-108473734D01*
X88273716Y-108603968D01*
X88171392Y-108757107D01*
X88100910Y-108927267D01*
X88064978Y-109107907D01*
X86535000Y-109107907D01*
X86512099Y-108992784D01*
X86527271Y-108999068D01*
X86707911Y-109035000D01*
X86892089Y-109035000D01*
X87072729Y-108999068D01*
X87242889Y-108928586D01*
X87396028Y-108826262D01*
X87526262Y-108696028D01*
X87628586Y-108542889D01*
X87699068Y-108372729D01*
X87735000Y-108192089D01*
X87735000Y-108007911D01*
X87699068Y-107827271D01*
X87628586Y-107657111D01*
X87526262Y-107503972D01*
X87396028Y-107373738D01*
X87242889Y-107271414D01*
X87072729Y-107200932D01*
X86892089Y-107165000D01*
X86707911Y-107165000D01*
X86527271Y-107200932D01*
X86357111Y-107271414D01*
X86203972Y-107373738D01*
X86073738Y-107503972D01*
X85971414Y-107657111D01*
X85900932Y-107827271D01*
X85865000Y-108007911D01*
X85865000Y-108192089D01*
X85887901Y-108307216D01*
X85872729Y-108300932D01*
X85815604Y-108289569D01*
X85834994Y-108192089D01*
X85834994Y-108007911D01*
X85799062Y-107827271D01*
X85728580Y-107657111D01*
X85626256Y-107503972D01*
X85496022Y-107373738D01*
X85342883Y-107271414D01*
X85172723Y-107200932D01*
X84992083Y-107165000D01*
X84807905Y-107165000D01*
X84627265Y-107200932D01*
X84457105Y-107271414D01*
X84303966Y-107373738D01*
X84173732Y-107503972D01*
X84071408Y-107657111D01*
X84000926Y-107827271D01*
X83999998Y-107831937D01*
X83999068Y-107827263D01*
X83928586Y-107657103D01*
X83826262Y-107503964D01*
X83696028Y-107373730D01*
X83542889Y-107271406D01*
X83372729Y-107200924D01*
X83192089Y-107164992D01*
X83007911Y-107164992D01*
X82827271Y-107200924D01*
X82657111Y-107271406D01*
X82503972Y-107373730D01*
X82373738Y-107503964D01*
X82271414Y-107657103D01*
X82200932Y-107827263D01*
X82165000Y-108007903D01*
X81714387Y-108007903D01*
X81726262Y-107996028D01*
X81828586Y-107842889D01*
X81899068Y-107672729D01*
X81935000Y-107492089D01*
X81935000Y-107307911D01*
X81899068Y-107127271D01*
X81828586Y-106957111D01*
X81726262Y-106803972D01*
X81596028Y-106673738D01*
X81442889Y-106571414D01*
X81272729Y-106500932D01*
X81092089Y-106465000D01*
X80907911Y-106465000D01*
X80727271Y-106500932D01*
X80557111Y-106571414D01*
X80403972Y-106673738D01*
X80273738Y-106803972D01*
X80171414Y-106957111D01*
X80100932Y-107127271D01*
X80065000Y-107307911D01*
X68520080Y-107307911D01*
X68507932Y-107246842D01*
X68395990Y-106976589D01*
X68233475Y-106733368D01*
X68026632Y-106526525D01*
X67852240Y-106410000D01*
X68026632Y-106293475D01*
X68212196Y-106107911D01*
X71965000Y-106107911D01*
X71965000Y-106292089D01*
X72000932Y-106472729D01*
X72071414Y-106642889D01*
X72173738Y-106796028D01*
X72303972Y-106926262D01*
X72457111Y-107028586D01*
X72627271Y-107099068D01*
X72807911Y-107135000D01*
X72992089Y-107135000D01*
X73172729Y-107099068D01*
X73342889Y-107028586D01*
X73496028Y-106926262D01*
X73626262Y-106796028D01*
X73728586Y-106642889D01*
X73799068Y-106472729D01*
X73835000Y-106292089D01*
X73835000Y-106107911D01*
X73799068Y-105927271D01*
X73728586Y-105757111D01*
X73626262Y-105603972D01*
X73496028Y-105473738D01*
X73342889Y-105371414D01*
X73172729Y-105300932D01*
X72992089Y-105265000D01*
X72807911Y-105265000D01*
X72627271Y-105300932D01*
X72457111Y-105371414D01*
X72303972Y-105473738D01*
X72173738Y-105603972D01*
X72071414Y-105757111D01*
X72000932Y-105927271D01*
X71965000Y-106107911D01*
X68212196Y-106107911D01*
X68233475Y-106086632D01*
X68395990Y-105843411D01*
X68507932Y-105573158D01*
X68565000Y-105286260D01*
X68565000Y-105007911D01*
X91064994Y-105007911D01*
X91064994Y-105192089D01*
X91100926Y-105372729D01*
X91171408Y-105542889D01*
X91273732Y-105696028D01*
X91403966Y-105826262D01*
X91557105Y-105928586D01*
X91727265Y-105999068D01*
X91907905Y-106035000D01*
X92092083Y-106035000D01*
X92272723Y-105999068D01*
X92442883Y-105928586D01*
X92596022Y-105826262D01*
X92726256Y-105696028D01*
X92828580Y-105542889D01*
X92899062Y-105372729D01*
X92934994Y-105192089D01*
X92934994Y-105007911D01*
X92899062Y-104827271D01*
X92867056Y-104750000D01*
X97711928Y-104750000D01*
X97711928Y-106450000D01*
X97724188Y-106574482D01*
X97760498Y-106694180D01*
X97819463Y-106804494D01*
X97898815Y-106901185D01*
X97995506Y-106980537D01*
X98105820Y-107039502D01*
X98186466Y-107063966D01*
X98102412Y-107139731D01*
X97928359Y-107373080D01*
X97803175Y-107635901D01*
X97758524Y-107783110D01*
X97879845Y-108013000D01*
X99073000Y-108013000D01*
X99073000Y-107993000D01*
X99327000Y-107993000D01*
X99327000Y-108013000D01*
X100520155Y-108013000D01*
X100641476Y-107783110D01*
X100596825Y-107635901D01*
X100471641Y-107373080D01*
X100297588Y-107139731D01*
X100213534Y-107063966D01*
X100294180Y-107039502D01*
X100404494Y-106980537D01*
X100501185Y-106901185D01*
X100580537Y-106804494D01*
X100639502Y-106694180D01*
X100675812Y-106574482D01*
X100688072Y-106450000D01*
X100688072Y-104750000D01*
X100675812Y-104625518D01*
X100639502Y-104505820D01*
X100580537Y-104395506D01*
X100501185Y-104298815D01*
X100404494Y-104219463D01*
X100294180Y-104160498D01*
X100174482Y-104124188D01*
X100050000Y-104111928D01*
X98350000Y-104111928D01*
X98225518Y-104124188D01*
X98105820Y-104160498D01*
X97995506Y-104219463D01*
X97898815Y-104298815D01*
X97819463Y-104395506D01*
X97760498Y-104505820D01*
X97724188Y-104625518D01*
X97711928Y-104750000D01*
X92867056Y-104750000D01*
X92828580Y-104657111D01*
X92726256Y-104503972D01*
X92596022Y-104373738D01*
X92442883Y-104271414D01*
X92272723Y-104200932D01*
X92092083Y-104165000D01*
X91907905Y-104165000D01*
X91727265Y-104200932D01*
X91557105Y-104271414D01*
X91403966Y-104373738D01*
X91273732Y-104503972D01*
X91171408Y-104657111D01*
X91100926Y-104827271D01*
X91064994Y-105007911D01*
X68565000Y-105007911D01*
X68565000Y-104993740D01*
X68507932Y-104706842D01*
X68395990Y-104436589D01*
X68233475Y-104193368D01*
X68026632Y-103986525D01*
X67852240Y-103870000D01*
X68026632Y-103753475D01*
X68233475Y-103546632D01*
X68395990Y-103303411D01*
X68507932Y-103033158D01*
X68532845Y-102907911D01*
X73065000Y-102907911D01*
X73065000Y-103092089D01*
X73100932Y-103272729D01*
X73171414Y-103442889D01*
X73273738Y-103596028D01*
X73403972Y-103726262D01*
X73557111Y-103828586D01*
X73727271Y-103899068D01*
X73907911Y-103935000D01*
X74092089Y-103935000D01*
X74272729Y-103899068D01*
X74442889Y-103828586D01*
X74596028Y-103726262D01*
X74726262Y-103596028D01*
X74828586Y-103442889D01*
X74899068Y-103272729D01*
X74927881Y-103127878D01*
X75072729Y-103099066D01*
X75242889Y-103028584D01*
X75396028Y-102926260D01*
X75526262Y-102796026D01*
X75628586Y-102642887D01*
X75699068Y-102472727D01*
X75735000Y-102292087D01*
X75735000Y-102232921D01*
X80764990Y-102232921D01*
X80764990Y-102417099D01*
X80800922Y-102597739D01*
X80871404Y-102767899D01*
X80973728Y-102921038D01*
X81103962Y-103051272D01*
X81257101Y-103153596D01*
X81427261Y-103224078D01*
X81607901Y-103260010D01*
X81792079Y-103260010D01*
X81972719Y-103224078D01*
X82142879Y-103153596D01*
X82296018Y-103051272D01*
X82426252Y-102921038D01*
X82528576Y-102767899D01*
X82599058Y-102597739D01*
X82634990Y-102417099D01*
X82634990Y-102232921D01*
X82599058Y-102052281D01*
X82598056Y-102049860D01*
X88206949Y-102049860D01*
X88206949Y-102234038D01*
X88242881Y-102414678D01*
X88313363Y-102584838D01*
X88415687Y-102737977D01*
X88545921Y-102868211D01*
X88699060Y-102970535D01*
X88869220Y-103041017D01*
X89049860Y-103076949D01*
X89234038Y-103076949D01*
X89414678Y-103041017D01*
X89584838Y-102970535D01*
X89737977Y-102868211D01*
X89804449Y-102801739D01*
X89928982Y-102926272D01*
X90082121Y-103028596D01*
X90252281Y-103099078D01*
X90432921Y-103135010D01*
X90617099Y-103135010D01*
X90797739Y-103099078D01*
X90967899Y-103028596D01*
X91121038Y-102926272D01*
X91251272Y-102796038D01*
X91310156Y-102707911D01*
X91965002Y-102707911D01*
X91965002Y-102892089D01*
X92000934Y-103072729D01*
X92071416Y-103242889D01*
X92173740Y-103396028D01*
X92303974Y-103526262D01*
X92457113Y-103628586D01*
X92627273Y-103699068D01*
X92807913Y-103735000D01*
X92992091Y-103735000D01*
X93172731Y-103699068D01*
X93342891Y-103628586D01*
X93496030Y-103526262D01*
X93626264Y-103396028D01*
X93728588Y-103242889D01*
X93799070Y-103072729D01*
X93835002Y-102892089D01*
X93835002Y-102707911D01*
X93799070Y-102527271D01*
X93728588Y-102357111D01*
X93626264Y-102203972D01*
X93496030Y-102073738D01*
X93342891Y-101971414D01*
X93172731Y-101900932D01*
X92992091Y-101865000D01*
X92807913Y-101865000D01*
X92627273Y-101900932D01*
X92457113Y-101971414D01*
X92303974Y-102073738D01*
X92173740Y-102203972D01*
X92071416Y-102357111D01*
X92000934Y-102527271D01*
X91965002Y-102707911D01*
X91310156Y-102707911D01*
X91353596Y-102642899D01*
X91424078Y-102472739D01*
X91460010Y-102292099D01*
X91460010Y-102107921D01*
X91424078Y-101927281D01*
X91353596Y-101757121D01*
X91251272Y-101603982D01*
X91121038Y-101473748D01*
X90967899Y-101371424D01*
X90874944Y-101332921D01*
X94065000Y-101332921D01*
X94065000Y-101517099D01*
X94100932Y-101697739D01*
X94171414Y-101867899D01*
X94273738Y-102021038D01*
X94403972Y-102151272D01*
X94557111Y-102253596D01*
X94727271Y-102324078D01*
X94907911Y-102360010D01*
X95092089Y-102360010D01*
X95272729Y-102324078D01*
X95442889Y-102253596D01*
X95596028Y-102151272D01*
X95726262Y-102021038D01*
X95828586Y-101867899D01*
X95899068Y-101697739D01*
X95935000Y-101517099D01*
X95935000Y-101332921D01*
X95899068Y-101152281D01*
X95828586Y-100982121D01*
X95726262Y-100828982D01*
X95596028Y-100698748D01*
X95442889Y-100596424D01*
X95272729Y-100525942D01*
X95092089Y-100490010D01*
X94907911Y-100490010D01*
X94727271Y-100525942D01*
X94557111Y-100596424D01*
X94403972Y-100698748D01*
X94273738Y-100828982D01*
X94171414Y-100982121D01*
X94100932Y-101152281D01*
X94065000Y-101332921D01*
X90874944Y-101332921D01*
X90797739Y-101300942D01*
X90750347Y-101291515D01*
X90728509Y-101181728D01*
X90658027Y-101011568D01*
X90555703Y-100858429D01*
X90425469Y-100728195D01*
X90272330Y-100625871D01*
X90102170Y-100555389D01*
X89921530Y-100519457D01*
X89737352Y-100519457D01*
X89556712Y-100555389D01*
X89386552Y-100625871D01*
X89233413Y-100728195D01*
X89103179Y-100858429D01*
X89000855Y-101011568D01*
X88930373Y-101181728D01*
X88920227Y-101232735D01*
X88869220Y-101242881D01*
X88699060Y-101313363D01*
X88545921Y-101415687D01*
X88415687Y-101545921D01*
X88313363Y-101699060D01*
X88242881Y-101869220D01*
X88206949Y-102049860D01*
X82598056Y-102049860D01*
X82528576Y-101882121D01*
X82426252Y-101728982D01*
X82296018Y-101598748D01*
X82142879Y-101496424D01*
X81972719Y-101425942D01*
X81792079Y-101390010D01*
X81607901Y-101390010D01*
X81427261Y-101425942D01*
X81257101Y-101496424D01*
X81103962Y-101598748D01*
X80973728Y-101728982D01*
X80871404Y-101882121D01*
X80800922Y-102052281D01*
X80764990Y-102232921D01*
X75735000Y-102232921D01*
X75735000Y-102107909D01*
X75699068Y-101927269D01*
X75628586Y-101757109D01*
X75526262Y-101603970D01*
X75396028Y-101473736D01*
X75242889Y-101371412D01*
X75072729Y-101300930D01*
X74892089Y-101264998D01*
X74707911Y-101264998D01*
X74527271Y-101300930D01*
X74357111Y-101371412D01*
X74203972Y-101473736D01*
X74073738Y-101603970D01*
X73971414Y-101757109D01*
X73900932Y-101927269D01*
X73872119Y-102072120D01*
X73727271Y-102100932D01*
X73557111Y-102171414D01*
X73403972Y-102273738D01*
X73273738Y-102403972D01*
X73171414Y-102557111D01*
X73100932Y-102727271D01*
X73065000Y-102907911D01*
X68532845Y-102907911D01*
X68565000Y-102746260D01*
X68565000Y-102453740D01*
X68507932Y-102166842D01*
X68395990Y-101896589D01*
X68233475Y-101653368D01*
X68026632Y-101446525D01*
X67844466Y-101324805D01*
X67961355Y-101255178D01*
X68013793Y-101207911D01*
X68765000Y-101207911D01*
X68765000Y-101392089D01*
X68800932Y-101572729D01*
X68871414Y-101742889D01*
X68973738Y-101896028D01*
X69103972Y-102026262D01*
X69257111Y-102128586D01*
X69427271Y-102199068D01*
X69607911Y-102235000D01*
X69792089Y-102235000D01*
X69972729Y-102199068D01*
X70142889Y-102128586D01*
X70296028Y-102026262D01*
X70426262Y-101896028D01*
X70528586Y-101742889D01*
X70599068Y-101572729D01*
X70635000Y-101392089D01*
X70635000Y-101207911D01*
X70599068Y-101027271D01*
X70528586Y-100857111D01*
X70426262Y-100703972D01*
X70296028Y-100573738D01*
X70142889Y-100471414D01*
X69972729Y-100400932D01*
X69792089Y-100365000D01*
X69607911Y-100365000D01*
X69427271Y-100400932D01*
X69257111Y-100471414D01*
X69103972Y-100573738D01*
X68973738Y-100703972D01*
X68871414Y-100857111D01*
X68800932Y-101027271D01*
X68765000Y-101207911D01*
X68013793Y-101207911D01*
X68177588Y-101060269D01*
X68351641Y-100826920D01*
X68476825Y-100564099D01*
X68521476Y-100416890D01*
X68400155Y-100187000D01*
X67207000Y-100187000D01*
X67207000Y-100207000D01*
X66953000Y-100207000D01*
X66953000Y-100187000D01*
X66933000Y-100187000D01*
X66933000Y-99933000D01*
X66953000Y-99933000D01*
X66953000Y-99913000D01*
X67207000Y-99913000D01*
X67207000Y-99933000D01*
X68400155Y-99933000D01*
X68466168Y-99807911D01*
X70364990Y-99807911D01*
X70364990Y-99992089D01*
X70400922Y-100172729D01*
X70471404Y-100342889D01*
X70573728Y-100496028D01*
X70703962Y-100626262D01*
X70857101Y-100728586D01*
X71027261Y-100799068D01*
X71207901Y-100835000D01*
X71392079Y-100835000D01*
X71572719Y-100799068D01*
X71742879Y-100728586D01*
X71896018Y-100626262D01*
X72026252Y-100496028D01*
X72128576Y-100342889D01*
X72199058Y-100172729D01*
X72234990Y-99992089D01*
X72234990Y-99807911D01*
X72199058Y-99627271D01*
X72128576Y-99457111D01*
X72026252Y-99303972D01*
X71896018Y-99173738D01*
X71742879Y-99071414D01*
X71572719Y-99000932D01*
X71392079Y-98965000D01*
X71207901Y-98965000D01*
X71027261Y-99000932D01*
X70857101Y-99071414D01*
X70703962Y-99173738D01*
X70573728Y-99303972D01*
X70471404Y-99457111D01*
X70400922Y-99627271D01*
X70364990Y-99807911D01*
X68466168Y-99807911D01*
X68521476Y-99703110D01*
X68476825Y-99555901D01*
X68351641Y-99293080D01*
X68177588Y-99059731D01*
X67961355Y-98864822D01*
X67865807Y-98807907D01*
X77965000Y-98807907D01*
X77965000Y-98992085D01*
X78000932Y-99172725D01*
X78053653Y-99300005D01*
X78000932Y-99427286D01*
X77965000Y-99607926D01*
X77965000Y-99792104D01*
X78000932Y-99972744D01*
X78053652Y-100100022D01*
X78000932Y-100227299D01*
X77965000Y-100407939D01*
X77965000Y-100592117D01*
X78000932Y-100772757D01*
X78071414Y-100942917D01*
X78173738Y-101096056D01*
X78303972Y-101226290D01*
X78457111Y-101328614D01*
X78627271Y-101399096D01*
X78807911Y-101435028D01*
X78992089Y-101435028D01*
X79172729Y-101399096D01*
X79342889Y-101328614D01*
X79496028Y-101226290D01*
X79626262Y-101096056D01*
X79728586Y-100942917D01*
X79799068Y-100772757D01*
X79835000Y-100592117D01*
X79835000Y-100407939D01*
X79799068Y-100227299D01*
X79746348Y-100100022D01*
X79799068Y-99972744D01*
X79835000Y-99792104D01*
X79835000Y-99607926D01*
X79799068Y-99427286D01*
X79746347Y-99300005D01*
X79799068Y-99172725D01*
X79835000Y-98992085D01*
X79835000Y-98807907D01*
X79799068Y-98627267D01*
X79728586Y-98457107D01*
X79626262Y-98303968D01*
X79496028Y-98173734D01*
X79342889Y-98071410D01*
X79172729Y-98000928D01*
X78992089Y-97964996D01*
X78807911Y-97964996D01*
X78627271Y-98000928D01*
X78457111Y-98071410D01*
X78303972Y-98173734D01*
X78173738Y-98303968D01*
X78071414Y-98457107D01*
X78000932Y-98627267D01*
X77965000Y-98807907D01*
X67865807Y-98807907D01*
X67844466Y-98795195D01*
X68026632Y-98673475D01*
X68233475Y-98466632D01*
X68395990Y-98223411D01*
X68507932Y-97953158D01*
X68565000Y-97666260D01*
X68565000Y-97373740D01*
X68551906Y-97307911D01*
X72765000Y-97307911D01*
X72765000Y-97492089D01*
X72800932Y-97672729D01*
X72871414Y-97842889D01*
X72973738Y-97996028D01*
X73103972Y-98126262D01*
X73257111Y-98228586D01*
X73427271Y-98299068D01*
X73607911Y-98335000D01*
X73792089Y-98335000D01*
X73972729Y-98299068D01*
X74142889Y-98228586D01*
X74296028Y-98126262D01*
X74426262Y-97996028D01*
X74528586Y-97842889D01*
X74599068Y-97672729D01*
X74635000Y-97492089D01*
X74635000Y-97307911D01*
X74599068Y-97127271D01*
X74528586Y-96957111D01*
X74426262Y-96803972D01*
X74296028Y-96673738D01*
X74142889Y-96571414D01*
X73972729Y-96500932D01*
X73792089Y-96465000D01*
X73607911Y-96465000D01*
X73427271Y-96500932D01*
X73257111Y-96571414D01*
X73103972Y-96673738D01*
X72973738Y-96803972D01*
X72871414Y-96957111D01*
X72800932Y-97127271D01*
X72765000Y-97307911D01*
X68551906Y-97307911D01*
X68507932Y-97086842D01*
X68395990Y-96816589D01*
X68233475Y-96573368D01*
X68026632Y-96366525D01*
X67783411Y-96204010D01*
X67513158Y-96092068D01*
X67226260Y-96035000D01*
X66933740Y-96035000D01*
X66646842Y-96092068D01*
X66376589Y-96204010D01*
X66133368Y-96366525D01*
X66001513Y-96498380D01*
X65979502Y-96425820D01*
X65920537Y-96315506D01*
X65841185Y-96218815D01*
X65744494Y-96139463D01*
X65634180Y-96080498D01*
X65514482Y-96044188D01*
X65390000Y-96031928D01*
X63690000Y-96031928D01*
X63565518Y-96044188D01*
X63445820Y-96080498D01*
X63335506Y-96139463D01*
X63238815Y-96218815D01*
X63159463Y-96315506D01*
X63100498Y-96425820D01*
X63064188Y-96545518D01*
X63051928Y-96670000D01*
X61160000Y-96670000D01*
X61160000Y-94807911D01*
X72065000Y-94807911D01*
X72065000Y-94992089D01*
X72100932Y-95172729D01*
X72171414Y-95342889D01*
X72273738Y-95496028D01*
X72403972Y-95626262D01*
X72557111Y-95728586D01*
X72727271Y-95799068D01*
X72907911Y-95835000D01*
X73092089Y-95835000D01*
X73272729Y-95799068D01*
X73442889Y-95728586D01*
X73596028Y-95626262D01*
X73726262Y-95496028D01*
X73750000Y-95460502D01*
X73773738Y-95496028D01*
X73903972Y-95626262D01*
X74057111Y-95728586D01*
X74227271Y-95799068D01*
X74407911Y-95835000D01*
X74592089Y-95835000D01*
X74772729Y-95799068D01*
X74841480Y-95770591D01*
X74871423Y-95842880D01*
X74909583Y-95899990D01*
X74871420Y-95957105D01*
X74800938Y-96127265D01*
X74765006Y-96307905D01*
X74765006Y-96492083D01*
X74800938Y-96672723D01*
X74871420Y-96842883D01*
X74876170Y-96849993D01*
X74871414Y-96857111D01*
X74800932Y-97027271D01*
X74765000Y-97207911D01*
X74765000Y-97392089D01*
X74800932Y-97572729D01*
X74871414Y-97742889D01*
X74973738Y-97896028D01*
X75103972Y-98026262D01*
X75257111Y-98128586D01*
X75427271Y-98199068D01*
X75607911Y-98235000D01*
X75792089Y-98235000D01*
X75972729Y-98199068D01*
X76142889Y-98128586D01*
X76296028Y-98026262D01*
X76426262Y-97896028D01*
X76528586Y-97742889D01*
X76599068Y-97572729D01*
X76635000Y-97392089D01*
X76635000Y-97207911D01*
X76599068Y-97027271D01*
X76549628Y-96907911D01*
X77865000Y-96907911D01*
X77865000Y-97092089D01*
X77900932Y-97272729D01*
X77971414Y-97442889D01*
X78073738Y-97596028D01*
X78203972Y-97726262D01*
X78357111Y-97828586D01*
X78527271Y-97899068D01*
X78707911Y-97935000D01*
X78892089Y-97935000D01*
X79072729Y-97899068D01*
X79242889Y-97828586D01*
X79396028Y-97726262D01*
X79526262Y-97596028D01*
X79628586Y-97442889D01*
X79699068Y-97272729D01*
X79735000Y-97092089D01*
X79735000Y-96907911D01*
X79699068Y-96727271D01*
X79628586Y-96557111D01*
X79596996Y-96509833D01*
X79635763Y-96451814D01*
X79706245Y-96281654D01*
X79742177Y-96101014D01*
X79742177Y-95916836D01*
X79706245Y-95736196D01*
X79635763Y-95566036D01*
X79533439Y-95412897D01*
X79403205Y-95282663D01*
X79250066Y-95180339D01*
X79079906Y-95109857D01*
X78899266Y-95073925D01*
X78715088Y-95073925D01*
X78534448Y-95109857D01*
X78364288Y-95180339D01*
X78211149Y-95282663D01*
X78080915Y-95412897D01*
X77978591Y-95566036D01*
X77908109Y-95736196D01*
X77872177Y-95916836D01*
X77872177Y-96101014D01*
X77908109Y-96281654D01*
X77978591Y-96451814D01*
X78010181Y-96499092D01*
X77971414Y-96557111D01*
X77900932Y-96727271D01*
X77865000Y-96907911D01*
X76549628Y-96907911D01*
X76528586Y-96857111D01*
X76523836Y-96850001D01*
X76528592Y-96842883D01*
X76599074Y-96672723D01*
X76635006Y-96492083D01*
X76635006Y-96307905D01*
X76599074Y-96127265D01*
X76528592Y-95957105D01*
X76490432Y-95899995D01*
X76528595Y-95842880D01*
X76599077Y-95672720D01*
X76635009Y-95492080D01*
X76635009Y-95307902D01*
X76599077Y-95127262D01*
X76528595Y-94957102D01*
X76426271Y-94803963D01*
X76296037Y-94673729D01*
X76142898Y-94571405D01*
X75972738Y-94500923D01*
X75792098Y-94464991D01*
X75607920Y-94464991D01*
X75427280Y-94500923D01*
X75358529Y-94529400D01*
X75328586Y-94457111D01*
X75226262Y-94303972D01*
X75096028Y-94173738D01*
X74942889Y-94071414D01*
X74772729Y-94000932D01*
X74592089Y-93965000D01*
X74407911Y-93965000D01*
X74227271Y-94000932D01*
X74057111Y-94071414D01*
X73903972Y-94173738D01*
X73773738Y-94303972D01*
X73750000Y-94339498D01*
X73726262Y-94303972D01*
X73596028Y-94173738D01*
X73442889Y-94071414D01*
X73272729Y-94000932D01*
X73092089Y-93965000D01*
X72907911Y-93965000D01*
X72727271Y-94000932D01*
X72557111Y-94071414D01*
X72403972Y-94173738D01*
X72273738Y-94303972D01*
X72171414Y-94457111D01*
X72100932Y-94627271D01*
X72065000Y-94807911D01*
X61160000Y-94807911D01*
X61160000Y-92098061D01*
X63565000Y-92098061D01*
X63565000Y-92301939D01*
X63604774Y-92501898D01*
X63682795Y-92690256D01*
X63796063Y-92859774D01*
X63940226Y-93003937D01*
X64109744Y-93117205D01*
X64298102Y-93195226D01*
X64498061Y-93235000D01*
X64701939Y-93235000D01*
X64901898Y-93195226D01*
X65090256Y-93117205D01*
X65259774Y-93003937D01*
X65403937Y-92859774D01*
X65517205Y-92690256D01*
X65595226Y-92501898D01*
X65635000Y-92301939D01*
X65635000Y-92098061D01*
X65595226Y-91898102D01*
X65517205Y-91709744D01*
X65403937Y-91540226D01*
X65259774Y-91396063D01*
X65090256Y-91282795D01*
X64901898Y-91204774D01*
X64701939Y-91165000D01*
X64498061Y-91165000D01*
X64298102Y-91204774D01*
X64109744Y-91282795D01*
X63940226Y-91396063D01*
X63796063Y-91540226D01*
X63682795Y-91709744D01*
X63604774Y-91898102D01*
X63565000Y-92098061D01*
X61160000Y-92098061D01*
X61160000Y-89707911D01*
X70165000Y-89707911D01*
X70165000Y-89892089D01*
X70200932Y-90072729D01*
X70271414Y-90242889D01*
X70373738Y-90396028D01*
X70503972Y-90526262D01*
X70657111Y-90628586D01*
X70827271Y-90699068D01*
X71007911Y-90735000D01*
X71192089Y-90735000D01*
X71372729Y-90699068D01*
X71542889Y-90628586D01*
X71696028Y-90526262D01*
X71826262Y-90396028D01*
X71928586Y-90242889D01*
X71999068Y-90072729D01*
X72035000Y-89892089D01*
X72035000Y-89707911D01*
X71999068Y-89527271D01*
X71928586Y-89357111D01*
X71826262Y-89203972D01*
X71730201Y-89107911D01*
X75165000Y-89107911D01*
X75165000Y-89292089D01*
X75200932Y-89472729D01*
X75271414Y-89642889D01*
X75373738Y-89796028D01*
X75503972Y-89926262D01*
X75614329Y-90000000D01*
X75503972Y-90073738D01*
X75373738Y-90203972D01*
X75271414Y-90357111D01*
X75200932Y-90527271D01*
X75165000Y-90707911D01*
X75165000Y-90892089D01*
X75200932Y-91072729D01*
X75271414Y-91242889D01*
X75373738Y-91396028D01*
X75477710Y-91500000D01*
X75373738Y-91603972D01*
X75271414Y-91757111D01*
X75200932Y-91927271D01*
X75165000Y-92107911D01*
X75165000Y-92292089D01*
X75200932Y-92472729D01*
X75271414Y-92642889D01*
X75373738Y-92796028D01*
X75503972Y-92926262D01*
X75657111Y-93028586D01*
X75827271Y-93099068D01*
X76007911Y-93135000D01*
X76192089Y-93135000D01*
X76372729Y-93099068D01*
X76542889Y-93028586D01*
X76696028Y-92926262D01*
X76739379Y-92882911D01*
X81337520Y-92882911D01*
X81337520Y-93067089D01*
X81373452Y-93247729D01*
X81443934Y-93417889D01*
X81546258Y-93571028D01*
X81676492Y-93701262D01*
X81829631Y-93803586D01*
X81999791Y-93874068D01*
X82012207Y-93876538D01*
X82042890Y-94030789D01*
X82113372Y-94200949D01*
X82215696Y-94354088D01*
X82345930Y-94484322D01*
X82499069Y-94586646D01*
X82669229Y-94657128D01*
X82730661Y-94669348D01*
X82742881Y-94730780D01*
X82813363Y-94900940D01*
X82915687Y-95054079D01*
X82969656Y-95108048D01*
X82873732Y-95203972D01*
X82771408Y-95357111D01*
X82700926Y-95527271D01*
X82664994Y-95707911D01*
X82664994Y-95892089D01*
X82700926Y-96072729D01*
X82771408Y-96242889D01*
X82873732Y-96396028D01*
X83003966Y-96526262D01*
X83157105Y-96628586D01*
X83160304Y-96629911D01*
X83160304Y-96696293D01*
X83196236Y-96876933D01*
X83266718Y-97047093D01*
X83369042Y-97200232D01*
X83499276Y-97330466D01*
X83652415Y-97432790D01*
X83822575Y-97503272D01*
X84003215Y-97539204D01*
X84187393Y-97539204D01*
X84368033Y-97503272D01*
X84538193Y-97432790D01*
X84691332Y-97330466D01*
X84821566Y-97200232D01*
X84821811Y-97199864D01*
X93856945Y-97199864D01*
X93856945Y-97384042D01*
X93892877Y-97564682D01*
X93963359Y-97734842D01*
X94065683Y-97887981D01*
X94195917Y-98018215D01*
X94349056Y-98120539D01*
X94519216Y-98191021D01*
X94699856Y-98226953D01*
X94884034Y-98226953D01*
X95064674Y-98191021D01*
X95234834Y-98120539D01*
X95387973Y-98018215D01*
X95518207Y-97887981D01*
X95620531Y-97734842D01*
X95691013Y-97564682D01*
X95726945Y-97384042D01*
X95726945Y-97199864D01*
X95691013Y-97019224D01*
X95620531Y-96849064D01*
X95518207Y-96695925D01*
X95387973Y-96565691D01*
X95234834Y-96463367D01*
X95064674Y-96392885D01*
X94884034Y-96356953D01*
X94699856Y-96356953D01*
X94519216Y-96392885D01*
X94349056Y-96463367D01*
X94195917Y-96565691D01*
X94065683Y-96695925D01*
X93963359Y-96849064D01*
X93892877Y-97019224D01*
X93856945Y-97199864D01*
X84821811Y-97199864D01*
X84923890Y-97047093D01*
X84994372Y-96876933D01*
X85022605Y-96735000D01*
X85192089Y-96735000D01*
X85372729Y-96699068D01*
X85542889Y-96628586D01*
X85696028Y-96526262D01*
X85826262Y-96396028D01*
X85928586Y-96242889D01*
X85999068Y-96072729D01*
X86035000Y-95892089D01*
X86035000Y-95707911D01*
X85999068Y-95527271D01*
X85928586Y-95357111D01*
X85826262Y-95203972D01*
X85696028Y-95073738D01*
X85542889Y-94971414D01*
X85372729Y-94900932D01*
X85207172Y-94868000D01*
X85199070Y-94827271D01*
X85128588Y-94657111D01*
X85026264Y-94503972D01*
X84896030Y-94373738D01*
X84742891Y-94271414D01*
X84589580Y-94207911D01*
X86865000Y-94207911D01*
X86865000Y-94392089D01*
X86900932Y-94572729D01*
X86971414Y-94742889D01*
X87073738Y-94896028D01*
X87203972Y-95026262D01*
X87357111Y-95128586D01*
X87365000Y-95131854D01*
X87365000Y-95192089D01*
X87400932Y-95372729D01*
X87471414Y-95542889D01*
X87573738Y-95696028D01*
X87703972Y-95826262D01*
X87857111Y-95928586D01*
X88027271Y-95999068D01*
X88207911Y-96035000D01*
X88392089Y-96035000D01*
X88572729Y-95999068D01*
X88742889Y-95928586D01*
X88896028Y-95826262D01*
X89026262Y-95696028D01*
X89128586Y-95542889D01*
X89199068Y-95372729D01*
X89235000Y-95192089D01*
X89235000Y-95007911D01*
X89199068Y-94827271D01*
X89128586Y-94657111D01*
X89026262Y-94503972D01*
X88896028Y-94373738D01*
X88742889Y-94271414D01*
X88735000Y-94268146D01*
X88735000Y-94207911D01*
X88699068Y-94027271D01*
X88628586Y-93857111D01*
X88526262Y-93703972D01*
X88396028Y-93573738D01*
X88322877Y-93524860D01*
X91381949Y-93524860D01*
X91381949Y-93709038D01*
X91417881Y-93889678D01*
X91488363Y-94059838D01*
X91590687Y-94212977D01*
X91720921Y-94343211D01*
X91874060Y-94445535D01*
X92044220Y-94516017D01*
X92224860Y-94551949D01*
X92409038Y-94551949D01*
X92589678Y-94516017D01*
X92759838Y-94445535D01*
X92912977Y-94343211D01*
X93043211Y-94212977D01*
X93145535Y-94059838D01*
X93208464Y-93907911D01*
X96190010Y-93907911D01*
X96190010Y-94092089D01*
X96225942Y-94272729D01*
X96296424Y-94442889D01*
X96398748Y-94596028D01*
X96528982Y-94726262D01*
X96682121Y-94828586D01*
X96852281Y-94899068D01*
X97032921Y-94935000D01*
X97217099Y-94935000D01*
X97397739Y-94899068D01*
X97567899Y-94828586D01*
X97721038Y-94726262D01*
X97851272Y-94596028D01*
X97953596Y-94442889D01*
X98024078Y-94272729D01*
X98060010Y-94092089D01*
X98060010Y-93907911D01*
X98024078Y-93727271D01*
X97953596Y-93557111D01*
X97851272Y-93403972D01*
X97721038Y-93273738D01*
X97567899Y-93171414D01*
X97397739Y-93100932D01*
X97217099Y-93065000D01*
X97032921Y-93065000D01*
X96852281Y-93100932D01*
X96682121Y-93171414D01*
X96528982Y-93273738D01*
X96398748Y-93403972D01*
X96296424Y-93557111D01*
X96225942Y-93727271D01*
X96190010Y-93907911D01*
X93208464Y-93907911D01*
X93216017Y-93889678D01*
X93251949Y-93709038D01*
X93251949Y-93524860D01*
X93216017Y-93344220D01*
X93145535Y-93174060D01*
X93043211Y-93020921D01*
X92912977Y-92890687D01*
X92759838Y-92788363D01*
X92589678Y-92717881D01*
X92409038Y-92681949D01*
X92224860Y-92681949D01*
X92044220Y-92717881D01*
X91874060Y-92788363D01*
X91720921Y-92890687D01*
X91590687Y-93020921D01*
X91488363Y-93174060D01*
X91417881Y-93344220D01*
X91381949Y-93524860D01*
X88322877Y-93524860D01*
X88242889Y-93471414D01*
X88072729Y-93400932D01*
X87892089Y-93365000D01*
X87707911Y-93365000D01*
X87527271Y-93400932D01*
X87357111Y-93471414D01*
X87203972Y-93573738D01*
X87073738Y-93703972D01*
X86971414Y-93857111D01*
X86900932Y-94027271D01*
X86865000Y-94207911D01*
X84589580Y-94207911D01*
X84572731Y-94200932D01*
X84542943Y-94195007D01*
X84541017Y-94185322D01*
X84470535Y-94015162D01*
X84368211Y-93862023D01*
X84237977Y-93731789D01*
X84084838Y-93629465D01*
X83914678Y-93558983D01*
X83853246Y-93546763D01*
X83841026Y-93485331D01*
X83770544Y-93315171D01*
X83668220Y-93162032D01*
X83537986Y-93031798D01*
X83384847Y-92929474D01*
X83214687Y-92858992D01*
X83202271Y-92856522D01*
X83171588Y-92702271D01*
X83101106Y-92532111D01*
X82998782Y-92378972D01*
X82868548Y-92248738D01*
X82715409Y-92146414D01*
X82545249Y-92075932D01*
X82364609Y-92040000D01*
X82180431Y-92040000D01*
X81999791Y-92075932D01*
X81829631Y-92146414D01*
X81676492Y-92248738D01*
X81546258Y-92378972D01*
X81443934Y-92532111D01*
X81373452Y-92702271D01*
X81337520Y-92882911D01*
X76739379Y-92882911D01*
X76826262Y-92796028D01*
X76928586Y-92642889D01*
X76999068Y-92472729D01*
X77035000Y-92292089D01*
X77035000Y-92107911D01*
X76999068Y-91927271D01*
X76928586Y-91757111D01*
X76826262Y-91603972D01*
X76722290Y-91500000D01*
X76826262Y-91396028D01*
X76928586Y-91242889D01*
X76999068Y-91072729D01*
X77035000Y-90892089D01*
X77035000Y-90707911D01*
X76999068Y-90527271D01*
X76928586Y-90357111D01*
X76826262Y-90203972D01*
X76696028Y-90073738D01*
X76585671Y-90000000D01*
X76696028Y-89926262D01*
X76826262Y-89796028D01*
X76928586Y-89642889D01*
X76999068Y-89472729D01*
X77035000Y-89292089D01*
X77035000Y-89107911D01*
X78465000Y-89107911D01*
X78465000Y-89292089D01*
X78500932Y-89472729D01*
X78571414Y-89642889D01*
X78673738Y-89796028D01*
X78803972Y-89926262D01*
X78957111Y-90028586D01*
X79127271Y-90099068D01*
X79307911Y-90135000D01*
X79492089Y-90135000D01*
X79672729Y-90099068D01*
X79842889Y-90028586D01*
X79996028Y-89926262D01*
X80126262Y-89796028D01*
X80228586Y-89642889D01*
X80299068Y-89472729D01*
X80335000Y-89292089D01*
X80335000Y-89107911D01*
X80299068Y-88927271D01*
X80228586Y-88757111D01*
X80126262Y-88603972D01*
X79996028Y-88473738D01*
X79842889Y-88371414D01*
X79672729Y-88300932D01*
X79492089Y-88265000D01*
X79307911Y-88265000D01*
X79127271Y-88300932D01*
X78957111Y-88371414D01*
X78803972Y-88473738D01*
X78673738Y-88603972D01*
X78571414Y-88757111D01*
X78500932Y-88927271D01*
X78465000Y-89107911D01*
X77035000Y-89107911D01*
X76999068Y-88927271D01*
X76928586Y-88757111D01*
X76826262Y-88603972D01*
X76696028Y-88473738D01*
X76542889Y-88371414D01*
X76372729Y-88300932D01*
X76192089Y-88265000D01*
X76007911Y-88265000D01*
X75827271Y-88300932D01*
X75657111Y-88371414D01*
X75503972Y-88473738D01*
X75373738Y-88603972D01*
X75271414Y-88757111D01*
X75200932Y-88927271D01*
X75165000Y-89107911D01*
X71730201Y-89107911D01*
X71696028Y-89073738D01*
X71542889Y-88971414D01*
X71372729Y-88900932D01*
X71192089Y-88865000D01*
X71007911Y-88865000D01*
X70827271Y-88900932D01*
X70657111Y-88971414D01*
X70503972Y-89073738D01*
X70373738Y-89203972D01*
X70271414Y-89357111D01*
X70200932Y-89527271D01*
X70165000Y-89707911D01*
X61160000Y-89707911D01*
X61160000Y-86907911D01*
X68165000Y-86907911D01*
X68165000Y-87092089D01*
X68200932Y-87272729D01*
X68271414Y-87442889D01*
X68373738Y-87596028D01*
X68503972Y-87726262D01*
X68657111Y-87828586D01*
X68827271Y-87899068D01*
X69007911Y-87935000D01*
X69192089Y-87935000D01*
X69372729Y-87899068D01*
X69542889Y-87828586D01*
X69696028Y-87726262D01*
X69826262Y-87596028D01*
X69928586Y-87442889D01*
X69999068Y-87272729D01*
X70011961Y-87207911D01*
X86064990Y-87207911D01*
X86064990Y-87392089D01*
X86100922Y-87572729D01*
X86171404Y-87742889D01*
X86242978Y-87850007D01*
X86171414Y-87957111D01*
X86100932Y-88127271D01*
X86065000Y-88307911D01*
X86065000Y-88492089D01*
X86100932Y-88672729D01*
X86171414Y-88842889D01*
X86209574Y-88900000D01*
X86171414Y-88957111D01*
X86100932Y-89127271D01*
X86065000Y-89307911D01*
X86065000Y-89492089D01*
X86100932Y-89672729D01*
X86171414Y-89842889D01*
X86273738Y-89996028D01*
X86403972Y-90126262D01*
X86557111Y-90228586D01*
X86727271Y-90299068D01*
X86907911Y-90335000D01*
X87092089Y-90335000D01*
X87272729Y-90299068D01*
X87442889Y-90228586D01*
X87596028Y-90126262D01*
X87657795Y-90064495D01*
X94842556Y-90064495D01*
X94842556Y-90248673D01*
X94878488Y-90429313D01*
X94948970Y-90599473D01*
X95051294Y-90752612D01*
X95181528Y-90882846D01*
X95334667Y-90985170D01*
X95504827Y-91055652D01*
X95685467Y-91091584D01*
X95869645Y-91091584D01*
X96036170Y-91058460D01*
X96103972Y-91126262D01*
X96257111Y-91228586D01*
X96427271Y-91299068D01*
X96607911Y-91335000D01*
X96792089Y-91335000D01*
X96972729Y-91299068D01*
X97142889Y-91228586D01*
X97173831Y-91207911D01*
X102265000Y-91207911D01*
X102265000Y-91392089D01*
X102300932Y-91572729D01*
X102371414Y-91742889D01*
X102473738Y-91896028D01*
X102603972Y-92026262D01*
X102757111Y-92128586D01*
X102927271Y-92199068D01*
X103065000Y-92226464D01*
X103065000Y-92292089D01*
X103100932Y-92472729D01*
X103171414Y-92642889D01*
X103273738Y-92796028D01*
X103403972Y-92926262D01*
X103557111Y-93028586D01*
X103727271Y-93099068D01*
X103768000Y-93107170D01*
X103800932Y-93272729D01*
X103871414Y-93442889D01*
X103973738Y-93596028D01*
X104103972Y-93726262D01*
X104257111Y-93828586D01*
X104365000Y-93873275D01*
X104365000Y-93892089D01*
X104400932Y-94072729D01*
X104471414Y-94242889D01*
X104573738Y-94396028D01*
X104703972Y-94526262D01*
X104857111Y-94628586D01*
X105027271Y-94699068D01*
X105068000Y-94707170D01*
X105100932Y-94872727D01*
X105171414Y-95042887D01*
X105273738Y-95196026D01*
X105403972Y-95326260D01*
X105557111Y-95428584D01*
X105682599Y-95480562D01*
X105700932Y-95572729D01*
X105771414Y-95742889D01*
X105873738Y-95896028D01*
X106003972Y-96026262D01*
X106157111Y-96128586D01*
X106327271Y-96199068D01*
X106420323Y-96217577D01*
X106418815Y-96218815D01*
X106339463Y-96315506D01*
X106280498Y-96425820D01*
X106244188Y-96545518D01*
X106231928Y-96670000D01*
X106231928Y-98370000D01*
X106244188Y-98494482D01*
X106280498Y-98614180D01*
X106339463Y-98724494D01*
X106418815Y-98821185D01*
X106515506Y-98900537D01*
X106625820Y-98959502D01*
X106698380Y-98981513D01*
X106566525Y-99113368D01*
X106404010Y-99356589D01*
X106292068Y-99626842D01*
X106235000Y-99913740D01*
X106235000Y-100206260D01*
X106292068Y-100493158D01*
X106404010Y-100763411D01*
X106566525Y-101006632D01*
X106773368Y-101213475D01*
X106947760Y-101330000D01*
X106773368Y-101446525D01*
X106566525Y-101653368D01*
X106404010Y-101896589D01*
X106292068Y-102166842D01*
X106235000Y-102453740D01*
X106235000Y-102746260D01*
X106292068Y-103033158D01*
X106404010Y-103303411D01*
X106566525Y-103546632D01*
X106773368Y-103753475D01*
X106947760Y-103870000D01*
X106773368Y-103986525D01*
X106566525Y-104193368D01*
X106404010Y-104436589D01*
X106292068Y-104706842D01*
X106235000Y-104993740D01*
X106235000Y-105286260D01*
X106292068Y-105573158D01*
X106404010Y-105843411D01*
X106566525Y-106086632D01*
X106773368Y-106293475D01*
X106947760Y-106410000D01*
X106773368Y-106526525D01*
X106566525Y-106733368D01*
X106404010Y-106976589D01*
X106292068Y-107246842D01*
X106235000Y-107533740D01*
X106235000Y-107826260D01*
X106292068Y-108113158D01*
X106404010Y-108383411D01*
X106566525Y-108626632D01*
X106773368Y-108833475D01*
X106947760Y-108950000D01*
X106773368Y-109066525D01*
X106566525Y-109273368D01*
X106404010Y-109516589D01*
X106292068Y-109786842D01*
X106235000Y-110073740D01*
X106235000Y-110366260D01*
X106292068Y-110653158D01*
X106404010Y-110923411D01*
X106566525Y-111166632D01*
X106773368Y-111373475D01*
X106947760Y-111490000D01*
X106773368Y-111606525D01*
X106566525Y-111813368D01*
X106404010Y-112056589D01*
X106292068Y-112326842D01*
X106235000Y-112613740D01*
X106235000Y-112906260D01*
X106292068Y-113193158D01*
X106404010Y-113463411D01*
X106566525Y-113706632D01*
X106773368Y-113913475D01*
X106947760Y-114030000D01*
X106773368Y-114146525D01*
X106566525Y-114353368D01*
X106404010Y-114596589D01*
X106292068Y-114866842D01*
X106235000Y-115153740D01*
X106235000Y-115446260D01*
X106292068Y-115733158D01*
X106404010Y-116003411D01*
X106566525Y-116246632D01*
X106773368Y-116453475D01*
X106947760Y-116570000D01*
X106773368Y-116686525D01*
X106566525Y-116893368D01*
X106404010Y-117136589D01*
X106292068Y-117406842D01*
X106262084Y-117557583D01*
X106226262Y-117503972D01*
X106096028Y-117373738D01*
X105942889Y-117271414D01*
X105772729Y-117200932D01*
X105592089Y-117165000D01*
X105407911Y-117165000D01*
X105227271Y-117200932D01*
X105057111Y-117271414D01*
X104903972Y-117373738D01*
X104773738Y-117503972D01*
X104671414Y-117657111D01*
X104600932Y-117827271D01*
X104565000Y-118007911D01*
X104565000Y-118192089D01*
X104600932Y-118372729D01*
X104671414Y-118542889D01*
X104773738Y-118696028D01*
X104903972Y-118826262D01*
X105057111Y-118928586D01*
X105227271Y-118999068D01*
X105407911Y-119035000D01*
X105592089Y-119035000D01*
X105772729Y-118999068D01*
X105942889Y-118928586D01*
X106096028Y-118826262D01*
X106226262Y-118696028D01*
X106328586Y-118542889D01*
X106366190Y-118452105D01*
X106404010Y-118543411D01*
X106566525Y-118786632D01*
X106773368Y-118993475D01*
X106947760Y-119110000D01*
X106773368Y-119226525D01*
X106566525Y-119433368D01*
X106404010Y-119676589D01*
X106292068Y-119946842D01*
X106235000Y-120233740D01*
X106235000Y-120526260D01*
X106292068Y-120813158D01*
X106404010Y-121083411D01*
X106566525Y-121326632D01*
X106773368Y-121533475D01*
X107016589Y-121695990D01*
X107286842Y-121807932D01*
X107573740Y-121865000D01*
X107866260Y-121865000D01*
X108153158Y-121807932D01*
X108423411Y-121695990D01*
X108666632Y-121533475D01*
X108873475Y-121326632D01*
X108990000Y-121152240D01*
X109106525Y-121326632D01*
X109313368Y-121533475D01*
X109556589Y-121695990D01*
X109826842Y-121807932D01*
X110113740Y-121865000D01*
X110406260Y-121865000D01*
X110693158Y-121807932D01*
X110963411Y-121695990D01*
X111206632Y-121533475D01*
X111413475Y-121326632D01*
X111575990Y-121083411D01*
X111687932Y-120813158D01*
X111745000Y-120526260D01*
X111745000Y-120233740D01*
X111687932Y-119946842D01*
X111575990Y-119676589D01*
X111413475Y-119433368D01*
X111206632Y-119226525D01*
X111032240Y-119110000D01*
X111206632Y-118993475D01*
X111413475Y-118786632D01*
X111575990Y-118543411D01*
X111687932Y-118273158D01*
X111745000Y-117986260D01*
X111745000Y-117693740D01*
X111687932Y-117406842D01*
X111575990Y-117136589D01*
X111413475Y-116893368D01*
X111206632Y-116686525D01*
X111032240Y-116570000D01*
X111206632Y-116453475D01*
X111413475Y-116246632D01*
X111575990Y-116003411D01*
X111687932Y-115733158D01*
X111745000Y-115446260D01*
X111745000Y-115153740D01*
X111687932Y-114866842D01*
X111575990Y-114596589D01*
X111413475Y-114353368D01*
X111206632Y-114146525D01*
X111032240Y-114030000D01*
X111206632Y-113913475D01*
X111413475Y-113706632D01*
X111575990Y-113463411D01*
X111687932Y-113193158D01*
X111745000Y-112906260D01*
X111745000Y-112613740D01*
X111687932Y-112326842D01*
X111575990Y-112056589D01*
X111413475Y-111813368D01*
X111206632Y-111606525D01*
X111032240Y-111490000D01*
X111206632Y-111373475D01*
X111413475Y-111166632D01*
X111575990Y-110923411D01*
X111687932Y-110653158D01*
X111745000Y-110366260D01*
X111745000Y-110073740D01*
X111687932Y-109786842D01*
X111575990Y-109516589D01*
X111413475Y-109273368D01*
X111206632Y-109066525D01*
X111032240Y-108950000D01*
X111206632Y-108833475D01*
X111413475Y-108626632D01*
X111575990Y-108383411D01*
X111687932Y-108113158D01*
X111745000Y-107826260D01*
X111745000Y-107533740D01*
X111687932Y-107246842D01*
X111575990Y-106976589D01*
X111413475Y-106733368D01*
X111206632Y-106526525D01*
X111032240Y-106410000D01*
X111206632Y-106293475D01*
X111413475Y-106086632D01*
X111575990Y-105843411D01*
X111687932Y-105573158D01*
X111745000Y-105286260D01*
X111745000Y-104993740D01*
X111687932Y-104706842D01*
X111575990Y-104436589D01*
X111413475Y-104193368D01*
X111206632Y-103986525D01*
X111032240Y-103870000D01*
X111206632Y-103753475D01*
X111413475Y-103546632D01*
X111575990Y-103303411D01*
X111687932Y-103033158D01*
X111745000Y-102746260D01*
X111745000Y-102453740D01*
X111687932Y-102166842D01*
X111575990Y-101896589D01*
X111413475Y-101653368D01*
X111206632Y-101446525D01*
X111032240Y-101330000D01*
X111206632Y-101213475D01*
X111413475Y-101006632D01*
X111575990Y-100763411D01*
X111687932Y-100493158D01*
X111745000Y-100206260D01*
X111745000Y-99913740D01*
X111687932Y-99626842D01*
X111575990Y-99356589D01*
X111413475Y-99113368D01*
X111206632Y-98906525D01*
X111024466Y-98784805D01*
X111141355Y-98715178D01*
X111357588Y-98520269D01*
X111531641Y-98286920D01*
X111656825Y-98024099D01*
X111701476Y-97876890D01*
X111580155Y-97647000D01*
X110387000Y-97647000D01*
X110387000Y-97667000D01*
X110133000Y-97667000D01*
X110133000Y-97647000D01*
X110113000Y-97647000D01*
X110113000Y-97393000D01*
X110133000Y-97393000D01*
X110133000Y-96199186D01*
X110387000Y-96199186D01*
X110387000Y-97393000D01*
X111580155Y-97393000D01*
X111701476Y-97163110D01*
X111656825Y-97015901D01*
X111531641Y-96753080D01*
X111357588Y-96519731D01*
X111141355Y-96324822D01*
X110891252Y-96175843D01*
X110616891Y-96078519D01*
X110387000Y-96199186D01*
X110133000Y-96199186D01*
X109903109Y-96078519D01*
X109628748Y-96175843D01*
X109378645Y-96324822D01*
X109182498Y-96501626D01*
X109159502Y-96425820D01*
X109100537Y-96315506D01*
X109021185Y-96218815D01*
X108924494Y-96139463D01*
X108814180Y-96080498D01*
X108694482Y-96044188D01*
X108570000Y-96031928D01*
X107187548Y-96031928D01*
X107196028Y-96026262D01*
X107326262Y-95896028D01*
X107428586Y-95742889D01*
X107499068Y-95572729D01*
X107535000Y-95392089D01*
X107535000Y-95207911D01*
X107499068Y-95027271D01*
X107428586Y-94857111D01*
X107326262Y-94703972D01*
X107196028Y-94573738D01*
X107042889Y-94471414D01*
X106917401Y-94419436D01*
X106899068Y-94327269D01*
X106828586Y-94157109D01*
X106726262Y-94003970D01*
X106596028Y-93873736D01*
X106442889Y-93771412D01*
X106272729Y-93700930D01*
X106232000Y-93692828D01*
X106199068Y-93527271D01*
X106128586Y-93357111D01*
X106026262Y-93203972D01*
X105896028Y-93073738D01*
X105742889Y-92971414D01*
X105635000Y-92926725D01*
X105635000Y-92907911D01*
X105599068Y-92727271D01*
X105528586Y-92557111D01*
X105426262Y-92403972D01*
X105296028Y-92273738D01*
X105142889Y-92171414D01*
X104972729Y-92100932D01*
X104932000Y-92092830D01*
X104899068Y-91927271D01*
X104828586Y-91757111D01*
X104726262Y-91603972D01*
X104596028Y-91473738D01*
X104497511Y-91407911D01*
X109165000Y-91407911D01*
X109165000Y-91592089D01*
X109200932Y-91772729D01*
X109271414Y-91942889D01*
X109373738Y-92096028D01*
X109503972Y-92226262D01*
X109657111Y-92328586D01*
X109827271Y-92399068D01*
X110007911Y-92435000D01*
X110192089Y-92435000D01*
X110352356Y-92403120D01*
X110300932Y-92527271D01*
X110265000Y-92707911D01*
X110265000Y-92892089D01*
X110300932Y-93072729D01*
X110371414Y-93242889D01*
X110473738Y-93396028D01*
X110603972Y-93526262D01*
X110757111Y-93628586D01*
X110927271Y-93699068D01*
X111107911Y-93735000D01*
X111292089Y-93735000D01*
X111472729Y-93699068D01*
X111642889Y-93628586D01*
X111796028Y-93526262D01*
X111926262Y-93396028D01*
X112028586Y-93242889D01*
X112099068Y-93072729D01*
X112135000Y-92892089D01*
X112135000Y-92707911D01*
X112099068Y-92527271D01*
X112028586Y-92357111D01*
X111926262Y-92203972D01*
X111796028Y-92073738D01*
X111642889Y-91971414D01*
X111472729Y-91900932D01*
X111292089Y-91865000D01*
X111107911Y-91865000D01*
X110947644Y-91896880D01*
X110999068Y-91772729D01*
X111035000Y-91592089D01*
X111035000Y-91407911D01*
X110999068Y-91227271D01*
X110928586Y-91057111D01*
X110826262Y-90903972D01*
X110696028Y-90773738D01*
X110542889Y-90671414D01*
X110372729Y-90600932D01*
X110192089Y-90565000D01*
X110007911Y-90565000D01*
X109827271Y-90600932D01*
X109657111Y-90671414D01*
X109503972Y-90773738D01*
X109373738Y-90903972D01*
X109271414Y-91057111D01*
X109200932Y-91227271D01*
X109165000Y-91407911D01*
X104497511Y-91407911D01*
X104442889Y-91371414D01*
X104272729Y-91300932D01*
X104135000Y-91273536D01*
X104135000Y-91207911D01*
X104099068Y-91027271D01*
X104028586Y-90857111D01*
X103926262Y-90703972D01*
X103796028Y-90573738D01*
X103642889Y-90471414D01*
X103472729Y-90400932D01*
X103292089Y-90365000D01*
X103107911Y-90365000D01*
X102927271Y-90400932D01*
X102757111Y-90471414D01*
X102603972Y-90573738D01*
X102473738Y-90703972D01*
X102371414Y-90857111D01*
X102300932Y-91027271D01*
X102265000Y-91207911D01*
X97173831Y-91207911D01*
X97296028Y-91126262D01*
X97426262Y-90996028D01*
X97528586Y-90842889D01*
X97599068Y-90672729D01*
X97635000Y-90492089D01*
X97635000Y-90307911D01*
X97599068Y-90127271D01*
X97528586Y-89957111D01*
X97426262Y-89803972D01*
X97296028Y-89673738D01*
X97142889Y-89571414D01*
X96972729Y-89500932D01*
X96792089Y-89465000D01*
X96607911Y-89465000D01*
X96441386Y-89498124D01*
X96373584Y-89430322D01*
X96220445Y-89327998D01*
X96050285Y-89257516D01*
X95869645Y-89221584D01*
X95685467Y-89221584D01*
X95504827Y-89257516D01*
X95334667Y-89327998D01*
X95181528Y-89430322D01*
X95051294Y-89560556D01*
X94948970Y-89713695D01*
X94878488Y-89883855D01*
X94842556Y-90064495D01*
X87657795Y-90064495D01*
X87726262Y-89996028D01*
X87828586Y-89842889D01*
X87899068Y-89672729D01*
X87935000Y-89492089D01*
X87935000Y-89307911D01*
X87899068Y-89127271D01*
X87828586Y-88957111D01*
X87790426Y-88900000D01*
X87828586Y-88842889D01*
X87884495Y-88707911D01*
X91865000Y-88707911D01*
X91865000Y-88892089D01*
X91900932Y-89072729D01*
X91971414Y-89242889D01*
X92073738Y-89396028D01*
X92203972Y-89526262D01*
X92357111Y-89628586D01*
X92527271Y-89699068D01*
X92707911Y-89735000D01*
X92892089Y-89735000D01*
X93072729Y-89699068D01*
X93242889Y-89628586D01*
X93396028Y-89526262D01*
X93526262Y-89396028D01*
X93628586Y-89242889D01*
X93699068Y-89072729D01*
X93735000Y-88892089D01*
X93735000Y-88707911D01*
X93699068Y-88527271D01*
X93628586Y-88357111D01*
X93526262Y-88203972D01*
X93396028Y-88073738D01*
X93242889Y-87971414D01*
X93072729Y-87900932D01*
X92892089Y-87865000D01*
X92707911Y-87865000D01*
X92527271Y-87900932D01*
X92357111Y-87971414D01*
X92203972Y-88073738D01*
X92073738Y-88203972D01*
X91971414Y-88357111D01*
X91900932Y-88527271D01*
X91865000Y-88707911D01*
X87884495Y-88707911D01*
X87899068Y-88672729D01*
X87935000Y-88492089D01*
X87935000Y-88307911D01*
X87899068Y-88127271D01*
X87828586Y-87957111D01*
X87757012Y-87849993D01*
X87828576Y-87742889D01*
X87899058Y-87572729D01*
X87934990Y-87392089D01*
X87934990Y-87207911D01*
X87899058Y-87027271D01*
X87843347Y-86892770D01*
X99129671Y-86892770D01*
X99129671Y-87076948D01*
X99165603Y-87257588D01*
X99236085Y-87427748D01*
X99338409Y-87580887D01*
X99468643Y-87711121D01*
X99621782Y-87813445D01*
X99791942Y-87883927D01*
X99960911Y-87917537D01*
X99971414Y-87942895D01*
X100073738Y-88096034D01*
X100203972Y-88226268D01*
X100357111Y-88328592D01*
X100527271Y-88399074D01*
X100707911Y-88435006D01*
X100892089Y-88435006D01*
X101072729Y-88399074D01*
X101242889Y-88328592D01*
X101396028Y-88226268D01*
X101526262Y-88096034D01*
X101628586Y-87942895D01*
X101699068Y-87772735D01*
X101735000Y-87592095D01*
X101735000Y-87407917D01*
X101699068Y-87227277D01*
X101628586Y-87057117D01*
X101526262Y-86903978D01*
X101396028Y-86773744D01*
X101242889Y-86671420D01*
X101072729Y-86600938D01*
X100903760Y-86567328D01*
X100893257Y-86541970D01*
X100790933Y-86388831D01*
X100660699Y-86258597D01*
X100507560Y-86156273D01*
X100337400Y-86085791D01*
X100156760Y-86049859D01*
X99972582Y-86049859D01*
X99791942Y-86085791D01*
X99621782Y-86156273D01*
X99468643Y-86258597D01*
X99338409Y-86388831D01*
X99236085Y-86541970D01*
X99165603Y-86712130D01*
X99129671Y-86892770D01*
X87843347Y-86892770D01*
X87828576Y-86857111D01*
X87726252Y-86703972D01*
X87596018Y-86573738D01*
X87442879Y-86471414D01*
X87272719Y-86400932D01*
X87092079Y-86365000D01*
X86907901Y-86365000D01*
X86727261Y-86400932D01*
X86557101Y-86471414D01*
X86403962Y-86573738D01*
X86273728Y-86703972D01*
X86171404Y-86857111D01*
X86100922Y-87027271D01*
X86064990Y-87207911D01*
X70011961Y-87207911D01*
X70035000Y-87092089D01*
X70035000Y-86907911D01*
X69999068Y-86727271D01*
X69928586Y-86557111D01*
X69826262Y-86403972D01*
X69696028Y-86273738D01*
X69542889Y-86171414D01*
X69372729Y-86100932D01*
X69192089Y-86065000D01*
X69007911Y-86065000D01*
X68827271Y-86100932D01*
X68657111Y-86171414D01*
X68503972Y-86273738D01*
X68373738Y-86403972D01*
X68271414Y-86557111D01*
X68200932Y-86727271D01*
X68165000Y-86907911D01*
X61160000Y-86907911D01*
X61160000Y-85407911D01*
X77465000Y-85407911D01*
X77465000Y-85592089D01*
X77500932Y-85772729D01*
X77571414Y-85942889D01*
X77673738Y-86096028D01*
X77803972Y-86226262D01*
X77957111Y-86328586D01*
X78127271Y-86399068D01*
X78307911Y-86435000D01*
X78492089Y-86435000D01*
X78672729Y-86399068D01*
X78842889Y-86328586D01*
X78996028Y-86226262D01*
X79126262Y-86096028D01*
X79228586Y-85942889D01*
X79299068Y-85772729D01*
X79335000Y-85592089D01*
X79335000Y-85407911D01*
X79299068Y-85227271D01*
X79228586Y-85057111D01*
X79126262Y-84903972D01*
X78996028Y-84773738D01*
X78842889Y-84671414D01*
X78672729Y-84600932D01*
X78492089Y-84565000D01*
X78307911Y-84565000D01*
X78127271Y-84600932D01*
X77957111Y-84671414D01*
X77803972Y-84773738D01*
X77673738Y-84903972D01*
X77571414Y-85057111D01*
X77500932Y-85227271D01*
X77465000Y-85407911D01*
X61160000Y-85407911D01*
X61160000Y-84207911D01*
X86965000Y-84207911D01*
X86965000Y-84392089D01*
X87000932Y-84572729D01*
X87071414Y-84742889D01*
X87173738Y-84896028D01*
X87303972Y-85026262D01*
X87457111Y-85128586D01*
X87497355Y-85145255D01*
X87465000Y-85307911D01*
X87465000Y-85492089D01*
X87500932Y-85672729D01*
X87571414Y-85842889D01*
X87673738Y-85996028D01*
X87803972Y-86126262D01*
X87957111Y-86228586D01*
X88127271Y-86299068D01*
X88307911Y-86335000D01*
X88492089Y-86335000D01*
X88672729Y-86299068D01*
X88842889Y-86228586D01*
X88996028Y-86126262D01*
X89126262Y-85996028D01*
X89228586Y-85842889D01*
X89299068Y-85672729D01*
X89335000Y-85492089D01*
X89335000Y-85307911D01*
X89316896Y-85216896D01*
X89407911Y-85235000D01*
X89479503Y-85235000D01*
X89465000Y-85307911D01*
X89465000Y-85492089D01*
X89500932Y-85672729D01*
X89571414Y-85842889D01*
X89673738Y-85996028D01*
X89803972Y-86126262D01*
X89957111Y-86228586D01*
X90127271Y-86299068D01*
X90307911Y-86335000D01*
X90492089Y-86335000D01*
X90672729Y-86299068D01*
X90842889Y-86228586D01*
X90996028Y-86126262D01*
X91126262Y-85996028D01*
X91228586Y-85842889D01*
X91250000Y-85791191D01*
X91271414Y-85842889D01*
X91373738Y-85996028D01*
X91503972Y-86126262D01*
X91657111Y-86228586D01*
X91827271Y-86299068D01*
X92007911Y-86335000D01*
X92192089Y-86335000D01*
X92372729Y-86299068D01*
X92542889Y-86228586D01*
X92696028Y-86126262D01*
X92826262Y-85996028D01*
X92928586Y-85842889D01*
X92999068Y-85672729D01*
X93035000Y-85492089D01*
X93035000Y-85307911D01*
X92999068Y-85127271D01*
X92928586Y-84957111D01*
X92826262Y-84803972D01*
X92696028Y-84673738D01*
X92542889Y-84571414D01*
X92372729Y-84500932D01*
X92315610Y-84489570D01*
X92335000Y-84392089D01*
X92335000Y-84207911D01*
X92299068Y-84027271D01*
X92228586Y-83857111D01*
X92126262Y-83703972D01*
X91996028Y-83573738D01*
X91842889Y-83471414D01*
X91672729Y-83400932D01*
X91492089Y-83365000D01*
X91307911Y-83365000D01*
X91127271Y-83400932D01*
X90957111Y-83471414D01*
X90803972Y-83573738D01*
X90673738Y-83703972D01*
X90571414Y-83857111D01*
X90500932Y-84027271D01*
X90465000Y-84207911D01*
X90465000Y-84392089D01*
X90479503Y-84465000D01*
X90420497Y-84465000D01*
X90435000Y-84392089D01*
X90435000Y-84207911D01*
X90399068Y-84027271D01*
X90328586Y-83857111D01*
X90226262Y-83703972D01*
X90096028Y-83573738D01*
X89942889Y-83471414D01*
X89772729Y-83400932D01*
X89592089Y-83365000D01*
X89407911Y-83365000D01*
X89227271Y-83400932D01*
X89057111Y-83471414D01*
X88903972Y-83573738D01*
X88773738Y-83703972D01*
X88700000Y-83814329D01*
X88626262Y-83703972D01*
X88496028Y-83573738D01*
X88342889Y-83471414D01*
X88172729Y-83400932D01*
X87992089Y-83365000D01*
X87807911Y-83365000D01*
X87627271Y-83400932D01*
X87457111Y-83471414D01*
X87303972Y-83573738D01*
X87173738Y-83703972D01*
X87071414Y-83857111D01*
X87000932Y-84027271D01*
X86965000Y-84207911D01*
X61160000Y-84207911D01*
X61160000Y-80407911D01*
X72665000Y-80407911D01*
X72665000Y-80592089D01*
X72700932Y-80772729D01*
X72771414Y-80942889D01*
X72873738Y-81096028D01*
X73003972Y-81226262D01*
X73157111Y-81328586D01*
X73327271Y-81399068D01*
X73507911Y-81435000D01*
X73692089Y-81435000D01*
X73872729Y-81399068D01*
X74000000Y-81346351D01*
X74127271Y-81399068D01*
X74307911Y-81435000D01*
X74492089Y-81435000D01*
X74672729Y-81399068D01*
X74842889Y-81328586D01*
X74996028Y-81226262D01*
X75126262Y-81096028D01*
X75228586Y-80942889D01*
X75299068Y-80772729D01*
X75335000Y-80592089D01*
X75335000Y-80407911D01*
X75299068Y-80227271D01*
X75228586Y-80057111D01*
X75126262Y-79903972D01*
X74996028Y-79773738D01*
X74842889Y-79671414D01*
X74672729Y-79600932D01*
X74492089Y-79565000D01*
X74307911Y-79565000D01*
X74127271Y-79600932D01*
X74000000Y-79653649D01*
X73872729Y-79600932D01*
X73692089Y-79565000D01*
X73507911Y-79565000D01*
X73327271Y-79600932D01*
X73157111Y-79671414D01*
X73003972Y-79773738D01*
X72873738Y-79903972D01*
X72771414Y-80057111D01*
X72700932Y-80227271D01*
X72665000Y-80407911D01*
X61160000Y-80407911D01*
X61160000Y-78907911D01*
X78665000Y-78907911D01*
X78665000Y-79092089D01*
X78700932Y-79272729D01*
X78771414Y-79442889D01*
X78873738Y-79596028D01*
X79003972Y-79726262D01*
X79039498Y-79750000D01*
X79003972Y-79773738D01*
X78873738Y-79903972D01*
X78771414Y-80057111D01*
X78700932Y-80227271D01*
X78665000Y-80407911D01*
X78665000Y-80592089D01*
X78700932Y-80772729D01*
X78771414Y-80942889D01*
X78873738Y-81096028D01*
X79003972Y-81226262D01*
X79039498Y-81250000D01*
X79003972Y-81273738D01*
X78873738Y-81403972D01*
X78771414Y-81557111D01*
X78700932Y-81727271D01*
X78665000Y-81907911D01*
X78665000Y-82092089D01*
X78700932Y-82272729D01*
X78771414Y-82442889D01*
X78873738Y-82596028D01*
X79003972Y-82726262D01*
X79157111Y-82828586D01*
X79327271Y-82899068D01*
X79507911Y-82935000D01*
X79692089Y-82935000D01*
X79872729Y-82899068D01*
X80042889Y-82828586D01*
X80196028Y-82726262D01*
X80326262Y-82596028D01*
X80428586Y-82442889D01*
X80499068Y-82272729D01*
X80535000Y-82092089D01*
X80535000Y-81907911D01*
X80499068Y-81727271D01*
X80428586Y-81557111D01*
X80326262Y-81403972D01*
X80196028Y-81273738D01*
X80160502Y-81250000D01*
X80196028Y-81226262D01*
X80326262Y-81096028D01*
X80428586Y-80942889D01*
X80499068Y-80772729D01*
X80535000Y-80592089D01*
X80535000Y-80407911D01*
X80499068Y-80227271D01*
X80428586Y-80057111D01*
X80326262Y-79903972D01*
X80196028Y-79773738D01*
X80160502Y-79750000D01*
X80196028Y-79726262D01*
X80326262Y-79596028D01*
X80428586Y-79442889D01*
X80499068Y-79272729D01*
X80535000Y-79092089D01*
X80535000Y-78907911D01*
X80499068Y-78727271D01*
X80428586Y-78557111D01*
X80326262Y-78403972D01*
X80196028Y-78273738D01*
X80042889Y-78171414D01*
X79872729Y-78100932D01*
X79692089Y-78065000D01*
X79507911Y-78065000D01*
X79327271Y-78100932D01*
X79157111Y-78171414D01*
X79003972Y-78273738D01*
X78873738Y-78403972D01*
X78771414Y-78557111D01*
X78700932Y-78727271D01*
X78665000Y-78907911D01*
X61160000Y-78907911D01*
X61160000Y-60519608D01*
X61227573Y-60452035D01*
X61545757Y-60905850D01*
X62150210Y-61231269D01*
X62806535Y-61432512D01*
X63489510Y-61501845D01*
X64172888Y-61436605D01*
X64830407Y-61239298D01*
X65436799Y-60917506D01*
X65454243Y-60905850D01*
X65772428Y-60452033D01*
X63500000Y-58179605D01*
X63485858Y-58193748D01*
X63306253Y-58014143D01*
X63320395Y-58000000D01*
X63306253Y-57985858D01*
X63485858Y-57806253D01*
X63500000Y-57820395D01*
X63514143Y-57806253D01*
X63693748Y-57985858D01*
X63679605Y-58000000D01*
X65952033Y-60272428D01*
X66405850Y-59954243D01*
X66731269Y-59349790D01*
X66932512Y-58693465D01*
X66990017Y-58127002D01*
X67139185Y-58127002D01*
X67018519Y-58356891D01*
X67115843Y-58631252D01*
X67264822Y-58881355D01*
X67459731Y-59097588D01*
X67693080Y-59271641D01*
X67955901Y-59396825D01*
X68103110Y-59441476D01*
X68333000Y-59320155D01*
X68333000Y-58127000D01*
X68313000Y-58127000D01*
X68313000Y-57873000D01*
X68333000Y-57873000D01*
X68333000Y-56679845D01*
X68587000Y-56679845D01*
X68587000Y-57873000D01*
X68607000Y-57873000D01*
X68607000Y-58127000D01*
X68587000Y-58127000D01*
X68587000Y-59320155D01*
X68816890Y-59441476D01*
X68964099Y-59396825D01*
X69226920Y-59271641D01*
X69460269Y-59097588D01*
X69655178Y-58881355D01*
X69724805Y-58764466D01*
X69846525Y-58946632D01*
X70053368Y-59153475D01*
X70296589Y-59315990D01*
X70566842Y-59427932D01*
X70853740Y-59485000D01*
X71146260Y-59485000D01*
X71433158Y-59427932D01*
X71703411Y-59315990D01*
X71946632Y-59153475D01*
X72153475Y-58946632D01*
X72270000Y-58772240D01*
X72386525Y-58946632D01*
X72593368Y-59153475D01*
X72836589Y-59315990D01*
X73106842Y-59427932D01*
X73393740Y-59485000D01*
X73686260Y-59485000D01*
X73973158Y-59427932D01*
X74243411Y-59315990D01*
X74486632Y-59153475D01*
X74618487Y-59021620D01*
X74640498Y-59094180D01*
X74699463Y-59204494D01*
X74778815Y-59301185D01*
X74875506Y-59380537D01*
X74985820Y-59439502D01*
X75105518Y-59475812D01*
X75230000Y-59488072D01*
X76930000Y-59488072D01*
X77054482Y-59475812D01*
X77174180Y-59439502D01*
X77284494Y-59380537D01*
X77381185Y-59301185D01*
X77460537Y-59204494D01*
X77519502Y-59094180D01*
X77555812Y-58974482D01*
X77568072Y-58850000D01*
X77568072Y-58353740D01*
X87475000Y-58353740D01*
X87475000Y-58646260D01*
X87532068Y-58933158D01*
X87644010Y-59203411D01*
X87806525Y-59446632D01*
X88013368Y-59653475D01*
X88256589Y-59815990D01*
X88526842Y-59927932D01*
X88813740Y-59985000D01*
X89106260Y-59985000D01*
X89393158Y-59927932D01*
X89663411Y-59815990D01*
X89906632Y-59653475D01*
X90038487Y-59521620D01*
X90060498Y-59594180D01*
X90119463Y-59704494D01*
X90198815Y-59801185D01*
X90295506Y-59880537D01*
X90405820Y-59939502D01*
X90525518Y-59975812D01*
X90650000Y-59988072D01*
X92350000Y-59988072D01*
X92474482Y-59975812D01*
X92594180Y-59939502D01*
X92704494Y-59880537D01*
X92801185Y-59801185D01*
X92880537Y-59704494D01*
X92939502Y-59594180D01*
X92975812Y-59474482D01*
X92988072Y-59350000D01*
X92988072Y-57650000D01*
X92975812Y-57525518D01*
X92939502Y-57405820D01*
X92880537Y-57295506D01*
X92801185Y-57198815D01*
X92704494Y-57119463D01*
X92594180Y-57060498D01*
X92474482Y-57024188D01*
X92350000Y-57011928D01*
X90650000Y-57011928D01*
X90525518Y-57024188D01*
X90405820Y-57060498D01*
X90295506Y-57119463D01*
X90198815Y-57198815D01*
X90119463Y-57295506D01*
X90060498Y-57405820D01*
X90038487Y-57478380D01*
X89906632Y-57346525D01*
X89663411Y-57184010D01*
X89393158Y-57072068D01*
X89106260Y-57015000D01*
X88813740Y-57015000D01*
X88526842Y-57072068D01*
X88256589Y-57184010D01*
X88013368Y-57346525D01*
X87806525Y-57553368D01*
X87644010Y-57796589D01*
X87532068Y-58066842D01*
X87475000Y-58353740D01*
X77568072Y-58353740D01*
X77568072Y-57150000D01*
X77555812Y-57025518D01*
X77519502Y-56905820D01*
X77460537Y-56795506D01*
X77381185Y-56698815D01*
X77284494Y-56619463D01*
X77174180Y-56560498D01*
X77054482Y-56524188D01*
X76930000Y-56511928D01*
X75230000Y-56511928D01*
X75105518Y-56524188D01*
X74985820Y-56560498D01*
X74875506Y-56619463D01*
X74778815Y-56698815D01*
X74699463Y-56795506D01*
X74640498Y-56905820D01*
X74618487Y-56978380D01*
X74486632Y-56846525D01*
X74243411Y-56684010D01*
X73973158Y-56572068D01*
X73686260Y-56515000D01*
X73393740Y-56515000D01*
X73106842Y-56572068D01*
X72836589Y-56684010D01*
X72593368Y-56846525D01*
X72386525Y-57053368D01*
X72270000Y-57227760D01*
X72153475Y-57053368D01*
X71946632Y-56846525D01*
X71703411Y-56684010D01*
X71433158Y-56572068D01*
X71146260Y-56515000D01*
X70853740Y-56515000D01*
X70566842Y-56572068D01*
X70296589Y-56684010D01*
X70053368Y-56846525D01*
X69846525Y-57053368D01*
X69724805Y-57235534D01*
X69655178Y-57118645D01*
X69460269Y-56902412D01*
X69226920Y-56728359D01*
X68964099Y-56603175D01*
X68816890Y-56558524D01*
X68587000Y-56679845D01*
X68333000Y-56679845D01*
X68103110Y-56558524D01*
X67955901Y-56603175D01*
X67693080Y-56728359D01*
X67459731Y-56902412D01*
X67264822Y-57118645D01*
X67115843Y-57368748D01*
X67018519Y-57643109D01*
X67139185Y-57872998D01*
X66988719Y-57872998D01*
X66936605Y-57327112D01*
X66739298Y-56669593D01*
X66417506Y-56063201D01*
X66405850Y-56045757D01*
X65952035Y-55727573D01*
X66019608Y-55660000D01*
X108980392Y-55660000D01*
X109047965Y-55727573D01*
%TA.AperFunction,Conductor*%
D18*
G36*
X109047965Y-55727573D02*
G01*
X108594150Y-56045757D01*
X108268731Y-56650210D01*
X108067488Y-57306535D01*
X107998155Y-57989510D01*
X108063395Y-58672888D01*
X108260702Y-59330407D01*
X108582494Y-59936799D01*
X108594150Y-59954243D01*
X109047967Y-60272428D01*
X111320395Y-58000000D01*
X111306253Y-57985858D01*
X111485858Y-57806253D01*
X111500000Y-57820395D01*
X111514143Y-57806253D01*
X111693748Y-57985858D01*
X111679605Y-58000000D01*
X111693748Y-58014143D01*
X111514143Y-58193748D01*
X111500000Y-58179605D01*
X109227572Y-60452033D01*
X109545757Y-60905850D01*
X110150210Y-61231269D01*
X110806535Y-61432512D01*
X111489510Y-61501845D01*
X112172888Y-61436605D01*
X112830407Y-61239298D01*
X113436799Y-60917506D01*
X113454243Y-60905850D01*
X113772427Y-60452035D01*
X113840001Y-60519609D01*
X113840001Y-92189950D01*
X113721038Y-92070987D01*
X113567899Y-91968663D01*
X113397739Y-91898181D01*
X113217099Y-91862249D01*
X113032921Y-91862249D01*
X112852281Y-91898181D01*
X112682121Y-91968663D01*
X112528982Y-92070987D01*
X112398748Y-92201221D01*
X112296424Y-92354360D01*
X112225942Y-92524520D01*
X112190010Y-92705160D01*
X112190010Y-92889338D01*
X112225942Y-93069978D01*
X112296424Y-93240138D01*
X112398748Y-93393277D01*
X112528982Y-93523511D01*
X112682121Y-93625835D01*
X112852281Y-93696317D01*
X113032921Y-93732249D01*
X113217099Y-93732249D01*
X113397739Y-93696317D01*
X113567899Y-93625835D01*
X113721038Y-93523511D01*
X113840000Y-93404549D01*
X113840000Y-124480392D01*
X113772427Y-124547965D01*
X113454243Y-124094150D01*
X112849790Y-123768731D01*
X112193465Y-123567488D01*
X111510490Y-123498155D01*
X110827112Y-123563395D01*
X110169593Y-123760702D01*
X109563201Y-124082494D01*
X109545757Y-124094150D01*
X109227572Y-124547967D01*
X111500000Y-126820395D01*
X111514143Y-126806253D01*
X111693748Y-126985858D01*
X111679605Y-127000000D01*
X111693748Y-127014143D01*
X111514143Y-127193748D01*
X111500000Y-127179605D01*
X111485858Y-127193748D01*
X111306253Y-127014143D01*
X111320395Y-127000000D01*
X109047967Y-124727572D01*
X108594150Y-125045757D01*
X108268731Y-125650210D01*
X108067488Y-126306535D01*
X107998155Y-126989510D01*
X108063395Y-127672888D01*
X108260702Y-128330407D01*
X108582494Y-128936799D01*
X108594150Y-128954243D01*
X109047965Y-129272427D01*
X108980392Y-129340000D01*
X90118177Y-129340000D01*
X90201250Y-129260559D01*
X90349019Y-129049761D01*
X90452824Y-128814185D01*
X90508675Y-128562884D01*
X90358573Y-128357000D01*
X89332000Y-128357000D01*
X89332000Y-128377000D01*
X89078000Y-128377000D01*
X89078000Y-128357000D01*
X88051427Y-128357000D01*
X87901325Y-128562884D01*
X87957176Y-128814185D01*
X88060981Y-129049761D01*
X88208750Y-129260559D01*
X88291823Y-129340000D01*
X84658177Y-129340000D01*
X84741250Y-129260559D01*
X84889019Y-129049761D01*
X84992824Y-128814185D01*
X85048675Y-128562884D01*
X84898573Y-128357000D01*
X83872000Y-128357000D01*
X83872000Y-128377000D01*
X83618000Y-128377000D01*
X83618000Y-128357000D01*
X82591427Y-128357000D01*
X82441325Y-128562884D01*
X82497176Y-128814185D01*
X82600981Y-129049761D01*
X82748750Y-129260559D01*
X82831823Y-129340000D01*
X66019608Y-129340000D01*
X65952035Y-129272427D01*
X66405850Y-128954243D01*
X66731269Y-128349790D01*
X66870068Y-127897116D01*
X82441325Y-127897116D01*
X82591427Y-128103000D01*
X83618000Y-128103000D01*
X83618000Y-126910776D01*
X83872000Y-126910776D01*
X83872000Y-128103000D01*
X84898573Y-128103000D01*
X85048675Y-127897116D01*
X87901325Y-127897116D01*
X88051427Y-128103000D01*
X89078000Y-128103000D01*
X89078000Y-126910776D01*
X89332000Y-126910776D01*
X89332000Y-128103000D01*
X90358573Y-128103000D01*
X90508675Y-127897116D01*
X90452824Y-127645815D01*
X90349019Y-127410239D01*
X90201250Y-127199441D01*
X90015196Y-127021522D01*
X89798007Y-126883319D01*
X89558029Y-126790143D01*
X89534400Y-126787090D01*
X89332000Y-126910776D01*
X89078000Y-126910776D01*
X88875600Y-126787090D01*
X88851971Y-126790143D01*
X88611993Y-126883319D01*
X88394804Y-127021522D01*
X88208750Y-127199441D01*
X88060981Y-127410239D01*
X87957176Y-127645815D01*
X87901325Y-127897116D01*
X85048675Y-127897116D01*
X84992824Y-127645815D01*
X84889019Y-127410239D01*
X84741250Y-127199441D01*
X84555196Y-127021522D01*
X84338007Y-126883319D01*
X84098029Y-126790143D01*
X84074400Y-126787090D01*
X83872000Y-126910776D01*
X83618000Y-126910776D01*
X83415600Y-126787090D01*
X83391971Y-126790143D01*
X83151993Y-126883319D01*
X82934804Y-127021522D01*
X82748750Y-127199441D01*
X82600981Y-127410239D01*
X82497176Y-127645815D01*
X82441325Y-127897116D01*
X66870068Y-127897116D01*
X66932512Y-127693465D01*
X67001845Y-127010490D01*
X66936605Y-126327112D01*
X66837513Y-125996891D01*
X70978519Y-125996891D01*
X71075843Y-126271252D01*
X71224822Y-126521355D01*
X71419731Y-126737588D01*
X71653080Y-126911641D01*
X71915901Y-127036825D01*
X72063110Y-127081476D01*
X72293000Y-126960155D01*
X72293000Y-125767000D01*
X71099186Y-125767000D01*
X70978519Y-125996891D01*
X66837513Y-125996891D01*
X66739298Y-125669593D01*
X66417506Y-125063201D01*
X66405850Y-125045757D01*
X65952033Y-124727572D01*
X63679605Y-127000000D01*
X63693748Y-127014143D01*
X63514143Y-127193748D01*
X63500000Y-127179605D01*
X63485858Y-127193748D01*
X63306253Y-127014143D01*
X63320395Y-127000000D01*
X63306253Y-126985858D01*
X63485858Y-126806253D01*
X63500000Y-126820395D01*
X65772428Y-124547967D01*
X65454243Y-124094150D01*
X64849790Y-123768731D01*
X64193465Y-123567488D01*
X63510490Y-123498155D01*
X62827112Y-123563395D01*
X62169593Y-123760702D01*
X61563201Y-124082494D01*
X61545757Y-124094150D01*
X61227573Y-124547965D01*
X61160000Y-124480392D01*
X61160000Y-122953740D01*
X70935000Y-122953740D01*
X70935000Y-123246260D01*
X70992068Y-123533158D01*
X71104010Y-123803411D01*
X71266525Y-124046632D01*
X71473368Y-124253475D01*
X71649406Y-124371100D01*
X71419731Y-124542412D01*
X71224822Y-124758645D01*
X71075843Y-125008748D01*
X70978519Y-125283109D01*
X71099186Y-125513000D01*
X72293000Y-125513000D01*
X72293000Y-125493000D01*
X72547000Y-125493000D01*
X72547000Y-125513000D01*
X72567000Y-125513000D01*
X72567000Y-125767000D01*
X72547000Y-125767000D01*
X72547000Y-126960155D01*
X72776890Y-127081476D01*
X72924099Y-127036825D01*
X73186920Y-126911641D01*
X73420269Y-126737588D01*
X73615178Y-126521355D01*
X73684805Y-126404466D01*
X73806525Y-126586632D01*
X74013368Y-126793475D01*
X74256589Y-126955990D01*
X74526842Y-127067932D01*
X74813740Y-127125000D01*
X75106260Y-127125000D01*
X75393158Y-127067932D01*
X75663411Y-126955990D01*
X75906632Y-126793475D01*
X76113475Y-126586632D01*
X76230000Y-126412240D01*
X76346525Y-126586632D01*
X76553368Y-126793475D01*
X76796589Y-126955990D01*
X77066842Y-127067932D01*
X77353740Y-127125000D01*
X77646260Y-127125000D01*
X77933158Y-127067932D01*
X78203411Y-126955990D01*
X78446632Y-126793475D01*
X78653475Y-126586632D01*
X78815990Y-126343411D01*
X78927932Y-126073158D01*
X78985000Y-125786260D01*
X78985000Y-125543884D01*
X82869316Y-125543884D01*
X82914316Y-125773011D01*
X83003152Y-125988957D01*
X83132410Y-126183422D01*
X83297123Y-126348934D01*
X83490961Y-126479131D01*
X83706474Y-126569011D01*
X83745256Y-126573803D01*
X83928000Y-126448361D01*
X83928000Y-125357000D01*
X84182000Y-125357000D01*
X84182000Y-126448361D01*
X84364744Y-126573803D01*
X84403526Y-126569011D01*
X84619039Y-126479131D01*
X84812877Y-126348934D01*
X84977590Y-126183422D01*
X85106848Y-125988957D01*
X85195684Y-125773011D01*
X85240684Y-125543884D01*
X87709316Y-125543884D01*
X87754316Y-125773011D01*
X87843152Y-125988957D01*
X87972410Y-126183422D01*
X88137123Y-126348934D01*
X88330961Y-126479131D01*
X88546474Y-126569011D01*
X88585256Y-126573803D01*
X88768000Y-126448361D01*
X88768000Y-125357000D01*
X89022000Y-125357000D01*
X89022000Y-126448361D01*
X89204744Y-126573803D01*
X89243526Y-126569011D01*
X89459039Y-126479131D01*
X89652877Y-126348934D01*
X89817590Y-126183422D01*
X89946848Y-125988957D01*
X90035684Y-125773011D01*
X90080684Y-125543884D01*
X89925152Y-125357000D01*
X89022000Y-125357000D01*
X88768000Y-125357000D01*
X87864848Y-125357000D01*
X87709316Y-125543884D01*
X85240684Y-125543884D01*
X85085152Y-125357000D01*
X84182000Y-125357000D01*
X83928000Y-125357000D01*
X83024848Y-125357000D01*
X82869316Y-125543884D01*
X78985000Y-125543884D01*
X78985000Y-125493740D01*
X78936517Y-125250000D01*
X94711928Y-125250000D01*
X94711928Y-126950000D01*
X94724188Y-127074482D01*
X94760498Y-127194180D01*
X94819463Y-127304494D01*
X94898815Y-127401185D01*
X94995506Y-127480537D01*
X95105820Y-127539502D01*
X95225518Y-127575812D01*
X95350000Y-127588072D01*
X97050000Y-127588072D01*
X97174482Y-127575812D01*
X97294180Y-127539502D01*
X97404494Y-127480537D01*
X97501185Y-127401185D01*
X97580537Y-127304494D01*
X97639502Y-127194180D01*
X97663966Y-127113534D01*
X97739731Y-127197588D01*
X97973080Y-127371641D01*
X98235901Y-127496825D01*
X98383110Y-127541476D01*
X98613000Y-127420155D01*
X98613000Y-126227000D01*
X98867000Y-126227000D01*
X98867000Y-127420155D01*
X99096890Y-127541476D01*
X99244099Y-127496825D01*
X99506920Y-127371641D01*
X99740269Y-127197588D01*
X99935178Y-126981355D01*
X100010000Y-126855745D01*
X100084822Y-126981355D01*
X100279731Y-127197588D01*
X100513080Y-127371641D01*
X100775901Y-127496825D01*
X100923110Y-127541476D01*
X101153000Y-127420155D01*
X101153000Y-126227000D01*
X101407000Y-126227000D01*
X101407000Y-127420155D01*
X101636890Y-127541476D01*
X101784099Y-127496825D01*
X102046920Y-127371641D01*
X102280269Y-127197588D01*
X102475178Y-126981355D01*
X102624157Y-126731252D01*
X102721481Y-126456891D01*
X102600814Y-126227000D01*
X101407000Y-126227000D01*
X101153000Y-126227000D01*
X98867000Y-126227000D01*
X98613000Y-126227000D01*
X98593000Y-126227000D01*
X98593000Y-125973000D01*
X98613000Y-125973000D01*
X98613000Y-124779845D01*
X98867000Y-124779845D01*
X98867000Y-125973000D01*
X101153000Y-125973000D01*
X101153000Y-124779845D01*
X101407000Y-124779845D01*
X101407000Y-125973000D01*
X102600814Y-125973000D01*
X102721481Y-125743109D01*
X102624157Y-125468748D01*
X102475178Y-125218645D01*
X102280269Y-125002412D01*
X102046920Y-124828359D01*
X101784099Y-124703175D01*
X101636890Y-124658524D01*
X101407000Y-124779845D01*
X101153000Y-124779845D01*
X100923110Y-124658524D01*
X100775901Y-124703175D01*
X100513080Y-124828359D01*
X100279731Y-125002412D01*
X100084822Y-125218645D01*
X100010000Y-125344255D01*
X99935178Y-125218645D01*
X99740269Y-125002412D01*
X99506920Y-124828359D01*
X99244099Y-124703175D01*
X99096890Y-124658524D01*
X98867000Y-124779845D01*
X98613000Y-124779845D01*
X98383110Y-124658524D01*
X98235901Y-124703175D01*
X97973080Y-124828359D01*
X97739731Y-125002412D01*
X97663966Y-125086466D01*
X97639502Y-125005820D01*
X97580537Y-124895506D01*
X97501185Y-124798815D01*
X97404494Y-124719463D01*
X97294180Y-124660498D01*
X97174482Y-124624188D01*
X97050000Y-124611928D01*
X95350000Y-124611928D01*
X95225518Y-124624188D01*
X95105820Y-124660498D01*
X94995506Y-124719463D01*
X94898815Y-124798815D01*
X94819463Y-124895506D01*
X94760498Y-125005820D01*
X94724188Y-125125518D01*
X94711928Y-125250000D01*
X78936517Y-125250000D01*
X78927932Y-125206842D01*
X78815990Y-124936589D01*
X78802311Y-124916116D01*
X82869316Y-124916116D01*
X83024848Y-125103000D01*
X83928000Y-125103000D01*
X83928000Y-124011639D01*
X84182000Y-124011639D01*
X84182000Y-125103000D01*
X85085152Y-125103000D01*
X85240684Y-124916116D01*
X87709316Y-124916116D01*
X87864848Y-125103000D01*
X88768000Y-125103000D01*
X88768000Y-124011639D01*
X89022000Y-124011639D01*
X89022000Y-125103000D01*
X89925152Y-125103000D01*
X90080684Y-124916116D01*
X90035684Y-124686989D01*
X89946848Y-124471043D01*
X89817590Y-124276578D01*
X89652877Y-124111066D01*
X89459039Y-123980869D01*
X89243526Y-123890989D01*
X89204744Y-123886197D01*
X89022000Y-124011639D01*
X88768000Y-124011639D01*
X88585256Y-123886197D01*
X88546474Y-123890989D01*
X88330961Y-123980869D01*
X88137123Y-124111066D01*
X87972410Y-124276578D01*
X87843152Y-124471043D01*
X87754316Y-124686989D01*
X87709316Y-124916116D01*
X85240684Y-124916116D01*
X85195684Y-124686989D01*
X85106848Y-124471043D01*
X84977590Y-124276578D01*
X84812877Y-124111066D01*
X84619039Y-123980869D01*
X84403526Y-123890989D01*
X84364744Y-123886197D01*
X84182000Y-124011639D01*
X83928000Y-124011639D01*
X83745256Y-123886197D01*
X83706474Y-123890989D01*
X83490961Y-123980869D01*
X83297123Y-124111066D01*
X83132410Y-124276578D01*
X83003152Y-124471043D01*
X82914316Y-124686989D01*
X82869316Y-124916116D01*
X78802311Y-124916116D01*
X78653475Y-124693368D01*
X78521620Y-124561513D01*
X78594180Y-124539502D01*
X78704494Y-124480537D01*
X78801185Y-124401185D01*
X78880537Y-124304494D01*
X78939502Y-124194180D01*
X78975812Y-124074482D01*
X78988072Y-123950000D01*
X78988072Y-122250000D01*
X78975812Y-122125518D01*
X78939502Y-122005820D01*
X78880537Y-121895506D01*
X78801185Y-121798815D01*
X78704494Y-121719463D01*
X78594180Y-121660498D01*
X78474482Y-121624188D01*
X78350000Y-121611928D01*
X76650000Y-121611928D01*
X76525518Y-121624188D01*
X76405820Y-121660498D01*
X76295506Y-121719463D01*
X76198815Y-121798815D01*
X76119463Y-121895506D01*
X76060498Y-122005820D01*
X76038487Y-122078380D01*
X75906632Y-121946525D01*
X75663411Y-121784010D01*
X75393158Y-121672068D01*
X75106260Y-121615000D01*
X74813740Y-121615000D01*
X74526842Y-121672068D01*
X74256589Y-121784010D01*
X74013368Y-121946525D01*
X73806525Y-122153368D01*
X73690000Y-122327760D01*
X73573475Y-122153368D01*
X73366632Y-121946525D01*
X73123411Y-121784010D01*
X72853158Y-121672068D01*
X72566260Y-121615000D01*
X72273740Y-121615000D01*
X71986842Y-121672068D01*
X71716589Y-121784010D01*
X71473368Y-121946525D01*
X71266525Y-122153368D01*
X71104010Y-122396589D01*
X70992068Y-122666842D01*
X70935000Y-122953740D01*
X61160000Y-122953740D01*
X61160000Y-96670000D01*
X63051928Y-96670000D01*
X63051928Y-98370000D01*
X63064188Y-98494482D01*
X63100498Y-98614180D01*
X63159463Y-98724494D01*
X63238815Y-98821185D01*
X63335506Y-98900537D01*
X63445820Y-98959502D01*
X63518380Y-98981513D01*
X63386525Y-99113368D01*
X63224010Y-99356589D01*
X63112068Y-99626842D01*
X63055000Y-99913740D01*
X63055000Y-100206260D01*
X63112068Y-100493158D01*
X63224010Y-100763411D01*
X63386525Y-101006632D01*
X63593368Y-101213475D01*
X63767760Y-101330000D01*
X63593368Y-101446525D01*
X63386525Y-101653368D01*
X63224010Y-101896589D01*
X63112068Y-102166842D01*
X63055000Y-102453740D01*
X63055000Y-102746260D01*
X63112068Y-103033158D01*
X63224010Y-103303411D01*
X63386525Y-103546632D01*
X63593368Y-103753475D01*
X63767760Y-103870000D01*
X63593368Y-103986525D01*
X63386525Y-104193368D01*
X63224010Y-104436589D01*
X63112068Y-104706842D01*
X63055000Y-104993740D01*
X63055000Y-105286260D01*
X63112068Y-105573158D01*
X63224010Y-105843411D01*
X63386525Y-106086632D01*
X63593368Y-106293475D01*
X63767760Y-106410000D01*
X63593368Y-106526525D01*
X63386525Y-106733368D01*
X63224010Y-106976589D01*
X63112068Y-107246842D01*
X63055000Y-107533740D01*
X63055000Y-107826260D01*
X63112068Y-108113158D01*
X63224010Y-108383411D01*
X63386525Y-108626632D01*
X63593368Y-108833475D01*
X63767760Y-108950000D01*
X63593368Y-109066525D01*
X63386525Y-109273368D01*
X63224010Y-109516589D01*
X63112068Y-109786842D01*
X63055000Y-110073740D01*
X63055000Y-110366260D01*
X63112068Y-110653158D01*
X63224010Y-110923411D01*
X63386525Y-111166632D01*
X63593368Y-111373475D01*
X63767760Y-111490000D01*
X63593368Y-111606525D01*
X63386525Y-111813368D01*
X63224010Y-112056589D01*
X63112068Y-112326842D01*
X63055000Y-112613740D01*
X63055000Y-112906260D01*
X63112068Y-113193158D01*
X63224010Y-113463411D01*
X63386525Y-113706632D01*
X63593368Y-113913475D01*
X63767760Y-114030000D01*
X63593368Y-114146525D01*
X63386525Y-114353368D01*
X63224010Y-114596589D01*
X63112068Y-114866842D01*
X63055000Y-115153740D01*
X63055000Y-115446260D01*
X63112068Y-115733158D01*
X63224010Y-116003411D01*
X63386525Y-116246632D01*
X63593368Y-116453475D01*
X63767760Y-116570000D01*
X63593368Y-116686525D01*
X63386525Y-116893368D01*
X63224010Y-117136589D01*
X63112068Y-117406842D01*
X63055000Y-117693740D01*
X63055000Y-117986260D01*
X63112068Y-118273158D01*
X63224010Y-118543411D01*
X63386525Y-118786632D01*
X63593368Y-118993475D01*
X63767760Y-119110000D01*
X63593368Y-119226525D01*
X63386525Y-119433368D01*
X63224010Y-119676589D01*
X63112068Y-119946842D01*
X63055000Y-120233740D01*
X63055000Y-120526260D01*
X63112068Y-120813158D01*
X63224010Y-121083411D01*
X63386525Y-121326632D01*
X63593368Y-121533475D01*
X63836589Y-121695990D01*
X64106842Y-121807932D01*
X64393740Y-121865000D01*
X64686260Y-121865000D01*
X64973158Y-121807932D01*
X65243411Y-121695990D01*
X65486632Y-121533475D01*
X65693475Y-121326632D01*
X65810000Y-121152240D01*
X65926525Y-121326632D01*
X66133368Y-121533475D01*
X66376589Y-121695990D01*
X66646842Y-121807932D01*
X66933740Y-121865000D01*
X67226260Y-121865000D01*
X67513158Y-121807932D01*
X67783411Y-121695990D01*
X67915230Y-121607911D01*
X83065000Y-121607911D01*
X83065000Y-121792089D01*
X83100932Y-121972729D01*
X83171414Y-122142889D01*
X83273738Y-122296028D01*
X83403972Y-122426262D01*
X83557111Y-122528586D01*
X83727271Y-122599068D01*
X83907911Y-122635000D01*
X84092089Y-122635000D01*
X84272729Y-122599068D01*
X84442889Y-122528586D01*
X84596028Y-122426262D01*
X84726262Y-122296028D01*
X84828586Y-122142889D01*
X84899068Y-121972729D01*
X84935000Y-121792089D01*
X84935000Y-121607911D01*
X84899068Y-121427271D01*
X84828586Y-121257111D01*
X84726262Y-121103972D01*
X84596028Y-120973738D01*
X84442889Y-120871414D01*
X84272729Y-120800932D01*
X84092089Y-120765000D01*
X83907911Y-120765000D01*
X83727271Y-120800932D01*
X83557111Y-120871414D01*
X83403972Y-120973738D01*
X83273738Y-121103972D01*
X83171414Y-121257111D01*
X83100932Y-121427271D01*
X83065000Y-121607911D01*
X67915230Y-121607911D01*
X68026632Y-121533475D01*
X68233475Y-121326632D01*
X68395990Y-121083411D01*
X68507932Y-120813158D01*
X68565000Y-120526260D01*
X68565000Y-120233740D01*
X68539971Y-120107911D01*
X77265000Y-120107911D01*
X77265000Y-120292089D01*
X77300932Y-120472729D01*
X77371414Y-120642889D01*
X77473738Y-120796028D01*
X77603972Y-120926262D01*
X77757111Y-121028586D01*
X77927271Y-121099068D01*
X78107911Y-121135000D01*
X78292089Y-121135000D01*
X78472729Y-121099068D01*
X78642889Y-121028586D01*
X78796028Y-120926262D01*
X78926262Y-120796028D01*
X79028586Y-120642889D01*
X79099068Y-120472729D01*
X79135000Y-120292089D01*
X79135000Y-120107911D01*
X79099068Y-119927271D01*
X79028586Y-119757111D01*
X78926262Y-119603972D01*
X78796028Y-119473738D01*
X78642889Y-119371414D01*
X78472729Y-119300932D01*
X78292089Y-119265000D01*
X78107911Y-119265000D01*
X77927271Y-119300932D01*
X77757111Y-119371414D01*
X77603972Y-119473738D01*
X77473738Y-119603972D01*
X77371414Y-119757111D01*
X77300932Y-119927271D01*
X77265000Y-120107911D01*
X68539971Y-120107911D01*
X68507932Y-119946842D01*
X68395990Y-119676589D01*
X68233475Y-119433368D01*
X68026632Y-119226525D01*
X67852240Y-119110000D01*
X68026632Y-118993475D01*
X68233475Y-118786632D01*
X68395990Y-118543411D01*
X68507932Y-118273158D01*
X68565000Y-117986260D01*
X68565000Y-117693740D01*
X68508145Y-117407911D01*
X68765000Y-117407911D01*
X68765000Y-117592089D01*
X68800932Y-117772729D01*
X68871414Y-117942889D01*
X68973738Y-118096028D01*
X69103972Y-118226262D01*
X69257111Y-118328586D01*
X69427271Y-118399068D01*
X69592830Y-118432000D01*
X69600932Y-118472729D01*
X69671414Y-118642889D01*
X69773738Y-118796028D01*
X69903972Y-118926262D01*
X70057111Y-119028586D01*
X70227271Y-119099068D01*
X70407911Y-119135000D01*
X70592089Y-119135000D01*
X70772729Y-119099068D01*
X70942889Y-119028586D01*
X71096028Y-118926262D01*
X71226262Y-118796028D01*
X71328586Y-118642889D01*
X71399068Y-118472729D01*
X71435000Y-118292089D01*
X71435000Y-118107911D01*
X71399068Y-117927271D01*
X71328586Y-117757111D01*
X71226262Y-117603972D01*
X71096028Y-117473738D01*
X70942889Y-117371414D01*
X70772729Y-117300932D01*
X70607170Y-117268000D01*
X70599068Y-117227271D01*
X70528586Y-117057111D01*
X70426262Y-116903972D01*
X70296028Y-116773738D01*
X70197511Y-116707911D01*
X83665000Y-116707911D01*
X83665000Y-116892089D01*
X83700932Y-117072729D01*
X83771414Y-117242889D01*
X83873738Y-117396028D01*
X84003972Y-117526262D01*
X84157111Y-117628586D01*
X84327271Y-117699068D01*
X84507911Y-117735000D01*
X84692089Y-117735000D01*
X84872729Y-117699068D01*
X85042889Y-117628586D01*
X85196028Y-117526262D01*
X85326262Y-117396028D01*
X85428586Y-117242889D01*
X85499068Y-117072729D01*
X85535000Y-116892089D01*
X85535000Y-116707911D01*
X85499068Y-116527271D01*
X85428586Y-116357111D01*
X85326262Y-116203972D01*
X85196028Y-116073738D01*
X85042889Y-115971414D01*
X84872729Y-115900932D01*
X84692089Y-115865000D01*
X84507911Y-115865000D01*
X84327271Y-115900932D01*
X84157111Y-115971414D01*
X84003972Y-116073738D01*
X83873738Y-116203972D01*
X83771414Y-116357111D01*
X83700932Y-116527271D01*
X83665000Y-116707911D01*
X70197511Y-116707911D01*
X70142889Y-116671414D01*
X69972729Y-116600932D01*
X69792089Y-116565000D01*
X69607911Y-116565000D01*
X69427271Y-116600932D01*
X69257111Y-116671414D01*
X69103972Y-116773738D01*
X68973738Y-116903972D01*
X68871414Y-117057111D01*
X68800932Y-117227271D01*
X68765000Y-117407911D01*
X68508145Y-117407911D01*
X68507932Y-117406842D01*
X68395990Y-117136589D01*
X68233475Y-116893368D01*
X68026632Y-116686525D01*
X67852240Y-116570000D01*
X68026632Y-116453475D01*
X68233475Y-116246632D01*
X68395990Y-116003411D01*
X68507932Y-115733158D01*
X68565000Y-115446260D01*
X68565000Y-115153740D01*
X68516102Y-114907911D01*
X73364980Y-114907911D01*
X73364980Y-115092089D01*
X73400912Y-115272729D01*
X73471394Y-115442889D01*
X73573718Y-115596028D01*
X73703952Y-115726262D01*
X73857091Y-115828586D01*
X74027251Y-115899068D01*
X74207891Y-115935000D01*
X74392069Y-115935000D01*
X74572709Y-115899068D01*
X74742869Y-115828586D01*
X74896008Y-115726262D01*
X75026242Y-115596028D01*
X75128566Y-115442889D01*
X75199048Y-115272729D01*
X75226444Y-115135000D01*
X75292089Y-115135000D01*
X75472729Y-115099068D01*
X75642889Y-115028586D01*
X75796028Y-114926262D01*
X75926262Y-114796028D01*
X76028586Y-114642889D01*
X76099068Y-114472729D01*
X76135000Y-114292089D01*
X76135000Y-114235000D01*
X76192089Y-114235000D01*
X76372729Y-114199068D01*
X76542889Y-114128586D01*
X76696028Y-114026262D01*
X76826262Y-113896028D01*
X76928586Y-113742889D01*
X76999068Y-113572729D01*
X77035000Y-113392089D01*
X77035000Y-113335012D01*
X77092089Y-113335012D01*
X77272729Y-113299080D01*
X77442889Y-113228598D01*
X77596028Y-113126274D01*
X77726262Y-112996040D01*
X77828586Y-112842901D01*
X77899068Y-112672741D01*
X77935000Y-112492101D01*
X77935000Y-112307923D01*
X77899068Y-112127283D01*
X77828586Y-111957123D01*
X77726262Y-111803984D01*
X77596028Y-111673750D01*
X77442889Y-111571426D01*
X77272729Y-111500944D01*
X77092089Y-111465012D01*
X76907911Y-111465012D01*
X76727271Y-111500944D01*
X76557111Y-111571426D01*
X76403972Y-111673750D01*
X76273738Y-111803984D01*
X76171414Y-111957123D01*
X76100932Y-112127283D01*
X76065000Y-112307923D01*
X76065000Y-112365000D01*
X76007911Y-112365000D01*
X75827271Y-112400932D01*
X75657111Y-112471414D01*
X75503972Y-112573738D01*
X75373738Y-112703972D01*
X75271414Y-112857111D01*
X75200932Y-113027271D01*
X75165000Y-113207911D01*
X75165000Y-113265000D01*
X75107911Y-113265000D01*
X74927271Y-113300932D01*
X74757111Y-113371414D01*
X74603972Y-113473738D01*
X74473738Y-113603972D01*
X74371414Y-113757111D01*
X74300932Y-113927271D01*
X74273536Y-114065000D01*
X74207891Y-114065000D01*
X74027251Y-114100932D01*
X73857091Y-114171414D01*
X73703952Y-114273738D01*
X73573718Y-114403972D01*
X73471394Y-114557111D01*
X73400912Y-114727271D01*
X73364980Y-114907911D01*
X68516102Y-114907911D01*
X68507932Y-114866842D01*
X68395990Y-114596589D01*
X68233475Y-114353368D01*
X68026632Y-114146525D01*
X67852240Y-114030000D01*
X68026632Y-113913475D01*
X68233475Y-113706632D01*
X68395990Y-113463411D01*
X68507932Y-113193158D01*
X68565000Y-112906260D01*
X68565000Y-112613740D01*
X68507932Y-112326842D01*
X68395990Y-112056589D01*
X68233475Y-111813368D01*
X68026632Y-111606525D01*
X67852240Y-111490000D01*
X68026632Y-111373475D01*
X68233475Y-111166632D01*
X68395990Y-110923411D01*
X68507932Y-110653158D01*
X68565000Y-110366260D01*
X68565000Y-110073740D01*
X68507932Y-109786842D01*
X68395990Y-109516589D01*
X68233475Y-109273368D01*
X68026632Y-109066525D01*
X67852240Y-108950000D01*
X68026632Y-108833475D01*
X68233475Y-108626632D01*
X68395990Y-108383411D01*
X68507932Y-108113158D01*
X68565000Y-107826260D01*
X68565000Y-107533740D01*
X68520080Y-107307911D01*
X80065000Y-107307911D01*
X80065000Y-107492089D01*
X80100932Y-107672729D01*
X80171414Y-107842889D01*
X80273738Y-107996028D01*
X80403972Y-108126262D01*
X80557111Y-108228586D01*
X80727271Y-108299068D01*
X80907911Y-108335000D01*
X81092089Y-108335000D01*
X81272729Y-108299068D01*
X81442889Y-108228586D01*
X81596028Y-108126262D01*
X81714387Y-108007903D01*
X82165000Y-108007903D01*
X82165000Y-108192081D01*
X82200932Y-108372721D01*
X82271414Y-108542881D01*
X82373738Y-108696020D01*
X82503972Y-108826254D01*
X82657111Y-108928578D01*
X82827271Y-108999060D01*
X83007911Y-109034992D01*
X83179503Y-109034992D01*
X83165000Y-109107903D01*
X83165000Y-109292081D01*
X83200932Y-109472721D01*
X83271414Y-109642881D01*
X83373738Y-109796020D01*
X83503972Y-109926254D01*
X83657111Y-110028578D01*
X83827271Y-110099060D01*
X84007911Y-110134992D01*
X84192089Y-110134992D01*
X84372729Y-110099060D01*
X84542889Y-110028578D01*
X84696028Y-109926254D01*
X84826262Y-109796020D01*
X84849997Y-109760498D01*
X84873738Y-109796028D01*
X85003972Y-109926262D01*
X85157111Y-110028586D01*
X85327271Y-110099068D01*
X85507911Y-110135000D01*
X85692089Y-110135000D01*
X85872729Y-110099068D01*
X86042889Y-110028586D01*
X86196028Y-109926262D01*
X86326262Y-109796028D01*
X86428586Y-109642889D01*
X86499068Y-109472729D01*
X86535000Y-109292089D01*
X86535000Y-109107911D01*
X86535000Y-109107907D01*
X88064978Y-109107907D01*
X88064978Y-109292085D01*
X88100910Y-109472725D01*
X88171392Y-109642885D01*
X88273716Y-109796024D01*
X88403950Y-109926258D01*
X88557089Y-110028582D01*
X88727249Y-110099064D01*
X88907889Y-110134996D01*
X89092067Y-110134996D01*
X89272707Y-110099064D01*
X89442867Y-110028582D01*
X89596006Y-109926258D01*
X89726240Y-109796024D01*
X89823941Y-109649804D01*
X89835821Y-109678486D01*
X89938145Y-109831625D01*
X90068379Y-109961859D01*
X90221518Y-110064183D01*
X90391678Y-110134665D01*
X90572318Y-110170597D01*
X90756496Y-110170597D01*
X90937136Y-110134665D01*
X91107296Y-110064183D01*
X91260435Y-109961859D01*
X91390669Y-109831625D01*
X91492993Y-109678486D01*
X91563475Y-109508326D01*
X91599407Y-109327686D01*
X91599407Y-109143508D01*
X91574560Y-109018595D01*
X91672729Y-108999068D01*
X91842889Y-108928586D01*
X91996028Y-108826262D01*
X92126262Y-108696028D01*
X92228586Y-108542889D01*
X92243074Y-108507911D01*
X94039990Y-108507911D01*
X94039990Y-108692089D01*
X94075922Y-108872729D01*
X94146404Y-109042889D01*
X94248728Y-109196028D01*
X94378962Y-109326262D01*
X94532101Y-109428586D01*
X94702261Y-109499068D01*
X94882901Y-109535000D01*
X95067079Y-109535000D01*
X95247719Y-109499068D01*
X95417879Y-109428586D01*
X95571018Y-109326262D01*
X95701252Y-109196028D01*
X95803576Y-109042889D01*
X95874058Y-108872729D01*
X95909990Y-108692089D01*
X95909990Y-108507911D01*
X95907798Y-108496890D01*
X97758524Y-108496890D01*
X97803175Y-108644099D01*
X97928359Y-108906920D01*
X98102412Y-109140269D01*
X98318645Y-109335178D01*
X98568748Y-109484157D01*
X98843109Y-109581481D01*
X99073000Y-109460814D01*
X99073000Y-108267000D01*
X99327000Y-108267000D01*
X99327000Y-109460814D01*
X99556891Y-109581481D01*
X99831252Y-109484157D01*
X100081355Y-109335178D01*
X100297588Y-109140269D01*
X100471641Y-108906920D01*
X100596825Y-108644099D01*
X100641476Y-108496890D01*
X100520155Y-108267000D01*
X99327000Y-108267000D01*
X99073000Y-108267000D01*
X97879845Y-108267000D01*
X97758524Y-108496890D01*
X95907798Y-108496890D01*
X95874058Y-108327271D01*
X95803576Y-108157111D01*
X95701252Y-108003972D01*
X95571018Y-107873738D01*
X95417879Y-107771414D01*
X95247719Y-107700932D01*
X95067079Y-107665000D01*
X94882901Y-107665000D01*
X94702261Y-107700932D01*
X94532101Y-107771414D01*
X94378962Y-107873738D01*
X94248728Y-108003972D01*
X94146404Y-108157111D01*
X94075922Y-108327271D01*
X94039990Y-108507911D01*
X92243074Y-108507911D01*
X92299068Y-108372729D01*
X92335000Y-108192089D01*
X92335000Y-108007911D01*
X92299068Y-107827271D01*
X92228586Y-107657111D01*
X92126262Y-107503972D01*
X91996028Y-107373738D01*
X91842889Y-107271414D01*
X91672729Y-107200932D01*
X91492089Y-107165000D01*
X91307911Y-107165000D01*
X91127271Y-107200932D01*
X90957111Y-107271414D01*
X90803972Y-107373738D01*
X90673738Y-107503972D01*
X90600000Y-107614329D01*
X90526262Y-107503972D01*
X90396028Y-107373738D01*
X90242889Y-107271414D01*
X90072729Y-107200932D01*
X89892089Y-107165000D01*
X89707911Y-107165000D01*
X89527271Y-107200932D01*
X89357111Y-107271414D01*
X89203972Y-107373738D01*
X89073738Y-107503972D01*
X88971414Y-107657111D01*
X88900932Y-107827271D01*
X88865000Y-108007911D01*
X88865000Y-108192089D01*
X88880583Y-108270428D01*
X88727249Y-108300928D01*
X88557089Y-108371410D01*
X88403950Y-108473734D01*
X88273716Y-108603968D01*
X88171392Y-108757107D01*
X88100910Y-108927267D01*
X88064978Y-109107907D01*
X86535000Y-109107907D01*
X86512099Y-108992784D01*
X86527271Y-108999068D01*
X86707911Y-109035000D01*
X86892089Y-109035000D01*
X87072729Y-108999068D01*
X87242889Y-108928586D01*
X87396028Y-108826262D01*
X87526262Y-108696028D01*
X87628586Y-108542889D01*
X87699068Y-108372729D01*
X87735000Y-108192089D01*
X87735000Y-108007911D01*
X87699068Y-107827271D01*
X87628586Y-107657111D01*
X87526262Y-107503972D01*
X87396028Y-107373738D01*
X87242889Y-107271414D01*
X87072729Y-107200932D01*
X86892089Y-107165000D01*
X86707911Y-107165000D01*
X86527271Y-107200932D01*
X86357111Y-107271414D01*
X86203972Y-107373738D01*
X86073738Y-107503972D01*
X85971414Y-107657111D01*
X85900932Y-107827271D01*
X85865000Y-108007911D01*
X85865000Y-108192089D01*
X85887901Y-108307216D01*
X85872729Y-108300932D01*
X85815604Y-108289569D01*
X85834994Y-108192089D01*
X85834994Y-108007911D01*
X85799062Y-107827271D01*
X85728580Y-107657111D01*
X85626256Y-107503972D01*
X85496022Y-107373738D01*
X85342883Y-107271414D01*
X85172723Y-107200932D01*
X84992083Y-107165000D01*
X84807905Y-107165000D01*
X84627265Y-107200932D01*
X84457105Y-107271414D01*
X84303966Y-107373738D01*
X84173732Y-107503972D01*
X84071408Y-107657111D01*
X84000926Y-107827271D01*
X83999998Y-107831937D01*
X83999068Y-107827263D01*
X83928586Y-107657103D01*
X83826262Y-107503964D01*
X83696028Y-107373730D01*
X83542889Y-107271406D01*
X83372729Y-107200924D01*
X83192089Y-107164992D01*
X83007911Y-107164992D01*
X82827271Y-107200924D01*
X82657111Y-107271406D01*
X82503972Y-107373730D01*
X82373738Y-107503964D01*
X82271414Y-107657103D01*
X82200932Y-107827263D01*
X82165000Y-108007903D01*
X81714387Y-108007903D01*
X81726262Y-107996028D01*
X81828586Y-107842889D01*
X81899068Y-107672729D01*
X81935000Y-107492089D01*
X81935000Y-107307911D01*
X81899068Y-107127271D01*
X81828586Y-106957111D01*
X81726262Y-106803972D01*
X81596028Y-106673738D01*
X81442889Y-106571414D01*
X81272729Y-106500932D01*
X81092089Y-106465000D01*
X80907911Y-106465000D01*
X80727271Y-106500932D01*
X80557111Y-106571414D01*
X80403972Y-106673738D01*
X80273738Y-106803972D01*
X80171414Y-106957111D01*
X80100932Y-107127271D01*
X80065000Y-107307911D01*
X68520080Y-107307911D01*
X68507932Y-107246842D01*
X68395990Y-106976589D01*
X68233475Y-106733368D01*
X68026632Y-106526525D01*
X67852240Y-106410000D01*
X68026632Y-106293475D01*
X68212196Y-106107911D01*
X71965000Y-106107911D01*
X71965000Y-106292089D01*
X72000932Y-106472729D01*
X72071414Y-106642889D01*
X72173738Y-106796028D01*
X72303972Y-106926262D01*
X72457111Y-107028586D01*
X72627271Y-107099068D01*
X72807911Y-107135000D01*
X72992089Y-107135000D01*
X73172729Y-107099068D01*
X73342889Y-107028586D01*
X73496028Y-106926262D01*
X73626262Y-106796028D01*
X73728586Y-106642889D01*
X73799068Y-106472729D01*
X73835000Y-106292089D01*
X73835000Y-106107911D01*
X73799068Y-105927271D01*
X73728586Y-105757111D01*
X73626262Y-105603972D01*
X73496028Y-105473738D01*
X73342889Y-105371414D01*
X73172729Y-105300932D01*
X72992089Y-105265000D01*
X72807911Y-105265000D01*
X72627271Y-105300932D01*
X72457111Y-105371414D01*
X72303972Y-105473738D01*
X72173738Y-105603972D01*
X72071414Y-105757111D01*
X72000932Y-105927271D01*
X71965000Y-106107911D01*
X68212196Y-106107911D01*
X68233475Y-106086632D01*
X68395990Y-105843411D01*
X68507932Y-105573158D01*
X68565000Y-105286260D01*
X68565000Y-105007911D01*
X91064994Y-105007911D01*
X91064994Y-105192089D01*
X91100926Y-105372729D01*
X91171408Y-105542889D01*
X91273732Y-105696028D01*
X91403966Y-105826262D01*
X91557105Y-105928586D01*
X91727265Y-105999068D01*
X91907905Y-106035000D01*
X92092083Y-106035000D01*
X92272723Y-105999068D01*
X92442883Y-105928586D01*
X92596022Y-105826262D01*
X92726256Y-105696028D01*
X92828580Y-105542889D01*
X92899062Y-105372729D01*
X92934994Y-105192089D01*
X92934994Y-105007911D01*
X92899062Y-104827271D01*
X92867056Y-104750000D01*
X97711928Y-104750000D01*
X97711928Y-106450000D01*
X97724188Y-106574482D01*
X97760498Y-106694180D01*
X97819463Y-106804494D01*
X97898815Y-106901185D01*
X97995506Y-106980537D01*
X98105820Y-107039502D01*
X98186466Y-107063966D01*
X98102412Y-107139731D01*
X97928359Y-107373080D01*
X97803175Y-107635901D01*
X97758524Y-107783110D01*
X97879845Y-108013000D01*
X99073000Y-108013000D01*
X99073000Y-107993000D01*
X99327000Y-107993000D01*
X99327000Y-108013000D01*
X100520155Y-108013000D01*
X100641476Y-107783110D01*
X100596825Y-107635901D01*
X100471641Y-107373080D01*
X100297588Y-107139731D01*
X100213534Y-107063966D01*
X100294180Y-107039502D01*
X100404494Y-106980537D01*
X100501185Y-106901185D01*
X100580537Y-106804494D01*
X100639502Y-106694180D01*
X100675812Y-106574482D01*
X100688072Y-106450000D01*
X100688072Y-104750000D01*
X100675812Y-104625518D01*
X100639502Y-104505820D01*
X100580537Y-104395506D01*
X100501185Y-104298815D01*
X100404494Y-104219463D01*
X100294180Y-104160498D01*
X100174482Y-104124188D01*
X100050000Y-104111928D01*
X98350000Y-104111928D01*
X98225518Y-104124188D01*
X98105820Y-104160498D01*
X97995506Y-104219463D01*
X97898815Y-104298815D01*
X97819463Y-104395506D01*
X97760498Y-104505820D01*
X97724188Y-104625518D01*
X97711928Y-104750000D01*
X92867056Y-104750000D01*
X92828580Y-104657111D01*
X92726256Y-104503972D01*
X92596022Y-104373738D01*
X92442883Y-104271414D01*
X92272723Y-104200932D01*
X92092083Y-104165000D01*
X91907905Y-104165000D01*
X91727265Y-104200932D01*
X91557105Y-104271414D01*
X91403966Y-104373738D01*
X91273732Y-104503972D01*
X91171408Y-104657111D01*
X91100926Y-104827271D01*
X91064994Y-105007911D01*
X68565000Y-105007911D01*
X68565000Y-104993740D01*
X68507932Y-104706842D01*
X68395990Y-104436589D01*
X68233475Y-104193368D01*
X68026632Y-103986525D01*
X67852240Y-103870000D01*
X68026632Y-103753475D01*
X68233475Y-103546632D01*
X68395990Y-103303411D01*
X68507932Y-103033158D01*
X68532845Y-102907911D01*
X73065000Y-102907911D01*
X73065000Y-103092089D01*
X73100932Y-103272729D01*
X73171414Y-103442889D01*
X73273738Y-103596028D01*
X73403972Y-103726262D01*
X73557111Y-103828586D01*
X73727271Y-103899068D01*
X73907911Y-103935000D01*
X74092089Y-103935000D01*
X74272729Y-103899068D01*
X74442889Y-103828586D01*
X74596028Y-103726262D01*
X74726262Y-103596028D01*
X74828586Y-103442889D01*
X74899068Y-103272729D01*
X74927881Y-103127878D01*
X75072729Y-103099066D01*
X75242889Y-103028584D01*
X75396028Y-102926260D01*
X75526262Y-102796026D01*
X75628586Y-102642887D01*
X75699068Y-102472727D01*
X75735000Y-102292087D01*
X75735000Y-102232921D01*
X80764990Y-102232921D01*
X80764990Y-102417099D01*
X80800922Y-102597739D01*
X80871404Y-102767899D01*
X80973728Y-102921038D01*
X81103962Y-103051272D01*
X81257101Y-103153596D01*
X81427261Y-103224078D01*
X81607901Y-103260010D01*
X81792079Y-103260010D01*
X81972719Y-103224078D01*
X82142879Y-103153596D01*
X82296018Y-103051272D01*
X82426252Y-102921038D01*
X82528576Y-102767899D01*
X82599058Y-102597739D01*
X82634990Y-102417099D01*
X82634990Y-102232921D01*
X82599058Y-102052281D01*
X82598056Y-102049860D01*
X88206949Y-102049860D01*
X88206949Y-102234038D01*
X88242881Y-102414678D01*
X88313363Y-102584838D01*
X88415687Y-102737977D01*
X88545921Y-102868211D01*
X88699060Y-102970535D01*
X88869220Y-103041017D01*
X89049860Y-103076949D01*
X89234038Y-103076949D01*
X89414678Y-103041017D01*
X89584838Y-102970535D01*
X89737977Y-102868211D01*
X89804449Y-102801739D01*
X89928982Y-102926272D01*
X90082121Y-103028596D01*
X90252281Y-103099078D01*
X90432921Y-103135010D01*
X90617099Y-103135010D01*
X90797739Y-103099078D01*
X90967899Y-103028596D01*
X91121038Y-102926272D01*
X91251272Y-102796038D01*
X91310156Y-102707911D01*
X91965002Y-102707911D01*
X91965002Y-102892089D01*
X92000934Y-103072729D01*
X92071416Y-103242889D01*
X92173740Y-103396028D01*
X92303974Y-103526262D01*
X92457113Y-103628586D01*
X92627273Y-103699068D01*
X92807913Y-103735000D01*
X92992091Y-103735000D01*
X93172731Y-103699068D01*
X93342891Y-103628586D01*
X93496030Y-103526262D01*
X93626264Y-103396028D01*
X93728588Y-103242889D01*
X93799070Y-103072729D01*
X93835002Y-102892089D01*
X93835002Y-102707911D01*
X93799070Y-102527271D01*
X93728588Y-102357111D01*
X93626264Y-102203972D01*
X93496030Y-102073738D01*
X93342891Y-101971414D01*
X93172731Y-101900932D01*
X92992091Y-101865000D01*
X92807913Y-101865000D01*
X92627273Y-101900932D01*
X92457113Y-101971414D01*
X92303974Y-102073738D01*
X92173740Y-102203972D01*
X92071416Y-102357111D01*
X92000934Y-102527271D01*
X91965002Y-102707911D01*
X91310156Y-102707911D01*
X91353596Y-102642899D01*
X91424078Y-102472739D01*
X91460010Y-102292099D01*
X91460010Y-102107921D01*
X91424078Y-101927281D01*
X91353596Y-101757121D01*
X91251272Y-101603982D01*
X91121038Y-101473748D01*
X90967899Y-101371424D01*
X90874944Y-101332921D01*
X94065000Y-101332921D01*
X94065000Y-101517099D01*
X94100932Y-101697739D01*
X94171414Y-101867899D01*
X94273738Y-102021038D01*
X94403972Y-102151272D01*
X94557111Y-102253596D01*
X94727271Y-102324078D01*
X94907911Y-102360010D01*
X95092089Y-102360010D01*
X95272729Y-102324078D01*
X95442889Y-102253596D01*
X95596028Y-102151272D01*
X95726262Y-102021038D01*
X95828586Y-101867899D01*
X95899068Y-101697739D01*
X95935000Y-101517099D01*
X95935000Y-101332921D01*
X95899068Y-101152281D01*
X95828586Y-100982121D01*
X95726262Y-100828982D01*
X95596028Y-100698748D01*
X95442889Y-100596424D01*
X95272729Y-100525942D01*
X95092089Y-100490010D01*
X94907911Y-100490010D01*
X94727271Y-100525942D01*
X94557111Y-100596424D01*
X94403972Y-100698748D01*
X94273738Y-100828982D01*
X94171414Y-100982121D01*
X94100932Y-101152281D01*
X94065000Y-101332921D01*
X90874944Y-101332921D01*
X90797739Y-101300942D01*
X90750347Y-101291515D01*
X90728509Y-101181728D01*
X90658027Y-101011568D01*
X90555703Y-100858429D01*
X90425469Y-100728195D01*
X90272330Y-100625871D01*
X90102170Y-100555389D01*
X89921530Y-100519457D01*
X89737352Y-100519457D01*
X89556712Y-100555389D01*
X89386552Y-100625871D01*
X89233413Y-100728195D01*
X89103179Y-100858429D01*
X89000855Y-101011568D01*
X88930373Y-101181728D01*
X88920227Y-101232735D01*
X88869220Y-101242881D01*
X88699060Y-101313363D01*
X88545921Y-101415687D01*
X88415687Y-101545921D01*
X88313363Y-101699060D01*
X88242881Y-101869220D01*
X88206949Y-102049860D01*
X82598056Y-102049860D01*
X82528576Y-101882121D01*
X82426252Y-101728982D01*
X82296018Y-101598748D01*
X82142879Y-101496424D01*
X81972719Y-101425942D01*
X81792079Y-101390010D01*
X81607901Y-101390010D01*
X81427261Y-101425942D01*
X81257101Y-101496424D01*
X81103962Y-101598748D01*
X80973728Y-101728982D01*
X80871404Y-101882121D01*
X80800922Y-102052281D01*
X80764990Y-102232921D01*
X75735000Y-102232921D01*
X75735000Y-102107909D01*
X75699068Y-101927269D01*
X75628586Y-101757109D01*
X75526262Y-101603970D01*
X75396028Y-101473736D01*
X75242889Y-101371412D01*
X75072729Y-101300930D01*
X74892089Y-101264998D01*
X74707911Y-101264998D01*
X74527271Y-101300930D01*
X74357111Y-101371412D01*
X74203972Y-101473736D01*
X74073738Y-101603970D01*
X73971414Y-101757109D01*
X73900932Y-101927269D01*
X73872119Y-102072120D01*
X73727271Y-102100932D01*
X73557111Y-102171414D01*
X73403972Y-102273738D01*
X73273738Y-102403972D01*
X73171414Y-102557111D01*
X73100932Y-102727271D01*
X73065000Y-102907911D01*
X68532845Y-102907911D01*
X68565000Y-102746260D01*
X68565000Y-102453740D01*
X68507932Y-102166842D01*
X68395990Y-101896589D01*
X68233475Y-101653368D01*
X68026632Y-101446525D01*
X67844466Y-101324805D01*
X67961355Y-101255178D01*
X68013793Y-101207911D01*
X68765000Y-101207911D01*
X68765000Y-101392089D01*
X68800932Y-101572729D01*
X68871414Y-101742889D01*
X68973738Y-101896028D01*
X69103972Y-102026262D01*
X69257111Y-102128586D01*
X69427271Y-102199068D01*
X69607911Y-102235000D01*
X69792089Y-102235000D01*
X69972729Y-102199068D01*
X70142889Y-102128586D01*
X70296028Y-102026262D01*
X70426262Y-101896028D01*
X70528586Y-101742889D01*
X70599068Y-101572729D01*
X70635000Y-101392089D01*
X70635000Y-101207911D01*
X70599068Y-101027271D01*
X70528586Y-100857111D01*
X70426262Y-100703972D01*
X70296028Y-100573738D01*
X70142889Y-100471414D01*
X69972729Y-100400932D01*
X69792089Y-100365000D01*
X69607911Y-100365000D01*
X69427271Y-100400932D01*
X69257111Y-100471414D01*
X69103972Y-100573738D01*
X68973738Y-100703972D01*
X68871414Y-100857111D01*
X68800932Y-101027271D01*
X68765000Y-101207911D01*
X68013793Y-101207911D01*
X68177588Y-101060269D01*
X68351641Y-100826920D01*
X68476825Y-100564099D01*
X68521476Y-100416890D01*
X68400155Y-100187000D01*
X67207000Y-100187000D01*
X67207000Y-100207000D01*
X66953000Y-100207000D01*
X66953000Y-100187000D01*
X66933000Y-100187000D01*
X66933000Y-99933000D01*
X66953000Y-99933000D01*
X66953000Y-99913000D01*
X67207000Y-99913000D01*
X67207000Y-99933000D01*
X68400155Y-99933000D01*
X68466168Y-99807911D01*
X70364990Y-99807911D01*
X70364990Y-99992089D01*
X70400922Y-100172729D01*
X70471404Y-100342889D01*
X70573728Y-100496028D01*
X70703962Y-100626262D01*
X70857101Y-100728586D01*
X71027261Y-100799068D01*
X71207901Y-100835000D01*
X71392079Y-100835000D01*
X71572719Y-100799068D01*
X71742879Y-100728586D01*
X71896018Y-100626262D01*
X72026252Y-100496028D01*
X72128576Y-100342889D01*
X72199058Y-100172729D01*
X72234990Y-99992089D01*
X72234990Y-99807911D01*
X72199058Y-99627271D01*
X72128576Y-99457111D01*
X72026252Y-99303972D01*
X71896018Y-99173738D01*
X71742879Y-99071414D01*
X71572719Y-99000932D01*
X71392079Y-98965000D01*
X71207901Y-98965000D01*
X71027261Y-99000932D01*
X70857101Y-99071414D01*
X70703962Y-99173738D01*
X70573728Y-99303972D01*
X70471404Y-99457111D01*
X70400922Y-99627271D01*
X70364990Y-99807911D01*
X68466168Y-99807911D01*
X68521476Y-99703110D01*
X68476825Y-99555901D01*
X68351641Y-99293080D01*
X68177588Y-99059731D01*
X67961355Y-98864822D01*
X67865807Y-98807907D01*
X77965000Y-98807907D01*
X77965000Y-98992085D01*
X78000932Y-99172725D01*
X78053653Y-99300005D01*
X78000932Y-99427286D01*
X77965000Y-99607926D01*
X77965000Y-99792104D01*
X78000932Y-99972744D01*
X78053652Y-100100022D01*
X78000932Y-100227299D01*
X77965000Y-100407939D01*
X77965000Y-100592117D01*
X78000932Y-100772757D01*
X78071414Y-100942917D01*
X78173738Y-101096056D01*
X78303972Y-101226290D01*
X78457111Y-101328614D01*
X78627271Y-101399096D01*
X78807911Y-101435028D01*
X78992089Y-101435028D01*
X79172729Y-101399096D01*
X79342889Y-101328614D01*
X79496028Y-101226290D01*
X79626262Y-101096056D01*
X79728586Y-100942917D01*
X79799068Y-100772757D01*
X79835000Y-100592117D01*
X79835000Y-100407939D01*
X79799068Y-100227299D01*
X79746348Y-100100022D01*
X79799068Y-99972744D01*
X79835000Y-99792104D01*
X79835000Y-99607926D01*
X79799068Y-99427286D01*
X79746347Y-99300005D01*
X79799068Y-99172725D01*
X79835000Y-98992085D01*
X79835000Y-98807907D01*
X79799068Y-98627267D01*
X79728586Y-98457107D01*
X79626262Y-98303968D01*
X79496028Y-98173734D01*
X79342889Y-98071410D01*
X79172729Y-98000928D01*
X78992089Y-97964996D01*
X78807911Y-97964996D01*
X78627271Y-98000928D01*
X78457111Y-98071410D01*
X78303972Y-98173734D01*
X78173738Y-98303968D01*
X78071414Y-98457107D01*
X78000932Y-98627267D01*
X77965000Y-98807907D01*
X67865807Y-98807907D01*
X67844466Y-98795195D01*
X68026632Y-98673475D01*
X68233475Y-98466632D01*
X68395990Y-98223411D01*
X68507932Y-97953158D01*
X68565000Y-97666260D01*
X68565000Y-97373740D01*
X68551906Y-97307911D01*
X72765000Y-97307911D01*
X72765000Y-97492089D01*
X72800932Y-97672729D01*
X72871414Y-97842889D01*
X72973738Y-97996028D01*
X73103972Y-98126262D01*
X73257111Y-98228586D01*
X73427271Y-98299068D01*
X73607911Y-98335000D01*
X73792089Y-98335000D01*
X73972729Y-98299068D01*
X74142889Y-98228586D01*
X74296028Y-98126262D01*
X74426262Y-97996028D01*
X74528586Y-97842889D01*
X74599068Y-97672729D01*
X74635000Y-97492089D01*
X74635000Y-97307911D01*
X74599068Y-97127271D01*
X74528586Y-96957111D01*
X74426262Y-96803972D01*
X74296028Y-96673738D01*
X74142889Y-96571414D01*
X73972729Y-96500932D01*
X73792089Y-96465000D01*
X73607911Y-96465000D01*
X73427271Y-96500932D01*
X73257111Y-96571414D01*
X73103972Y-96673738D01*
X72973738Y-96803972D01*
X72871414Y-96957111D01*
X72800932Y-97127271D01*
X72765000Y-97307911D01*
X68551906Y-97307911D01*
X68507932Y-97086842D01*
X68395990Y-96816589D01*
X68233475Y-96573368D01*
X68026632Y-96366525D01*
X67783411Y-96204010D01*
X67513158Y-96092068D01*
X67226260Y-96035000D01*
X66933740Y-96035000D01*
X66646842Y-96092068D01*
X66376589Y-96204010D01*
X66133368Y-96366525D01*
X66001513Y-96498380D01*
X65979502Y-96425820D01*
X65920537Y-96315506D01*
X65841185Y-96218815D01*
X65744494Y-96139463D01*
X65634180Y-96080498D01*
X65514482Y-96044188D01*
X65390000Y-96031928D01*
X63690000Y-96031928D01*
X63565518Y-96044188D01*
X63445820Y-96080498D01*
X63335506Y-96139463D01*
X63238815Y-96218815D01*
X63159463Y-96315506D01*
X63100498Y-96425820D01*
X63064188Y-96545518D01*
X63051928Y-96670000D01*
X61160000Y-96670000D01*
X61160000Y-94807911D01*
X72065000Y-94807911D01*
X72065000Y-94992089D01*
X72100932Y-95172729D01*
X72171414Y-95342889D01*
X72273738Y-95496028D01*
X72403972Y-95626262D01*
X72557111Y-95728586D01*
X72727271Y-95799068D01*
X72907911Y-95835000D01*
X73092089Y-95835000D01*
X73272729Y-95799068D01*
X73442889Y-95728586D01*
X73596028Y-95626262D01*
X73726262Y-95496028D01*
X73750000Y-95460502D01*
X73773738Y-95496028D01*
X73903972Y-95626262D01*
X74057111Y-95728586D01*
X74227271Y-95799068D01*
X74407911Y-95835000D01*
X74592089Y-95835000D01*
X74772729Y-95799068D01*
X74841480Y-95770591D01*
X74871423Y-95842880D01*
X74909583Y-95899990D01*
X74871420Y-95957105D01*
X74800938Y-96127265D01*
X74765006Y-96307905D01*
X74765006Y-96492083D01*
X74800938Y-96672723D01*
X74871420Y-96842883D01*
X74876170Y-96849993D01*
X74871414Y-96857111D01*
X74800932Y-97027271D01*
X74765000Y-97207911D01*
X74765000Y-97392089D01*
X74800932Y-97572729D01*
X74871414Y-97742889D01*
X74973738Y-97896028D01*
X75103972Y-98026262D01*
X75257111Y-98128586D01*
X75427271Y-98199068D01*
X75607911Y-98235000D01*
X75792089Y-98235000D01*
X75972729Y-98199068D01*
X76142889Y-98128586D01*
X76296028Y-98026262D01*
X76426262Y-97896028D01*
X76528586Y-97742889D01*
X76599068Y-97572729D01*
X76635000Y-97392089D01*
X76635000Y-97207911D01*
X76599068Y-97027271D01*
X76549628Y-96907911D01*
X77865000Y-96907911D01*
X77865000Y-97092089D01*
X77900932Y-97272729D01*
X77971414Y-97442889D01*
X78073738Y-97596028D01*
X78203972Y-97726262D01*
X78357111Y-97828586D01*
X78527271Y-97899068D01*
X78707911Y-97935000D01*
X78892089Y-97935000D01*
X79072729Y-97899068D01*
X79242889Y-97828586D01*
X79396028Y-97726262D01*
X79526262Y-97596028D01*
X79628586Y-97442889D01*
X79699068Y-97272729D01*
X79735000Y-97092089D01*
X79735000Y-96907911D01*
X79699068Y-96727271D01*
X79628586Y-96557111D01*
X79596996Y-96509833D01*
X79635763Y-96451814D01*
X79706245Y-96281654D01*
X79742177Y-96101014D01*
X79742177Y-95916836D01*
X79706245Y-95736196D01*
X79635763Y-95566036D01*
X79533439Y-95412897D01*
X79403205Y-95282663D01*
X79250066Y-95180339D01*
X79079906Y-95109857D01*
X78899266Y-95073925D01*
X78715088Y-95073925D01*
X78534448Y-95109857D01*
X78364288Y-95180339D01*
X78211149Y-95282663D01*
X78080915Y-95412897D01*
X77978591Y-95566036D01*
X77908109Y-95736196D01*
X77872177Y-95916836D01*
X77872177Y-96101014D01*
X77908109Y-96281654D01*
X77978591Y-96451814D01*
X78010181Y-96499092D01*
X77971414Y-96557111D01*
X77900932Y-96727271D01*
X77865000Y-96907911D01*
X76549628Y-96907911D01*
X76528586Y-96857111D01*
X76523836Y-96850001D01*
X76528592Y-96842883D01*
X76599074Y-96672723D01*
X76635006Y-96492083D01*
X76635006Y-96307905D01*
X76599074Y-96127265D01*
X76528592Y-95957105D01*
X76490432Y-95899995D01*
X76528595Y-95842880D01*
X76599077Y-95672720D01*
X76635009Y-95492080D01*
X76635009Y-95307902D01*
X76599077Y-95127262D01*
X76528595Y-94957102D01*
X76426271Y-94803963D01*
X76296037Y-94673729D01*
X76142898Y-94571405D01*
X75972738Y-94500923D01*
X75792098Y-94464991D01*
X75607920Y-94464991D01*
X75427280Y-94500923D01*
X75358529Y-94529400D01*
X75328586Y-94457111D01*
X75226262Y-94303972D01*
X75096028Y-94173738D01*
X74942889Y-94071414D01*
X74772729Y-94000932D01*
X74592089Y-93965000D01*
X74407911Y-93965000D01*
X74227271Y-94000932D01*
X74057111Y-94071414D01*
X73903972Y-94173738D01*
X73773738Y-94303972D01*
X73750000Y-94339498D01*
X73726262Y-94303972D01*
X73596028Y-94173738D01*
X73442889Y-94071414D01*
X73272729Y-94000932D01*
X73092089Y-93965000D01*
X72907911Y-93965000D01*
X72727271Y-94000932D01*
X72557111Y-94071414D01*
X72403972Y-94173738D01*
X72273738Y-94303972D01*
X72171414Y-94457111D01*
X72100932Y-94627271D01*
X72065000Y-94807911D01*
X61160000Y-94807911D01*
X61160000Y-92098061D01*
X63565000Y-92098061D01*
X63565000Y-92301939D01*
X63604774Y-92501898D01*
X63682795Y-92690256D01*
X63796063Y-92859774D01*
X63940226Y-93003937D01*
X64109744Y-93117205D01*
X64298102Y-93195226D01*
X64498061Y-93235000D01*
X64701939Y-93235000D01*
X64901898Y-93195226D01*
X65090256Y-93117205D01*
X65259774Y-93003937D01*
X65403937Y-92859774D01*
X65517205Y-92690256D01*
X65595226Y-92501898D01*
X65635000Y-92301939D01*
X65635000Y-92098061D01*
X65595226Y-91898102D01*
X65517205Y-91709744D01*
X65403937Y-91540226D01*
X65259774Y-91396063D01*
X65090256Y-91282795D01*
X64901898Y-91204774D01*
X64701939Y-91165000D01*
X64498061Y-91165000D01*
X64298102Y-91204774D01*
X64109744Y-91282795D01*
X63940226Y-91396063D01*
X63796063Y-91540226D01*
X63682795Y-91709744D01*
X63604774Y-91898102D01*
X63565000Y-92098061D01*
X61160000Y-92098061D01*
X61160000Y-89707911D01*
X70165000Y-89707911D01*
X70165000Y-89892089D01*
X70200932Y-90072729D01*
X70271414Y-90242889D01*
X70373738Y-90396028D01*
X70503972Y-90526262D01*
X70657111Y-90628586D01*
X70827271Y-90699068D01*
X71007911Y-90735000D01*
X71192089Y-90735000D01*
X71372729Y-90699068D01*
X71542889Y-90628586D01*
X71696028Y-90526262D01*
X71826262Y-90396028D01*
X71928586Y-90242889D01*
X71999068Y-90072729D01*
X72035000Y-89892089D01*
X72035000Y-89707911D01*
X71999068Y-89527271D01*
X71928586Y-89357111D01*
X71826262Y-89203972D01*
X71730201Y-89107911D01*
X75165000Y-89107911D01*
X75165000Y-89292089D01*
X75200932Y-89472729D01*
X75271414Y-89642889D01*
X75373738Y-89796028D01*
X75503972Y-89926262D01*
X75614329Y-90000000D01*
X75503972Y-90073738D01*
X75373738Y-90203972D01*
X75271414Y-90357111D01*
X75200932Y-90527271D01*
X75165000Y-90707911D01*
X75165000Y-90892089D01*
X75200932Y-91072729D01*
X75271414Y-91242889D01*
X75373738Y-91396028D01*
X75477710Y-91500000D01*
X75373738Y-91603972D01*
X75271414Y-91757111D01*
X75200932Y-91927271D01*
X75165000Y-92107911D01*
X75165000Y-92292089D01*
X75200932Y-92472729D01*
X75271414Y-92642889D01*
X75373738Y-92796028D01*
X75503972Y-92926262D01*
X75657111Y-93028586D01*
X75827271Y-93099068D01*
X76007911Y-93135000D01*
X76192089Y-93135000D01*
X76372729Y-93099068D01*
X76542889Y-93028586D01*
X76696028Y-92926262D01*
X76739379Y-92882911D01*
X81337520Y-92882911D01*
X81337520Y-93067089D01*
X81373452Y-93247729D01*
X81443934Y-93417889D01*
X81546258Y-93571028D01*
X81676492Y-93701262D01*
X81829631Y-93803586D01*
X81999791Y-93874068D01*
X82012207Y-93876538D01*
X82042890Y-94030789D01*
X82113372Y-94200949D01*
X82215696Y-94354088D01*
X82345930Y-94484322D01*
X82499069Y-94586646D01*
X82669229Y-94657128D01*
X82730661Y-94669348D01*
X82742881Y-94730780D01*
X82813363Y-94900940D01*
X82915687Y-95054079D01*
X82969656Y-95108048D01*
X82873732Y-95203972D01*
X82771408Y-95357111D01*
X82700926Y-95527271D01*
X82664994Y-95707911D01*
X82664994Y-95892089D01*
X82700926Y-96072729D01*
X82771408Y-96242889D01*
X82873732Y-96396028D01*
X83003966Y-96526262D01*
X83157105Y-96628586D01*
X83160304Y-96629911D01*
X83160304Y-96696293D01*
X83196236Y-96876933D01*
X83266718Y-97047093D01*
X83369042Y-97200232D01*
X83499276Y-97330466D01*
X83652415Y-97432790D01*
X83822575Y-97503272D01*
X84003215Y-97539204D01*
X84187393Y-97539204D01*
X84368033Y-97503272D01*
X84538193Y-97432790D01*
X84691332Y-97330466D01*
X84821566Y-97200232D01*
X84821811Y-97199864D01*
X93856945Y-97199864D01*
X93856945Y-97384042D01*
X93892877Y-97564682D01*
X93963359Y-97734842D01*
X94065683Y-97887981D01*
X94195917Y-98018215D01*
X94349056Y-98120539D01*
X94519216Y-98191021D01*
X94699856Y-98226953D01*
X94884034Y-98226953D01*
X95064674Y-98191021D01*
X95234834Y-98120539D01*
X95387973Y-98018215D01*
X95518207Y-97887981D01*
X95620531Y-97734842D01*
X95691013Y-97564682D01*
X95726945Y-97384042D01*
X95726945Y-97199864D01*
X95691013Y-97019224D01*
X95620531Y-96849064D01*
X95518207Y-96695925D01*
X95387973Y-96565691D01*
X95234834Y-96463367D01*
X95064674Y-96392885D01*
X94884034Y-96356953D01*
X94699856Y-96356953D01*
X94519216Y-96392885D01*
X94349056Y-96463367D01*
X94195917Y-96565691D01*
X94065683Y-96695925D01*
X93963359Y-96849064D01*
X93892877Y-97019224D01*
X93856945Y-97199864D01*
X84821811Y-97199864D01*
X84923890Y-97047093D01*
X84994372Y-96876933D01*
X85022605Y-96735000D01*
X85192089Y-96735000D01*
X85372729Y-96699068D01*
X85542889Y-96628586D01*
X85696028Y-96526262D01*
X85826262Y-96396028D01*
X85928586Y-96242889D01*
X85999068Y-96072729D01*
X86035000Y-95892089D01*
X86035000Y-95707911D01*
X85999068Y-95527271D01*
X85928586Y-95357111D01*
X85826262Y-95203972D01*
X85696028Y-95073738D01*
X85542889Y-94971414D01*
X85372729Y-94900932D01*
X85207172Y-94868000D01*
X85199070Y-94827271D01*
X85128588Y-94657111D01*
X85026264Y-94503972D01*
X84896030Y-94373738D01*
X84742891Y-94271414D01*
X84589580Y-94207911D01*
X86865000Y-94207911D01*
X86865000Y-94392089D01*
X86900932Y-94572729D01*
X86971414Y-94742889D01*
X87073738Y-94896028D01*
X87203972Y-95026262D01*
X87357111Y-95128586D01*
X87365000Y-95131854D01*
X87365000Y-95192089D01*
X87400932Y-95372729D01*
X87471414Y-95542889D01*
X87573738Y-95696028D01*
X87703972Y-95826262D01*
X87857111Y-95928586D01*
X88027271Y-95999068D01*
X88207911Y-96035000D01*
X88392089Y-96035000D01*
X88572729Y-95999068D01*
X88742889Y-95928586D01*
X88896028Y-95826262D01*
X89026262Y-95696028D01*
X89128586Y-95542889D01*
X89199068Y-95372729D01*
X89235000Y-95192089D01*
X89235000Y-95007911D01*
X89199068Y-94827271D01*
X89128586Y-94657111D01*
X89026262Y-94503972D01*
X88896028Y-94373738D01*
X88742889Y-94271414D01*
X88735000Y-94268146D01*
X88735000Y-94207911D01*
X88699068Y-94027271D01*
X88628586Y-93857111D01*
X88526262Y-93703972D01*
X88396028Y-93573738D01*
X88322877Y-93524860D01*
X91381949Y-93524860D01*
X91381949Y-93709038D01*
X91417881Y-93889678D01*
X91488363Y-94059838D01*
X91590687Y-94212977D01*
X91720921Y-94343211D01*
X91874060Y-94445535D01*
X92044220Y-94516017D01*
X92224860Y-94551949D01*
X92409038Y-94551949D01*
X92589678Y-94516017D01*
X92759838Y-94445535D01*
X92912977Y-94343211D01*
X93043211Y-94212977D01*
X93145535Y-94059838D01*
X93208464Y-93907911D01*
X96190010Y-93907911D01*
X96190010Y-94092089D01*
X96225942Y-94272729D01*
X96296424Y-94442889D01*
X96398748Y-94596028D01*
X96528982Y-94726262D01*
X96682121Y-94828586D01*
X96852281Y-94899068D01*
X97032921Y-94935000D01*
X97217099Y-94935000D01*
X97397739Y-94899068D01*
X97567899Y-94828586D01*
X97721038Y-94726262D01*
X97851272Y-94596028D01*
X97953596Y-94442889D01*
X98024078Y-94272729D01*
X98060010Y-94092089D01*
X98060010Y-93907911D01*
X98024078Y-93727271D01*
X97953596Y-93557111D01*
X97851272Y-93403972D01*
X97721038Y-93273738D01*
X97567899Y-93171414D01*
X97397739Y-93100932D01*
X97217099Y-93065000D01*
X97032921Y-93065000D01*
X96852281Y-93100932D01*
X96682121Y-93171414D01*
X96528982Y-93273738D01*
X96398748Y-93403972D01*
X96296424Y-93557111D01*
X96225942Y-93727271D01*
X96190010Y-93907911D01*
X93208464Y-93907911D01*
X93216017Y-93889678D01*
X93251949Y-93709038D01*
X93251949Y-93524860D01*
X93216017Y-93344220D01*
X93145535Y-93174060D01*
X93043211Y-93020921D01*
X92912977Y-92890687D01*
X92759838Y-92788363D01*
X92589678Y-92717881D01*
X92409038Y-92681949D01*
X92224860Y-92681949D01*
X92044220Y-92717881D01*
X91874060Y-92788363D01*
X91720921Y-92890687D01*
X91590687Y-93020921D01*
X91488363Y-93174060D01*
X91417881Y-93344220D01*
X91381949Y-93524860D01*
X88322877Y-93524860D01*
X88242889Y-93471414D01*
X88072729Y-93400932D01*
X87892089Y-93365000D01*
X87707911Y-93365000D01*
X87527271Y-93400932D01*
X87357111Y-93471414D01*
X87203972Y-93573738D01*
X87073738Y-93703972D01*
X86971414Y-93857111D01*
X86900932Y-94027271D01*
X86865000Y-94207911D01*
X84589580Y-94207911D01*
X84572731Y-94200932D01*
X84542943Y-94195007D01*
X84541017Y-94185322D01*
X84470535Y-94015162D01*
X84368211Y-93862023D01*
X84237977Y-93731789D01*
X84084838Y-93629465D01*
X83914678Y-93558983D01*
X83853246Y-93546763D01*
X83841026Y-93485331D01*
X83770544Y-93315171D01*
X83668220Y-93162032D01*
X83537986Y-93031798D01*
X83384847Y-92929474D01*
X83214687Y-92858992D01*
X83202271Y-92856522D01*
X83171588Y-92702271D01*
X83101106Y-92532111D01*
X82998782Y-92378972D01*
X82868548Y-92248738D01*
X82715409Y-92146414D01*
X82545249Y-92075932D01*
X82364609Y-92040000D01*
X82180431Y-92040000D01*
X81999791Y-92075932D01*
X81829631Y-92146414D01*
X81676492Y-92248738D01*
X81546258Y-92378972D01*
X81443934Y-92532111D01*
X81373452Y-92702271D01*
X81337520Y-92882911D01*
X76739379Y-92882911D01*
X76826262Y-92796028D01*
X76928586Y-92642889D01*
X76999068Y-92472729D01*
X77035000Y-92292089D01*
X77035000Y-92107911D01*
X76999068Y-91927271D01*
X76928586Y-91757111D01*
X76826262Y-91603972D01*
X76722290Y-91500000D01*
X76826262Y-91396028D01*
X76928586Y-91242889D01*
X76999068Y-91072729D01*
X77035000Y-90892089D01*
X77035000Y-90707911D01*
X76999068Y-90527271D01*
X76928586Y-90357111D01*
X76826262Y-90203972D01*
X76696028Y-90073738D01*
X76585671Y-90000000D01*
X76696028Y-89926262D01*
X76826262Y-89796028D01*
X76928586Y-89642889D01*
X76999068Y-89472729D01*
X77035000Y-89292089D01*
X77035000Y-89107911D01*
X78465000Y-89107911D01*
X78465000Y-89292089D01*
X78500932Y-89472729D01*
X78571414Y-89642889D01*
X78673738Y-89796028D01*
X78803972Y-89926262D01*
X78957111Y-90028586D01*
X79127271Y-90099068D01*
X79307911Y-90135000D01*
X79492089Y-90135000D01*
X79672729Y-90099068D01*
X79842889Y-90028586D01*
X79996028Y-89926262D01*
X80126262Y-89796028D01*
X80228586Y-89642889D01*
X80299068Y-89472729D01*
X80335000Y-89292089D01*
X80335000Y-89107911D01*
X80299068Y-88927271D01*
X80228586Y-88757111D01*
X80126262Y-88603972D01*
X79996028Y-88473738D01*
X79842889Y-88371414D01*
X79672729Y-88300932D01*
X79492089Y-88265000D01*
X79307911Y-88265000D01*
X79127271Y-88300932D01*
X78957111Y-88371414D01*
X78803972Y-88473738D01*
X78673738Y-88603972D01*
X78571414Y-88757111D01*
X78500932Y-88927271D01*
X78465000Y-89107911D01*
X77035000Y-89107911D01*
X76999068Y-88927271D01*
X76928586Y-88757111D01*
X76826262Y-88603972D01*
X76696028Y-88473738D01*
X76542889Y-88371414D01*
X76372729Y-88300932D01*
X76192089Y-88265000D01*
X76007911Y-88265000D01*
X75827271Y-88300932D01*
X75657111Y-88371414D01*
X75503972Y-88473738D01*
X75373738Y-88603972D01*
X75271414Y-88757111D01*
X75200932Y-88927271D01*
X75165000Y-89107911D01*
X71730201Y-89107911D01*
X71696028Y-89073738D01*
X71542889Y-88971414D01*
X71372729Y-88900932D01*
X71192089Y-88865000D01*
X71007911Y-88865000D01*
X70827271Y-88900932D01*
X70657111Y-88971414D01*
X70503972Y-89073738D01*
X70373738Y-89203972D01*
X70271414Y-89357111D01*
X70200932Y-89527271D01*
X70165000Y-89707911D01*
X61160000Y-89707911D01*
X61160000Y-86907911D01*
X68165000Y-86907911D01*
X68165000Y-87092089D01*
X68200932Y-87272729D01*
X68271414Y-87442889D01*
X68373738Y-87596028D01*
X68503972Y-87726262D01*
X68657111Y-87828586D01*
X68827271Y-87899068D01*
X69007911Y-87935000D01*
X69192089Y-87935000D01*
X69372729Y-87899068D01*
X69542889Y-87828586D01*
X69696028Y-87726262D01*
X69826262Y-87596028D01*
X69928586Y-87442889D01*
X69999068Y-87272729D01*
X70011961Y-87207911D01*
X86064990Y-87207911D01*
X86064990Y-87392089D01*
X86100922Y-87572729D01*
X86171404Y-87742889D01*
X86242978Y-87850007D01*
X86171414Y-87957111D01*
X86100932Y-88127271D01*
X86065000Y-88307911D01*
X86065000Y-88492089D01*
X86100932Y-88672729D01*
X86171414Y-88842889D01*
X86209574Y-88900000D01*
X86171414Y-88957111D01*
X86100932Y-89127271D01*
X86065000Y-89307911D01*
X86065000Y-89492089D01*
X86100932Y-89672729D01*
X86171414Y-89842889D01*
X86273738Y-89996028D01*
X86403972Y-90126262D01*
X86557111Y-90228586D01*
X86727271Y-90299068D01*
X86907911Y-90335000D01*
X87092089Y-90335000D01*
X87272729Y-90299068D01*
X87442889Y-90228586D01*
X87596028Y-90126262D01*
X87657795Y-90064495D01*
X94842556Y-90064495D01*
X94842556Y-90248673D01*
X94878488Y-90429313D01*
X94948970Y-90599473D01*
X95051294Y-90752612D01*
X95181528Y-90882846D01*
X95334667Y-90985170D01*
X95504827Y-91055652D01*
X95685467Y-91091584D01*
X95869645Y-91091584D01*
X96036170Y-91058460D01*
X96103972Y-91126262D01*
X96257111Y-91228586D01*
X96427271Y-91299068D01*
X96607911Y-91335000D01*
X96792089Y-91335000D01*
X96972729Y-91299068D01*
X97142889Y-91228586D01*
X97173831Y-91207911D01*
X102265000Y-91207911D01*
X102265000Y-91392089D01*
X102300932Y-91572729D01*
X102371414Y-91742889D01*
X102473738Y-91896028D01*
X102603972Y-92026262D01*
X102757111Y-92128586D01*
X102927271Y-92199068D01*
X103065000Y-92226464D01*
X103065000Y-92292089D01*
X103100932Y-92472729D01*
X103171414Y-92642889D01*
X103273738Y-92796028D01*
X103403972Y-92926262D01*
X103557111Y-93028586D01*
X103727271Y-93099068D01*
X103768000Y-93107170D01*
X103800932Y-93272729D01*
X103871414Y-93442889D01*
X103973738Y-93596028D01*
X104103972Y-93726262D01*
X104257111Y-93828586D01*
X104365000Y-93873275D01*
X104365000Y-93892089D01*
X104400932Y-94072729D01*
X104471414Y-94242889D01*
X104573738Y-94396028D01*
X104703972Y-94526262D01*
X104857111Y-94628586D01*
X105027271Y-94699068D01*
X105068000Y-94707170D01*
X105100932Y-94872727D01*
X105171414Y-95042887D01*
X105273738Y-95196026D01*
X105403972Y-95326260D01*
X105557111Y-95428584D01*
X105682599Y-95480562D01*
X105700932Y-95572729D01*
X105771414Y-95742889D01*
X105873738Y-95896028D01*
X106003972Y-96026262D01*
X106157111Y-96128586D01*
X106327271Y-96199068D01*
X106420323Y-96217577D01*
X106418815Y-96218815D01*
X106339463Y-96315506D01*
X106280498Y-96425820D01*
X106244188Y-96545518D01*
X106231928Y-96670000D01*
X106231928Y-98370000D01*
X106244188Y-98494482D01*
X106280498Y-98614180D01*
X106339463Y-98724494D01*
X106418815Y-98821185D01*
X106515506Y-98900537D01*
X106625820Y-98959502D01*
X106698380Y-98981513D01*
X106566525Y-99113368D01*
X106404010Y-99356589D01*
X106292068Y-99626842D01*
X106235000Y-99913740D01*
X106235000Y-100206260D01*
X106292068Y-100493158D01*
X106404010Y-100763411D01*
X106566525Y-101006632D01*
X106773368Y-101213475D01*
X106947760Y-101330000D01*
X106773368Y-101446525D01*
X106566525Y-101653368D01*
X106404010Y-101896589D01*
X106292068Y-102166842D01*
X106235000Y-102453740D01*
X106235000Y-102746260D01*
X106292068Y-103033158D01*
X106404010Y-103303411D01*
X106566525Y-103546632D01*
X106773368Y-103753475D01*
X106947760Y-103870000D01*
X106773368Y-103986525D01*
X106566525Y-104193368D01*
X106404010Y-104436589D01*
X106292068Y-104706842D01*
X106235000Y-104993740D01*
X106235000Y-105286260D01*
X106292068Y-105573158D01*
X106404010Y-105843411D01*
X106566525Y-106086632D01*
X106773368Y-106293475D01*
X106947760Y-106410000D01*
X106773368Y-106526525D01*
X106566525Y-106733368D01*
X106404010Y-106976589D01*
X106292068Y-107246842D01*
X106235000Y-107533740D01*
X106235000Y-107826260D01*
X106292068Y-108113158D01*
X106404010Y-108383411D01*
X106566525Y-108626632D01*
X106773368Y-108833475D01*
X106947760Y-108950000D01*
X106773368Y-109066525D01*
X106566525Y-109273368D01*
X106404010Y-109516589D01*
X106292068Y-109786842D01*
X106235000Y-110073740D01*
X106235000Y-110366260D01*
X106292068Y-110653158D01*
X106404010Y-110923411D01*
X106566525Y-111166632D01*
X106773368Y-111373475D01*
X106947760Y-111490000D01*
X106773368Y-111606525D01*
X106566525Y-111813368D01*
X106404010Y-112056589D01*
X106292068Y-112326842D01*
X106235000Y-112613740D01*
X106235000Y-112906260D01*
X106292068Y-113193158D01*
X106404010Y-113463411D01*
X106566525Y-113706632D01*
X106773368Y-113913475D01*
X106947760Y-114030000D01*
X106773368Y-114146525D01*
X106566525Y-114353368D01*
X106404010Y-114596589D01*
X106292068Y-114866842D01*
X106235000Y-115153740D01*
X106235000Y-115446260D01*
X106292068Y-115733158D01*
X106404010Y-116003411D01*
X106566525Y-116246632D01*
X106773368Y-116453475D01*
X106947760Y-116570000D01*
X106773368Y-116686525D01*
X106566525Y-116893368D01*
X106404010Y-117136589D01*
X106292068Y-117406842D01*
X106262084Y-117557583D01*
X106226262Y-117503972D01*
X106096028Y-117373738D01*
X105942889Y-117271414D01*
X105772729Y-117200932D01*
X105592089Y-117165000D01*
X105407911Y-117165000D01*
X105227271Y-117200932D01*
X105057111Y-117271414D01*
X104903972Y-117373738D01*
X104773738Y-117503972D01*
X104671414Y-117657111D01*
X104600932Y-117827271D01*
X104565000Y-118007911D01*
X104565000Y-118192089D01*
X104600932Y-118372729D01*
X104671414Y-118542889D01*
X104773738Y-118696028D01*
X104903972Y-118826262D01*
X105057111Y-118928586D01*
X105227271Y-118999068D01*
X105407911Y-119035000D01*
X105592089Y-119035000D01*
X105772729Y-118999068D01*
X105942889Y-118928586D01*
X106096028Y-118826262D01*
X106226262Y-118696028D01*
X106328586Y-118542889D01*
X106366190Y-118452105D01*
X106404010Y-118543411D01*
X106566525Y-118786632D01*
X106773368Y-118993475D01*
X106947760Y-119110000D01*
X106773368Y-119226525D01*
X106566525Y-119433368D01*
X106404010Y-119676589D01*
X106292068Y-119946842D01*
X106235000Y-120233740D01*
X106235000Y-120526260D01*
X106292068Y-120813158D01*
X106404010Y-121083411D01*
X106566525Y-121326632D01*
X106773368Y-121533475D01*
X107016589Y-121695990D01*
X107286842Y-121807932D01*
X107573740Y-121865000D01*
X107866260Y-121865000D01*
X108153158Y-121807932D01*
X108423411Y-121695990D01*
X108666632Y-121533475D01*
X108873475Y-121326632D01*
X108990000Y-121152240D01*
X109106525Y-121326632D01*
X109313368Y-121533475D01*
X109556589Y-121695990D01*
X109826842Y-121807932D01*
X110113740Y-121865000D01*
X110406260Y-121865000D01*
X110693158Y-121807932D01*
X110963411Y-121695990D01*
X111206632Y-121533475D01*
X111413475Y-121326632D01*
X111575990Y-121083411D01*
X111687932Y-120813158D01*
X111745000Y-120526260D01*
X111745000Y-120233740D01*
X111687932Y-119946842D01*
X111575990Y-119676589D01*
X111413475Y-119433368D01*
X111206632Y-119226525D01*
X111032240Y-119110000D01*
X111206632Y-118993475D01*
X111413475Y-118786632D01*
X111575990Y-118543411D01*
X111687932Y-118273158D01*
X111745000Y-117986260D01*
X111745000Y-117693740D01*
X111687932Y-117406842D01*
X111575990Y-117136589D01*
X111413475Y-116893368D01*
X111206632Y-116686525D01*
X111032240Y-116570000D01*
X111206632Y-116453475D01*
X111413475Y-116246632D01*
X111575990Y-116003411D01*
X111687932Y-115733158D01*
X111745000Y-115446260D01*
X111745000Y-115153740D01*
X111687932Y-114866842D01*
X111575990Y-114596589D01*
X111413475Y-114353368D01*
X111206632Y-114146525D01*
X111032240Y-114030000D01*
X111206632Y-113913475D01*
X111413475Y-113706632D01*
X111575990Y-113463411D01*
X111687932Y-113193158D01*
X111745000Y-112906260D01*
X111745000Y-112613740D01*
X111687932Y-112326842D01*
X111575990Y-112056589D01*
X111413475Y-111813368D01*
X111206632Y-111606525D01*
X111032240Y-111490000D01*
X111206632Y-111373475D01*
X111413475Y-111166632D01*
X111575990Y-110923411D01*
X111687932Y-110653158D01*
X111745000Y-110366260D01*
X111745000Y-110073740D01*
X111687932Y-109786842D01*
X111575990Y-109516589D01*
X111413475Y-109273368D01*
X111206632Y-109066525D01*
X111032240Y-108950000D01*
X111206632Y-108833475D01*
X111413475Y-108626632D01*
X111575990Y-108383411D01*
X111687932Y-108113158D01*
X111745000Y-107826260D01*
X111745000Y-107533740D01*
X111687932Y-107246842D01*
X111575990Y-106976589D01*
X111413475Y-106733368D01*
X111206632Y-106526525D01*
X111032240Y-106410000D01*
X111206632Y-106293475D01*
X111413475Y-106086632D01*
X111575990Y-105843411D01*
X111687932Y-105573158D01*
X111745000Y-105286260D01*
X111745000Y-104993740D01*
X111687932Y-104706842D01*
X111575990Y-104436589D01*
X111413475Y-104193368D01*
X111206632Y-103986525D01*
X111032240Y-103870000D01*
X111206632Y-103753475D01*
X111413475Y-103546632D01*
X111575990Y-103303411D01*
X111687932Y-103033158D01*
X111745000Y-102746260D01*
X111745000Y-102453740D01*
X111687932Y-102166842D01*
X111575990Y-101896589D01*
X111413475Y-101653368D01*
X111206632Y-101446525D01*
X111032240Y-101330000D01*
X111206632Y-101213475D01*
X111413475Y-101006632D01*
X111575990Y-100763411D01*
X111687932Y-100493158D01*
X111745000Y-100206260D01*
X111745000Y-99913740D01*
X111687932Y-99626842D01*
X111575990Y-99356589D01*
X111413475Y-99113368D01*
X111206632Y-98906525D01*
X111024466Y-98784805D01*
X111141355Y-98715178D01*
X111357588Y-98520269D01*
X111531641Y-98286920D01*
X111656825Y-98024099D01*
X111701476Y-97876890D01*
X111580155Y-97647000D01*
X110387000Y-97647000D01*
X110387000Y-97667000D01*
X110133000Y-97667000D01*
X110133000Y-97647000D01*
X110113000Y-97647000D01*
X110113000Y-97393000D01*
X110133000Y-97393000D01*
X110133000Y-96199186D01*
X110387000Y-96199186D01*
X110387000Y-97393000D01*
X111580155Y-97393000D01*
X111701476Y-97163110D01*
X111656825Y-97015901D01*
X111531641Y-96753080D01*
X111357588Y-96519731D01*
X111141355Y-96324822D01*
X110891252Y-96175843D01*
X110616891Y-96078519D01*
X110387000Y-96199186D01*
X110133000Y-96199186D01*
X109903109Y-96078519D01*
X109628748Y-96175843D01*
X109378645Y-96324822D01*
X109182498Y-96501626D01*
X109159502Y-96425820D01*
X109100537Y-96315506D01*
X109021185Y-96218815D01*
X108924494Y-96139463D01*
X108814180Y-96080498D01*
X108694482Y-96044188D01*
X108570000Y-96031928D01*
X107187548Y-96031928D01*
X107196028Y-96026262D01*
X107326262Y-95896028D01*
X107428586Y-95742889D01*
X107499068Y-95572729D01*
X107535000Y-95392089D01*
X107535000Y-95207911D01*
X107499068Y-95027271D01*
X107428586Y-94857111D01*
X107326262Y-94703972D01*
X107196028Y-94573738D01*
X107042889Y-94471414D01*
X106917401Y-94419436D01*
X106899068Y-94327269D01*
X106828586Y-94157109D01*
X106726262Y-94003970D01*
X106596028Y-93873736D01*
X106442889Y-93771412D01*
X106272729Y-93700930D01*
X106232000Y-93692828D01*
X106199068Y-93527271D01*
X106128586Y-93357111D01*
X106026262Y-93203972D01*
X105896028Y-93073738D01*
X105742889Y-92971414D01*
X105635000Y-92926725D01*
X105635000Y-92907911D01*
X105599068Y-92727271D01*
X105528586Y-92557111D01*
X105426262Y-92403972D01*
X105296028Y-92273738D01*
X105142889Y-92171414D01*
X104972729Y-92100932D01*
X104932000Y-92092830D01*
X104899068Y-91927271D01*
X104828586Y-91757111D01*
X104726262Y-91603972D01*
X104596028Y-91473738D01*
X104497511Y-91407911D01*
X109165000Y-91407911D01*
X109165000Y-91592089D01*
X109200932Y-91772729D01*
X109271414Y-91942889D01*
X109373738Y-92096028D01*
X109503972Y-92226262D01*
X109657111Y-92328586D01*
X109827271Y-92399068D01*
X110007911Y-92435000D01*
X110192089Y-92435000D01*
X110352356Y-92403120D01*
X110300932Y-92527271D01*
X110265000Y-92707911D01*
X110265000Y-92892089D01*
X110300932Y-93072729D01*
X110371414Y-93242889D01*
X110473738Y-93396028D01*
X110603972Y-93526262D01*
X110757111Y-93628586D01*
X110927271Y-93699068D01*
X111107911Y-93735000D01*
X111292089Y-93735000D01*
X111472729Y-93699068D01*
X111642889Y-93628586D01*
X111796028Y-93526262D01*
X111926262Y-93396028D01*
X112028586Y-93242889D01*
X112099068Y-93072729D01*
X112135000Y-92892089D01*
X112135000Y-92707911D01*
X112099068Y-92527271D01*
X112028586Y-92357111D01*
X111926262Y-92203972D01*
X111796028Y-92073738D01*
X111642889Y-91971414D01*
X111472729Y-91900932D01*
X111292089Y-91865000D01*
X111107911Y-91865000D01*
X110947644Y-91896880D01*
X110999068Y-91772729D01*
X111035000Y-91592089D01*
X111035000Y-91407911D01*
X110999068Y-91227271D01*
X110928586Y-91057111D01*
X110826262Y-90903972D01*
X110696028Y-90773738D01*
X110542889Y-90671414D01*
X110372729Y-90600932D01*
X110192089Y-90565000D01*
X110007911Y-90565000D01*
X109827271Y-90600932D01*
X109657111Y-90671414D01*
X109503972Y-90773738D01*
X109373738Y-90903972D01*
X109271414Y-91057111D01*
X109200932Y-91227271D01*
X109165000Y-91407911D01*
X104497511Y-91407911D01*
X104442889Y-91371414D01*
X104272729Y-91300932D01*
X104135000Y-91273536D01*
X104135000Y-91207911D01*
X104099068Y-91027271D01*
X104028586Y-90857111D01*
X103926262Y-90703972D01*
X103796028Y-90573738D01*
X103642889Y-90471414D01*
X103472729Y-90400932D01*
X103292089Y-90365000D01*
X103107911Y-90365000D01*
X102927271Y-90400932D01*
X102757111Y-90471414D01*
X102603972Y-90573738D01*
X102473738Y-90703972D01*
X102371414Y-90857111D01*
X102300932Y-91027271D01*
X102265000Y-91207911D01*
X97173831Y-91207911D01*
X97296028Y-91126262D01*
X97426262Y-90996028D01*
X97528586Y-90842889D01*
X97599068Y-90672729D01*
X97635000Y-90492089D01*
X97635000Y-90307911D01*
X97599068Y-90127271D01*
X97528586Y-89957111D01*
X97426262Y-89803972D01*
X97296028Y-89673738D01*
X97142889Y-89571414D01*
X96972729Y-89500932D01*
X96792089Y-89465000D01*
X96607911Y-89465000D01*
X96441386Y-89498124D01*
X96373584Y-89430322D01*
X96220445Y-89327998D01*
X96050285Y-89257516D01*
X95869645Y-89221584D01*
X95685467Y-89221584D01*
X95504827Y-89257516D01*
X95334667Y-89327998D01*
X95181528Y-89430322D01*
X95051294Y-89560556D01*
X94948970Y-89713695D01*
X94878488Y-89883855D01*
X94842556Y-90064495D01*
X87657795Y-90064495D01*
X87726262Y-89996028D01*
X87828586Y-89842889D01*
X87899068Y-89672729D01*
X87935000Y-89492089D01*
X87935000Y-89307911D01*
X87899068Y-89127271D01*
X87828586Y-88957111D01*
X87790426Y-88900000D01*
X87828586Y-88842889D01*
X87884495Y-88707911D01*
X91865000Y-88707911D01*
X91865000Y-88892089D01*
X91900932Y-89072729D01*
X91971414Y-89242889D01*
X92073738Y-89396028D01*
X92203972Y-89526262D01*
X92357111Y-89628586D01*
X92527271Y-89699068D01*
X92707911Y-89735000D01*
X92892089Y-89735000D01*
X93072729Y-89699068D01*
X93242889Y-89628586D01*
X93396028Y-89526262D01*
X93526262Y-89396028D01*
X93628586Y-89242889D01*
X93699068Y-89072729D01*
X93735000Y-88892089D01*
X93735000Y-88707911D01*
X93699068Y-88527271D01*
X93628586Y-88357111D01*
X93526262Y-88203972D01*
X93396028Y-88073738D01*
X93242889Y-87971414D01*
X93072729Y-87900932D01*
X92892089Y-87865000D01*
X92707911Y-87865000D01*
X92527271Y-87900932D01*
X92357111Y-87971414D01*
X92203972Y-88073738D01*
X92073738Y-88203972D01*
X91971414Y-88357111D01*
X91900932Y-88527271D01*
X91865000Y-88707911D01*
X87884495Y-88707911D01*
X87899068Y-88672729D01*
X87935000Y-88492089D01*
X87935000Y-88307911D01*
X87899068Y-88127271D01*
X87828586Y-87957111D01*
X87757012Y-87849993D01*
X87828576Y-87742889D01*
X87899058Y-87572729D01*
X87934990Y-87392089D01*
X87934990Y-87207911D01*
X87899058Y-87027271D01*
X87843347Y-86892770D01*
X99129671Y-86892770D01*
X99129671Y-87076948D01*
X99165603Y-87257588D01*
X99236085Y-87427748D01*
X99338409Y-87580887D01*
X99468643Y-87711121D01*
X99621782Y-87813445D01*
X99791942Y-87883927D01*
X99960911Y-87917537D01*
X99971414Y-87942895D01*
X100073738Y-88096034D01*
X100203972Y-88226268D01*
X100357111Y-88328592D01*
X100527271Y-88399074D01*
X100707911Y-88435006D01*
X100892089Y-88435006D01*
X101072729Y-88399074D01*
X101242889Y-88328592D01*
X101396028Y-88226268D01*
X101526262Y-88096034D01*
X101628586Y-87942895D01*
X101699068Y-87772735D01*
X101735000Y-87592095D01*
X101735000Y-87407917D01*
X101699068Y-87227277D01*
X101628586Y-87057117D01*
X101526262Y-86903978D01*
X101396028Y-86773744D01*
X101242889Y-86671420D01*
X101072729Y-86600938D01*
X100903760Y-86567328D01*
X100893257Y-86541970D01*
X100790933Y-86388831D01*
X100660699Y-86258597D01*
X100507560Y-86156273D01*
X100337400Y-86085791D01*
X100156760Y-86049859D01*
X99972582Y-86049859D01*
X99791942Y-86085791D01*
X99621782Y-86156273D01*
X99468643Y-86258597D01*
X99338409Y-86388831D01*
X99236085Y-86541970D01*
X99165603Y-86712130D01*
X99129671Y-86892770D01*
X87843347Y-86892770D01*
X87828576Y-86857111D01*
X87726252Y-86703972D01*
X87596018Y-86573738D01*
X87442879Y-86471414D01*
X87272719Y-86400932D01*
X87092079Y-86365000D01*
X86907901Y-86365000D01*
X86727261Y-86400932D01*
X86557101Y-86471414D01*
X86403962Y-86573738D01*
X86273728Y-86703972D01*
X86171404Y-86857111D01*
X86100922Y-87027271D01*
X86064990Y-87207911D01*
X70011961Y-87207911D01*
X70035000Y-87092089D01*
X70035000Y-86907911D01*
X69999068Y-86727271D01*
X69928586Y-86557111D01*
X69826262Y-86403972D01*
X69696028Y-86273738D01*
X69542889Y-86171414D01*
X69372729Y-86100932D01*
X69192089Y-86065000D01*
X69007911Y-86065000D01*
X68827271Y-86100932D01*
X68657111Y-86171414D01*
X68503972Y-86273738D01*
X68373738Y-86403972D01*
X68271414Y-86557111D01*
X68200932Y-86727271D01*
X68165000Y-86907911D01*
X61160000Y-86907911D01*
X61160000Y-85407911D01*
X77465000Y-85407911D01*
X77465000Y-85592089D01*
X77500932Y-85772729D01*
X77571414Y-85942889D01*
X77673738Y-86096028D01*
X77803972Y-86226262D01*
X77957111Y-86328586D01*
X78127271Y-86399068D01*
X78307911Y-86435000D01*
X78492089Y-86435000D01*
X78672729Y-86399068D01*
X78842889Y-86328586D01*
X78996028Y-86226262D01*
X79126262Y-86096028D01*
X79228586Y-85942889D01*
X79299068Y-85772729D01*
X79335000Y-85592089D01*
X79335000Y-85407911D01*
X79299068Y-85227271D01*
X79228586Y-85057111D01*
X79126262Y-84903972D01*
X78996028Y-84773738D01*
X78842889Y-84671414D01*
X78672729Y-84600932D01*
X78492089Y-84565000D01*
X78307911Y-84565000D01*
X78127271Y-84600932D01*
X77957111Y-84671414D01*
X77803972Y-84773738D01*
X77673738Y-84903972D01*
X77571414Y-85057111D01*
X77500932Y-85227271D01*
X77465000Y-85407911D01*
X61160000Y-85407911D01*
X61160000Y-84207911D01*
X86965000Y-84207911D01*
X86965000Y-84392089D01*
X87000932Y-84572729D01*
X87071414Y-84742889D01*
X87173738Y-84896028D01*
X87303972Y-85026262D01*
X87457111Y-85128586D01*
X87497355Y-85145255D01*
X87465000Y-85307911D01*
X87465000Y-85492089D01*
X87500932Y-85672729D01*
X87571414Y-85842889D01*
X87673738Y-85996028D01*
X87803972Y-86126262D01*
X87957111Y-86228586D01*
X88127271Y-86299068D01*
X88307911Y-86335000D01*
X88492089Y-86335000D01*
X88672729Y-86299068D01*
X88842889Y-86228586D01*
X88996028Y-86126262D01*
X89126262Y-85996028D01*
X89228586Y-85842889D01*
X89299068Y-85672729D01*
X89335000Y-85492089D01*
X89335000Y-85307911D01*
X89316896Y-85216896D01*
X89407911Y-85235000D01*
X89479503Y-85235000D01*
X89465000Y-85307911D01*
X89465000Y-85492089D01*
X89500932Y-85672729D01*
X89571414Y-85842889D01*
X89673738Y-85996028D01*
X89803972Y-86126262D01*
X89957111Y-86228586D01*
X90127271Y-86299068D01*
X90307911Y-86335000D01*
X90492089Y-86335000D01*
X90672729Y-86299068D01*
X90842889Y-86228586D01*
X90996028Y-86126262D01*
X91126262Y-85996028D01*
X91228586Y-85842889D01*
X91250000Y-85791191D01*
X91271414Y-85842889D01*
X91373738Y-85996028D01*
X91503972Y-86126262D01*
X91657111Y-86228586D01*
X91827271Y-86299068D01*
X92007911Y-86335000D01*
X92192089Y-86335000D01*
X92372729Y-86299068D01*
X92542889Y-86228586D01*
X92696028Y-86126262D01*
X92826262Y-85996028D01*
X92928586Y-85842889D01*
X92999068Y-85672729D01*
X93035000Y-85492089D01*
X93035000Y-85307911D01*
X92999068Y-85127271D01*
X92928586Y-84957111D01*
X92826262Y-84803972D01*
X92696028Y-84673738D01*
X92542889Y-84571414D01*
X92372729Y-84500932D01*
X92315610Y-84489570D01*
X92335000Y-84392089D01*
X92335000Y-84207911D01*
X92299068Y-84027271D01*
X92228586Y-83857111D01*
X92126262Y-83703972D01*
X91996028Y-83573738D01*
X91842889Y-83471414D01*
X91672729Y-83400932D01*
X91492089Y-83365000D01*
X91307911Y-83365000D01*
X91127271Y-83400932D01*
X90957111Y-83471414D01*
X90803972Y-83573738D01*
X90673738Y-83703972D01*
X90571414Y-83857111D01*
X90500932Y-84027271D01*
X90465000Y-84207911D01*
X90465000Y-84392089D01*
X90479503Y-84465000D01*
X90420497Y-84465000D01*
X90435000Y-84392089D01*
X90435000Y-84207911D01*
X90399068Y-84027271D01*
X90328586Y-83857111D01*
X90226262Y-83703972D01*
X90096028Y-83573738D01*
X89942889Y-83471414D01*
X89772729Y-83400932D01*
X89592089Y-83365000D01*
X89407911Y-83365000D01*
X89227271Y-83400932D01*
X89057111Y-83471414D01*
X88903972Y-83573738D01*
X88773738Y-83703972D01*
X88700000Y-83814329D01*
X88626262Y-83703972D01*
X88496028Y-83573738D01*
X88342889Y-83471414D01*
X88172729Y-83400932D01*
X87992089Y-83365000D01*
X87807911Y-83365000D01*
X87627271Y-83400932D01*
X87457111Y-83471414D01*
X87303972Y-83573738D01*
X87173738Y-83703972D01*
X87071414Y-83857111D01*
X87000932Y-84027271D01*
X86965000Y-84207911D01*
X61160000Y-84207911D01*
X61160000Y-80407911D01*
X72665000Y-80407911D01*
X72665000Y-80592089D01*
X72700932Y-80772729D01*
X72771414Y-80942889D01*
X72873738Y-81096028D01*
X73003972Y-81226262D01*
X73157111Y-81328586D01*
X73327271Y-81399068D01*
X73507911Y-81435000D01*
X73692089Y-81435000D01*
X73872729Y-81399068D01*
X74000000Y-81346351D01*
X74127271Y-81399068D01*
X74307911Y-81435000D01*
X74492089Y-81435000D01*
X74672729Y-81399068D01*
X74842889Y-81328586D01*
X74996028Y-81226262D01*
X75126262Y-81096028D01*
X75228586Y-80942889D01*
X75299068Y-80772729D01*
X75335000Y-80592089D01*
X75335000Y-80407911D01*
X75299068Y-80227271D01*
X75228586Y-80057111D01*
X75126262Y-79903972D01*
X74996028Y-79773738D01*
X74842889Y-79671414D01*
X74672729Y-79600932D01*
X74492089Y-79565000D01*
X74307911Y-79565000D01*
X74127271Y-79600932D01*
X74000000Y-79653649D01*
X73872729Y-79600932D01*
X73692089Y-79565000D01*
X73507911Y-79565000D01*
X73327271Y-79600932D01*
X73157111Y-79671414D01*
X73003972Y-79773738D01*
X72873738Y-79903972D01*
X72771414Y-80057111D01*
X72700932Y-80227271D01*
X72665000Y-80407911D01*
X61160000Y-80407911D01*
X61160000Y-78907911D01*
X78665000Y-78907911D01*
X78665000Y-79092089D01*
X78700932Y-79272729D01*
X78771414Y-79442889D01*
X78873738Y-79596028D01*
X79003972Y-79726262D01*
X79039498Y-79750000D01*
X79003972Y-79773738D01*
X78873738Y-79903972D01*
X78771414Y-80057111D01*
X78700932Y-80227271D01*
X78665000Y-80407911D01*
X78665000Y-80592089D01*
X78700932Y-80772729D01*
X78771414Y-80942889D01*
X78873738Y-81096028D01*
X79003972Y-81226262D01*
X79039498Y-81250000D01*
X79003972Y-81273738D01*
X78873738Y-81403972D01*
X78771414Y-81557111D01*
X78700932Y-81727271D01*
X78665000Y-81907911D01*
X78665000Y-82092089D01*
X78700932Y-82272729D01*
X78771414Y-82442889D01*
X78873738Y-82596028D01*
X79003972Y-82726262D01*
X79157111Y-82828586D01*
X79327271Y-82899068D01*
X79507911Y-82935000D01*
X79692089Y-82935000D01*
X79872729Y-82899068D01*
X80042889Y-82828586D01*
X80196028Y-82726262D01*
X80326262Y-82596028D01*
X80428586Y-82442889D01*
X80499068Y-82272729D01*
X80535000Y-82092089D01*
X80535000Y-81907911D01*
X80499068Y-81727271D01*
X80428586Y-81557111D01*
X80326262Y-81403972D01*
X80196028Y-81273738D01*
X80160502Y-81250000D01*
X80196028Y-81226262D01*
X80326262Y-81096028D01*
X80428586Y-80942889D01*
X80499068Y-80772729D01*
X80535000Y-80592089D01*
X80535000Y-80407911D01*
X80499068Y-80227271D01*
X80428586Y-80057111D01*
X80326262Y-79903972D01*
X80196028Y-79773738D01*
X80160502Y-79750000D01*
X80196028Y-79726262D01*
X80326262Y-79596028D01*
X80428586Y-79442889D01*
X80499068Y-79272729D01*
X80535000Y-79092089D01*
X80535000Y-78907911D01*
X80499068Y-78727271D01*
X80428586Y-78557111D01*
X80326262Y-78403972D01*
X80196028Y-78273738D01*
X80042889Y-78171414D01*
X79872729Y-78100932D01*
X79692089Y-78065000D01*
X79507911Y-78065000D01*
X79327271Y-78100932D01*
X79157111Y-78171414D01*
X79003972Y-78273738D01*
X78873738Y-78403972D01*
X78771414Y-78557111D01*
X78700932Y-78727271D01*
X78665000Y-78907911D01*
X61160000Y-78907911D01*
X61160000Y-60519608D01*
X61227573Y-60452035D01*
X61545757Y-60905850D01*
X62150210Y-61231269D01*
X62806535Y-61432512D01*
X63489510Y-61501845D01*
X64172888Y-61436605D01*
X64830407Y-61239298D01*
X65436799Y-60917506D01*
X65454243Y-60905850D01*
X65772428Y-60452033D01*
X63500000Y-58179605D01*
X63485858Y-58193748D01*
X63306253Y-58014143D01*
X63320395Y-58000000D01*
X63306253Y-57985858D01*
X63485858Y-57806253D01*
X63500000Y-57820395D01*
X63514143Y-57806253D01*
X63693748Y-57985858D01*
X63679605Y-58000000D01*
X65952033Y-60272428D01*
X66405850Y-59954243D01*
X66731269Y-59349790D01*
X66932512Y-58693465D01*
X66990017Y-58127002D01*
X67139185Y-58127002D01*
X67018519Y-58356891D01*
X67115843Y-58631252D01*
X67264822Y-58881355D01*
X67459731Y-59097588D01*
X67693080Y-59271641D01*
X67955901Y-59396825D01*
X68103110Y-59441476D01*
X68333000Y-59320155D01*
X68333000Y-58127000D01*
X68313000Y-58127000D01*
X68313000Y-57873000D01*
X68333000Y-57873000D01*
X68333000Y-56679845D01*
X68587000Y-56679845D01*
X68587000Y-57873000D01*
X68607000Y-57873000D01*
X68607000Y-58127000D01*
X68587000Y-58127000D01*
X68587000Y-59320155D01*
X68816890Y-59441476D01*
X68964099Y-59396825D01*
X69226920Y-59271641D01*
X69460269Y-59097588D01*
X69655178Y-58881355D01*
X69724805Y-58764466D01*
X69846525Y-58946632D01*
X70053368Y-59153475D01*
X70296589Y-59315990D01*
X70566842Y-59427932D01*
X70853740Y-59485000D01*
X71146260Y-59485000D01*
X71433158Y-59427932D01*
X71703411Y-59315990D01*
X71946632Y-59153475D01*
X72153475Y-58946632D01*
X72270000Y-58772240D01*
X72386525Y-58946632D01*
X72593368Y-59153475D01*
X72836589Y-59315990D01*
X73106842Y-59427932D01*
X73393740Y-59485000D01*
X73686260Y-59485000D01*
X73973158Y-59427932D01*
X74243411Y-59315990D01*
X74486632Y-59153475D01*
X74618487Y-59021620D01*
X74640498Y-59094180D01*
X74699463Y-59204494D01*
X74778815Y-59301185D01*
X74875506Y-59380537D01*
X74985820Y-59439502D01*
X75105518Y-59475812D01*
X75230000Y-59488072D01*
X76930000Y-59488072D01*
X77054482Y-59475812D01*
X77174180Y-59439502D01*
X77284494Y-59380537D01*
X77381185Y-59301185D01*
X77460537Y-59204494D01*
X77519502Y-59094180D01*
X77555812Y-58974482D01*
X77568072Y-58850000D01*
X77568072Y-58353740D01*
X87475000Y-58353740D01*
X87475000Y-58646260D01*
X87532068Y-58933158D01*
X87644010Y-59203411D01*
X87806525Y-59446632D01*
X88013368Y-59653475D01*
X88256589Y-59815990D01*
X88526842Y-59927932D01*
X88813740Y-59985000D01*
X89106260Y-59985000D01*
X89393158Y-59927932D01*
X89663411Y-59815990D01*
X89906632Y-59653475D01*
X90038487Y-59521620D01*
X90060498Y-59594180D01*
X90119463Y-59704494D01*
X90198815Y-59801185D01*
X90295506Y-59880537D01*
X90405820Y-59939502D01*
X90525518Y-59975812D01*
X90650000Y-59988072D01*
X92350000Y-59988072D01*
X92474482Y-59975812D01*
X92594180Y-59939502D01*
X92704494Y-59880537D01*
X92801185Y-59801185D01*
X92880537Y-59704494D01*
X92939502Y-59594180D01*
X92975812Y-59474482D01*
X92988072Y-59350000D01*
X92988072Y-57650000D01*
X92975812Y-57525518D01*
X92939502Y-57405820D01*
X92880537Y-57295506D01*
X92801185Y-57198815D01*
X92704494Y-57119463D01*
X92594180Y-57060498D01*
X92474482Y-57024188D01*
X92350000Y-57011928D01*
X90650000Y-57011928D01*
X90525518Y-57024188D01*
X90405820Y-57060498D01*
X90295506Y-57119463D01*
X90198815Y-57198815D01*
X90119463Y-57295506D01*
X90060498Y-57405820D01*
X90038487Y-57478380D01*
X89906632Y-57346525D01*
X89663411Y-57184010D01*
X89393158Y-57072068D01*
X89106260Y-57015000D01*
X88813740Y-57015000D01*
X88526842Y-57072068D01*
X88256589Y-57184010D01*
X88013368Y-57346525D01*
X87806525Y-57553368D01*
X87644010Y-57796589D01*
X87532068Y-58066842D01*
X87475000Y-58353740D01*
X77568072Y-58353740D01*
X77568072Y-57150000D01*
X77555812Y-57025518D01*
X77519502Y-56905820D01*
X77460537Y-56795506D01*
X77381185Y-56698815D01*
X77284494Y-56619463D01*
X77174180Y-56560498D01*
X77054482Y-56524188D01*
X76930000Y-56511928D01*
X75230000Y-56511928D01*
X75105518Y-56524188D01*
X74985820Y-56560498D01*
X74875506Y-56619463D01*
X74778815Y-56698815D01*
X74699463Y-56795506D01*
X74640498Y-56905820D01*
X74618487Y-56978380D01*
X74486632Y-56846525D01*
X74243411Y-56684010D01*
X73973158Y-56572068D01*
X73686260Y-56515000D01*
X73393740Y-56515000D01*
X73106842Y-56572068D01*
X72836589Y-56684010D01*
X72593368Y-56846525D01*
X72386525Y-57053368D01*
X72270000Y-57227760D01*
X72153475Y-57053368D01*
X71946632Y-56846525D01*
X71703411Y-56684010D01*
X71433158Y-56572068D01*
X71146260Y-56515000D01*
X70853740Y-56515000D01*
X70566842Y-56572068D01*
X70296589Y-56684010D01*
X70053368Y-56846525D01*
X69846525Y-57053368D01*
X69724805Y-57235534D01*
X69655178Y-57118645D01*
X69460269Y-56902412D01*
X69226920Y-56728359D01*
X68964099Y-56603175D01*
X68816890Y-56558524D01*
X68587000Y-56679845D01*
X68333000Y-56679845D01*
X68103110Y-56558524D01*
X67955901Y-56603175D01*
X67693080Y-56728359D01*
X67459731Y-56902412D01*
X67264822Y-57118645D01*
X67115843Y-57368748D01*
X67018519Y-57643109D01*
X67139185Y-57872998D01*
X66988719Y-57872998D01*
X66936605Y-57327112D01*
X66739298Y-56669593D01*
X66417506Y-56063201D01*
X66405850Y-56045757D01*
X65952035Y-55727573D01*
X66019608Y-55660000D01*
X108980392Y-55660000D01*
X109047965Y-55727573D01*
G37*
%TD.AperFunction*%
%TD*%
M02*
