%TF.GenerationSoftware,KiCad,Pcbnew,(5.1.9)-1*%
%TF.CreationDate,2021-05-07T19:23:29+02:00*%
%TF.ProjectId,STM32_Launchpad_v1r1,53544d33-325f-44c6-9175-6e6368706164,rev?*%
%TF.SameCoordinates,Original*%
%TF.FileFunction,Legend,Top*%
%TF.FilePolarity,Positive*%
%FSLAX46Y46*%
G04 Gerber Fmt 4.6, Leading zero omitted, Abs format (unit mm)*
G04 Created by KiCad (PCBNEW (5.1.9)-1) date 2021-05-07 19:23:29*
%MOMM*%
%LPD*%
G01*
G04 APERTURE LIST*
%ADD10C,0.120000*%
%ADD11C,0.182500*%
G04 APERTURE END LIST*
D10*
%TO.C,U4*%
X77110000Y-83910000D02*
X77110000Y-82650000D01*
X77110000Y-77090000D02*
X77110000Y-78350000D01*
X73350000Y-83910000D02*
X77110000Y-83910000D01*
X71100000Y-77090000D02*
X77110000Y-77090000D01*
%TO.C,D1*%
X83000000Y-121850000D02*
X83000000Y-120150000D01*
X83000000Y-120150000D02*
X80450000Y-120150000D01*
X83000000Y-121850000D02*
X80450000Y-121850000D01*
%TO.C,J5*%
X106390000Y-121710000D02*
X111590000Y-121710000D01*
X106390000Y-98790000D02*
X106390000Y-121710000D01*
X111590000Y-96190000D02*
X111590000Y-121710000D01*
X106390000Y-98790000D02*
X108990000Y-98790000D01*
X108990000Y-98790000D02*
X108990000Y-96190000D01*
X108990000Y-96190000D02*
X111590000Y-96190000D01*
X106390000Y-97520000D02*
X106390000Y-96190000D01*
X106390000Y-96190000D02*
X107720000Y-96190000D01*
%TO.C,J8*%
X87630000Y-57170000D02*
X87630000Y-59830000D01*
X90230000Y-57170000D02*
X87630000Y-57170000D01*
X90230000Y-59830000D02*
X87630000Y-59830000D01*
X90230000Y-57170000D02*
X90230000Y-59830000D01*
X91500000Y-57170000D02*
X92830000Y-57170000D01*
X92830000Y-57170000D02*
X92830000Y-58500000D01*
%TO.C,J7*%
X69900000Y-122100000D02*
X69900000Y-134000000D01*
X80000000Y-122100000D02*
X69900000Y-122100000D01*
X80000000Y-134000000D02*
X80000000Y-122100000D01*
X80000000Y-134000000D02*
X69900000Y-134000000D01*
X77880000Y-124210000D02*
X77880000Y-124597071D01*
X77120000Y-124210000D02*
X77120000Y-124597071D01*
X77120000Y-126682929D02*
X77120000Y-127080000D01*
X77880000Y-126682929D02*
X77880000Y-127080000D01*
X75340000Y-126682929D02*
X75340000Y-127080000D01*
X74580000Y-126682929D02*
X74580000Y-127080000D01*
X74580000Y-124142929D02*
X74580000Y-124597071D01*
X72040000Y-126682929D02*
X72040000Y-127080000D01*
X72800000Y-124142929D02*
X72800000Y-124597071D01*
X72040000Y-124142929D02*
X72040000Y-124597071D01*
X75340000Y-124142929D02*
X75340000Y-124597071D01*
X72800000Y-126682929D02*
X72800000Y-127080000D01*
%TO.C,C19*%
X77540580Y-121610000D02*
X77259420Y-121610000D01*
X77540580Y-120590000D02*
X77259420Y-120590000D01*
%TO.C,C5*%
X80490000Y-103559420D02*
X80490000Y-103840580D01*
X81510000Y-103559420D02*
X81510000Y-103840580D01*
%TO.C,SW1*%
X98630000Y-59030000D02*
X98630000Y-56970000D01*
X103370000Y-59030000D02*
X103370000Y-56970000D01*
X103370000Y-60370000D02*
X103370000Y-59970000D01*
X98630000Y-60370000D02*
X103370000Y-60370000D01*
X98630000Y-60370000D02*
X98630000Y-59970000D01*
X103370000Y-55630000D02*
X103370000Y-56030000D01*
X98630000Y-55630000D02*
X98630000Y-56030000D01*
X98630000Y-55630000D02*
X103370000Y-55630000D01*
%TO.C,R13*%
X66565000Y-93772936D02*
X66565000Y-94227064D01*
X68035000Y-93772936D02*
X68035000Y-94227064D01*
%TO.C,R11*%
X76037258Y-84377500D02*
X75562742Y-84377500D01*
X76037258Y-85422500D02*
X75562742Y-85422500D01*
%TO.C,R9*%
X92137258Y-60577500D02*
X91662742Y-60577500D01*
X92137258Y-61622500D02*
X91662742Y-61622500D01*
%TO.C,R8*%
X88537742Y-61622500D02*
X89012258Y-61622500D01*
X88537742Y-60577500D02*
X89012258Y-60577500D01*
%TO.C,R7*%
X86122500Y-117837258D02*
X86122500Y-117362742D01*
X85077500Y-117837258D02*
X85077500Y-117362742D01*
%TO.C,R6*%
X85077500Y-120362742D02*
X85077500Y-120837258D01*
X86122500Y-120362742D02*
X86122500Y-120837258D01*
%TO.C,R5*%
X86577500Y-120337742D02*
X86577500Y-120812258D01*
X87622500Y-120337742D02*
X87622500Y-120812258D01*
%TO.C,R2*%
X89637258Y-122877500D02*
X89162742Y-122877500D01*
X89637258Y-123922500D02*
X89162742Y-123922500D01*
%TO.C,R12*%
X73522500Y-96737258D02*
X73522500Y-96262742D01*
X72477500Y-96737258D02*
X72477500Y-96262742D01*
%TO.C,R10*%
X75022500Y-96737258D02*
X75022500Y-96262742D01*
X73977500Y-96737258D02*
X73977500Y-96262742D01*
%TO.C,R14*%
X82885436Y-123935000D02*
X83339564Y-123935000D01*
X82885436Y-122465000D02*
X83339564Y-122465000D01*
%TO.C,R15*%
X65335000Y-94227064D02*
X65335000Y-93772936D01*
X63865000Y-94227064D02*
X63865000Y-93772936D01*
%TO.C,R4*%
X93262742Y-107622500D02*
X93737258Y-107622500D01*
X93262742Y-106577500D02*
X93737258Y-106577500D01*
%TO.C,R3*%
X93737258Y-108077500D02*
X93262742Y-108077500D01*
X93737258Y-109122500D02*
X93262742Y-109122500D01*
%TO.C,R1*%
X97277500Y-94562742D02*
X97277500Y-95037258D01*
X98322500Y-94562742D02*
X98322500Y-95037258D01*
%TO.C,FB1*%
X81562779Y-88190000D02*
X81237221Y-88190000D01*
X81562779Y-89210000D02*
X81237221Y-89210000D01*
%TO.C,D4*%
X74185000Y-84215000D02*
X71700000Y-84215000D01*
X74185000Y-85585000D02*
X74185000Y-84215000D01*
X71700000Y-85585000D02*
X74185000Y-85585000D01*
%TO.C,D3*%
X90415000Y-62002500D02*
X90415000Y-64487500D01*
X91785000Y-62002500D02*
X90415000Y-62002500D01*
X91785000Y-64487500D02*
X91785000Y-62002500D01*
%TO.C,D2*%
X88915000Y-62002500D02*
X88915000Y-64487500D01*
X90285000Y-62002500D02*
X88915000Y-62002500D01*
X90285000Y-64487500D02*
X90285000Y-62002500D01*
%TO.C,U1*%
X85650000Y-123450000D02*
X85850000Y-123450000D01*
X85650000Y-122900000D02*
X85650000Y-123450000D01*
X86950000Y-123450000D02*
X86750000Y-123450000D01*
X86950000Y-122900000D02*
X86950000Y-123450000D01*
%TO.C,J4*%
X97870000Y-109470000D02*
X100530000Y-109470000D01*
X97870000Y-106870000D02*
X97870000Y-109470000D01*
X100530000Y-106870000D02*
X100530000Y-109470000D01*
X97870000Y-106870000D02*
X100530000Y-106870000D01*
X97870000Y-105600000D02*
X97870000Y-104270000D01*
X97870000Y-104270000D02*
X99200000Y-104270000D01*
%TO.C,J6*%
X102610000Y-127430000D02*
X102610000Y-124770000D01*
X97470000Y-127430000D02*
X102610000Y-127430000D01*
X97470000Y-124770000D02*
X102610000Y-124770000D01*
X97470000Y-127430000D02*
X97470000Y-124770000D01*
X96200000Y-127430000D02*
X94870000Y-127430000D01*
X94870000Y-127430000D02*
X94870000Y-126100000D01*
%TO.C,J1*%
X67130000Y-56670000D02*
X67130000Y-59330000D01*
X74810000Y-56670000D02*
X67130000Y-56670000D01*
X74810000Y-59330000D02*
X67130000Y-59330000D01*
X74810000Y-56670000D02*
X74810000Y-59330000D01*
X76080000Y-56670000D02*
X77410000Y-56670000D01*
X77410000Y-56670000D02*
X77410000Y-58000000D01*
%TO.C,J2*%
X82325000Y-127050000D02*
X82325000Y-125500000D01*
X82325000Y-127050000D02*
X82625000Y-127050000D01*
X82625000Y-129850000D02*
X82625000Y-127050000D01*
X90625000Y-127050000D02*
X90625000Y-125500000D01*
X90325000Y-127050000D02*
X90625000Y-127050000D01*
X90325000Y-129850000D02*
X90325000Y-127050000D01*
X85575000Y-123800000D02*
X85175000Y-124250000D01*
X84775000Y-123800000D02*
X85575000Y-123800000D01*
X85175000Y-124250000D02*
X84775000Y-123800000D01*
%TO.C,Y1*%
X100800000Y-102350000D02*
X100800000Y-96450000D01*
X100800000Y-96450000D02*
X97200000Y-96450000D01*
X97200000Y-96450000D02*
X97200000Y-102350000D01*
%TO.C,U3*%
X86280000Y-83440000D02*
X85350000Y-83440000D01*
X83120000Y-83440000D02*
X84050000Y-83440000D01*
X83120000Y-83440000D02*
X83120000Y-85600000D01*
X86280000Y-83440000D02*
X86280000Y-84900000D01*
%TO.C,U2*%
X82840000Y-92890000D02*
X81890000Y-92890000D01*
X81890000Y-92890000D02*
X81890000Y-93840000D01*
X91160000Y-92890000D02*
X92110000Y-92890000D01*
X92110000Y-92890000D02*
X92110000Y-93840000D01*
X82840000Y-103110000D02*
X81890000Y-103110000D01*
X81890000Y-103110000D02*
X81890000Y-102160000D01*
X91160000Y-103110000D02*
X92110000Y-103110000D01*
X92110000Y-103110000D02*
X92110000Y-102160000D01*
X92110000Y-102160000D02*
X93450000Y-102160000D01*
%TO.C,J3*%
X63210000Y-121710000D02*
X68410000Y-121710000D01*
X63210000Y-98790000D02*
X63210000Y-121710000D01*
X68410000Y-96190000D02*
X68410000Y-121710000D01*
X63210000Y-98790000D02*
X65810000Y-98790000D01*
X65810000Y-98790000D02*
X65810000Y-96190000D01*
X65810000Y-96190000D02*
X68410000Y-96190000D01*
X63210000Y-97520000D02*
X63210000Y-96190000D01*
X63210000Y-96190000D02*
X64540000Y-96190000D01*
%TO.C,C17*%
X65465000Y-79461252D02*
X65465000Y-78938748D01*
X66935000Y-79461252D02*
X66935000Y-78938748D01*
%TO.C,C18*%
X81461252Y-87635000D02*
X80938748Y-87635000D01*
X81461252Y-86165000D02*
X80938748Y-86165000D01*
%TO.C,C15*%
X67465000Y-79461252D02*
X67465000Y-78938748D01*
X68935000Y-79461252D02*
X68935000Y-78938748D01*
%TO.C,C16*%
X81540580Y-85610000D02*
X81259420Y-85610000D01*
X81540580Y-84590000D02*
X81259420Y-84590000D01*
%TO.C,C14*%
X69490000Y-79515580D02*
X69490000Y-79234420D01*
X70510000Y-79515580D02*
X70510000Y-79234420D01*
%TO.C,C13*%
X78365000Y-92261252D02*
X78365000Y-91738748D01*
X79835000Y-92261252D02*
X79835000Y-91738748D01*
%TO.C,C11*%
X92659420Y-103590000D02*
X92940580Y-103590000D01*
X92659420Y-104610000D02*
X92940580Y-104610000D01*
%TO.C,C12*%
X85011252Y-87635000D02*
X84488748Y-87635000D01*
X85011252Y-86165000D02*
X84488748Y-86165000D01*
%TO.C,C10*%
X68935000Y-82438748D02*
X68935000Y-82961252D01*
X67465000Y-82438748D02*
X67465000Y-82961252D01*
%TO.C,C9*%
X93759420Y-92490000D02*
X94040580Y-92490000D01*
X93759420Y-93510000D02*
X94040580Y-93510000D01*
%TO.C,C8*%
X84815580Y-89210000D02*
X84534420Y-89210000D01*
X84815580Y-88190000D02*
X84534420Y-88190000D01*
%TO.C,C7*%
X66935000Y-82438748D02*
X66935000Y-82961252D01*
X65465000Y-82438748D02*
X65465000Y-82961252D01*
%TO.C,C6*%
X80390000Y-92340580D02*
X80390000Y-92059420D01*
X81410000Y-92340580D02*
X81410000Y-92059420D01*
%TO.C,C4*%
X70510000Y-82359420D02*
X70510000Y-82640580D01*
X69490000Y-82359420D02*
X69490000Y-82640580D01*
%TO.C,C3*%
X96240000Y-98107836D02*
X96240000Y-97892164D01*
X96960000Y-98107836D02*
X96960000Y-97892164D01*
%TO.C,C2*%
X96960000Y-100792164D02*
X96960000Y-101007836D01*
X96240000Y-100792164D02*
X96240000Y-101007836D01*
%TO.C,C1*%
X99910000Y-94659420D02*
X99910000Y-94940580D01*
X98890000Y-94659420D02*
X98890000Y-94940580D01*
%TO.C,U4*%
D11*
X74438095Y-75589285D02*
X74438095Y-76196428D01*
X74485714Y-76267857D01*
X74533333Y-76303571D01*
X74628571Y-76339285D01*
X74819047Y-76339285D01*
X74914285Y-76303571D01*
X74961904Y-76267857D01*
X75009523Y-76196428D01*
X75009523Y-75589285D01*
X75914285Y-75839285D02*
X75914285Y-76339285D01*
X75676190Y-75553571D02*
X75438095Y-76089285D01*
X76057142Y-76089285D01*
%TO.C,D1*%
X80961904Y-119839285D02*
X80961904Y-119089285D01*
X81200000Y-119089285D01*
X81342857Y-119125000D01*
X81438095Y-119196428D01*
X81485714Y-119267857D01*
X81533333Y-119410714D01*
X81533333Y-119517857D01*
X81485714Y-119660714D01*
X81438095Y-119732142D01*
X81342857Y-119803571D01*
X81200000Y-119839285D01*
X80961904Y-119839285D01*
X82485714Y-119839285D02*
X81914285Y-119839285D01*
X82200000Y-119839285D02*
X82200000Y-119089285D01*
X82104761Y-119196428D01*
X82009523Y-119267857D01*
X81914285Y-119303571D01*
%TO.C,J5*%
X108656666Y-94779285D02*
X108656666Y-95315000D01*
X108609047Y-95422142D01*
X108513809Y-95493571D01*
X108370952Y-95529285D01*
X108275714Y-95529285D01*
X109609047Y-94779285D02*
X109132857Y-94779285D01*
X109085238Y-95136428D01*
X109132857Y-95100714D01*
X109228095Y-95065000D01*
X109466190Y-95065000D01*
X109561428Y-95100714D01*
X109609047Y-95136428D01*
X109656666Y-95207857D01*
X109656666Y-95386428D01*
X109609047Y-95457857D01*
X109561428Y-95493571D01*
X109466190Y-95529285D01*
X109228095Y-95529285D01*
X109132857Y-95493571D01*
X109085238Y-95457857D01*
%TO.C,J8*%
X93419285Y-58833333D02*
X93955000Y-58833333D01*
X94062142Y-58880952D01*
X94133571Y-58976190D01*
X94169285Y-59119047D01*
X94169285Y-59214285D01*
X93740714Y-58214285D02*
X93705000Y-58309523D01*
X93669285Y-58357142D01*
X93597857Y-58404761D01*
X93562142Y-58404761D01*
X93490714Y-58357142D01*
X93455000Y-58309523D01*
X93419285Y-58214285D01*
X93419285Y-58023809D01*
X93455000Y-57928571D01*
X93490714Y-57880952D01*
X93562142Y-57833333D01*
X93597857Y-57833333D01*
X93669285Y-57880952D01*
X93705000Y-57928571D01*
X93740714Y-58023809D01*
X93740714Y-58214285D01*
X93776428Y-58309523D01*
X93812142Y-58357142D01*
X93883571Y-58404761D01*
X94026428Y-58404761D01*
X94097857Y-58357142D01*
X94133571Y-58309523D01*
X94169285Y-58214285D01*
X94169285Y-58023809D01*
X94133571Y-57928571D01*
X94097857Y-57880952D01*
X94026428Y-57833333D01*
X93883571Y-57833333D01*
X93812142Y-57880952D01*
X93776428Y-57928571D01*
X93740714Y-58023809D01*
%TO.C,J7*%
X80666666Y-128689285D02*
X80666666Y-129225000D01*
X80619047Y-129332142D01*
X80523809Y-129403571D01*
X80380952Y-129439285D01*
X80285714Y-129439285D01*
X81047619Y-128689285D02*
X81714285Y-128689285D01*
X81285714Y-129439285D01*
%TO.C,FID4*%
X67428571Y-123946428D02*
X67095238Y-123946428D01*
X67095238Y-124339285D02*
X67095238Y-123589285D01*
X67571428Y-123589285D01*
X67952380Y-124339285D02*
X67952380Y-123589285D01*
X68428571Y-124339285D02*
X68428571Y-123589285D01*
X68666666Y-123589285D01*
X68809523Y-123625000D01*
X68904761Y-123696428D01*
X68952380Y-123767857D01*
X69000000Y-123910714D01*
X69000000Y-124017857D01*
X68952380Y-124160714D01*
X68904761Y-124232142D01*
X68809523Y-124303571D01*
X68666666Y-124339285D01*
X68428571Y-124339285D01*
X69857142Y-123839285D02*
X69857142Y-124339285D01*
X69619047Y-123553571D02*
X69380952Y-124089285D01*
X70000000Y-124089285D01*
%TO.C,FID3*%
X105428571Y-123946428D02*
X105095238Y-123946428D01*
X105095238Y-124339285D02*
X105095238Y-123589285D01*
X105571428Y-123589285D01*
X105952380Y-124339285D02*
X105952380Y-123589285D01*
X106428571Y-124339285D02*
X106428571Y-123589285D01*
X106666666Y-123589285D01*
X106809523Y-123625000D01*
X106904761Y-123696428D01*
X106952380Y-123767857D01*
X107000000Y-123910714D01*
X107000000Y-124017857D01*
X106952380Y-124160714D01*
X106904761Y-124232142D01*
X106809523Y-124303571D01*
X106666666Y-124339285D01*
X106428571Y-124339285D01*
X107333333Y-123589285D02*
X107952380Y-123589285D01*
X107619047Y-123875000D01*
X107761904Y-123875000D01*
X107857142Y-123910714D01*
X107904761Y-123946428D01*
X107952380Y-124017857D01*
X107952380Y-124196428D01*
X107904761Y-124267857D01*
X107857142Y-124303571D01*
X107761904Y-124339285D01*
X107476190Y-124339285D01*
X107380952Y-124303571D01*
X107333333Y-124267857D01*
%TO.C,FID2*%
X103328571Y-61746428D02*
X102995238Y-61746428D01*
X102995238Y-62139285D02*
X102995238Y-61389285D01*
X103471428Y-61389285D01*
X103852380Y-62139285D02*
X103852380Y-61389285D01*
X104328571Y-62139285D02*
X104328571Y-61389285D01*
X104566666Y-61389285D01*
X104709523Y-61425000D01*
X104804761Y-61496428D01*
X104852380Y-61567857D01*
X104900000Y-61710714D01*
X104900000Y-61817857D01*
X104852380Y-61960714D01*
X104804761Y-62032142D01*
X104709523Y-62103571D01*
X104566666Y-62139285D01*
X104328571Y-62139285D01*
X105280952Y-61460714D02*
X105328571Y-61425000D01*
X105423809Y-61389285D01*
X105661904Y-61389285D01*
X105757142Y-61425000D01*
X105804761Y-61460714D01*
X105852380Y-61532142D01*
X105852380Y-61603571D01*
X105804761Y-61710714D01*
X105233333Y-62139285D01*
X105852380Y-62139285D01*
%TO.C,FID1*%
X69328571Y-61846428D02*
X68995238Y-61846428D01*
X68995238Y-62239285D02*
X68995238Y-61489285D01*
X69471428Y-61489285D01*
X69852380Y-62239285D02*
X69852380Y-61489285D01*
X70328571Y-62239285D02*
X70328571Y-61489285D01*
X70566666Y-61489285D01*
X70709523Y-61525000D01*
X70804761Y-61596428D01*
X70852380Y-61667857D01*
X70900000Y-61810714D01*
X70900000Y-61917857D01*
X70852380Y-62060714D01*
X70804761Y-62132142D01*
X70709523Y-62203571D01*
X70566666Y-62239285D01*
X70328571Y-62239285D01*
X71852380Y-62239285D02*
X71280952Y-62239285D01*
X71566666Y-62239285D02*
X71566666Y-61489285D01*
X71471428Y-61596428D01*
X71376190Y-61667857D01*
X71280952Y-61703571D01*
%TO.C,C19*%
X73757142Y-121367857D02*
X73709523Y-121403571D01*
X73566666Y-121439285D01*
X73471428Y-121439285D01*
X73328571Y-121403571D01*
X73233333Y-121332142D01*
X73185714Y-121260714D01*
X73138095Y-121117857D01*
X73138095Y-121010714D01*
X73185714Y-120867857D01*
X73233333Y-120796428D01*
X73328571Y-120725000D01*
X73471428Y-120689285D01*
X73566666Y-120689285D01*
X73709523Y-120725000D01*
X73757142Y-120760714D01*
X74709523Y-121439285D02*
X74138095Y-121439285D01*
X74423809Y-121439285D02*
X74423809Y-120689285D01*
X74328571Y-120796428D01*
X74233333Y-120867857D01*
X74138095Y-120903571D01*
X75185714Y-121439285D02*
X75376190Y-121439285D01*
X75471428Y-121403571D01*
X75519047Y-121367857D01*
X75614285Y-121260714D01*
X75661904Y-121117857D01*
X75661904Y-120832142D01*
X75614285Y-120760714D01*
X75566666Y-120725000D01*
X75471428Y-120689285D01*
X75280952Y-120689285D01*
X75185714Y-120725000D01*
X75138095Y-120760714D01*
X75090476Y-120832142D01*
X75090476Y-121010714D01*
X75138095Y-121082142D01*
X75185714Y-121117857D01*
X75280952Y-121153571D01*
X75471428Y-121153571D01*
X75566666Y-121117857D01*
X75614285Y-121082142D01*
X75661904Y-121010714D01*
%TO.C,C5*%
X82697857Y-105966666D02*
X82733571Y-106014285D01*
X82769285Y-106157142D01*
X82769285Y-106252380D01*
X82733571Y-106395238D01*
X82662142Y-106490476D01*
X82590714Y-106538095D01*
X82447857Y-106585714D01*
X82340714Y-106585714D01*
X82197857Y-106538095D01*
X82126428Y-106490476D01*
X82055000Y-106395238D01*
X82019285Y-106252380D01*
X82019285Y-106157142D01*
X82055000Y-106014285D01*
X82090714Y-105966666D01*
X82019285Y-105061904D02*
X82019285Y-105538095D01*
X82376428Y-105585714D01*
X82340714Y-105538095D01*
X82305000Y-105442857D01*
X82305000Y-105204761D01*
X82340714Y-105109523D01*
X82376428Y-105061904D01*
X82447857Y-105014285D01*
X82626428Y-105014285D01*
X82697857Y-105061904D01*
X82733571Y-105109523D01*
X82769285Y-105204761D01*
X82769285Y-105442857D01*
X82733571Y-105538095D01*
X82697857Y-105585714D01*
%TO.C,SW1*%
X96866666Y-61803571D02*
X97009523Y-61839285D01*
X97247619Y-61839285D01*
X97342857Y-61803571D01*
X97390476Y-61767857D01*
X97438095Y-61696428D01*
X97438095Y-61625000D01*
X97390476Y-61553571D01*
X97342857Y-61517857D01*
X97247619Y-61482142D01*
X97057142Y-61446428D01*
X96961904Y-61410714D01*
X96914285Y-61375000D01*
X96866666Y-61303571D01*
X96866666Y-61232142D01*
X96914285Y-61160714D01*
X96961904Y-61125000D01*
X97057142Y-61089285D01*
X97295238Y-61089285D01*
X97438095Y-61125000D01*
X97771428Y-61089285D02*
X98009523Y-61839285D01*
X98200000Y-61303571D01*
X98390476Y-61839285D01*
X98628571Y-61089285D01*
X99533333Y-61839285D02*
X98961904Y-61839285D01*
X99247619Y-61839285D02*
X99247619Y-61089285D01*
X99152380Y-61196428D01*
X99057142Y-61267857D01*
X98961904Y-61303571D01*
%TO.C,R13*%
X69289285Y-94642857D02*
X68932142Y-94976190D01*
X69289285Y-95214285D02*
X68539285Y-95214285D01*
X68539285Y-94833333D01*
X68575000Y-94738095D01*
X68610714Y-94690476D01*
X68682142Y-94642857D01*
X68789285Y-94642857D01*
X68860714Y-94690476D01*
X68896428Y-94738095D01*
X68932142Y-94833333D01*
X68932142Y-95214285D01*
X69289285Y-93690476D02*
X69289285Y-94261904D01*
X69289285Y-93976190D02*
X68539285Y-93976190D01*
X68646428Y-94071428D01*
X68717857Y-94166666D01*
X68753571Y-94261904D01*
X68539285Y-93357142D02*
X68539285Y-92738095D01*
X68825000Y-93071428D01*
X68825000Y-92928571D01*
X68860714Y-92833333D01*
X68896428Y-92785714D01*
X68967857Y-92738095D01*
X69146428Y-92738095D01*
X69217857Y-92785714D01*
X69253571Y-92833333D01*
X69289285Y-92928571D01*
X69289285Y-93214285D01*
X69253571Y-93309523D01*
X69217857Y-93357142D01*
%TO.C,R11*%
X75157142Y-86669285D02*
X74823809Y-86312142D01*
X74585714Y-86669285D02*
X74585714Y-85919285D01*
X74966666Y-85919285D01*
X75061904Y-85955000D01*
X75109523Y-85990714D01*
X75157142Y-86062142D01*
X75157142Y-86169285D01*
X75109523Y-86240714D01*
X75061904Y-86276428D01*
X74966666Y-86312142D01*
X74585714Y-86312142D01*
X76109523Y-86669285D02*
X75538095Y-86669285D01*
X75823809Y-86669285D02*
X75823809Y-85919285D01*
X75728571Y-86026428D01*
X75633333Y-86097857D01*
X75538095Y-86133571D01*
X77061904Y-86669285D02*
X76490476Y-86669285D01*
X76776190Y-86669285D02*
X76776190Y-85919285D01*
X76680952Y-86026428D01*
X76585714Y-86097857D01*
X76490476Y-86133571D01*
%TO.C,R9*%
X94633333Y-61939285D02*
X94300000Y-61582142D01*
X94061904Y-61939285D02*
X94061904Y-61189285D01*
X94442857Y-61189285D01*
X94538095Y-61225000D01*
X94585714Y-61260714D01*
X94633333Y-61332142D01*
X94633333Y-61439285D01*
X94585714Y-61510714D01*
X94538095Y-61546428D01*
X94442857Y-61582142D01*
X94061904Y-61582142D01*
X95109523Y-61939285D02*
X95300000Y-61939285D01*
X95395238Y-61903571D01*
X95442857Y-61867857D01*
X95538095Y-61760714D01*
X95585714Y-61617857D01*
X95585714Y-61332142D01*
X95538095Y-61260714D01*
X95490476Y-61225000D01*
X95395238Y-61189285D01*
X95204761Y-61189285D01*
X95109523Y-61225000D01*
X95061904Y-61260714D01*
X95014285Y-61332142D01*
X95014285Y-61510714D01*
X95061904Y-61582142D01*
X95109523Y-61617857D01*
X95204761Y-61653571D01*
X95395238Y-61653571D01*
X95490476Y-61617857D01*
X95538095Y-61582142D01*
X95585714Y-61510714D01*
%TO.C,R8*%
X85533333Y-61839285D02*
X85200000Y-61482142D01*
X84961904Y-61839285D02*
X84961904Y-61089285D01*
X85342857Y-61089285D01*
X85438095Y-61125000D01*
X85485714Y-61160714D01*
X85533333Y-61232142D01*
X85533333Y-61339285D01*
X85485714Y-61410714D01*
X85438095Y-61446428D01*
X85342857Y-61482142D01*
X84961904Y-61482142D01*
X86104761Y-61410714D02*
X86009523Y-61375000D01*
X85961904Y-61339285D01*
X85914285Y-61267857D01*
X85914285Y-61232142D01*
X85961904Y-61160714D01*
X86009523Y-61125000D01*
X86104761Y-61089285D01*
X86295238Y-61089285D01*
X86390476Y-61125000D01*
X86438095Y-61160714D01*
X86485714Y-61232142D01*
X86485714Y-61267857D01*
X86438095Y-61339285D01*
X86390476Y-61375000D01*
X86295238Y-61410714D01*
X86104761Y-61410714D01*
X86009523Y-61446428D01*
X85961904Y-61482142D01*
X85914285Y-61553571D01*
X85914285Y-61696428D01*
X85961904Y-61767857D01*
X86009523Y-61803571D01*
X86104761Y-61839285D01*
X86295238Y-61839285D01*
X86390476Y-61803571D01*
X86438095Y-61767857D01*
X86485714Y-61696428D01*
X86485714Y-61553571D01*
X86438095Y-61482142D01*
X86390476Y-61446428D01*
X86295238Y-61410714D01*
%TO.C,R7*%
X87339285Y-117766666D02*
X86982142Y-118100000D01*
X87339285Y-118338095D02*
X86589285Y-118338095D01*
X86589285Y-117957142D01*
X86625000Y-117861904D01*
X86660714Y-117814285D01*
X86732142Y-117766666D01*
X86839285Y-117766666D01*
X86910714Y-117814285D01*
X86946428Y-117861904D01*
X86982142Y-117957142D01*
X86982142Y-118338095D01*
X86589285Y-117433333D02*
X86589285Y-116766666D01*
X87339285Y-117195238D01*
%TO.C,R6*%
X83833333Y-120439285D02*
X83500000Y-120082142D01*
X83261904Y-120439285D02*
X83261904Y-119689285D01*
X83642857Y-119689285D01*
X83738095Y-119725000D01*
X83785714Y-119760714D01*
X83833333Y-119832142D01*
X83833333Y-119939285D01*
X83785714Y-120010714D01*
X83738095Y-120046428D01*
X83642857Y-120082142D01*
X83261904Y-120082142D01*
X84690476Y-119689285D02*
X84500000Y-119689285D01*
X84404761Y-119725000D01*
X84357142Y-119760714D01*
X84261904Y-119867857D01*
X84214285Y-120010714D01*
X84214285Y-120296428D01*
X84261904Y-120367857D01*
X84309523Y-120403571D01*
X84404761Y-120439285D01*
X84595238Y-120439285D01*
X84690476Y-120403571D01*
X84738095Y-120367857D01*
X84785714Y-120296428D01*
X84785714Y-120117857D01*
X84738095Y-120046428D01*
X84690476Y-120010714D01*
X84595238Y-119975000D01*
X84404761Y-119975000D01*
X84309523Y-120010714D01*
X84261904Y-120046428D01*
X84214285Y-120117857D01*
%TO.C,R5*%
X88533333Y-120439285D02*
X88200000Y-120082142D01*
X87961904Y-120439285D02*
X87961904Y-119689285D01*
X88342857Y-119689285D01*
X88438095Y-119725000D01*
X88485714Y-119760714D01*
X88533333Y-119832142D01*
X88533333Y-119939285D01*
X88485714Y-120010714D01*
X88438095Y-120046428D01*
X88342857Y-120082142D01*
X87961904Y-120082142D01*
X89438095Y-119689285D02*
X88961904Y-119689285D01*
X88914285Y-120046428D01*
X88961904Y-120010714D01*
X89057142Y-119975000D01*
X89295238Y-119975000D01*
X89390476Y-120010714D01*
X89438095Y-120046428D01*
X89485714Y-120117857D01*
X89485714Y-120296428D01*
X89438095Y-120367857D01*
X89390476Y-120403571D01*
X89295238Y-120439285D01*
X89057142Y-120439285D01*
X88961904Y-120403571D01*
X88914285Y-120367857D01*
%TO.C,R2*%
X92533333Y-123839285D02*
X92200000Y-123482142D01*
X91961904Y-123839285D02*
X91961904Y-123089285D01*
X92342857Y-123089285D01*
X92438095Y-123125000D01*
X92485714Y-123160714D01*
X92533333Y-123232142D01*
X92533333Y-123339285D01*
X92485714Y-123410714D01*
X92438095Y-123446428D01*
X92342857Y-123482142D01*
X91961904Y-123482142D01*
X92914285Y-123160714D02*
X92961904Y-123125000D01*
X93057142Y-123089285D01*
X93295238Y-123089285D01*
X93390476Y-123125000D01*
X93438095Y-123160714D01*
X93485714Y-123232142D01*
X93485714Y-123303571D01*
X93438095Y-123410714D01*
X92866666Y-123839285D01*
X93485714Y-123839285D01*
%TO.C,R12*%
X73339285Y-93142857D02*
X72982142Y-93476190D01*
X73339285Y-93714285D02*
X72589285Y-93714285D01*
X72589285Y-93333333D01*
X72625000Y-93238095D01*
X72660714Y-93190476D01*
X72732142Y-93142857D01*
X72839285Y-93142857D01*
X72910714Y-93190476D01*
X72946428Y-93238095D01*
X72982142Y-93333333D01*
X72982142Y-93714285D01*
X73339285Y-92190476D02*
X73339285Y-92761904D01*
X73339285Y-92476190D02*
X72589285Y-92476190D01*
X72696428Y-92571428D01*
X72767857Y-92666666D01*
X72803571Y-92761904D01*
X72660714Y-91809523D02*
X72625000Y-91761904D01*
X72589285Y-91666666D01*
X72589285Y-91428571D01*
X72625000Y-91333333D01*
X72660714Y-91285714D01*
X72732142Y-91238095D01*
X72803571Y-91238095D01*
X72910714Y-91285714D01*
X73339285Y-91857142D01*
X73339285Y-91238095D01*
%TO.C,R10*%
X74839285Y-93142857D02*
X74482142Y-93476190D01*
X74839285Y-93714285D02*
X74089285Y-93714285D01*
X74089285Y-93333333D01*
X74125000Y-93238095D01*
X74160714Y-93190476D01*
X74232142Y-93142857D01*
X74339285Y-93142857D01*
X74410714Y-93190476D01*
X74446428Y-93238095D01*
X74482142Y-93333333D01*
X74482142Y-93714285D01*
X74839285Y-92190476D02*
X74839285Y-92761904D01*
X74839285Y-92476190D02*
X74089285Y-92476190D01*
X74196428Y-92571428D01*
X74267857Y-92666666D01*
X74303571Y-92761904D01*
X74089285Y-91571428D02*
X74089285Y-91476190D01*
X74125000Y-91380952D01*
X74160714Y-91333333D01*
X74232142Y-91285714D01*
X74375000Y-91238095D01*
X74553571Y-91238095D01*
X74696428Y-91285714D01*
X74767857Y-91333333D01*
X74803571Y-91380952D01*
X74839285Y-91476190D01*
X74839285Y-91571428D01*
X74803571Y-91666666D01*
X74767857Y-91714285D01*
X74696428Y-91761904D01*
X74553571Y-91809523D01*
X74375000Y-91809523D01*
X74232142Y-91761904D01*
X74160714Y-91714285D01*
X74125000Y-91666666D01*
X74089285Y-91571428D01*
%TO.C,R14*%
X82139285Y-126242857D02*
X81782142Y-126576190D01*
X82139285Y-126814285D02*
X81389285Y-126814285D01*
X81389285Y-126433333D01*
X81425000Y-126338095D01*
X81460714Y-126290476D01*
X81532142Y-126242857D01*
X81639285Y-126242857D01*
X81710714Y-126290476D01*
X81746428Y-126338095D01*
X81782142Y-126433333D01*
X81782142Y-126814285D01*
X82139285Y-125290476D02*
X82139285Y-125861904D01*
X82139285Y-125576190D02*
X81389285Y-125576190D01*
X81496428Y-125671428D01*
X81567857Y-125766666D01*
X81603571Y-125861904D01*
X81639285Y-124433333D02*
X82139285Y-124433333D01*
X81353571Y-124671428D02*
X81889285Y-124909523D01*
X81889285Y-124290476D01*
%TO.C,R15*%
X63289285Y-94642857D02*
X62932142Y-94976190D01*
X63289285Y-95214285D02*
X62539285Y-95214285D01*
X62539285Y-94833333D01*
X62575000Y-94738095D01*
X62610714Y-94690476D01*
X62682142Y-94642857D01*
X62789285Y-94642857D01*
X62860714Y-94690476D01*
X62896428Y-94738095D01*
X62932142Y-94833333D01*
X62932142Y-95214285D01*
X63289285Y-93690476D02*
X63289285Y-94261904D01*
X63289285Y-93976190D02*
X62539285Y-93976190D01*
X62646428Y-94071428D01*
X62717857Y-94166666D01*
X62753571Y-94261904D01*
X62539285Y-92785714D02*
X62539285Y-93261904D01*
X62896428Y-93309523D01*
X62860714Y-93261904D01*
X62825000Y-93166666D01*
X62825000Y-92928571D01*
X62860714Y-92833333D01*
X62896428Y-92785714D01*
X62967857Y-92738095D01*
X63146428Y-92738095D01*
X63217857Y-92785714D01*
X63253571Y-92833333D01*
X63289285Y-92928571D01*
X63289285Y-93166666D01*
X63253571Y-93261904D01*
X63217857Y-93309523D01*
%TO.C,R4*%
X93333333Y-106009285D02*
X93000000Y-105652142D01*
X92761904Y-106009285D02*
X92761904Y-105259285D01*
X93142857Y-105259285D01*
X93238095Y-105295000D01*
X93285714Y-105330714D01*
X93333333Y-105402142D01*
X93333333Y-105509285D01*
X93285714Y-105580714D01*
X93238095Y-105616428D01*
X93142857Y-105652142D01*
X92761904Y-105652142D01*
X94190476Y-105509285D02*
X94190476Y-106009285D01*
X93952380Y-105223571D02*
X93714285Y-105759285D01*
X94333333Y-105759285D01*
%TO.C,R3*%
X93333333Y-110369285D02*
X93000000Y-110012142D01*
X92761904Y-110369285D02*
X92761904Y-109619285D01*
X93142857Y-109619285D01*
X93238095Y-109655000D01*
X93285714Y-109690714D01*
X93333333Y-109762142D01*
X93333333Y-109869285D01*
X93285714Y-109940714D01*
X93238095Y-109976428D01*
X93142857Y-110012142D01*
X92761904Y-110012142D01*
X93666666Y-109619285D02*
X94285714Y-109619285D01*
X93952380Y-109905000D01*
X94095238Y-109905000D01*
X94190476Y-109940714D01*
X94238095Y-109976428D01*
X94285714Y-110047857D01*
X94285714Y-110226428D01*
X94238095Y-110297857D01*
X94190476Y-110333571D01*
X94095238Y-110369285D01*
X93809523Y-110369285D01*
X93714285Y-110333571D01*
X93666666Y-110297857D01*
%TO.C,R1*%
X98039285Y-92266666D02*
X97682142Y-92600000D01*
X98039285Y-92838095D02*
X97289285Y-92838095D01*
X97289285Y-92457142D01*
X97325000Y-92361904D01*
X97360714Y-92314285D01*
X97432142Y-92266666D01*
X97539285Y-92266666D01*
X97610714Y-92314285D01*
X97646428Y-92361904D01*
X97682142Y-92457142D01*
X97682142Y-92838095D01*
X98039285Y-91314285D02*
X98039285Y-91885714D01*
X98039285Y-91600000D02*
X97289285Y-91600000D01*
X97396428Y-91695238D01*
X97467857Y-91790476D01*
X97503571Y-91885714D01*
%TO.C,FB1*%
X77166666Y-88646428D02*
X76833333Y-88646428D01*
X76833333Y-89039285D02*
X76833333Y-88289285D01*
X77309523Y-88289285D01*
X78023809Y-88646428D02*
X78166666Y-88682142D01*
X78214285Y-88717857D01*
X78261904Y-88789285D01*
X78261904Y-88896428D01*
X78214285Y-88967857D01*
X78166666Y-89003571D01*
X78071428Y-89039285D01*
X77690476Y-89039285D01*
X77690476Y-88289285D01*
X78023809Y-88289285D01*
X78119047Y-88325000D01*
X78166666Y-88360714D01*
X78214285Y-88432142D01*
X78214285Y-88503571D01*
X78166666Y-88575000D01*
X78119047Y-88610714D01*
X78023809Y-88646428D01*
X77690476Y-88646428D01*
X79214285Y-89039285D02*
X78642857Y-89039285D01*
X78928571Y-89039285D02*
X78928571Y-88289285D01*
X78833333Y-88396428D01*
X78738095Y-88467857D01*
X78642857Y-88503571D01*
%TO.C,D4*%
X71761904Y-86619285D02*
X71761904Y-85869285D01*
X72000000Y-85869285D01*
X72142857Y-85905000D01*
X72238095Y-85976428D01*
X72285714Y-86047857D01*
X72333333Y-86190714D01*
X72333333Y-86297857D01*
X72285714Y-86440714D01*
X72238095Y-86512142D01*
X72142857Y-86583571D01*
X72000000Y-86619285D01*
X71761904Y-86619285D01*
X73190476Y-86119285D02*
X73190476Y-86619285D01*
X72952380Y-85833571D02*
X72714285Y-86369285D01*
X73333333Y-86369285D01*
%TO.C,D3*%
X93639285Y-65538095D02*
X92889285Y-65538095D01*
X92889285Y-65300000D01*
X92925000Y-65157142D01*
X92996428Y-65061904D01*
X93067857Y-65014285D01*
X93210714Y-64966666D01*
X93317857Y-64966666D01*
X93460714Y-65014285D01*
X93532142Y-65061904D01*
X93603571Y-65157142D01*
X93639285Y-65300000D01*
X93639285Y-65538095D01*
X92889285Y-64633333D02*
X92889285Y-64014285D01*
X93175000Y-64347619D01*
X93175000Y-64204761D01*
X93210714Y-64109523D01*
X93246428Y-64061904D01*
X93317857Y-64014285D01*
X93496428Y-64014285D01*
X93567857Y-64061904D01*
X93603571Y-64109523D01*
X93639285Y-64204761D01*
X93639285Y-64490476D01*
X93603571Y-64585714D01*
X93567857Y-64633333D01*
%TO.C,D2*%
X87939285Y-65538095D02*
X87189285Y-65538095D01*
X87189285Y-65300000D01*
X87225000Y-65157142D01*
X87296428Y-65061904D01*
X87367857Y-65014285D01*
X87510714Y-64966666D01*
X87617857Y-64966666D01*
X87760714Y-65014285D01*
X87832142Y-65061904D01*
X87903571Y-65157142D01*
X87939285Y-65300000D01*
X87939285Y-65538095D01*
X87260714Y-64585714D02*
X87225000Y-64538095D01*
X87189285Y-64442857D01*
X87189285Y-64204761D01*
X87225000Y-64109523D01*
X87260714Y-64061904D01*
X87332142Y-64014285D01*
X87403571Y-64014285D01*
X87510714Y-64061904D01*
X87939285Y-64633333D01*
X87939285Y-64014285D01*
%TO.C,U1*%
X88238095Y-121589285D02*
X88238095Y-122196428D01*
X88285714Y-122267857D01*
X88333333Y-122303571D01*
X88428571Y-122339285D01*
X88619047Y-122339285D01*
X88714285Y-122303571D01*
X88761904Y-122267857D01*
X88809523Y-122196428D01*
X88809523Y-121589285D01*
X89809523Y-122339285D02*
X89238095Y-122339285D01*
X89523809Y-122339285D02*
X89523809Y-121589285D01*
X89428571Y-121696428D01*
X89333333Y-121767857D01*
X89238095Y-121803571D01*
%TO.C,J4*%
X101666666Y-105189285D02*
X101666666Y-105725000D01*
X101619047Y-105832142D01*
X101523809Y-105903571D01*
X101380952Y-105939285D01*
X101285714Y-105939285D01*
X102571428Y-105439285D02*
X102571428Y-105939285D01*
X102333333Y-105153571D02*
X102095238Y-105689285D01*
X102714285Y-105689285D01*
%TO.C,J6*%
X93459285Y-126433333D02*
X93995000Y-126433333D01*
X94102142Y-126480952D01*
X94173571Y-126576190D01*
X94209285Y-126719047D01*
X94209285Y-126814285D01*
X93459285Y-125528571D02*
X93459285Y-125719047D01*
X93495000Y-125814285D01*
X93530714Y-125861904D01*
X93637857Y-125957142D01*
X93780714Y-126004761D01*
X94066428Y-126004761D01*
X94137857Y-125957142D01*
X94173571Y-125909523D01*
X94209285Y-125814285D01*
X94209285Y-125623809D01*
X94173571Y-125528571D01*
X94137857Y-125480952D01*
X94066428Y-125433333D01*
X93887857Y-125433333D01*
X93816428Y-125480952D01*
X93780714Y-125528571D01*
X93745000Y-125623809D01*
X93745000Y-125814285D01*
X93780714Y-125909523D01*
X93816428Y-125957142D01*
X93887857Y-126004761D01*
%TO.C,J1*%
X77999285Y-58333333D02*
X78535000Y-58333333D01*
X78642142Y-58380952D01*
X78713571Y-58476190D01*
X78749285Y-58619047D01*
X78749285Y-58714285D01*
X78749285Y-57333333D02*
X78749285Y-57904761D01*
X78749285Y-57619047D02*
X77999285Y-57619047D01*
X78106428Y-57714285D01*
X78177857Y-57809523D01*
X78213571Y-57904761D01*
%TO.C,J2*%
X91366666Y-128689285D02*
X91366666Y-129225000D01*
X91319047Y-129332142D01*
X91223809Y-129403571D01*
X91080952Y-129439285D01*
X90985714Y-129439285D01*
X91795238Y-128760714D02*
X91842857Y-128725000D01*
X91938095Y-128689285D01*
X92176190Y-128689285D01*
X92271428Y-128725000D01*
X92319047Y-128760714D01*
X92366666Y-128832142D01*
X92366666Y-128903571D01*
X92319047Y-129010714D01*
X91747619Y-129439285D01*
X92366666Y-129439285D01*
%TO.C,H4*%
X66638095Y-129439285D02*
X66638095Y-128689285D01*
X66638095Y-129046428D02*
X67209523Y-129046428D01*
X67209523Y-129439285D02*
X67209523Y-128689285D01*
X68114285Y-128939285D02*
X68114285Y-129439285D01*
X67876190Y-128653571D02*
X67638095Y-129189285D01*
X68257142Y-129189285D01*
%TO.C,H3*%
X62738095Y-54489285D02*
X62738095Y-53739285D01*
X62738095Y-54096428D02*
X63309523Y-54096428D01*
X63309523Y-54489285D02*
X63309523Y-53739285D01*
X63690476Y-53739285D02*
X64309523Y-53739285D01*
X63976190Y-54025000D01*
X64119047Y-54025000D01*
X64214285Y-54060714D01*
X64261904Y-54096428D01*
X64309523Y-54167857D01*
X64309523Y-54346428D01*
X64261904Y-54417857D01*
X64214285Y-54453571D01*
X64119047Y-54489285D01*
X63833333Y-54489285D01*
X63738095Y-54453571D01*
X63690476Y-54417857D01*
%TO.C,H2*%
X110738095Y-54489285D02*
X110738095Y-53739285D01*
X110738095Y-54096428D02*
X111309523Y-54096428D01*
X111309523Y-54489285D02*
X111309523Y-53739285D01*
X111738095Y-53810714D02*
X111785714Y-53775000D01*
X111880952Y-53739285D01*
X112119047Y-53739285D01*
X112214285Y-53775000D01*
X112261904Y-53810714D01*
X112309523Y-53882142D01*
X112309523Y-53953571D01*
X112261904Y-54060714D01*
X111690476Y-54489285D01*
X112309523Y-54489285D01*
%TO.C,H1*%
X106838095Y-129439285D02*
X106838095Y-128689285D01*
X106838095Y-129046428D02*
X107409523Y-129046428D01*
X107409523Y-129439285D02*
X107409523Y-128689285D01*
X108409523Y-129439285D02*
X107838095Y-129439285D01*
X108123809Y-129439285D02*
X108123809Y-128689285D01*
X108028571Y-128796428D01*
X107933333Y-128867857D01*
X107838095Y-128903571D01*
%TO.C,Y1*%
X101782142Y-100126190D02*
X102139285Y-100126190D01*
X101389285Y-100459523D02*
X101782142Y-100126190D01*
X101389285Y-99792857D01*
X102139285Y-98935714D02*
X102139285Y-99507142D01*
X102139285Y-99221428D02*
X101389285Y-99221428D01*
X101496428Y-99316666D01*
X101567857Y-99411904D01*
X101603571Y-99507142D01*
%TO.C,U3*%
X86638095Y-82789285D02*
X86638095Y-83396428D01*
X86685714Y-83467857D01*
X86733333Y-83503571D01*
X86828571Y-83539285D01*
X87019047Y-83539285D01*
X87114285Y-83503571D01*
X87161904Y-83467857D01*
X87209523Y-83396428D01*
X87209523Y-82789285D01*
X87590476Y-82789285D02*
X88209523Y-82789285D01*
X87876190Y-83075000D01*
X88019047Y-83075000D01*
X88114285Y-83110714D01*
X88161904Y-83146428D01*
X88209523Y-83217857D01*
X88209523Y-83396428D01*
X88161904Y-83467857D01*
X88114285Y-83503571D01*
X88019047Y-83539285D01*
X87733333Y-83539285D01*
X87638095Y-83503571D01*
X87590476Y-83467857D01*
%TO.C,U2*%
X86238095Y-104989285D02*
X86238095Y-105596428D01*
X86285714Y-105667857D01*
X86333333Y-105703571D01*
X86428571Y-105739285D01*
X86619047Y-105739285D01*
X86714285Y-105703571D01*
X86761904Y-105667857D01*
X86809523Y-105596428D01*
X86809523Y-104989285D01*
X87238095Y-105060714D02*
X87285714Y-105025000D01*
X87380952Y-104989285D01*
X87619047Y-104989285D01*
X87714285Y-105025000D01*
X87761904Y-105060714D01*
X87809523Y-105132142D01*
X87809523Y-105203571D01*
X87761904Y-105310714D01*
X87190476Y-105739285D01*
X87809523Y-105739285D01*
%TO.C,J3*%
X61566666Y-95889285D02*
X61566666Y-96425000D01*
X61519047Y-96532142D01*
X61423809Y-96603571D01*
X61280952Y-96639285D01*
X61185714Y-96639285D01*
X61947619Y-95889285D02*
X62566666Y-95889285D01*
X62233333Y-96175000D01*
X62376190Y-96175000D01*
X62471428Y-96210714D01*
X62519047Y-96246428D01*
X62566666Y-96317857D01*
X62566666Y-96496428D01*
X62519047Y-96567857D01*
X62471428Y-96603571D01*
X62376190Y-96639285D01*
X62090476Y-96639285D01*
X61995238Y-96603571D01*
X61947619Y-96567857D01*
%TO.C,C17*%
X66567857Y-76542857D02*
X66603571Y-76590476D01*
X66639285Y-76733333D01*
X66639285Y-76828571D01*
X66603571Y-76971428D01*
X66532142Y-77066666D01*
X66460714Y-77114285D01*
X66317857Y-77161904D01*
X66210714Y-77161904D01*
X66067857Y-77114285D01*
X65996428Y-77066666D01*
X65925000Y-76971428D01*
X65889285Y-76828571D01*
X65889285Y-76733333D01*
X65925000Y-76590476D01*
X65960714Y-76542857D01*
X66639285Y-75590476D02*
X66639285Y-76161904D01*
X66639285Y-75876190D02*
X65889285Y-75876190D01*
X65996428Y-75971428D01*
X66067857Y-76066666D01*
X66103571Y-76161904D01*
X65889285Y-75257142D02*
X65889285Y-74590476D01*
X66639285Y-75019047D01*
%TO.C,C18*%
X77257142Y-87767857D02*
X77209523Y-87803571D01*
X77066666Y-87839285D01*
X76971428Y-87839285D01*
X76828571Y-87803571D01*
X76733333Y-87732142D01*
X76685714Y-87660714D01*
X76638095Y-87517857D01*
X76638095Y-87410714D01*
X76685714Y-87267857D01*
X76733333Y-87196428D01*
X76828571Y-87125000D01*
X76971428Y-87089285D01*
X77066666Y-87089285D01*
X77209523Y-87125000D01*
X77257142Y-87160714D01*
X78209523Y-87839285D02*
X77638095Y-87839285D01*
X77923809Y-87839285D02*
X77923809Y-87089285D01*
X77828571Y-87196428D01*
X77733333Y-87267857D01*
X77638095Y-87303571D01*
X78780952Y-87410714D02*
X78685714Y-87375000D01*
X78638095Y-87339285D01*
X78590476Y-87267857D01*
X78590476Y-87232142D01*
X78638095Y-87160714D01*
X78685714Y-87125000D01*
X78780952Y-87089285D01*
X78971428Y-87089285D01*
X79066666Y-87125000D01*
X79114285Y-87160714D01*
X79161904Y-87232142D01*
X79161904Y-87267857D01*
X79114285Y-87339285D01*
X79066666Y-87375000D01*
X78971428Y-87410714D01*
X78780952Y-87410714D01*
X78685714Y-87446428D01*
X78638095Y-87482142D01*
X78590476Y-87553571D01*
X78590476Y-87696428D01*
X78638095Y-87767857D01*
X78685714Y-87803571D01*
X78780952Y-87839285D01*
X78971428Y-87839285D01*
X79066666Y-87803571D01*
X79114285Y-87767857D01*
X79161904Y-87696428D01*
X79161904Y-87553571D01*
X79114285Y-87482142D01*
X79066666Y-87446428D01*
X78971428Y-87410714D01*
%TO.C,C15*%
X68367857Y-76642857D02*
X68403571Y-76690476D01*
X68439285Y-76833333D01*
X68439285Y-76928571D01*
X68403571Y-77071428D01*
X68332142Y-77166666D01*
X68260714Y-77214285D01*
X68117857Y-77261904D01*
X68010714Y-77261904D01*
X67867857Y-77214285D01*
X67796428Y-77166666D01*
X67725000Y-77071428D01*
X67689285Y-76928571D01*
X67689285Y-76833333D01*
X67725000Y-76690476D01*
X67760714Y-76642857D01*
X68439285Y-75690476D02*
X68439285Y-76261904D01*
X68439285Y-75976190D02*
X67689285Y-75976190D01*
X67796428Y-76071428D01*
X67867857Y-76166666D01*
X67903571Y-76261904D01*
X67689285Y-74785714D02*
X67689285Y-75261904D01*
X68046428Y-75309523D01*
X68010714Y-75261904D01*
X67975000Y-75166666D01*
X67975000Y-74928571D01*
X68010714Y-74833333D01*
X68046428Y-74785714D01*
X68117857Y-74738095D01*
X68296428Y-74738095D01*
X68367857Y-74785714D01*
X68403571Y-74833333D01*
X68439285Y-74928571D01*
X68439285Y-75166666D01*
X68403571Y-75261904D01*
X68367857Y-75309523D01*
%TO.C,C16*%
X80657142Y-83967857D02*
X80609523Y-84003571D01*
X80466666Y-84039285D01*
X80371428Y-84039285D01*
X80228571Y-84003571D01*
X80133333Y-83932142D01*
X80085714Y-83860714D01*
X80038095Y-83717857D01*
X80038095Y-83610714D01*
X80085714Y-83467857D01*
X80133333Y-83396428D01*
X80228571Y-83325000D01*
X80371428Y-83289285D01*
X80466666Y-83289285D01*
X80609523Y-83325000D01*
X80657142Y-83360714D01*
X81609523Y-84039285D02*
X81038095Y-84039285D01*
X81323809Y-84039285D02*
X81323809Y-83289285D01*
X81228571Y-83396428D01*
X81133333Y-83467857D01*
X81038095Y-83503571D01*
X82466666Y-83289285D02*
X82276190Y-83289285D01*
X82180952Y-83325000D01*
X82133333Y-83360714D01*
X82038095Y-83467857D01*
X81990476Y-83610714D01*
X81990476Y-83896428D01*
X82038095Y-83967857D01*
X82085714Y-84003571D01*
X82180952Y-84039285D01*
X82371428Y-84039285D01*
X82466666Y-84003571D01*
X82514285Y-83967857D01*
X82561904Y-83896428D01*
X82561904Y-83717857D01*
X82514285Y-83646428D01*
X82466666Y-83610714D01*
X82371428Y-83575000D01*
X82180952Y-83575000D01*
X82085714Y-83610714D01*
X82038095Y-83646428D01*
X81990476Y-83717857D01*
%TO.C,C14*%
X70267857Y-76642857D02*
X70303571Y-76690476D01*
X70339285Y-76833333D01*
X70339285Y-76928571D01*
X70303571Y-77071428D01*
X70232142Y-77166666D01*
X70160714Y-77214285D01*
X70017857Y-77261904D01*
X69910714Y-77261904D01*
X69767857Y-77214285D01*
X69696428Y-77166666D01*
X69625000Y-77071428D01*
X69589285Y-76928571D01*
X69589285Y-76833333D01*
X69625000Y-76690476D01*
X69660714Y-76642857D01*
X70339285Y-75690476D02*
X70339285Y-76261904D01*
X70339285Y-75976190D02*
X69589285Y-75976190D01*
X69696428Y-76071428D01*
X69767857Y-76166666D01*
X69803571Y-76261904D01*
X69839285Y-74833333D02*
X70339285Y-74833333D01*
X69553571Y-75071428D02*
X70089285Y-75309523D01*
X70089285Y-74690476D01*
%TO.C,C13*%
X78267857Y-95942857D02*
X78303571Y-95990476D01*
X78339285Y-96133333D01*
X78339285Y-96228571D01*
X78303571Y-96371428D01*
X78232142Y-96466666D01*
X78160714Y-96514285D01*
X78017857Y-96561904D01*
X77910714Y-96561904D01*
X77767857Y-96514285D01*
X77696428Y-96466666D01*
X77625000Y-96371428D01*
X77589285Y-96228571D01*
X77589285Y-96133333D01*
X77625000Y-95990476D01*
X77660714Y-95942857D01*
X78339285Y-94990476D02*
X78339285Y-95561904D01*
X78339285Y-95276190D02*
X77589285Y-95276190D01*
X77696428Y-95371428D01*
X77767857Y-95466666D01*
X77803571Y-95561904D01*
X77589285Y-94657142D02*
X77589285Y-94038095D01*
X77875000Y-94371428D01*
X77875000Y-94228571D01*
X77910714Y-94133333D01*
X77946428Y-94085714D01*
X78017857Y-94038095D01*
X78196428Y-94038095D01*
X78267857Y-94085714D01*
X78303571Y-94133333D01*
X78339285Y-94228571D01*
X78339285Y-94514285D01*
X78303571Y-94609523D01*
X78267857Y-94657142D01*
%TO.C,C11*%
X96267857Y-104642857D02*
X96303571Y-104690476D01*
X96339285Y-104833333D01*
X96339285Y-104928571D01*
X96303571Y-105071428D01*
X96232142Y-105166666D01*
X96160714Y-105214285D01*
X96017857Y-105261904D01*
X95910714Y-105261904D01*
X95767857Y-105214285D01*
X95696428Y-105166666D01*
X95625000Y-105071428D01*
X95589285Y-104928571D01*
X95589285Y-104833333D01*
X95625000Y-104690476D01*
X95660714Y-104642857D01*
X96339285Y-103690476D02*
X96339285Y-104261904D01*
X96339285Y-103976190D02*
X95589285Y-103976190D01*
X95696428Y-104071428D01*
X95767857Y-104166666D01*
X95803571Y-104261904D01*
X96339285Y-102738095D02*
X96339285Y-103309523D01*
X96339285Y-103023809D02*
X95589285Y-103023809D01*
X95696428Y-103119047D01*
X95767857Y-103214285D01*
X95803571Y-103309523D01*
%TO.C,C12*%
X87357142Y-87467857D02*
X87309523Y-87503571D01*
X87166666Y-87539285D01*
X87071428Y-87539285D01*
X86928571Y-87503571D01*
X86833333Y-87432142D01*
X86785714Y-87360714D01*
X86738095Y-87217857D01*
X86738095Y-87110714D01*
X86785714Y-86967857D01*
X86833333Y-86896428D01*
X86928571Y-86825000D01*
X87071428Y-86789285D01*
X87166666Y-86789285D01*
X87309523Y-86825000D01*
X87357142Y-86860714D01*
X88309523Y-87539285D02*
X87738095Y-87539285D01*
X88023809Y-87539285D02*
X88023809Y-86789285D01*
X87928571Y-86896428D01*
X87833333Y-86967857D01*
X87738095Y-87003571D01*
X88690476Y-86860714D02*
X88738095Y-86825000D01*
X88833333Y-86789285D01*
X89071428Y-86789285D01*
X89166666Y-86825000D01*
X89214285Y-86860714D01*
X89261904Y-86932142D01*
X89261904Y-87003571D01*
X89214285Y-87110714D01*
X88642857Y-87539285D01*
X89261904Y-87539285D01*
%TO.C,C10*%
X68467857Y-86642857D02*
X68503571Y-86690476D01*
X68539285Y-86833333D01*
X68539285Y-86928571D01*
X68503571Y-87071428D01*
X68432142Y-87166666D01*
X68360714Y-87214285D01*
X68217857Y-87261904D01*
X68110714Y-87261904D01*
X67967857Y-87214285D01*
X67896428Y-87166666D01*
X67825000Y-87071428D01*
X67789285Y-86928571D01*
X67789285Y-86833333D01*
X67825000Y-86690476D01*
X67860714Y-86642857D01*
X68539285Y-85690476D02*
X68539285Y-86261904D01*
X68539285Y-85976190D02*
X67789285Y-85976190D01*
X67896428Y-86071428D01*
X67967857Y-86166666D01*
X68003571Y-86261904D01*
X67789285Y-85071428D02*
X67789285Y-84976190D01*
X67825000Y-84880952D01*
X67860714Y-84833333D01*
X67932142Y-84785714D01*
X68075000Y-84738095D01*
X68253571Y-84738095D01*
X68396428Y-84785714D01*
X68467857Y-84833333D01*
X68503571Y-84880952D01*
X68539285Y-84976190D01*
X68539285Y-85071428D01*
X68503571Y-85166666D01*
X68467857Y-85214285D01*
X68396428Y-85261904D01*
X68253571Y-85309523D01*
X68075000Y-85309523D01*
X67932142Y-85261904D01*
X67860714Y-85214285D01*
X67825000Y-85166666D01*
X67789285Y-85071428D01*
%TO.C,C9*%
X93733333Y-91837857D02*
X93685714Y-91873571D01*
X93542857Y-91909285D01*
X93447619Y-91909285D01*
X93304761Y-91873571D01*
X93209523Y-91802142D01*
X93161904Y-91730714D01*
X93114285Y-91587857D01*
X93114285Y-91480714D01*
X93161904Y-91337857D01*
X93209523Y-91266428D01*
X93304761Y-91195000D01*
X93447619Y-91159285D01*
X93542857Y-91159285D01*
X93685714Y-91195000D01*
X93733333Y-91230714D01*
X94209523Y-91909285D02*
X94400000Y-91909285D01*
X94495238Y-91873571D01*
X94542857Y-91837857D01*
X94638095Y-91730714D01*
X94685714Y-91587857D01*
X94685714Y-91302142D01*
X94638095Y-91230714D01*
X94590476Y-91195000D01*
X94495238Y-91159285D01*
X94304761Y-91159285D01*
X94209523Y-91195000D01*
X94161904Y-91230714D01*
X94114285Y-91302142D01*
X94114285Y-91480714D01*
X94161904Y-91552142D01*
X94209523Y-91587857D01*
X94304761Y-91623571D01*
X94495238Y-91623571D01*
X94590476Y-91587857D01*
X94638095Y-91552142D01*
X94685714Y-91480714D01*
%TO.C,C8*%
X86933333Y-88967857D02*
X86885714Y-89003571D01*
X86742857Y-89039285D01*
X86647619Y-89039285D01*
X86504761Y-89003571D01*
X86409523Y-88932142D01*
X86361904Y-88860714D01*
X86314285Y-88717857D01*
X86314285Y-88610714D01*
X86361904Y-88467857D01*
X86409523Y-88396428D01*
X86504761Y-88325000D01*
X86647619Y-88289285D01*
X86742857Y-88289285D01*
X86885714Y-88325000D01*
X86933333Y-88360714D01*
X87504761Y-88610714D02*
X87409523Y-88575000D01*
X87361904Y-88539285D01*
X87314285Y-88467857D01*
X87314285Y-88432142D01*
X87361904Y-88360714D01*
X87409523Y-88325000D01*
X87504761Y-88289285D01*
X87695238Y-88289285D01*
X87790476Y-88325000D01*
X87838095Y-88360714D01*
X87885714Y-88432142D01*
X87885714Y-88467857D01*
X87838095Y-88539285D01*
X87790476Y-88575000D01*
X87695238Y-88610714D01*
X87504761Y-88610714D01*
X87409523Y-88646428D01*
X87361904Y-88682142D01*
X87314285Y-88753571D01*
X87314285Y-88896428D01*
X87361904Y-88967857D01*
X87409523Y-89003571D01*
X87504761Y-89039285D01*
X87695238Y-89039285D01*
X87790476Y-89003571D01*
X87838095Y-88967857D01*
X87885714Y-88896428D01*
X87885714Y-88753571D01*
X87838095Y-88682142D01*
X87790476Y-88646428D01*
X87695238Y-88610714D01*
%TO.C,C7*%
X66667857Y-85666666D02*
X66703571Y-85714285D01*
X66739285Y-85857142D01*
X66739285Y-85952380D01*
X66703571Y-86095238D01*
X66632142Y-86190476D01*
X66560714Y-86238095D01*
X66417857Y-86285714D01*
X66310714Y-86285714D01*
X66167857Y-86238095D01*
X66096428Y-86190476D01*
X66025000Y-86095238D01*
X65989285Y-85952380D01*
X65989285Y-85857142D01*
X66025000Y-85714285D01*
X66060714Y-85666666D01*
X65989285Y-85333333D02*
X65989285Y-84666666D01*
X66739285Y-85095238D01*
%TO.C,C6*%
X79467857Y-95166666D02*
X79503571Y-95214285D01*
X79539285Y-95357142D01*
X79539285Y-95452380D01*
X79503571Y-95595238D01*
X79432142Y-95690476D01*
X79360714Y-95738095D01*
X79217857Y-95785714D01*
X79110714Y-95785714D01*
X78967857Y-95738095D01*
X78896428Y-95690476D01*
X78825000Y-95595238D01*
X78789285Y-95452380D01*
X78789285Y-95357142D01*
X78825000Y-95214285D01*
X78860714Y-95166666D01*
X78789285Y-94309523D02*
X78789285Y-94500000D01*
X78825000Y-94595238D01*
X78860714Y-94642857D01*
X78967857Y-94738095D01*
X79110714Y-94785714D01*
X79396428Y-94785714D01*
X79467857Y-94738095D01*
X79503571Y-94690476D01*
X79539285Y-94595238D01*
X79539285Y-94404761D01*
X79503571Y-94309523D01*
X79467857Y-94261904D01*
X79396428Y-94214285D01*
X79217857Y-94214285D01*
X79146428Y-94261904D01*
X79110714Y-94309523D01*
X79075000Y-94404761D01*
X79075000Y-94595238D01*
X79110714Y-94690476D01*
X79146428Y-94738095D01*
X79217857Y-94785714D01*
%TO.C,C4*%
X70267857Y-85666666D02*
X70303571Y-85714285D01*
X70339285Y-85857142D01*
X70339285Y-85952380D01*
X70303571Y-86095238D01*
X70232142Y-86190476D01*
X70160714Y-86238095D01*
X70017857Y-86285714D01*
X69910714Y-86285714D01*
X69767857Y-86238095D01*
X69696428Y-86190476D01*
X69625000Y-86095238D01*
X69589285Y-85952380D01*
X69589285Y-85857142D01*
X69625000Y-85714285D01*
X69660714Y-85666666D01*
X69839285Y-84809523D02*
X70339285Y-84809523D01*
X69553571Y-85047619D02*
X70089285Y-85285714D01*
X70089285Y-84666666D01*
%TO.C,C3*%
X95907857Y-98566666D02*
X95943571Y-98614285D01*
X95979285Y-98757142D01*
X95979285Y-98852380D01*
X95943571Y-98995238D01*
X95872142Y-99090476D01*
X95800714Y-99138095D01*
X95657857Y-99185714D01*
X95550714Y-99185714D01*
X95407857Y-99138095D01*
X95336428Y-99090476D01*
X95265000Y-98995238D01*
X95229285Y-98852380D01*
X95229285Y-98757142D01*
X95265000Y-98614285D01*
X95300714Y-98566666D01*
X95229285Y-98233333D02*
X95229285Y-97614285D01*
X95515000Y-97947619D01*
X95515000Y-97804761D01*
X95550714Y-97709523D01*
X95586428Y-97661904D01*
X95657857Y-97614285D01*
X95836428Y-97614285D01*
X95907857Y-97661904D01*
X95943571Y-97709523D01*
X95979285Y-97804761D01*
X95979285Y-98090476D01*
X95943571Y-98185714D01*
X95907857Y-98233333D01*
%TO.C,C2*%
X95867857Y-100466666D02*
X95903571Y-100514285D01*
X95939285Y-100657142D01*
X95939285Y-100752380D01*
X95903571Y-100895238D01*
X95832142Y-100990476D01*
X95760714Y-101038095D01*
X95617857Y-101085714D01*
X95510714Y-101085714D01*
X95367857Y-101038095D01*
X95296428Y-100990476D01*
X95225000Y-100895238D01*
X95189285Y-100752380D01*
X95189285Y-100657142D01*
X95225000Y-100514285D01*
X95260714Y-100466666D01*
X95260714Y-100085714D02*
X95225000Y-100038095D01*
X95189285Y-99942857D01*
X95189285Y-99704761D01*
X95225000Y-99609523D01*
X95260714Y-99561904D01*
X95332142Y-99514285D01*
X95403571Y-99514285D01*
X95510714Y-99561904D01*
X95939285Y-100133333D01*
X95939285Y-99514285D01*
%TO.C,C1*%
X101097857Y-94966666D02*
X101133571Y-95014285D01*
X101169285Y-95157142D01*
X101169285Y-95252380D01*
X101133571Y-95395238D01*
X101062142Y-95490476D01*
X100990714Y-95538095D01*
X100847857Y-95585714D01*
X100740714Y-95585714D01*
X100597857Y-95538095D01*
X100526428Y-95490476D01*
X100455000Y-95395238D01*
X100419285Y-95252380D01*
X100419285Y-95157142D01*
X100455000Y-95014285D01*
X100490714Y-94966666D01*
X101169285Y-94014285D02*
X101169285Y-94585714D01*
X101169285Y-94300000D02*
X100419285Y-94300000D01*
X100526428Y-94395238D01*
X100597857Y-94490476D01*
X100633571Y-94585714D01*
%TD*%
M02*
