%TF.GenerationSoftware,KiCad,Pcbnew,(5.1.9)-1*%
%TF.CreationDate,2021-05-10T15:41:27+02:00*%
%TF.ProjectId,STM32_Launchpad_v1r1,53544d33-325f-44c6-9175-6e6368706164,rev?*%
%TF.SameCoordinates,Original*%
%TF.FileFunction,Soldermask,Bot*%
%TF.FilePolarity,Negative*%
%FSLAX46Y46*%
G04 Gerber Fmt 4.6, Leading zero omitted, Abs format (unit mm)*
G04 Created by KiCad (PCBNEW (5.1.9)-1) date 2021-05-10 15:41:27*
%MOMM*%
%LPD*%
G01*
G04 APERTURE LIST*
%ADD10O,1.700000X1.700000*%
%ADD11R,1.700000X1.700000*%
%ADD12O,1.350000X1.700000*%
%ADD13O,1.100000X1.500000*%
%ADD14C,5.700000*%
G04 APERTURE END LIST*
D10*
%TO.C,J5*%
X110260000Y-120380000D03*
X107720000Y-120380000D03*
X110260000Y-117840000D03*
X107720000Y-117840000D03*
X110260000Y-115300000D03*
X107720000Y-115300000D03*
X110260000Y-112760000D03*
X107720000Y-112760000D03*
X110260000Y-110220000D03*
X107720000Y-110220000D03*
X110260000Y-107680000D03*
X107720000Y-107680000D03*
X110260000Y-105140000D03*
X107720000Y-105140000D03*
X110260000Y-102600000D03*
X107720000Y-102600000D03*
X110260000Y-100060000D03*
X107720000Y-100060000D03*
X110260000Y-97520000D03*
D11*
X107720000Y-97520000D03*
%TD*%
D10*
%TO.C,J8*%
X88960000Y-58500000D03*
D11*
X91500000Y-58500000D03*
%TD*%
%TO.C,J7*%
X77500000Y-123100000D03*
D10*
X77500000Y-125640000D03*
X74960000Y-125640000D03*
X72420000Y-125640000D03*
X72420000Y-123100000D03*
X74960000Y-123100000D03*
%TD*%
%TO.C,J4*%
X99200000Y-108140000D03*
D11*
X99200000Y-105600000D03*
%TD*%
D10*
%TO.C,J6*%
X101280000Y-126100000D03*
X98740000Y-126100000D03*
D11*
X96200000Y-126100000D03*
%TD*%
D10*
%TO.C,J1*%
X68460000Y-58000000D03*
X71000000Y-58000000D03*
X73540000Y-58000000D03*
D11*
X76080000Y-58000000D03*
%TD*%
D12*
%TO.C,J2*%
X89205000Y-128230000D03*
X83745000Y-128230000D03*
D13*
X88895000Y-125230000D03*
X84055000Y-125230000D03*
%TD*%
D14*
%TO.C,H4*%
X63500000Y-127000000D03*
%TD*%
%TO.C,H3*%
X63500000Y-58000000D03*
%TD*%
%TO.C,H2*%
X111500000Y-58000000D03*
%TD*%
%TO.C,H1*%
X111500000Y-127000000D03*
%TD*%
D10*
%TO.C,J3*%
X67080000Y-120380000D03*
X64540000Y-120380000D03*
X67080000Y-117840000D03*
X64540000Y-117840000D03*
X67080000Y-115300000D03*
X64540000Y-115300000D03*
X67080000Y-112760000D03*
X64540000Y-112760000D03*
X67080000Y-110220000D03*
X64540000Y-110220000D03*
X67080000Y-107680000D03*
X64540000Y-107680000D03*
X67080000Y-105140000D03*
X64540000Y-105140000D03*
X67080000Y-102600000D03*
X64540000Y-102600000D03*
X67080000Y-100060000D03*
X64540000Y-100060000D03*
X67080000Y-97520000D03*
D11*
X64540000Y-97520000D03*
%TD*%
M02*
